<?xml version="1.0" encoding="UTF-8" standalone="no"?>
<svg
   xmlns:dc="http://purl.org/dc/elements/1.1/"
   xmlns:cc="http://creativecommons.org/ns#"
   xmlns:rdf="http://www.w3.org/1999/02/22-rdf-syntax-ns#"
   xmlns:svg="http://www.w3.org/2000/svg"
   xmlns="http://www.w3.org/2000/svg"
   xmlns:sodipodi="http://sodipodi.sourceforge.net/DTD/sodipodi-0.dtd"
   xmlns:inkscape="http://www.inkscape.org/namespaces/inkscape"
   width="512"
   height="128"
   viewBox="0 0 135.46666 33.866667"
   version="1.1"
   id="svg8"
   inkscape:version="1.0.1 (3bc2e813f5, 2020-09-07)"
   sodipodi:docname="30-30 Repeater Icon.svg">
  <defs
     id="defs2" />
  <sodipodi:namedview
     id="base"
     pagecolor="#ffffff"
     bordercolor="#666666"
     borderopacity="1.0"
     inkscape:pageopacity="0.0"
     inkscape:pageshadow="2"
     inkscape:zoom="1.4"
     inkscape:cx="288.87118"
     inkscape:cy="75.993889"
     inkscape:document-units="mm"
     inkscape:current-layer="layer1"
     inkscape:document-rotation="0"
     showgrid="false"
     units="px"
     inkscape:window-width="1366"
     inkscape:window-height="705"
     inkscape:window-x="-8"
     inkscape:window-y="-8"
     inkscape:window-maximized="1" />
  <metadata
     id="metadata5">
    <rdf:RDF>
      <cc:Work
         rdf:about="">
        <dc:format>image/svg+xml</dc:format>
        <dc:type
           rdf:resource="http://purl.org/dc/dcmitype/StillImage" />
        <dc:title></dc:title>
      </cc:Work>
    </rdf:RDF>
  </metadata>
  <g
     inkscape:label="Layer 1"
     inkscape:groupmode="layer"
     id="layer1">
    <path
       style="fill:#273839;stroke-width:0.118907;fill-opacity:1"
       d="m 103.19934,28.738476 c -0.23569,-0.04499 -0.26906,-0.113707 -0.23781,-0.489151 0.0316,-0.380181 0.0903,-0.455144 0.45253,-0.578678 0.22889,-0.07806 0.90321,-0.144941 1.49847,-0.148629 1.14765,-0.0067 1.02314,0.0386 2.17159,-0.798315 0.25008,-0.182256 0.31488,-0.185983 0.58499,-0.03364 0.16707,0.09417 0.32391,0.232237 0.34854,0.306752 0.0247,0.07453 -0.2835,0.515943 -0.68475,0.980971 l -0.72951,0.845504 -1.56493,-0.0162 c -0.86072,-0.0086 -1.68832,-0.03984 -1.83912,-0.06863 z m -1.43774,-0.47393 -0.40397,-0.318275 0.46063,-0.386719 c 0.57203,-0.480259 0.45114,-0.655452 -0.19981,-0.289578 l -0.48501,0.272574 0.32378,-0.489247 c 0.17807,-0.269085 0.36295,-0.489246 0.41083,-0.489246 0.14548,0 0.70771,0.480116 0.83016,0.708922 0.0898,0.167825 0.0723,0.211345 -0.0797,0.198859 -0.21371,-0.01754 -0.71065,0.717414 -0.57586,0.85168 0.0461,0.04594 0.18632,-0.0427 0.31149,-0.197134 0.23851,-0.2942 0.27165,-0.252615 0.15263,0.19153 -0.093,0.347174 -0.25118,0.335851 -0.74518,-0.05337 z m -1.08237,-1.013272 c 0,-0.09074 0.19652,-0.349347 0.43669,-0.574722 l 0.43672,-0.409766 -0.30424,0.530555 c -0.31122,0.542774 -0.56917,0.748486 -0.56917,0.453933 z m -0.35671,-0.606223 c 0,-0.233962 0.62416,-0.883886 0.68205,-0.710218 0.0671,0.201309 -0.17212,0.602497 -0.44696,0.749582 -0.18175,0.09727 -0.23509,0.08835 -0.23509,-0.03936 z m 7.62975,-0.300547 c -0.27248,-0.251538 -0.49541,-0.536655 -0.49541,-0.633587 0,-0.493583 2.34404,-3.070755 2.79298,-3.070755 0.30241,0 0.20106,0.415246 -0.23535,0.964243 -0.3038,0.382164 -0.41533,0.639697 -0.41617,0.960956 -6e-4,0.241387 0.0523,0.471947 0.11774,0.512369 0.24582,0.151918 0.10178,0.52841 -0.42718,1.116743 -0.30035,0.334069 -0.6125,0.607386 -0.69365,0.607386 -0.0811,0 -0.37048,-0.205808 -0.64296,-0.457355 z m -8.301597,0.156426 c -0.05738,-0.149602 0.03469,-0.30253 0.324824,-0.539314 0.557573,-0.455077 0.358523,-0.566735 -0.310927,-0.174412 -0.302378,0.177205 -0.575638,0.296345 -0.607224,0.264749 -0.109857,-0.109847 0.696674,-0.914767 0.916588,-0.914767 0.355046,0 0.500776,0.403618 0.310276,0.859352 -0.0895,0.214033 -0.25058,0.462064 -0.358037,0.551181 -0.167683,0.13906 -0.206732,0.132426 -0.2755,-0.0468 z m 5.992877,-1.083336 c -0.24525,-0.303055 -0.4459,-0.642747 -0.4459,-0.754843 0,-0.112106 0.36342,-0.62642 0.8076,-1.142935 1.29364,-1.504291 1.59509,-2.021112 1.255,-2.151613 -0.13829,-0.05309 -0.55836,0.308668 -1.48961,1.282729 -1.49973,1.568684 -1.52266,1.415327 -0.046,-0.307791 0.56033,-0.653851 1.01878,-1.255813 1.01878,-1.337686 0,-0.08187 -0.11055,-0.148887 -0.24566,-0.148887 -0.15617,0 -0.69715,0.465637 -1.48511,1.278249 -0.6817,0.703022 -1.23955,1.224732 -1.23967,1.159329 -1.2e-4,-0.06538 0.53993,-0.758361 1.20012,-1.53991 0.99589,-1.178963 1.16421,-1.433684 0.98816,-1.495437 -0.32016,-0.112306 -0.74794,0.0048 -0.81926,0.22446 -0.0931,0.286823 -1.92562,2.229464 -2.0188,2.140175 -0.0438,-0.04184 0.15345,-0.362948 0.43819,-0.713429 0.28471,-0.350492 0.76935,-0.947002 1.07696,-1.325591 0.30761,-0.378589 0.55929,-0.763355 0.55929,-0.855054 0,-0.476275 -0.35493,-0.251443 -1.50286,0.952043 -0.67582,0.708503 -1.25566,1.261284 -1.28854,1.228401 -0.0329,-0.03288 0.39065,-0.603735 0.94118,-1.268565 1.20235,-1.451937 1.42815,-1.952306 0.78956,-1.749615 -0.21542,0.06834 -0.86814,0.74412 -2.12757,2.20269 -0.61414,0.711238 -0.54201,0.307744 0.0878,-0.491143 1.82828,-2.319076 1.85471,-2.362529 1.43709,-2.362529 -0.14325,0 -0.73322,0.503963 -1.49636,1.278249 -1.36071,1.380548 -1.48038,1.340593 -0.26713,-0.08921 1.38833,-1.636146 1.47504,-1.783584 1.04881,-1.783584 -0.14555,0 -0.72177,0.495661 -1.48601,1.27824 -0.68653,0.703031 -1.24841,1.221233 -1.24859,1.151579 -1.1e-4,-0.06967 0.42551,-0.63149 0.94597,-1.248512 1.09747,-1.301086 1.28972,-1.608791 1.11457,-1.783937 -0.18824,-0.188241 -0.64384,0.07472 -1.03315,0.596273 -0.38291,0.513017 -1.741142,1.886006 -1.741142,1.760061 0,-0.04499 0.345211,-0.506002 0.767132,-1.024367 1.14317,-1.404471 1.48194,-2.030109 1.10563,-2.042004 -0.0818,-0.0029 -0.69315,0.572111 -1.358668,1.277077 -1.31279,1.390623 -1.727131,1.613691 -0.713058,0.383898 1.314986,-1.594714 1.669916,-2.250804 1.217636,-2.250804 -0.14713,0 -1.319839,1.210216 -2.237132,2.308678 L 97.86326,18.399015 96.803961,17.79384 c -1.155659,-0.660217 -1.951216,-1.003293 -3.140165,-1.354203 -0.953871,-0.281514 -2.811095,-0.574065 -3.686077,-0.580641 -0.359691,-0.0029 -0.787755,-0.0814 -0.951248,-0.17485 -0.173375,-0.09911 -0.628539,-0.171686 -1.092139,-0.174145 -1.367974,-0.0076 -1.636494,-0.253073 -1.2246,-1.12107 0.378185,-0.796971 1.463769,-1.037062 2.209977,-0.488761 0.662955,0.487131 1.303837,0.741176 2.247064,0.890711 2.009648,0.318609 4.194548,0.973412 5.615657,1.682973 0.505383,0.252348 1.008936,0.458813 1.119021,0.458813 0.110076,0 0.602735,-0.303035 1.094802,-0.673389 0.492068,-0.370364 1.108437,-0.794798 1.369707,-0.943209 0.56881,-0.323079 0.58475,-0.317055 2.21484,0.836697 0.59669,0.422338 1.47136,0.951329 1.9437,1.175532 0.84331,0.400282 1.64466,0.988548 3.8119,2.798267 0.59828,0.499588 1.27154,1.047194 1.49614,1.216897 l 0.40835,0.308544 -0.40398,0.523797 c -0.42854,0.555603 -3.57242,3.794021 -3.68253,3.79324 -0.0357,-2.38e-4 -0.26559,-0.248412 -0.51083,-0.551476 z m 2.74462,-2.583348 c 0.0233,-0.120637 -0.0199,-0.280551 -0.0958,-0.355343 -0.17397,-0.17138 -0.49609,0.215577 -0.39619,0.475912 0.0905,0.235631 0.4399,0.149984 0.49201,-0.120569 z M 95.680868,16.521717 c 0.178262,-0.214785 0.06376,-0.421374 -0.233483,-0.421374 -0.123077,0 -0.258296,0.05585 -0.300481,0.124115 -0.07882,0.127575 0.140147,0.470422 0.300481,0.470422 0.04937,0 0.15445,-0.07787 0.233483,-0.173163 z m -3.458433,-0.885525 c 0.21255,-0.134619 0.06643,-0.368181 -0.230339,-0.368181 -0.223432,0 -0.31316,0.234706 -0.151523,0.396346 0.103664,0.103661 0.182974,0.09781 0.381862,-0.02821 z m 6.081107,9.743353 c -0.0989,-0.1848 -0.08349,-0.308525 0.0672,-0.538418 0.223802,-0.34156 0.07091,-0.396041 -0.345535,-0.123153 -0.250861,0.164376 -0.313853,0.141024 -1.00824,-0.373699 l -0.740651,-0.549026 0.239529,-0.405982 c 0.408498,-0.692356 0.296421,-0.85291 -0.233905,-0.33506 -0.555927,0.54285 -0.731073,0.487302 -0.373633,-0.118502 0.327807,-0.555602 0.318456,-0.602458 -0.06071,-0.304179 -0.298984,0.235183 -0.637949,0.327836 -0.637949,0.174374 0,-0.163651 0.745556,-0.99808 0.891784,-0.99808 0.08711,0 0.328407,0.214681 0.536226,0.477066 0.341779,0.431535 0.365426,0.512655 0.247792,0.850088 -0.181045,0.519356 -0.168683,0.532871 0.161554,0.176537 0.535149,-0.577448 0.764165,-0.250451 0.281666,0.40216 -0.275852,0.373109 -0.224698,0.606843 0.07787,0.355752 0.153472,-0.127375 0.181227,-0.10835 0.181227,0.124202 v 0.274613 l 0.333506,-0.319505 c 0.578135,-0.553887 0.736648,-0.445051 0.736648,0.505811 0,0.859629 -0.134704,1.135291 -0.354284,0.725001 z m 0.483871,-0.03422 c 0.17342,-0.336328 0.593737,-0.802623 0.723485,-0.802623 0.21734,0 0.07615,0.331372 -0.293923,0.690117 -0.459395,0.44526 -0.623265,0.488188 -0.429562,0.112506 z m 5.458987,-0.812955 -0.41616,-0.360651 0.44442,0.27467 c 0.24443,0.15107 0.44508,0.314807 0.44589,0.363854 0.003,0.12951 -0.017,0.118311 -0.47415,-0.277873 z M 58.896579,22.808845 c -0.0397,-0.103442 -0.07217,-0.344953 -0.07217,-0.536683 0,-0.191739 -0.06559,-0.453638 -0.145763,-0.582014 -0.127573,-0.204273 -0.08746,-0.293113 0.321396,-0.711809 0.480839,-0.49244 0.375942,-0.655757 -0.178902,-0.27856 l -0.293995,0.19987 0.222178,-0.254531 c 0.145232,-0.166377 0.197118,-0.348852 0.149822,-0.526857 -0.09865,-0.371278 -2.43993,-3.304422 -2.637641,-3.304422 -0.08709,0 -0.352011,0.11427 -0.588728,0.25394 l -0.430394,0.25394 -0.384677,-0.372851 c -0.309051,-0.299547 -0.488763,-0.374643 -0.914095,-0.381992 -0.816158,-0.01411 -1.449678,-0.249174 -1.654403,-0.613914 -0.354323,-0.631262 -0.411548,-0.625448 6.154746,-0.625448 5.708032,0 6.050604,0.01201 6.444649,0.226986 0.228897,0.12484 0.711958,0.37369 1.073473,0.55301 0.755087,0.37452 1.080357,0.819656 0.824355,1.128114 -0.08768,0.105644 -0.991993,0.783856 -2.009592,1.507132 -1.017601,0.723285 -2.171224,1.644228 -2.563613,2.04655 -0.840685,0.861983 -1.575901,1.459666 -2.32911,1.893451 -0.625547,0.36027 -0.884962,0.393391 -0.987532,0.126088 z m 2.189439,-2.194522 c 0.202557,-0.378475 0.03486,-0.7297 -0.327608,-0.686123 -0.451664,0.05433 -0.610803,0.378979 -0.335077,0.683654 0.280664,0.310136 0.497596,0.310946 0.662685,0.0029 z m 1.313949,-2.553039 c 1.610411,-1.064827 1.897572,-1.354575 1.592976,-1.607381 -0.413008,-0.342761 -5.525256,-0.422423 -5.525256,-0.08607 0,0.269933 2.054215,2.705233 2.281906,2.705233 0.06613,0 0.808793,-0.455296 1.650374,-1.011757 z m 3.686691,-0.960288 0.288262,-0.307363 -0.28071,-0.227719 c -0.356472,-0.289168 -0.57019,-0.288481 -0.72582,0.0029 -0.149301,0.278978 0.03067,0.840128 0.269428,0.840128 0.08832,0 0.290288,-0.138307 0.44884,-0.307362 z m -9.113787,-0.711829 c 0.207696,-0.207695 0.224004,-0.288643 0.09585,-0.475798 -0.237755,-0.347222 -0.979152,-0.226509 -0.979152,0.159419 0,0.471461 0.536171,0.663515 0.8833,0.316379 z m 71.671349,6.253397 c -0.94816,-0.686829 -0.92824,-0.561246 -0.63794,-4.024581 0.4168,-4.972107 0.43207,-5.371007 0.22464,-5.866087 -0.17874,-0.426607 -0.19865,-0.436939 -0.99548,-0.516343 -0.44721,-0.04451 -1.34818,-0.189367 -2.00217,-0.321793 -1.36688,-0.276796 -2.0166,-0.241969 -7.29514,0.390951 -3.36668,0.403694 -3.87073,0.518555 -5.37807,1.225532 -1.38172,0.648065 -1.72655,0.720397 -4.88769,1.025282 -2.80703,0.270724 -4.03273,0.441199 -4.17302,0.580403 -0.16988,0.168559 0.0467,0.47005 0.69967,0.973774 l 0.64568,0.49813 2.64871,-0.152032 c 1.4568,-0.08359 2.89826,-0.114613 3.20326,-0.06891 0.42531,0.06376 0.84113,0.287585 1.7845,0.960431 0.67648,0.482499 1.45473,0.947421 1.72946,1.033164 l 0.49948,0.155892 v 1.292709 1.292717 l -0.68371,-0.07968 c -0.82533,-0.09622 -1.66821,-0.353703 -2.4654,-0.753127 -0.54349,-0.272297 -0.68158,-0.291083 -1.66526,-0.226462 l -1.07264,0.07044 -0.95065,-0.840519 c -1.48697,-1.314687 -2.2626,-1.876676 -3.5214,-2.551428 -1.19949,-0.642994 -2.71559,-1.701006 -3.13675,-2.188994 l -0.23781,-0.275567 0.23781,0.109342 c 0.37424,0.172067 2.9227,0.09893 6.47463,-0.185791 l 3.26418,-0.261651 1.07589,-0.540553 c 1.49414,-0.750687 2.37401,-1.061329 3.27564,-1.15646 0.42508,-0.04489 2.36488,-0.265081 4.31064,-0.489379 3.91762,-0.451618 4.86508,-0.489371 5.72607,-0.228177 0.79922,0.242445 1.32561,0.224917 3.83552,-0.1277 2.54795,-0.357954 3.05459,-0.351806 3.10991,0.03774 0.0231,0.162164 -0.0368,0.296792 -0.15144,0.340779 -0.12913,0.04956 -0.18103,0.198154 -0.16295,0.466619 0.0158,0.235345 -0.1014,0.648599 -0.29128,1.026635 -0.17481,0.348004 -0.39773,0.953769 -0.4954,1.346169 -0.27218,1.09341 -0.65105,3.896548 -0.77174,5.709736 -0.10091,1.516082 -0.12988,1.652197 -0.41509,1.949904 -0.16867,0.176032 -0.30664,0.410767 -0.30664,0.521634 0,0.317904 -0.49862,0.245209 -1.04802,-0.152786 z m -20.73356,-4.797486 c 0.027,-0.227577 -0.0163,-0.317818 -0.15237,-0.317818 -0.22517,0 -0.35618,0.28037 -0.25464,0.544966 0.10744,0.279979 0.36392,0.136849 0.40701,-0.227148 z m 21.57299,-0.58535 c 0.0967,-0.26287 -0.0414,-0.445898 -0.33639,-0.445898 -0.30768,0 -0.37775,0.218779 -0.14467,0.451846 0.18506,0.185048 0.41185,0.182246 0.48106,-0.0057 z m 0.38695,-2.052755 c 0,-0.169265 -0.0926,-0.246839 -0.32699,-0.273803 -0.25944,-0.02983 -0.32699,0.01106 -0.32699,0.198173 0,0.129691 0.0669,0.263404 0.14863,0.297145 0.27822,0.114822 0.50535,0.01525 0.50535,-0.221515 z m 0.2138,-1.559782 c 0.1144,-0.114393 -0.14058,-0.519441 -0.32699,-0.519441 -0.18676,0 -0.29446,0.225156 -0.21329,0.445898 0.0571,0.155206 0.41051,0.20332 0.54028,0.07358 z m -63.167862,8.200775 c -0.265191,-0.370335 -0.482166,-0.734875 -0.482166,-0.810086 0,-0.223097 0.565754,-0.692585 2.139219,-1.775235 l 1.48524,-1.021955 h 1.937897 1.937897 l 0.493826,-0.474502 c 0.482142,-0.463283 1.088945,-0.694615 1.454276,-0.55443 0.09653,0.03708 0.253927,0.255045 0.349778,0.484462 0.118427,0.283429 0.277935,0.443124 0.497697,0.498282 0.405504,0.101774 3.360569,-0.03479 4.132264,-0.190891 0.650199,-0.131569 1.029658,-0.0057 1.029658,0.342103 0,0.189805 -0.151378,0.224822 -1.267007,0.293085 -0.696853,0.0427 -2.187765,0.07749 -3.313132,0.07749 -1.125366,0 -2.333932,0.05461 -2.685693,0.121294 -0.876601,0.166243 -1.102977,0.423814 -1.17648,1.338543 l -0.05946,0.739927 -0.416167,-0.01763 c -0.228895,-0.0096 -0.740145,-0.05633 -1.136107,-0.103594 l -0.719941,-0.08607 -1.746679,0.906208 c -0.960667,0.498406 -1.79754,0.906199 -1.859712,0.906199 -0.06218,0 -0.330023,-0.302997 -0.595215,-0.673333 z m 6.152776,-1.609659 c 0.399753,-0.399748 -0.08677,-0.943904 -0.55236,-0.617794 -0.248529,0.174078 -0.338329,0.519813 -0.17693,0.681215 0.1292,0.129195 0.575484,0.09035 0.72929,-0.06338 z m 2.943375,-2.483594 c 0.122535,-0.198269 -0.153057,-0.425616 -0.317085,-0.261594 -0.137209,0.137211 -0.05136,0.390865 0.132328,0.390865 0.05769,0 0.140818,-0.05814 0.184757,-0.129271 z m 46.872191,4.565724 c -0.16753,-0.04375 -0.19473,-0.139613 -0.13957,-0.491562 0.0376,-0.240444 0.1046,-0.918732 0.14865,-1.507332 0.0773,-1.032849 0.0902,-1.070145 0.3698,-1.070145 0.39336,0 0.52177,0.527257 0.45829,1.881632 -0.057,1.215429 -0.16168,1.363925 -0.83717,1.187407 z M 94.677988,22.170235 c -0.03851,-0.06224 -0.149164,-0.985288 -0.245924,-2.051125 -0.224375,-2.471604 -0.266055,-2.708017 -0.492778,-2.795017 -0.249211,-0.09563 -0.539848,0.305465 -0.938001,1.294509 -0.421314,1.046565 -0.893658,1.612356 -1.430041,1.712987 -0.472065,0.08854 -2.784112,-0.214643 -3.691476,-0.4841 -0.855927,-0.254187 -1.37165,-0.641402 -1.668226,-1.252562 -0.310335,-0.639516 -1.152296,-2.398815 -1.208048,-2.524264 -0.02179,-0.04909 0.38519,-0.08921 0.904425,-0.08921 h 0.944054 l 0.08142,0.98099 c 0.0958,1.154048 0.341366,1.722394 0.877525,2.030919 0.41425,0.238375 2.203807,0.553029 3.153169,0.55443 0.758056,9.53e-4 1.004534,-0.263157 1.440881,-1.544932 0.18923,-0.55588 0.395913,-1.07758 0.459284,-1.159329 0.169816,-0.219075 0.514634,-0.183847 1.538498,0.157132 1.066034,0.355018 0.990245,0.183799 1.101538,2.488522 0.03793,0.784771 0.09797,1.589614 0.133485,1.788512 0.05099,0.28564 -0.0029,0.429342 -0.257483,0.683711 -0.332334,0.332334 -0.580384,0.406087 -0.702307,0.2088 z M 86.460271,16.74166 c 0.304403,-0.116824 0.235026,-0.522368 -0.08936,-0.522368 -0.367555,0 -0.4529,0.102937 -0.308718,0.372356 0.133217,0.248917 0.136807,0.25027 0.398078,0.150012 z m 34.515869,5.452651 c -0.0276,-0.04909 -0.009,-0.410223 0.0424,-0.802614 0.0508,-0.39238 0.0978,-1.034479 0.10428,-1.426869 0.014,-0.844227 0.11495,-1.04543 0.49728,-0.991369 0.28281,0.03993 0.28375,0.04537 0.26447,1.501746 -0.0125,0.941893 -0.0704,1.523268 -0.16319,1.634964 -0.15024,0.181027 -0.6587,0.238433 -0.74523,0.08416 z m -3.43591,-0.173868 c -0.18032,-0.137879 -0.18802,-0.289177 -0.0774,-1.520542 0.0676,-0.75207 0.16393,-1.447667 0.21407,-1.545762 0.0501,-0.0981 0.24586,-0.178367 0.43492,-0.178367 h 0.34376 l -0.0434,0.891797 c -0.0964,1.980594 -0.17602,2.434928 -0.43309,2.471775 -0.13128,0.01878 -0.32879,-0.03469 -0.43892,-0.118901 z m 1.79882,-0.04432 c -0.12661,-0.152557 -0.13061,-0.419364 -0.021,-1.400411 0.0745,-0.666575 0.17081,-1.304117 0.21403,-1.416767 0.0787,-0.205092 0.58296,-0.286822 0.69101,-0.111991 0.0931,0.15064 -0.18745,2.80675 -0.3136,2.968999 -0.15739,0.202415 -0.38245,0.186707 -0.57045,-0.03984 z m 5.86449,-0.01554 -0.62425,-0.04623 0.002,-1.212569 c 9.5e-4,-0.666909 0.0412,-1.27173 0.0892,-1.344053 0.048,-0.07234 0.28841,-0.168445 0.53415,-0.213633 0.74672,-0.137316 0.85006,-0.425254 0.76387,-2.128433 -0.0831,-1.643247 -0.21045,-2.202805 -0.60565,-2.662276 -0.38619,-0.448977 -1.11011,-0.472566 -4.88563,-0.159171 -4.26095,0.353684 -6.00117,0.568537 -6.32535,0.780949 -0.24425,0.160039 -0.27386,0.272555 -0.27325,1.038787 3.5e-4,0.472634 0.0573,1.063178 0.12645,1.312324 0.0692,0.249146 0.107,0.509348 0.0841,0.578239 -0.023,0.06891 -0.69951,-0.365312 -1.50342,-0.964901 l -1.46168,-1.090189 -2.91684,0.140356 c -3.1639,0.152233 -3.47812,0.119903 -4.1389,-0.425892 l -0.35671,-0.294648 0.35671,-9.53e-4 c 0.74393,-0.0029 5.97409,-0.482327 6.59927,-0.604898 0.35969,-0.07053 1.225,-0.391142 1.92291,-0.712477 1.55793,-0.717309 2.07811,-0.829167 6.04378,-1.299571 4.21601,-0.500102 5.65592,-0.563561 6.65872,-0.293456 0.42509,0.114508 1.13602,0.214271 1.57987,0.221715 0.57665,0.0097 0.83916,0.06443 0.9197,0.191892 0.16076,0.254378 0.14016,1.527566 -0.0635,3.923884 -0.31797,3.741199 -0.43781,4.647226 -0.59716,4.514971 -0.20874,-0.173249 -0.53092,-0.01068 -0.53092,0.267846 0,0.191977 0.0596,0.227567 0.30303,0.181026 0.23277,-0.04451 0.29452,-0.01325 0.26638,0.134771 -0.0391,0.205951 -0.69143,0.261336 -1.96655,0.166996 z m 0.20809,-0.641003 c 0,-0.160829 -0.0849,-0.225089 -0.29726,-0.225089 -0.21368,0 -0.29727,0.06405 -0.29727,0.227901 0,0.125345 0.0669,0.251233 0.14864,0.279751 0.24418,0.08521 0.44589,-0.0427 0.44589,-0.282563 z m -1.39929,0.131626 c 0,-0.228892 0.0245,-0.322526 0.0543,-0.208085 0.0299,0.114441 0.0299,0.30172 0,0.416171 -0.0298,0.114441 -0.0543,0.02078 -0.0543,-0.208086 z m -8.29153,-0.08607 c -0.47598,-0.116987 -0.53507,-0.266703 -0.53507,-1.355386 v -1.055591 h 0.60233 c 0.66841,0 1.06234,-0.155873 1.06234,-0.420354 0,-0.0958 0.0848,-0.174174 0.18839,-0.174174 0.16573,0 0.17824,0.160801 0.10409,1.337686 -0.0463,0.735733 -0.13302,1.43134 -0.19256,1.545781 -0.10754,0.206665 -0.66154,0.261651 -1.22952,0.122038 z m 0.13705,-0.453457 c 0.0896,-0.233524 -0.3139,-0.698628 -0.47036,-0.542173 -0.16302,0.163031 0.008,0.724962 0.2204,0.724962 0.0989,0 0.21139,-0.08225 0.24996,-0.182789 z m 6.4716,0.113431 c 0.006,-0.138517 0.0339,-0.166711 0.0719,-0.07187 0.0343,0.08588 0.0301,0.188394 -0.01,0.227901 -0.0395,0.03946 -0.0677,-0.03069 -0.0624,-0.156054 z M 73.925435,20.356561 c 0,-0.600924 0.04881,-0.815205 0.221381,-0.971354 0.365034,-0.330342 1.459193,-0.429629 4.742937,-0.430353 l 3.121279,-6.01e-4 v 0.602344 c 0,1.374009 -0.188865,1.435962 -4.607603,1.511554 l -3.477994,0.05947 z m 46.645075,0.08397 c 9.5e-4,-0.326988 0.024,-0.446642 0.0513,-0.265902 0.0273,0.18075 0.0266,0.448281 -0.002,0.594528 -0.0282,0.146256 -0.0506,-0.0019 -0.0497,-0.328626 z m -62.400088,0.178357 c 0.11837,-0.130797 0.241971,-0.237804 0.274671,-0.237804 0.0327,0 -0.0374,0.107007 -0.155765,0.237804 -0.11837,0.130797 -0.24197,0.237813 -0.27467,0.237813 -0.0327,0 0.0374,-0.107016 0.155764,-0.237813 z m 60.744828,-0.891892 c 3.6e-4,-0.653984 0.0203,-0.906342 0.0443,-0.560816 0.0241,0.345534 0.0238,0.880607 -6.1e-4,1.189056 -0.0244,0.308449 -0.0441,0.02573 -0.0438,-0.62824 z m -20.084651,0.160744 -0.470032,-0.49324 0.558739,0.375872 c 0.614334,0.413264 0.789679,0.610608 0.542564,0.610608 -0.08874,0 -0.372756,-0.221963 -0.631271,-0.49324 z m -41.195253,0.165118 c 0,-0.04966 0.120392,-0.164251 0.267539,-0.254655 0.266586,-0.163765 0.266731,-0.163441 0.04102,0.09036 -0.242339,0.27244 -0.308562,0.307715 -0.308562,0.164347 z m 66.617214,-0.563675 c 9.5e-4,-0.261594 0.0256,-0.354609 0.0541,-0.206694 0.0284,0.147905 0.0273,0.361938 -0.003,0.475617 -0.0297,0.113688 -0.0531,-0.0076 -0.0518,-0.268923 z m -1.7904,-0.356706 c 0.003,-0.1962 0.0291,-0.26207 0.0592,-0.14638 0.0301,0.115699 0.0282,0.276224 -0.004,0.356724 -0.0326,0.08054 -0.0572,-0.0142 -0.0548,-0.210344 z m -65.599702,-0.05948 c 0.118371,-0.130787 0.23556,-0.237803 0.260424,-0.237803 0.02487,0 -0.01207,0.107016 -0.08206,0.237803 -0.07,0.130807 -0.187191,0.237814 -0.260423,0.237814 -0.07324,0 -0.0363,-0.107007 0.08206,-0.237814 z m 68.201582,-0.524092 c -0.094,-0.113278 -0.12754,-0.645187 -0.10375,-1.645878 0.0483,-2.030528 0.17154,-1.927829 -2.19226,-1.82677 -3.63435,0.155378 -7.73201,0.596301 -7.9468,0.855112 -0.17284,0.208275 -0.0271,1.118849 0.25273,1.578987 0.12187,0.200432 0.47781,0.497758 0.79095,0.660732 l 0.56934,0.296306 -0.57263,0.0057 c -0.77086,0.0076 -0.95234,-0.114184 -1.27086,-0.851776 -0.31027,-0.718538 -0.46583,-2.15248 -0.24809,-2.28706 0.26354,-0.16287 4.21905,-0.579765 9.25037,-0.974967 1.55273,-0.121952 1.70969,0.07787 1.95259,2.485463 0.071,0.703613 0.0956,1.412582 0.0547,1.575489 -0.0824,0.328141 -0.32294,0.385938 -0.53631,0.128834 z M 56.505741,18.359544 c 0.11837,-0.130797 0.234131,-0.237813 0.257248,-0.237813 0.02312,0 -0.0248,0.107016 -0.106484,0.237813 -0.08168,0.130797 -0.197445,0.237813 -0.257248,0.237813 -0.0598,0 -0.01189,-0.107016 0.106484,-0.237813 z m 33.947657,0.208085 c 3.6e-5,-0.01639 0.110749,-0.320944 0.246027,-0.676877 0.135286,-0.355934 0.257939,-0.837498 0.272569,-1.070145 0.02106,-0.335385 0.08096,-0.430878 0.289047,-0.461006 0.21496,-0.03107 0.262454,0.01973 0.262454,0.281409 0,0.26086 0.04358,0.308011 0.237811,0.257219 0.136704,-0.03574 0.237552,-0.0038 0.237198,0.0753 -0.0012,0.268695 -0.540875,1.024243 -0.944122,1.32175 -0.354475,0.261527 -0.601185,0.373318 -0.600984,0.272345 z m -22.98648,-1.540233 c -0.362981,-0.471099 -0.637096,-0.893541 -0.609137,-0.938767 0.09983,-0.161545 1.068568,0.149831 1.373761,0.441562 0.487729,0.466219 1.276239,0.640516 2.888781,0.638543 1.576793,-0.0019 1.979486,-0.116243 2.091415,-0.593728 0.06166,-0.263032 0.149057,-0.304884 0.778023,-0.372594 0.389712,-0.04194 2.378589,-0.08206 4.419737,-0.08921 3.483928,-0.0121 3.724198,6.1e-4 3.923889,0.210154 0.116998,0.122676 0.333169,0.260078 0.480383,0.305313 0.147214,0.04518 0.321796,0.183419 0.387953,0.307038 0.179286,0.334984 -0.181178,0.472558 -1.238172,0.472558 -0.506356,0 -1.13783,0.08225 -1.453248,0.189375 -0.573118,0.19458 -3.447765,0.28302 -3.720491,0.114461 -0.07125,-0.04404 -0.129542,-0.180884 -0.129542,-0.304113 0,-0.391084 -0.458492,-0.594251 -1.341105,-0.594251 h -0.812573 l -0.236686,0.535082 -0.236692,0.535072 H 71.080048 68.126887 Z M 36.3822,17.027033 c -0.0691,-0.08464 -0.164169,-0.688887 -0.211255,-1.34287 -0.04708,-0.653975 -0.139356,-1.255947 -0.205045,-1.337686 -0.0784,-0.09758 -0.461626,-0.14863 -1.115569,-0.14863 -0.874563,0 -1.028766,0.03269 -1.263446,0.267532 -0.259082,0.259315 -0.350505,0.268703 -2.972644,0.305313 l -2.70534,0.03774 v -1.124863 -1.124854 l 2.051124,-0.08483 c 2.265474,-0.09379 21.553858,-0.03765 21.654454,0.063 0.0347,0.03479 0.100528,0.558929 0.146273,1.164914 l 0.08318,1.101798 -5.544395,-0.03527 -5.544394,-0.03527 -0.187308,-0.267551 c -0.163108,-0.232971 -0.292048,-0.267531 -0.998042,-0.267531 -0.445905,0 -0.976303,0.03307 -1.178664,0.07358 l -0.36793,0.07358 -0.03338,1.383007 -0.03338,1.383016 -0.724301,0.03498 c -0.485341,0.02335 -0.765748,-0.01582 -0.84994,-0.118902 z m -6.162989,-3.860996 c 0.09693,-0.252577 -0.209407,-0.569909 -0.458051,-0.474502 -0.237976,0.09131 -0.238213,0.249632 -7.3e-4,0.487121 0.239627,0.239624 0.363287,0.236221 0.458777,-0.01258 z m 8.030171,0.02631 c 0.19202,-0.231361 0.05676,-0.421375 -0.29996,-0.421375 -0.452571,0 -0.379018,0.52719 0.08163,0.58515 0.04104,0.0048 0.139284,-0.06853 0.218321,-0.163775 z m 1.133926,-0.193465 c 0,-0.207427 -0.0657,-0.287356 -0.236182,-0.287356 -0.279017,0 -0.397045,0.399806 -0.161959,0.548616 0.245985,0.155721 0.398141,0.05585 0.398141,-0.26126 z m 8.245377,0.07663 c 0.06604,-0.340683 -0.186418,-0.507193 -0.417956,-0.275652 -0.16467,0.164671 -0.171363,0.227939 -0.04075,0.385309 0.189413,0.228225 0.403116,0.177137 0.458714,-0.109657 z m 1.203311,-0.0019 c 0.161305,-0.19436 0.07161,-0.421375 -0.166494,-0.421375 -0.213803,0 -0.461914,0.317609 -0.367478,0.470404 0.109352,0.176946 0.365989,0.153376 0.533972,-0.04909 z m 47.626085,2.84375 c -1.373063,-0.66707 -2.669886,-1.074691 -4.161699,-1.308101 -1.879753,-0.294133 -2.155279,-0.382382 -3.000744,-0.961213 -0.724252,-0.495842 -0.847067,-0.540619 -1.350096,-0.492287 -0.96071,0.09226 -1.618359,0.78542 -1.8252,1.923646 l -0.08454,0.465228 -9.235908,-0.07768 c -5.079752,-0.0427 -9.392952,-0.121218 -9.584883,-0.174449 -0.418699,-0.116119 -0.483092,-0.254703 -0.260074,-0.559692 0.121679,-0.166405 0.286856,-0.22039 0.608208,-0.198754 0.242638,0.0163 0.517846,-0.03393 0.611573,-0.111715 0.103153,-0.08559 0.851272,-0.172792 1.895382,-0.220896 2.098061,-0.09665 2.191629,-0.152223 2.318407,-1.377078 0.04473,-0.432021 0.136953,-0.841139 0.204974,-0.909153 0.347379,-0.347384 5.569616,-0.436816 6.187438,-0.105959 0.386512,0.20698 0.614191,0.826594 0.614191,1.671479 v 0.717251 h 1.540176 c 0.940861,0 1.661501,-0.05528 1.85196,-0.142062 0.682831,-0.311118 0.807303,-1.159529 0.41201,-2.80839 -0.130338,-0.543679 -0.236978,-1.065379 -0.236978,-1.159338 0,-0.2238113 0.67719,-0.2274141 1.141068,-0.0057 0.189887,0.09064 0.876229,0.199355 1.525193,0.241664 1.161449,0.07568 1.187721,0.08407 1.677099,0.535187 0.555311,0.511864 0.462035,0.474292 2.255913,0.908668 2.899053,0.702011 6.832482,2.294209 9.009134,3.646792 0.489913,0.304436 0.466647,0.438159 -0.147391,0.847 -0.436691,0.290769 -0.783408,0.230065 -1.965211,-0.344086 z M 78.633124,13.544016 c 0.361699,-0.452437 0.361693,-0.85554 -2.4e-5,-1.307968 -0.280705,-0.351091 -0.305535,-0.357372 -1.574914,-0.398576 -0.709341,-0.02297 -1.945175,-0.0038 -2.746307,0.04165 l -1.456594,0.08359 v 0.805816 c 0,0.853882 0.08271,1.00803 0.594527,1.108013 0.163499,0.03193 1.332464,0.05042 2.597699,0.04117 l 2.300436,-0.01697 z m -5.457591,-0.231818 c -0.237136,-0.237127 -0.240702,-0.273775 -0.07339,-0.753709 0.115878,-0.33241 0.188682,-0.374634 0.77153,-0.447452 0.353963,-0.04423 1.379921,-0.05871 2.279891,-0.03222 1.841864,0.05433 2.326477,0.197163 2.385489,0.703346 0.0666,0.571358 -0.154839,0.62601 -2.758203,0.680776 -2.142554,0.04508 -2.425864,0.02869 -2.605314,-0.150764 z m -7.54377,2.07115 c -0.548933,-0.220638 -0.362278,-0.596186 2.199552,-4.42553 l 1.968817,-2.9429224 h 0.802465 0.802471 l 0.08475,0.7431673 c 0.16863,1.4786051 0.09643,1.4565881 4.775283,1.4565881 3.581628,0 3.718448,-0.0086 4.042799,-0.250004 0.292577,-0.2178738 0.344567,-0.3514918 0.404645,-1.0399882 0.03791,-0.4344991 0.109726,-0.8303302 0.159581,-0.879616 0.144116,-0.1424439 6.142338,-0.069769 6.880019,0.083398 0.62899,0.1305871 0.708288,0.1174722 1.827983,-0.3022631 0.643761,-0.2413112 1.321175,-0.4821362 1.50536,-0.5351583 0.577279,-0.1661671 0.304774,0.1133737 -0.574419,0.5892383 -1.143552,0.6189566 -1.114566,0.7712081 0.239533,1.2582433 1.318437,0.4742157 3.519621,1.455148 4.29629,1.9146 0.867452,0.513151 0.369125,0.508452 -0.873745,-0.0086 C 90.978179,9.7162923 88.155387,8.8016014 87.45806,8.8685582 87.144255,8.8986772 87.022595,8.9906625 86.857586,9.32252 86.675185,9.6893572 86.583565,9.74704 86.0847,9.8091549 85.419803,9.8918859 84.367416,9.7714109 83.832535,9.5511928 83.558453,9.4383528 83.329246,9.4268677 83.000196,9.5094458 82.562207,9.6193883 82.547053,9.640233 82.572862,10.097216 c 0.01473,0.260583 0.139096,0.933906 0.276408,1.496266 0.137307,0.56236 0.232281,1.203238 0.211054,1.424162 -0.05568,0.579498 -0.384874,0.700515 -1.911364,0.702612 l -1.278241,0.0019 v -0.481527 c 0,-0.53816 -0.215696,-1.020439 -0.761524,-1.702674 l -0.368077,-0.460061 -2.944891,0.05194 c -2.733161,0.04813 -2.968241,0.06929 -3.269643,0.294342 -0.39654,0.296059 -0.62837,1.001463 -0.544405,1.656467 0.06255,0.487941 0.0625,0.488027 -0.394233,0.563485 -0.251237,0.04146 -0.831353,0.07749 -1.28914,0.07997 -1.27782,0.0067 -2.973809,0.197477 -3.240505,0.364035 -0.300288,0.187526 -0.623933,0.725353 -0.623933,1.036824 0,0.348756 -0.320675,0.451922 -0.802609,0.2582 z m 5.002072,-5.036128 c 0.03475,-0.09055 -0.01783,-0.280427 -0.116894,-0.4218511 -0.14259,-0.2035675 -0.215021,-0.2281485 -0.347752,-0.1179963 -0.205259,0.1703512 -0.214241,0.3725744 -0.02495,0.5618644 0.190526,0.19052 0.411863,0.180569 0.489602,-0.02202 z m 26.537685,3.923779 c -2.956635,-1.525222 -3.860494,-1.866553 -8.43064,-3.183652 -1.019165,-0.293723 -1.497996,-0.721789 -1.497996,-1.3391728 0,-0.4034369 0.02057,-0.425311 0.399577,-0.425311 0.219762,0 0.647826,0.034026 0.951241,0.075582 0.531985,0.072914 0.551672,0.089879 0.551672,0.4756168 0,0.347412 0.03907,0.400006 0.297269,0.400006 0.184964,0 0.297264,-0.06739 0.297264,-0.178348 0,-0.2440658 0.346474,-0.2243934 1.217755,0.0691 0.895082,0.301539 1.398171,0.643242 1.398171,0.94968 0,0.25738 0.343912,0.313862 0.564994,0.09274 0.103305,-0.1033 0.357494,-0.05643 1.035105,0.190653 0.600866,0.219141 1.117811,0.324957 1.561733,0.319648 0.830826,-0.0099 1.54092,0.255846 2.983201,1.116533 1.233129,0.735876 1.940554,1.301058 1.940554,1.550375 0,0.244895 -0.710732,1.00335 -0.933839,0.996554 -0.107664,-0.0029 -1.158899,-0.502818 -2.336061,-1.11009 z m -63.228151,0.915187 c -0.604723,-0.158028 0.209443,-0.51256 1.177075,-0.51256 0.543835,0 0.636239,0.0325 0.636239,0.223945 0,0.131721 -0.110173,0.253464 -0.267538,0.295639 -0.299937,0.08035 -1.227447,0.07615 -1.545776,-0.0067 z m 4.749443,0.0048 c -0.120672,-0.03479 -0.198325,-0.148687 -0.177129,-0.259925 0.05478,-0.287423 1.608877,-0.359403 1.716289,-0.07949 0.03988,0.103929 0.03908,0.222383 -0.0018,0.263243 -0.0977,0.09769 -1.262198,0.155387 -1.537388,0.07615 z m 13.71068,-0.488198 c 0,-0.174573 0.29894,-0.266769 0.871792,-0.268875 0.659122,-0.0029 0.743076,-0.07739 0.832062,-0.743387 0.102431,-0.766557 0.284858,-1.096098 1.549475,-2.799001 l 1.086732,-1.4633642 1.37273,0.036504 c 1.142894,0.030405 1.429219,0.076345 1.710134,0.2743082 0.732606,0.516363 0.807456,0.531289 2.743518,0.547368 1.046374,0.0086 2.614222,0.04956 3.484115,0.09093 l 1.58162,0.07511 -1.380346,2.031968 -1.380347,2.031958 -5.49258,0.08054 c -3.02092,0.04432 -5.827005,0.11387 -6.235743,0.154577 -0.479304,0.04775 -0.743162,0.03041 -0.743162,-0.0487 z M 52.292093,13.736289 C 52.15258,13.47562 52.120429,10.607413 52.241025,9.1807433 l 0.07534,-0.8913204 4.888972,-0.078346 c 2.688934,-0.043081 5.040514,-0.1119631 5.225733,-0.1530426 0.185213,-0.04108 0.367419,-0.1612394 0.404901,-0.2670358 0.159179,-0.4493393 0.30436,-0.5202515 0.509163,-0.248736 0.353855,0.469107 1.608976,0.5536488 2.364738,0.1592856 0.370359,-0.1932643 2.101067,-0.2210287 2.215704,-0.035551 0.04309,0.069768 -0.02063,0.2018138 -0.141615,0.2934754 -0.202016,0.1530521 -0.185414,0.1669772 0.203178,0.1704561 0.554605,0.00477 0.879163,0.2414255 0.776278,0.5655819 -0.04302,0.1355242 -0.243302,0.474311 -0.445087,0.75287 L 67.951462,9.9548299 64.25266,9.8740052 60.553853,9.7931806 60.113105,9.4877435 C 59.535369,9.0873756 58.996417,8.9722958 57.682899,8.9688551 l -1.082053,-0.00286 -0.890657,1.1593279 c -1.264092,1.645411 -1.764575,2.434966 -1.99721,3.150731 -0.202657,0.623542 -0.20384,0.62459 -0.748727,0.660465 -0.44484,0.02926 -0.569122,-0.0076 -0.67216,-0.200269 z m 0.666467,-0.539867 c -0.0916,-0.238738 -0.422089,-0.243703 -0.51265,-0.0076 -0.03796,0.09892 -7.3e-4,0.262137 0.08269,0.362682 0.133609,0.160991 0.172622,0.161906 0.326826,0.0076 0.09631,-0.09631 0.142715,-0.259526 0.103126,-0.362682 z m -0.0807,-0.958963 c 0.175103,-0.210983 0.07762,-0.536588 -0.160647,-0.536588 -0.204029,0 -0.332349,0.288719 -0.237812,0.535072 0.08668,0.22588 0.211866,0.226357 0.398459,9.53e-4 z M 35.780464,12.033948 c -0.07848,-0.07844 -0.142686,-0.399519 -0.142686,-0.71343 v -0.570747 l -1.872766,-0.0086 c -1.766915,-0.0086 -3.039592,-0.107808 -3.180759,-0.248984 -0.03461,-0.0346 -0.09735,-0.6646302 -0.139429,-1.4000486 -0.0619,-1.0819255 -0.04456,-1.3573488 0.09093,-1.4431106 0.09209,-0.058331 1.257125,-0.1068162 2.588971,-0.107817 l 2.421536,-0.00191 0.313297,0.3661032 c 0.172313,0.2013468 0.672141,0.7638501 1.110728,1.2499893 0.859313,0.9524627 1.043859,1.3758007 1.044944,2.3969837 l 6.69e-4,0.624247 h -1.046371 c -0.655303,0 -1.099697,-0.05328 -1.189058,-0.142683 z m 13.786342,-0.341322 c -0.214061,-0.08578 -0.264354,-0.175422 -0.213033,-0.379895 0.07768,-0.309487 -0.01533,-0.489132 -0.309369,-0.597625 -0.114446,-0.04222 -0.208085,-0.179749 -0.208085,-0.305599 0,-0.32328 0.251205,-0.394402 1.634955,-0.4629121 l 1.218784,-0.060333 v 0.9668361 0.966826 l -0.921521,-0.0076 c -0.506835,-0.0038 -1.047615,-0.05804 -1.201731,-0.119769 z M 16.499125,9.0553603 c 0.0085,-2.3861664 0.17508,-2.8240015 1.074528,-2.8240015 0.734152,0 0.953315,0.2819332 1.067664,1.3734661 0.05446,0.5198511 0.101903,1.3866287 0.105429,1.9261617 l 0.0064,0.9809704 h -1.129608 -1.129605 l 0.0051,-1.4565967 z M 3.2924624,9.9691362 C 3.1094037,9.4876577 3.1482693,8.2979629 3.3537709,8.0924605 3.4512702,7.9949658 3.8668799,7.8792188 4.2773479,7.8352704 5.2219944,7.7341062 15.252275,7.8409892 15.691333,7.9563739 l 0.326991,0.086258 v 1.1157512 1.1157329 l -4.131976,-0.01849 -4.1319756,-0.01849 3.1611266,-0.09698 C 12.654118,10.086875 14.205838,9.9946131 14.363765,9.9352718 14.894995,9.7356502 13.042486,9.6597532 8.6261824,9.7002132 4.4441442,9.7385287 4.3800058,9.7428177 4.0233988,10.006603 3.5595117,10.349784 3.4347504,10.343389 3.2924625,9.9691458 Z M 13.937474,8.2629166 C 14.426417,8.1905748 14.489768,8.1555667 14.29419,8.0655825 13.97867,7.9204032 4.6159733,7.9223666 4.3061046,8.0674888 4.1062965,8.1611805 4.1538008,8.1915374 4.6033691,8.2573885 5.345363,8.3660634 13.208189,8.3705716 13.937474,8.2631073 Z m 5.244575,1.8231484 c -0.0397,-0.1034517 -0.07217,-0.5866934 -0.07217,-1.0738906 0,-0.7024977 0.03939,-0.9009183 0.190358,-0.958849 0.289329,-0.1110195 0.400346,0.1791867 0.40235,1.0517592 0.002,0.8851156 -0.06972,1.1690504 -0.295444,1.1690504 -0.0841,0 -0.185394,-0.08464 -0.225089,-0.18807 z m 0.996668,0.03946 c -7.3e-4,-0.08178 -0.03447,-0.3492806 -0.07501,-0.5945281 l -0.0737,-0.4458889 h 5.0096 5.0096 v 0.5945281 0.5945189 h -4.93459 c -3.867702,0 -4.934872,-0.03212 -4.935899,-0.14863 z M 37.372865,9.1313907 c -0.58256,-0.6152775 -1.01957,-1.1583657 -0.971133,-1.2068415 0.04844,-0.048514 2.95416,-0.1028703 6.457164,-0.1209033 l 6.369098,-0.032787 -0.07445,0.7972379 c -0.09811,1.0506631 -0.324028,1.2682606 -0.598305,0.5762663 -0.02593,-0.065384 -0.143559,-0.026973 -0.261523,0.085495 -0.201228,0.1918251 -0.202103,0.2179597 -0.01426,0.4255303 0.302379,0.334126 0.244794,0.4611866 -0.245761,0.5422686 -0.245242,0.04051 -2.505938,0.06891 -5.023767,0.0631 l -4.577874,-0.01067 z m 34.78356,0.5061739 c -0.0734,-0.08845 -0.167839,-0.4897421 -0.20986,-0.8917875 l -0.0764,-0.7309959 h 4.176374 4.176374 l 0.06954,0.2770817 c 0.03822,0.152385 0.05264,0.5133032 0.03202,0.8020416 -0.03402,0.4754548 -0.07119,0.5320987 -0.394264,0.6006472 -0.196197,0.041651 -1.995528,0.081968 -3.998512,0.089784 -2.928476,0.011342 -3.667936,-0.017442 -3.775245,-0.1467329 z M 49.483362,9.2880933 c -0.03562,-0.092834 -0.04863,-0.5109204 -0.02891,-0.9291116 l 0.03585,-0.7603712 h 0.416169 0.416171 v 0.891797 0.8917874 l -0.387262,0.037267 c -0.25205,0.024305 -0.409872,-0.021636 -0.452018,-0.1314258 z m 1.501305,-0.069196 c -0.13878,-0.2593061 -0.169201,-0.9556275 -0.05478,-1.2538209 0.07479,-0.1949036 0.479992,-0.2496795 0.718127,-0.097075 0.09235,0.059189 0.111525,0.317475 0.05946,0.800793 -0.06617,0.6140957 -0.112998,0.7185768 -0.336358,0.7503729 C 51.20731,9.4425179 51.06481,9.3686511 50.984672,9.2188968 Z M 21.39881,8.5289136 c -1.021194,-0.035266 -1.33769,-0.084256 -1.33769,-0.2068558 0,-0.088354 0.120393,-0.1928735 0.267537,-0.2323137 0.349126,-0.093596 9.103885,-0.093596 9.45301,0 0.320365,0.085876 0.344665,0.225089 0.05945,0.3406645 -0.237231,0.096122 -6.424035,0.1683115 -8.44231,0.098505 z M 52.288615,7.6726299 c -0.301618,-0.2072561 0.388506,-0.3720507 1.519761,-0.3629007 1.055047,0.00858 1.606027,0.1182823 1.359331,0.270753 -0.230811,0.142644 -2.691016,0.2213909 -2.879092,0.092167 z m 3.464801,-0.1182251 c -0.217291,-0.1377545 0.522379,-0.2504134 1.644119,-0.2504134 1.066331,0 1.803014,0.1075597 1.714756,0.2503657 -0.08214,0.1329032 -3.149243,0.1329604 -3.358875,4.77e-5 z m 4.090634,-6.1e-4 c -0.0818,-0.1323503 0.507466,-0.2522815 1.239563,-0.2522815 0.310642,0 0.731147,0.033264 0.934456,0.073962 0.704222,0.1408427 0.235183,0.2827814 -0.934456,0.2827814 -0.646262,0 -1.204066,-0.046989 -1.239563,-0.1044239 z m 18.807111,-0.00762 C 76.261096,7.4654458 75.797223,7.4118325 75.972669,7.236382 c 0.03603,-0.036028 1.048199,-0.1923588 2.249303,-0.3474506 2.427415,-0.3134338 2.64927,-0.3736138 3.075624,-0.8342666 0.163493,-0.1766514 0.45579,-0.4036181 0.649542,-0.5043725 0.356764,-0.1855249 2.178721,-0.5052588 2.887904,-0.5068029 0.507506,-9.531e-4 0.862067,0.3577539 0.862067,0.8725154 0,0.2534824 0.09085,0.4799153 0.250464,0.6242655 0.137758,0.1245824 0.352876,0.4271696 0.478041,0.6724076 l 0.227576,0.4458985 h -0.415534 c -0.34144,0 -0.448428,-0.063573 -0.599999,-0.356715 C 85.425211,6.8910232 85.226171,6.8420805 85.138062,7.1790087 85.104407,7.3076418 84.989041,7.43841 84.881658,7.4696152 84.471334,7.5888411 81.130859,7.629892 78.651161,7.5461508 Z m 3.835496,-0.8982972 c 0,-0.099086 -0.105698,-0.1783575 -0.237814,-0.1783575 -0.13212,0 -0.237811,0.0793 -0.237811,0.1783575 0,0.099086 0.105691,0.1783575 0.237811,0.1783575 0.132116,0 0.237814,-0.0793 0.237814,-0.1783575 z m 2.662025,-0.5648148 c 0.191712,-0.3044268 -0.05093,-0.6242465 -0.473604,-0.6242465 -0.418431,0 -0.523245,0.3260531 -0.214491,0.6672322 0.244329,0.269981 0.501111,0.25394 0.688095,-0.042986 z M 64.444966,7.3383514 c 0.11569,-0.030119 0.276213,-0.028212 0.356715,0.00381 0.0805,0.032597 -0.01418,0.057187 -0.210347,0.054804 -0.196191,-0.00286 -0.262063,-0.02907 -0.146368,-0.059189 z"
       id="path847" />
  </g>
</svg>
