<?xml version="1.0" encoding="UTF-8" standalone="no"?>
<svg
   xmlns:dc="http://purl.org/dc/elements/1.1/"
   xmlns:cc="http://creativecommons.org/ns#"
   xmlns:rdf="http://www.w3.org/1999/02/22-rdf-syntax-ns#"
   xmlns:svg="http://www.w3.org/2000/svg"
   xmlns="http://www.w3.org/2000/svg"
   xmlns:sodipodi="http://sodipodi.sourceforge.net/DTD/sodipodi-0.dtd"
   xmlns:inkscape="http://www.inkscape.org/namespaces/inkscape"
   width="165.688"
   height="128"
   viewBox="0 0 43.838282 33.866667"
   version="1.1"
   id="svg8"
   inkscape:version="1.0.1 (3bc2e813f5, 2020-09-07)"
   sodipodi:docname="Alternator SMG Icon.svg">
  <defs
     id="defs2" />
  <sodipodi:namedview
     id="base"
     pagecolor="#ffffff"
     bordercolor="#666666"
     borderopacity="1.0"
     inkscape:pageopacity="0.0"
     inkscape:pageshadow="2"
     inkscape:zoom="1.979899"
     inkscape:cx="72.934467"
     inkscape:cy="78.838068"
     inkscape:document-units="mm"
     inkscape:current-layer="layer1"
     inkscape:document-rotation="0"
     showgrid="false"
     units="px"
     inkscape:window-width="1366"
     inkscape:window-height="705"
     inkscape:window-x="-8"
     inkscape:window-y="-8"
     inkscape:window-maximized="1" />
  <metadata
     id="metadata5">
    <rdf:RDF>
      <cc:Work
         rdf:about="">
        <dc:format>image/svg+xml</dc:format>
        <dc:type
           rdf:resource="http://purl.org/dc/dcmitype/StillImage" />
        <dc:title></dc:title>
      </cc:Work>
    </rdf:RDF>
  </metadata>
  <g
     inkscape:label="Layer 1"
     inkscape:groupmode="layer"
     id="layer1">
    <path
       style="fill:#273839;fill-opacity:1;stroke-width:0.188435"
       d="m 23.62096,33.629961 c -0.821532,-0.222714 -1.151381,-0.413915 -1.30834,-0.75841 -0.150012,-0.329232 -0.151732,-0.497089 -0.006,-0.588459 0.244707,-0.153451 0.620169,-1.43966 0.621633,-2.129514 5.88e-4,-0.271803 0.673269,-1.92306 1.494869,-3.669456 l 1.493815,-3.175268 1.615372,-0.005 c 0.888454,-0.0027 1.615379,0.006 1.615389,0.01947 1e-5,0.01354 -0.678352,1.618847 -1.507474,3.567455 -0.829121,1.948609 -1.507494,3.600718 -1.507494,3.67136 0,0.07064 0.50878,0.356759 1.130618,0.635821 1.014028,0.455067 1.130622,0.565082 1.130622,1.066803 0,0.397142 -0.122972,0.61555 -0.423983,0.752968 -0.233191,0.106455 -0.677579,0.330761 -0.987535,0.498448 -0.781425,0.422745 -2.061983,0.466112 -3.361468,0.113833 z m 2.805494,-0.708269 c 0.242099,-0.178684 0.302065,-0.332065 0.177344,-0.453617 -0.35801,-0.348902 -2.594079,-1.185972 -2.750432,-1.02962 -0.08627,0.08626 -0.181085,0.446497 -0.210706,0.800507 -0.04573,0.546608 0.01718,0.664117 0.417243,0.779392 0.808877,0.233071 1.984878,0.185036 2.366551,-0.09666 z m 0.08313,-5.288907 c 0.203263,-0.244919 0.107206,-0.282656 -0.719555,-0.282656 -0.900195,0 -1.304821,0.174052 -1.034066,0.444809 0.236046,0.236046 1.521816,0.11716 1.753621,-0.162153 z m 0.522878,-1.188847 c 0.06102,-0.18523 -0.142841,-0.232161 -0.818504,-0.188437 -0.530509,0.03433 -0.933097,0.159456 -0.981002,0.304892 -0.06102,0.18523 0.142843,0.232162 0.818505,0.188437 0.530511,-0.03433 0.933099,-0.159455 0.981001,-0.304892 z m 0.56531,-1.13062 c 0.06102,-0.185231 -0.142841,-0.232159 -0.818505,-0.188434 -0.530507,0.03433 -0.933097,0.15945 -0.981001,0.304887 -0.06101,0.185232 0.142841,0.232162 0.818504,0.188437 0.53051,-0.03433 0.933099,-0.159451 0.981002,-0.30489 z m 0.56531,-1.130618 c 0.06102,-0.185231 -0.142843,-0.232163 -0.818503,-0.188436 -0.53051,0.03433 -0.933101,0.159453 -0.981003,0.304889 -0.06102,0.185231 0.142841,0.232161 0.818504,0.188436 0.530511,-0.03433 0.9331,-0.159453 0.981002,-0.304889 z m 0.613384,8.113887 c 0.003,-0.285009 0.335699,-1.196574 0.739102,-2.025692 l 0.733464,-1.50749 -0.102869,0.878183 c -0.09785,0.835194 -0.07406,0.89309 0.485732,1.182566 0.323738,0.167413 0.588611,0.421306 0.588611,0.56421 0,0.249349 -1.863609,1.426423 -2.258384,1.426423 -0.105212,0 -0.188755,-0.233188 -0.18565,-0.5182 z M 27.969983,31.23545 C 27.597569,31.070389 27.509288,30.948279 27.656169,30.801398 27.971277,30.48629 27.780785,29.738035 27.328268,29.513376 26.927621,29.31447 26.93957,29.270923 28.20847,26.305237 l 1.286367,-3.006491 1.333927,-0.05536 c 0.942219,-0.03909 1.333924,0.01113 1.333924,0.170629 0,0.314377 -3.437621,8.085263 -3.568352,8.066414 -0.0584,-0.0084 -0.33935,-0.118662 -0.624353,-0.244973 z m -1.146332,-0.619088 c -0.223073,-0.223067 -0.133442,-0.773234 0.143256,-0.879415 0.344599,-0.132232 0.748838,0.347973 0.606079,0.719986 -0.112616,0.293485 -0.527092,0.38167 -0.749332,0.159429 z m -4.660965,-2.080358 c -0.204601,-0.619948 -0.192215,-0.720588 0.110183,-0.895069 0.913986,-0.527376 1.063269,-0.833289 0.929422,-1.904569 -0.07833,-0.62692 -0.05675,-1.024347 0.05564,-1.024347 0.100992,0 0.580827,-0.349634 1.066301,-0.776969 0.485473,-0.42733 0.911984,-0.745314 0.947799,-0.706636 0.104708,0.113082 -2.580713,6.006082 -2.736947,6.006082 -0.07803,0 -0.2456,-0.314322 -0.372386,-0.698492 z m 1.556055,-6.038113 c 0.05694,-0.29643 0.391755,-0.334977 3.312343,-0.381326 l 3.249005,-0.05157 1.202586,-2.398115 c 0.661427,-1.318961 1.381801,-2.559647 1.600832,-2.75708 0.570421,-0.51417 0.507821,-1.3328 -0.167069,-2.184923 -0.607233,-0.766689 -0.682304,-1.12523 -0.361209,-1.725193 0.180402,-0.337089 0.379917,-0.06765 1.718456,2.320732 0.8329,1.486154 1.552891,2.800794 1.599985,2.921419 0.04708,0.120629 -0.181308,0.827498 -0.507554,1.570827 -0.326251,0.743326 -0.54259,1.483343 -0.480755,1.644481 0.206164,0.53726 -0.09519,0.97884 -0.802035,1.17515 -0.392265,0.108953 -2.818536,0.193711 -5.561861,0.194303 -4.533172,9.6e-4 -4.861731,-0.02151 -4.802724,-0.328713 z m 8.172469,-0.06519 c 0.166127,-0.268794 -0.383824,-0.818747 -0.652622,-0.652623 -0.359109,0.22194 -0.241007,0.859141 0.159236,0.859141 0.201162,0 0.423184,-0.09293 0.493384,-0.206518 z m -7.061501,-1.330998 c 0.486262,-0.908579 -0.347642,-3.710553 -1.424915,-4.787824 -0.329714,-0.329713 -0.453109,-0.608991 -0.376173,-0.851395 0.159373,-0.502131 -0.05657,-1.078332 -0.491344,-1.311015 -0.293278,-0.156957 -0.604873,-0.06282 -1.559948,0.471296 -1.059387,0.592438 -1.346318,0.667421 -2.55392,0.667421 -2.093039,0 -2.089414,0.0047 -2.089414,-2.550519 v -2.160388 h 0.594516 c 0.569441,0 0.581024,0.01497 0.274655,0.353441 -0.258139,0.285241 -0.309224,0.657943 -0.264753,1.931473 l 0.05511,1.578033 1.413273,0.04937 c 1.280675,0.04474 1.506982,-0.0048 2.412017,-0.527412 0.549304,-0.317229 1.046025,-0.700005 1.103818,-0.850612 0.122868,-0.320231 -0.434812,-1.809887 -0.753499,-2.012666 -0.120163,-0.07646 -0.531428,-0.140293 -0.91396,-0.141886 -0.382534,-0.0015 -0.747924,-0.08767 -0.811979,-0.191321 -0.07503,-0.121413 0.80909,-0.203486 2.485666,-0.230745 1.755007,-0.02853 1.007154,-0.07454 -2.29723,-0.141328 l -4.899357,-0.09901 -0.05591,-1.1700807 c -0.03775,-0.7902726 0.04027,-1.3560645 0.240383,-1.7430382 l 0.296297,-0.5729549 h 1.691089 1.691096 V 7.459233 c 0,0.6262296 -0.02774,0.651191 -0.800857,0.7208243 -0.440471,0.039669 0.02591,0.086954 1.036402,0.1050514 l 1.837256,0.032915 -0.02822,-0.612417 c -0.02628,-0.5700089 -0.03367,-0.5765328 -0.106739,-0.094218 -0.06532,0.4311391 -0.172367,0.5181998 -0.637199,0.5181998 -0.521346,0 -0.555729,-0.044098 -0.514281,-0.6595278 l 0.04441,-0.6595248 h 1.845854 c 1.104947,0 1.845855,0.075643 1.845855,0.188436 0,0.103634 0.206092,0.1884374 0.457985,0.1884374 0.331481,0 0.47462,0.1171117 0.518204,0.4239827 0.03869,0.2724711 0.211721,0.4454997 0.484193,0.4841972 0.358935,0.050965 0.423986,-0.026606 0.423986,-0.5056857 0,-0.4726883 -0.08535,-0.5788285 -0.518203,-0.6443993 -0.28501,-0.043175 0.128758,-0.091207 0.919486,-0.1067407 l 1.437685,-0.02823 0.692345,0.8449175 0.692347,0.8449177 -5.14502,0.050152 -5.145016,0.050152 -0.06269,0.4429699 C 17.82245,9.4008723 17.721279,9.4695911 17.350311,9.398677 17.097313,9.350309 16.844937,9.384179 16.789475,9.473921 c -0.05548,0.089742 0.582533,0.1631653 1.417772,0.1631653 1.386029,0 1.518614,-0.032453 1.518614,-0.3717591 0,-0.3605324 0.180688,-0.3742272 5.982868,-0.4535245 3.290576,-0.044958 6.470444,-0.139926 7.066374,-0.2109916 0.729593,-0.087017 1.083514,-0.062786 1.083514,0.074161 0,0.111855 -0.466383,1.192125 -1.036403,2.4005969 -0.57002,1.208472 -1.036401,2.409942 -1.036401,2.669935 0,0.259995 0.21199,0.750648 0.471091,1.090347 0.484067,0.634646 0.62131,1.469878 0.276536,1.68296 -0.107011,0.06613 -0.743587,1.215886 -1.414624,2.555015 l -1.220069,2.43477 h -1.379282 -1.379289 l 0.0805,-0.54855 c 0.062,-0.422408 -0.01577,-0.600087 -0.338247,-0.772663 -0.354658,-0.189806 -0.479674,-0.163202 -0.816675,0.173802 -0.337295,0.337294 -0.362259,0.455008 -0.163883,0.772664 0.219102,0.350841 0.185422,0.374747 -0.527938,0.374747 -0.72232,0 -0.750642,-0.02119 -0.544218,-0.406885 z m 5.340924,-1.585154 c 0.543699,-0.543696 0.220738,-1.211378 -0.585945,-1.211378 -0.516741,0 -0.797072,0.790973 -0.434966,1.227286 0.299669,0.361075 0.649373,0.355628 1.020911,-0.01593 z m -0.918211,-0.25219 c -0.152672,-0.247024 0.08437,-0.770749 0.348836,-0.770749 0.344549,0 0.659376,0.392126 0.547949,0.68249 -0.111749,0.291179 -0.733552,0.352379 -0.896785,0.08828 z m 0.49321,-4.18007 c 0.496153,-0.265531 1.851738,-3.193527 1.851738,-3.99965 0,-0.951088 -0.249846,-1.07067 -2.236981,-1.07067 -2.048809,0 -2.473938,0.213702 -2.473938,1.243601 0,0.717063 1.18303,3.449002 1.644268,3.797071 0.383962,0.289753 0.713857,0.297803 1.214913,0.02963 z m -3.544301,5.954471 c -0.06527,-0.170086 -0.02832,-0.399603 0.08211,-0.510038 0.287105,-0.287105 0.831083,-0.02471 0.756088,0.364716 -0.08353,0.43376 -0.687355,0.538445 -0.83821,0.145327 z m 9.580881,-1.431617 c 0.447994,-1.159609 3.255214,-7.902783 3.444563,-8.27412 0.132121,-0.2591 0.731063,-1.7430367 1.330984,-3.2976375 0.599927,-1.5546025 1.164455,-2.8759817 1.254508,-2.936401 0.09088,-0.060981 0.07872,-0.3334319 -0.02735,-0.6124185 -0.228926,-0.6021156 -0.118881,-0.615771 1.021858,-0.1267954 0.710915,0.3047348 0.854912,0.4442243 0.761701,0.737888 -0.06322,0.199165 -0.0267,0.4166567 0.08117,0.4833154 0.305671,0.1889109 0.231399,0.9766432 -0.161116,1.7089971 L 43.131311,7.9564655 42.610335,6.6285853 C 42.323799,5.8982517 42.060748,5.3293176 42.025779,5.3642867 c -0.03498,0.034972 0.152097,0.692671 0.415709,1.4615572 0.300952,0.8778114 0.440561,1.6083203 0.375205,1.9632878 -0.103763,0.5635456 -0.93726,2.0918513 -2.640262,4.8411743 -0.803194,1.296672 -0.877457,1.50751 -0.705116,2.001891 0.160811,0.461296 0.118079,0.677563 -0.258596,1.309248 -0.266377,0.446696 -0.644935,0.805293 -0.924085,0.875355 -0.260072,0.06527 -0.472856,0.191671 -0.472856,0.280885 0,0.08921 -0.480641,0.52509 -1.068086,0.968618 -0.587445,0.443526 -1.021915,0.686903 -0.965486,0.540842 z m 4.294812,-7.237719 c 0,-0.155459 -0.07979,-0.282654 -0.177317,-0.282654 -0.237615,0 -0.407795,0.29426 -0.257248,0.444808 0.212216,0.212213 0.434565,0.129252 0.434565,-0.162154 z m 1.884367,-3.2191263 c 0,-0.1640973 -0.100681,-0.2647922 -0.223767,-0.2237686 -0.349402,0.1164593 -0.407356,0.5221253 -0.07458,0.5221253 0.1641,0 0.298359,-0.1342545 0.298359,-0.2983567 z M 34.446037,15.1312 32.916172,12.303203 33.751164,10.462184 C 34.815709,8.1150298 34.756959,7.9411729 32.89929,7.9411729 H 31.576355 L 32.08936,7.499903 c 0.69777,-0.6001944 0.703722,-1.5271304 0.0137,-2.1207339 -0.438368,-0.3770678 -0.459477,-0.443645 -0.172736,-0.5448518 0.179661,-0.063412 0.585538,-0.5094209 0.901942,-0.9911302 l 0.575287,-0.8758345 3.030609,0.011443 c 3.31494,0.012504 4.084762,0.2046491 4.811547,1.2009042 0.340223,0.4663666 0.339815,0.4993924 -0.01634,1.3190553 -0.200917,0.4623918 -0.633995,1.4931198 -0.962391,2.2905058 -0.579575,1.4072539 -0.617394,1.451486 -1.288991,1.5074915 -0.500271,0.041725 -0.710485,0.1556983 -0.759025,0.4115578 -0.05655,0.2980888 0.0249,0.3403578 0.516633,0.2681823 0.600778,-0.088181 0.666125,-0.019516 0.469389,0.4931665 -0.07222,0.188122 -0.342798,0.298067 -0.733599,0.298067 -0.390808,0 -0.6614,0.109943 -0.733589,0.298065 -0.168729,0.439705 -0.156224,0.45568 0.356713,0.45568 0.259099,0 0.471092,0.108732 0.471092,0.241618 0,0.302631 -2.23192,5.825954 -2.440436,6.039343 -0.08425,0.08622 -0.841639,-1.115823 -1.683064,-2.67122 z m 3.927556,-6.1445869 c 0.511306,-0.616086 -0.421854,-1.5492447 -1.037939,-1.0379402 -0.280979,0.233189 -0.371922,0.9619948 -0.147988,1.185926 0.223931,0.2239328 0.952739,0.13298 1.185927,-0.1479858 z M 37.319105,8.790395 c -0.06527,-0.1700859 -0.02831,-0.3996042 0.08211,-0.5100396 0.287105,-0.2871026 0.831083,-0.024694 0.756089,0.3647176 -0.08353,0.4337598 -0.687355,0.5384438 -0.838211,0.1453268 z M 40.082827,6.9881554 C 40.280473,6.6188512 40.24733,6.6032 39.384514,6.6583915 c -0.684771,0.043796 -0.921087,0.1384126 -0.968427,0.3877051 -0.09858,0.519119 1.385518,0.4675265 1.66674,-0.057941 z M 40.647539,5.8586508 C 40.89918,5.3884541 40.821439,4.7010037 40.504841,4.5967587 40.377405,4.5547952 40.128502,4.8237429 39.951742,5.194417 l -0.321389,0.6739544 h -1.273038 c -0.700167,0 -1.325441,0.084792 -1.389494,0.1884365 -0.07452,0.1205847 0.529736,0.1884359 1.678179,0.1884359 1.616825,0 1.815141,-0.0383 2.001539,-0.386593 z m -3.8759,-1.9207727 C 37.135527,3.4183525 36.782769,3.213275 36.407582,3.7262752 36.166396,4.0561218 36.136068,4.0570925 35.792272,3.7459582 35.593379,3.5659639 35.274152,3.418696 35.082877,3.418696 c -0.312797,0 -0.303262,0.047379 0.09478,0.4710915 0.549309,0.5847142 1.204258,0.6044742 1.593967,0.04809 z M 2.9549883,15.222685 c 0,-0.657729 0.2251852,-0.895682 0.4710916,-0.4978 0.2391113,0.38689 1.0101028,0.189329 1.4004437,-0.358853 0.5792634,-0.813498 0.552882,-2.625576 -0.046424,-3.188591 -0.4583703,-0.430615 -1.1553275,-0.542779 -1.3559205,-0.21821 -0.2000148,0.32363 -0.4691924,0.0037 -0.4691924,-0.557529 0,-0.367801 -0.1126515,-0.5616683 -0.3646803,-0.6275736 C 2.3269164,9.7052566 2.2545141,9.5683001 2.329629,9.2810589 2.4326562,8.8870896 2.4890482,8.8833568 8.3365759,8.8833568 h 5.9029451 l 0.05794,0.8008528 c 0.05766,0.7969624 0.06184,0.8011384 0.858799,0.8588004 0.70778,0.0512 0.800858,0.111441 0.800858,0.5182 0,0.419327 -0.07482,0.460255 -0.841339,0.460255 -0.648477,0 -0.887568,-0.0864 -1.04303,-0.376872 C 13.888602,10.800504 13.6782,10.76772 11.65413,10.76772 c -2.3376196,0 -2.66917,0.107139 -2.66917,0.862578 0,0.225682 -0.1271954,0.515894 -0.2826563,0.644914 -0.4037128,0.335051 -0.3516598,1.362359 0.093231,1.839883 0.3462978,0.371705 0.5262055,0.397756 2.2861213,0.330993 1.050633,-0.03984 2.000804,-0.163021 2.111488,-0.273705 0.110674,-0.110675 0.777862,-0.201243 1.482613,-0.201243 h 1.281371 v 0.544337 c 0,0.621715 -0.141598,0.667024 -2.732335,0.874243 -0.829122,0.0663 -1.719484,0.161163 -1.978584,0.210766 -0.2591,0.04959 -2.2306213,0.139288 -4.3811544,0.19931 l -3.910062,0.109108 z M 3.455286,14.380284 c -0.4195418,-0.463587 -0.4242767,-2.323639 -0.00752,-2.959665 0.6545006,-0.998895 1.391603,-0.286106 1.391603,1.345702 0,1.657875 -0.6540772,2.420594 -1.3840706,1.613963 z m 5.6531011,-0.56531 c -0.8831245,-0.975838 0.5348217,-2.362088 1.4648279,-1.432083 0.350429,0.350427 0.39015,1.230403 0.06999,1.550562 -0.337913,0.337911 -1.1806668,0.272857 -1.5348203,-0.118483 z m 2.3065909,0.109056 c -0.01083,-0.02593 -0.04005,-0.3791 -0.06497,-0.784858 -0.05558,-0.90503 -0.625446,-1.429274 -1.5536679,-1.429274 -0.4395701,0 -0.6286839,-0.07732 -0.5761473,-0.235546 0.055533,-0.167223 0.7433028,-0.250892 2.3711622,-0.288453 1.956088,-0.04513 2.292952,-0.01036 2.292952,0.235545 0,0.224017 0.23152,0.288454 1.036405,0.288454 h 1.036404 v 0.847965 0.847962 H 14.543841 13.130564 V 12.35632 c 0,-0.980595 -0.02784,-1.045553 -0.42398,-0.98929 -0.371998,0.05284 -0.431144,0.186591 -0.482376,1.090892 -0.04588,0.80995 0.01227,1.082345 0.271563,1.271944 0.29004,0.212086 0.245819,0.241272 -0.365594,0.241272 -0.382548,0 -0.704391,-0.02119 -0.715205,-0.04709 z m 8.794735,-0.847961 c 0.06129,-0.388651 0.02199,-0.939827 -0.08732,-1.224838 -0.188205,-0.490661 -0.170198,-0.518201 0.33881,-0.518201 0.631156,0 0.914451,0.287508 1.075182,1.091168 0.103232,0.516096 0.04296,0.629187 -0.517078,0.970629 -0.862706,0.525954 -0.938117,0.496263 -0.809589,-0.318758 z M 2.3896779,7.9703768 c 0,-0.1912158 0.1550706,-0.4880032 0.3446004,-0.6595263 0.300235,-0.271708 0.9191233,-0.31186 4.8068982,-0.31186 h 4.4622945 l 0.603995,-1.2248379 c 0.406627,-0.8245955 0.71393,-1.2248365 0.94042,-1.2248365 0.446822,0 0.425195,0.2142398 -0.132789,1.3153565 -0.284183,0.5608087 -0.395122,0.9717483 -0.281322,1.0420794 0.103335,0.063869 0.238764,-0.016442 0.300941,-0.1784723 0.06218,-0.1620311 0.31379,-0.2945984 0.55914,-0.2945984 0.303402,0 0.538052,-0.1778319 0.733587,-0.5559524 0.384786,-0.7441008 0.369236,-0.7907997 -0.214586,-0.6442713 -0.423535,0.1062992 -0.482487,0.074975 -0.376871,-0.2002578 0.06885,-0.1794489 0.125211,-0.361734 0.125211,-0.4050772 0,-0.043342 3.191716,-0.078805 7.092711,-0.078805 6.531641,0 7.113001,0.026088 7.349168,0.3297637 0.244249,0.3140611 0.265875,0.3140611 0.454123,0 0.155252,-0.2590185 0.448318,-0.327977 1.366026,-0.3214357 l 1.168366,0.00834 -0.753747,0.3971351 c -1.245875,0.6564301 -1.487492,1.2451636 -0.941022,2.2929684 0.154823,0.2968559 0.281495,0.5724449 0.281495,0.6124186 0,0.039972 -0.418484,0.072679 -0.929963,0.072679 -0.871518,0 -0.963297,-0.047476 -1.460386,-0.7555819 C 27.596233,6.7700217 27.18795,6.3859139 26.980671,6.3320178 26.773391,6.2781217 23.978848,6.2577453 20.77058,6.2867406 l -5.833215,0.052717 -0.479415,0.9782386 -0.479412,0.9782402 -5.7944313,0.01099 C 2.6735597,8.3174439 2.3896779,8.3010345 2.3896779,7.9703114 Z M 30.457357,6.9814387 c -0.47572,-0.8888948 0.478926,-1.8776679 1.310508,-1.3573554 0.377515,0.2362078 0.495212,1.1211012 0.19692,1.48052 -0.345099,0.4158225 -1.258928,0.3411581 -1.507428,-0.1231646 z M 1.3320269,6.9173448 C 1.2750178,6.7687997 1.4472747,6.3251337 1.7148118,5.9314193 1.9823491,5.5377062 2.201241,5.0656682 2.201241,4.8824465 c 0,-0.274132 0.1668629,-0.3331301 0.9421842,-0.3331301 0.5182005,0 0.9421826,0.046611 0.9421826,0.1035758 0,0.056964 -0.1293726,0.3537547 -0.2874937,0.659528 -0.2857808,0.5526373 -0.2843025,0.5559522 0.2477525,0.5559522 0.4261845,0 0.5993375,-0.1343915 0.8497572,-0.6595279 0.2908699,-0.6099614 0.3784636,-0.6595273 1.1655217,-0.6595273 0.9164808,0 0.9893054,0.08397 0.5623653,0.6484342 -0.3882879,0.5133614 -0.3462989,0.670621 0.179062,0.670621 0.3175605,0 0.5792971,-0.1999489 0.8633336,-0.6595279 C 8.0428171,4.5989912 8.1436871,4.5493163 9.005171,4.5493163 H 9.9368246 L 9.6493307,5.1052679 c -0.3774705,0.7299464 -0.3693612,0.7631037 0.1866458,0.7631037 0.3563445,0 0.5522775,-0.163854 0.7886495,-0.6595279 0.295124,-0.6188791 0.370426,-0.6595274 1.221789,-0.6595274 0.499007,0 0.907283,0.045215 0.907283,0.1004807 0,0.055265 -0.213419,0.521646 -0.474266,1.0364008 L 11.805167,6.6221171 H 7.4031498 c -3.6830194,0 -4.4403311,0.04617 -4.6365983,0.2826546 C 2.4679339,7.2645839 1.4686337,7.2733415 1.3320269,6.9173536 Z M 0.22031303,6.2894679 C 0.11538996,6.2133156 0.01835996,5.9178361 0.00470207,5.6328262 -0.01917442,5.134721 0.01566294,5.1146259 0.90211817,5.1146259 c 0.50723653,0 0.92224943,0.050509 0.92224943,0.1122369 0,0.061729 -0.1753673,0.358519 -0.3897055,0.6595279 C 1.054641,6.420079 0.6056668,6.5691067 0.22031303,6.2894679 Z M 2.2038133,3.8426797 C 2.2052903,3.6613095 2.2575119,3.3221237 2.3200094,3.088934 2.43297,2.6674333 2.4553712,2.664952 6.147542,2.664952 H 9.8614509 L 10.30402,2.1938602 c 0.243412,-0.2590997 0.622749,-0.4710906 0.842975,-0.4710906 0.34783,0 0.390136,0.087961 0.322198,0.6699021 -0.135577,1.1613517 0.03463,1.201686 5.10035,1.2084693 2.861952,0.00386 4.475371,-0.06194 4.475371,-0.1824434 0,-0.1201615 -1.570302,-0.1884365 -4.334043,-0.1884365 -2.763739,0 -4.334046,-0.068271 -4.334046,-0.1884367 0,-0.1036392 -0.127197,-0.1884366 -0.282656,-0.1884366 -0.15546,0 -0.282655,-0.1271954 -0.282655,-0.2826544 0,-0.1554593 0.136262,-0.2826548 0.302814,-0.2826548 0.191755,0 0.263035,-0.1036677 0.194353,-0.2826551 -0.08619,-0.2246236 0.06027,-0.2826539 0.713426,-0.2826539 0.556738,0 0.856882,0.091187 0.930356,0.2826539 0.05965,0.1554609 0.323119,0.2826551 0.585465,0.2826551 0.298385,0 0.477011,-0.1058449 0.477011,-0.2826551 0,-0.375436 0.918409,-0.375436 1.062475,0 0.06251,0.1629214 0.344106,0.2826551 0.664738,0.2826551 0.322863,0 0.507403,-0.079067 0.43981,-0.1884366 -0.0742,-0.120063 0.473622,-0.1884368 1.50983,-0.1884368 1.6099,0 2.164684,0.1925776 2.164684,0.7514073 0,0.1171584 0.09167,0.1563659 0.203707,0.087121 0.112034,-0.069243 0.155251,-0.3189343 0.09605,-0.5548694 -0.06029,-0.2402506 -0.0048,-0.510002 0.126065,-0.6131567 0.131084,-0.103304 1.309426,-0.1673829 2.683398,-0.1459227 L 26.415371,1.474046 27.189922,0.73702234 27.964475,0 29.046159,0.94655576 c 0.76761,0.67171684 1.445492,1.06538174 2.334656,1.35579714 0.689131,0.2250826 1.314062,0.4640852 1.388738,0.5311167 0.07469,0.067031 -0.07821,0.3745241 -0.339724,0.683316 -0.368951,0.4356335 -0.428304,0.464094 -0.264883,0.1270102 0.367445,-0.7578968 0.08762,-0.8860925 -0.358515,-0.1642439 -0.556567,0.9005502 -1.047589,0.990199 -0.573707,0.104746 0.376096,-0.7027397 0.06299,-0.7952872 -0.345916,-0.1022438 -0.323331,0.5480067 -0.522536,0.6903894 -0.965898,0.6903894 -0.43495,0 -0.571887,-0.093403 -0.618777,-0.422057 C 29.212778,3.1240719 28.582384,3.0690234 28.582384,3.687535 V 4.1724439 H 15.391815 c -12.4378043,0 -13.1904243,-0.018819 -13.1879985,-0.3297638 z M 28.683222,1.7120591 C 28.869071,1.4113449 28.623691,0.64832213 28.301356,0.52463034 27.63076,0.2672995 27.006629,1.092197 27.45927,1.6375932 c 0.26373,0.317774 1.044231,0.3652603 1.223952,0.074466 z M 27.680759,1.488985 c -0.277603,-0.3344949 0.0089,-0.76278904 0.453115,-0.67724963 0.433352,0.0834539 0.477359,0.78795283 0.05432,0.86942503 -0.164997,0.031777 -0.39334,-0.054704 -0.507432,-0.1921754 z M 2.6770697,2.1073063 C 2.6156173,2.0078828 2.6733736,1.7534932 2.805495,1.541997 3.0319735,1.1793485 3.2283905,1.1574588 6.2560295,1.1574588 c 2.6295433,0 3.2877841,0.054212 3.6381716,0.2996326 C 10.233555,1.6947841 10.276406,1.8116429 10.101493,2.0224005 9.9260558,2.23379 9.1563934,2.2880782 6.334896,2.2880782 c -2.0605624,0 -3.5929075,-0.075727 -3.6578263,-0.1807719 z"
       id="path863" />
  </g>
</svg>
