<?xml version="1.0" encoding="UTF-8" standalone="no"?>
<!-- Generator: Adobe Illustrator 22.1.0, SVG Export Plug-In . SVG Version: 6.00 Build 0)  -->

<svg
   version="1.1"
   id="Layer_4_1_"
   x="0px"
   y="0px"
   viewBox="0 0 512 512"
   xml:space="preserve"
   sodipodi:docname="Backpack_lvl2.svg"
   width="512"
   height="512"
   inkscape:version="1.1 (c68e22c387, 2021-05-23)"
   xmlns:inkscape="http://www.inkscape.org/namespaces/inkscape"
   xmlns:sodipodi="http://sodipodi.sourceforge.net/DTD/sodipodi-0.dtd"
   xmlns="http://www.w3.org/2000/svg"
   xmlns:svg="http://www.w3.org/2000/svg"><defs
   id="defs33" /><sodipodi:namedview
   id="namedview31"
   pagecolor="#ffffff"
   bordercolor="#666666"
   borderopacity="1.0"
   inkscape:pageshadow="2"
   inkscape:pageopacity="0.0"
   inkscape:pagecheckerboard="0"
   showgrid="false"
   inkscape:zoom="0.43243243"
   inkscape:cx="-95.96875"
   inkscape:cy="394.28125"
   inkscape:window-width="1366"
   inkscape:window-height="697"
   inkscape:window-x="-8"
   inkscape:window-y="-8"
   inkscape:window-maximized="1"
   inkscape:current-layer="Layer_4_1_" />
<style
   type="text/css"
   id="style2">
	.st0{fill:#241C1C;}
</style>












<g
   id="g971"
   transform="matrix(13.593315,0,0,13.593315,4.523544,3.844011)"><path
     class="st0"
     d="M 23.9,32.4 H 13.1 c -1.5,0 -2.8,-1.2 -2.8,-2.8 V 22 c 0,-1.3 1.1,-2.4 2.4,-2.4 h 11.5 c 1.3,0 2.4,1.1 2.4,2.4 v 7.7 c 0,1.5 -1.2,2.7 -2.7,2.7 z"
     id="path4"
     style="fill:#273839;fill-opacity:1" /><path
     class="st0"
     d="m 23.3,33.3 h -9.5 c -1.3,0 -2.5,-0.6 -3.3,-1.6 0.6,4.4 6.8,4.8 6.8,4.8 h 1.3 1.3 c 0,0 6.2,-0.3 6.8,-4.8 -0.9,1 -2.1,1.6 -3.4,1.6 z"
     id="path6"
     style="fill:#273839;fill-opacity:1" /><path
     class="st0"
     d="M 11.6,17.9 V 10 L 11,9.9 C 10.7,9.8 10.5,9.7 10.3,9.5 v 6.9 c 0,1 0.1,1.9 0.4,2.9 l 0.1,0.4 c 0.3,-0.3 0.7,-0.5 1.1,-0.7 -0.2,-0.7 -0.2,-1.1 -0.3,-1.1 z"
     id="path8"
     style="fill:#273839;fill-opacity:1" /><path
     class="st0"
     d="m 12.8,17.8 c 0,0 0.1,0.4 0.3,0.9 0,0 0,0 0.1,0 h 10.5 c 0,0 0,0 0.1,0 0.2,-0.5 0.3,-0.9 0.3,-0.9 v -7.5 l -1.5,0.4 c -0.2,0.1 -0.5,0.1 -0.8,0.1 H 15 c -0.3,0 -0.5,0 -0.8,-0.1 l -1.5,-0.4 v 7.5 z"
     id="path10"
     style="fill:#273839;fill-opacity:1" /><path
     class="st0"
     d="M 25.9,9.8 25.4,10 v 7.9 c 0,0 -0.1,0.4 -0.3,1 0.4,0.2 0.8,0.4 1.1,0.7 l 0.1,-0.4 c 0.2,-0.9 0.4,-1.9 0.4,-2.9 V 9.5 c -0.3,0.1 -0.5,0.3 -0.8,0.3 z"
     id="path12"
     style="fill:#273839;fill-opacity:1" /><path
     class="st0"
     d="m 14.8,9.8 c 0.1,0 0.2,0 0.3,0 h 3.4 3.4 c 0.1,0 0.2,0 0.3,0 V 5.2 h -7.4 z"
     id="path14"
     style="fill:#273839;fill-opacity:1" /><path
     class="st0"
     d="m 15,4.4 h 7 l 4.2,-2.8 c -0.3,-0.6 -1,-1 -1.7,-1 h -12 c -0.7,0 -1.4,0.4 -1.7,1 z"
     id="path16"
     style="fill:#273839;fill-opacity:1" /><path
     class="st0"
     d="M 23.1,4.7 V 9.6 L 25.7,9 C 26.1,8.9 26.4,8.5 26.4,8.1 V 4.9 4.7 2.5 Z"
     id="path18"
     style="fill:#273839;fill-opacity:1" /><path
     class="st0"
     d="M 13.9,4.7 10.6,2.5 v 2.2 0.2 3.2 c 0,0.4 0.3,0.8 0.7,0.9 l 2.6,0.6 z"
     id="path20"
     style="fill:#273839;fill-opacity:1" /><path
     class="st0"
     d="M 6.1,18.5 V 8 C 6.1,8 6.4,4.7 9,4.4 9.2,4.4 9.3,4.5 9.3,4.7 L 9.1,7.2 c 0,0.1 0,0.1 0,0.2 v 24 c 0,0.4 0.1,0.8 0.3,1.2 0.3,0.4 0.6,1.1 0.6,1.5 0,0.7 -0.8,0.6 -0.8,0.6 0,0 -2.3,-0.5 -2.3,-1.3 C 6.9,33.1 6.8,32.6 6.6,32.2 6.2,31.3 6,30.4 6,29.5 v -11 z"
     id="path22"
     style="fill:#273839;fill-opacity:1" /><path
     class="st0"
     d="M 30.9,18.5 V 8 c 0,0 -0.3,-3.3 -2.9,-3.6 -0.2,0 -0.3,0.1 -0.3,0.3 l 0.2,2.5 c 0,0.1 0,0.1 0,0.2 v 24 c 0,0.4 -0.1,0.8 -0.3,1.2 -0.3,0.4 -0.6,1.1 -0.6,1.5 0,0.7 0.8,0.6 0.8,0.6 0,0 2.3,-0.5 2.3,-1.3 0,-0.3 0.1,-0.8 0.3,-1.2 0.4,-0.9 0.6,-1.8 0.6,-2.7 v -11 z"
     id="path24"
     style="fill:#273839;fill-opacity:1" /><path
     class="st0"
     d="M 5.1,28 V 17.9 C 5.1,17.7 4.9,17.5 4.7,17.5 H 3.6 c -0.1,0 -0.3,0.1 -0.4,0.2 -0.2,0.3 -0.5,0.9 -0.5,1.9 0,1.4 0.7,2.8 0.7,2.8 V 23 c 0,0 -1,2.9 -1,4.8 0,1.9 2.8,1.6 2.8,1.6 V 28 Z"
     id="path26"
     style="fill:#273839;fill-opacity:1" /><path
     class="st0"
     d="M 31.9,28 V 17.9 c 0,-0.2 0.2,-0.4 0.4,-0.4 h 1.1 c 0.1,0 0.3,0.1 0.4,0.2 0.2,0.3 0.5,0.9 0.5,1.9 0,1.4 -0.7,2.8 -0.7,2.8 V 23 c 0,0 1,2.9 1,4.8 0,1.9 -2.8,1.6 -2.8,1.6 V 28 Z"
     id="path28"
     style="fill:#273839;fill-opacity:1" /></g>
</svg>
