<?xml version="1.0" encoding="UTF-8" standalone="no"?>
<!-- Generator: Adobe Illustrator 22.1.0, SVG Export Plug-In . SVG Version: 6.00 Build 0)  -->

<svg
   version="1.1"
   id="Layer_4_1_"
   x="0px"
   y="0px"
   viewBox="0 0 512 512"
   xml:space="preserve"
   sodipodi:docname="Backpack_lvl3.svg"
   width="512"
   height="512"
   inkscape:version="1.1 (c68e22c387, 2021-05-23)"
   xmlns:inkscape="http://www.inkscape.org/namespaces/inkscape"
   xmlns:sodipodi="http://sodipodi.sourceforge.net/DTD/sodipodi-0.dtd"
   xmlns="http://www.w3.org/2000/svg"
   xmlns:svg="http://www.w3.org/2000/svg"><defs
   id="defs61" /><sodipodi:namedview
   id="namedview59"
   pagecolor="#ffffff"
   bordercolor="#666666"
   borderopacity="1.0"
   inkscape:pageshadow="2"
   inkscape:pageopacity="0.0"
   inkscape:pagecheckerboard="0"
   showgrid="false"
   inkscape:zoom="0.21621622"
   inkscape:cx="122.5625"
   inkscape:cy="469.4375"
   inkscape:window-width="1366"
   inkscape:window-height="697"
   inkscape:window-x="-8"
   inkscape:window-y="-8"
   inkscape:window-maximized="1"
   inkscape:current-layer="Layer_4_1_" />
<style
   type="text/css"
   id="style2">
	.st0{fill:#241C1C;}
</style>


























<g
   id="g905"
   style="fill:#273839;fill-opacity:1"
   transform="matrix(13.593315,0,0,13.593315,5.882903,5.2033425)"><path
     class="st0"
     d="M 6.7,32.4 C 6.7,32.2 6.5,32 6.3,32.1 5.6,32.3 5,32.4 4.4,32.5 v 0.2 c 0,0 0.3,1.2 1.1,1.2 0.4,0 0.9,0 1.2,0.1 z"
     id="path4"
     style="fill:#273839;fill-opacity:1" /><path
     class="st0"
     d="m 30.7,32.1 c -0.2,-0.1 -0.4,0.1 -0.4,0.3 v 1.5 c 0.3,0 0.8,-0.1 1.2,-0.1 0.9,0 1.1,-1.2 1.1,-1.2 V 32.4 C 32,32.5 31.4,32.3 30.7,32.1 Z"
     id="path6"
     style="fill:#273839;fill-opacity:1" /><path
     class="st0"
     d="M 6.7,9.6 H 6.4 c 0,0 -1.8,0.1 -1.8,1.4 v 1.3 c 0.5,0.1 1,0.2 1.6,0.4 0.2,0.1 0.4,-0.1 0.4,-0.3 V 9.6 Z"
     id="path8"
     style="fill:#273839;fill-opacity:1" /><path
     class="st0"
     d="m 30.6,9.6 h -0.2 v 2.8 c 0,0.2 0.2,0.4 0.4,0.3 0.6,-0.2 1.2,-0.4 1.6,-0.4 V 11 c 0,-1.4 -1.8,-1.4 -1.8,-1.4 z"
     id="path10"
     style="fill:#273839;fill-opacity:1" /><path
     class="st0"
     d="m 18.5,19.1 -2.9,2.9 2.9,2.9 2.9,-2.9 z m -2,2.9 2,-2 2,2 -2,2 z"
     id="path12"
     style="fill:#273839;fill-opacity:1" /><path
     class="st0"
     d="m 13.5,20 1.2,0.6 2,-2 -1,-0.9 -0.1,0.1 C 15.6,17.8 6.2,13 3.8,13 v 3 c 0,0 7.7,2.8 9.5,4.1 z"
     id="path14"
     style="fill:#273839;fill-opacity:1" /><polygon
     class="st0"
     points="13.3,20.6 14.9,21.9 18.3,18.5 16.5,16.9 16.2,17.3 17.5,18.5 14.8,21.3 13.4,20.5 "
     id="polygon16"
     style="fill:#273839;fill-opacity:1" /><path
     class="st0"
     d="m 14.9,22 -1.3,1.3 0.4,0.4 c 0,0 -6.6,5 -10,5 v 3 c 4.3,0 11.7,-5.6 11.7,-5.6 l 1,1 1.6,-1.6 z m 1.8,3.9 -2.4,-2.4 0.6,-0.7 2.4,2.4 z"
     id="path18"
     style="fill:#273839;fill-opacity:1" /><polygon
     class="st0"
     points="22.1,21.9 23.7,20.6 23.6,20.5 22.2,21.3 19.5,18.5 20.8,17.3 20.5,16.9 18.7,18.5 "
     id="polygon20"
     style="fill:#273839;fill-opacity:1" /><path
     class="st0"
     d="m 21.3,17.7 v 0 l -1,0.8 2,2 1.2,-0.6 0.1,0.1 C 25.3,18.9 33,16 33,16 v -3.1 c -2.4,0 -11.7,4.8 -11.7,4.8 z"
     id="path22"
     style="fill:#273839;fill-opacity:1" /><path
     class="st0"
     d="m 23,23.7 0.4,-0.4 -1.3,-1.3 -3.5,3.5 1.6,1.6 1,-1 c 0,0 7.4,5.6 11.7,5.6 v -3 c -3.3,0 -9.9,-5 -9.9,-5 z m -2.7,2.2 -0.6,-0.6 2.4,-2.4 0.6,0.7 z"
     id="path24"
     style="fill:#273839;fill-opacity:1" /><path
     class="st0"
     d="m 26.5,30.3 v 5.9 c 0.1,0 0.1,0 0.1,0 l 2.8,-1.6 v -2.9 c -0.9,-0.3 -1.9,-0.8 -2.9,-1.4 z"
     id="path26"
     style="fill:#273839;fill-opacity:1" /><path
     class="st0"
     d="m 10.5,30.4 c -1,0.5 -2,1 -3,1.4 v 2.9 l 2.8,1.6 c 0,0 0.1,0 0.1,0 v -5.9 z"
     id="path28"
     style="fill:#273839;fill-opacity:1" /><path
     class="st0"
     d="m 24.8,35.4 c 0.6,-0.6 0.9,-1.4 0.9,-2.2 v -2.7 c 0,-0.3 -0.2,-0.6 -0.5,-0.8 -1.4,-0.8 -2.5,-1.6 -3.3,-2.1 -0.3,-0.2 -0.7,-0.2 -0.9,0.1 l -0.2,0.2 c -0.3,0.3 -0.7,0.3 -1,0 L 19.3,27.4 C 18.9,27 18.2,27 17.8,27.4 l -0.5,0.5 c -0.3,0.3 -0.7,0.3 -1,0 L 16,27.6 c -0.2,-0.2 -0.6,-0.3 -0.9,-0.1 -0.8,0.6 -2,1.4 -3.3,2.1 -0.3,0.2 -0.5,0.5 -0.5,0.8 v 2.7 c 0,0.8 0.3,1.6 0.9,2.2 l 0.6,0.6 c 0.8,0 3.5,0.5 3.5,0.5 h 2.2 2.2 c 0,0 2.6,-0.5 3.5,-0.5 z"
     id="path30"
     style="fill:#273839;fill-opacity:1" /><path
     class="st0"
     d="m 11.1,19.8 c -0.1,0.8 -0.2,1.7 -0.2,2.6 0,0.8 0.3,1.5 0.6,2 0.4,-0.3 0.9,-0.6 1.2,-0.8 l -0.3,-0.3 1.2,-0.9 c 0.3,-0.2 0.3,-0.6 0,-0.7 l -1.5,-1.1 0.2,-0.2 C 12,20.2 11.6,20 11.1,19.8 Z"
     id="path32"
     style="fill:#273839;fill-opacity:1" /><path
     class="st0"
     d="m 10.1,22.4 c 0,-0.9 0.1,-1.9 0.2,-2.7 0,-0.2 -0.1,-0.3 -0.2,-0.4 C 9.5,19 8.8,18.7 8.1,18.4 7.8,18.3 7.6,18.5 7.6,18.8 v 7.3 c 0,0.3 0.3,0.5 0.6,0.4 0.8,-0.4 1.6,-0.9 2.4,-1.4 0.2,-0.1 0.2,-0.3 0.1,-0.5 -0.4,-0.6 -0.6,-1.3 -0.6,-2.2 z"
     id="path34"
     style="fill:#273839;fill-opacity:1" /><path
     class="st0"
     d="m 24.6,23.3 -0.3,0.3 c 0.4,0.3 0.8,0.5 1.2,0.8 0.3,-0.5 0.6,-1.2 0.6,-2 0,-0.9 -0.1,-1.8 -0.2,-2.6 -0.5,0.2 -0.9,0.4 -1.2,0.6 l 0.2,0.2 -1.5,1.1 c -0.3,0.2 -0.2,0.6 0,0.7 z"
     id="path36"
     style="fill:#273839;fill-opacity:1" /><path
     class="st0"
     d="m 26.9,19.3 c -0.2,0.1 -0.3,0.2 -0.2,0.4 0.1,0.8 0.2,1.7 0.2,2.7 0,0.9 -0.2,1.6 -0.5,2.2 -0.1,0.2 -0.1,0.4 0.1,0.5 0.8,0.5 1.6,0.9 2.4,1.4 0.3,0.1 0.6,-0.1 0.6,-0.4 v -7.3 c 0,-0.3 -0.3,-0.5 -0.5,-0.4 -0.8,0.4 -1.5,0.7 -2.1,0.9 z"
     id="path38"
     style="fill:#273839;fill-opacity:1" /><path
     class="st0"
     d="m 5.8,26.8 c 0.3,0 0.5,0 0.8,-0.1 V 18.4 C 6.6,18.1 6.4,17.9 6.2,17.8 5.8,17.6 5.4,17.5 4.9,17.3 c -0.2,0.4 -0.3,0.9 -0.3,1.2 0,0.7 -0.1,1.2 0.5,1.8 0,0 1.1,-0.1 0.2,0.7 C 4.8,21.5 4.4,21.8 4.2,22 4.1,22.1 4,22.3 4,22.5 V 25 c 0,0.1 0,0.3 0.1,0.4 0.2,0.4 1,1.4 1.7,1.4 z"
     id="path40"
     style="fill:#273839;fill-opacity:1" /><path
     class="st0"
     d="m 31.2,26.8 c 0.8,0 1.5,-1 1.8,-1.4 0,-0.1 0,-0.3 0,-0.4 v -2.5 c 0,-0.2 -0.1,-0.4 -0.3,-0.5 -0.2,-0.2 -0.6,-0.5 -1.1,-1 -0.8,-0.8 0.2,-0.7 0.2,-0.7 0.6,-0.6 0.5,-1.1 0.5,-1.8 0,-0.3 -0.2,-0.7 -0.3,-1.2 -0.4,0.2 -0.9,0.3 -1.3,0.5 -0.3,0.1 -0.4,0.3 -0.4,0.6 v 8.3 c 0.3,0 0.6,0.1 0.9,0.1 z"
     id="path42"
     style="fill:#273839;fill-opacity:1" /><path
     class="st0"
     d="m 15.4,12.4 h 6.2 0.7 V 6.2 C 22.3,6 22.1,5.8 21.9,5.8 h -6.8 c -0.2,0 -0.4,0.2 -0.4,0.4 v 6.2 z"
     id="path44"
     style="fill:#273839;fill-opacity:1" /><path
     class="st0"
     d="M 13.9,5.9 C 13.9,5.7 13.8,5.6 13.7,5.5 L 11.1,3.7 c 0,0 0,0 0,0.1 0,1.1 0,1.6 0,1.9 v 5.2 c 0,0.3 0.2,0.5 0.4,0.5 0.7,0.1 1.7,0.4 2.4,0.8 z"
     id="path46"
     style="fill:#273839;fill-opacity:1" /><path
     class="st0"
     d="m 14.6,5 h 7.8 c 0.1,0 0.2,0 0.3,-0.1 l 2.9,-2 C 25.8,2.8 25.9,2.6 25.8,2.4 25.5,0.6 24.5,0.5 24.5,0.5 h -6 -6 c 0,0 -1,0.1 -1.3,1.9 0,0.2 0.1,0.4 0.2,0.5 l 2.9,2 c 0.1,0 0.2,0.1 0.3,0.1 z"
     id="path48"
     style="fill:#273839;fill-opacity:1" /><path
     class="st0"
     d="m 23.1,12.2 c 0.7,-0.5 1.7,-0.7 2.4,-0.8 0.3,0 0.4,-0.3 0.4,-0.5 V 5.7 c 0,-0.3 0,-0.8 0,-1.9 0,0 0,0 0,-0.1 l -2.6,1.8 c -0.1,0.1 -0.2,0.3 -0.2,0.4 z"
     id="path50"
     style="fill:#273839;fill-opacity:1" /><path
     class="st0"
     d="m 9.9,13.1 c 0,-0.6 0.1,-1.1 0.3,-1.3 0,-0.1 0.1,-0.2 0.1,-0.3 v -5.8 0 c 0,0 -2.7,0.1 -2.7,3 v 0.9 0 3 c 0,0.3 0.2,0.5 0.4,0.6 0.6,0.2 1.3,0.5 1.9,0.8 z"
     id="path52"
     style="fill:#273839;fill-opacity:1" /><path
     class="st0"
     d="M 29.5,9.6 V 8.7 c 0,-2.9 -2.7,-3 -2.7,-3 v 0 5.7 c 0,0.1 0,0.2 0.1,0.3 0.1,0.3 0.3,0.7 0.3,1.3 v 1 c 0.7,-0.3 1.3,-0.6 1.9,-0.8 0.3,-0.1 0.4,-0.3 0.4,-0.6 z"
     id="path54"
     style="fill:#273839;fill-opacity:1" /><path
     class="st0"
     d="m 26.3,13.1 c 0,-0.4 -0.1,-0.7 -0.2,-0.9 -0.8,0.1 -2.2,0.4 -2.8,1 l -0.1,0.1 h -0.1 -1.5 -6.2 -1.5 -0.1 l -0.1,-0.1 c -0.6,-0.6 -2.1,-0.9 -2.8,-1 -0.1,0.2 -0.2,0.5 -0.2,0.9 v 1.1 c 0,0.2 0.1,0.3 0.3,0.4 1.9,0.9 3.7,1.7 4.6,2.2 l 0.9,-0.9 1.4,1.3 c 0.3,0.3 0.8,0.3 1.1,0 l 1.4,-1.3 0.9,0.9 c 0.9,-0.5 2.7,-1.3 4.6,-2.2 0.2,-0.1 0.3,-0.2 0.3,-0.4 v -1.1 z"
     id="path56"
     style="fill:#273839;fill-opacity:1" /></g>
</svg>
