<?xml version="1.0" encoding="UTF-8" standalone="no"?>
<!-- Generator: Adobe Illustrator 22.1.0, SVG Export Plug-In . SVG Version: 6.00 Build 0)  -->

<svg
   version="1.1"
   id="Layer_4_1_"
   x="0px"
   y="0px"
   viewBox="0 0 512 512"
   xml:space="preserve"
   sodipodi:docname="Backpack_lvl1.svg"
   width="512"
   height="512"
   inkscape:version="1.1 (c68e22c387, 2021-05-23)"
   xmlns:inkscape="http://www.inkscape.org/namespaces/inkscape"
   xmlns:sodipodi="http://sodipodi.sourceforge.net/DTD/sodipodi-0.dtd"
   xmlns="http://www.w3.org/2000/svg"
   xmlns:svg="http://www.w3.org/2000/svg"><defs
   id="defs27" /><sodipodi:namedview
   id="namedview25"
   pagecolor="#ffffff"
   bordercolor="#666666"
   borderopacity="1.0"
   inkscape:pageshadow="2"
   inkscape:pageopacity="0.0"
   inkscape:pagecheckerboard="0"
   showgrid="false"
   inkscape:zoom="0.43243243"
   inkscape:cx="-72.84375"
   inkscape:cy="403.53125"
   inkscape:window-width="1366"
   inkscape:window-height="697"
   inkscape:window-x="-8"
   inkscape:window-y="-8"
   inkscape:window-maximized="1"
   inkscape:current-layer="Layer_4_1_" />
<style
   type="text/css"
   id="style2">
	.st0{fill:#241C1C;}
</style>
<g
   id="g22"
   transform="translate(53.222999)">
	
	
	
	
	
	
	
	
	<g
   id="g1180"
   transform="matrix(13.40585,0,0,13.40585,-45.901644,8.0053103)"><path
     class="st0"
     d="M 29.7,5.5 C 29.2,5.5 28.9,5.1 28.9,4.6 V 1.1 c 0,-0.6 0.8,-1 1.5,-0.7 h 0.1 c 1.7,0.6 2.9,1.9 2.9,3.4 V 6.4 C 32.5,6 31.3,5.6 29.7,5.5 Z"
     id="path4"
     style="fill:#273839;fill-opacity:1" /><path
     class="st0"
     d="M 7.3,5.5 C 7.8,5.5 8.1,5.1 8.1,4.6 V 1.1 C 8.1,0.5 7.3,0.1 6.6,0.4 H 6.5 C 4.8,1 3.7,2.4 3.7,3.8 V 6.4 C 4.5,6 5.7,5.6 7.3,5.5 Z"
     id="path6"
     style="fill:#273839;fill-opacity:1" /><path
     class="st0"
     d="m 13.4,5.3 h 10.2 c 1.2,0 2.3,0.4 3.2,0.8 C 27,6.2 27.3,6 27.3,5.7 V 2.4 C 27.3,1.5 26.6,0.8 25.7,0.8 H 11.3 c -0.9,0 -1.6,0.7 -1.6,1.6 v 3.3 c 0,0.3 0.3,0.5 0.6,0.4 0.8,-0.4 2,-0.8 3.1,-0.8 z"
     id="path8"
     style="fill:#273839;fill-opacity:1" /><path
     class="st0"
     d="M 23.6,6.1 H 13.4 c -1.1,0 -2.2,0.4 -3,0.8 C 9.9,7.1 9.7,7.6 9.7,8 v 8.3 c 0,0.4 0.3,0.7 0.7,0.7 h 16.2 c 0.4,0 0.7,-0.3 0.7,-0.7 V 8 C 27.3,7.5 27,7.1 26.6,6.9 25.8,6.5 24.7,6.1 23.6,6.1 Z"
     id="path10"
     style="fill:#273839;fill-opacity:1" /><path
     class="st0"
     d="m 11.6,18.7 c 0.1,0.3 0.2,0.6 0.1,1 -0.5,2.8 -0.6,5.1 -0.4,6.2 0.2,1 0.3,1.9 7,1.9 6.7,0 6.8,-0.9 7,-1.9 0.2,-1.1 0,-3.4 -0.4,-6.2 -0.1,-0.4 0,-0.7 0.1,-1 z"
     id="path12"
     style="fill:#273839;fill-opacity:1" /><path
     class="st0"
     d="m 18.4,31.8 c -3.9,0 -7.1,-0.2 -9.1,-1.8 v 5.1 c 0,0.9 0.7,1.6 1.6,1.6 h 15.2 c 0.9,0 1.6,-0.7 1.6,-1.6 v -5.3 c -1.9,1.8 -5.3,2 -9.3,2 z"
     id="path14"
     style="fill:#273839;fill-opacity:1" /><path
     class="st0"
     d="m 27.5,18.2 -0.8,0.2 c -0.6,0.1 -1,0.7 -0.9,1.3 0.3,1.9 0.7,4.9 0.4,6.4 -0.3,1.4 -0.5,2.6 -7.8,2.6 -7.3,0 -7.5,-1.1 -7.8,-2.6 -0.3,-1.5 0.1,-4.6 0.4,-6.4 0.1,-0.6 -0.3,-1.1 -0.9,-1.3 L 9.3,18.2 c -0.2,0 -0.5,0.1 -0.5,0.3 -0.2,1.4 -0.9,5.6 -0.5,8 0.7,3.8 3.8,4.5 10.1,4.5 6.3,0 9.4,-0.7 10.1,-4.5 0.4,-2.3 -0.3,-6.6 -0.5,-8 0,-0.2 -0.3,-0.4 -0.5,-0.3 z"
     id="path16"
     style="fill:#273839;fill-opacity:1" /><path
     class="st0"
     d="m 28.9,6.2 v 12.7 c 0.3,1.9 0.8,5.5 0.4,7.7 -0.1,0.5 -0.2,1 -0.4,1.4 v 7.6 c 0,0.6 0.8,1 1.5,0.7 h 0.1 c 1.7,-0.6 2.9,-1.9 2.9,-3.4 V 7.3 C 32.5,6.8 31.1,6.3 28.9,6.2 Z"
     id="path18"
     style="fill:#273839;fill-opacity:1" /><path
     class="st0"
     d="M 7.5,26.6 C 7.1,24.2 7.7,20.1 8,18.4 8,18.3 8.1,18.2 8.1,18.1 V 6.2 C 5.9,6.3 4.5,6.8 3.7,7.3 V 33 c 0,1.5 1.1,2.8 2.9,3.4 h 0.1 c 0.7,0.3 1.5,-0.1 1.5,-0.7 V 28.5 C 7.9,27.9 7.6,27.3 7.5,26.6 Z"
     id="path20"
     style="fill:#273839;fill-opacity:1" /></g>
</g>
</svg>
