<?xml version="1.0" encoding="UTF-8" standalone="no"?>
<svg
   xmlns:dc="http://purl.org/dc/elements/1.1/"
   xmlns:cc="http://creativecommons.org/ns#"
   xmlns:rdf="http://www.w3.org/1999/02/22-rdf-syntax-ns#"
   xmlns:svg="http://www.w3.org/2000/svg"
   xmlns="http://www.w3.org/2000/svg"
   xmlns:sodipodi="http://sodipodi.sourceforge.net/DTD/sodipodi-0.dtd"
   xmlns:inkscape="http://www.inkscape.org/namespaces/inkscape"
   width="412.315"
   height="128"
   viewBox="0 0 109.09167 33.866667"
   version="1.1"
   id="svg8"
   inkscape:version="1.0.1 (3bc2e813f5, 2020-09-07)"
   sodipodi:docname="Bocek Compund Bow.svg">
  <defs
     id="defs2" />
  <sodipodi:namedview
     id="base"
     pagecolor="#ffffff"
     bordercolor="#666666"
     borderopacity="1.0"
     inkscape:pageopacity="0.0"
     inkscape:pageshadow="2"
     inkscape:zoom="0.98994949"
     inkscape:cx="223.86084"
     inkscape:cy="35.801264"
     inkscape:document-units="mm"
     inkscape:current-layer="layer1"
     inkscape:document-rotation="0"
     showgrid="false"
     units="px"
     inkscape:window-width="1366"
     inkscape:window-height="705"
     inkscape:window-x="-8"
     inkscape:window-y="-8"
     inkscape:window-maximized="1" />
  <metadata
     id="metadata5">
    <rdf:RDF>
      <cc:Work
         rdf:about="">
        <dc:format>image/svg+xml</dc:format>
        <dc:type
           rdf:resource="http://purl.org/dc/dcmitype/StillImage" />
        <dc:title></dc:title>
      </cc:Work>
    </rdf:RDF>
  </metadata>
  <g
     inkscape:label="Layer 1"
     inkscape:groupmode="layer"
     id="layer1">
    <path
       style="fill:#273839;fill-opacity:1;stroke-width:0.100489"
       d="m 50.025515,30.433784 -0.427066,-0.255967 5e-4,-3.38581 5.01e-4,-3.385803 0.306083,-0.326588 0.306112,-0.326588 h 1.502234 1.502248 v -0.251217 c 0,-0.284049 0.169067,-0.322315 0.458101,-0.103698 0.25439,0.192413 1.140634,0.192413 1.395023,0 0.10724,-0.08114 0.231637,-0.147543 0.276338,-0.147543 0.04474,0 0.0813,1.899235 0.0813,4.22053 v 4.22053 l -2.487103,-7.95e-4 c -2.485647,-7.97e-4 -2.487345,-7.97e-4 -2.914183,-0.256923 z m 1.689804,-1.253014 c 0.183281,-0.09814 0.194369,-0.232383 0.194369,-2.355788 0,-2.665882 0.04656,-2.564627 -1.177978,-2.564627 h -0.731315 l 0.0015,2.336366 c 7.96e-4,1.28501 0.03473,2.386113 0.07538,2.446915 0.04066,0.06079 0.141672,0.136363 0.224568,0.167913 0.259577,0.0989 1.209983,0.07814 1.413452,-0.03079 z m 13.670282,1.155666 -0.311878,-0.355202 v -2.002791 -2.002799 l -0.295618,-0.466142 c -0.295479,-0.465935 -0.295601,-0.466834 -0.287713,-2.021586 l 0.0076,-1.555436 -0.566434,-0.57241 -0.566448,-0.572402 v -2.265689 c 0,-2.623589 -0.03261,-2.535184 1.071222,-2.907931 0.378937,-0.127985 0.731087,-0.334364 0.942262,-0.552237 0.613531,-0.633019 0.867602,-0.444793 0.913668,0.67695 0.02806,0.681121 0.006,0.801442 -0.186784,1.006261 -0.807307,0.859331 -0.646947,2.34398 0.326152,3.019611 0.695213,0.482716 1.511956,0.49061 2.203513,0.02133 0.201452,-0.136713 0.386188,-0.248567 0.410517,-0.248567 0.02442,0 0.271029,0.34247 0.548233,0.761052 l 0.50397,0.761044 v 1.458437 1.45843 l -1.057678,1.121776 -1.057693,1.12176 0.01061,1.841786 c 0.01061,1.822695 0.0076,1.845859 -0.250081,2.235881 l -0.260848,0.394103 h -0.89257 -0.892569 z m 1.776038,-0.60513 c 0.205319,-0.143795 0.223339,-0.237006 0.223339,-1.155626 0,-0.549549 -0.03398,-0.997557 -0.07538,-0.995591 -0.09465,0.0048 -1.331481,2.044375 -1.331481,2.195992 0,0.171287 0.925014,0.136211 1.183514,-0.04472 z m -0.67052,-1.630059 c 0.287699,-0.482049 0.583999,-0.947975 0.658446,-1.035361 0.191547,-0.224839 0.07433,-0.293311 -0.501969,-0.293311 -0.783372,0 -0.870453,0.132878 -0.870453,1.327868 0,0.602823 0.03762,0.971981 0.09541,0.936261 0.05249,-0.03247 0.330853,-0.453409 0.618537,-0.935457 z m 0.537083,-2.192118 c 0.146375,-0.146372 0.109213,-0.217088 -0.436047,-0.829022 -0.838751,-0.94141 -1.302389,-1.37075 -1.387893,-1.285249 -0.07356,0.0736 0.322451,1.76779 0.490561,2.098445 0.120893,0.237888 1.099695,0.249521 1.333379,0.01583 z m 2.266068,-2.274736 c 0,-0.04257 -0.768735,-0.07742 -1.708325,-0.07742 -1.195878,0 -1.708312,0.03382 -1.708312,0.112777 0,0.06207 0.370974,0.492815 0.824358,0.957333 l 0.824356,0.844546 0.883954,-0.879852 c 0.486178,-0.483934 0.883969,-0.91473 0.883969,-0.957332 z m -3.336093,-1.080112 c 0.03382,-0.707309 -0.02654,-0.825171 -0.356882,-0.698397 -0.19948,0.07655 -0.2261,0.157266 -0.2261,0.685562 0,0.486027 0.03307,0.607334 0.175847,0.644128 0.326182,0.08408 0.376738,0.0056 0.407135,-0.631293 z m 1.707447,-0.09 c -0.02806,-0.635455 -0.04096,-0.6659 -0.280646,-0.6659 -0.239904,0 -0.252554,0.03016 -0.280752,0.670093 -0.02548,0.576644 -0.0045,0.675647 0.150774,0.70999 0.380211,0.08419 0.441264,-0.02196 0.41067,-0.714183 z m 1.682889,0.651449 c 0.0015,-0.0063 -0.01366,-0.293613 -0.03398,-0.639044 -0.0355,-0.586248 -0.05414,-0.628063 -0.280341,-0.628063 -0.233047,0 -0.2423,0.02689 -0.2423,0.705343 v 0.705336 l 0.276352,-0.06628 c 0.151989,-0.03644 0.278144,-0.07122 0.280344,-0.07726 z m -2.284574,-2.114892 0.03064,-0.460946 -0.482885,-0.206967 C 66.346125,20.21909 66.05292,20.057295 65.96018,19.973363 65.754786,19.787498 65.677654,19.828279 64.923041,20.52179 l -0.5791,0.532194 0.208035,0.221465 c 0.192867,0.205328 0.290884,0.220184 1.344633,0.203896 l 1.136614,-0.01758 z m 1.736099,0.445834 c 0.787301,0 0.798708,-0.01743 0.460195,-0.703418 C 69.0191,20.25461 68.995544,20.247489 68.113517,20.396225 l -0.427082,0.07201 v 0.472467 c 0,0.513057 0.06431,0.641837 0.279311,0.559329 0.07645,-0.02936 0.451927,-0.05339 0.834292,-0.05339 z m -4.060885,-1.541399 c 0.652287,-0.587481 0.696124,-0.651919 0.564053,-0.82903 -0.105572,-0.141623 -0.136061,-0.442653 -0.115887,-1.146675 0.02124,-0.743362 -0.01061,-1.025525 -0.142887,-1.274865 -0.09359,-0.176117 -0.213935,-0.347228 -0.267358,-0.380243 -0.05339,-0.03302 -0.279841,0.105036 -0.503151,0.306783 l -0.406042,0.366819 v 1.797105 c 0,0.988405 0.03686,1.797112 0.08206,1.797112 0.04505,0 0.400279,-0.28665 0.789273,-0.637006 z m -22.884235,3.073855 c -0.003,-0.09671 -0.06082,-0.725674 -0.127718,-1.397669 l -0.121954,-1.221805 0.355214,-0.05682 c 1.305619,-0.208774 2.063919,-1.632478 1.514292,-2.843049 -0.208854,-0.460014 -0.159193,-0.535123 0.353833,-0.535123 0.242286,0 0.243014,-0.0032 0.243014,-1.105376 v -1.105382 h 0.502437 0.502438 v 1.434437 1.434431 l 0.455933,1.102909 c 0.250763,0.606595 0.549337,1.329006 0.66351,1.60536 0.114219,0.276338 0.318127,0.745233 0.453247,1.041973 0.135151,0.296749 0.232213,0.551722 0.215771,0.566602 -0.194519,0.1761 -4.330078,1.255354 -4.810356,1.255354 -0.115279,0 -0.196127,-0.07122 -0.199631,-0.175855 z m -4.48017,-1.204005 c -0.835051,-1.123408 -1.006893,-1.440415 -1.332301,-2.458063 -0.404283,-1.264227 -0.441766,-2.621242 -0.09222,-3.340566 0.120589,-0.248114 0.26751,-0.46825 0.326591,-0.489193 0.059,-0.02093 0.821839,0.004 1.694993,0.05475 1.118442,0.06541 1.62631,0.06064 1.718611,-0.016 0.09162,-0.07607 0.152077,-0.587966 0.201117,-1.703915 0.06355,-1.445173 0.05263,-1.626541 -0.116189,-1.928632 -0.224296,-0.401477 -0.395031,-0.453707 -1.795044,-0.549131 l -1.0767,-0.07339 -0.611408,-0.56539 c -0.336267,-0.310953 -0.804365,-0.65141 -1.040203,-0.7565563 -0.425519,-0.189715 -0.427263,-0.192616 -0.227177,-0.379031 0.339408,-0.3162 0.530197,-0.781423 0.461316,-1.124835 -0.139397,-0.695141 -0.173481,-0.654689 0.926077,-1.100442 l 1.032862,-0.41872 0.413961,-0.703421 c 0.227677,-0.386883 0.486406,-0.787446 0.574943,-0.89014 0.260836,-0.30249 1.078519,-0.667437 1.495469,-0.667437 0.500207,0 0.645596,0.158764 1.868731,2.040587 0.926593,1.425599 0.967092,1.511172 0.967092,2.043783 0,0.490545 -0.07676,0.701001 -0.653182,1.7905043 l -0.653167,1.234618 0.0015,1.494818 c 7.95e-4,0.822151 0.03473,1.542425 0.07538,1.600611 0.04066,0.05818 0.243393,0.208839 0.450653,0.334782 0.397215,0.241383 0.48269,0.530461 0.272804,0.922631 -0.07993,0.149381 -0.21216,0.194372 -0.571197,0.194372 -1.605484,0 -2.595814,1.92239 -1.625687,3.155703 0.181837,0.231173 0.192092,0.29296 0.07508,0.452216 -0.257742,0.350635 -2.11217,2.47175 -2.184478,2.498645 -0.03988,0.01488 -0.300062,-0.279099 -0.578128,-0.653184 z m 0.654062,-2.909834 c 0.69133,-0.449543 0.721485,-0.485199 0.658536,-0.778789 -0.09981,-0.465687 -0.229346,-0.659104 -0.513678,-0.767202 -0.219077,-0.0833 -0.347873,-0.04058 -0.848005,0.281144 -0.324346,0.208662 -0.613045,0.45115 -0.641578,0.538879 -0.04808,0.147964 0.252539,0.962377 0.415403,1.125237 0.116948,0.116923 0.171736,0.09338 0.929322,-0.399269 z m -1.106748,-1.450544 c 0.406833,-0.299184 0.425338,-0.335413 0.396624,-0.776179 -0.02943,-0.451596 -0.03823,-0.462784 -0.381835,-0.480767 -0.529256,-0.02769 -0.703434,0.18674 -0.703434,0.866191 0,0.819338 0.05977,0.853243 0.688645,0.390755 z M 39.46996,17.25599 c 0.209581,-0.204659 0.38106,-0.403009 0.38106,-0.44079 0,-0.0378 -0.138941,-0.08909 -0.308676,-0.113994 -0.380212,-0.05578 -0.796691,0.239949 -0.796691,0.565734 0,0.479493 0.225539,0.476087 0.724307,-0.0109 z m 1.586933,-5.987779 c 0,-0.07126 0.158282,-0.43312 0.35171,-0.804123 0.396138,-0.7597643 0.422804,-0.9314493 0.185403,-1.1937753 -0.13242,-0.146255 -0.316958,-0.183769 -0.904401,-0.183769 h -0.738094 v 0.647247 c 0,0.3559873 0.04521,0.6751963 0.100414,0.7093523 0.05522,0.03416 0.100416,0.232779 0.100416,0.441384 0,0.208602 0.03019,0.40942 0.06704,0.44627 0.126352,0.126429 0.837418,0.0733 0.837418,-0.06259 z m -3.517112,-0.705422 c 0,-0.213597 0.100414,-0.41464 0.320447,-0.6416653 l 0.320433,-0.330611 -0.168081,-0.352474 c -0.106178,-0.222512 -0.239328,-0.352472 -0.361328,-0.352472 -0.252113,0 -1.015857,0.913479 -1.015857,1.2150263 0,0.282424 0.572743,0.900514 0.765792,0.826433 0.07645,-0.02936 0.138639,-0.192554 0.138639,-0.364237 z M 36.921502,9.1753947 c 0.257149,-0.282743 0.522036,-0.633201 0.588625,-0.778787 0.136363,-0.298253 0.171448,-0.917884 0.05187,-0.917884 -0.04308,0 -0.393499,0.132952 -0.778776,0.295447 -0.660887,0.27873 -0.70433,0.317126 -0.767537,0.678301 -0.03686,0.210567 -0.116948,0.512706 -0.178016,0.671419 -0.136059,0.353514 0.0015,0.565587 0.367577,0.565587 0.171266,0 0.394287,-0.160065 0.716252,-0.514083 z m 2.768036,-0.04682 c 0.129235,-0.336923 0.06325,-1.601889 -0.09541,-1.828466 -0.195279,-0.278802 -0.850963,-0.295222 -1.300676,-0.03257 -0.256695,0.149939 -0.305992,0.245579 -0.332022,0.64417 -0.02002,0.306554 0.03868,0.62472 0.170205,0.921956 l 0.200769,0.453864 h 0.648086 c 0.498251,0 0.662176,-0.03676 0.709062,-0.158954 z m 1.979915,-0.616382 c 0.160513,-0.09482 0.291841,-0.201885 0.291841,-0.237921 0,-0.03604 -0.186723,-0.388048 -0.414947,-0.782244 -0.364694,-0.629921 -0.450441,-0.716723 -0.708,-0.716723 -0.386096,0 -0.786345,0.400466 -0.786345,0.786782 0,0.543691 0.119224,0.899103 0.337012,1.00451 0.335084,0.162195 0.958612,0.135712 1.280439,-0.05441 z M 39.03666,6.7585187 c 0.221549,-0.0087 0.469916,0.0399 0.551932,0.107968 0.35306,0.293022 0.796629,-0.300201 0.746467,-0.998316 -0.02579,-0.359688 -0.08282,-0.47157 -0.302959,-0.594581 -0.256178,-0.143175 -0.2946,-0.135015 -0.697519,0.14818 -0.234533,0.164835 -0.575852,0.548117 -0.758495,0.851746 -0.383123,0.636944 -0.40894,0.750554 -0.137578,0.605322 0.107392,-0.05749 0.376586,-0.111624 0.598152,-0.120314 z m 13.9284,14.5233843 c -1.145215,-0.863804 -1.490356,-0.925647 -2.186981,-0.391885 -0.339651,0.260248 -0.645703,0.3956 -1.055129,0.466643 -1.10253,0.191299 -1.683904,0.293852 -1.994266,0.351788 -0.303838,0.05674 -0.319127,0.04122 -0.571666,-0.57907 -0.142735,-0.350532 -0.555861,-1.338253 -0.918113,-2.194918 -0.362252,-0.856665 -0.658961,-1.583923 -0.659325,-1.61611 -6.07e-4,-0.0499 2.061417,-0.560013 2.662268,-0.65861 1.050228,-0.17233 1.752555,-0.397822 2.019141,-0.648251 0.181944,-0.170921 0.306431,-0.202567 0.611969,-0.155531 1.231462,0.189572 1.149446,0.202837 1.664793,-0.269225 0.26252,-0.24049 0.477319,-0.514233 0.477319,-0.608321 0,-0.179569 0.27426,-0.662834 0.44988,-0.792729 0.182461,-0.134953 1.096979,-0.04919 1.473686,0.138215 0.201284,0.100142 0.574351,0.420271 0.82903,0.711401 l 0.463045,0.529337 v 2.676958 2.676957 l -0.401962,0.06429 c -0.375601,0.06008 -0.401948,0.0862 -0.401948,0.398887 0,0.301395 -0.03853,0.346179 -0.388494,0.451007 -0.830152,0.248729 -1.112814,0.173629 -2.073247,-0.550819 z M 48.920861,20.63701 c 0.510447,-0.1137 1.018694,-0.287478 1.129424,-0.386163 0.110728,-0.0987 0.480959,-0.281392 0.822718,-0.40597 0.546776,-0.19932 0.683109,-0.213277 1.135446,-0.11627 0.282725,0.06064 0.55706,0.110247 0.609618,0.110247 0.05612,0 0.09556,-0.616931 0.09556,-1.495026 0,-1.644158 -0.0543,-1.813305 -0.50274,-1.565143 -0.150319,0.08322 -0.552888,0.139211 -1.004588,0.139744 -0.960464,7.96e-4 -4.622496,0.859045 -4.622496,1.082969 0,0.07766 0.208096,0.647263 0.46241,1.265698 0.254327,0.618451 0.501922,1.226199 0.550203,1.350554 0.107393,0.276752 0.165169,0.277595 1.324475,0.01934 z m -0.905114,-1.166181 c -0.210933,-0.0851 -0.150926,-0.616222 0.08373,-0.741828 0.167004,-0.08937 0.248292,-0.07679 0.401948,0.0623 0.429508,0.388694 0.06325,0.901067 -0.485677,0.679546 z m 2.5072,-0.757447 c -0.333902,-0.333909 0.059,-0.90986 0.470524,-0.689652 0.279993,0.149851 0.342411,0.410513 0.149408,0.62379 -0.193593,0.213929 -0.445116,0.240657 -0.619917,0.06589 z m 3.264255,-0.48235 c -0.0076,-1.050106 -0.02032,-1.909287 -0.02685,-1.909287 -0.215999,0 -0.639319,0.268389 -0.683565,0.433398 -0.07584,0.282943 -0.07706,2.664816 -0.0014,2.946636 0.05476,0.203888 0.355622,0.417014 0.609588,0.431742 0.086,0.0048 0.113155,-0.502871 0.102233,-1.902489 z m 1.847179,1.302818 c 0.173026,-0.09259 0.194368,-0.218696 0.194368,-1.147828 v -1.043804 l -0.358248,-0.118235 c -0.373143,-0.123154 -1.002541,-0.05944 -1.224455,0.123957 -0.08403,0.06947 -0.125594,0.413472 -0.125594,1.040437 0,0.853985 0.01972,0.950449 0.223339,1.093075 0.253844,0.177796 0.99972,0.208081 1.290605,0.05244 z M 6.0086457,21.245105 C 5.4283633,21.12312 4.6760409,20.700775 4.245956,20.255537 3.8553848,19.851176 3.3735757,19.005579 3.3735757,18.724442 c 0,-0.09905 -0.045202,-0.208026 -0.1004149,-0.242185 -0.125746,-0.07766 -0.1327235,-1.197569 -0.0091,-1.433333 0.050359,-0.09597 0.164562,-0.38248 0.2537522,-0.636689 C 3.8463758,15.475862 4.8292276,14.624974 5.8987365,14.35098 6.9135481,14.091 8.0402722,14.30247 8.899289,14.914154 l 0.2915972,0.207622 1.6886378,-1.019223 c 0.928776,-0.560574 2.056016,-1.240202 2.505001,-1.510283 0.592705,-0.356529 0.923058,-0.492266 1.205872,-0.495468 0.576217,-0.0065 0.889188,-0.142947 3.632211,-1.583262 1.942057,-1.0197503 3.316269,-1.6455073 6.112822,-2.7835303 3.249451,-1.322324 4.138577,-1.689986 5.114876,-2.115059 0.266767,-0.116145 0.64229,-0.255539 2.210765,-0.820646 0.221079,-0.07965 0.552159,-0.259133 0.735727,-0.398852 0.306235,-0.233088 0.67099,-0.343989 2.077964,-0.631799 0.276354,-0.05653 1.045089,-0.22029 1.708312,-0.363915 0.958279,-0.20752 1.350292,-0.247823 1.909277,-0.196301 0.955489,0.08807 0.995396,0.105315 1.296565,0.560407 l 0.263869,0.398749 h -0.255799 c -0.140612,0 -0.552858,0.199283 -0.915944,0.442849 -0.628655,0.421738 -0.792822,0.624547 -1.431064,1.767906 -0.04626,0.0829 -0.441142,0.277445 -0.877491,0.432316 -0.436333,0.154871 -0.906904,0.343248 -1.045725,0.418616 -0.196719,0.106802 -0.354742,0.113613 -0.716298,0.03088 -0.39368,-0.09008 -0.522596,-0.07739 -0.85166,0.08382 -0.4544,0.222644 -0.84259,0.754913 -0.84259,1.155342 v 0.282458 l -0.483099,-0.242645 c -0.265703,-0.133452 -0.786253,-0.561176 -1.156757,-0.950496 -0.370502,-0.389318 -0.74906,-0.707854 -0.841239,-0.707854 -0.239297,0 -0.83505,0.226956 -0.83505,0.31812 0,0.158728 0.355683,0.268457 0.538523,0.166137 0.370246,-0.207196 1.029844,0.81549 0.951772,1.47568 -0.04035,0.340803 0.04369,0.29629 -1.992734,1.057178 -0.91194,0.3407523 -1.997223,0.7479603 -2.411729,0.9049073 -1.078626,0.408398 -3.134703,1.17556 -4.046035,1.50965 -0.429069,0.157301 -0.813937,0.306891 -0.855255,0.332428 -0.106331,0.06572 -0.358643,-0.139595 -0.569332,-0.463311 -0.143644,-0.220581 -0.256118,-0.276345 -0.557698,-0.276345 -0.576185,0 -0.970928,-0.103221 -1.195724,-0.312634 -0.112095,-0.104389 -0.252585,-0.189809 -0.312302,-0.189809 -0.05977,0 -1.090593,0.498782 -2.290823,1.108408 l -2.182233,1.108412 -0.573199,0.775819 c -0.50523,0.683817 -0.695835,0.849628 -1.607335,1.398231 -1.653234,0.99501 -1.693764,0.902865 0.42787,0.972571 2.062631,0.06779 6.826464,0.206903 12.606445,0.368172 8.129309,0.22682 9.520873,0.282202 9.621576,0.382893 0.05627,0.05626 0.07341,0.177358 0.03823,0.269121 -0.05703,0.148529 -0.215559,0.160027 -1.445322,0.104876 -0.759708,-0.03406 -3.099649,-0.105497 -5.199866,-0.15873 -2.100216,-0.05324 -4.632536,-0.121873 -5.627371,-0.152581 -3.510591,-0.108329 -11.861236,-0.348175 -12.13404,-0.348501 -0.26895,-2.87e-4 -0.276459,0.01519 -0.280751,0.577487 -0.003,0.317794 -0.06507,0.747898 -0.139247,0.95578 -0.07857,0.220367 -0.09632,0.4018 -0.04247,0.435101 0.05081,0.03143 0.644839,0.03199 1.320045,7.95e-4 0.675176,-0.03071 2.290262,-0.08026 3.589071,-0.110048 1.298825,-0.02976 2.994577,-0.07639 3.768347,-0.103539 0.773756,-0.02721 3.328676,-0.09658 5.67761,-0.154243 2.348933,-0.05769 5.649987,-0.142005 7.335697,-0.187424 1.685696,-0.04543 3.098829,-0.0631 3.14027,-0.03923 0.0414,0.02379 0.07538,0.129019 0.07538,0.233792 0,0.2678 -0.179746,0.283968 -3.868822,0.347984 -1.768606,0.03071 -3.690443,0.07862 -4.270785,0.106468 -0.580314,0.02785 -2.931765,0.09468 -5.22541,0.148497 -2.29366,0.05379 -5.911263,0.149525 -8.039101,0.212705 l -3.8688383,0.11487 -0.3314146,0.337967 c -0.1822787,0.18588 -0.2953291,0.338531 -0.2512185,0.339223 0.044135,5.74e-4 6.0395724,0.01202 13.3232574,0.02515 11.644829,0.02093 13.25456,0.04201 13.33835,0.174589 0.262459,0.415168 0.714887,0.401951 -13.76255,0.401951 -8.721513,0 -13.9560684,0.03621 -14.1175511,0.09758 -0.3887511,0.147805 -1.4611267,0.204484 -1.9448472,0.102799 z m 2.1507885,-1.000143 c 0.8847576,-0.507455 1.4444571,-1.428057 1.4444571,-2.37588 v -0.437177 l -0.9750252,0.600546 c -0.8739277,0.538282 -1.0309814,0.600539 -1.5150506,0.600539 -0.4629093,0 -0.5820268,-0.04193 -0.8338071,-0.293741 -0.3409553,-0.34095 -0.3950306,-0.865092 -0.1309033,-1.268284 0.089645,-0.136729 0.6574289,-0.546557 1.2618443,-0.910719 0.9995825,-0.602265 1.0825235,-0.674581 0.9173545,-0.799763 -0.3836998,-0.290827 -1.149598,-0.472024 -1.781013,-0.42134 -1.4343696,0.115142 -2.3858533,1.073203 -2.6283505,2.646566 -0.080089,0.519901 0.1174035,0.745814 0.6520441,0.745814 0.4902428,0 0.8158325,0.312814 0.6319916,0.607191 -0.1763327,0.282346 -0.1572812,0.347078 0.2250232,0.764393 0.3300493,0.360264 0.3550165,0.3699 0.5354901,0.206562 0.3499806,-0.316737 1.2286102,-0.16364 1.2286102,0.214089 0,0.197172 0.18419,0.419035 0.3466739,0.417579 0.058095,-5.73e-4 0.3372997,-0.133889 0.6206,-0.296375 z M 7.5466156,17.926524 c 0.4140518,-0.457523 -0.2958598,-1.167426 -0.7533691,-0.75338 -0.391815,0.354573 -0.1697041,0.946192 0.3582169,0.954204 0.115735,0.0016 0.2935997,-0.08861 0.3951522,-0.200824 z M 20.659821,11.498279 c 0.04732,0 0.100264,-0.162761 0.117403,-0.361695 0.02684,-0.311533 0.07994,-0.37894 0.382897,-0.486069 0.592356,-0.209485 4.707256,-1.7622213 6.96894,-2.6296933 0.489136,-0.187617 0.952637,-0.341119 1.029996,-0.341119 0.07736,0 0.14061,-0.06516 0.14061,-0.144797 0,-0.356838 -0.187041,-0.313016 -2.612711,0.612147 -0.635586,0.242416 -1.585204,0.601714 -2.110274,0.798434 -2.738155,1.025908 -3.352156,1.2754983 -4.245652,1.7258183 -0.483599,0.243739 -0.879267,0.484301 -0.879267,0.534583 0,0.05029 0.01062,0.0921 0.02518,0.09294 0.01366,8.94e-4 0.206001,0.06679 0.427066,0.146556 0.221079,0.07977 0.462197,0.124306 0.535808,0.09897 0.07356,-0.02531 0.172617,-0.04606 0.220034,-0.04606 z m 80.640149,9.694276 c -0.34316,-0.123623 -2.603237,-0.14502 -15.450168,-0.146317 L 70.8016,21.044613 V 20.80596 c 0,-0.18771 0.0681,-0.252283 0.319052,-0.30247 0.175468,-0.03509 6.721073,-0.06286 14.545752,-0.06175 7.824683,7.96e-4 14.255416,0.0016 14.290508,7.96e-4 0.0351,-5.73e-4 -0.078,-0.15441 -0.251225,-0.341889 l -0.315006,-0.34088 -3.416635,-0.108798 c -1.879142,-0.05984 -4.434064,-0.134072 -5.677611,-0.164954 -2.049336,-0.05093 -5.913431,-0.163457 -10.199608,-0.297146 -0.884318,-0.02761 -2.685369,-0.08028 -4.002349,-0.117098 l -2.394515,-0.067 0.249687,-0.249698 0.249703,-0.249697 6.013649,0.164969 c 3.307485,0.09074 6.646705,0.186716 7.420481,0.213293 0.77376,0.02658 2.266021,0.07178 3.316129,0.100508 1.050115,0.02872 2.745851,0.07528 3.768333,0.103476 1.022466,0.02817 2.389384,0.07631 3.037596,0.10692 0.648204,0.03064 1.220635,0.0296 1.272074,-0.0024 0.05574,-0.03446 0.03673,-0.2708 -0.04688,-0.585094 -0.07719,-0.290016 -0.140904,-0.681448 -0.141554,-0.869866 l -7.96e-4,-0.342567 -2.386605,0.06676 c -1.312642,0.03668 -4.986766,0.133864 -8.164721,0.215863 -3.177972,0.082 -7.519067,0.194268 -9.646927,0.249458 -2.127854,0.05523 -3.947957,0.100898 -4.044685,0.101582 -0.120892,7.97e-4 -0.175848,-0.07727 -0.175848,-0.249999 0,-0.223184 0.04202,-0.251297 0.376829,-0.251941 0.207261,-2.79e-4 1.801263,-0.0444 3.542247,-0.09779 1.740968,-0.05339 5.064626,-0.142768 7.385913,-0.198604 2.321296,-0.05586 4.808391,-0.124164 5.526884,-0.151831 0.718502,-0.02769 2.674254,-0.07941 4.346143,-0.114887 1.671881,-0.03549 3.039782,-0.09771 3.039782,-0.1382 0,-0.0405 -0.588404,-0.424088 -1.307564,-0.852441 -1.202541,-0.716269 -1.357923,-0.843864 -1.934408,-1.588521 l -0.626836,-0.809701 -2.199624,-1.097114 -2.199616,-1.097115 -0.312601,0.232132 c -0.234877,0.174407 -0.481284,0.241826 -0.9909,0.271116 -0.438937,0.02524 -0.678308,0.08155 -0.678308,0.159579 0,0.06633 -0.135947,0.250851 -0.302128,0.410053 -0.234065,0.224245 -0.329143,0.262439 -0.422053,0.169532 -0.06598,-0.06595 -0.179197,-0.11992 -0.251663,-0.11992 -0.07239,0 -0.323416,-0.08754 -0.557708,-0.194532 -0.234286,-0.106931 -0.810348,-0.328629 -1.280127,-0.492593 -0.469796,-0.163966 -1.351578,-0.487567 -1.959547,-0.719115 -1.131479,-0.430943 -3.005555,-1.1374313 -4.170273,-1.5721133 -0.881678,-0.329052 -0.949375,-0.372805 -0.988692,-0.639107 -0.100869,-0.68351 0.559548,-1.737096 0.955943,-1.524951 0.186072,0.0996 0.535203,-0.0074 0.535203,-0.163975 0,-0.078 -0.715009,-0.32094 -0.944583,-0.32094 -0.07903,0 -0.4058,0.298419 -0.726036,0.663156 -0.481445,0.548382 -1.404063,1.241361 -1.657799,1.245188 -0.03443,5.7e-4 -0.09177,-0.181447 -0.127415,-0.404368 -0.04156,-0.259505 -0.188119,-0.539653 -0.407484,-0.778782 -0.334721,-0.364863 -0.359597,-0.373558 -1.078533,-0.377063 -0.404754,-0.002 -0.803745,-0.03284 -0.886639,-0.06859 -0.08297,-0.03575 -0.444662,-0.166127 -0.803911,-0.289726 -0.82058,-0.282313 -0.827543,-0.287991 -1.357284,-1.106881 -0.332704,-0.514322 -0.605553,-0.790817 -1.122735,-1.137777 -0.375797,-0.252087 -0.785889,-0.458342 -0.911332,-0.458342 h -0.228095 l 0.227026,-0.350738 c 0.364011,-0.562389 1.551712,-0.796597 2.638756,-0.520353 0.331611,0.08428 1.077745,0.248855 1.658073,0.365742 1.830067,0.368615 2.351587,0.514572 2.713187,0.759341 0.193443,0.130933 0.736093,0.380443 1.205874,0.554458 0.46978,0.174015 0.996639,0.379839 1.170803,0.457392 0.174163,0.07756 0.348205,0.141006 0.386764,0.141006 0.03853,0 0.21263,0.06616 0.386778,0.147026 0.392802,0.182394 1.968512,0.829688 3.4318,1.409757 0.607953,0.241005 1.602794,0.648951 2.210756,0.906546 0.607953,0.257595 1.399311,0.580642 1.758558,0.717878 0.359247,0.137244 1.150589,0.500766 1.758542,0.807838 1.594442,0.8053203 3.748054,1.9258423 4.256346,2.2145713 0.275307,0.156377 0.666875,0.269219 1.055136,0.304066 0.51324,0.04606 0.761435,0.142932 1.471519,0.574297 0.818951,0.497495 3.791872,2.258932 3.940454,2.334686 0.03941,0.02008 0.249309,-0.07564 0.466459,-0.212729 0.6763,-0.426923 1.3449,-0.593244 2.17157,-0.540194 1.30525,0.08378 2.16749,0.668899 2.92958,1.988072 0.3556,0.615554 0.37771,0.704022 0.38372,1.536116 0.004,0.536491 -0.0368,0.911077 -0.10376,0.954643 -0.0605,0.03946 -0.13903,0.189938 -0.17435,0.33445 -0.19421,0.794575 -1.31203,1.877019 -2.22085,2.150564 -0.62139,0.187026 -1.59127,0.184981 -2.11715,-0.0048 z m 0.53258,-0.770863 c 0.0663,-0.06636 0.12058,-0.200387 0.12058,-0.297934 0,-0.09754 0.0875,-0.224163 0.19438,-0.281367 0.2823,-0.151092 0.86698,-0.127435 1.00654,0.04074 0.16122,0.194268 0.34303,0.108711 0.66446,-0.312727 0.19723,-0.258561 0.23847,-0.38111 0.15601,-0.463562 -0.30633,-0.306329 0.0486,-0.775311 0.58681,-0.775311 0.46147,0 0.60745,-0.145347 0.60745,-0.604797 0,-1.910224 -1.99974,-3.341862 -3.73977,-2.67734 -0.81427,0.310969 -0.79258,0.361298 0.47795,1.108918 1.43416,0.843894 1.6865,1.22927 1.29748,1.981545 -0.18277,0.35342 -0.49479,0.49314 -1.10129,0.49314 -0.35667,0 -0.61299,-0.105496 -1.35588,-0.558079 -1.314339,-0.800734 -1.250127,-0.797416 -1.173119,-0.06056 0.106365,1.017537 0.687529,1.914314 1.501819,2.317387 0.49125,0.243164 0.59144,0.255077 0.75658,0.08993 z m 0.80363,-2.417314 c 0.0576,-0.06939 0.13457,-0.245185 0.17109,-0.390628 0.1143,-0.45547 -0.55238,-0.775494 -0.8972,-0.430676 -0.21336,0.213365 -0.20273,0.710405 0.0179,0.838937 0.24337,0.141766 0.58288,0.1333 0.70816,-0.01758 z M 89.433235,11.45829 c 0.184917,-0.07727 0.364942,-0.186949 0.400042,-0.243741 0.113385,-0.183465 -1.897097,-1.059438 -5.802768,-2.5282893 -3.455408,-1.299518 -3.818386,-1.416151 -3.961576,-1.272948 -0.14319,0.143204 -0.135303,0.166076 0.08585,0.249679 1.90442,0.719805 3.810715,1.423555 3.856044,1.423555 0.03153,0 0.249178,0.08626 0.48347,0.191694 0.234293,0.105437 1.194716,0.473377 2.134291,0.8176563 0.939567,0.344282 1.764839,0.670535 1.833918,0.725012 0.06906,0.05447 0.125604,0.226023 0.125604,0.381221 0,0.212727 0.05566,0.292888 0.226111,0.32572 0.124345,0.02395 0.23885,0.04971 0.254442,0.05722 0.0156,0.0076 0.179652,-0.04952 0.364569,-0.126792 z m -31.679388,9.451999 -0.32509,-0.335405 0.02897,-3.390879 c 0.02533,-2.965064 0.04914,-3.405614 0.189225,-3.508286 0.107848,-0.07902 0.572366,-0.107378 1.420507,-0.08672 l 1.260342,0.0307 0.06173,0.30845 c 0.03398,0.169649 0.06173,1.746365 0.06173,3.503803 v 3.195354 l -0.309192,0.309201 c -0.29803,0.298022 -0.340865,0.309194 -1.186171,0.309194 -0.862187,0 -0.882421,-0.0056 -1.202035,-0.335404 z m 0.386157,-0.769964 c 0,-0.110534 -0.06523,-0.200983 -0.144859,-0.200983 -0.177516,0 -0.291021,0.165374 -0.206897,0.301475 0.109214,0.176817 0.35171,0.107558 0.35171,-0.100492 z m 2.09113,0.02515 c -0.01866,-0.09671 -0.100415,-0.175862 -0.181839,-0.175862 -0.08145,0 -0.163227,0.0791 -0.181853,0.175862 -0.02381,0.123376 0.03049,0.175854 0.181853,0.175854 0.151382,0 0.205608,-0.05244 0.181839,-0.175854 z m -0.85354,-0.137368 c 0.612105,-0.313037 0.757859,-1.057354 0.311059,-1.588355 -0.210417,-0.250071 -0.336769,-0.309177 -0.660918,-0.309177 -1.001525,0 -1.359346,1.306629 -0.503273,1.837726 0.317338,0.196877 0.552828,0.213381 0.853132,0.05976 z m -0.870318,-0.473486 c -0.243863,-0.269471 -0.21395,-0.776345 0.05703,-0.966149 0.482066,-0.337656 1.083023,-0.06748 1.083023,0.48687 0,0.192501 -0.07676,0.399858 -0.183765,0.496746 -0.243924,0.22074 -0.749061,0.21151 -0.956292,-0.01743 z m -0.367272,-1.474288 c 0,-0.194491 -0.19728,-0.295125 -0.326061,-0.166338 -0.07645,0.07647 -0.07069,0.152118 0.02017,0.261458 0.141673,0.170698 0.305916,0.119621 0.305916,-0.09512 z m 2.060021,-0.05164 c 0,-0.215393 -0.291993,-0.184288 -0.334343,0.03564 -0.02579,0.134286 0.01517,0.175218 0.14941,0.149364 0.101779,-0.01957 0.184977,-0.102846 0.184977,-0.184981 z M 58.742932,16.221268 V 15.11589 h -0.502438 -0.502453 v 0.823541 c 0,0.756803 0.02184,0.846362 0.270028,1.105369 0.148498,0.155014 0.374614,0.281844 0.502438,0.281844 0.228815,0 0.232425,-0.01711 0.232425,-1.105376 z m 1.242414,0.840449 c 0.243999,-0.244 0.264916,-0.331283 0.264916,-1.105369 V 15.11589 h -0.502438 -0.502453 v 1.105378 c 0,1.095072 0.0015,1.105376 0.237537,1.105376 0.1306,0 0.35673,-0.119207 0.502438,-0.264927 z m -1.292105,-2.449171 c 0.125746,-0.203495 -0.05961,-0.501544 -0.311953,-0.501544 -0.263323,0 -0.400841,0.203588 -0.305432,0.452199 0.06492,0.169266 0.520747,0.205697 0.617385,0.04934 z m 1.20531,-0.200079 c 0,-0.292533 -0.345337,-0.40056 -0.538082,-0.16832 -0.187694,0.226136 -0.02958,0.485368 0.274577,0.450101 0.205941,-0.02387 0.263505,-0.08544 0.263505,-0.281781 z m -20.047531,6.53907 c 0,-0.161046 0.519201,-0.509739 0.758997,-0.509739 0.381864,0 0.547366,0.109595 0.547366,0.362466 0,0.228969 -0.03125,0.240468 -0.65318,0.240468 -0.359249,0 -0.653183,-0.04193 -0.653183,-0.09319 z m 16.681148,-2.453694 c 0,-2.1366 0.02397,-2.578042 0.140004,-2.578042 0.0769,0 0.16743,0.07153 0.200967,0.158954 0.03352,0.08742 0.06098,1.165692 0.06098,2.396155 0,2.109593 -0.01214,2.247586 -0.20098,2.419089 -0.200482,0.181432 -0.200982,0.17552 -0.200982,-2.396156 z m 4.388022,2.379405 c -0.03685,-0.03684 -0.06704,-1.091634 -0.06704,-2.343964 0,-2.250173 0.003,-2.27955 0.232577,-2.495478 0.195854,-0.183994 0.350541,-0.218417 0.979772,-0.218051 l 0.747195,2.87e-4 0.03428,2.154383 c 0.01896,1.184909 0.0045,2.292609 -0.03307,2.461532 -0.05885,0.268254 -0.110273,0.307156 -0.405254,0.307156 -0.185782,0 -0.36574,0.0452 -0.399898,0.100492 -0.06886,0.111369 -0.982656,0.139474 -1.088637,0.0335 z M 41.01474,19.551475 c -0.668805,-0.392569 -0.918234,-1.141629 -0.608708,-1.828042 0.60534,-1.342374 2.658839,-0.923483 2.660251,0.542666 0.0011,1.09831 -1.145929,1.816958 -2.051543,1.285376 z m 29.535625,-0.353443 c -0.976677,-0.500342 -1.003996,-0.52368 -0.973219,-0.831489 0.11437,-1.144033 -0.912395,-2.245765 -2.092937,-2.245765 h -0.51169 l 0.03033,-0.523886 c 0.02882,-0.495853 0.04702,-0.527268 0.340621,-0.586903 0.546502,-0.111003 0.54391,-0.102782 0.54391,-1.718839 V 11.77974 L 67.234197,10.578873 C 66.646391,9.4981857 66.58103,9.3204857 66.58103,8.8032427 c 0,-0.551125 0.03671,-0.632488 0.894133,-1.978411 0.491759,-0.772007 1.04125,-1.578877 1.221056,-1.793045 0.30892,-0.367963 0.352347,-0.386826 0.789045,-0.3427 0.789956,0.07981 1.376517,0.514596 1.865486,1.382801 0.466504,0.828305 0.709184,0.997389 2.298999,1.601836 0.253905,0.09653 0.275671,0.140702 0.213587,0.43357 -0.03807,0.179344 -0.06948,0.348692 -0.07008,0.376327 -0.0076,0.42051 0.07418,0.654396 0.330321,0.946067 l 0.307419,0.35013 -0.433028,0.218452 C 73.759809,10.11842 73.315723,10.45276 73.011112,10.741251 l -0.553829,0.524525 -0.903248,0.06961 c -1.817767,0.14008 -1.817008,0.139853 -2.01406,0.576854 -0.154141,0.341825 -0.167581,0.581648 -0.107392,1.916312 0.0411,0.910787 0.115886,1.5823 0.185631,1.666313 0.09541,0.114878 0.394801,0.128453 1.629783,0.07392 0.832138,-0.03677 1.582671,-0.08592 1.667842,-0.109245 0.106483,-0.0292 0.239902,0.130936 0.427096,0.51262 0.231697,0.472436 0.272212,0.683366 0.272212,1.41761 0,0.972499 0.13409,0.772979 -1.224529,1.821032 -0.376146,0.290159 -0.718027,0.521817 -0.759709,0.514792 -0.04171,-0.0071 -0.527983,-0.24443 -1.080688,-0.527564 z m 1.746339,-0.80099 0.3395,-0.352926 -0.472255,-0.333621 c -0.857894,-0.606046 -1.222268,-0.560101 -1.468224,0.185132 -0.133634,0.405117 -0.07038,0.634031 0.178092,0.644224 0.09844,0.004 0.314669,0.08844 0.480474,0.187583 0.348039,0.208073 0.463349,0.16765 0.942413,-0.330392 z m 0.615154,-1.359569 c 0,-0.815614 -0.08889,-0.926092 -0.680743,-0.846703 -0.422561,0.05666 -0.424639,0.05904 -0.424639,0.478006 0,0.390905 0.03413,0.443702 0.47732,0.737467 0.262534,0.174023 0.511236,0.317746 0.55269,0.319378 0.04141,0.0016 0.07538,-0.308032 0.07538,-0.688148 z m -2.431828,0.47004 c 0.303641,-0.303623 -0.03746,-0.786944 -0.581966,-0.824637 -0.446968,-0.03096 -0.466565,0.09389 -0.08449,0.538528 0.362206,0.421534 0.480323,0.472237 0.666454,0.286109 z m -1.28625,-6.675681 c 0,-0.179613 0.04521,-0.354521 0.100414,-0.38868 0.05522,-0.03416 0.100415,-0.353366 0.100415,-0.7093523 v -0.647247 h -0.72062 c -0.751109,0 -1.085769,0.151289 -1.090305,0.492896 -0.0012,0.08816 0.168415,0.5298213 0.376828,0.9814813 0.338909,0.734397 0.410821,0.824863 0.68044,0.855868 0.371672,0.04275 0.552691,-0.148847 0.552691,-0.584966 z m 3.185728,-0.157171 c 0.455052,-0.441058 0.431117,-0.7239693 -0.111032,-1.3117643 -0.498207,-0.540181 -0.670474,-0.584006 -0.902657,-0.229634 -0.227603,0.34735 -0.205152,0.477562 0.139246,0.807446 0.209885,0.2010823 0.301456,0.3848673 0.301456,0.6049863 0,0.543391 0.118011,0.569961 0.573033,0.128962 z m 1.033803,-1.0646453 c 0.214876,-0.174007 0.216908,-0.192701 0.06143,-0.564959 -0.08843,-0.211753 -0.16086,-0.510334 -0.16086,-0.663512 0,-0.286514 -0.003,-0.288682 -1.482211,-0.874545 -0.08904,-0.03528 -0.125595,0.07944 -0.125595,0.394063 0,0.380129 0.06583,0.522305 0.458708,0.990518 0.490575,0.584659 0.821672,0.898394 0.948131,0.898394 0.04308,0 0.178229,-0.08098 0.300471,-0.179959 z m -2.265203,-0.642204 c 0.124683,-0.21104 0.191803,-0.526041 0.197521,-0.926694 0.0091,-0.596728 0.003,-0.609913 -0.343048,-0.780833 -0.449864,-0.222368 -0.988024,-0.229935 -1.223089,-0.0172 -0.147891,0.133907 -0.183764,0.318281 -0.183764,0.946428 0,1.090601 0.0046,1.098022 0.74275,1.098022 0.591053,0 0.629807,-0.0153 0.80963,-0.319723 z m -2.223294,-0.393908 c 0.201816,-0.09195 0.253449,-0.2068 0.304915,-0.678299 0.0587,-0.538074 0.04626,-0.581985 -0.239813,-0.843952 -0.498524,-0.45655 -0.716707,-0.379737 -1.191538,0.419526 -0.227375,0.382725 -0.4134,0.738972 -0.4134,0.791653 0,0.338836 1.024609,0.545826 1.539836,0.311072 z m 0.821641,-1.698107 c 0.07949,-0.128566 0.763138,-0.130114 1.098845,-0.0024 0.141825,0.05389 0.257772,0.07313 0.257772,0.04271 0,-0.03041 -0.197372,-0.360377 -0.43861,-0.73327 -0.538994,-0.833221 -1.027629,-1.131162 -1.426497,-0.86981 -0.207489,0.135953 -0.245167,0.240359 -0.245167,0.679411 0,0.394334 0.05249,0.574563 0.218486,0.751352 0.232274,0.247241 0.433346,0.296864 0.535171,0.132086 z M 66.704691,19.276211 c -0.887397,-0.699327 -0.797632,-1.885398 0.179851,-2.376493 0.882133,-0.443201 1.915283,0.08059 2.072732,1.050861 0.07781,0.479852 -0.274305,1.232549 -0.673204,1.438824 -0.467688,0.241843 -1.195028,0.189723 -1.579379,-0.113192 z M 37.91661,15.247585 c -0.09678,-0.0253 -0.175848,-0.11323 -0.175848,-0.195472 0,-0.120362 0.09313,-0.137062 0.477319,-0.08563 0.615914,0.08245 0.728553,0.120604 0.728553,0.246723 0,0.101796 -0.68461,0.124642 -1.030024,0.03438 z m 32.507994,-0.05634 c 0.03793,-0.114016 1.078064,-0.312179 1.167785,-0.222462 0.02094,0.02089 0.01061,0.107727 -0.02154,0.193011 -0.07706,0.200723 -1.212806,0.22991 -1.146231,0.02945 z M 37.584998,14.719317 c -0.0537,-0.05345 -0.08191,-0.650433 -0.06447,-1.362995 l 0.03095,-1.267894 0.823189,0.06953 c 0.452762,0.03824 0.830394,0.07503 0.839176,0.08176 0.0091,0.0067 -0.0091,0.588788 -0.03974,1.293464 l -0.05567,1.281235 h -0.718966 c -0.395411,0 -0.761895,-0.04279 -0.814408,-0.09511 z m 32.577724,-0.522571 c -0.0355,-0.33972 -0.06462,-0.921634 -0.06462,-1.29314 V 12.22814 l 0.778808,-0.05168 c 0.428324,-0.02842 0.793186,-0.03881 0.81078,-0.02307 0.01759,0.01573 0.0584,0.620903 0.09056,1.344827 l 0.05855,1.316225 h -0.80476 -0.804776 z m -26.267017,0.249657 c -0.09586,-0.03868 -0.125594,-0.655529 -0.125594,-2.604779 V 9.2875347 h 0.742918 c 0.584727,0 0.755886,0.03384 0.803895,0.158952 0.03352,0.08742 0.06098,1.2356953 0.06098,2.5517153 0,2.089185 -0.02018,2.400498 -0.15895,2.453755 -0.186966,0.07175 -1.141605,0.06774 -1.323247,-0.0057 z m -5.980324,-2.515175 c -0.360963,-0.09417 -0.04323,-0.231963 0.534731,-0.231963 0.57191,0 0.774665,0.111305 0.438064,0.240473 -0.176151,0.06759 -0.698551,0.06303 -0.972795,-0.0085 z m 32.383766,-0.08123 c 0,-0.113885 0.122864,-0.150727 0.502453,-0.150727 0.276338,0 0.536355,-0.008 0.57781,-0.01797 0.04141,-0.0099 0.08995,0.05795 0.107847,0.150728 0.0276,0.142992 -0.06052,0.16871 -0.577795,0.16871 -0.475514,0 -0.610315,-0.0333 -0.610315,-0.150727 z M 33.539175,9.0826427 c -0.459936,-0.428503 -0.112701,-1.303931 0.515907,-1.300902 0.396821,0.002 0.519458,0.07803 0.706454,0.438451 0.174163,0.335726 0.05643,0.810094 -0.240374,0.968977 -0.300562,0.160854 -0.746968,0.112427 -0.981987,-0.106528 z m 41.058211,0.02904 c -0.254283,-0.289582 -0.300288,-0.59626 -0.136819,-0.912324 0.254601,-0.492336 0.819564,-0.572262 1.219342,-0.1725 0.301427,0.301433 0.314655,0.644669 0.03838,0.995905 -0.253508,0.32229 -0.872806,0.37142 -1.120869,0.08892 z M 43.770095,6.7870297 v -2.299523 l 0.226101,-0.0606 c 0.354136,-0.09491 0.973645,-0.07368 1.187337,0.04068 0.183311,0.09811 0.194368,0.232445 0.194368,2.361486 v 2.257463 h -0.803896 -0.80391 z"
       id="path845" />
  </g>
</svg>
