<?xml version="1.0" encoding="UTF-8" standalone="no"?>
<!-- Generator: Adobe Illustrator 22.1.0, SVG Export Plug-In . SVG Version: 6.00 Build 0)  -->

<svg
   version="1.1"
   id="draw_on_this_one"
   x="0px"
   y="0px"
   viewBox="0 0 512 512"
   xml:space="preserve"
   sodipodi:docname="Body_Shield.svg"
   width="512"
   height="512"
   inkscape:version="1.1 (c68e22c387, 2021-05-23)"
   xmlns:inkscape="http://www.inkscape.org/namespaces/inkscape"
   xmlns:sodipodi="http://sodipodi.sourceforge.net/DTD/sodipodi-0.dtd"
   xmlns="http://www.w3.org/2000/svg"
   xmlns:svg="http://www.w3.org/2000/svg"><defs
   id="defs21" /><sodipodi:namedview
   id="namedview19"
   pagecolor="#ffffff"
   bordercolor="#666666"
   borderopacity="1.0"
   inkscape:pageshadow="2"
   inkscape:pageopacity="0.0"
   inkscape:pagecheckerboard="0"
   showgrid="false"
   inkscape:zoom="0.21621622"
   inkscape:cx="-598.9375"
   inkscape:cy="649.8125"
   inkscape:window-width="1366"
   inkscape:window-height="697"
   inkscape:window-x="-8"
   inkscape:window-y="-8"
   inkscape:window-maximized="1"
   inkscape:current-layer="draw_on_this_one" />
<style
   type="text/css"
   id="style2">
	.st0{fill:#241C1C;}
</style>


<g
   id="g14">
	
	
	
</g>
<g
   id="g942"
   style="fill:#273839;fill-opacity:1"
   transform="matrix(13.484388,0,0,13.484389,6.4714009,6.4713807)"><path
     class="st0"
     d="M 9.27,10.14 9.81,9.6 V 7.08 L 8.3,4.77 c 0,0 -0.26,-0.31 -0.56,-0.31 -0.3,0 -2.94,1.04 -4.31,2.02 -1.37,0.98 -3.02,3.81 -3.02,4.12 0,0.31 1.35,1.66 2.24,1.66 0.89,0 6.62,-2.12 6.62,-2.12 z"
     id="path4"
     style="fill:#273839;fill-opacity:1" /><path
     class="st0"
     d="M 27.73,10.14 27.19,9.6 V 7.08 l 1.52,-2.31 c 0,0 0.26,-0.31 0.56,-0.31 0.3,0 2.94,1.04 4.31,2.02 1.37,0.98 3.02,3.81 3.02,4.12 0,0.31 -1.35,1.66 -2.24,1.66 -0.9,0 -6.63,-2.12 -6.63,-2.12 z"
     id="path6"
     style="fill:#273839;fill-opacity:1" /><path
     class="st0"
     d="m 18.5,23.06 3.65,1.81 c 0.23,-0.63 0.68,-1.62 0.68,-2.31 v -0.22 c 0,0 -3.36,-1.88 -4.33,-1.88 -0.97,0 -4.33,1.88 -4.33,1.88 v 0.22 c 0,0.69 0.45,1.68 0.68,2.31 z"
     id="path8"
     style="fill:#273839;fill-opacity:1" /><path
     class="st0"
     d="m 18.5,23.67 -3.52,1.74 c 0,0.42 0,1.79 0,2.48 l 3.52,-1.75 3.52,1.75 c 0,-0.69 0,-2.05 0,-2.48 z"
     id="path10"
     style="fill:#273839;fill-opacity:1" /><path
     class="st0"
     d="m 18.5,26.76 -3.61,1.79 c -0.25,0.86 -0.94,2.35 -0.94,2.35 0,0 0.44,0 1.01,0 0.57,0 3.54,-1.61 3.54,-1.61 0,0 2.97,1.61 3.54,1.61 0.57,0 1.01,0 1.01,0 0,0 -0.69,-1.49 -0.94,-2.35 z"
     id="path12"
     style="fill:#273839;fill-opacity:1" /><path
     class="st0"
     d="m 28.89,17.7 c 0,-0.93 -0.38,-2.94 -1,-3.56 -0.62,-0.62 -0.79,-2.08 -0.79,-2.55 0,-0.46 0,-0.98 0,-0.98 L 26.27,9.78 V 7.05 l 0.89,-1.43 c 0,0 -2.98,-1.56 -3.68,-1.56 -0.71,0 -0.57,0.05 -0.77,0.26 -0.2,0.21 -0.53,2.75 -2.37,2.75 -1.84,0 -1.84,0 -1.84,0 0,0 0,0 -1.84,0 -1.84,0 -2.17,-2.55 -2.37,-2.75 -0.21,-0.21 -0.07,-0.26 -0.77,-0.26 -0.71,0 -3.68,1.56 -3.68,1.56 l 0.89,1.43 V 9.79 L 9.9,10.62 c 0,0 0,0.52 0,0.98 0,0.46 -0.17,1.93 -0.79,2.55 -0.62,0.62 -1,2.63 -1,3.56 0,0.93 2.6,10.27 2.6,11.39 0,1.11 -0.32,2.15 -0.32,2.15 v 1.7 h 8.12 8.12 v -1.7 c 0,0 -0.32,-1.04 -0.32,-2.15 -0.02,-1.12 2.58,-10.47 2.58,-11.4 z m -9.41,-5.34 1.01,-3.67 h 2.23 v 6.68 l -4.22,3.09 -0.93,-0.68 3.94,-5.98 z m -5.2,-3.67 h 2.46 l -0.53,6.15 1.48,-0.49 -0.55,3.12 -2.86,-2.1 z m 7.64,22.64 c -0.71,0 -2.19,-1.03 -3.42,-1.03 -1.23,0 -2.72,1.03 -3.42,1.03 -0.71,0 -3.94,0 -3.94,0 0.31,-0.31 0.34,-2.25 0.34,-2.25 0,-2.58 -1.41,-5.87 -1.41,-7.68 0,-1.81 2.18,-3.83 2.18,-3.83 0.38,0.38 2.46,1.35 3.45,1.35 0.99,0 2.8,-0.12 2.8,-0.12 0,0 1.82,0.12 2.8,0.12 0.98,0 3.06,-0.97 3.45,-1.35 0,0 2.18,2.02 2.18,3.83 0,1.81 -1.41,5.1 -1.41,7.68 0,0 0.03,1.94 0.34,2.25 0,0 -3.23,0 -3.94,0 z"
     id="path16"
     style="fill:#273839;fill-opacity:1" /></g>
</svg>
