<?xml version="1.0" encoding="UTF-8" standalone="no"?>
<svg
   xmlns:dc="http://purl.org/dc/elements/1.1/"
   xmlns:cc="http://creativecommons.org/ns#"
   xmlns:rdf="http://www.w3.org/1999/02/22-rdf-syntax-ns#"
   xmlns:svg="http://www.w3.org/2000/svg"
   xmlns="http://www.w3.org/2000/svg"
   xmlns:sodipodi="http://sodipodi.sourceforge.net/DTD/sodipodi-0.dtd"
   xmlns:inkscape="http://www.inkscape.org/namespaces/inkscape"
   width="512"
   height="512"
   viewBox="0 0 135.46666 135.46667"
   version="1.1"
   id="svg8"
   inkscape:version="1.0.1 (3bc2e813f5, 2020-09-07)"
   sodipodi:docname="Boosted Loader.svg">
  <defs
     id="defs2" />
  <sodipodi:namedview
     id="base"
     pagecolor="#ffffff"
     bordercolor="#666666"
     borderopacity="1.0"
     inkscape:pageopacity="0.0"
     inkscape:pageshadow="2"
     inkscape:zoom="0.35"
     inkscape:cx="-132.78626"
     inkscape:cy="233.76583"
     inkscape:document-units="mm"
     inkscape:current-layer="layer1"
     inkscape:document-rotation="0"
     showgrid="false"
     units="px"
     inkscape:window-width="1366"
     inkscape:window-height="705"
     inkscape:window-x="-8"
     inkscape:window-y="-8"
     inkscape:window-maximized="1" />
  <metadata
     id="metadata5">
    <rdf:RDF>
      <cc:Work
         rdf:about="">
        <dc:format>image/svg+xml</dc:format>
        <dc:type
           rdf:resource="http://purl.org/dc/dcmitype/StillImage" />
        <dc:title></dc:title>
      </cc:Work>
    </rdf:RDF>
  </metadata>
  <g
     inkscape:label="Layer 1"
     inkscape:groupmode="layer"
     id="layer1">
    <g
       id="g1102"
       transform="matrix(8.9304653,0,0,8.9304653,-761.48449,-1039.2878)">
      <g
         id="g1069"
         transform="matrix(0.99999746,0,0,0.99999746,2.1288308e-4,2.9645029e-4)">
        <g
           id="g1029"
           style="fill:#273839;fill-opacity:1"
           transform="matrix(0.39719881,0,0,0.39719881,85.623706,116.73107)">
          <path
             class="cls-1"
             d="M 30.8,2.3 H 6.2 L 2.3,6.2 v 24.6 l 3.9,3.9 h 24.6 l 3.9,-3.9 V 6.2 Z M 32.2,30 30.1,32.1 H 6.9 L 4.8,30 V 7.2 C 5.6,6.3 6.1,5.9 6.9,5 h 18.3 l 7,7 z"
             id="path8"
             style="fill:#273839;fill-opacity:1"
             transform="translate(-0.3,-0.3)" />
          <path
             class="cls-1"
             d="M 7.2,2 V 1.1 A 0.86,0.86 0 0 1 8,0.3 h 2.4 a 0.86,0.86 0 0 1 0.8,0.8 V 2 Z"
             transform="translate(-0.3,-0.3)"
             id="path10"
             style="fill:#273839;fill-opacity:1" />
          <path
             class="cls-1"
             d="M 11.8,2 V 1.1 A 0.86,0.86 0 0 1 12.6,0.3 H 15 a 0.86,0.86 0 0 1 0.8,0.8 V 2 Z"
             transform="translate(-0.3,-0.3)"
             id="path12"
             style="fill:#273839;fill-opacity:1" />
          <path
             class="cls-1"
             d="M 16.5,2 V 1.1 a 0.86,0.86 0 0 1 0.8,-0.8 h 2.4 a 0.86,0.86 0 0 1 0.8,0.8 V 2 Z"
             transform="translate(-0.3,-0.3)"
             id="path14"
             style="fill:#273839;fill-opacity:1" />
          <path
             class="cls-1"
             d="M 25.7,2 V 1.1 a 0.86,0.86 0 0 1 0.8,-0.8 h 2.4 a 0.86,0.86 0 0 1 0.8,0.8 V 2 Z"
             transform="translate(-0.3,-0.3)"
             id="path16"
             style="fill:#273839;fill-opacity:1" />
          <path
             class="cls-1"
             d="M 21.1,2 V 1.1 a 0.86,0.86 0 0 1 0.8,-0.8 h 2.4 a 0.86,0.86 0 0 1 0.8,0.8 V 2 Z"
             transform="translate(-0.3,-0.3)"
             id="path18"
             style="fill:#273839;fill-opacity:1" />
          <path
             class="cls-1"
             d="m 7.1,35 v 0.9 a 0.86,0.86 0 0 0 0.8,0.8 h 2.4 a 0.86,0.86 0 0 0 0.8,-0.8 V 35 Z"
             transform="translate(-0.3,-0.3)"
             id="path20"
             style="fill:#273839;fill-opacity:1" />
          <path
             class="cls-1"
             d="m 11.8,35 v 0.9 a 0.86,0.86 0 0 0 0.8,0.8 H 15 a 0.86,0.86 0 0 0 0.8,-0.8 V 35 Z"
             transform="translate(-0.3,-0.3)"
             id="path22"
             style="fill:#273839;fill-opacity:1" />
          <path
             class="cls-1"
             d="m 16.4,35 v 0.9 a 0.86,0.86 0 0 0 0.8,0.8 h 2.4 a 0.86,0.86 0 0 0 0.8,-0.8 V 35 Z"
             transform="translate(-0.3,-0.3)"
             id="path24"
             style="fill:#273839;fill-opacity:1" />
          <path
             class="cls-1"
             d="m 25.7,35 v 0.9 a 0.86,0.86 0 0 0 0.8,0.8 h 2.4 a 0.86,0.86 0 0 0 0.8,-0.8 V 35 Z"
             transform="translate(-0.3,-0.3)"
             id="path26"
             style="fill:#273839;fill-opacity:1" />
          <path
             class="cls-1"
             d="m 21,35 v 0.9 a 0.86,0.86 0 0 0 0.8,0.8 h 2.4 A 0.86,0.86 0 0 0 25,35.9 V 35 Z"
             transform="translate(-0.3,-0.3)"
             id="path28"
             style="fill:#273839;fill-opacity:1" />
          <path
             class="cls-1"
             d="M 2,29.7 H 1.1 A 0.86,0.86 0 0 1 0.3,28.9 V 26.5 A 0.86,0.86 0 0 1 1.1,25.7 H 2 Z"
             transform="translate(-0.3,-0.3)"
             id="path30"
             style="fill:#273839;fill-opacity:1" />
          <path
             class="cls-1"
             d="M 2,25.1 H 1.1 A 0.86,0.86 0 0 1 0.3,24.3 V 21.9 A 0.86,0.86 0 0 1 1.1,21.1 H 2 Z"
             transform="translate(-0.3,-0.3)"
             id="path32"
             style="fill:#273839;fill-opacity:1" />
          <path
             class="cls-1"
             d="M 2,20.5 H 1.1 A 0.86,0.86 0 0 1 0.3,19.7 V 17.3 A 0.86,0.86 0 0 1 1.1,16.5 H 2 Z"
             transform="translate(-0.3,-0.3)"
             id="path34"
             style="fill:#273839;fill-opacity:1" />
          <path
             class="cls-1"
             d="M 2,11.2 H 1.1 A 0.86,0.86 0 0 1 0.3,10.4 V 8 A 0.86,0.86 0 0 1 1.1,7.2 H 2 Z"
             transform="translate(-0.3,-0.3)"
             id="path36"
             style="fill:#273839;fill-opacity:1" />
          <path
             class="cls-1"
             d="M 2,15.9 H 1.1 A 0.86,0.86 0 0 1 0.3,15.1 V 12.7 A 0.86,0.86 0 0 1 1.1,11.9 H 2 Z"
             transform="translate(-0.3,-0.3)"
             id="path38"
             style="fill:#273839;fill-opacity:1" />
          <path
             class="cls-1"
             d="m 35,29.8 h 0.9 A 0.86,0.86 0 0 0 36.7,29 V 26.6 A 0.86,0.86 0 0 0 35.9,25.8 H 35 Z"
             transform="translate(-0.3,-0.3)"
             id="path40"
             style="fill:#273839;fill-opacity:1" />
          <path
             class="cls-1"
             d="m 35,25.2 h 0.9 a 0.86,0.86 0 0 0 0.8,-0.8 V 22 A 0.86,0.86 0 0 0 35.9,21.2 H 35 Z"
             transform="translate(-0.3,-0.3)"
             id="path42"
             style="fill:#273839;fill-opacity:1" />
          <path
             class="cls-1"
             d="m 35,20.6 h 0.9 a 0.86,0.86 0 0 0 0.8,-0.8 V 17.4 A 0.86,0.86 0 0 0 35.9,16.6 H 35 Z"
             transform="translate(-0.3,-0.3)"
             id="path44"
             style="fill:#273839;fill-opacity:1" />
          <path
             class="cls-1"
             d="m 35,11.3 h 0.9 a 0.86,0.86 0 0 0 0.8,-0.8 V 8.1 A 0.86,0.86 0 0 0 35.9,7.3 H 35 Z"
             transform="translate(-0.3,-0.3)"
             id="path46"
             style="fill:#273839;fill-opacity:1" />
          <path
             class="cls-1"
             d="m 35,15.9 h 0.9 a 0.86,0.86 0 0 0 0.8,-0.8 V 12.7 A 0.86,0.86 0 0 0 35.9,11.9 H 35 Z"
             transform="translate(-0.3,-0.3)"
             id="path48"
             style="fill:#273839;fill-opacity:1" />
        </g>
        <path
           style="fill:#273839;fill-opacity:1;stroke:#273839;stroke-width:0.264583px;stroke-linecap:butt;stroke-linejoin:miter;stroke-opacity:1"
           d="m 90.466,125.72402 v 1.08696 c -0.598177,0.0322 -1.125815,-0.0998 -1.53529,-0.50787 0.372693,-0.43147 0.945962,-0.519 1.53529,-0.57909 z"
           id="path995"
           sodipodi:nodetypes="cccc" />
        <path
           style="fill:none;stroke:#273839;stroke-width:0.264583px;stroke-linecap:butt;stroke-linejoin:miter;stroke-opacity:1"
           d="m 90.383988,123.4257 v 1.08707 c -0.598177,0.0322 -1.125815,-0.0999 -1.53529,-0.50794 0.372693,-0.43147 0.945962,-0.51904 1.53529,-0.57913 z"
           id="path995-8"
           sodipodi:nodetypes="cccc" />
        <path
           style="fill:none;stroke:#273839;stroke-width:0.264583px;stroke-linecap:butt;stroke-linejoin:miter;stroke-opacity:1"
           d="m 90.360313,121.2051 5e-5,1.08695 c -0.598177,0.0322 -1.125815,-0.0998 -1.53529,-0.50784 0.372693,-0.43147 0.945912,-0.51902 1.53524,-0.57911 z"
           id="path995-6"
           sodipodi:nodetypes="cccc" />
        <path
           style="fill:#273839;fill-opacity:1;stroke:#273839;stroke-width:0.264583px;stroke-linecap:butt;stroke-linejoin:miter;stroke-opacity:1"
           d="m 90.95516,125.72402 v 1.08696 l 0.703857,0.19202 H 94.664 v -1.47 h -3.004983 z"
           id="path1018"
           sodipodi:nodetypes="ccccccc" />
        <path
           style="fill:none;stroke:#273839;stroke-width:0.264583px;stroke-linecap:butt;stroke-linejoin:miter;stroke-opacity:1"
           d="m 90.915084,123.4257 v 1.08707 l 0.743933,0.0894 3.153948,-0.0118 L 95.971,123.268 h -4.311983 z"
           id="path1020"
           sodipodi:nodetypes="ccccccc" />
        <path
           style="fill:none;stroke:#273839;stroke-width:0.264583px;stroke-linecap:butt;stroke-linejoin:miter;stroke-opacity:1"
           d="m 90.974168,121.2051 -0.01182,1.08695 0.696673,0.12497 h 4.311514 l 4.69e-4,-1.394 h -4.311987 z"
           id="path1022"
           sodipodi:nodetypes="ccccccc" />
      </g>
      <path
         style="fill:#273839;fill-opacity:1;stroke:none;stroke-width:0.264583px;stroke-linecap:butt;stroke-linejoin:miter;stroke-opacity:1"
         d="m 96.175,126.794 -1.052,1.036 v -1.03567 l 1.052,-1.06072 1.044,1.01061 V 127.83 Z"
         id="path1024"
         sodipodi:nodetypes="ccccccc" />
      <path
         style="fill:#273839;fill-opacity:1;stroke:none;stroke-width:0.264583px;stroke-linecap:butt;stroke-linejoin:miter;stroke-opacity:1"
         d="m 96.187621,125.21223 -1.052,1.036 v -1.03567 l 1.052,-1.06072 1.044,1.01061 v 1.08578 z"
         id="path1024-0"
         sodipodi:nodetypes="ccccccc" />
    </g>
  </g>
</svg>
