<?xml version="1.0" encoding="UTF-8" standalone="no"?>
<svg
   xmlns:dc="http://purl.org/dc/elements/1.1/"
   xmlns:cc="http://creativecommons.org/ns#"
   xmlns:rdf="http://www.w3.org/1999/02/22-rdf-syntax-ns#"
   xmlns:svg="http://www.w3.org/2000/svg"
   xmlns="http://www.w3.org/2000/svg"
   xmlns:sodipodi="http://sodipodi.sourceforge.net/DTD/sodipodi-0.dtd"
   xmlns:inkscape="http://www.inkscape.org/namespaces/inkscape"
   width="277.88199"
   height="128"
   viewBox="0 0 73.522938 33.866667"
   version="1.1"
   id="svg8"
   inkscape:version="1.0.1 (3bc2e813f5, 2020-09-07)"
   sodipodi:docname="Charge Rifle Icon.svg">
  <defs
     id="defs2" />
  <sodipodi:namedview
     id="base"
     pagecolor="#ffffff"
     bordercolor="#666666"
     borderopacity="1.0"
     inkscape:pageopacity="0.0"
     inkscape:pageshadow="2"
     inkscape:zoom="0.98994949"
     inkscape:cx="129.09785"
     inkscape:cy="21.572652"
     inkscape:document-units="mm"
     inkscape:current-layer="layer1"
     inkscape:document-rotation="0"
     showgrid="false"
     units="px"
     inkscape:window-width="1366"
     inkscape:window-height="705"
     inkscape:window-x="-8"
     inkscape:window-y="-8"
     inkscape:window-maximized="1" />
  <metadata
     id="metadata5">
    <rdf:RDF>
      <cc:Work
         rdf:about="">
        <dc:format>image/svg+xml</dc:format>
        <dc:type
           rdf:resource="http://purl.org/dc/dcmitype/StillImage" />
        <dc:title></dc:title>
      </cc:Work>
    </rdf:RDF>
  </metadata>
  <g
     inkscape:label="Layer 1"
     inkscape:groupmode="layer"
     id="layer1">
    <path
       style="fill:#273839;fill-opacity:1;stroke-width:0.146715"
       d="m 22.023855,30.538528 c -0.05207,-0.08424 0.01158,-0.315317 0.141439,-0.513502 0.18616,-0.284115 0.361349,-0.360333 0.828235,-0.360333 0.357397,0 0.556189,-0.05816 0.501461,-0.146716 -0.128787,-0.208379 -1.50306,-0.185694 -1.573616,0.02598 -0.03287,0.09861 -0.137141,0.12351 -0.243074,0.05804 -0.263956,-0.163133 0.329945,-0.557339 0.75563,-0.501555 0.180116,0.0236 0.345156,-0.02134 0.366753,-0.09988 0.05708,-0.207556 -1.124624,-0.264533 -1.364116,-0.06577 -0.111541,0.09257 -0.278765,0.121364 -0.371608,0.06398 -0.254612,-0.157359 0.136581,-0.356149 0.706132,-0.358833 0.262253,-0.0011 0.476824,-0.0762 0.476824,-0.166594 0,-0.110202 -0.291077,-0.143293 -0.883487,-0.100442 -0.585343,0.04234 -0.866181,0.01116 -0.832206,-0.0924 0.0282,-0.08597 0.328243,-0.176684 0.666757,-0.201585 0.338513,-0.02491 0.577067,-0.107431 0.53012,-0.183394 -0.12332,-0.199536 -1.535191,-0.175106 -1.535191,0.02656 0,0.114839 -0.05551,0.118768 -0.183393,0.01299 -0.100867,-0.08343 -0.381144,-0.174045 -0.622841,-0.201357 -0.358261,-0.04049 -0.453382,-0.130976 -0.514868,-0.489805 -0.0673,-0.392785 -0.146312,-0.450814 -0.734271,-0.539306 -0.362367,-0.05454 -0.932378,-0.104054 -1.26669,-0.110036 -0.397291,-0.0071 -0.637093,-0.08711 -0.69229,-0.230946 -0.06725,-0.175245 -0.382222,-0.220072 -1.546315,-0.220072 -1.333011,0 -1.470074,0.02586 -1.554995,0.293429 -0.05918,0.186477 -0.221985,0.293429 -0.44665,0.293429 -0.434145,0 -0.737854,0.446621 -0.87245,1.282986 -0.162534,1.009964 -0.368119,0.878126 -0.368119,-0.236069 0,-0.888028 0.05057,-1.084499 0.379828,-1.475804 l 0.379829,-0.451402 h 3.77791 3.777909 l 2.444424,1.998489 c 2.132404,1.743387 2.444424,2.052391 2.444424,2.420791 v 0.422306 h -1.238416 c -0.70213,0 -1.279409,-0.06633 -1.333079,-0.153167 z m 2.837104,-0.339461 c -0.04095,-0.443005 -0.303438,-0.702031 -2.605729,-2.571368 l -2.560195,-2.078739 -3.749028,0.0126 c -3.29237,0.01108 -3.785485,0.04282 -4.048311,0.26061 -0.585237,0.484962 -0.727899,0.818806 -0.820608,1.920328 -0.06543,0.777395 -0.08241,0.50463 -0.05605,-0.900379 0.02533,-1.350362 0.09856,-2.088827 0.221865,-2.237399 0.272642,-0.328513 0.893044,-0.283418 0.985901,0.07166 0.07129,0.272601 0.200121,0.293429 1.815037,0.293429 1.588146,0 1.751868,-0.02535 1.895341,-0.293429 0.138531,-0.258847 0.290438,-0.289993 1.288915,-0.264277 l 1.131878,0.02915 -1.063682,0.05064 c -0.759496,0.03615 -1.063681,0.106197 -1.063681,0.244934 0,0.142828 0.301217,0.199587 1.137038,0.214255 1.167319,0.02049 1.622335,-0.110967 1.434744,-0.414496 -0.08006,-0.129528 0.473626,-0.173047 2.218602,-0.174377 1.278905,-0.001 2.57286,-0.0033 2.87546,-0.0052 l 0.55018,-0.0034 v -6.000637 -6.000638 h 0.366787 0.366787 l 1.47e-4,6.858913 1.46e-4,6.858914 h -1.638172 c -1.008306,0 -1.65794,0.05894 -1.689584,0.153285 -0.02828,0.08431 0.706595,0.744523 1.633048,1.467146 l 1.68446,1.313864 0.005,0.843609 c 0.0053,0.901244 -0.240254,1.173708 -0.316301,0.350982 z m 0.614679,-9.190544 c 0,-9.318338 0.01021,-9.683171 0.271011,-9.683171 0.149055,0 0.337729,0.148548 0.419278,0.330107 0.110543,0.246112 0.154942,-0.154701 0.174491,-1.575204 0.01442,-1.0479222 0.07395,-1.9530382 0.132278,-2.0113692 0.05833,-0.05833 1.673602,-0.1252442 3.589488,-0.1486942 2.228189,-0.02728 3.470093,-0.0955 3.446419,-0.1893512 -0.02338,-0.09264 -1.319246,-0.1467142 -3.516263,-0.1467142 -4.168094,0 -3.953016,-0.09185 -4.013318,1.7138169 -0.02242,0.6712618 -0.04582,1.3360149 -0.052,1.4772279 -0.0066,0.150145 -0.126559,0.256751 -0.288973,0.256751 -0.290727,0 -0.455842,0.270062 -0.455842,0.745573 0,0.202383 -0.103023,0.281431 -0.366786,0.281431 -0.341845,0 -0.366788,-0.04939 -0.366788,-0.726284 0,-0.496042 -0.07042,-0.765693 -0.222138,-0.850599 C 24.104319,10.413672 23.889749,9.9034298 23.749672,9.3481772 23.609595,8.7929256 23.41305,8.312108 23.312905,8.279695 c -0.130594,-0.04227 -0.156545,0.06876 -0.09177,0.3926364 0.108279,0.5413926 -0.135304,0.892442 -0.619237,0.892442 -0.501581,0 -0.733307,-0.5072735 -0.437769,-0.958322 0.126775,-0.1934823 0.230499,-0.3871195 0.230499,-0.4303055 0,-0.04319 -2.145702,-0.07852 -4.768228,-0.07852 -2.622526,0 -4.768229,-0.04259 -4.768229,-0.09465 0,-0.05206 0.18156,-0.3820484 0.403466,-0.7333108 l 0.403465,-0.6386587 10.30671,-2.65e-4 c 5.66869,-1.44e-4 10.356225,-0.0024 10.416745,-0.0049 0.232341,-0.0096 0.205018,0.7996169 -0.03287,0.9735651 -0.275086,0.2011473 -0.07611,0.3981125 0.268567,0.2658483 0.138649,-0.0532 0.242633,-0.3123083 0.269991,-0.6727547 l 0.04449,-0.5862227 2.127364,-0.02462 c 1.245916,-0.01441 2.157758,-0.0854 2.200721,-0.1713302 C 39.33491,6.2741481 31.777377,6.196421 18.011899,6.191725 c -3.813811,-0.0013 -4.288368,-0.02678 -4.126727,-0.2215413 0.212676,-0.2562593 2.347435,-0.3229703 2.347435,-0.07336 0,0.1908232 0.542282,0.1908232 0.660217,0 0.118061,-0.1910262 0.806931,-0.1910262 0.806931,0 0,0.08069 0.132043,0.1467152 0.29343,0.1467152 0.161386,0 0.293428,-0.06602 0.293428,-0.1467152 0,-0.2160392 2.1026,-0.1861502 2.321755,0.033 0.141816,0.1418161 0.240413,0.1418161 0.467496,0 0.347033,-0.2167263 0.878617,-0.2366953 0.878617,-0.033 0,0.08069 0.128147,0.1467152 0.284772,0.1467152 0.156623,0 0.325574,-0.06602 0.375445,-0.1467152 0.128823,-0.2084402 1.927627,-0.1823132 2.272408,0.033 0.227083,0.1418161 0.32568,0.1418161 0.467496,0 0.215677,-0.2156783 0.854607,-0.2403533 0.854607,-0.033 0,0.1908232 0.542281,0.1908232 0.660217,0 0.131204,-0.2122952 2.030983,-0.1844082 2.248396,0.033 0.141817,0.1418161 0.240413,0.1418161 0.467497,0 0.367292,-0.2293793 0.770273,-0.2293793 0.99965,0 0.141816,0.1418161 0.240413,0.1418161 0.467497,0 0.344779,-0.2153193 2.143584,-0.2414453 2.272407,-0.033 0.124452,0.2013683 0.660217,0.1857902 0.660217,-0.0192 0,-0.1074741 0.179719,-0.1367471 0.510249,-0.08311 0.345358,0.05605 0.49945,0.02781 0.476823,-0.08735 -0.01839,-0.09359 0.122978,-0.1938542 0.31414,-0.2228132 0.222127,-0.03365 0.405052,-0.2049453 0.506841,-0.4746156 l 0.159272,-0.4219614 1.253737,0.0528 c 0.689555,0.02903 1.295905,0.05948 1.347445,0.06767 0.05154,0.0082 0.138064,0.2513143 0.192278,0.5402976 0.07199,0.3837394 0.221115,0.5914437 0.553017,0.7702519 0.992932,0.5349316 1.273445,0.916534 1.312383,1.785333 l 0.03616,0.8069299 -3.091151,0.03954 -3.091153,0.03954 -0.613998,1.3215061 -0.613998,1.321507 0.305264,0.428706 0.305266,0.428704 3.406471,0.04418 c 3.139324,0.04072 3.437139,0.06719 3.797553,0.337613 0.574664,0.431171 0.882064,1.018758 0.768885,1.469699 -0.06021,0.239919 0.003,0.601839 0.169586,0.971323 0.174364,0.386669 0.213345,0.622879 0.113507,0.68781 -0.08363,0.05439 -0.230287,0.247443 -0.325899,0.429002 -0.266734,0.506504 -0.456947,0.393909 -0.456947,-0.270486 0,-0.477206 -0.06028,-0.616359 -0.293429,-0.677328 -0.198952,-0.05203 -0.294075,-0.201132 -0.295432,-0.463086 -0.0048,-0.917916 -0.120244,-1.046571 -0.939412,-1.046571 -0.887245,0 -1.112591,0.17027 -1.112591,0.840666 v 0.488551 l -0.432459,-0.319731 c -0.41155,-0.304272 -0.450566,-0.307867 -0.806932,-0.07437 -0.20596,0.13495 -0.374471,0.323067 -0.374471,0.418038 0,0.437377 -0.278498,-0.16512 -0.320304,-0.692941 l -0.04648,-0.586858 -0.782162,-0.04476 c -0.941148,-0.05386 -1.198487,0.123145 -1.198487,0.824339 0,0.471214 -0.01948,0.49693 -0.194836,0.257126 -0.242664,-0.331864 -0.96915,-0.348788 -1.203687,-0.02804 -0.267275,0.365522 -0.341269,0.292511 -0.390297,-0.385127 l -0.04512,-0.623536 -0.802475,-0.04547 c -0.911421,-0.05163 -1.178174,0.154054 -1.178174,0.908478 0,0.401853 -0.01695,0.416963 -0.194836,0.17369 -0.275747,-0.377106 -0.966551,-0.3417 -1.273532,0.06528 -0.286774,0.380183 -0.395996,0.27269 -0.409617,-0.403127 -0.01362,-0.675896 -0.115342,-0.772209 -0.815554,-0.772209 -0.757189,0 -0.972897,0.192342 -0.978995,0.872951 -0.0039,0.437419 -0.03329,0.484134 -0.183393,0.291673 -0.290533,-0.37252 -0.655746,-0.437214 -0.942454,-0.166945 -0.243956,0.229968 -0.258798,0.500685 -0.190563,3.47536 0.07069,3.081704 0.08712,3.228237 0.36743,3.276779 0.161386,0.02795 0.378742,0.160784 0.483012,0.295189 0.145831,0.187979 0.495138,0.256291 1.513649,0.296018 1.243792,0.04851 1.328955,0.03295 1.404712,-0.256751 0.101327,-0.387478 0.406558,-0.392629 0.886677,-0.01496 0.309985,0.243834 0.59519,0.29343 1.687419,0.29343 1.190994,0 1.321584,-0.02754 1.391114,-0.29343 0.09465,-0.361929 0.418917,-0.381376 0.611585,-0.03668 0.118719,0.212396 0.400517,0.265517 1.63121,0.307492 1.408264,0.04803 1.491993,0.03432 1.568112,-0.256751 0.100412,-0.383975 0.265469,-0.387113 0.739727,-0.01407 0.304843,0.239791 0.595188,0.293429 1.588324,0.293429 1.440262,0 1.672935,-0.06652 1.572751,-0.449619 -0.06332,-0.242143 0.0038,-0.283955 0.456358,-0.283955 0.460889,0 0.530612,0.04583 0.530612,0.348824 0,0.388217 -0.303311,0.71076 -0.608093,0.646649 -0.140674,-0.02959 -0.211918,0.162029 -0.243555,0.655068 -0.03387,0.527836 0.0063,0.696896 0.165429,0.696896 0.11558,0 0.294316,0.101415 0.397188,0.225369 0.102871,0.123953 1.447893,1.191159 2.988936,2.371567 1.541045,1.18041 2.852134,2.217866 2.913534,2.305459 0.0614,0.08759 0.09441,0.423349 0.07336,0.746121 l -0.03828,0.58686 -1.564711,0.04151 c -1.449074,0.03851 -1.559572,0.02194 -1.495204,-0.224204 0.04992,-0.190877 -0.253372,-0.552738 -1.076152,-1.283994 -0.630111,-0.560015 -1.911828,-1.730013 -2.848261,-2.599993 l -1.702606,-1.581775 h -2.937623 c -2.45153,0 -2.968298,-0.03696 -3.123006,-0.223373 -0.257894,-0.310743 -5.352348,-0.25878 -5.352348,0.05459 0,0.158382 0.443178,0.193807 2.2145,0.177017 l 2.214498,-0.02099 0.529676,0.646397 0.529673,0.646398 -0.895083,0.09355 c -0.492294,0.05145 -1.274433,0.09355 -1.738085,0.09355 h -0.843004 l -2.03309,2.492442 c -1.118199,1.370843 -2.115618,2.493212 -2.216483,2.49415 -0.144881,0.0013 -0.183395,-2.031825 -0.183395,-9.681463 z M 33.219972,9.6748105 33.178162,8.1709849 h -2.274081 -2.274078 l -0.04275,1.3088204 c -0.02352,0.7198517 -0.0091,1.3965737 0.03207,1.5038257 0.05781,0.150641 0.594409,0.195006 2.358646,0.195006 h 2.283816 z m -4.369895,0.9987605 c 0,-0.144097 0.198988,-0.226034 0.623538,-0.256752 l 0.623538,-0.04512 0.07336,-0.7335734 0.07336,-0.7335738 1.357111,-0.04218 1.357111,-0.04218 v 1.0325091 1.0325081 h -2.054007 c -1.691584,0 -2.054006,-0.03734 -2.054006,-0.211636 z m 0,-1.3131718 c 0,-0.7199438 0.05394,-0.9586481 0.232072,-1.0270041 0.127639,-0.04898 1.051942,-0.08905 2.054006,-0.08905 1.563329,0 1.821934,0.03293 1.821934,0.2320022 0,0.1977252 -0.201371,0.2261423 -1.362916,0.1923342 -0.749605,-0.02182 -1.442832,0.0097 -1.540505,0.07009 -0.09767,0.06036 -0.177588,0.3958914 -0.177588,0.7456158 0,0.6547507 -0.14584,0.8139687 -0.745574,0.8139687 -0.248082,0 -0.281429,-0.11114 -0.281429,-0.9379488 z M 22.865163,8.6561904 c -0.240588,-0.2405893 -0.544707,0.06353 -0.411267,0.4112675 0.09177,0.2391462 0.11435,0.2398632 0.343302,0.01091 0.191417,-0.1914172 0.206298,-0.2838463 0.06797,-0.4221765 z M 36.837711,8.0649818 c 0.125614,-0.1793412 0.22839,-0.3774055 0.22839,-0.4401435 0,-0.1944363 -0.575517,-0.7009288 -0.796451,-0.7009288 -0.538602,0 -0.884052,0.901676 -0.494638,1.2910894 0.280122,0.2801223 0.814227,0.2047252 1.062699,-0.1500171 z M 35.945439,7.8775545 c -0.116226,-0.3028803 0.04136,-0.6602157 0.291162,-0.6602157 0.300313,0 0.555822,0.3646774 0.449548,0.6416207 -0.115017,0.2997294 -0.627887,0.3126054 -0.74071,0.01859 z m 3.145327,0.3374444 c 0.266876,-0.2668773 0.211072,-0.7737808 -0.117969,-1.0715572 -0.605988,-0.5484126 -1.492554,0.3580394 -0.943535,0.9646991 0.288955,0.3192924 0.797842,0.3705194 1.061504,0.1068581 z M 38.145744,7.8764685 c -0.05177,-0.1349151 0.0083,-0.3428263 0.135993,-0.4704965 0.311643,-0.3116433 0.724982,-0.1329941 0.665267,0.2875333 -0.05787,0.4074765 -0.662155,0.5454636 -0.80126,0.1829632 z M 48.244663,29.187869 c 0.03872,-0.535156 0.09616,-0.630741 0.405267,-0.674358 0.360931,-0.05093 2.637787,-0.814311 9.452497,-3.169219 l 3.650628,-1.261522 2.511388,0.04006 2.511393,0.04006 v 0.342492 0.342491 l -2.480808,-0.0016 c -2.411219,-0.0016 -2.511716,0.01068 -3.582786,0.43616 -0.606097,0.240764 -3.02189,1.164575 -5.368438,2.052911 -2.346544,0.888337 -4.679258,1.80886 -5.183805,2.045608 -0.504548,0.236749 -1.152054,0.430453 -1.438905,0.430453 h -0.521545 l 0.04512,-0.623539 z m -7.950837,0.167858 c 0,-0.109443 0.381996,-0.144901 1.173717,-0.108947 0.873116,0.03965 1.173719,0.0061 1.173719,-0.131181 0,-0.101463 -0.09458,-0.18448 -0.210186,-0.18448 -0.115603,0 -0.252094,-0.132043 -0.303316,-0.29343 -0.05122,-0.161386 -0.180014,-0.293429 -0.286205,-0.293429 -0.10619,0 -0.227603,-0.132043 -0.269808,-0.29343 -0.07034,-0.268981 -0.20012,-0.29343 -1.557615,-0.29343 -0.999454,0 -1.480883,-0.05368 -1.480883,-0.165112 0,-0.114367 0.378669,-0.145238 1.232076,-0.100445 0.977414,0.0513 1.216769,0.02478 1.158021,-0.128317 -0.05389,-0.140429 -0.446988,-0.192984 -1.443489,-0.192984 -0.843519,0 -1.408012,-0.06242 -1.469883,-0.162527 -0.07142,-0.115559 0.265274,-0.147358 1.165082,-0.110037 0.696038,0.02887 1.265516,0.01618 1.265505,-0.0282 -8e-5,-0.301971 -0.423092,-0.396174 -1.459877,-0.325112 -0.70536,0.04835 -1.243279,0.01653 -1.415991,-0.08376 -0.220574,-0.128079 -0.04197,-0.162653 0.85852,-0.166186 0.657243,-0.0026 1.137039,-0.06637 1.137039,-0.151177 0,-0.08679 -0.531966,-0.146715 -1.302469,-0.146715 -0.978763,0 -1.347859,-0.05469 -1.485111,-0.220072 -0.119514,-0.144005 -0.446423,-0.220072 -0.945784,-0.220072 -0.636781,0 -0.882733,-0.08502 -1.485393,-0.513502 l -0.722253,-0.513501 h 2.741898 2.741894 l 0.788046,0.696895 c 1.845289,1.631846 4.657473,4.191678 4.657473,4.239534 0,0.02853 -0.957314,0.05187 -2.127365,0.05187 -1.456223,0 -2.127362,-0.05119 -2.127362,-0.16225 z M 51.59086,29.235004 c 0.12104,-0.07035 2.514448,-0.992782 5.318685,-2.049836 l 5.098619,-1.921917 h 2.115082 c 1.163301,0 2.219524,0.04008 2.347162,0.08905 0.29804,0.11437 0.314698,1.126878 0.02253,1.369359 -0.115251,0.09565 -1.645349,0.666878 -3.400211,1.269396 -3.147071,1.080519 -3.21487,1.096404 -4.962151,1.162623 -4.575459,0.173405 -6.744532,0.200377 -6.53971,0.08132 z m -11.810536,-0.4506 c -0.05715,-0.09247 0.289019,-0.146715 0.936328,-0.146715 0.564853,0 1.067808,0.06602 1.117678,0.146715 0.05715,0.09247 -0.289019,0.146715 -0.936328,0.146715 -0.564853,0 -1.067808,-0.06602 -1.117678,-0.146715 z m -0.03668,-0.547021 c 0.302599,-0.03165 0.797761,-0.03165 1.100361,0 0.302598,0.03165 0.05501,0.05755 -0.550182,0.05755 -0.605198,0 -0.852779,-0.0259 -0.550179,-0.05755 z M 45.64891,26.42211 c -1.371783,-1.054645 -2.642699,-2.055441 -2.824258,-2.22399 -0.324571,-0.301311 -0.330109,-0.36525 -0.330109,-3.811352 v -3.504901 l 1.157857,0.03061 c 0.95262,0.02518 1.232185,-0.02139 1.577182,-0.262712 0.23063,-0.161325 0.600887,-0.337215 0.822792,-0.390866 0.221907,-0.05365 0.408968,-0.178818 0.415693,-0.278147 0.04427,-0.653994 0.11183,-0.883215 0.294355,-0.998761 0.113804,-0.07204 2.996332,-0.131999 6.405615,-0.133234 l 6.198698,-0.0023 v 2.171378 c 0,1.49323 0.05498,2.226362 0.176063,2.347435 0.127244,0.127245 1.161569,0.176058 3.730575,0.176058 h 3.55452 l 0.308057,0.39163 c 0.283697,0.360666 0.30484,0.548216 0.267397,2.37209 -0.02924,1.424079 -0.09218,1.997575 -0.22405,2.041389 -0.100867,0.03351 -0.183393,-0.03654 -0.183393,-0.155672 0,-0.347782 -0.332435,-0.39471 -2.796101,-0.39471 h -2.33196 l -4.074808,1.402969 c -2.241148,0.771611 -5.190804,1.794947 -6.554788,2.274077 -1.363985,0.479133 -2.618395,0.870111 -2.787579,0.868844 -0.169185,-0.0013 -1.429978,-0.865198 -2.80176,-1.919845 z m 6.31433,-0.351928 c 1.596339,-0.524505 3.07967,-0.953647 3.296293,-0.953647 0.74423,0 0.866476,-0.333042 0.911695,-2.483816 l 0.04113,-1.957085 1.10036,-0.383736 1.10036,-0.383735 0.0424,-1.371889 c 0.02737,-0.88542 -0.01805,-1.444682 -0.128002,-1.577182 -0.262414,-0.316191 -5.221368,-0.296016 -5.676964,0.02309 -0.407109,0.28515 -0.42198,0.849421 -0.03265,1.238756 0.161386,0.161386 0.29343,0.32644 0.29343,0.366786 0,0.04035 -0.586112,0.07336 -1.30247,0.07336 -0.978764,0 -1.347859,0.05469 -1.485111,0.220073 -0.118873,0.143235 -0.470914,0.226133 -1.008288,0.23743 -0.840815,0.01768 -1.977536,0.225603 -1.412505,0.258372 0.27008,0.01566 0.28963,0.103436 0.245672,1.103048 l -0.04775,1.086033 0.661051,0.454813 c 0.363577,0.250147 0.752767,0.454815 0.864868,0.454815 0.1121,0 0.557775,-0.264087 0.990387,-0.586859 0.432614,-0.322772 0.840667,-0.58686 0.906787,-0.58686 0.263558,0 0.0939,-0.381369 -0.390229,-0.877157 -0.280745,-0.287509 -0.553084,-0.735939 -0.605198,-0.996511 l -0.09475,-0.473766 1.595523,-4.58e-4 1.595522,-4.57e-4 1.134215,0.770741 1.134212,0.770742 0.02483,1.870614 c 0.01364,1.028838 0.03143,1.95314 0.03951,2.054006 0.0083,0.103324 -0.191033,0.203281 -0.456475,0.228944 -0.412261,0.03986 -0.496756,-0.01517 -0.675903,-0.440145 -0.112593,-0.267096 -0.79187,-1.020737 -1.509488,-1.674721 l -1.30476,-1.189068 -1.172111,0.785598 c -0.644661,0.43208 -1.252454,0.785599 -1.350655,0.785599 -0.23032,0 -1.698613,-0.862314 -1.839752,-1.080467 -0.05928,-0.09163 -0.1088,-0.680347 -0.110036,-1.308252 -0.0017,-0.863583 -0.05437,-1.161647 -0.216267,-1.223771 -0.332045,-0.127418 -1.172353,0.206546 -1.56166,0.62065 -0.333422,0.354659 -0.353854,0.485849 -0.393493,2.526571 -0.02299,1.18387 0.01002,2.225029 0.07336,2.313689 0.316016,0.442227 3.074822,2.259493 3.430305,2.259493 0.214603,0 1.696283,-0.429141 3.292623,-0.953646 z m -2.068917,-5.133063 c -0.05673,-0.302374 -0.299245,-0.773124 -0.538933,-1.046113 l -0.435795,-0.496345 h 0.50865 c 0.503609,0 0.510522,0.0088 0.697091,0.887958 0.134713,0.634796 0.143346,0.933046 0.03028,1.046112 -0.113065,0.113066 -0.18756,0.0015 -0.261292,-0.391612 z m -0.532829,-2.914376 0.04471,-0.682087 h -1.777471 -1.777472 l 0.04553,0.543986 c 0.04252,0.507902 0.08736,0.554132 0.675939,0.696895 0.34672,0.0841 1.105969,0.146244 1.68722,0.1381 l 1.056816,-0.01481 z m -3.01569,0.247749 c -0.100866,-0.0407 -0.183393,-0.200542 -0.183393,-0.355204 0,-0.25838 0.119072,-0.281203 1.467147,-0.281203 0.880288,0 1.467147,0.05869 1.467147,0.146714 0,0.08069 -0.256003,0.146715 -0.568895,0.146715 -0.326698,0 -0.646651,0.09369 -0.751538,0.220072 -0.17485,0.210683 -1.030697,0.284217 -1.430468,0.122906 z m -31.986436,8.753336 c -0.103595,-0.165884 -0.342143,-0.293431 -0.548794,-0.293431 -0.201049,0 -0.365543,-0.06602 -0.365543,-0.146714 0,-0.08652 0.521653,-0.146715 1.271528,-0.146715 0.699339,0 1.227481,0.04405 1.173646,0.09788 -0.05384,0.05383 -0.246399,0.114355 -0.427918,0.134489 -0.18152,0.02013 -0.375104,0.04211 -0.430186,0.04884 -0.05508,0.0067 -0.142058,0.144269 -0.19328,0.305656 -0.05123,0.161386 -0.138823,0.29343 -0.194668,0.29343 -0.05584,0 -0.183998,-0.132044 -0.284785,-0.29343 z m 53.562169,-1.503827 c -0.06529,-0.100866 -0.151705,-1.421408 -0.19205,-2.934534 -0.06915,-2.593286 -0.05798,-2.751129 0.194671,-2.750901 0.147424,1.31e-4 0.461025,-0.192747 0.696896,-0.428619 l 0.428863,-0.428857 v -2.701056 c 0,-1.485581 0.03351,-2.734592 0.07452,-2.775581 0.041,-0.04099 0.321582,-0.03447 0.623536,0.01448 l 0.549014,0.089 0.04157,1.749225 c 0.03184,1.340928 -0.01353,1.886847 -0.194339,2.338827 -0.172978,0.432323 -0.275602,1.491448 -0.384699,3.970396 -0.170059,3.864285 -0.220112,4.041008 -1.144478,4.041008 -0.316156,0 -0.628232,-0.08253 -0.693514,-0.183393 z M 33.347224,24.886337 c -0.574502,-0.720016 -0.427559,-0.765152 0.170783,-0.05246 0.266011,0.316847 0.43041,0.576084 0.365333,0.576082 -0.06507,-3e-6 -0.30633,-0.235633 -0.536116,-0.523625 z M 13.995211,24.707758 c -0.786757,-0.02309 -1.430468,-0.09939 -1.430468,-0.169546 0,-0.108485 2.921396,-0.04174 3.05409,0.06977 0.130515,0.109682 -0.327444,0.137825 -1.623622,0.09978 z m 8.422101,-0.706879 c -0.582435,-0.407953 -0.26563,-1.160539 0.446065,-1.059647 0.260149,0.03688 0.348624,0.155716 0.38343,0.515016 0.05863,0.605209 -0.35514,0.876883 -0.829495,0.544631 z m 0.558844,-0.271707 c 0.221895,-0.267368 0.07775,-0.519928 -0.296756,-0.519928 -0.178333,0 -0.284771,0.100536 -0.284771,0.268977 0,0.480421 0.287952,0.604684 0.581527,0.250951 z m -8.756446,0.105624 c 0.385727,-0.03032 0.979921,-0.02996 1.320432,8.85e-4 0.340512,0.03077 0.02492,0.05558 -0.701321,0.05513 -0.726238,-4.58e-4 -1.004838,-0.02562 -0.619111,-0.05594 z m 4.910516,0.0045 c 0.18156,-0.03497 0.478658,-0.03497 0.660216,0 0.18156,0.03497 0.03301,0.06358 -0.330108,0.06358 -0.363118,0 -0.511667,-0.02861 -0.330108,-0.06358 z m 1.68722,0.0024 c 0.141212,-0.0369 0.372288,-0.0369 0.513502,0 0.141212,0.0369 0.02567,0.0671 -0.256752,0.0671 -0.282426,0 -0.397963,-0.03019 -0.25675,-0.0671 z M 3.468405,23.495319 c 1.08e-4,-0.353023 0.500463,-0.43281 2.714247,-0.43281 1.505332,0 2.41996,-0.05785 2.521605,-0.159497 0.114855,-0.114856 0.18709,-0.114856 0.258074,0 0.06771,0.109556 1.590488,0.159497 4.863306,0.159497 5.291919,0 5.487983,-0.03205 5.487983,-0.897161 0,-0.350661 0.06128,-0.423271 0.357235,-0.423271 0.655487,0 1.118125,0.27725 1.337081,0.801286 0.431892,1.033665 1.155491,0.950664 -8.66329,0.993724 -4.881947,0.02141 -8.876255,0.0026 -8.876241,-0.04177 z m 17.84289,-0.726181 c -0.142956,-0.894002 -0.529398,-1.197996 -1.454906,-1.144507 -0.726791,0.042 -0.7652,0.06487 -0.812759,0.483756 -0.02745,0.241816 -0.126486,0.488388 -0.220071,0.547934 -0.09359,0.05955 -2.31916,0.109278 -4.94572,0.110513 -3.625982,0.0017 -4.820323,-0.0419 -4.961499,-0.181147 -0.148971,-0.146937 -0.223644,-0.132352 -0.375626,0.07336 -0.167281,0.226421 -0.474617,0.256751 -2.601644,0.256751 -1.680345,0 -2.465358,0.0534 -2.588012,0.176057 -0.216273,0.216272 -0.228425,0.04922 -0.02418,-0.332417 0.140693,-0.262889 0.329337,-0.283784 2.56204,-0.283784 h 2.410164 l 0.617993,-0.916967 c 0.339895,-0.504333 0.68897,-0.965474 0.775719,-1.024758 0.08675,-0.05928 2.435472,-0.107349 5.219385,-0.106814 4.676769,8.86e-4 5.108841,0.0224 5.682164,0.282654 0.358263,0.162633 0.745566,0.486799 0.916418,0.76703 0.339911,0.55752 0.391053,1.471735 0.09603,1.716585 -0.162824,0.13513 -0.218925,0.05458 -0.295492,-0.424244 z m 1.413442,-0.106191 c -0.363103,-0.04506 -0.476822,-0.13068 -0.476822,-0.359004 0,-0.229573 0.06017,-0.274101 0.25675,-0.190027 0.141213,0.06039 0.438311,0.140971 0.660217,0.179064 0.386645,0.06637 0.59797,0.501003 0.220072,0.45262 -0.100866,-0.01291 -0.397964,-0.0501 -0.660217,-0.08265 z m -0.0873,-0.895743 c -0.344692,-0.380883 -0.300644,-0.860756 0.103303,-1.125433 0.546208,-0.357889 1.11415,-0.0467 1.118787,0.613004 0.0049,0.687949 -0.769437,1.012605 -1.22209,0.512429 z m 0.903572,-0.502393 c 0.02696,-0.141458 -0.05573,-0.297391 -0.183763,-0.346522 -0.302365,-0.116027 -0.675617,0.196187 -0.568439,0.475485 0.112341,0.292753 0.690724,0.19359 0.752202,-0.128963 z m 4.509085,0.359786 c -0.238257,-0.02996 -0.508832,-0.157905 -0.60128,-0.284335 -0.09245,-0.12643 -0.241088,-0.184755 -0.330313,-0.129612 -0.290651,0.179631 -0.909292,-0.06854 -0.909292,-0.364766 0,-0.152638 0.09903,-0.277525 0.220072,-0.277525 0.121041,0 0.220073,-0.06602 0.220073,-0.146715 0,-0.08069 -0.09903,-0.146714 -0.220073,-0.146714 -0.185502,0 -0.220072,-0.334184 -0.220072,-2.127363 0,-1.79318 0.03456,-2.127364 0.220072,-2.127364 0.121041,0 0.220073,-0.09903 0.220073,-0.220072 0,-0.121039 -0.09197,-0.220072 -0.204377,-0.220072 -0.229345,0 -0.427553,-0.395239 -0.300943,-0.600098 0.143823,-0.232712 0.522621,-0.144616 0.78815,0.183297 0.358691,0.442966 0.597458,0.224964 0.597458,-0.545503 v -0.651557 h 0.660215 c 0.558466,0 0.660217,0.04443 0.660217,0.288266 0,0.158548 -0.133892,0.359925 -0.297538,0.447506 -0.163646,0.08758 -0.255227,0.227699 -0.203513,0.311374 0.06049,0.09787 0.144586,0.101577 0.235775,0.01039 0.09119,-0.09119 0.268442,-0.02433 0.496942,0.187434 0.351298,0.325572 0.355193,0.359164 0.355193,3.063259 0,1.648033 -0.05592,2.734077 -0.140777,2.734077 -0.07743,0 -0.291998,0.150874 -0.476824,0.335277 -0.237019,0.23648 -0.463696,0.319229 -0.769238,0.280816 z M 27.01614,18.074209 c 0,-0.78266 -0.06285,-1.390173 -0.146715,-1.417968 -0.09127,-0.03025 -0.146715,0.505763 -0.146715,1.418383 0,0.912898 0.05542,1.448488 0.146715,1.417968 0.08383,-0.02802 0.146715,-0.635999 0.146715,-1.418383 z m 1.657877,1.291089 c 0.103238,-0.103238 0.176057,-0.598813 0.176057,-1.198169 0,-1.262133 -0.18033,-1.185874 -0.203376,0.086 l -0.0167,0.921437 -0.476822,0.04597 c -0.262253,0.02528 -0.476822,0.107813 -0.476822,0.183393 0,0.199368 0.790259,0.168762 0.997659,-0.03864 z m 0.02934,-3.345095 c 0,-0.322772 -0.06602,-0.586859 -0.146715,-0.586859 -0.08069,0 -0.146714,0.264087 -0.146714,0.586859 0,0.322773 0.06602,0.586859 0.146714,0.586859 0.0807,0 0.146715,-0.264086 0.146715,-0.586859 z M 27.969785,14.9932 c 0,-0.08069 -0.06602,-0.146714 -0.146714,-0.146714 -0.0807,0 -0.146715,0.06602 -0.146715,0.146714 0,0.08069 0.06602,0.146715 0.146715,0.146715 0.08069,0 0.146714,-0.06602 0.146714,-0.146715 z m 3.88794,6.64441 c -0.242078,-0.03327 -0.517821,-0.161417 -0.612762,-0.284754 -0.104546,-0.135817 -0.284941,-0.188602 -0.457446,-0.133851 -0.344052,0.109198 -1.057155,-0.138577 -1.057155,-0.36732 0,-0.09024 0.132043,-0.198611 0.293429,-0.240815 0.161388,-0.0422 0.29343,-0.135056 0.29343,-0.206337 0,-0.07128 -0.132042,-0.129603 -0.29343,-0.129603 -0.279939,0 -0.293429,-0.09781 -0.293429,-2.127363 0,-2.029554 0.01349,-2.127364 0.293429,-2.127364 0.161388,0 0.29343,-0.09133 0.29343,-0.202961 0,-0.111628 -0.132042,-0.23749 -0.29343,-0.279693 -0.175559,-0.04591 -0.293429,-0.200121 -0.293429,-0.383899 0,-0.409247 0.576954,-0.41392 0.924949,-0.0075 0.357167,0.417139 0.542198,0.236815 0.542198,-0.528403 v -0.651555 h 0.806932 c 0.44381,0 0.806931,0.05712 0.806931,0.126929 0,0.06981 -0.139571,0.304364 -0.310156,0.521228 -0.170586,0.216864 -0.260579,0.440338 -0.199986,0.496608 0.0606,0.05627 0.141252,0.01496 0.179242,-0.09181 0.05081,-0.142775 0.161913,-0.106904 0.420059,0.135609 0.34562,0.324695 0.350985,0.371179 0.350985,3.041973 v 2.71224 l -0.466569,0.416552 c -0.256614,0.229105 -0.471183,0.406662 -0.476823,0.394571 -0.0056,-0.01209 -0.20832,-0.04921 -0.450399,-0.08249 z m -1.04199,-3.312949 c 0.102358,-1.26153 0.03397,-1.717716 -0.257461,-1.71744 -0.116155,1.09e-4 -0.159396,0.439758 -0.140693,1.430468 0.03368,1.784031 0.02265,1.682352 0.172568,1.589695 0.06942,-0.0429 0.17093,-0.629127 0.225586,-1.302723 z m 1.791402,0.959945 c 0.22765,-0.29989 0.272824,-1.884262 0.05752,-2.017328 -0.09252,-0.05718 -0.146716,0.291907 -0.146716,0.944987 v 1.035662 h -0.5135 c -0.282427,0 -0.513503,0.06602 -0.513503,0.146714 0,0.253057 0.908563,0.163489 1.116198,-0.110035 z m -0.0782,-2.864605 c -0.006,-0.0585 -0.011,-0.304434 -0.011,-0.546512 0,-0.24208 -0.06602,-0.440145 -0.146714,-0.440145 -0.08069,0 -0.146715,0.269589 -0.146715,0.599085 0,0.362048 0.0624,0.578285 0.157718,0.546512 0.08674,-0.02891 0.152767,-0.100437 0.146714,-0.15894 z M 31.784359,14.9932 c 0,-0.08069 -0.06602,-0.146714 -0.146714,-0.146714 -0.08069,0 -0.146715,0.06602 -0.146715,0.146714 0,0.08069 0.06602,0.146715 0.146715,0.146715 0.08069,0 0.146714,-0.06602 0.146714,-0.146715 z m 7.777164,6.62721 c -0.281721,-0.02691 -0.560202,-0.126075 -0.618845,-0.220376 -0.05865,-0.0943 -0.257286,-0.176671 -0.441425,-0.183043 -0.891076,-0.03083 -0.995019,-0.06687 -0.995019,-0.344998 0,-0.176665 0.1242,-0.307657 0.330108,-0.348162 l 0.330109,-0.06494 -0.330109,-0.109094 c -0.321977,-0.106407 -0.330108,-0.16107 -0.330108,-2.219346 0,-2.012442 0.0136,-2.110252 0.293429,-2.110252 0.163016,0 0.29343,-0.09781 0.29343,-0.220071 0,-0.12104 -0.124343,-0.220073 -0.276318,-0.220073 -0.263358,0 -0.515952,-0.479258 -0.343488,-0.651721 0.169314,-0.169314 0.538637,-0.07143 0.85624,0.226948 0.441931,0.415172 0.643854,0.246594 0.643854,-0.537531 v -0.651557 h 0.733574 c 0.619883,0 0.733574,0.0427 0.733574,0.275533 0,0.151545 -0.148549,0.375403 -0.330108,0.497464 -0.18156,0.122061 -0.279493,0.274261 -0.217627,0.338222 0.06186,0.06396 0.182619,0.04616 0.268345,-0.03957 0.110006,-0.110007 0.260361,-0.05902 0.511055,0.17332 0.351793,0.326031 0.355093,0.355007 0.344601,3.026581 l -0.0106,2.697398 -0.466232,0.36709 c -0.341195,0.268643 -0.603598,0.353972 -0.978449,0.318174 z m -1.059765,-3.679549 c -0.02303,-0.680219 -0.108397,-1.258761 -0.189697,-1.285648 -0.0938,-0.03103 -0.128632,0.373613 -0.09531,1.107332 0.02935,0.646246 -0.01643,1.285015 -0.103771,1.448225 -0.204726,0.382538 -0.01061,0.570325 0.238038,0.230276 0.132041,-0.180576 0.17945,-0.652387 0.150742,-1.500185 z m 1.762713,1.424437 c 0.103239,-0.103238 0.176058,-0.598813 0.176058,-1.198169 0,-0.562162 -0.04952,-0.972011 -0.110036,-0.910775 -0.06052,0.06124 -0.110036,0.517885 -0.110036,1.014777 v 0.903439 l -0.553253,0.04572 c -0.304288,0.02514 -0.514962,0.107672 -0.468163,0.183393 0.121588,0.196734 0.856801,0.170248 1.06543,-0.03838 z m 0.02934,-3.345095 c 0,-0.322772 -0.06602,-0.586859 -0.146714,-0.586859 -0.08069,0 -0.146715,0.264087 -0.146715,0.586859 0,0.322773 0.06602,0.586859 0.146715,0.586859 0.08069,0 0.146714,-0.264086 0.146714,-0.586859 z m -0.761696,-1.038006 c -0.02892,-0.08675 -0.115293,-0.157719 -0.191952,-0.157719 -0.07666,0 -0.163036,0.07097 -0.191951,0.157719 -0.02892,0.08674 0.05746,0.157718 0.191951,0.157718 0.13449,0 0.220868,-0.07097 0.191952,-0.157718 z m -4.471169,6.382179 c -0.05776,-0.150528 -0.198236,-0.203478 -0.403282,-0.152015 -0.490238,0.123042 -0.966018,-0.05805 -0.966018,-0.367683 0,-0.151975 0.09903,-0.276319 0.220073,-0.276319 0.121039,0 0.220071,-0.06602 0.220071,-0.146715 0,-0.08069 -0.09903,-0.146714 -0.220071,-0.146714 -0.185501,0 -0.220073,-0.334184 -0.220073,-2.127363 0,-1.79318 0.03457,-2.127364 0.220073,-2.127364 0.121039,0 0.220071,-0.09903 0.220071,-0.220072 0,-0.121039 -0.09197,-0.220072 -0.204375,-0.220072 -0.192233,0 -0.382484,-0.297874 -0.382484,-0.598859 0,-0.253998 0.668274,-0.134818 0.924948,0.164957 0.357167,0.41714 0.5422,0.236816 0.5422,-0.528402 v -0.651557 h 0.806931 c 0.443811,0 0.806931,0.05712 0.806931,0.126928 0,0.06981 -0.139569,0.304364 -0.310156,0.521228 -0.170586,0.216864 -0.266028,0.438426 -0.212095,0.492359 0.05393,0.05393 0.156941,0.0028 0.228906,-0.11365 0.11145,-0.180327 0.144394,-0.176404 0.222244,0.02647 0.05027,0.131 0.218875,0.271519 0.374678,0.312262 0.267541,0.06996 0.282936,0.227707 0.277071,2.838716 l -0.0062,2.764636 -0.517466,0.330108 c -0.60852,0.388195 -1.49036,0.442087 -1.621967,0.09912 z m -0.484315,-3.081633 c 0.08697,-1.29499 0.04033,-1.675798 -0.205202,-1.675434 -0.112796,1.61e-4 -0.166282,0.472126 -0.166282,1.467287 0,1.766983 0.257115,1.911046 0.371484,0.208147 z m 1.742988,1.054075 c 0.225858,-0.27214 0.377435,-1.614598 0.220183,-1.950066 -0.08739,-0.186431 -0.148129,0.04153 -0.202714,0.760815 l -0.07794,1.027003 -0.476822,0.04597 c -0.262252,0.02528 -0.476823,0.107813 -0.476823,0.183393 0,0.215374 0.824977,0.160772 1.014111,-0.06712 z m 0.01289,-3.316615 c 0,-0.322772 -0.06602,-0.586859 -0.146715,-0.586859 -0.08069,0 -0.146714,0.264087 -0.146714,0.586859 0,0.322773 0.06602,0.586859 0.146714,0.586859 0.0807,0 0.146715,-0.264086 0.146715,-0.586859 z m -0.733573,-1.002551 c 0,-0.191033 -0.17441,-0.318082 -0.316287,-0.230398 -0.151734,0.09378 -0.0209,0.352661 0.178232,0.352661 0.07593,0 0.138055,-0.05502 0.138055,-0.122263 z m 5.721874,3.954801 c 0,-2.01371 0.142014,-2.636032 0.429181,-1.880727 0.07436,0.195583 0.241464,0.396383 0.371341,0.446222 0.201265,0.07723 0.230012,0.334798 0.194633,1.743907 l -0.04151,1.653292 -0.476823,0.04597 -0.476823,0.04597 z m -19.867758,1.131285 c -0.03378,-0.107577 -0.101356,-0.638105 -0.150164,-1.178953 -0.07916,-0.877223 -0.05774,-0.999945 0.198416,-1.13704 0.157937,-0.08452 0.327078,-0.15368 0.375871,-0.15368 0.182761,0 0.0076,2.542598 -0.179382,2.604547 -0.100823,0.0334 -0.210959,-0.0273 -0.244741,-0.134874 z m 1.387035,-0.335883 c -0.236928,-0.285481 -0.07004,-0.519928 0.370114,-0.519928 0.402247,0 0.461941,0.210575 0.148535,0.523982 -0.260753,0.260752 -0.299126,0.260453 -0.518649,-0.004 z M 23.82423,19.43132 c -0.117964,-0.268922 -0.177908,-1.357499 -0.179763,-3.264403 -0.0024,-2.433214 0.03473,-2.92674 0.248095,-3.30108 0.241794,-0.424207 0.251089,-0.306003 0.256751,3.264402 0.0033,2.037501 -0.02877,3.704547 -0.07111,3.704547 -0.04235,0 -0.15663,-0.18156 -0.253969,-0.403466 z m -1.557735,-3.191045 c 0,-2.746321 0.03668,-3.440442 0.166706,-3.154367 0.229994,0.506038 0.233011,5.814574 0.0036,6.308733 -0.134702,0.290133 -0.17029,-0.369087 -0.17029,-3.154366 z M 9.483732,18.492057 v -1.049298 l 1.577183,0.09961 c 0.86745,0.05479 2.584296,0.161683 3.815215,0.237545 1.230916,0.07586 2.365448,0.206124 2.521183,0.28947 0.155734,0.08335 0.419536,0.151538 0.586227,0.151538 0.26139,0 0.303074,0.09081 0.303074,0.660216 v 0.660216 H 13.885175 9.483734 Z m 57.805607,0.902604 c -0.201732,-0.06461 -1.96781,-0.124047 -3.924617,-0.13209 -3.094855,-0.01272 -3.557835,-0.04394 -3.557835,-0.239896 0,-0.196718 0.439012,-0.222901 3.463639,-0.20657 1.957639,0.01057 3.522728,-0.04039 3.599544,-0.117206 0.07475,-0.07475 0.117134,-0.889589 0.09419,-1.810757 l -0.04172,-1.67485 -3.631191,-0.03924 c -2.253313,-0.02435 -3.631185,-0.09394 -3.631185,-0.183394 0,-0.09124 1.64245,-0.144151 4.474797,-0.144151 h 4.474797 v 2.043357 c 0,2.032724 -0.0021,2.044941 -0.386572,2.347436 -0.420752,0.330963 -0.401779,0.327766 -0.93386,0.157363 z M 18.72676,18.58773 c 0,-0.349921 0.03993,-0.366786 0.868289,-0.366786 0.477559,0 0.972722,-0.04008 1.100361,-0.08905 0.180931,-0.06943 0.232072,0.0114 0.232072,0.366787 v 0.455837 h -1.100361 c -1.075907,0 -1.100361,-0.0082 -1.100361,-0.366788 z m 4.108013,0.146715 c 0,-0.122262 0.130414,-0.220072 0.29343,-0.220072 0.163016,0 0.293429,0.09781 0.293429,0.220072 0,0.122261 -0.130413,0.220073 -0.293429,0.220073 -0.163016,0 -0.29343,-0.09781 -0.29343,-0.220073 z m 36.825398,-1.532687 c 0,-1.28013 0.03449,-1.483123 0.27414,-1.611355 0.150774,-0.08069 0.309976,-0.110879 0.35377,-0.06708 0.07629,0.07628 2.222707,0.115652 2.526456,0.04634 0.0807,-0.01842 0.990316,-0.04011 2.021385,-0.04821 l 1.874664,-0.01473 -0.04074,1.540504 -0.04074,1.540504 -3.48447,0.03934 -3.484474,0.03934 z m 4.658831,0.90915 c 0.04427,-0.134269 -0.198227,-0.183394 -0.905376,-0.183394 -0.897489,0 -1.120246,0.09015 -0.861659,0.348735 0.176666,0.176672 1.701275,0.03401 1.767035,-0.165341 z M 17.521804,17.772092 C 17.383582,17.691522 15.700031,17.523648 13.780579,17.399049 8.89943,17.082196 9.337018,17.197415 9.337018,16.229043 c 0,-0.512434 0.06664,-0.827824 0.183395,-0.868013 0.100866,-0.03472 1.932966,-0.200594 4.071333,-0.368612 2.138368,-0.168017 4.482134,-0.362087 5.208372,-0.431267 1.233876,-0.117536 1.38054,-0.101246 2.237399,0.248511 l 0.916967,0.374292 v 1.013067 1.013067 l -0.811112,0.358713 c -0.662202,0.292855 -1.046034,0.357894 -2.090686,0.354251 -0.703764,-0.0024 -1.392661,-0.07039 -1.530882,-0.15096 z m 2.792898,-0.773703 c 0.02745,-0.141517 -0.04619,-0.244593 -0.174735,-0.244593 -0.272556,0 -0.437058,0.239167 -0.30806,0.447889 0.132709,0.214727 0.425647,0.09138 0.482795,-0.203296 z m 0.02593,-1.483009 c 0,-0.116277 -0.05267,-0.243965 -0.117042,-0.283749 -0.187692,-0.116 -0.517197,0.15309 -0.406598,0.332045 0.14557,0.235537 0.52364,0.200667 0.52364,-0.0483 z m 2.567508,1.238416 c 0.04987,-0.08069 0.152801,-0.146714 0.228731,-0.146714 0.07593,0 0.138055,0.06602 0.138055,0.146714 0,0.08069 -0.102929,0.146715 -0.228731,0.146715 -0.125801,0 -0.187928,-0.06602 -0.138055,-0.146715 z m 18.999551,-0.422179 c 0,-0.07081 0.09384,-0.20663 0.20853,-0.301815 0.171106,-0.142005 0.194365,-0.118899 0.129602,0.12875 -0.07711,0.29489 -0.338132,0.428485 -0.338132,0.173065 z m 0.916968,0.02366 c 0.221905,-0.03361 0.585024,-0.03361 0.80693,0 0.221906,0.03362 0.04035,0.06112 -0.403466,0.06112 -0.443811,0 -0.625372,-0.0275 -0.403464,-0.06112 z m 1.569279,-0.05685 c 0.65779,-0.262711 0.778373,-0.43441 0.511883,-0.728879 -0.299349,-0.330778 -0.150945,-0.869766 0.23948,-0.869766 0.241188,0 0.283544,0.106062 0.283544,0.710024 0,0.618481 -0.04818,0.731974 -0.37369,0.880288 -0.20553,0.09364 -0.519132,0.16608 -0.696896,0.160965 -0.311073,-0.0089 -0.309733,-0.01468 0.03568,-0.152632 z M 22.908135,16.166928 c -0.04987,-0.08069 0.01225,-0.146714 0.138055,-0.146714 0.125802,0 0.228732,0.06602 0.228732,0.146714 0,0.08069 -0.06212,0.146716 -0.138056,0.146716 -0.07593,0 -0.17886,-0.06602 -0.228731,-0.146716 z m 19.810459,-0.153141 c 0.05206,-0.08423 0.02506,-0.236993 -0.06,-0.339477 -0.08505,-0.102485 -0.140255,-0.666603 -0.122667,-1.253596 0.03457,-1.153721 0.08724,-1.056776 -1.043073,-1.919631 l -0.392096,-0.299313 0.91201,0.03623 c 0.57273,0.02275 0.97935,-0.0311 1.093025,-0.144783 0.09956,-0.09956 0.400321,-0.181016 0.668363,-0.181016 0.39554,0 0.640486,0.15314 1.300257,0.812911 0.647607,0.647605 0.803588,0.893738 0.767063,1.210396 -0.0369,0.319884 -0.131778,0.407182 -0.48599,0.447148 -0.671025,0.07571 -0.848475,0.295442 -0.761609,0.943082 0.06698,0.499389 0.03367,0.580772 -0.287767,0.702981 -0.504054,0.191643 -1.708189,0.180317 -1.587517,-0.01493 z m 1.335498,-0.412681 c -0.2257,-0.249394 -0.226663,-0.288865 -0.01143,-0.467494 0.180981,-0.150201 0.224038,-0.40834 0.187093,-1.121704 -0.04798,-0.926476 0.06514,-1.120964 0.436173,-0.749931 0.09683,0.09683 0.176058,0.294898 0.176058,0.440145 0,0.145247 0.06602,0.264086 0.146715,0.264086 0.08069,0 0.146714,-0.163359 0.146714,-0.363019 0,-0.253608 -0.13046,-0.430483 -0.432857,-0.586859 -0.784624,-0.405744 -0.85626,-0.33374 -0.776534,0.780523 0.06165,0.861694 0.03538,1.018359 -0.1849,1.102892 -0.141219,0.05419 -0.347427,0.02329 -0.458239,-0.06868 -0.151028,-0.125341 -0.201477,-0.124822 -0.201477,0.0021 0,0.09311 0.10409,0.209226 0.231309,0.258045 0.127223,0.04882 0.290643,0.244813 0.363156,0.43554 0.07252,0.190728 0.242745,0.346777 0.378288,0.346777 0.230754,0 0.23075,-0.01734 -7e-5,-0.272393 z m 1.668181,-0.149786 c 0,-0.457113 0.0795,-0.781585 0.220073,-0.898253 0.326954,-0.271349 0.28161,-1.202531 -0.07336,-1.506464 -0.366364,-0.313689 -0.378066,-0.865613 -0.02513,-1.185019 0.363726,-0.329169 0.394923,-0.317914 0.761105,0.27458 0.576773,0.933237 0.616464,0.949755 2.282153,0.949755 h 1.530025 v 0.497806 c 0,0.627375 0.12798,0.675912 1.782222,0.675912 0.724942,0 1.452869,0.07213 1.617613,0.160308 0.216621,0.115931 0.34391,0.115931 0.459842,0 0.209487,-0.209489 5.621166,-0.222281 5.750141,-0.01359 0.09516,0.153971 -2.523167,0.195171 -9.414536,0.148139 -3.562331,-0.02431 -3.703433,-0.01443 -3.997976,0.280116 -0.167925,0.167924 -0.305317,0.457167 -0.305317,0.642761 0,0.333713 -0.242279,0.689559 -0.469488,0.689559 -0.06455,0 -0.117372,-0.322024 -0.117372,-0.715608 z m -22.740782,0.06405 c 0,-0.125801 0.06602,-0.22873 0.146715,-0.22873 0.0807,0 0.146716,0.06212 0.146716,0.138056 0,0.07593 -0.06602,0.178859 -0.146716,0.228731 -0.08069,0.04987 -0.146715,-0.01225 -0.146715,-0.138057 z M 9.483734,13.97998 v -1.04077 h 4.401441 4.401442 v 0.581204 c 0,0.54816 -0.03128,0.589404 -0.55018,0.725445 -1.038034,0.272142 -1.289941,0.300031 -4.071334,0.450748 -1.53317,0.08308 -3.101182,0.189997 -3.484475,0.237598 l -0.696894,0.08655 z m 13.497754,0.866521 c 0,-0.08069 0.06602,-0.146714 0.146715,-0.146714 0.0807,0 0.146716,0.06602 0.146716,0.146714 0,0.0807 -0.06602,0.146715 -0.146716,0.146715 -0.08069,0 -0.146715,-0.06602 -0.146715,-0.146715 z m -1.429452,-0.190052 c -0.309843,-0.138694 -0.323764,-0.208233 -0.238019,-1.189026 0.05009,-0.572942 0.148663,-1.104436 0.219055,-1.181094 0.283567,-0.308813 0.432695,0.202995 0.39104,1.342046 -0.04234,1.157739 -0.04792,1.173171 -0.372076,1.028074 z m 38.951746,-0.200542 c 0.100867,-0.0407 0.265922,-0.0407 0.366788,0 0.100865,0.0407 0.01836,0.074 -0.183394,0.074 -0.201733,0 -0.28426,-0.03331 -0.183394,-0.074 z m 0.770257,-0.04955 c 0.300991,-0.194518 7.335731,-0.194518 7.335731,0 0,0.09407 -1.355611,0.145909 -3.777901,0.144468 -2.493372,-0.0015 -3.703079,-0.0506 -3.55783,-0.144468 z M 19.591904,14.151339 c -0.944083,-0.04954 -0.967004,-0.06018 -0.898706,-0.417467 0.0679,-0.355218 0.102638,-0.365304 1.115506,-0.323897 1.019271,0.04167 1.046581,0.05283 1.091844,0.446204 0.03099,0.269283 -0.01781,0.393909 -0.146715,0.37473 -0.106226,-0.0158 -0.629096,-0.05161 -1.161929,-0.07957 z m 34.14662,-0.111767 c -0.04645,-0.121039 -0.1908,-0.220072 -0.320783,-0.220072 -0.189802,0 -0.216199,-0.09388 -0.134067,-0.476823 0.143971,-0.671253 0.162791,-0.687538 0.755567,-0.653799 0.338076,0.01924 0.5474,0.110405 0.574802,0.250334 0.02371,0.12104 0.08712,0.36862 0.140931,0.550181 0.07361,0.248372 0.03797,0.330107 -0.143954,0.330107 -0.132985,0 -0.279792,0.09903 -0.326238,0.220072 -0.04645,0.12104 -0.169357,0.220072 -0.27313,0.220072 -0.103772,0 -0.226679,-0.09903 -0.273128,-0.220072 z m 0.427744,-0.526285 c 0.05422,-0.08772 0.02235,-0.235721 -0.07081,-0.328881 -0.128034,-0.128035 -0.201343,-0.11767 -0.300308,0.04246 -0.139835,0.22626 -0.06932,0.445923 0.143143,0.445923 0.07117,0 0.173756,-0.07178 0.227973,-0.159498 z m 5.917126,0.612704 c -0.0093,-0.04753 -0.02955,-0.15244 -0.04505,-0.233133 -0.01545,-0.0807 -0.08576,-0.274799 -0.156183,-0.431346 -0.08562,-0.190312 -0.06982,-0.304042 0.04771,-0.343208 0.09665,-0.03222 0.268865,-0.151714 0.3827,-0.265548 0.267831,-0.267829 0.377234,-0.256213 0.784398,0.08327 0.285377,0.237942 0.317565,0.353138 0.21224,0.759599 -0.110625,0.426917 -0.183242,0.481173 -0.666502,0.497955 -0.298291,0.01036 -0.549967,-0.02005 -0.559275,-0.06758 z m 0.798127,-0.549742 c 0.132679,-0.132679 -0.196129,-0.506537 -0.357683,-0.406691 -0.202284,0.125016 -0.153037,0.503228 0.06553,0.503228 0.107588,0 0.239054,-0.04344 0.292151,-0.09654 z m -38.099804,0.169894 c 0.04645,-0.121039 0.20943,-0.220072 0.362183,-0.220072 0.152751,0 0.277732,0.09903 0.277732,0.220072 0,0.136188 -0.138052,0.220073 -0.362182,0.220073 -0.261664,0 -0.338745,-0.06108 -0.277733,-0.220073 z m 27.901032,-0.476823 -0.04554,-0.550179 -1.638255,-0.04137 -1.638257,-0.04137 -0.466786,-0.727424 -0.466785,-0.727424 0.279762,-0.478283 0.279764,-0.478283 2.485495,0.0422 c 4.885012,0.08294 10.795117,0.606018 15.836539,1.401619 l 1.173721,0.185228 v 0.547712 c 0,0.63447 0.21824,0.824564 0.95364,0.83065 0.734677,0.0061 1.17372,0.149772 1.17372,0.384142 0,0.16716 -0.620444,0.20296 -3.517483,0.20296 h -3.517485 l 0.0874,-0.437039 c 0.07429,-0.371426 0.03178,-0.458173 -0.28284,-0.577808 -0.203641,-0.07742 -0.413577,-0.210864 -0.466523,-0.296536 -0.155191,-0.251103 -0.411982,-0.176026 -0.959238,0.280449 -0.45729,0.381429 -0.493291,0.461305 -0.328872,0.729628 0.183239,0.299013 0.167054,0.301298 -2.12736,0.300162 l -2.312003,-0.0011 -0.183393,-0.394892 c -0.100864,-0.21719 -0.183392,-0.513772 -0.183392,-0.65907 0,-0.1453 -0.04951,-0.270337 -0.110035,-0.277861 -1.169733,-0.145421 -1.72706,-0.0082 -1.631624,0.401703 0.01607,0.06901 -0.02178,0.307038 -0.08411,0.528944 -0.110432,0.39315 -0.140831,0.403466 -1.188927,0.403466 h -1.075596 z m -27.99469,-0.248094 c 0,-0.116278 0.07052,-0.254998 0.156716,-0.308269 0.08619,-0.05327 0.123374,-0.183748 0.08262,-0.289947 -0.04076,-0.1062 0.02077,-0.229493 0.136712,-0.273984 0.147324,-0.05653 0.210808,0.02557 0.210808,0.272628 0,0.194438 0.0671,0.394993 0.149107,0.445678 0.238198,0.147214 0.01262,0.365307 -0.377839,0.365307 -0.214007,0 -0.358127,-0.08508 -0.358127,-0.211413 z m -0.340981,-0.581174 c -0.08284,-0.215873 0.012,-0.38113 0.218719,-0.38113 0.06724,0 0.122262,0.132042 0.122262,0.293429 0,0.336406 -0.223487,0.393887 -0.340981,0.0877 z m 1.221268,-0.1524 c 0,-0.206495 0.06602,-0.375446 0.146715,-0.375446 0.08069,0 0.146716,0.128148 0.146716,0.284771 0,0.156624 -0.06602,0.325574 -0.146716,0.375446 -0.08321,0.05142 -0.146715,-0.07183 -0.146715,-0.284771 z M 9.691545,11.946643 C 9.446052,11.780194 8.456729,10.252547 8.456729,10.039924 c 0,-0.1039402 0.173808,-0.2550643 0.386238,-0.3358304 0.397949,-0.1512992 9.172488,-0.1865732 9.912546,-0.03985 0.331455,0.06572 0.402764,0.1650312 0.440144,0.6130114 0.04282,0.513219 0.06885,0.536364 0.651121,0.578875 0.924624,0.06751 1.398591,-0.405937 1.488205,-1.4865707 0.04888,-0.5895026 0.12983,-0.8317899 0.277884,-0.8317899 0.162985,0 0.199303,0.2001922 0.165225,0.910766 -0.04209,0.8775606 -0.06508,0.9257696 -0.630538,1.3222746 -0.85811,0.601713 -1.803514,0.69945 -6.774907,0.700404 L 9.945175,11.472027 9.656661,11.10524 c -0.158683,-0.201734 -0.32853,-0.366787 -0.377437,-0.366787 -0.209037,0 -0.06256,0.41376 0.250644,0.707999 0.335164,0.31487 0.404089,0.318921 5.318409,0.312565 4.945771,-0.0064 5.117294,-0.02037 6.286666,-0.51218 0.572574,-0.24081 0.05523,0.253264 -0.555669,0.530674 -0.554248,0.251684 -1.03341,0.275013 -5.667095,0.275906 -2.783913,5.2e-4 -5.133198,-0.04753 -5.220634,-0.106814 z m 12.849799,-0.327862 c -0.353131,-0.353131 -0.366885,-0.563412 -0.06504,-0.994358 0.277005,-0.395483 0.812533,-0.422558 1.142659,-0.05777 0.338116,0.373613 0.302857,0.846719 -0.08326,1.117167 -0.430946,0.301847 -0.641227,0.288094 -0.994358,-0.06504 z m 0.851367,-0.533005 c 0.02459,-0.171588 -0.05247,-0.347125 -0.172666,-0.393246 -0.2793,-0.107177 -0.591514,0.266072 -0.475487,0.568439 0.12508,0.325953 0.594494,0.199073 0.648153,-0.175193 z m 10.690192,0.728625 c -0.27856,-0.27856 0.07221,-0.342335 1.882838,-0.342335 1.803909,0 2.368228,0.113307 1.748577,0.351091 -0.315862,0.121207 -3.509152,0.113508 -3.631415,-0.0088 z m 4.303632,-0.122263 c 0.145046,-0.174771 0.571553,-0.220072 2.071969,-0.220072 1.581592,0 1.889328,0.03585 1.889328,0.220072 0,0.185231 -0.328029,0.220072 -2.07197,0.220072 -1.825118,0 -2.05021,-0.02622 -1.889327,-0.220072 z m -4.548157,-0.64654 c 0,-0.07317 0.194213,-0.565904 0.431585,-1.0949611 l 0.431587,-0.9619221 3.330212,-0.04208 3.330212,-0.04208 0.492929,1.0819992 c 0.271111,0.595099 0.492929,1.106767 0.492929,1.137039 0,0.03027 -1.914627,0.05504 -4.254728,0.05504 -2.447084,0 -4.254726,-0.05653 -4.254726,-0.133038 z m 5.049658,-0.102731 c 0.286845,-0.110072 0.319478,-1.1229093 0.04356,-1.3519025 -0.105954,-0.08793 -0.957327,-0.1679592 -1.94397,-0.1827252 l -1.755456,-0.02627 -0.405488,0.6889997 c -0.223019,0.37895 -0.367671,0.750189 -0.32145,0.824977 0.09201,0.148873 4.007878,0.190797 4.382806,0.04692 z m -3.940539,-0.394369 c 0.05501,-0.143371 0.512933,-0.183097 1.866009,-0.161885 2.128753,0.03337 2.013172,0.02159 2.013172,0.205164 0,0.09055 -0.756492,0.146716 -1.976044,0.146716 -1.557174,0 -1.960588,-0.04028 -1.903137,-0.189995 z m 0.408746,-0.7269733 c -0.03742,-0.06052 0.728119,-0.1100361 1.7012,-0.1100361 0.973079,0 1.769235,0.06013 1.769235,0.1336221 0,0.1590933 -3.371652,0.1361782 -3.470435,-0.02359 z m 5.345081,0.9820063 c 0.407109,-0.28515 0.42198,-0.8494241 0.03265,-1.2387576 -0.35313,-0.3531314 -0.56341,-0.3668844 -0.994358,-0.06504 -0.389772,0.2730073 -0.429822,0.8809386 -0.08326,1.2638826 0.297209,0.328413 0.615716,0.340578 1.044976,0.03992 z m -0.98867,-0.347841 c -0.191777,-0.358341 -0.06142,-0.7067364 0.308337,-0.8240945 0.548107,-0.1739632 0.948163,0.5195965 0.536921,0.9308385 -0.264067,0.264068 -0.674548,0.21223 -0.845258,-0.106744 z m -19.995569,0.170004 c -0.168196,-0.03631 -0.256751,-0.193409 -0.256751,-0.455476 0,-0.2200241 -0.07923,-0.4792694 -0.176058,-0.5761005 -0.130466,-0.1304662 -1.554899,-0.1760572 -5.500559,-0.1760572 -5.165607,0 -5.329969,0.0088 -5.50775,0.2934283 -0.232863,0.3728734 -0.55281,0.3797054 -0.55281,0.01181 0,-0.2453933 -0.0989,-0.2780483 -0.768804,-0.2538373 C 6.355842,9.4910913 6.17472,9.5534713 6.136664,9.7510856 6.094694,9.9690269 5.903309,10.004922 4.783266,10.004922 3.388758,10.004922 3.175,9.8892038 3.175,9.1342779 c 0,-0.3004223 0.04421,-0.3030733 5.053,-0.3030733 3.210407,0 5.086064,-0.0535 5.143673,-0.1467152 0.05666,-0.09168 1.511464,-0.1467141 3.87826,-0.1467141 h 3.787584 l 0.09268,0.4633835 c 0.186696,0.93347 -0.57233,1.8060612 -1.413109,1.6245392 z m 2.53083,-0.578936 c 0,-0.1700482 0.115782,-0.2663563 0.330107,-0.2745833 0.18156,-0.007 0.437127,-0.06028 0.567928,-0.1184682 0.153213,-0.06816 0.269012,-0.0245 0.325503,0.1227072 0.06516,0.1698202 -0.0078,0.2285043 -0.284143,0.2285043 -0.204504,0 -0.49953,0.06835 -0.655611,0.151877 -0.231309,0.123793 -0.283784,0.103445 -0.283784,-0.110037 z M 34.799498,4.9799383 c -0.179716,-0.5815606 -0.178266,-1.4408356 0.0028,-1.6796569 0.177743,-0.2343952 0.200958,-0.1779552 0.205096,0.4986486 0.0034,0.5511736 0.07148,0.8003499 0.245337,0.897649 0.132369,0.07408 0.194494,0.2094012 0.138055,0.3007193 -0.137593,0.2226313 -0.520634,0.2113873 -0.591322,-0.01736 z"
       id="path861" />
  </g>
</svg>
