<?xml version="1.0" encoding="UTF-8" standalone="no"?>
<svg
   xmlns:dc="http://purl.org/dc/elements/1.1/"
   xmlns:cc="http://creativecommons.org/ns#"
   xmlns:rdf="http://www.w3.org/1999/02/22-rdf-syntax-ns#"
   xmlns:svg="http://www.w3.org/2000/svg"
   xmlns="http://www.w3.org/2000/svg"
   xmlns:sodipodi="http://sodipodi.sourceforge.net/DTD/sodipodi-0.dtd"
   xmlns:inkscape="http://www.inkscape.org/namespaces/inkscape"
   version="1.1"
   id="svg2"
   width="512"
   height="512"
   viewBox="0 0 512 512"
   sodipodi:docname="Precision_Choke.svg"
   inkscape:version="1.0.1 (3bc2e813f5, 2020-09-07)">
  <metadata
     id="metadata8">
    <rdf:RDF>
      <cc:Work
         rdf:about="">
        <dc:format>image/svg+xml</dc:format>
        <dc:type
           rdf:resource="http://purl.org/dc/dcmitype/StillImage" />
        <dc:title></dc:title>
      </cc:Work>
    </rdf:RDF>
  </metadata>
  <defs
     id="defs6" />
  <sodipodi:namedview
     pagecolor="#ffffff"
     bordercolor="#666666"
     borderopacity="1"
     objecttolerance="10"
     gridtolerance="10"
     guidetolerance="10"
     inkscape:pageopacity="0"
     inkscape:pageshadow="2"
     inkscape:window-width="1600"
     inkscape:window-height="837"
     id="namedview4"
     showgrid="false"
     fit-margin-top="0"
     fit-margin-left="0"
     fit-margin-right="0"
     fit-margin-bottom="0"
     inkscape:pagecheckerboard="true"
     inkscape:zoom="0.59595959"
     inkscape:cx="-98.260655"
     inkscape:cy="212.56773"
     inkscape:window-x="-8"
     inkscape:window-y="-8"
     inkscape:window-maximized="1"
     inkscape:current-layer="layer1"
     inkscape:document-rotation="0" />
  <style
     id="style817"
     type="text/css">
	.st0{fill:#241C1C;}
</style>
  <g
     id="g887"
     transform="matrix(1.5459861,0,0,1.529688,-0.46379583,-0.13955139)">
    <g
       id="g869">
      <g
         id="g831" />
      <g
         id="g843" />
      <g
         id="g855" />
      <g
         id="g867" />
    </g>
  </g>
  <g
     inkscape:groupmode="layer"
     id="layer1"
     inkscape:label="Layer 1"
     style="display:inline"
     transform="translate(-23.94995,-22.856083)">
    <g
       id="g881"
       style="fill:#273839;fill-opacity:1"
       transform="matrix(14.863785,0,0,15.022151,-505.89422,-467.12152)">
      <path
         style="display:inline;fill:#273839;fill-opacity:1;stroke:none;stroke-width:1px;stroke-linecap:butt;stroke-linejoin:miter;stroke-opacity:1"
         d="m 50.693359,34.519531 c -1.437276,0.340823 -0.850569,0.803877 -2.046875,1.78125 -1.639983,-2.484591 -4.734942,2.150634 -3.74414,3.855469 -2.182553,0.11935 -1.768002,0.564641 -0.519532,1.113281 0.944497,0.291308 0.535897,2.20316 -1.001953,3.484375 0.505354,2.758608 -1.672781,2.918898 -3.558593,3.708985 2.31283,0.03453 4.725887,0.226188 6.710937,0.482421 1.112345,1.71064 2.225546,0.73303 3.337891,0.814454 l 2.408203,2.892578 -3.1875,0.111328 c -0.251726,-1.844831 -7.453242,-3.731396 -7.044922,0.259766 -4.151988,-1.389292 -5.965461,2.689549 -4.152344,4.152343 -1.167939,1.969936 -0.219044,2.764151 1.259766,3.263672 -3.868397,1.49606 -3.631045,2.048973 1.039062,1.482422 1.921215,3.501726 4.489145,3.124011 7.19336,1.927734 3.281892,1.168301 3.044818,-0.17517 2.964843,-1.408203 3.208492,-1.259618 0.325097,-2.007203 0.185547,-3.003906 0.561837,-1.003521 -0.161452,-1.715227 -0.630859,-2.484375 0.903249,-2.806094 2.517443,-0.686383 4.302734,2.632813 -1.19623,2.262163 -1.535924,4.087823 1.222657,4.33789 4.312832,2.037379 5.082659,0.0016 6.785156,-0.96289 3.760387,2.97954 2.356009,-0.571971 2.744141,-1.855469 6.57084,-3.434277 4.351318,-4.885277 1.816406,-6.265625 0.549682,-1.343119 1.286537,-2.746503 -1.556641,-3.003906 0.991825,-3.598293 -2.151319,-1.648212 -3.744141,-1.779297 -1.435169,-4.358132 -4.819561,-0.04328 -7.527343,1.261718 -2.042083,-0.400408 -1.719591,-1.075033 -2.076172,-1.669921 0.967815,-1.38417 2.369853,-1.099759 3.744141,-0.925782 2.054628,-1.037412 1.892728,-1.996213 2.076171,-2.966797 -0.04335,-2.169717 1.746067,-3.205162 3.078125,-4.523437 -3.036606,0.382797 -1.991763,-1.751389 -1.919922,-3.154297 -1.859087,0.02769 -3.555367,-0.123121 -3.910156,-1.121094 -1.944867,-0.655047 -3.232695,-1.782453 -4.248047,-2.4375 z m -0.146484,6.796875 c 0.920417,-0.09332 1.877429,0.647831 1.380859,1.789063 3.464861,1.108581 -1.497528,3.345576 -2.539062,1.425781 -0.645244,-2.195469 0.237786,-3.121525 1.158203,-3.214844 z m 8.757813,12.011719 c 1.63235,0.06525 2.93117,0.576614 3.105468,2.585937 -0.682204,1.913864 -1.345721,1.75872 -2.816406,2.054688 -0.461232,-0.104045 -6.614919,-2.663963 -1.914062,-2.595703 -0.231012,-1.528134 0.38866,-2.123892 1.625,-2.044922 z m -14.15625,2.804687 c 3.426529,3.847969 -1.573743,4.115388 -3.408204,2.359376 1.693652,-0.643879 0.779241,-2.304271 3.408204,-2.359376 z"
         id="path932"
         inkscape:connector-curvature="0" />
    </g>
  </g>
</svg>
