<?xml version="1.0" encoding="UTF-8" standalone="no"?>
<svg
   xmlns:dc="http://purl.org/dc/elements/1.1/"
   xmlns:cc="http://creativecommons.org/ns#"
   xmlns:rdf="http://www.w3.org/1999/02/22-rdf-syntax-ns#"
   xmlns:svg="http://www.w3.org/2000/svg"
   xmlns="http://www.w3.org/2000/svg"
   xmlns:sodipodi="http://sodipodi.sourceforge.net/DTD/sodipodi-0.dtd"
   xmlns:inkscape="http://www.inkscape.org/namespaces/inkscape"
   width="410.758"
   height="128"
   viewBox="0 0 108.67971 33.866667"
   version="1.1"
   id="svg8"
   inkscape:version="1.0.1 (3bc2e813f5, 2020-09-07)"
   sodipodi:docname="Devotion LMG.svg">
  <defs
     id="defs2" />
  <sodipodi:namedview
     id="base"
     pagecolor="#ffffff"
     bordercolor="#666666"
     borderopacity="1.0"
     inkscape:pageopacity="0.0"
     inkscape:pageshadow="2"
     inkscape:zoom="0.98994949"
     inkscape:cx="161.40414"
     inkscape:cy="136.8812"
     inkscape:document-units="mm"
     inkscape:current-layer="layer1"
     inkscape:document-rotation="0"
     showgrid="false"
     units="px"
     inkscape:window-width="1366"
     inkscape:window-height="705"
     inkscape:window-x="-8"
     inkscape:window-y="-8"
     inkscape:window-maximized="1" />
  <metadata
     id="metadata5">
    <rdf:RDF>
      <cc:Work
         rdf:about="">
        <dc:format>image/svg+xml</dc:format>
        <dc:type
           rdf:resource="http://purl.org/dc/dcmitype/StillImage" />
        <dc:title></dc:title>
      </cc:Work>
    </rdf:RDF>
  </metadata>
  <g
     inkscape:label="Layer 1"
     inkscape:groupmode="layer"
     id="layer1">
    <path
       style="fill:#273839;fill-opacity:1;stroke-width:0.191754"
       d="m 66.365834,30.265493 c -0.164176,-0.234395 -0.298503,-0.489799 -0.298503,-0.567562 0,-0.07776 1.725873,-0.166426 3.835274,-0.197026 2.469176,-0.03581 3.832933,0.01266 3.828696,0.136116 -0.0036,0.105465 -0.168543,0.385905 -0.366502,0.6232 -0.346638,0.415515 -0.47699,0.431446 -3.530194,0.431446 -3.058688,0 -3.180771,-0.01499 -3.468771,-0.426174 z m -0.182111,-1.219417 c -0.06401,-0.166822 -0.116392,-2.742125 -0.116392,-5.722894 0,-5.006877 0.02671,-5.443748 0.350668,-5.736931 0.296083,-0.267952 0.825894,-0.316358 3.40363,-0.310971 4.303065,0.009 3.915854,-0.601869 3.915854,6.177639 v 5.451405 l -0.488406,0.222533 c -0.308891,0.140741 -1.675712,0.222533 -3.718683,0.222533 -2.768699,0 -3.24691,-0.04334 -3.346671,-0.303314 z m 5.190744,-2.700743 1.02074,-0.703012 v -3.323818 -3.323819 l -1.294338,0.0048 c -1.172419,0.0043 -1.380133,0.0677 -2.205169,0.673002 l -0.910831,0.668248 v 3.225993 c 0,1.774297 0.05753,3.283519 0.127837,3.353828 0.07031,0.07031 0.603302,0.127836 1.184426,0.127836 0.903211,0 1.204771,-0.102053 2.077335,-0.703012 z m -3.00609,-2.746693 v -2.874445 l 0.910831,-0.673405 c 0.767625,-0.567529 1.046498,-0.665804 1.773722,-0.625063 l 0.862893,0.04834 0.05282,2.904263 0.05283,2.904261 -0.751558,0.595247 c -0.638454,0.505663 -0.913336,0.595244 -1.826547,0.595244 h -1.074991 z m -2.876307,2.778566 c 0,-0.991726 -0.02806,-1.054646 -0.470363,-1.054646 -1.037091,0 -1.421066,-0.407087 -3.238459,-3.433375 -2.505277,-4.171739 -2.428188,-3.989852 -2.421469,-5.713347 0.0044,-1.109689 0.05626,-1.409025 0.201282,-1.160045 0.161505,0.277287 0.474161,0.335569 1.800191,0.335569 h 1.604739 l 0.414787,0.671138 c 0.383072,0.619824 0.486895,0.671138 1.357916,0.671138 h 0.943129 v 5.369108 c 0,2.953009 -0.04315,5.369107 -0.09588,5.369107 -0.05273,0 -0.09588,-0.474592 -0.09588,-1.054647 z m -0.0208,-6.471691 0.0208,-0.719076 H 64.35543 63.218792 L 62.533769,18.05877 c -0.376762,-0.620217 -0.685021,-1.224242 -0.685021,-1.342277 0,-0.118034 -0.137958,-0.214608 -0.306573,-0.214608 -0.259695,0 -0.241439,0.109944 0.119411,0.719077 0.234288,0.395492 0.95099,1.649589 1.592667,2.786882 0.641678,1.137292 1.342974,2.257719 1.558438,2.489839 l 0.391748,0.422033 0.123005,-1.147563 c 0.06764,-0.631158 0.132367,-1.471146 0.143815,-1.866638 z m 17.970305,4.346716 c -0.06401,-0.166822 -0.116393,-0.418478 -0.116393,-0.559233 0,-0.457187 -2.100864,-4.012197 -2.691521,-4.554498 -0.530859,-0.487394 -0.695713,-0.527323 -2.177123,-0.527323 -0.917547,0 -1.943192,-0.120107 -2.399026,-0.280935 -0.558236,-0.196956 -0.938297,-0.226931 -1.271429,-0.100274 l -0.475171,0.18066 0.09932,2.196689 c 0.06263,1.385141 0.02754,2.241048 -0.09496,2.31676 -0.128612,0.07949 -0.189724,-1.034207 -0.180801,-3.294876 0.0074,-1.878221 0.07668,-3.254192 0.153922,-3.057713 0.224091,0.569987 2.202126,1.272673 3.582523,1.272673 1.161467,0 1.199712,-0.0163 1.494093,-0.636657 0.339921,-0.716335 0.172896,-1.605383 -0.458981,-2.443081 -0.430048,-0.570129 -0.709316,-0.358521 -0.405847,0.307521 0.336191,0.737856 0.232933,2.580464 -0.144603,2.580464 -0.07207,0 -0.235907,-0.507787 -0.364094,-1.128415 -0.334551,-1.619722 -0.793916,-2.130653 -1.918933,-2.134337 -0.493303,-0.0016 -1.026347,-0.08658 -1.184544,-0.188817 -0.189731,-0.122614 1.435137,-0.186881 4.773906,-0.188817 l 5.06154,-0.003 -0.520639,0.482511 c -0.286349,0.265378 -0.598429,0.434431 -0.693508,0.375669 -0.379263,-0.234397 -2.101669,0.901371 -2.101669,1.385856 0,0.228187 1.360379,2.832706 3.012108,5.766839 l 0.461669,0.820111 0.990415,-0.866391 c 0.85353,-0.746649 1.027879,-0.828921 1.261514,-0.595285 0.413487,0.413486 0.174694,0.754046 -1.413875,2.016423 -1.486299,1.181143 -2.069457,1.400645 -2.277901,0.857445 z m -3.1091,-6.327875 c 0.184127,-0.47983 0.138244,-0.655456 -0.171238,-0.655456 -0.17897,0 -0.287631,0.181101 -0.287631,0.479385 0,0.535558 0.279732,0.642893 0.458869,0.176071 z M 35.316704,21.857074 C 34.881759,21.514946 34.81146,21.314843 34.81146,20.418921 v -1.040729 h 2.396923 2.396922 l -0.0072,0.814954 c -0.007,0.785352 -0.04624,0.83759 -1.082181,1.438153 -1.298783,0.752937 -2.427766,0.83261 -3.199233,0.225775 z m 3.329832,-1.505241 c 0,-0.734649 -0.892489,-1.037286 -1.366736,-0.46345 -0.240686,0.29123 -0.226575,0.295647 0.165174,0.05169 0.375566,-0.23388 0.469617,-0.22548 0.763269,0.06817 0.29365,0.29365 0.302049,0.387704 0.06817,0.763266 -0.243961,0.39175 -0.239545,0.405862 0.05169,0.165175 0.175142,-0.144743 0.318437,-0.407925 0.318437,-0.584848 z m -2.301046,0.01216 c 0,-0.627164 -0.939524,-1.098831 -1.235347,-0.620178 -0.0591,0.09563 0.04969,0.132775 0.241771,0.08255 0.427544,-0.111806 0.886986,0.395591 0.729595,0.805746 -0.06622,0.172572 -0.03461,0.250263 0.07442,0.182879 0.104256,-0.06443 0.189558,-0.267381 0.189558,-0.450993 z m 47.462198,-0.194627 c -0.623254,-1.120665 -1.348606,-2.45891 -1.611897,-2.973877 l -0.478712,-0.936304 0.615318,-0.549788 c 0.802951,-0.717436 0.992777,-0.693414 0.992777,0.125634 0,0.512237 0.176203,0.871286 0.729298,1.486093 0.63654,0.70756 2.338763,3.341196 2.338763,3.618472 0,0.05511 -0.326781,0.362804 -0.726179,0.683769 l -0.726179,0.583574 z m -51.22793,1.413995 c -0.09459,-0.246488 -0.902859,-0.28763 -5.65072,-0.28763 h -5.540345 l -0.02424,-0.719077 -0.02423,-0.719077 -0.201341,0.719077 -0.201341,0.719077 h -1.979596 -1.979596 l -0.0058,-1.006707 c -0.0047,-0.818225 -0.04483,-0.93959 -0.214108,-0.648219 -0.114553,0.197169 -0.166472,0.729394 -0.115375,1.182724 0.0788,0.699116 0.04581,0.807551 -0.217337,0.714328 -0.593587,-0.210284 -0.789626,-0.484625 -0.789626,-1.105019 0,-0.743598 0.389104,-1.118562 1.160741,-1.118562 0.310774,0 0.565043,-0.06255 0.565043,-0.139008 0,-0.229625 0.978551,-0.40216 1.216804,-0.214543 0.225941,0.177922 13.639852,0.448841 14.075563,0.284282 0.710018,-0.268159 0.01222,-0.442076 -1.773723,-0.442076 -1.788704,0 -2.013706,-0.03745 -2.016032,-0.335569 -0.0015,-0.184563 -0.05465,-0.529719 -0.118243,-0.767015 l -0.115613,-0.431446 h 11.623469 11.623471 v 0.862892 0.862892 h -0.961372 c -0.528754,0 -1.144053,-0.107861 -1.367329,-0.239692 -0.324768,-0.191754 -0.423319,-0.191754 -0.492763,0 -0.110741,0.305794 -0.523354,0.305794 -1.041268,0 -0.324767,-0.191754 -0.423319,-0.191754 -0.492763,0 -0.05699,0.157386 -0.503822,0.239692 -1.301243,0.239692 -0.800794,0 -1.241851,-0.08164 -1.294919,-0.239692 -0.06259,-0.186415 -0.196638,-0.177805 -0.603076,0.03874 -0.430903,0.229577 -0.591772,0.235225 -0.916876,0.03219 -0.282799,-0.17661 -0.452952,-0.187562 -0.601779,-0.03874 -0.297211,0.297212 -2.570712,0.269819 -2.672115,-0.03219 -0.06393,-0.190409 -0.17564,-0.191286 -0.543301,-0.0043 -0.261452,0.132992 -1.40159,0.258138 -2.620447,0.28763 -1.999495,0.04838 -2.157592,0.0259 -2.15723,-0.306839 3.84e-4,-0.307084 -0.04392,-0.322274 -0.305778,-0.104951 -0.244465,0.202888 -0.292486,0.555431 -0.238272,1.749264 l 0.0679,1.495166 h -0.822393 c -0.554126,0 -0.858398,-0.09383 -0.932767,-0.287631 z M 100.57591,20.081695 C 99.528076,19.59898 95.761377,16.837252 95.610851,16.44134 95.523181,16.210761 94.283523,15.224019 92.856044,14.24858 l -2.595412,-1.773525 h -1.251244 c -0.688183,0 -1.289349,-0.06472 -1.335922,-0.143815 -0.04657,-0.0791 -0.01129,-0.337966 0.07838,-0.575261 0.156961,-0.415313 0.251555,-0.431447 2.529731,-0.431447 2.317444,0 2.395011,0.01396 3.728992,0.671139 l 1.362319,0.671139 h 3.425288 c 2.789814,0 3.504364,0.05538 3.851474,0.298504 0.4142,0.290118 0.42617,0.397857 0.42617,3.835075 v 3.536573 l -1.00671,-0.01557 c -0.55369,-0.0086 -1.22563,-0.116428 -1.4932,-0.239693 z m 1.88415,-3.94935 c 0.0431,-1.382856 5.8e-4,-1.758515 -0.19176,-1.694761 -0.17238,0.05714 -0.26387,0.619237 -0.3025,1.85858 -0.0431,1.382856 -5.8e-4,1.758515 0.19175,1.694762 0.17239,-0.05714 0.26388,-0.619237 0.30251,-1.858581 z m -1.68529,-0.142714 v -1.471023 l -0.866264,-0.830022 -0.86625,-0.830023 h -2.111945 c -1.788691,0 -2.130593,0.04859 -2.233779,0.317498 -0.119664,0.311838 -0.01772,0.426897 1.251316,1.41241 l 0.512462,0.397967 -0.613677,-0.296922 c -0.759251,-0.367357 -0.852129,-0.367806 -1.31515,-0.0064 -0.355539,0.277551 -0.34981,0.285519 0.12787,0.177801 0.278418,-0.06278 0.820031,0.02091 1.22188,0.188812 0.86262,0.360426 0.930157,0.367624 0.752521,0.0802 -0.169852,-0.274826 -0.06308,-0.21043 2.022142,1.219524 0.89117,0.611133 1.732494,1.111151 1.869604,1.111151 0.18287,0 0.24927,-0.39187 0.24927,-1.471024 z m -2.109294,0.995536 c 0,-0.114556 -1.459263,-0.866789 -1.681492,-0.866789 -0.08951,0 -0.330242,0.130757 -0.534962,0.290572 -0.355809,0.27776 -0.350323,0.285638 0.124395,0.178673 0.273137,-0.06154 0.790873,0.01639 1.150522,0.173171 0.713827,0.31119 0.941537,0.365455 0.941537,0.224373 z m 3.451574,-3.276318 c 0,-0.353279 -0.45228,-0.850286 -0.77376,-0.850286 -0.45991,0 -0.47451,0.149425 -0.0594,0.608101 0.29701,0.328188 0.83318,0.484039 0.83318,0.242185 z M 91.618527,12.692987 c -0.342761,-0.293422 -0.6232,-0.63011 -0.6232,-0.748196 0,-0.118086 0.366729,-0.247733 0.814953,-0.288104 0.706845,-0.06366 0.66869,-0.07785 -0.28763,-0.106903 -1.372578,-0.0417 -1.454604,0.271419 -0.287631,1.097966 1.021188,0.72329 1.200245,0.744412 0.383508,0.04524 z m 11.960853,1.876499 c 0.0468,-3.312001 0.004,-6.0468811 -0.0997,-6.4237532 -0.20492,-0.7421819 -0.11983,-0.7831042 0.81565,-0.3922395 1.24839,0.5216104 1.51963,1.9835144 0.86338,4.6531977 -0.1259,0.51219 -0.24244,2.403202 -0.25898,4.202251 -0.0165,1.799049 -0.0936,3.373826 -0.1713,3.499507 -0.0777,0.125681 -0.38633,0.22851 -0.6859,0.22851 h -0.54468 z m -51.12657,3.08292 c 0,-0.368469 0.127837,-0.383508 3.259816,-0.383508 1.792897,0 3.259814,0.03608 3.259814,0.08019 0,0.04411 0.05238,0.216684 0.116393,0.383507 0.103418,0.269505 -0.259935,0.303314 -3.259815,0.303314 -3.248371,0 -3.376208,-0.01452 -3.376208,-0.383508 z m 20.855277,-0.403801 c -0.194867,-0.109975 -1.769341,-0.16481 -3.787365,-0.131904 -3.813796,0.06219 -3.685469,0.10815 -3.242877,-1.161466 l 0.21051,-0.603875 h 3.307215 c 3.006828,0 3.337191,0.03313 3.637261,0.364698 0.21492,0.237483 0.308896,0.601209 0.26941,1.042734 -0.052,0.581508 -0.108116,0.651241 -0.394154,0.489813 z m -44.73495,-0.373447 c -0.06866,-0.111091 -0.06528,-0.715116 0.0075,-1.342276 l 0.132339,-1.140291 h 2.000606 c 1.601424,0 2.022629,0.05739 2.11098,0.287631 0.06071,0.158196 0.22001,0.28763 0.35401,0.28763 0.134001,0 0.351057,-0.129434 0.482349,-0.28763 0.356365,-0.429395 9.99834,-0.429395 10.354705,0 0.30577,0.368431 0.694979,0.368431 0.836359,0 0.09246,-0.240957 0.671441,-0.287631 3.567961,-0.287631 h 3.457586 l -0.0021,1.198461 -0.0021,1.198461 -0.491157,-0.6232 c -0.65094,-0.825964 -0.979566,-0.787552 -1.230357,0.143816 -0.187227,0.695303 -0.264111,0.766334 -0.822344,0.759738 -0.497333,-0.0059 -0.716912,-0.153446 -1.141311,-0.767015 -0.672023,-0.971571 -1.033129,-0.969544 -1.29616,0.0073 l -0.206536,0.767015 -1.19107,-0.0073 c -1.168424,-0.0072 -1.201063,-0.02172 -1.716572,-0.767016 -0.672022,-0.971571 -1.033129,-0.969544 -1.29616,0.0073 l -0.206536,0.767015 -2.341592,-0.0073 -2.341594,-0.0073 -0.525501,-0.759738 c -0.672075,-0.97157 -1.033182,-0.969543 -1.296213,0.0073 -0.199953,0.742571 -0.232271,0.766783 -1.014098,0.759738 -0.721169,-0.0065 -0.863782,-0.08856 -1.333065,-0.767015 -0.672022,-0.971571 -1.033129,-0.969544 -1.296159,0.0073 -0.177355,0.658645 -0.279996,0.765986 -0.726467,0.759738 -0.385295,-0.0054 -0.656013,-0.204016 -1.045434,-0.767015 -0.672023,-0.971571 -1.03313,-0.969544 -1.29616,0.0073 -0.21854,0.811596 -0.285315,0.889274 -0.485709,0.565029 z m 3.170262,-0.102847 c 0,-0.0622 -0.194151,-0.275045 -0.431446,-0.473005 l -0.431446,-0.359926 0.415467,-0.0064 c 0.228505,-0.0035 0.45899,0.101482 0.512184,0.233313 0.05319,0.131831 0.10353,0.04554 0.111856,-0.191754 0.01327,-0.37804 -0.0798,-0.431445 -0.751876,-0.431445 -0.421859,0 -0.767016,0.0514 -0.767016,0.114213 0,0.283616 0.821123,1.228062 1.067703,1.228062 0.151015,0 0.274574,-0.05088 0.274574,-0.113078 z m 17.903997,-0.318367 c 0.217717,-0.812408 0.147896,-0.91083 -0.646154,-0.91083 -0.421858,0 -0.767015,0.0514 -0.767015,0.114214 0,0.270203 0.815339,1.228062 1.045338,1.228062 0.138715,0 0.30424,-0.194151 0.367831,-0.431446 z m -0.837908,-0.239692 c -0.199437,-0.240306 -0.17175,-0.287631 0.168276,-0.287631 0.233929,0 0.406985,0.122305 0.406985,0.287631 0,0.158196 -0.07573,0.28763 -0.168275,0.28763 -0.09255,0 -0.275694,-0.129434 -0.406986,-0.28763 z m -6.423752,-0.479385 c 0.07687,-0.124377 -0.832715,-0.191753 -2.588677,-0.191753 -1.755962,0 -2.665547,0.06738 -2.588676,0.191753 0.06908,0.111779 1.148741,0.191754 2.588676,0.191754 1.439935,0 2.519594,-0.07998 2.588677,-0.191754 z m -12.712032,1.205856 c -0.351009,-0.0672 -0.413941,-0.168375 -0.311749,-0.501209 0.193466,-0.630104 0.266852,-0.644077 0.664511,-0.12652 0.384528,0.500465 0.472562,0.781928 0.230841,0.738037 -0.0791,-0.01436 -0.341721,-0.064 -0.583603,-0.110308 z m 2.647892,-0.199148 c 0.0015,-0.184563 0.08854,-0.465003 0.193165,-0.6232 0.161192,-0.243726 0.247903,-0.214456 0.568061,0.191754 0.512159,0.649814 0.483295,0.767015 -0.1889,0.767015 -0.421151,0 -0.574475,-0.0899 -0.572326,-0.335569 z m 4.071833,0.200242 c -0.462679,-0.08912 -0.540627,-0.361847 -0.235345,-0.823442 0.161192,-0.243726 0.247903,-0.214456 0.568061,0.191754 0.394255,0.500221 0.487612,0.7854 0.242545,0.740902 -0.0791,-0.01436 -0.337966,-0.06351 -0.575261,-0.109214 z m 6.703042,-0.0011 c -0.35101,-0.06719 -0.41394,-0.168374 -0.31175,-0.501207 0.186331,-0.606862 0.224232,-0.613249 0.644487,-0.108611 0.397414,0.477212 0.497645,0.764937 0.250866,0.720128 -0.0791,-0.01437 -0.341721,-0.064 -0.583603,-0.110307 z m 4.410338,0 c -0.35101,-0.06719 -0.413942,-0.168374 -0.31175,-0.501207 0.193467,-0.630105 0.266852,-0.644077 0.664512,-0.126521 0.384527,0.500466 0.472562,0.781928 0.230841,0.738038 -0.07909,-0.01437 -0.341721,-0.064 -0.583603,-0.110307 z m 3.259814,0 c -0.351008,-0.06719 -0.41394,-0.168374 -0.311748,-0.501207 0.18633,-0.606862 0.22423,-0.613249 0.644486,-0.108611 0.397413,0.477212 0.497644,0.764937 0.250865,0.720128 -0.0791,-0.01437 -0.34172,-0.064 -0.583603,-0.110307 z m 1.686187,-0.635228 v -0.771652 l 3.211877,0.05257 3.211876,0.05257 0.05951,0.719077 0.05952,0.719076 h -3.271387 -3.271392 z m 11.082702,-0.571838 c -0.321495,-0.564988 -0.351763,-0.57407 -1.917539,-0.57536 l -1.590887,-0.0013 -0.456163,-0.669828 -0.456164,-0.669828 H 55.87524 52.635723 l 0.314106,-0.479385 0.314104,-0.479384 4.723853,0.0024 4.723853,0.0024 0.433209,0.668765 c 0.408134,0.630053 0.494153,0.668764 1.486092,0.668764 h 1.052883 v 1.054642 1.054646 l -0.91083,-0.0012 c -0.810454,-0.0011 -0.946829,-0.06447 -1.237481,-0.575259 z m 9.896163,-0.379055 c -0.142376,-0.143889 -1.33303,-0.193975 -3.699882,-0.155637 -3.461165,0.05607 -3.490823,0.05304 -3.595929,-0.366688 -0.214776,-0.857698 -0.150839,-0.871872 3.769382,-0.83563 2.049522,0.01894 3.755943,0.06399 3.792042,0.100089 0.0361,0.0361 0.03834,0.381627 0.005,0.767836 -0.04409,0.510279 -0.118038,0.644209 -0.270594,0.49003 z m 0.7267,-0.290861 c 0.0039,-0.316394 0.04689,-0.422613 0.0955,-0.236043 0.04861,0.18657 0.04542,0.445438 -0.0071,0.575262 -0.05252,0.129823 -0.0923,-0.02282 -0.08839,-0.339219 z M 52.4886,14.728166 l 0.06009,-0.6232 3.163938,-0.01775 c 3.300266,-0.01851 3.443074,0.01597 3.448633,0.832703 0.0029,0.43116 7.92e-4,0.431446 -3.364905,0.431446 H 52.428511 Z M 26.374292,13.05032 v -0.767015 h 0.95877 0.958769 v 0.767015 0.767015 h -0.958769 -0.95877 z m 2.301046,-0.09588 v -0.862892 h 1.821661 1.821661 v 0.862892 0.862892 h -1.821661 -1.821661 z m 4.02683,0 v -0.862892 h 4.9856 4.985598 v 0.862892 0.862892 h -4.985598 -4.9856 z m 10.162952,0 v -0.862892 h 2.121208 2.121205 l -0.619681,0.862892 -0.619683,0.862892 H 44.366644 42.86512 Z m 4.022894,0.100848 c 0.336282,-0.424592 0.677087,-0.771986 0.757345,-0.771986 0.08026,0 0.302101,0.172578 0.49299,0.383508 0.190889,0.210928 0.527848,0.382235 0.748798,0.38068 0.37769,-0.0027 0.374282,-0.017 -0.05695,-0.239692 -0.252273,-0.130276 -0.576738,-0.416491 -0.721032,-0.636032 -0.24138,-0.367252 -0.139213,-0.562724 1.277819,-2.4448613 0.847096,-1.1251323 1.581976,-2.0456948 1.633065,-2.0456948 0.05109,0 0.571045,1.0137146 1.155457,2.2526988 0.882178,1.8702633 1.029164,2.3260133 0.865803,2.6845533 -0.130255,0.285876 -0.376406,0.439374 -0.728201,0.454098 -0.344015,0.0144 -0.409347,0.05389 -0.185253,0.111981 0.1904,0.04936 0.312736,0.190352 0.271863,0.313326 -0.05139,0.154619 -1.007239,0.239909 -3.098722,0.276498 l -3.024405,0.05291 z m 4.366335,-0.02033 c -0.227945,-0.132766 -0.443192,-0.132766 -0.671138,0 -0.273767,0.159454 -0.211965,0.195451 0.335569,0.195451 0.547534,0 0.609336,-0.036 0.335569,-0.195451 z m 12.103022,0.111236 c -0.344958,-0.58466 -0.492374,-0.671139 -1.144057,-0.671139 -0.411441,0 -0.748074,-0.08629 -0.748074,-0.191754 0,-0.105464 -0.266059,-0.191753 -0.591241,-0.191753 -0.325183,0 -0.562479,-0.07799 -0.527322,-0.173304 0.03516,-0.09532 0.452218,-1.130156 0.92681,-2.2996413 l 0.862891,-2.1263362 0.958769,-9.48e-5 c 0.868442,-8.63e-5 0.999059,0.059088 1.386409,0.6281057 0.235203,0.3455112 0.709795,0.9345383 1.054646,1.3089503 l 0.627007,0.6807483 8.916551,-0.08542 c 7.239729,-0.06936 8.973483,-0.1354563 9.219282,-0.3514913 0.519544,-0.4566308 2.002756,-0.3320236 2.868656,0.241002 0.445833,0.2950383 0.985348,0.4891933 1.290227,0.4643133 0.288193,-0.02352 3.759832,-0.102768 7.714755,-0.17611 l 7.19077,-0.13335 -6.96828,-0.04333 C 89.504901,9.98274 89.423126,9.97761 89.090454,9.5667737 88.699104,9.0834761 88.13794,9.1973479 87.982542,9.7915897 87.887652,10.154463 87.842017,10.144498 87.100078,9.5988687 86.486983,9.1479931 86.118393,9.0234887 85.396691,9.0234887 H 84.475697 V 7.8729689 c 0,-1.372169 -0.02038,-1.3683583 3.451569,-0.6456075 0.369126,0.07684 3.857274,0.1712775 7.751438,0.2098598 7.995536,0.079218 7.456976,-0.036679 7.692646,1.6554295 0.0714,0.512628 0.0688,1.6640393 -0.006,2.5586893 l -0.1355,1.626637 -0.51911,-0.497335 -0.5191,-0.497336 h -3.465074 -3.465078 l -1.472717,-0.671139 c -1.421007,-0.647573 -1.553279,-0.671137 -3.76725,-0.671137 -2.261419,0 -2.297685,0.0069 -2.512955,0.479384 -0.173455,0.380694 -0.360122,0.479989 -0.90672,0.482321 -0.897051,0.0038 -1.35257,0.272384 -1.022263,0.602691 0.130949,0.130949 0.238089,0.436555 0.238089,0.679123 v 0.441033 h -5.56086 c -5.312141,0 -5.56086,-0.0161 -5.56086,-0.360027 0,-0.753847 -0.35658,-0.808631 -4.726498,-0.726162 -4.597246,0.08676 -4.724546,0.0978 -4.600211,0.399072 0.378649,0.917474 0.406338,0.878872 -0.630442,0.878872 -0.923312,0 -1.010832,-0.04251 -1.381732,-0.671139 z m 18.050266,-0.379855 c 0,-0.560671 -0.463182,-0.730781 -1.741166,-0.639469 -0.764326,0.05461 -0.853467,0.112312 -0.908186,0.587878 l -0.06068,0.527323 h 1.355013 c 1.314737,0 1.355013,-0.01414 1.355015,-0.475732 z M 65.03537,11.772936 c -0.16223,-0.299352 -0.298415,-0.483619 -0.302637,-0.409483 -0.01298,0.227933 0.433126,1.118229 0.517861,1.033493 0.04385,-0.04385 -0.05299,-0.324659 -0.215224,-0.62401 z m 9.181499,-0.448399 c -0.07149,-0.115669 -1.411959,-0.191754 -3.378325,-0.191754 -2.124381,0 -3.218538,0.06679 -3.141305,0.191754 0.07149,0.115669 1.411958,0.191754 3.378324,0.191754 2.124381,0 3.218538,-0.06679 3.141306,-0.191754 z m -7.957784,1.629908 c 0.131293,-0.158197 0.44387,-0.287631 0.694617,-0.287631 0.277414,0 0.455906,0.112611 0.455906,0.287631 0,0.202737 -0.205015,0.28763 -0.694617,0.28763 -0.595697,0 -0.660622,-0.04096 -0.455906,-0.28763 z m 1.725784,0 c 0,-0.235488 0.330243,-0.287631 1.821661,-0.287631 1.49142,0 1.821662,0.05214 1.821662,0.287631 0,0.235487 -0.330242,0.28763 -1.821662,0.28763 -1.491418,0 -1.821661,-0.05214 -1.821661,-0.28763 z m 4.218584,0 c 0,-0.38189 1.138761,-0.386122 1.641196,-0.0061 0.34271,0.259212 0.292408,0.282015 -0.634489,0.28763 -0.769724,0.0046 -1.006707,-0.06161 -1.006707,-0.281532 z M 3.4356283,11.98583 c -0.558198,-0.851917 -0.221881,-0.942385 3.772635,-1.014824 l 3.6339707,-0.0659 V 10.443683 9.9822597 H 7.0071573 c -3.525736,0 -3.834839,-0.02707 -3.83214,-0.335569 0.0071,-0.8050796 0.121647,-0.824623 5.0933711,-0.8685784 l 4.7790136,-0.042253 v 1.4381527 c 0,0.790985 0.07054,1.632305 0.156738,1.8696 l 0.156737,0.431446 H 8.5585314 3.7561843 Z M 13.699021,12.163909 C 13.40679,11.811793 13.235502,9.4333467 13.476919,9.0798769 c 0.139707,-0.2045525 1.244906,-0.3405541 2.212023,-0.272204 0.314967,0.022264 0.31856,0.06648 0.04794,0.5898038 -0.367362,0.7103983 -0.374186,1.8619213 -0.01512,2.5502603 l 0.275078,0.527323 h -1.019794 c -0.706817,0 -1.099049,-0.09549 -1.278028,-0.311151 z m 38.78266,-2.13371 -1.196989,-2.4448611 2.719885,-0.053362 c 1.495934,-0.029352 2.75637,-0.016879 2.800968,0.027721 0.1083,0.1082992 -2.015211,4.3310221 -2.342615,4.6584261 -0.141319,0.141318 -0.375589,0.256941 -0.520601,0.256941 -0.147338,0 -0.791755,-1.078638 -1.460648,-2.444861 z m 3.230945,2.253107 c 0,-0.105465 -0.129434,-0.191754 -0.287631,-0.191754 -0.158197,0 -0.289109,-0.06472 -0.290918,-0.143815 -0.0017,-0.0791 0.442865,-1.114569 0.988164,-2.3010463 l 0.991451,-2.15723 h 2.388043 c 1.833145,0 2.366021,0.055696 2.293272,0.2396922 -0.05213,0.1318307 -0.501781,1.2535909 -0.999237,2.4927991 l -0.904462,2.253108 h -2.089341 c -1.265059,0 -2.089341,-0.07565 -2.089341,-0.191754 z m -39.69696,-0.774341 c -0.115042,-0.214959 -0.182795,-0.754266 -0.150562,-1.198462 l 0.0586,-0.8076273 6.18406,-0.05059 6.184061,-0.05059 v 1.2490563 1.249056 h -6.0335 c -5.874945,0 -6.038994,-0.01027 -6.242665,-0.390834 z M 28.675338,9.3111222 c 0,-2.4608405 0.01895,-2.5886765 0.383508,-2.5886765 0.243466,0 0.383507,-0.1278359 0.383507,-0.3500828 0,-0.3627768 0.745741,-1.1839479 1.075193,-1.1839479 0.103169,0 0.183897,-0.4530182 0.179395,-1.0067079 C 30.690741,3.4235231 30.757821,3.175 30.968522,3.175 c 0.155856,0 0.333912,0.2547921 0.402008,0.5752615 0.06723,0.3163934 0.308064,0.9014706 0.535185,1.3001705 0.558791,0.980934 0.531608,1.2878449 -0.114378,1.2914418 -0.290027,0.00159 -0.656756,0.086583 -0.814953,0.1888176 -0.324302,0.2095808 -0.66658,0.2024196 10.067075,0.210615 10.440418,0.00797 9.875321,0.025011 9.875321,-0.2977307 0,-0.2108476 0.315715,-0.2926996 1.294339,-0.3355686 l 1.294338,-0.056697 0.05796,-1.0067079 c 0.03188,-0.5536888 0.150305,-1.0067071 0.26317,-1.0067071 0.130892,0 0.118759,-0.1041704 -0.0335,-0.2876307 -0.211173,-0.2544471 0.350247,-0.2876307 4.866244,-0.2876307 h 5.104955 v 0.767015 0.7670157 H 58.87656 53.986838 v 0.5752615 0.5752613 l 1.294339,0.032751 c 0.711885,0.01801 2.275317,0.015937 3.474293,-0.00464 1.336428,-0.022909 2.276645,0.042876 2.429835,0.17001 0.181016,0.1502303 0.359711,0.1387925 0.648414,-0.041506 0.326679,-0.2040154 0.470387,-0.2040154 0.797067,0 0.286756,0.1790823 0.468023,0.1912166 0.646296,0.043267 0.287976,-0.239 3.872271,-0.2247661 4.353048,0.017285 0.217475,0.1094906 0.35237,0.06556 0.431445,-0.1405058 0.157867,-0.4113981 0.162168,-0.4031375 -0.268462,-0.5157503 -0.593429,-0.1551847 -0.491626,-0.8370284 0.143815,-0.9632264 0.67453,-0.1339615 3.483935,0.071445 3.602567,0.2633947 0.04947,0.080037 0.03728,0.282743 -0.02707,0.4504571 -0.08517,0.2219396 -0.375465,0.3049353 -1.066586,0.3049353 -0.522263,0 -0.901247,0.078188 -0.842184,0.1737518 0.05906,0.095564 0.284974,0.1273112 0.50203,0.070546 0.289953,-0.075824 0.423007,0.00529 0.501557,0.3056325 0.09996,0.3822497 0.229311,0.4088353 1.989164,0.4088353 1.784939,0 1.889092,-0.022308 2.014519,-0.4314465 0.24447,-0.7974388 0.457159,-0.9273243 0.969161,-0.5918477 0.36179,0.2370533 0.41703,0.3627644 0.248593,0.565718 -0.274144,0.3303236 -0.08839,0.8410833 0.305892,0.8410833 0.164905,0 0.361765,-0.1553404 0.437463,-0.345201 0.118901,-0.2982112 0.228994,-0.3177878 0.808776,-0.143815 0.474168,0.1422814 0.671137,0.3131691 0.671137,0.5822668 0,0.5339186 0.668397,0.6297951 0.802972,0.1151805 0.07958,-0.3043186 0.257077,-0.4001848 0.740941,-0.4001848 0.34996,0 0.844207,-0.07905 1.098327,-0.1756659 0.25412,-0.096616 1.165775,-0.1274315 2.025898,-0.068474 l 1.563862,0.1071896 v 0.7396149 0.7396147 h -1.810344 c -1.000054,0 -1.863389,0.085827 -1.928856,0.1917543 -0.06783,0.1097567 -1.056636,0.1917536 -2.312363,0.1917536 H 76.038528 V 8.1605809 7.6811959 h -2.594693 c -2.129506,0 -2.614486,-0.051565 -2.70507,-0.2876307 -0.162238,-0.4227844 -3.520913,-0.4227844 -3.520913,0 0,0.4166451 -2.724108,0.4144382 -3.070126,-0.00246 -0.20787,-0.2504691 -1.134569,-0.2832265 -6.780822,-0.2396929 l -6.54005,0.050428 -1.785426,2.3489844 -1.785423,2.3489833 h -9.290333 -9.290334 z m 3.331889,1.7773208 c 0.160822,-0.255378 0.135814,-0.405214 -0.108394,-0.649421 -0.574439,-0.5744383 -1.431465,0.176311 -0.913598,0.800304 0.298156,0.359257 0.742001,0.293729 1.021992,-0.150883 z m 1.917538,0 c 0.160822,-0.255378 0.135814,-0.405214 -0.108394,-0.649421 -0.574439,-0.5744383 -1.431465,0.176311 -0.913598,0.800304 0.298156,0.359257 0.742001,0.293729 1.021992,-0.150883 z m 1.917539,0 c 0.160822,-0.255378 0.135813,-0.405214 -0.108395,-0.649421 -0.574439,-0.5744383 -1.431465,0.176311 -0.913598,0.800304 0.298156,0.359257 0.742001,0.293729 1.021993,-0.150883 z m 1.917537,0 c 0.160823,-0.255378 0.135814,-0.405214 -0.108394,-0.649421 -0.574439,-0.5744383 -1.431465,0.176311 -0.913598,0.800304 0.298157,0.359257 0.742001,0.293729 1.021992,-0.150883 z m 1.917539,0 c 0.160821,-0.255378 0.135813,-0.405214 -0.108395,-0.649421 -0.574439,-0.5744383 -1.431465,0.176311 -0.913598,0.800304 0.298156,0.359257 0.742002,0.293729 1.021993,-0.150883 z m 1.917538,0 c 0.160822,-0.255378 0.135814,-0.405214 -0.108395,-0.649421 -0.574438,-0.5744383 -1.431465,0.176311 -0.913597,0.800304 0.298156,0.359257 0.742,0.293729 1.021992,-0.150883 z m 1.917538,0 c 0.160822,-0.255378 0.135813,-0.405214 -0.108395,-0.649421 -0.574439,-0.5744383 -1.431465,0.176311 -0.913597,0.800304 0.298156,0.359257 0.742001,0.293729 1.021992,-0.150883 z m 1.917538,0 c 0.160822,-0.255378 0.135813,-0.405214 -0.108395,-0.649421 -0.574438,-0.5744383 -1.431465,0.176311 -0.913598,0.800304 0.298157,0.359257 0.742002,0.293729 1.021993,-0.150883 z m 1.917538,0 c 0.160822,-0.255378 0.135814,-0.405214 -0.108394,-0.649421 -0.574439,-0.5744383 -1.431466,0.176311 -0.913598,0.800304 0.298156,0.359257 0.742001,0.293729 1.021992,-0.150883 z M 32.582489,8.9791454 c 0.160822,-0.2553783 0.135813,-0.4052137 -0.108395,-0.649421 -0.574439,-0.5744382 -1.431465,0.1763115 -0.913597,0.8003044 0.298156,0.3592569 0.742,0.2937289 1.021992,-0.1508834 z m 1.917538,0 c 0.160822,-0.2553783 0.135813,-0.4052137 -0.108395,-0.649421 -0.574439,-0.5744382 -1.431465,0.1763115 -0.913597,0.8003044 0.298156,0.3592569 0.742001,0.2937289 1.021992,-0.1508834 z m 1.917538,0 c 0.160822,-0.2553783 0.135814,-0.4052137 -0.108395,-0.649421 -0.574438,-0.5744382 -1.431465,0.1763115 -0.913597,0.8003044 0.298156,0.3592569 0.742001,0.2937289 1.021992,-0.1508834 z m 1.917538,0 c 0.160822,-0.2553783 0.135813,-0.4052137 -0.108395,-0.649421 -0.574438,-0.5744382 -1.431465,0.1763115 -0.913597,0.8003044 0.298156,0.3592569 0.742001,0.2937289 1.021992,-0.1508834 z m 1.917538,0 c 0.160822,-0.2553783 0.135813,-0.4052137 -0.108395,-0.649421 -0.574438,-0.5744382 -1.431465,0.1763115 -0.913597,0.8003044 0.298156,0.3592569 0.742001,0.2937289 1.021992,-0.1508834 z m 1.917538,0 c 0.160822,-0.2553783 0.135814,-0.4052137 -0.108394,-0.649421 -0.574439,-0.5744382 -1.431466,0.1763115 -0.913598,0.8003044 0.298156,0.3592569 0.742001,0.2937289 1.021992,-0.1508834 z m 1.917539,0 c 0.160822,-0.2553783 0.135813,-0.4052137 -0.108396,-0.649421 -0.574438,-0.5744382 -1.431464,0.1763115 -0.913597,0.8003044 0.298156,0.3592569 0.742001,0.2937289 1.021993,-0.1508834 z m 1.917537,0 c 0.160822,-0.2553783 0.135813,-0.4052137 -0.108394,-0.649421 -0.574439,-0.5744382 -1.431465,0.1763115 -0.913598,0.8003044 0.298156,0.3592569 0.742001,0.2937289 1.021992,-0.1508834 z m 1.917538,0 C 48.083616,8.7237671 48.058607,8.5739317 47.8144,8.3297244 47.239961,7.7552862 46.382933,8.5060359 46.900801,9.1300288 47.198958,9.4892857 47.642802,9.4237577 47.922793,8.9791454 Z M 68.703947,8.7456367 C 68.202989,8.1937141 67.793116,7.6421422 67.793116,7.5199215 c 0,-0.3593197 2.614743,-0.2972139 2.753897,0.065415 0.08994,0.2343849 0.552843,0.2876307 2.500577,0.2876307 h 2.390206 l 0.06068,0.5273228 0.06068,0.5273229 2.348984,0.053841 c 2.190684,0.05021 2.348984,0.079288 2.348984,0.4314468 0,0.367063 -0.148557,0.377028 -5.321168,0.35692 l -5.321168,-0.02068 z m 2.450037,0.2615358 c 0.18363,-0.5785655 -0.529783,-1.2535162 -1.48668,-1.4065303 -1.143292,-0.1828197 -1.291744,0.110306 -0.51386,1.0146401 0.772756,0.8983714 1.777332,1.0951594 2.00054,0.3918902 z m -1.520337,-0.398444 c -0.540367,-0.7714838 0.16425,-1.0377317 0.836552,-0.3161006 0.512548,0.550155 0.493378,0.7308585 -0.07753,0.7308585 -0.262901,0 -0.596001,-0.1820189 -0.759017,-0.4147579 z M 80.64062,9.5185537 c 0,-0.1495712 -0.05238,-0.4084385 -0.116392,-0.5752618 -0.101403,-0.2642528 0.13319,-0.3033133 1.821662,-0.3033133 1.065931,0 1.938054,0.039085 1.938054,0.086854 0,0.047768 -0.10014,0.3066377 -0.222535,0.5752614 -0.212568,0.4665407 -0.294127,0.4884077 -1.821661,0.4884077 -1.252624,0 -1.599128,-0.05893 -1.599128,-0.271948 z M 65.348255,8.8387331 C 65.11096,8.5378607 64.916809,8.2406228 64.916809,8.1782047 c 0,-0.062415 0.632127,-0.1134876 1.404728,-0.1134876 1.250444,0 1.454191,0.052652 1.855086,0.4793843 l 0.450359,0.479385 h -0.992195 c -0.545708,0 -0.992194,0.086289 -0.992194,0.1917535 0,0.4027498 -0.882124,0.1461509 -1.294338,-0.3765068 z M 26.377228,8.6879171 c 0.0058,-0.6655472 0.276824,-0.8360761 1.115534,-0.701961 0.677113,0.1082753 0.799069,0.1972 0.799069,0.582653 0,0.4180163 -0.07769,0.4548773 -0.958769,0.4548773 -0.786396,0 -0.958242,-0.060334 -0.955834,-0.3355693 z M 78.377415,6.3409476 c -0.664708,-0.075496 -1.290989,-0.219693 -1.391733,-0.3204382 -0.195449,-0.1954476 0.904167,-1.7908688 1.234325,-1.7908688 0.202931,0 2.000983,1.1117704 2.369251,1.4649531 0.129947,0.1246239 0.34567,0.2708696 0.479384,0.3249888 0.185729,0.075172 0.175221,0.146416 -0.04452,0.3018153 -0.315302,0.2229854 -0.822568,0.2267323 -2.646713,0.019554 z M 75.798837,5.5407997 C 75.508809,5.4348726 75.271514,5.2795886 75.271514,5.1957233 c 0,-0.2605567 2.057459,-1.9248512 2.379567,-1.9248512 0.359035,0 0.361955,0.016952 0.114859,0.6668633 -0.197307,0.5189543 -1.175758,1.837331 -1.343903,1.8107919 -0.05274,-0.00833 -0.333173,-0.1018005 -0.6232,-0.2077276 z"
       id="path879" />
  </g>
</svg>
