<?xml version="1.0" encoding="UTF-8" standalone="no"?>
<svg
   xmlns:dc="http://purl.org/dc/elements/1.1/"
   xmlns:cc="http://creativecommons.org/ns#"
   xmlns:rdf="http://www.w3.org/1999/02/22-rdf-syntax-ns#"
   xmlns:svg="http://www.w3.org/2000/svg"
   xmlns="http://www.w3.org/2000/svg"
   xmlns:sodipodi="http://sodipodi.sourceforge.net/DTD/sodipodi-0.dtd"
   xmlns:inkscape="http://www.inkscape.org/namespaces/inkscape"
   version="1.1"
   id="svg2"
   width="512"
   height="512"
   viewBox="0 0 512 512"
   sodipodi:docname="Disruptor_Rounds.svg"
   inkscape:version="1.0.1 (3bc2e813f5, 2020-09-07)">
  <metadata
     id="metadata8">
    <rdf:RDF>
      <cc:Work
         rdf:about="">
        <dc:format>image/svg+xml</dc:format>
        <dc:type
           rdf:resource="http://purl.org/dc/dcmitype/StillImage" />
        <dc:title></dc:title>
      </cc:Work>
    </rdf:RDF>
  </metadata>
  <defs
     id="defs6" />
  <sodipodi:namedview
     pagecolor="#ffffff"
     bordercolor="#666666"
     borderopacity="1"
     objecttolerance="10"
     gridtolerance="10"
     guidetolerance="10"
     inkscape:pageopacity="0"
     inkscape:pageshadow="2"
     inkscape:window-width="1600"
     inkscape:window-height="837"
     id="namedview4"
     showgrid="false"
     fit-margin-top="0"
     fit-margin-left="0"
     fit-margin-right="0"
     fit-margin-bottom="0"
     inkscape:pagecheckerboard="true"
     inkscape:zoom="1"
     inkscape:cx="190.12753"
     inkscape:cy="226.24442"
     inkscape:window-x="-8"
     inkscape:window-y="-8"
     inkscape:window-maximized="1"
     inkscape:current-layer="layer1"
     inkscape:document-rotation="0" />
  <style
     id="style817"
     type="text/css">
	.st0{fill:#241C1C;}
</style>
  <g
     id="g887"
     transform="matrix(1.5459861,0,0,1.529688,49.846252,66.406214)">
    <g
       id="g869">
      <g
         id="g831" />
      <g
         id="g843" />
      <g
         id="g855" />
      <g
         id="g867" />
    </g>
  </g>
  <g
     inkscape:groupmode="layer"
     id="layer1"
     inkscape:label="Layer 1"
     style="display:inline"
     transform="translate(26.360098,43.689682)">
    <g
       id="g909"
       transform="matrix(2.9393148,0,0,2.9393148,64.101394,96.79957)">
      <g
         style="display:inline;fill:#273839;fill-opacity:1"
         id="g1064"
         transform="matrix(2.9292225,0,0,2.981741,-96.25537,-112.81717)">
        <path
           style="display:inline;fill:#273839;fill-opacity:1"
           inkscape:connector-curvature="0"
           class="st0"
           d="M 30.8,2.3 H 6.2 C 4.7,3.8 3.8,4.7 2.3,6.2 v 24.6 c 1.5,1.5 2.4,2.4 3.9,3.9 h 24.6 c 1.5,-1.5 2.4,-2.4 3.9,-3.9 V 6.2 C 33.2,4.7 32.3,3.8 30.8,2.3 Z M 32.2,30 c -0.8,0.8 -1.3,1.3 -2.1,2.1 H 6.9 C 6.1,31.3 5.6,30.8 4.8,30 V 7.2 C 5.6,6.3 6.1,5.9 6.9,5 h 18.3 c 2.7,2.7 4.3,4.3 7,7 z"
           id="path819"
           transform="matrix(1.5459861,0,0,1.529688,23.486154,22.716532)" />
        <path
           style="display:inline;fill:#273839;fill-opacity:1"
           inkscape:connector-curvature="0"
           class="st0"
           d="M 7.2,2 V 1.1 C 7.2,0.7 7.6,0.3 8,0.3 h 2.4 c 0.4,0 0.8,0.4 0.8,0.8 V 2 Z"
           id="path821"
           transform="matrix(1.5459861,0,0,1.529688,23.486154,22.716532)" />
        <path
           style="display:inline;fill:#273839;fill-opacity:1"
           inkscape:connector-curvature="0"
           class="st0"
           d="M 11.8,2 V 1.1 c 0,-0.4 0.4,-0.8 0.8,-0.8 H 15 c 0.4,0 0.8,0.4 0.8,0.8 V 2 Z"
           id="path823"
           transform="matrix(1.5459861,0,0,1.529688,23.486154,22.716532)" />
        <path
           style="display:inline;fill:#273839;fill-opacity:1"
           inkscape:connector-curvature="0"
           class="st0"
           d="M 16.5,2 V 1.1 c 0,-0.4 0.4,-0.8 0.8,-0.8 h 2.4 c 0.4,0 0.8,0.4 0.8,0.8 V 2 Z"
           id="path825"
           transform="matrix(1.5459861,0,0,1.529688,23.486154,22.716532)" />
        <path
           style="display:inline;fill:#273839;fill-opacity:1"
           inkscape:connector-curvature="0"
           class="st0"
           d="M 25.7,2 V 1.1 c 0,-0.4 0.4,-0.8 0.8,-0.8 h 2.4 c 0.4,0 0.8,0.4 0.8,0.8 V 2 Z"
           id="path827"
           transform="matrix(1.5459861,0,0,1.529688,23.486154,22.716532)" />
        <path
           style="display:inline;fill:#273839;fill-opacity:1"
           inkscape:connector-curvature="0"
           class="st0"
           d="M 21.1,2 V 1.1 c 0,-0.4 0.4,-0.8 0.8,-0.8 h 2.4 c 0.4,0 0.8,0.4 0.8,0.8 V 2 Z"
           id="path829"
           transform="matrix(1.5459861,0,0,1.529688,23.486154,22.716532)" />
        <path
           style="display:inline;fill:#273839;fill-opacity:1"
           inkscape:connector-curvature="0"
           class="st0"
           d="m 7.1,35 v 0.9 c 0,0.4 0.4,0.8 0.8,0.8 h 2.4 c 0.4,0 0.8,-0.4 0.8,-0.8 V 35 Z"
           id="path833"
           transform="matrix(1.5459861,0,0,1.529688,23.486154,22.716532)" />
        <path
           style="display:inline;fill:#273839;fill-opacity:1"
           inkscape:connector-curvature="0"
           class="st0"
           d="m 11.8,35 v 0.9 c 0,0.4 0.4,0.8 0.8,0.8 H 15 c 0.4,0 0.8,-0.4 0.8,-0.8 V 35 Z"
           id="path835"
           transform="matrix(1.5459861,0,0,1.529688,23.486154,22.716532)" />
        <path
           style="display:inline;fill:#273839;fill-opacity:1"
           inkscape:connector-curvature="0"
           class="st0"
           d="m 16.4,35 v 0.9 c 0,0.4 0.4,0.8 0.8,0.8 h 2.4 c 0.4,0 0.8,-0.4 0.8,-0.8 V 35 Z"
           id="path837"
           transform="matrix(1.5459861,0,0,1.529688,23.486154,22.716532)" />
        <path
           style="display:inline;fill:#273839;fill-opacity:1"
           inkscape:connector-curvature="0"
           class="st0"
           d="m 25.7,35 v 0.9 c 0,0.4 0.4,0.8 0.8,0.8 h 2.4 c 0.4,0 0.8,-0.4 0.8,-0.8 V 35 Z"
           id="path839"
           transform="matrix(1.5459861,0,0,1.529688,23.486154,22.716532)" />
        <path
           style="display:inline;fill:#273839;fill-opacity:1"
           inkscape:connector-curvature="0"
           class="st0"
           d="m 21,35 v 0.9 c 0,0.4 0.4,0.8 0.8,0.8 h 2.4 c 0.4,0 0.8,-0.4 0.8,-0.8 V 35 Z"
           id="path841"
           transform="matrix(1.5459861,0,0,1.529688,23.486154,22.716532)" />
        <path
           style="display:inline;fill:#273839;fill-opacity:1"
           inkscape:connector-curvature="0"
           class="st0"
           d="M 2,29.8 H 1.1 C 0.7,29.8 0.3,29.4 0.3,29 v -2.4 c 0,-0.4 0.4,-0.8 0.8,-0.8 H 2 Z"
           id="path845"
           transform="matrix(1.5459861,0,0,1.529688,23.486154,22.716532)" />
        <path
           style="display:inline;fill:#273839;fill-opacity:1"
           inkscape:connector-curvature="0"
           class="st0"
           d="M 2,25.1 H 1.1 c -0.4,0 -0.8,-0.4 -0.8,-0.8 v -2.4 c 0,-0.4 0.4,-0.8 0.8,-0.8 H 2 Z"
           id="path847"
           transform="matrix(1.5459861,0,0,1.529688,23.486154,22.716532)" />
        <path
           style="display:inline;fill:#273839;fill-opacity:1"
           inkscape:connector-curvature="0"
           class="st0"
           d="M 2,20.5 H 1.1 c -0.4,0 -0.8,-0.4 -0.8,-0.8 v -2.4 c 0,-0.4 0.4,-0.8 0.8,-0.8 H 2 Z"
           id="path849"
           transform="matrix(1.5459861,0,0,1.529688,23.486154,22.716532)" />
        <path
           style="display:inline;fill:#273839;fill-opacity:1"
           inkscape:connector-curvature="0"
           class="st0"
           d="M 2,11.2 H 1.1 C 0.7,11.2 0.3,10.8 0.3,10.4 V 8 C 0.3,7.6 0.7,7.2 1.1,7.2 H 2 Z"
           id="path851"
           transform="matrix(1.5459861,0,0,1.529688,23.486154,22.716532)" />
        <path
           style="display:inline;fill:#273839;fill-opacity:1"
           inkscape:connector-curvature="0"
           class="st0"
           d="M 2,15.9 H 1.1 c -0.4,0 -0.8,-0.4 -0.8,-0.8 v -2.4 c 0,-0.4 0.4,-0.8 0.8,-0.8 H 2 Z"
           id="path853"
           transform="matrix(1.5459861,0,0,1.529688,23.486154,22.716532)" />
        <path
           style="display:inline;fill:#273839;fill-opacity:1"
           inkscape:connector-curvature="0"
           class="st0"
           d="m 35,29.8 h 0.9 c 0.4,0 0.8,-0.4 0.8,-0.8 v -2.4 c 0,-0.4 -0.4,-0.8 -0.8,-0.8 H 35 Z"
           id="path857"
           transform="matrix(1.5459861,0,0,1.529688,23.486154,22.716532)" />
        <path
           style="display:inline;fill:#273839;fill-opacity:1"
           inkscape:connector-curvature="0"
           class="st0"
           d="m 35,25.2 h 0.9 c 0.4,0 0.8,-0.4 0.8,-0.8 V 22 c 0,-0.4 -0.4,-0.8 -0.8,-0.8 H 35 Z"
           id="path859"
           transform="matrix(1.5459861,0,0,1.529688,23.486154,22.716532)" />
        <path
           style="display:inline;fill:#273839;fill-opacity:1"
           inkscape:connector-curvature="0"
           class="st0"
           d="m 35,20.6 h 0.9 c 0.4,0 0.8,-0.4 0.8,-0.8 v -2.4 c 0,-0.4 -0.4,-0.8 -0.8,-0.8 H 35 Z"
           id="path861"
           transform="matrix(1.5459861,0,0,1.529688,23.486154,22.716532)" />
        <path
           style="display:inline;fill:#273839;fill-opacity:1"
           inkscape:connector-curvature="0"
           class="st0"
           d="m 35,11.3 h 0.9 c 0.4,0 0.8,-0.4 0.8,-0.8 V 8.1 C 36.7,7.7 36.3,7.3 35.9,7.3 H 35 Z"
           id="path863"
           transform="matrix(1.5459861,0,0,1.529688,23.486154,22.716532)" />
        <path
           style="display:inline;fill:#273839;fill-opacity:1"
           inkscape:connector-curvature="0"
           class="st0"
           d="m 35,15.9 h 0.9 c 0.4,0 0.8,-0.4 0.8,-0.8 v -2.4 c 0,-0.4 -0.4,-0.8 -0.8,-0.8 H 35 Z"
           id="path865"
           transform="matrix(1.5459861,0,0,1.529688,23.486154,22.716532)" />
      </g>
      <g
         style="display:inline;fill:#273839;fill-opacity:1"
         id="g1116">
        <path
           inkscape:connector-curvature="0"
           id="path1066"
           d="M 64.640628,37.431295 42.827069,38.480024 V 56.518159 L 54.258213,50.435532 51.216899,80.429176 81.734908,32.921761 63.382154,42.779812 Z"
           style="fill:#273839;fill-opacity:1;stroke:none;stroke-width:1px;stroke-linecap:butt;stroke-linejoin:miter;stroke-opacity:1" />
        <g
           style="fill:#273839;fill-opacity:1;stroke:none"
           id="g1101">
          <path
             style="fill:#273839;fill-opacity:1;stroke:none;stroke-width:1px;stroke-linecap:butt;stroke-linejoin:miter;stroke-opacity:1"
             d="m 48.490204,2.298879 -8.914195,28.73517 c 5.548186,-0.422556 10.896343,-0.59053 13.423729,2.831568 2.699423,-1.208892 5.322041,-3.262633 8.284958,-1.573093 L 76.910755,6.388922 Z"
             id="path1068"
             inkscape:connector-curvature="0"
             sodipodi:nodetypes="cccccc" />
          <path
             style="fill:#273839;fill-opacity:1;stroke:none;stroke-width:1px;stroke-linecap:butt;stroke-linejoin:miter;stroke-opacity:1"
             d="M 95.053764,30.195066 98.19995,65.222608 62.333425,97.523456 33.808001,80.114558 c -3.799145,-2.608625 -3.870009,-1.274722 6.082627,-4.614407 L 60.655459,89.343371 90.019865,61.866676 87.922408,30.824303 c -0.710383,-4.293216 3.738122,-1.763386 7.131356,-0.629237 z"
             id="path1070"
             inkscape:connector-curvature="0"
             sodipodi:nodetypes="ccccccccc" />
          <path
             style="fill:#273839;fill-opacity:1;stroke:none;stroke-width:1px;stroke-linecap:butt;stroke-linejoin:miter;stroke-opacity:1"
             d="m 40.70928,34.807225 c -2.427306,-1.515705 -6.207114,-0.33973 -4.152755,2.373003 1.972953,2.605238 5.962743,-1.689643 4.152755,-2.373003 z"
             id="path1072"
             inkscape:connector-curvature="0"
             sodipodi:nodetypes="csc" />
          <path
             style="fill:#273839;fill-opacity:1;stroke:none;stroke-width:1px;stroke-linecap:butt;stroke-linejoin:miter;stroke-opacity:1"
             d="m 19.020925,43.09443 0.629237,24.120763 7.970339,-1.573093 c -0.457682,-3.715704 -0.05037,-8.044735 -0.651776,-9.971042 -2.109196,-6.755821 0.798064,-13.023273 -7.9478,-12.576628 z"
             id="path1074"
             inkscape:connector-curvature="0"
             sodipodi:nodetypes="cccsc" />
          <path
             style="fill:#273839;fill-opacity:1;stroke:none;stroke-width:1px;stroke-linecap:butt;stroke-linejoin:miter;stroke-opacity:1"
             d="m 31.395925,70.36138 c -1.900363,-3.064074 -10.925034,-1.125016 -7.865467,3.775423 3.878948,2.205554 9.926996,-0.843876 7.865467,-3.775423 z"
             id="path1076"
             inkscape:connector-curvature="0"
             sodipodi:nodetypes="ccc" />
          <path
             style="fill:#273839;fill-opacity:1;stroke:none;stroke-width:1px;stroke-linecap:butt;stroke-linejoin:bevel;stroke-opacity:1"
             d="m 97.068087,24.128714 c -3.259327,3.194499 -5.936049,3.281774 -8.008883,0.148313 L 93.211958,4.551445 31.21727,-6.572004 28.251017,8.259261 H 21.72526 l 3.559504,-20.763771 74.897886,12.013324 z"
             id="path1078"
             inkscape:connector-curvature="0"
             sodipodi:nodetypes="ccccccccc" />
          <path
             style="opacity:1;fill:#273839;fill-opacity:1;stroke:none;stroke-width:0.25;stroke-linecap:round;stroke-linejoin:bevel;stroke-miterlimit:4;stroke-dasharray:none;stroke-opacity:1;paint-order:markers stroke fill"
             id="path1080"
             sodipodi:type="arc"
             sodipodi:cx="17.49835"
             sodipodi:cy="37.180229"
             sodipodi:rx="1.8539082"
             sodipodi:ry="1.9280645"
             sodipodi:start="6.2079093"
             sodipodi:end="6.1354781"
             d="m 19.347008,37.035229 a 1.8539082,1.9280645 0 0 1 -1.675784,2.064664 1.8539082,1.9280645 0 0 1 -2.015272,-1.705146 1.8539082,1.9280645 0 0 1 1.602805,-2.126413 1.8539082,1.9280645 0 0 1 2.073314,1.628141 l -1.833721,0.283754 z"
             sodipodi:arc-type="slice" />
          <path
             style="fill:#273839;fill-opacity:1;stroke:none;stroke-width:1px;stroke-linecap:butt;stroke-linejoin:miter;stroke-opacity:1"
             d="M 16.237692,29.46797 C 9.0312845,27.18462 3.8173123,27.115088 7.19062,36.586977 c 7.692,2.853461 7.783406,-2.78786 9.047072,-7.119007 z"
             id="path1082"
             inkscape:connector-curvature="0"
             sodipodi:nodetypes="ccc" />
          <path
             style="fill:#273839;fill-opacity:1;stroke:none;stroke-width:1px;stroke-linecap:butt;stroke-linejoin:miter;stroke-opacity:1"
             d="m 30.475707,32.28591 c -2.600681,4.327676 -5.365145,6.77185 -8.750447,2.076378 -1.393998,-4.242208 3.55968,-3.256918 8.750447,-2.076378 z"
             id="path1084"
             inkscape:connector-curvature="0"
             sodipodi:nodetypes="ccc" />
          <path
             style="opacity:1;fill:#273839;fill-opacity:1;stroke:none;stroke-width:0.25;stroke-linecap:round;stroke-linejoin:bevel;stroke-miterlimit:4;stroke-dasharray:none;stroke-opacity:1;paint-order:markers stroke fill"
             id="path1086"
             sodipodi:type="arc"
             sodipodi:cx="12.529876"
             sodipodi:cy="44.373394"
             sodipodi:rx="3.2628784"
             sodipodi:ry="3.0404093"
             sodipodi:start="6.2079093"
             sodipodi:end="6.1354781"
             d="m 15.783514,44.14474 a 3.2628784,3.0404093 0 0 1 -2.949381,3.255816 3.2628784,3.0404093 0 0 1 -3.5468773,-2.688884 3.2628784,3.0404093 0 0 1 2.8209353,-3.35319 3.2628784,3.0404093 0 0 1 3.649034,2.567453 l -3.227349,0.447459 z"
             sodipodi:arc-type="slice" />
          <path
             style="fill:#273839;fill-opacity:1;stroke:none;stroke-width:1px;stroke-linecap:butt;stroke-linejoin:miter;stroke-opacity:1"
             d="m 27.657766,10.928889 c -2.061229,0.138674 -4.536983,-0.160594 -5.326027,0.237678 -0.922543,0.465657 0.0085,2.528208 -0.161541,6.584703 -0.76722,1.419295 -8.287204,7.260044 1.483127,1.779752 5.381199,-1.807682 4.113146,-5.703008 4.004441,-8.602133 z"
             id="path1088"
             inkscape:connector-curvature="0"
             sodipodi:nodetypes="csccc" />
        </g>
      </g>
    </g>
  </g>
</svg>
