<?xml version="1.0" encoding="UTF-8" standalone="no"?>
<svg
   xmlns:dc="http://purl.org/dc/elements/1.1/"
   xmlns:cc="http://creativecommons.org/ns#"
   xmlns:rdf="http://www.w3.org/1999/02/22-rdf-syntax-ns#"
   xmlns:svg="http://www.w3.org/2000/svg"
   xmlns="http://www.w3.org/2000/svg"
   xmlns:sodipodi="http://sodipodi.sourceforge.net/DTD/sodipodi-0.dtd"
   xmlns:inkscape="http://www.inkscape.org/namespaces/inkscape"
   width="333.478"
   height="128"
   viewBox="0 0 88.232712 33.866667"
   version="1.1"
   id="svg8"
   inkscape:version="1.0.1 (3bc2e813f5, 2020-09-07)"
   sodipodi:docname="EVA-8 Auto.svg">
  <defs
     id="defs2" />
  <sodipodi:namedview
     id="base"
     pagecolor="#ffffff"
     bordercolor="#666666"
     borderopacity="1.0"
     inkscape:pageopacity="0.0"
     inkscape:pageshadow="2"
     inkscape:zoom="0.98994949"
     inkscape:cx="161.40414"
     inkscape:cy="96.475096"
     inkscape:document-units="mm"
     inkscape:current-layer="layer1"
     inkscape:document-rotation="0"
     showgrid="false"
     units="px"
     inkscape:window-width="1366"
     inkscape:window-height="705"
     inkscape:window-x="-8"
     inkscape:window-y="-8"
     inkscape:window-maximized="1" />
  <metadata
     id="metadata5">
    <rdf:RDF>
      <cc:Work
         rdf:about="">
        <dc:format>image/svg+xml</dc:format>
        <dc:type
           rdf:resource="http://purl.org/dc/dcmitype/StillImage" />
        <dc:title></dc:title>
      </cc:Work>
    </rdf:RDF>
  </metadata>
  <g
     inkscape:label="Layer 1"
     inkscape:groupmode="layer"
     id="layer1">
    <path
       style="fill:#273839;fill-opacity:1;stroke-width:0.165856"
       d="m 39.326308,30.214924 c -1.557084,-0.442825 -1.576842,-0.45492 -1.678194,-1.027443 -0.06313,-0.35662 -0.110953,-0.435877 -0.124391,-0.206165 -0.02234,0.381782 -0.272237,0.47234 -0.647021,0.234462 -0.162846,-0.103358 0.05037,-1.145543 0.941098,-4.599966 0.633405,-2.456482 1.426911,-5.436589 1.763345,-6.62246 0.336435,-1.18587 0.619309,-2.290597 0.628612,-2.45495 0.01407,-0.248607 0.115456,-0.282034 0.603334,-0.198918 1.405706,0.239476 5.559502,1.37548 5.533432,1.513314 -0.01577,0.08338 -0.07778,0.374117 -0.137806,0.646079 -0.08275,0.37495 -0.06641,0.434338 0.0676,0.245691 0.268359,-0.377765 0.234924,-0.0552 -0.234683,2.264105 -0.433837,2.142638 -2.45041,9.355342 -2.746508,9.823468 -0.207788,0.328508 -0.274953,0.608613 0.911552,-3.801597 1.19224,-4.431517 1.950281,-7.615947 1.868724,-7.850251 -0.03579,-0.102817 -0.120022,0.07428 -0.187184,0.393556 -0.30726,1.460646 -3.144012,11.876618 -3.273829,12.020835 -0.273875,0.304256 -0.721524,-0.157739 -0.666629,-0.687995 l 0.05068,-0.48952 -1.938967,-0.542711 c -1.066432,-0.298491 -2.040837,-0.581801 -2.165344,-0.62958 -0.124507,-0.04778 -0.226376,-0.01409 -0.226376,0.07488 0,0.08896 0.466471,0.289758 1.036601,0.446219 2.998928,0.822997 2.802198,0.729393 2.746054,1.306556 -0.03033,0.311808 -0.151399,0.536765 -0.299674,0.55683 -0.136831,0.01852 -0.95782,-0.167981 -1.824418,-0.414437 z m 3.197086,-2.311672 c 0.146444,-0.52452 0.214702,-1.004581 0.151686,-1.066803 -0.06302,-0.06222 -1.084836,-0.338292 -2.270707,-0.613492 -2.608937,-0.605444 -2.545953,-0.635346 -2.639879,1.253326 -0.01083,0.217776 0.416906,0.393135 1.976454,0.810296 1.094651,0.292806 2.108604,0.540919 2.25323,0.551359 0.184231,0.0133 0.342667,-0.266522 0.529216,-0.934686 z m -1.455597,0.290457 c -0.273662,-0.07667 -1.068121,-0.263096 -1.765461,-0.414275 l -1.267891,-0.274872 0.08825,-0.692133 c 0.04854,-0.380671 0.106914,-0.714839 0.129721,-0.742595 0.04172,-0.05077 3.938151,0.793384 4.020444,0.871025 0.02424,0.02287 -0.01634,0.332334 -0.09017,0.687698 -0.144271,0.694381 -0.325587,0.786293 -1.114897,0.565152 z m 2.174006,-3.607578 c 0.151758,-0.52452 0.308155,-1.039295 0.347548,-1.143943 0.04097,-0.108838 -0.270345,-0.299289 -0.727398,-0.444997 -1.193534,-0.380496 -3.340976,-0.940365 -3.606886,-0.940365 -0.152232,0 -0.321753,0.387362 -0.487486,1.113939 -0.139749,0.612667 -0.222334,1.145697 -0.183518,1.184511 0.08413,0.08413 3.887148,1.148694 4.179128,1.169844 0.111477,0.0081 0.326854,-0.41447 0.478612,-0.938989 z m -1.261796,0.298948 c -0.622627,-0.196661 -2.180922,-0.625721 -2.672012,-0.73571 -0.427542,-0.09576 -0.430649,-0.107191 -0.248671,-0.915191 0.101353,-0.450022 0.228391,-0.862333 0.282308,-0.91625 0.08673,-0.08673 3.458558,0.835638 3.610738,0.987724 0.09695,0.09689 -0.331387,1.737875 -0.449873,1.723488 -0.05932,-0.0072 -0.294438,-0.07203 -0.52249,-0.144061 z m 2.392892,-4.097204 c 0.152399,-0.606702 0.217449,-1.161389 0.144555,-1.232639 -0.177774,-0.173768 -3.686187,-1.144785 -4.141216,-1.146158 -0.283515,-8.87e-4 -0.413573,0.166028 -0.613125,0.786731 -0.474245,1.475122 -0.590443,1.343288 1.802253,2.044743 1.185872,0.347656 2.240351,0.636224 2.343288,0.641261 0.102935,0.005 0.311846,-0.487235 0.464245,-1.093938 z m -2.724605,0.0045 c -0.866598,-0.222711 -1.665627,-0.436214 -1.77562,-0.474449 -0.150758,-0.0524 -0.134637,-0.265421 0.06549,-0.865357 0.146009,-0.437709 0.282489,-0.817442 0.303284,-0.84385 0.05595,-0.07105 3.626621,0.823302 3.760053,0.941788 0.06278,0.05574 0.03808,0.45588 -0.0549,0.889179 -0.197937,0.922468 -0.124862,0.911255 -2.298311,0.352689 z m 3.380011,-3.16727 0.1053,-0.699916 -0.954839,-0.268348 c -0.52516,-0.147591 -1.472873,-0.418455 -2.106026,-0.60192 -1.103222,-0.319673 -1.160236,-0.3212 -1.368314,-0.03664 -0.11942,0.163315 -0.217125,0.533022 -0.217125,0.821571 0,0.509441 0.03482,0.534481 1.202458,0.864584 2.424252,0.685366 3.029045,0.825259 3.130061,0.724007 0.05675,-0.05688 0.150571,-0.418387 0.208485,-0.803342 z m -2.53461,-0.145443 c -0.948955,-0.216681 -1.744693,-0.413658 -1.768309,-0.437727 -0.112546,-0.114707 0.150826,-0.941484 0.318152,-0.998745 0.104564,-0.03578 0.98152,0.186116 1.948792,0.49311 1.668555,0.529567 1.75468,0.579075 1.680692,0.966125 -0.09139,0.478055 0.01906,0.47921 -2.179327,-0.02276 z M 36.68954,27.646963 c -0.03303,-0.58092 2.404525,-9.740722 2.944151,-11.063428 0.287643,-0.705066 0.207044,-0.08984 -0.133517,1.01913 -0.178034,0.579739 -0.811578,2.919951 -1.40787,5.200472 -1.274056,4.872615 -1.380269,5.239374 -1.402764,4.843826 z m 25.802321,-5.160779 c -0.06037,-0.15739 0.416949,-0.568189 1.457631,-1.254407 1.591002,-1.049096 1.883129,-1.450504 1.530572,-2.103115 -0.09094,-0.168333 -0.725205,-0.926818 -1.40947,-1.68552 l -1.244121,-1.37946 0.357892,-0.357895 0.357892,-0.357896 1.401719,1.39443 c 1.539537,1.531531 1.797127,1.970513 1.718432,2.928459 -0.05067,0.616454 -0.124952,0.69008 -1.86284,1.845752 -1.874265,1.246363 -2.156082,1.364778 -2.307707,0.969652 z m -0.02858,-1.410577 c 0,-0.801805 0.01379,-0.823548 0.829277,-1.310508 0.456102,-0.272346 1.01587,-0.529682 1.24392,-0.571858 l 0.414641,-0.07668 -0.3948,-0.02258 c -0.217144,-0.01242 -0.899162,0.249828 -1.515601,0.582781 -1.0099,0.545471 -1.658924,0.651663 -1.653746,0.270581 0.0013,-0.07128 0.560737,-0.448177 1.243924,-0.837553 1.236641,-0.704813 1.448867,-0.987221 1.013424,-1.348603 -0.178034,-0.147754 -0.528699,-0.03603 -1.582028,0.504033 -0.930345,0.477006 -1.406807,0.640359 -1.524493,0.522669 -0.117693,-0.117691 0.221243,-0.38658 1.084464,-0.860342 0.69061,-0.37903 1.255654,-0.759934 1.255654,-0.846454 0,-0.08652 -0.223263,-0.272762 -0.496134,-0.413872 -0.563012,-0.291145 -1.173434,-0.20139 -1.851457,0.27223 -0.498164,0.347985 -0.822883,0.387832 -1.07839,0.132327 -0.123027,-0.123027 -0.325239,-0.04894 -0.679076,0.248784 -0.497776,0.418854 -0.538455,0.423983 -3.362771,0.423983 H 52.551161 L 51.851418,17.039688 C 51.466558,16.652 51.12186,16.24504 51.085424,16.135333 c -0.03644,-0.109706 -0.5067,-0.313812 -1.045028,-0.453566 -1.141365,-0.29631 -1.04672,-0.232343 -1.119671,-0.756743 l -0.05768,-0.414641 1.602096,-0.04729 1.602098,-0.04729 -0.08944,0.666848 c -0.07373,0.549687 -0.01133,0.769261 0.355153,1.249746 l 0.444597,0.582896 h 2.619553 c 3.039436,0 3.168537,-0.05617 3.168537,-1.378578 0,-0.759065 -0.01379,-0.778937 -0.823771,-1.189397 -0.81334,-0.41215 -0.875073,-0.417433 -4.87723,-0.417433 -4.034734,0 -4.053044,-0.0016 -3.962481,-0.347916 0.0874,-0.334228 0.155855,-0.343272 1.740032,-0.229886 l 1.649052,0.118029 0.560118,-0.542888 c 0.542807,-0.526109 0.620546,-0.54765 2.515238,-0.696959 1.722254,-0.135722 2.005584,-0.201715 2.378834,-0.554074 0.382269,-0.360875 0.568843,-0.400251 1.907343,-0.402543 0.816,-0.0014 1.562595,-0.05737 1.659106,-0.124392 0.538327,-0.373833 0.736734,-0.977905 0.736734,-2.2430231 0,-1.1479325 -0.05109,-1.3680104 -0.434325,-1.8704407 L 61.179955,6.4663576 h 0.75656 c 0.815268,0 1.827831,0.4821606 2.106654,1.0031434 0.08886,0.1660436 0.161573,1.0897311 0.161573,2.0526385 v 1.7507415 l -1.050454,0.476295 c -1.137748,0.51588 -1.82785,1.266139 -1.739137,1.890742 0.03718,0.261841 0.310145,0.498358 0.916555,0.7942 1.12064,0.546712 1.176356,0.615569 0.743497,0.918758 -0.596568,0.41785 -0.430407,0.859077 0.860303,2.284472 1.466992,1.620075 1.697191,2.251904 0.984904,2.703328 -0.256784,0.162747 -0.855533,0.578142 -1.33055,0.923099 -0.475021,0.344957 -0.922828,0.627195 -0.995137,0.627195 -0.07231,0 -0.131471,-0.366901 -0.131471,-0.815332 z m -2.239064,-8.140864 c 0,-0.312482 -0.110571,-0.331712 -1.907346,-0.331712 -1.796775,0 -1.907346,0.01924 -1.907346,0.331712 0,0.312483 0.110571,0.331712 1.907346,0.331712 1.796775,0 1.907346,-0.01923 1.907346,-0.331712 z m 1.111676,6.297715 c -0.07254,-0.277399 0.08737,-0.425056 0.910155,-0.840392 0.903102,-0.455888 1.622409,-0.54504 1.392201,-0.172551 -0.08032,0.129959 -2.034699,1.34947 -2.162654,1.34947 -0.02846,0 -0.0913,-0.151437 -0.139702,-0.336527 z M 60.55593,17.920213 c 0,-0.177058 -0.08012,-0.371439 -0.178041,-0.431957 -0.269925,-0.166823 0.367326,-0.546737 1.110686,-0.662165 0.449828,-0.06985 0.74264,-0.02321 0.974702,0.155259 0.182441,0.140305 0.241698,0.257475 0.13169,0.260376 -0.110013,0.0029 -0.579768,0.22918 -1.0439,0.502842 -0.998077,0.588487 -0.995137,0.587968 -0.995137,0.175645 z m 21.437671,-0.462905 c -0.48666,-0.04385 -0.75796,-0.164025 -0.878415,-0.38909 -0.229489,-0.428811 -0.0286,-0.762432 0.238887,-0.396661 0.177639,0.242926 0.223478,0.245545 0.407915,0.02331 0.169572,-0.204317 0.157485,-0.278527 -0.06572,-0.403437 -0.23181,-0.129727 -0.155106,-0.254275 0.503092,-0.81688 l 0.776592,-0.663814 0.09298,-2.679486 c 0.08698,-2.5063754 0.113701,-2.6794851 0.413742,-2.6794851 0.185046,0 0.289825,-0.087719 0.247627,-0.2073208 C 83.690034,9.13042 83.541649,9.0463163 83.40045,9.0575488 83.219412,9.071951 83.111666,8.8641614 83.034962,8.3526608 82.808339,6.8414422 82.697739,7.7445651 82.697739,11.106214 c 0,3.441191 -0.0044,3.481931 -0.392751,3.855691 l -0.392751,0.377751 0.105178,-3.482977 c 0.06516,-2.1574067 0.04211,-3.6997247 -0.0605,-4.0524881 -0.09113,-0.3132314 -0.141167,-0.5940399 -0.111196,-0.6240194 0.03,-0.029976 0.569813,0.00238 1.199625,0.071943 l 1.145112,0.1264509 -0.06259,4.8098266 c -0.03444,2.645403 -0.130317,4.940436 -0.213153,5.100072 -0.15262,0.294116 -0.344167,0.31095 -1.921146,0.168844 z m -1.624948,-0.353447 c -0.573212,-0.349553 -1.070133,-1.029646 -1.072714,-1.468122 -0.0025,-0.388391 -2.200621,-4.217328 -2.54664,-4.435593 -0.207083,-0.130626 -0.329828,-0.07989 -0.542993,0.224457 -0.271421,0.387501 -0.303555,0.391588 -2.205314,0.280351 -1.061432,-0.06209 -1.986669,-0.05609 -2.056099,0.01334 -0.18639,0.186388 -4.443725,0.183333 -4.879105,-0.0035 -0.255357,-0.109581 -0.373174,-0.301574 -0.373174,-0.608089 0,-0.38865 -0.05505,-0.43743 -0.415595,-0.368501 -0.228576,0.0437 -0.519979,-0.0072 -0.647563,-0.113069 -0.133424,-0.110734 -0.417839,-0.145866 -0.669499,-0.0827 l -0.43753,0.109814 0.04852,-1.386222 c 0.04005,-1.1457763 0.09709,-1.3955064 0.328706,-1.439749 0.220705,-0.04216 0.293794,0.098313 0.344192,0.6615903 l 0.06399,0.715116 0.02898,-0.6914555 c 0.02867,-0.6842292 0.03716,-0.6932072 0.814307,-0.858949 0.87827,-0.1873163 1.032292,-0.086325 1.03656,0.6796612 0.0025,0.411174 -0.05467,0.4561035 -0.577962,0.4561035 -0.319276,0 -0.580499,0.074636 -0.580499,0.1658559 0,0.091221 0.33728,0.1658566 0.749519,0.1658566 0.716656,0 0.744947,-0.018175 0.645438,-0.4146405 -0.129948,-0.5177751 -0.0364,-0.5177751 0.725548,0 0.418182,0.2841626 0.83571,0.4146405 1.326854,0.4146405 0.491137,0 0.908659,0.1304771 1.326847,0.4146398 0.489869,0.3328755 0.814434,0.4146404 1.645939,0.4146404 0.921768,0 1.065631,-0.045629 1.307423,-0.4146404 0.238545,-0.3640669 0.390018,-0.4146398 1.241906,-0.4146398 0.809049,0 1.000526,0.056607 1.152582,0.3407273 0.147408,0.2754224 0.315414,0.3310529 0.876577,0.2902481 C 77.652302,9.7056388 77.776271,9.6194835 78.261117,8.894 78.604402,8.3803407 78.800153,7.8834394 78.800153,7.5256871 V 6.9639164 h 1.221391 1.22139 l 0.271319,0.7104328 c 0.149222,0.3907384 0.271313,1.1370907 0.271313,1.6585612 v 0.9481266 h -7.463554 c -4.86511,0 -7.463523,0.05774 -7.463523,0.165857 0,0.10811 2.595579,0.165856 7.454999,0.165856 h 7.455019 l 0.04997,2.40517 c 0.02752,1.322844 0.0086,2.405055 -0.04179,2.404913 -0.05048,-1.42e-4 -0.52719,-0.933199 -1.059327,-2.073459 l -0.967511,-2.073201 -1.096806,0.02788 -1.096813,0.02789 0.986542,0.09651 0.986543,0.09651 0.85301,1.741488 c 1.11965,2.285823 1.168386,2.504883 0.662929,2.979731 -0.377119,0.354281 -0.385984,0.40202 -0.143463,0.772149 0.310404,0.47373 0.146583,0.500012 -0.533101,0.08553 z m 0.919308,-9.5594391 c 0,-0.197448 -0.239573,-0.2487845 -1.160998,-0.2487845 -0.921419,0 -1.160992,0.05134 -1.160992,0.2487845 0,0.1974473 0.239573,0.2487839 1.160992,0.2487839 0.921425,0 1.160998,-0.051337 1.160998,-0.2487839 z m 2.890654,9.6196511 c 0.132378,-0.495418 0.414402,-9.1323868 0.311101,-9.5274128 -0.124812,-0.4772853 0.246999,-0.4317441 0.469937,0.057558 0.131744,0.2891346 0.130767,1.0586521 -0.0038,2.8023828 -0.101836,1.32209 -0.18516,3.261563 -0.18516,4.309941 0,1.684772 -0.03957,1.951611 -0.340476,2.29769 -0.303999,0.349589 -0.330983,0.356001 -0.251851,0.05984 z M 43.472713,15.653859 c -3.497405,-0.881364 -3.33391,-0.82383 -3.215796,-1.131627 0.0809,-0.210816 0.723133,-0.256774 4.143737,-0.296525 l 4.048001,-0.04704 -1.28e-4,0.640784 c -1.23e-4,0.619629 -0.01679,0.63834 -0.504818,0.566713 -0.412676,-0.06056 -0.593185,0.02672 -0.990071,0.478743 -0.266959,0.304049 -0.506319,0.545521 -0.531911,0.536605 -0.02559,-0.0089 -1.352648,-0.345358 -2.949014,-0.74765 z M 56.53043,15.540453 c 0.119209,-1.057615 -0.06665,-1.143239 -2.348192,-1.081787 -1.055889,0.02844 -1.919652,-0.0042 -1.919471,-0.07268 1.66e-4,-0.06842 1.042686,-0.124393 2.316685,-0.124393 2.75042,0 3.418581,0.204415 3.58605,1.097104 0.141432,0.753895 -0.0015,0.893169 -0.916138,0.893169 h -0.79912 z M 30.03836,15.72158 c -0.360235,-0.104662 -2.475685,-0.143565 -5.575228,-0.102529 l -4.994728,0.06613 1.06571,-0.545937 1.065713,-0.545937 h 3.972995 3.972995 l 0.881643,0.497568 c 0.795445,0.448922 1.026271,0.497816 2.360939,0.500108 1.016357,0.0018 1.401437,0.05286 1.230509,0.163316 -0.323585,0.209117 -3.230414,0.185226 -3.980548,-0.03272 z M 16.438149,15.256728 c -0.276426,-0.276427 -0.331712,-0.552854 -0.331712,-1.65856 0,-0.729767 0.04694,-1.326849 0.104291,-1.326849 0.05736,0 0.393433,0.261223 0.74683,0.580496 l 0.642541,0.580497 h 4.820256 c 3.13572,0 4.937275,-0.06263 5.155106,-0.179206 0.184166,-0.09856 0.441486,-0.434423 0.571819,-0.746353 0.276857,-0.66261 0.730086,-0.764295 0.730086,-0.1638 0,0.255907 0.176082,0.528729 0.481707,0.746352 0.434094,0.309102 0.720993,0.343007 2.902484,0.343007 h 2.420776 v 0.912208 0.912208 l -1.700026,-0.0028 c -1.585052,-0.0027 -1.75611,-0.0361 -2.529307,-0.49474 l -0.829282,-0.491911 -4.108623,-0.0028 -4.108622,-0.0028 -1.319487,0.663424 c -1.102814,0.554484 -1.483502,0.663425 -2.318305,0.663425 -0.777677,0 -1.072261,-0.07344 -1.330532,-0.331713 z m 19.280785,-0.117676 -0.870745,-0.06551 v -0.654756 -0.654757 h 2.156131 2.156131 v 0.41464 c 0,0.273705 -0.09244,0.41464 -0.271964,0.41464 -0.149579,0 -0.354827,0.105248 -0.456105,0.233886 -0.210309,0.267125 -1.435897,0.407984 -2.713448,0.311862 z M 15.030475,14.470136 c -0.927057,-0.09449 -1.080169,-0.279744 -1.080169,-1.306916 v -0.891901 h 0.91221 0.912209 v 1.160993 c 0,0.638545 -0.01866,1.148445 -0.04147,1.133111 -0.0228,-0.01533 -0.339059,-0.05822 -0.702786,-0.09529 z M 7.2949157,13.791345 C 7.2071373,13.56047 7.0685409,12.844133 6.9869239,12.199485 l -0.1483942,-1.172086 0.043178,1.45124 c 0.033136,1.113668 -0.00778,1.451241 -0.175877,1.451241 -0.1204784,0 -0.2190518,-0.07464 -0.2190518,-0.165856 0,-0.09801 -0.5970824,-0.165856 -1.4595345,-0.165856 -0.9140521,0 -1.5339189,-0.07438 -1.6585627,-0.199027 -0.2582424,-0.258243 -0.2582424,-1.831545 0,-2.089787 0.1225984,-0.122598 0.723907,-0.199027 1.5658459,-0.199027 0.7517503,0 1.4129452,-0.07464 1.469323,-0.165856 0.057213,-0.09257 0.8310039,-0.165857 1.7512792,-0.165857 h 1.648774 v 1.083392 c 0,0.595865 0.1119523,1.351333 0.2487842,1.678815 0.310695,0.743599 0.310038,0.756889 -0.03413,0.690608 -0.1773307,-0.03415 -0.3933081,-0.3946 -0.5787156,-0.965832 -0.2723943,-0.839235 -0.2982705,-0.46458 -0.039205,0.567621 l 0.1103339,0.439605 -1.0282275,-0.03085 C 7.5483321,14.213931 7.4399544,14.172816 7.2949182,13.791344 Z m 0.6975904,-2.195009 c 0.2807273,-0.177677 0.9730897,-0.203514 0.7333295,-0.02737 -0.091221,0.06702 -0.1658559,0.271123 -0.1658559,0.453565 0,0.236327 -0.1063062,0.328033 -0.369692,0.318917 -0.2889779,-0.01 -0.3298074,0.03526 -0.1870114,0.20732 0.2383384,0.28718 0.3925401,0.277656 0.7143176,-0.04412 0.3731717,-0.373172 0.2442,-1.131302 -0.2037017,-1.197419 C 7.8029028,11.20228 7.4801098,11.5516 7.5026735,12.401548 l 0.020762,0.781981 0.1166559,-0.718987 c 0.064161,-0.395443 0.2227479,-0.786135 0.3524171,-0.868205 z m 2.2416259,1.723502 c -0.145406,-0.426744 -0.2632322,-1.079802 -0.2618352,-1.451241 0.00266,-0.700747 0.2257622,-1.248677 0.4266712,-1.047769 0.09382,0.09382 0.216306,3.274907 0.126102,3.274907 -0.01461,0 -0.145531,-0.349153 -0.290938,-0.775897 z m 0.564906,-0.965591 v -1.575633 h 1.149458 c 1.060163,0 1.155041,-0.02899 1.221335,-0.373175 0.03953,-0.205247 0.08204,0.04684 0.09446,0.560188 0.01462,0.604427 0.110263,1.006128 0.27137,1.139836 0.158918,0.131889 0.248785,0.498695 0.248785,1.015444 V 13.92988 H 12.29174 10.799034 Z m 29.854119,1.326849 c 0,-0.212117 0.449242,-0.248784 3.048033,-0.248784 2.507024,0 3.084678,0.04416 3.254503,0.248784 0.182339,0.219703 -0.173943,0.248784 -3.048033,0.248784 -2.78232,0 -3.254503,-0.0361 -3.254503,-0.248784 z m 6.894278,-0.331712 -0.442766,-0.580497 H 43.944244 40.78382 l -0.645829,0.511505 -0.645828,0.511506 v -1.340786 -1.340785 h 4.561046 4.561046 v 1.210749 c 0,1.100708 -0.161402,1.608804 -0.511054,1.608804 -0.06215,0 -0.312244,-0.261224 -0.555766,-0.580496 z M 32.153026,13.142442 c 1.299898,-0.02802 3.427004,-0.02802 4.726902,0 1.299898,0.02802 0.236345,0.05095 -2.363451,0.05095 -2.599796,0 -3.663349,-0.02293 -2.363451,-0.05095 z M 17.143038,12.822886 c -0.205246,-0.143173 -0.373176,-0.325846 -0.373176,-0.405941 0,-0.08009 1.936113,-0.145626 4.302473,-0.145626 2.689408,0 4.340905,-0.06218 4.404978,-0.165856 0.05638,-0.09122 0.657866,-0.165856 1.336639,-0.165856 1.349919,0 1.548873,0.182828 0.90242,0.82928 -0.317261,0.317261 -0.546675,0.331333 -5.265935,0.323013 -4.204334,-0.0074 -4.989424,-0.04721 -5.307399,-0.269014 z m 31.80293,-0.717423 c 0,-0.74276 0.03893,-0.831627 0.373177,-0.851768 0.205246,-0.01237 1.2688,-0.06835 2.36345,-0.124392 L 53.67287,11.027399 V 10.446903 9.8664068 h -2.156131 -2.156131 l 0.05658,-1.0583445 c 0.04654,-0.8707072 -0.0049,-1.1415141 -0.29025,-1.5274525 -0.190755,-0.2580096 -0.346827,-0.5467658 -0.346827,-0.6416802 0,-0.1163692 1.968833,-0.172572 6.045312,-0.172572 h 6.045313 l 0.423079,0.5546874 c 0.351693,0.4610953 0.423117,0.7339479 0.423305,1.6170963 l 1.63e-4,1.0624095 -2.695384,-0.050715 c -2.215273,-0.041678 -2.754473,-0.00571 -3.027099,0.2020452 -0.301136,0.229459 -0.06035,0.253243 2.612238,0.258032 1.848599,0.0033 2.944002,0.06699 2.944002,0.171131 0,0.09122 -0.149274,0.165857 -0.331714,0.165857 -0.184284,0 -0.331709,0.11057 -0.331709,0.248783 0,0.20246 -0.274181,0.248784 -1.472477,0.248784 -1.283432,0 -1.501692,0.04239 -1.700028,0.330183 -0.192693,0.279604 -0.545128,0.359349 -2.300752,0.520589 -1.882293,0.172874 -2.128856,0.234105 -2.677566,0.664954 -0.509624,0.400155 -0.75765,0.474547 -1.582174,0.474547 -0.946339,0 -0.977597,-0.014 -0.971269,-0.435088 0.0091,-0.607366 -0.474385,-0.89656 -0.857853,-0.513092 -0.241238,0.241238 -0.255497,0.345554 -0.08463,0.619149 0.170826,0.273535 0.163285,0.329031 -0.04471,0.329031 -0.189656,0 -0.250189,-0.200643 -0.250189,-0.82928 z m 7.131817,-3.4000484 c 0,-0.4843059 -0.100542,-0.7859305 -0.331712,-0.9951362 -0.329022,-0.2977616 -0.331713,-0.2896901 -0.331713,0.9951362 0,1.2848257 0.0027,1.2928969 0.331713,0.9951362 0.23117,-0.2092069 0.331712,-0.5108315 0.331712,-0.9951362 z m -1.442481,0.00228 c 0.01799,-0.089971 -0.09791,-0.188737 -0.257545,-0.2194806 -0.181546,-0.034968 -0.290249,0.04639 -0.290249,0.2172102 0,0.2885543 0.490155,0.2905869 0.547794,0.00228 z M 60.94146,8.5133799 c 0.149988,-0.1499888 -0.22172,-0.5726231 -0.404349,-0.4597493 -0.228671,0.1413279 -0.173,0.5688821 0.07408,0.5688821 0.121629,0 0.270251,-0.049111 0.330273,-0.1091328 z M 50.438674,8.2078462 c 0,-0.1382141 -0.147428,-0.2487839 -0.331713,-0.2487839 -0.184285,0 -0.331712,0.1105698 -0.331712,0.2487839 0,0.1382135 0.147427,0.2487839 0.331712,0.2487839 0.184285,0 0.331713,-0.1105704 0.331713,-0.2487839 z m 1.211217,0.00228 c 0.01799,-0.089971 -0.09791,-0.1887376 -0.257544,-0.2194805 -0.181546,-0.034962 -0.290249,0.04639 -0.290249,0.2172096 0,0.2885549 0.490155,0.2905868 0.547793,0.00228 z M 29.292007,12.603044 c -0.06747,-0.109166 1.601553,-0.165856 4.882969,-0.165856 3.213079,0 4.985475,0.05896 4.985475,0.165856 0,0.106814 -1.738228,0.165855 -4.88297,0.165855 -3.076407,0 -4.920894,-0.06136 -4.985474,-0.165855 z m 9.631694,-0.478082 c -0.04976,-0.08051 -3.039574,-0.201677 -6.644035,-0.269258 l -6.553569,-0.122901 v -0.725878 -0.725878 h 6.717177 6.717177 v 0.995136 c 0,0.968385 -0.05063,1.149898 -0.23675,0.848753 z M 13.618594,9.2957249 c 0,-1.5864681 0.06407,-2.5176496 0.178074,-2.5881077 0.12329,-0.076198 0.161558,0.3530116 0.124391,1.3951816 l -0.05368,1.5052366 1.74149,0.046269 1.741491,0.046269 0.04938,1.0365996 0.04938,1.036601 h -1.915261 -1.91526 z m 1.480444,1.8375391 c 0.215775,-0.403179 -0.138964,-0.911272 -0.577293,-0.826859 -0.334647,0.06445 -0.49741,0.491278 -0.341887,0.896564 0.130779,0.340804 0.723539,0.295853 0.91918,-0.0697 z m 2.064877,-0.06126 c 0.139102,-0.220887 0.117471,-0.350486 -0.09376,-0.561712 -0.496856,-0.496855 -1.238136,0.1525 -0.79021,0.692218 0.257889,0.310735 0.641789,0.254058 0.883966,-0.130506 z m 0.76694,-0.381493 c 0,-0.8402572 0.05956,-1.1061271 0.265523,-1.1851606 0.390866,-0.1499888 0.558363,0.242406 0.561218,1.3147576 0.0025,0.907357 -0.0176,0.953672 -0.412099,0.953672 -0.399961,0 -0.414642,-0.03835 -0.414642,-1.083269 z m 1.526257,0.04667 c 0.04732,-0.993443 0.06837,-1.0387853 0.505482,-1.0890805 l 0.456104,-0.052478 v 1.0890815 1.08908 h -0.505483 -0.505482 z m 1.824418,0.0017 c 0.03961,-0.830211 0.106792,-1.0458713 0.339626,-1.0902249 0.252598,-0.048115 0.290249,0.086132 0.290249,1.0349339 0,0.988124 -0.0318,1.090226 -0.339628,1.090226 -0.311253,0 -0.3355,-0.08646 -0.290247,-1.034935 z m 1.625012,0.155899 c 0,-0.483471 0.08956,-0.9685998 0.199027,-1.0780648 0.109465,-0.1094651 0.594595,-0.1990271 1.078066,-0.1990271 h 0.879037 v 1.0780639 1.078064 h -1.078065 -1.078065 z m 1.792597,0.02253 c 0.0381,-0.32934 -0.03785,-0.470101 -0.298208,-0.552735 -0.619617,-0.196659 -1.070021,0.440419 -0.625581,0.884858 0.347014,0.347014 0.866856,0.160119 0.923789,-0.332123 z m 14.903596,-0.08334 c -0.06081,-0.06081 -0.110572,-0.211284 -0.110572,-0.334377 0,-0.183442 0.814764,-0.215848 4.517378,-0.179678 4.150095,0.04054 4.521918,0.06773 4.573208,0.334378 0.05205,0.270618 -0.24598,0.290248 -4.406808,0.290248 -2.454449,0 -4.512393,-0.04975 -4.573206,-0.110571 z M 7.094916,10.502188 c -0.060812,-0.06081 -0.1105709,-0.210085 -0.1105709,-0.331712 0,-0.1708822 0.4146403,-0.2211413 1.8244185,-0.2211413 1.7138474,0 1.8244184,0.020103 1.8244184,0.3317123 0,0.398901 -0.257536,0.434805 -0.464617,0.06477 -0.137303,-0.245347 -0.157671,-0.245347 -0.2518194,0 -0.082133,0.214037 -0.3609423,0.266939 -1.4068461,0.266939 -0.717427,0 -1.3541695,-0.04975 -1.4149835,-0.110571 z M 46.004259,9.9910749 43.145479,9.9415204 42.890195,9.4478585 42.634914,8.9541979 39.404976,8.9293192 C 37.628511,8.9156337 36.081744,8.8969762 35.967718,8.8878504 35.844249,8.87797 35.760399,9.072504 35.760399,9.3688333 v 0.4975684 l -1.534171,0.047684 c -0.843793,0.026229 -1.53417,0.0059 -1.53417,-0.045147 0,-0.051057 0.299374,-0.688258 0.665277,-1.4159998 l 0.665276,-1.3231633 h 5.378687 c 3.172041,0 5.418156,0.063861 5.474891,0.1556613 0.05292,0.085614 0.262564,0.1103745 0.465894,0.055026 0.203328,-0.055351 0.991948,-0.1310665 1.752487,-0.1682587 1.848955,-0.090416 2.017254,0.053483 2.017254,1.7247671 0,0.6700179 -0.05598,1.2014387 -0.124392,1.1809337 -0.06842,-0.0205 -1.410845,-0.05958 -2.983173,-0.086834 z M 36.340896,7.7102784 c 0,-0.1382141 -0.147428,-0.2487842 -0.331713,-0.2487842 -0.184285,0 -0.331712,0.1105701 -0.331712,0.2487842 0,0.1382129 0.147427,0.2487839 0.331712,0.2487839 0.184285,0 0.331713,-0.110571 0.331713,-0.2487839 z M 26.429582,9.6240572 C 26.226457,9.2949861 26.076216,9.2859104 20.831934,9.2859104 c -4.201417,0 -5.38857,-0.045686 -5.387327,-0.2073203 8.88e-4,-0.114026 0.379997,-0.7111073 0.84249,-1.3268486 l 0.840895,-1.1195281 0.857536,-0.00526 c 0.787303,-0.00483 0.83136,-0.02508 0.537932,-0.2470727 -0.175783,-0.1329878 -0.25886,-0.2985434 -0.184614,-0.3679014 0.07425,-0.069359 0.16831,-0.03281 0.209034,0.081214 0.05477,0.153372 0.722504,0.20732 2.566045,0.20732 h 2.492003 L 23.50186,6.7151499 23.397791,7.1297898 h 2.875323 2.875326 l -0.676562,1.3683059 c -0.638854,1.2920572 -0.708799,1.3709822 -1.255065,1.4162116 -0.436147,0.036116 -0.62987,-0.035311 -0.787231,-0.2902482 z M 18.552816,7.7105511 c 0.449081,-0.6933005 0.455005,-0.7466273 0.08293,-0.746621 -0.251088,4.4e-6 -1.202458,0.9771635 -1.202458,1.2350541 0,0.050487 0.16793,0.090866 0.373178,0.089737 0.242451,-0.00133 0.503901,-0.2038684 0.746352,-0.5781696 z m 3.858637,0.079172 c 0.680638,-0.9558663 0.120025,-1.1817262 -0.597664,-0.2407869 -0.481978,0.6319045 -0.771701,0.6772233 -0.333943,0.052237 0.593615,-0.8475008 -0.01777,-0.8958015 -0.661195,-0.052237 -0.481978,0.6319045 -0.7717,0.6772233 -0.333942,0.052237 0.505512,-0.7217169 0.160316,-0.8881394 -0.55289,-0.2665538 -0.233932,0.2038808 -0.332036,0.263589 -0.218009,0.1326847 0.289954,-0.3328729 0.258385,-0.5033762 -0.0932,-0.5033762 -0.26112,0 -0.674175,0.4242872 -1.085313,1.1148258 -0.09227,0.1549785 0.310522,0.1991755 1.713145,0.1879766 1.81009,-0.014447 1.838033,-0.020611 2.163012,-0.4770047 z m 7.464378,0.8460948 c 0.544257,-1.1021571 0.991809,-1.7570292 0.991809,-1.4512462 0,0.2400331 -1.355612,2.7647626 -1.484494,2.7647626 -0.08577,0 0.135937,-0.5910827 0.492685,-1.3135164 z M 8.3715985,9.5358041 C 8.3141549,9.3860987 8.3466817,9.1840846 8.4438793,9.0868826 8.6965798,8.8341833 9.1753741,9.0651431 9.109366,9.4078959 9.0358403,9.7896772 8.5043771,9.8818179 8.3715985,9.5358041 Z M 6.3896829,9.3917314 C 6.3420041,9.2674914 6.3256907,8.727111 6.3534255,8.1908865 6.3912689,7.459208 6.4694751,7.2034593 6.6668527,7.1659431 6.8865834,7.1241756 6.9222009,7.2739995 6.8833281,8.0765395 L 6.8368025,9.0371258 7.0079843,8.000526 c 0.09415,-0.5701305 0.2337166,-1.0366003 0.3101481,-1.0366003 0.076432,0 0.1361626,0.4860327 0.1327354,1.0800737 -0.00357,0.6222333 0.080586,1.1846811 0.1985741,1.3268486 0.1757167,0.2117259 0.1069575,0.2467742 -0.4841343,0.2467742 -0.4283573,0 -0.7217251,-0.08544 -0.7756211,-0.2258908 z M 9.3063326,8.5531231 c 0,-1.0602867 0.1032305,-1.5891974 0.3101746,-1.5891974 0.05986,0 0.1088309,0.5970818 0.1088309,1.3268485 0,0.9582792 -0.058198,1.326848 -0.2095037,1.326848 -0.1470044,0 -0.2095018,-0.3175564 -0.2095018,-1.0644991 z m 0.6842862,0.525467 C 9.8247768,8.554959 9.9605906,7.2495189 10.206491,7.0036177 c 0.236336,-0.236334 0.421706,0.4168126 0.424151,1.4944761 0.002,0.8586286 -0.05244,1.1195284 -0.233382,1.1195284 -0.129756,0 -0.312745,-0.2425639 -0.4066412,-0.5390321 z M 10.799038,8.3737021 V 7.1297816 h 1.243922 1.243921 V 8.3737021 9.6176222 H 12.04296 10.799038 Z M 70.869243,9.2029824 C 70.488693,8.882772 70.189286,8.788342 69.554553,8.788342 68.90413,8.788342 68.589001,8.6843004 68.044321,8.2897341 67.413227,7.8325747 67.356012,7.7291673 67.356012,7.0458134 V 6.3005011 l 1.782953,-0.00564 c 0.980625,-0.00313 3.480698,0.2021295 5.555714,0.456104 l 3.772767,0.4617733 4.95e-4,0.4676846 c 3.36e-4,0.2572267 -0.227029,0.7983319 -0.505071,1.2024564 -0.608174,0.8839538 -1.301144,1.0208571 -1.620413,0.3201318 -0.173308,-0.3803639 -0.278016,-0.4146404 -1.266715,-0.4146404 -0.966642,0 -1.105825,0.042762 -1.349488,0.4146404 -0.242274,0.3697504 -0.38495,0.4146399 -1.317949,0.4146399 -0.87404,0 -1.127374,-0.068254 -1.539037,-0.4146399 z M 7.7540751,8.9194964 C 7.6147518,8.3993894 7.626453,7.4191083 7.7746985,7.1914129 7.8417169,7.0884792 8.2153922,6.9743974 8.6050886,6.937898 9.1526713,6.886608 9.2939592,6.922791 9.2270493,7.0971518 c -0.047614,0.1240883 -0.086577,0.5567922 -0.086577,0.961563 0,0.6929173 -0.023147,0.730137 -0.3959317,0.6365746 C 8.4558208,8.6228259 8.2818937,8.6911672 8.1022286,8.947676 L 7.855847,9.2994342 Z M 14.282019,7.9590623 V 6.6322134 h 1.243922 c 0.684156,0 1.243921,0.038483 1.243921,0.08551 0,0.2237981 -2.065567,2.5681867 -2.262748,2.5681867 -0.170798,0 -0.225095,-0.3200614 -0.225095,-1.3268478 z m 9.688642,-1.2853848 c 0.06835,-0.068416 2.668253,-0.1617098 5.777565,-0.2073199 4.292801,-0.062971 5.669747,-0.1324568 5.721659,-0.2887349 0.0537,-0.1616835 -1.756368,-0.2150209 -8.442834,-0.2487841 -7.87033,-0.039743 -8.515301,-0.064284 -8.56567,-0.3259345 -0.0499,-0.2592351 0.22106,-0.2822809 3.231946,-0.2748815 1.80753,0.00445 5.656089,0.00113 8.552352,-0.00729 L 35.511614,5.305368 V 4.8907281 c 0,-0.3808547 0.06081,-0.4146405 0.746353,-0.4146405 0.410494,0 0.746353,0.074636 0.746353,0.1658565 0,0.2157192 0.613031,0.2157192 0.746353,0 0.133181,-0.2154924 1.078065,-0.2164044 1.078065,-0.00107 0,0.1611011 0.330974,0.1442493 0.829282,-0.042225 0.616461,-0.2306874 1.020327,-0.2499313 1.096191,-0.05223 0.06259,0.1630952 0.27283,0.1724911 0.934092,0.041743 0.588107,-0.1162833 0.871214,-0.1150653 0.910875,0.00395 0.03938,0.1181664 0.300924,0.1207353 0.828841,0.00814 0.545138,-0.116267 0.858636,-0.1099558 1.069169,0.021527 0.369505,0.2307581 0.799943,0.2416109 0.799943,0.020166 0,-0.091221 0.293584,-0.1658564 0.652409,-0.1658564 0.579356,0 0.658285,0.0485 0.704889,0.4331203 0.05129,0.4233187 0.07969,0.4329002 1.254937,0.4233695 3.308196,-0.026829 3.026876,0.012938 3.026876,-0.4278541 0,-0.3612209 0.159122,-0.4510227 1.617098,-0.9126161 1.861404,-0.5893181 3.163734,-0.6699175 3.56942,-0.2209077 0.144234,0.1596368 0.286413,0.5887891 0.315955,0.9536722 l 0.05371,0.6634246 1.528997,0.082928 c 1.15599,0.062697 1.599625,0.1537349 1.818499,0.3731758 0.275704,0.2764196 -0.26975,0.2902482 -11.448698,0.2902482 -7.783228,0 -11.703656,0.055884 -11.635687,0.1658558 0.06518,0.1054594 2.2164,0.1658565 5.907472,0.1658565 3.827743,0 5.770054,0.056492 5.702462,0.1658558 -0.06683,0.1081398 -4.350842,0.1658558 -12.31079,0.1658558 -6.714558,0 -12.152366,-0.055979 -12.084019,-0.1243917 z M 55.651297,4.7130222 C 55.97856,4.3857593 55.978621,4.2347594 55.651629,3.9077642 55.455142,3.7112776 55.31283,3.689473 55.071132,3.818825 c -0.361025,0.1932131 -0.419836,0.6571335 -0.121169,0.9558003 0.262295,0.2622948 0.388525,0.2512069 0.701334,-0.061601 z M 54.916792,4.3102286 c 0,-0.2211415 0.11057,-0.3317123 0.331712,-0.3317123 0.221141,0 0.331712,0.1105708 0.331712,0.3317123 0,0.2211415 -0.110571,0.3317123 -0.331712,0.3317123 -0.221142,0 -0.331712,-0.1105708 -0.331712,-0.3317123 z m -40.5245,1.6297775 c -0.125903,-0.4814517 0.01424,-0.6701176 0.405513,-0.5459308 0.252192,0.080042 0.360573,-0.0084 0.499836,-0.4078937 0.0978,-0.2805532 0.250992,-0.5100971 0.340423,-0.5100971 0.08943,0 0.138106,-0.2798819 0.108167,-0.6219599 -0.05367,-0.6132704 -0.04548,-0.6226952 0.586443,-0.6745639 0.701497,-0.057577 1.432326,0.4391344 1.432326,0.9734935 0,0.1554136 0.167929,0.3997125 0.373175,0.5428855 0.313286,0.2185363 0.326595,0.2617105 0.08293,0.269014 -0.226603,0.0068 -0.290249,0.1541756 -0.290249,0.6721235 V 6.3005011 H 16.20871 c -1.628494,0 -1.727273,-0.019602 -1.816417,-0.360495 z"
       id="path895" />
  </g>
</svg>
