<?xml version="1.0" encoding="UTF-8" standalone="no"?>
<!-- Generator: Adobe Illustrator 22.1.0, SVG Export Plug-In . SVG Version: 6.00 Build 0)  -->

<svg
   version="1.1"
   id="draw_on_this_one"
   x="0px"
   y="0px"
   viewBox="0 0 512 512"
   xml:space="preserve"
   sodipodi:docname="Evo_Shield.svg"
   inkscape:version="1.1 (c68e22c387, 2021-05-23)"
   width="512"
   height="512"
   xmlns:inkscape="http://www.inkscape.org/namespaces/inkscape"
   xmlns:sodipodi="http://sodipodi.sourceforge.net/DTD/sodipodi-0.dtd"
   xmlns="http://www.w3.org/2000/svg"
   xmlns:svg="http://www.w3.org/2000/svg"><defs
   id="defs54" /><sodipodi:namedview
   id="namedview52"
   pagecolor="#ffffff"
   bordercolor="#666666"
   borderopacity="1.0"
   inkscape:pageshadow="2"
   inkscape:pageopacity="0.0"
   inkscape:pagecheckerboard="0"
   showgrid="false"
   inkscape:zoom="0.35355339"
   inkscape:cx="69.296464"
   inkscape:cy="332.34019"
   inkscape:window-width="1366"
   inkscape:window-height="697"
   inkscape:window-x="-8"
   inkscape:window-y="-8"
   inkscape:window-maximized="1"
   inkscape:current-layer="draw_on_this_one" />
<style
   type="text/css"
   id="style2">
	.st0{fill:#241C1C;}
	.st1{fill:url(#SVGID_1_);}
</style>




















<linearGradient
   id="SVGID_1_"
   gradientUnits="userSpaceOnUse"
   x1="18.504299"
   y1="24.65"
   x2="18.504299"
   y2="2.6800001"
   gradientTransform="matrix(1,0,0,-1,0,38)">
	<stop
   offset="0"
   style="stop-color:#273839;stop-opacity:1"
   id="stop44" />
	<stop
   offset="1"
   style="stop-color:#273839;stop-opacity:0.05098039"
   id="stop46" />
</linearGradient>
<g
   id="g2373"
   transform="matrix(13.443512,0,0,13.443512,6.6225952,7.2950296)"><g
     id="g1737"><path
       class="st0"
       d="M 9.3,11 9.9,10.4 V 7.9 L 8.3,5.6 c 0,0 -0.3,-0.3 -0.6,-0.3 -0.3,0 -3,1 -4.3,2 -1.3,1 -3,3.8 -3,4.1 0,0.3 1.4,1.7 2.3,1.7 0.9,0 6.6,-2.1 6.6,-2.1 z"
       id="path4"
       style="fill:#273839;fill-opacity:1" /><path
       class="st0"
       d="M 27.8,11 27.3,10.4 V 7.9 l 1.5,-2.3 c 0,0 0.3,-0.3 0.6,-0.3 0.3,0 2.9,1 4.3,2 1.4,1 3,3.8 3,4.1 0,0.3 -1.3,1.7 -2.3,1.7 -0.9,0 -6.6,-2.1 -6.6,-2.1 z"
       id="path6"
       style="fill:#273839;fill-opacity:1" /><path
       class="st0"
       d="m 28.9,18.2 c 0,-0.9 -0.4,-2.9 -1,-3.6 -0.6,-0.7 -0.8,-2.1 -0.8,-2.6 0,-0.5 0,-0.6 0,-0.6 L 26.3,10.6 V 7.5 l 0.9,-1.4 c 0,0 -3,-1.6 -3.7,-1.6 -0.7,0 -0.6,0.6 -0.8,0.8 -0.2,0.2 -0.5,2.7 -2.4,2.7 -1.9,0 -1.9,0 -1.9,0 0,0 0,0 -1.9,0 C 14.6,8 14.3,5.4 14.1,5.2 13.9,5 14,4.4 13.3,4.4 12.6,4.4 9.8,6.1 9.8,6.1 l 0.9,1.4 v 3.1 l -0.8,0.8 c 0,0 0,0.1 0,0.6 0,0.5 -0.2,2 -0.8,2.6 -0.6,0.6 -1,2.6 -1,3.6 0,1 2.6,10.3 2.6,11.4 0,1.1 -0.3,2.2 -0.3,2.2 v 1.7 h 8.1 8.1 v -1.7 c 0,0 -0.3,-1 -0.3,-2.2 0,-1.1 2.6,-10.5 2.6,-11.4 z m -9.4,-5.1 1,-3.5 h 2.2 V 16 l -4.2,3 -0.9,-0.7 4,-5.8 z M 14.3,9.5 h 2.5 l -0.5,5.9 1.5,-0.5 -0.5,3 -2.9,-2 C 14.3,16 14.3,9.5 14.3,9.5 Z M 18.5,32 h -7.4 c 0.3,-0.3 0.3,-2.5 0.3,-2.5 0,-2.6 -1.4,-5.9 -1.4,-7.7 0,-0.8 2.2,-3.8 2.2,-3.8 0.4,0.4 1.8,1.4 2.8,1.4 1,0 3.5,0 3.5,0 0,0 2.5,0 3.5,0 1,0 2.4,-1 2.8,-1.4 0,0 2.2,3.1 2.2,3.8 0,1.8 -1.4,5.1 -1.4,7.7 0,0 0,2.2 0.3,2.5 0,0 -7.4,0 -7.4,0 z"
       id="path8"
       style="fill:#273839;fill-opacity:1" /><path
       class="st0"
       d="m 24.9,1.7 c -0.5,0 -1.6,0 -1.6,0 l -2.5,4 h -2.3 -2.3 l -2.5,-4 c 0,0 -1.1,0 -1.6,0 -0.5,0 -3.9,1.9 -3.9,2 0,0.1 0.2,0.8 0.5,0.8 0.3,0 4.3,-2.1 4.5,-2.1 0.2,0 2.8,4.1 2.8,4.1 h 2.5 2.5 c 0,0 2.6,-4.2 2.8,-4.2 0.2,0 4.2,2.1 4.5,2.1 0.4,0 0.5,-0.7 0.5,-0.8 0.1,0 -3.4,-1.9 -3.9,-1.9 z"
       id="path10"
       style="fill:#273839;fill-opacity:1" /><polygon
       class="st0"
       points="16.9,27.2 18.5,28.2 20.1,27.2 20.1,27 20.1,26.6 20.1,26.1 20.1,25.8 20.1,25.5 18.5,24.5 16.9,25.5 16.9,25.8 16.9,26.1 16.9,26.6 16.9,27 "
       id="polygon12"
       style="fill:#273839;fill-opacity:1" /><polygon
       class="st0"
       points="12.9,27.2 14.5,28.2 16,27.2 16,27 16,26.6 16,26.1 16,25.8 16,25.5 14.5,24.5 12.9,25.5 12.9,25.8 12.9,26.1 12.9,26.6 12.9,27 "
       id="polygon14"
       style="fill:#273839;fill-opacity:1" /><polygon
       class="st0"
       points="21,27.2 22.5,28.2 24.1,27.2 24.1,27 24.1,26.6 24.1,26.1 24.1,25.8 24.1,25.5 22.5,24.5 21,25.5 21,25.8 21,26.1 21,26.6 21,27 "
       id="polygon16"
       style="fill:#273839;fill-opacity:1" /><polygon
       class="st0"
       points="18.9,23.6 20.5,24.6 22.1,23.6 22.1,23.4 22.1,23 22.1,22.5 22.1,22.2 22.1,21.9 20.5,20.9 18.9,21.9 18.9,22.2 18.9,22.5 18.9,23 18.9,23.4 "
       id="polygon18"
       style="fill:#273839;fill-opacity:1" /><polygon
       class="st0"
       points="14.9,23.6 16.5,24.6 18.1,23.6 18.1,23.4 18.1,23 18.1,22.5 18.1,22.2 18.1,21.9 16.5,20.9 14.9,21.9 14.9,22.2 14.9,22.5 14.9,23 14.9,23.4 "
       id="polygon20"
       style="fill:#273839;fill-opacity:1" /><path
       class="st0"
       d="m 25,25.5 v 0.4 0.3 0.4 0.4 0.2 0 c 0.1,-0.7 0.3,-1.4 0.5,-2 z"
       id="path22"
       style="fill:#273839;fill-opacity:1" /><path
       class="st0"
       d="M 12,27.2 V 27 26.5 26.1 25.8 25.4 l -0.5,-0.3 c 0.2,0.7 0.4,1.4 0.5,2.1 z"
       id="path24"
       style="fill:#273839;fill-opacity:1" /><path
       class="st0"
       d="m 21,20.2 v 0 l 1.6,1 1.6,-1 V 20 19.5 19.4 c -0.6,0.4 -1.4,0.7 -2.2,0.7 -0.3,0.1 -0.7,0.1 -1,0.1 z"
       id="path26"
       style="fill:#273839;fill-opacity:1" /><path
       class="st0"
       d="M 14,30.6 V 29 l -1.6,-1 -0.3,0.2 c 0.1,0.5 0.1,0.9 0.1,1.3 0,0.7 -0.1,1.3 -0.1,1.7 h 1.1 L 14,30.7 Z"
       id="path28"
       style="fill:#273839;fill-opacity:1"
       sodipodi:nodetypes="ccccscccc" /><path
       class="st0"
       d="M 24.6,28 23,29 v 1.8 l 0.8,0.5 h 1.1 c 0,-0.4 -0.1,-1 -0.1,-1.7 0,-0.4 0,-0.9 0.1,-1.4 z"
       id="path30"
       style="fill:#273839;fill-opacity:1"
       sodipodi:nodetypes="cccccscc" /><path
       class="st0"
       d="m 18.5,21.2 1.6,-1 v 0 c -0.8,0 -1.6,0 -1.6,0 0,0 -0.8,0 -1.6,0 v 0 z"
       id="path32"
       style="fill:#273839;fill-opacity:1" /><path
       class="st0"
       d="m 24.6,20.9 -1.6,1 v 1.8 l 1.6,1 1.3,-0.8 c 0.2,-0.7 0.3,-1.4 0.3,-1.9 v -0.1 z"
       id="path34"
       style="fill:#273839;fill-opacity:1"
       sodipodi:nodetypes="cccccscc" /><path
       class="st0"
       d="m 14,23.6 v -1.7 l -1.6,-1 -1.6,1 V 22 c 0,0.5 0.1,1.1 0.3,1.8 l 1.3,0.8 z"
       id="path36"
       style="fill:#273839;fill-opacity:1"
       sodipodi:nodetypes="ccccsccc" /><path
       class="st0"
       d="m 16,20.2 v 0 c -0.4,0 -0.8,0 -1,0 -0.7,0 -1.5,-0.3 -2.2,-0.7 v 0.1 0.4 0.2 l 1.6,1 z"
       id="path38"
       style="fill:#273839;fill-opacity:1" /><polygon
       class="st0"
       points="14.9,29 14.9,29.4 14.9,29.7 14.9,30.1 14.9,30.6 14.9,30.8 15.7,31.3 17.3,31.3 18.1,30.8 18.1,30.6 18.1,30.1 18.1,29.7 18.1,29.4 18.1,29 16.5,28 "
       id="polygon40"
       style="fill:#273839;fill-opacity:1" /><polygon
       class="st0"
       points="18.9,29 18.9,29.4 18.9,29.7 18.9,30.1 18.9,30.6 18.9,30.8 19.7,31.3 21.3,31.3 22.1,30.8 22.1,30.6 22.1,30.1 22.1,29.7 22.1,29.4 22.1,29 20.5,28 "
       id="polygon42"
       style="fill:#273839;fill-opacity:1" /><path
       class="st1"
       d="m 31.7,14.1 c -0.6,-0.6 -2.1,-0.8 -2.1,-0.8 0,0.8 1,0.8 1,3.9 0,3.1 -2.9,10.6 -2.9,12.8 0,2.2 1,4.6 1,4.6 H 18.5 8.2 c 0,0 1,-2.4 1,-4.6 0,-2.2 -2.9,-9.7 -2.9,-12.8 0,-3.1 1.1,-3 1.1,-3.9 0,0 -1.5,0.1 -2.1,0.8 -0.6,0.7 0.4,4.7 0.4,4.7 0,0 2.4,8.8 2.4,11.3 0,2.5 -1.6,5.2 -1.6,5.2 h 12 12 c 0,0 -1.6,-2.8 -1.6,-5.2 0,-2.4 2.4,-11.3 2.4,-11.3 0,0 1,-4.1 0.4,-4.7 z"
       id="path49"
       style="fill:url(#SVGID_1_)" /></g></g>
</svg>
