<?xml version="1.0" encoding="UTF-8" standalone="no"?>
<svg
   xmlns:dc="http://purl.org/dc/elements/1.1/"
   xmlns:cc="http://creativecommons.org/ns#"
   xmlns:rdf="http://www.w3.org/1999/02/22-rdf-syntax-ns#"
   xmlns:svg="http://www.w3.org/2000/svg"
   xmlns="http://www.w3.org/2000/svg"
   xmlns:sodipodi="http://sodipodi.sourceforge.net/DTD/sodipodi-0.dtd"
   xmlns:inkscape="http://www.inkscape.org/namespaces/inkscape"
   version="1.1"
   id="Layer_4_1_"
   x="0px"
   y="0px"
   viewBox="0 0 512 512"
   xml:space="preserve"
   sodipodi:docname="Extended_Heavy_Mag.svg"
   inkscape:version="1.0.1 (3bc2e813f5, 2020-09-07)"
   width="512"
   height="512"><metadata
   id="metadata21"><rdf:RDF><cc:Work
       rdf:about=""><dc:format>image/svg+xml</dc:format><dc:type
         rdf:resource="http://purl.org/dc/dcmitype/StillImage" /><dc:title></dc:title></cc:Work></rdf:RDF></metadata><defs
   id="defs19" /><sodipodi:namedview
   pagecolor="#ffffff"
   bordercolor="#666666"
   borderopacity="1"
   objecttolerance="10"
   gridtolerance="10"
   guidetolerance="10"
   inkscape:pageopacity="0"
   inkscape:pageshadow="2"
   inkscape:window-width="1366"
   inkscape:window-height="705"
   id="namedview17"
   showgrid="false"
   inkscape:zoom="0.45439191"
   inkscape:cx="-71.711909"
   inkscape:cy="241.79797"
   inkscape:window-x="-8"
   inkscape:window-y="-8"
   inkscape:window-maximized="1"
   inkscape:current-layer="Layer_4_1_"
   inkscape:document-rotation="0" />
<style
   type="text/css"
   id="style2">
	.st0{fill:#483737;}
	.st1{fill:#241C1C;}
</style>
<g
   id="g14"
   transform="matrix(13.380135,0,0,13.380126,8.6897018,8.739336)">
	<path
   class="st0"
   d="m 11.4,31.8 c -0.2,0 -0.5,-0.1 -0.7,-0.2 L 7.5,29.9 C 7.1,29.7 7,29.5 7,29.1 6.9,27.6 6.2,26.9 5.8,26.6 5.6,26.4 5.4,26.2 5.4,25.9 l 0.1,-2.5 c 0,-0.1 0,-0.2 0.1,-0.4 L 3.8,19.8 C 3.5,19.9 3.1,20 2.8,20 L 1,20.1 c -0.5,0 -0.9,0.6 -0.7,1.1 l 6.6,14.4 c 0.2,0.4 0.6,0.5 1,0.4 0.9,-0.3 2.5,-0.9 4.4,-1.7 z"
   id="path4"
   style="fill:#4b5354;fill-opacity:1" />
	<path
   class="st1"
   d="M 36.1,4.5 30.8,2.3 H 26.7 L 22.8,1 C 22.3,0.8 21.8,1 21.5,1.5 20,5 13.9,16.9 4.5,19.7 l 1.4,2.5 c 0.2,-0.4 0.6,-0.7 1,-0.9 0.5,0.5 1.4,0.5 2.2,0.1 0.7,-0.4 1.1,-1.1 1.1,-1.8 1.9,-1.2 3.7,-2.8 5.2,-4.4 0.5,0.1 1.1,-0.1 1.5,-0.5 0.7,-0.6 1,-1.5 0.7,-2.1 2.3,-3 4.1,-6 5.2,-8.2 0.3,-0.5 0.8,-0.7 1.4,-0.6 l 2.3,0.8 h 4 l 3,1.2 c 0.4,0.2 0.7,0.8 0.5,1.4 -0.7,1.9 -1.9,4.3 -3.3,6.8 -0.7,-0.1 -1.5,0.5 -1.8,1.4 -0.2,0.5 -0.2,1.1 0,1.5 -1.4,2.1 -2.9,4.2 -4.3,6 -0.6,-0.2 -1.4,0 -1.9,0.6 -0.7,0.7 -0.8,1.5 -0.5,2.2 -0.1,0.1 -0.2,0.3 -0.4,0.4 -1.3,1.3 -3,2.5 -5,3.6 -0.6,-0.4 -1.6,-0.4 -2.6,0.2 -0.9,0.5 -1.4,1.2 -1.5,1.9 -0.2,0.1 -0.4,0.1 -0.6,0.1 L 13,34 c 3.5,-1.5 7.7,-3.7 10.4,-6.4 4.9,-4.9 12.5,-16.6 13.3,-22 0.1,-0.5 -0.2,-1 -0.6,-1.1 z"
   id="path6"
   style="fill:#273839;fill-opacity:1" />
	<g
   id="g10">
		<circle
   class="st0"
   cx="18.700001"
   cy="19.799999"
   r="2.5999999"
   id="circle8"
   style="fill:#4b5354;fill-opacity:1" />
	</g>
	<path
   class="st1"
   d="M 33.1,6.4 30.2,5.2 h -4 L 23.7,4.4 c -0.2,0 -0.3,0.1 -0.4,0.2 -1,2 -2.7,5 -5,8 0.2,0.9 -0.2,1.9 -1,2.5 -0.5,0.4 -1.1,0.6 -1.7,0.7 -1.6,1.7 -3.2,3 -4.8,4.1 -0.1,0.8 -0.6,1.6 -1.4,2 -0.5,0.3 -1,0.4 -1.5,0.4 -0.4,0 -0.7,-0.1 -1,-0.2 -0.4,0.3 -0.6,0.8 -0.6,1.3 l -0.1,2.1 c 0,0.2 0.1,0.5 0.3,0.6 0.5,0.4 1.1,1.2 1.3,2.5 0,0.3 0.2,0.5 0.4,0.7 l 2.9,1.5 c 0.3,0.1 0.5,0.2 0.8,0.2 0.1,0 0.2,0 0.3,0 0.3,-0.7 0.9,-1.4 1.7,-1.9 0.6,-0.4 1.3,-0.6 2,-0.6 0.4,0 0.7,0.1 1,0.2 1.9,-1.1 3.4,-2.2 4.5,-3.3 v 0 c -0.2,-0.8 0.1,-1.8 0.8,-2.5 0.6,-0.6 1.3,-0.9 2,-0.9 0,0 0.1,0 0.1,0 1.3,-1.6 2.6,-3.4 3.8,-5.3 C 28,16.2 28,15.6 28.2,15 c 0.3,-1 1.2,-1.7 2.1,-1.8 1.4,-2.5 2.5,-4.7 3.1,-6.4 0,-0.1 -0.1,-0.3 -0.3,-0.4 z m -10,0.9 1.8,2.6 -0.5,1 -1.8,-2.6 z m -10.3,13 0.5,3.2 -0.9,0.7 L 11.9,21 Z M 9.3,26 9,22.9 l 0.9,-0.6 0.3,3.2 z m 4.1,3.1 -2.8,-1.5 0.9,-0.6 2.8,1.5 z m 3.2,-2.1 -2.9,-1.4 0.9,-0.6 2.9,1.4 z m 2.1,-3.8 c -1.9,0 -3.4,-1.5 -3.4,-3.4 0,-1.9 1.5,-3.4 3.4,-3.4 1.9,0 3.4,1.5 3.4,3.4 0,1.9 -1.6,3.4 -3.4,3.4 z m 3.5,-9.1 -1.6,-2.8 0.6,-0.9 1.6,2.8 z m 4.9,1.2 -3.2,-0.3 0.6,-0.9 3.2,0.3 z m 2.3,-3.6 h -3.2 l 0.5,-1 h 3.2 z"
   id="path12"
   style="fill:#273839;fill-opacity:1" />
</g>
</svg>
