<?xml version="1.0" encoding="UTF-8" standalone="no"?>
<svg
   xmlns:dc="http://purl.org/dc/elements/1.1/"
   xmlns:cc="http://creativecommons.org/ns#"
   xmlns:rdf="http://www.w3.org/1999/02/22-rdf-syntax-ns#"
   xmlns:svg="http://www.w3.org/2000/svg"
   xmlns="http://www.w3.org/2000/svg"
   xmlns:sodipodi="http://sodipodi.sourceforge.net/DTD/sodipodi-0.dtd"
   xmlns:inkscape="http://www.inkscape.org/namespaces/inkscape"
   version="1.1"
   id="Layer_4_1_"
   x="0px"
   y="0px"
   viewBox="0 0 512 512"
   xml:space="preserve"
   sodipodi:docname="Extended_Energy_Mag.svg"
   width="512"
   height="512"
   inkscape:version="1.0.1 (3bc2e813f5, 2020-09-07)"><metadata
   id="metadata27"><rdf:RDF><cc:Work
       rdf:about=""><dc:format>image/svg+xml</dc:format><dc:type
         rdf:resource="http://purl.org/dc/dcmitype/StillImage" /><dc:title></dc:title></cc:Work></rdf:RDF></metadata><defs
   id="defs25" /><sodipodi:namedview
   pagecolor="#ffffff"
   bordercolor="#666666"
   borderopacity="1"
   objecttolerance="10"
   gridtolerance="10"
   guidetolerance="10"
   inkscape:pageopacity="0"
   inkscape:pageshadow="2"
   inkscape:window-width="1366"
   inkscape:window-height="705"
   id="namedview23"
   showgrid="false"
   inkscape:zoom="0.22719595"
   inkscape:cx="-478.67029"
   inkscape:cy="663.17706"
   inkscape:window-x="-8"
   inkscape:window-y="-8"
   inkscape:window-maximized="1"
   inkscape:current-layer="Layer_4_1_" />
<style
   type="text/css"
   id="style2">
	.st0{fill:#241C1C;}
	.st1{fill:#483737;}
</style>
<g
   id="g20"
   transform="matrix(13.406593,0,0,13.406585,7.9780221,7.9781845)">
	<path
   class="st0"
   d="m 0.3,27.5 v 4 c 0,0.6 0.5,1.2 1.2,1.2 h 30.6 l 4.6,-4 v -7 c 0,-0.6 -0.5,-1.2 -1.2,-1.2 h -28 l -7.2,7 M 9,24.6 c -0.6,0 -1.1,-0.5 -1.1,-1.1 0,-0.6 0.5,-1.1 1.1,-1.1 0.6,0 1.1,0.5 1.1,1.1 0,0.6 -0.5,1.1 -1.1,1.1 z m 25,0 c -0.6,0 -1.1,-0.5 -1.1,-1.1 0,-0.6 0.5,-1.1 1.1,-1.1 0.6,0 1.1,0.5 1.1,1.1 0,0.6 -0.5,1.1 -1.1,1.1 z"
   id="path4"
   style="fill:#273839;fill-opacity:1" />
	<path
   class="st1"
   d="m 1.5,32.7 h 30.6 l 4.6,-4 V 27.5 H 0.3 v 4 c 0,0.7 0.5,1.2 1.2,1.2 z"
   id="path6"
   style="fill:#4b5354;fill-opacity:1" />
	<path
   class="st0"
   d="M 34.6,9.2 V 4.8 C 34.6,4.5 34.4,4.3 34.1,4.3 H 26.5 L 24.1,6.6 H 4 C 3.7,6.6 3.5,6.8 3.5,7.1 v 10.1 5 c 0,0.1 0.1,0.1 0.1,0.1 L 6.9,19.2 H 7.3 V 10.3 C 7.3,9.4 8,8.7 8.9,8.7 h 0.9 c 0.9,0 1.6,0.7 1.6,1.6 v 8.9 h 2.4 v -8.9 c 0,-0.9 0.7,-1.6 1.6,-1.6 h 0.9 c 0.9,0 1.6,0.7 1.6,1.6 v 8.8 h 2.4 v -8.8 c 0,-0.9 0.7,-1.6 1.6,-1.6 h 0.9 c 0.9,0 1.6,0.7 1.6,1.6 v 8.8 h 2.4 V 7.7 c 0,-0.9 0.7,-1.6 1.6,-1.6 h 0.9 c 0.9,0 1.6,0.7 1.6,1.6 v 11.4 h 3.2 c 0.3,0 0.5,-0.2 0.5,-0.5 v -5.2 c -0.7,-0.3 -1.2,-1.1 -1.2,-2.1 0,-1 0.5,-1.8 1.2,-2.1 z"
   id="path8"
   style="fill:#273839;fill-opacity:1" />
	<g
   id="g18">
		<path
   class="st1"
   d="M 10.5,19.8 H 8.3 C 8.2,19.8 8.1,19.7 8.1,19.6 V 10 C 8.1,9.7 8.3,9.5 8.6,9.5 h 1.5 c 0.3,0 0.5,0.2 0.5,0.5 v 9.6 c 0,0.1 0,0.2 -0.1,0.2 z"
   id="path10"
   style="fill:#4b5354;fill-opacity:1" />
		<path
   class="st1"
   d="m 17,19.8 h -2.2 c -0.1,0 -0.2,-0.1 -0.2,-0.2 V 10 c 0,-0.3 0.2,-0.5 0.5,-0.5 h 1.5 c 0.3,0 0.5,0.2 0.5,0.5 v 9.6 c 0,0.1 0,0.2 -0.1,0.2 z"
   id="path12"
   style="fill:#4b5354;fill-opacity:1" />
		<path
   class="st1"
   d="m 23.5,19.8 h -2.2 c -0.1,0 -0.2,-0.1 -0.2,-0.2 V 10 c 0,-0.3 0.2,-0.5 0.5,-0.5 h 1.5 c 0.3,0 0.5,0.2 0.5,0.5 v 9.6 c 0,0.1 0,0.2 -0.1,0.2 z"
   id="path14"
   style="fill:#4b5354;fill-opacity:1" />
		<path
   class="st1"
   d="m 30,19.8 h -2.2 c -0.1,0 -0.2,-0.1 -0.2,-0.2 V 7.4 c 0,-0.3 0.2,-0.5 0.5,-0.5 h 1.5 c 0.3,0 0.5,0.2 0.5,0.5 v 12.2 c 0,0.1 0,0.2 -0.1,0.2 z"
   id="path16"
   style="fill:#4b5354;fill-opacity:1" />
	</g>
</g>
</svg>
