<?xml version="1.0" encoding="UTF-8" standalone="no"?>
<svg
   xmlns:dc="http://purl.org/dc/elements/1.1/"
   xmlns:cc="http://creativecommons.org/ns#"
   xmlns:rdf="http://www.w3.org/1999/02/22-rdf-syntax-ns#"
   xmlns:svg="http://www.w3.org/2000/svg"
   xmlns="http://www.w3.org/2000/svg"
   xmlns:sodipodi="http://sodipodi.sourceforge.net/DTD/sodipodi-0.dtd"
   xmlns:inkscape="http://www.inkscape.org/namespaces/inkscape"
   width="444.64499"
   height="128"
   viewBox="0 0 117.64564 33.866667"
   version="1.1"
   id="svg8"
   inkscape:version="1.0.1 (3bc2e813f5, 2020-09-07)"
   sodipodi:docname="G7 Scout.svg">
  <defs
     id="defs2" />
  <sodipodi:namedview
     id="base"
     pagecolor="#ffffff"
     bordercolor="#666666"
     borderopacity="1.0"
     inkscape:pageopacity="0.0"
     inkscape:pageshadow="2"
     inkscape:zoom="0.98994949"
     inkscape:cx="171.27572"
     inkscape:cy="50.3996"
     inkscape:document-units="mm"
     inkscape:current-layer="layer1"
     inkscape:document-rotation="0"
     showgrid="false"
     units="px"
     inkscape:window-width="1366"
     inkscape:window-height="705"
     inkscape:window-x="-8"
     inkscape:window-y="-8"
     inkscape:window-maximized="1" />
  <metadata
     id="metadata5">
    <rdf:RDF>
      <cc:Work
         rdf:about="">
        <dc:format>image/svg+xml</dc:format>
        <dc:type
           rdf:resource="http://purl.org/dc/dcmitype/StillImage" />
        <dc:title></dc:title>
      </cc:Work>
    </rdf:RDF>
  </metadata>
  <g
     inkscape:label="Layer 1"
     inkscape:groupmode="layer"
     id="layer1">
    <path
       style="fill:#273839;fill-opacity:1;stroke-width:0.207435"
       d="m 62.018524,30.58516 c -0.08406,-0.08406 -0.335017,-0.564693 -0.557687,-1.068073 -0.36944,-0.835178 -0.404853,-1.413096 -0.404853,-6.606737 v -5.6915 l -1.74799,-0.807573 C 58.346598,15.967111 56.829729,15.394813 55.937173,15.139504 54.345227,14.684138 54.058717,14.673939 40.882916,14.603626 L 27.45149,14.531953 V 13.52923 c 0,-0.551497 -0.06082,-1.30682 -0.135153,-1.678496 l -0.135158,-0.675775 -3.85797,0.06939 c -2.121884,0.03816 -5.988434,0.05055 -8.592331,0.02754 -4.384259,-0.03876 -4.729249,-0.06869 -4.665241,-0.404856 0.05742,-0.301604 0.367037,-0.380557 1.830267,-0.466729 1.380837,-0.08132 1.761232,-0.17091 1.761536,-0.4148704 3.33e-4,-0.2737112 1.285829,-0.3003454 10.682909,-0.2213418 33.498901,0.2816342 36.093329,0.2764532 36.093329,-0.072087 0,-0.2879459 0.461452,-0.3288768 3.707752,-0.3288768 3.796144,0 5.21788,0.2287099 5.74232,0.923747 0.149642,0.198318 0.840855,0.323171 2.178068,0.393421 1.077375,0.0566 2.344656,0.165536 2.816186,0.242083 0.54197,0.08798 0.908904,0.05571 0.997558,-0.08773 0.0876,-0.141735 0.986573,-0.226908 2.394965,-0.226908 1.727623,0 2.327467,-0.07274 2.565883,-0.311152 0.403717,-0.4037235 1.369221,-0.397912 1.954106,0.01176 0.253563,0.177603 0.461027,0.263104 0.461027,0.190004 0,-0.0731 0.363481,0.15497 0.807731,0.506825 0.444258,0.351855 0.910985,0.639736 1.037178,0.639736 0.126194,0 0.229448,0.136084 0.229448,0.302408 0,0.166326 0.404916,0.539709 0.89982,0.829741 0.811529,0.475585 1.116867,0.527333 3.111524,0.527333 h 2.211711 v -0.950745 c 0,-1.187595 0.465192,-1.162431 0.631691,0.03418 0.08137,0.584952 0.488517,1.291685 1.452051,2.520677 l 1.338935,1.707821 7.928288,0.0035 7.9283,0.0035 -0.0458,2.229927 c -0.0407,1.982669 -0.094,2.269079 -0.48072,2.583008 -0.36229,0.294092 -0.45763,0.672451 -0.57066,2.264707 -0.0746,1.051395 -0.18101,1.956962 -0.23642,2.012367 -0.0554,0.05541 -2.64566,-0.811347 -5.75612,-1.926122 -3.11045,-1.114773 -5.854125,-2.027538 -6.097038,-2.028364 -0.337455,-0.0012 -0.501903,-0.203394 -0.696969,-0.857173 -0.309578,-1.037591 -1.670536,-2.411434 -2.388821,-2.411434 -0.276203,0 -0.975818,0.186691 -1.554713,0.41487 -0.578894,0.228179 -1.179494,0.414871 -1.334676,0.414871 -0.155181,0 -0.845573,-0.869744 -1.534197,-1.932764 l -1.252055,-1.932764 -1.261839,-0.350823 -1.261837,-0.350823 -1.050256,0.532202 c -0.577641,0.292712 -1.14026,0.5022 -1.250264,0.465529 -0.110012,-0.03667 -0.552294,-0.718742 -0.982846,-1.515717 -0.634834,-1.175104 -0.888123,-1.461464 -1.339813,-1.514731 -0.465951,-0.05495 -0.537499,-0.143308 -0.437781,-0.540627 0.213484,-0.850602 -0.915588,-1.521172 -1.528799,-0.907966 -0.343872,0.343879 -0.311908,1.100049 0.0595,1.408324 0.185919,0.154297 0.529941,0.20041 0.865966,0.116072 0.488648,-0.122642 0.524273,-0.09988 0.288452,0.184272 -0.227738,0.274402 -0.912968,0.324197 -4.461324,0.324197 h -4.19226 l -0.812643,1.815057 -0.812642,1.815057 -0.103718,6.119338 c -0.09653,5.695341 -0.133254,6.169641 -0.529997,6.845359 l -0.426279,0.726023 -3.735183,0.05638 c -2.054348,0.03101 -3.803956,-0.01239 -3.888017,-0.09645 z m 4.135197,-1.192758 c 0.06996,-0.278741 0.06623,-0.605452 -0.0083,-0.726023 -0.08047,-0.130224 -0.972676,-0.219226 -2.197591,-0.219226 -2.205811,0 -2.368428,0.09266 -1.739194,0.991019 0.290239,0.414373 0.499752,0.461027 2.070399,0.461027 1.680144,0 1.752387,-0.01954 1.874683,-0.506797 z m 2.261164,-0.702365 1.551942,0.06827 0.117913,-0.829741 c 0.06486,-0.456357 0.09018,-3.07004 0.0563,-5.808184 l -0.06161,-4.978443 -1.166883,-0.06143 c -0.966417,-0.05088 -1.191257,0.0026 -1.308758,0.311153 -0.113774,0.298786 -0.09014,0.321228 0.119333,0.113297 0.143667,-0.142611 0.6626,-0.259295 1.153185,-0.259295 h 0.89197 v 5.393314 5.393314 h -0.89197 c -0.490585,0 -1.017726,-0.116682 -1.171425,-0.259293 -0.227344,-0.210945 -0.257269,-0.195872 -0.16049,0.08084 0.0879,0.251327 -0.03954,0.37184 -0.488059,0.461543 -0.500641,0.100129 -0.604714,0.222281 -0.593869,0.697037 0.0129,0.565308 0.01661,0.566967 0.206821,0.09249 0.182394,-0.455004 0.284043,-0.479162 1.745617,-0.414869 z m -6.321726,-6.051068 c 0,-4.655766 -0.04255,-5.393314 -0.311152,-5.393314 -0.268602,0 -0.311153,0.737548 -0.311153,5.393314 0,4.655766 0.04255,5.393314 0.311153,5.393314 0.268601,0 0.311152,-0.737548 0.311152,-5.393314 z m 4.978443,3.015841 c 0,-0.26601 -0.345571,-0.319184 -2.074351,-0.319184 h -2.07435 v 1.037175 c 0,0.570447 0.07067,1.037176 0.157072,1.037176 0.08639,0 0.123661,-0.420055 0.08283,-0.933458 l -0.07424,-0.933458 h 1.784088 c 2.017723,0 2.183101,0.162405 1.16178,1.140893 -0.342268,0.327914 -0.619972,0.695424 -0.61712,0.816691 0.0082,0.347496 1.654295,-1.489219 1.654296,-1.845835 z m 0.56988,-5.4415 c -0.03619,-1.346986 -0.06592,-0.302113 -0.06606,2.321942 -1.45e-4,2.624054 0.02946,3.726134 0.0658,2.449066 0.03633,-1.277069 0.03645,-3.424022 2.07e-4,-4.771008 z m -0.777314,4.283325 c 0.257857,-0.174303 0.153792,-0.352998 -0.607542,-1.043244 -0.869969,-0.788735 -0.979991,-0.829671 -2.074352,-0.771808 -1.144843,0.06054 -1.156278,0.0676 -1.222131,0.755015 -0.115749,1.208281 -0.01452,1.277039 1.875023,1.273546 0.944818,-0.0016 1.857868,-0.09783 2.029002,-0.213509 z m -3.733833,-0.82049 c 0,-0.620081 0.0043,-0.622306 1.205802,-0.622306 1.068999,0 1.273443,0.0706 1.802008,0.622306 l 0.596206,0.622306 h -1.802008 -1.802008 z m 45.797545,-2.5452 c 0.049,-2.231909 0.008,-2.668252 -0.26194,-2.771724 -0.73194,-0.280871 -0.93705,0.294516 -0.93705,2.628701 0,2.580793 0.0887,2.942073 0.70057,2.854766 0.41899,-0.05978 0.44315,-0.191207 0.49842,-2.711743 z m -2.27766,1.881407 c 0.33039,-0.330382 0.33039,-3.113041 0,-3.443423 -0.17495,-0.17496 -1.34602,-0.248922 -3.94125,-0.248922 h -3.69235 v 0.589008 c 0,0.618389 0.620434,1.070473 1.4691,1.070473 0.22682,0 0.62533,0.139515 0.88559,0.310034 0.41576,0.272422 0.52183,0.273223 0.87429,0.0066 0.61822,-0.467654 0.89216,-0.377176 1.08256,0.357533 0.14798,0.571127 0.27312,0.677334 0.81869,0.694907 0.35421,0.0114 0.95501,0.219864 1.33515,0.463235 0.81175,0.519714 0.84361,0.525183 1.16822,0.200558 z m -0.96082,-0.311918 -0.4497,-0.372618 0.67415,-1.030234 0.67415,-1.030235 0.0638,1.114577 c 0.0804,1.404503 -0.27348,1.88936 -0.96242,1.31851 z m -1.99581,-0.639506 c -0.16729,-0.167294 -0.13178,-1.76879 0.0453,-2.045702 0.21248,-0.332163 2.44837,-0.593029 2.62557,-0.306329 0.0758,0.122645 -0.18706,0.705392 -0.58412,1.294992 -0.57456,0.853174 -0.84966,1.082049 -1.34765,1.121226 -0.34415,0.02707 -0.67677,-0.0018 -0.73914,-0.06419 z m -2.46675,-1.253351 c -0.18882,-0.208638 -0.34331,-0.535349 -0.34331,-0.726022 0,-0.287871 0.22543,-0.346678 1.32891,-0.346678 1.22678,0 1.32058,0.03188 1.22042,0.41487 -0.0597,0.228179 -0.27287,0.41487 -0.47377,0.41487 -0.2009,0 -0.48148,0.14002 -0.62352,0.311153 -0.34351,0.413915 -0.69183,0.392493 -1.10873,-0.06819 z m -1.743494,-0.38034 c -0.142614,-0.05755 -0.259291,-0.289454 -0.259291,-0.515354 0,-0.338427 0.118668,-0.399285 0.67416,-0.345725 0.516715,0.04982 0.689655,0.174008 0.740455,0.53173 0.0529,0.372423 -0.0309,0.46342 -0.41488,0.450354 -0.264633,-0.009 -0.59783,-0.06346 -0.740444,-0.121005 z m -34.170308,0.940702 c 0.510853,-0.470887 0.928824,-0.937617 0.928824,-1.037176 0,-0.09956 -0.746767,-0.181016 -1.659481,-0.181016 h -1.65948 v 1.037176 1.037176 h 0.730656 c 0.567874,0 0.937591,-0.190744 1.659481,-0.85616 z m -2.182703,-0.181016 v -0.829741 l 1.503905,0.0052 1.503905,0.0052 -0.873568,0.824554 c -0.623548,0.588565 -1.053971,0.824555 -1.503904,0.824555 -0.597104,0 -0.630338,-0.04375 -0.630338,-0.82974 z m 3.111527,-1.951317 c 0,-0.160511 -0.463681,-0.680054 -1.030405,-1.154541 -0.828096,-0.693322 -1.164101,-0.849844 -1.71134,-0.797198 -0.665533,0.06402 -0.682353,0.09014 -0.743634,1.15454 l -0.0627,1.089034 h 1.774039 c 1.386447,0 1.774039,-0.06376 1.77404,-0.291835 z m -3.111527,-0.74534 c 0,-0.785994 0.03324,-0.829741 0.630338,-0.829741 0.449933,0 0.880356,0.23599 1.503904,0.824555 l 0.873568,0.824554 -1.503905,0.0052 -1.503905,0.0052 z m 28.833481,0.311152 c 0,-0.171133 -0.140011,-0.311152 -0.311148,-0.311152 -0.323922,0 -0.41155,0.245334 -0.17286,0.484015 0.238681,0.238682 0.484008,0.151063 0.484008,-0.172863 z m 14.416744,-1.037175 c 0,-0.391373 -0.15766,-0.418162 -2.78373,-0.472995 -2.80752,-0.05862 -3.29555,0.04875 -3.05625,0.672368 0.10931,0.284851 0.52511,0.322931 2.9835,0.273238 2.69895,-0.05456 2.85648,-0.08062 2.85648,-0.472611 z m -34.976884,-3.215244 0.782031,-1.763199 3.361951,-0.05703 3.36195,-0.05703 0.204794,-0.538647 c 0.319036,-0.839132 -0.06003,-1.11049 -1.551235,-1.11049 -0.704795,0 -1.376728,0.09529 -1.493187,0.211745 -0.13826,0.138259 -1.344008,0.162922 -3.474344,0.07107 -2.865277,-0.123545 -3.28737,-0.186962 -3.466007,-0.52075 -0.450825,-0.8423716 -1.239626,-1.0066712 -4.833044,-1.0066712 -3.398717,0 -3.420218,0.00293 -3.825846,0.5185882 -0.300383,0.381874 -0.605122,0.518588 -1.155949,0.518588 h -0.748028 v 1.745245 1.745245 l 1.267259,1.058897 1.267259,1.058897 4.760184,-0.05562 4.760182,-0.05562 z m -11.549114,0.355159 c -0.862707,-0.879035 -0.872929,-0.906969 -0.872929,-2.385505 v -1.496052 h 0.724265 c 0.499612,0 0.804631,-0.128685 0.983355,-0.41487 0.242384,-0.388117 0.483745,-0.414871 3.742889,-0.414871 2.857625,0 3.575696,0.06021 3.995087,0.33501 0.28121,0.184255 0.51129,0.464294 0.51129,0.622306 0,0.226426 0.458872,0.287296 2.165827,0.287296 1.220127,0 2.221806,0.09058 2.29403,0.207434 0.16704,0.27028 2.529615,0.27028 2.696656,0 0.138797,-0.224578 2.647095,-0.291569 2.862222,-0.07644 0.07205,0.07204 0.03765,0.305411 -0.07644,0.518588 -0.189502,0.354088 -0.498781,0.387596 -3.577491,0.387596 h -3.370058 l -0.753825,1.659481 -0.753826,1.659482 h -4.849062 -4.849057 z m -21.527544,-2.34061 c 0.179284,-0.179283 0.32597,-0.452654 0.32597,-0.607489 0,-0.395059 -0.582839,-0.933458 -1.010506,-0.933458 -0.820389,0 -1.191648,1.236173 -0.493399,1.642866 0.512079,0.298258 0.802921,0.273095 1.177935,-0.101919 z m -1.1842,-0.356038 c -0.164475,-0.428614 0.156697,-0.821424 0.601569,-0.73575 0.551123,0.106138 0.510547,0.881971 -0.05031,0.961996 -0.242181,0.03455 -0.490247,-0.06725 -0.551255,-0.226246 z m 20.06111,0.224899 c 0.272823,-0.389509 0.278566,-0.519885 0.03884,-0.881599 -0.375844,-0.567093 -0.900976,-0.643923 -1.388092,-0.203089 -0.488898,0.442445 -0.499983,0.672005 -0.05613,1.162451 0.460796,0.509176 1.015791,0.478467 1.405389,-0.07777 z M 55.945352,12.1641 c -0.07168,-0.186805 -0.03451,-0.435471 0.08261,-0.55259 0.33814,-0.33814 0.983035,-0.110245 0.983035,0.34739 0,0.527646 -0.877102,0.69654 -1.065647,0.2052 z m -1.63101,-0.311758 c 0,-0.2695 -0.956276,-0.318466 -7.143371,-0.365781 -4.186434,-0.03201 -7.222904,0.0249 -7.335504,0.137503 -0.582353,0.582352 0.216984,0.647529 7.284397,0.593961 6.232565,-0.04724 7.194478,-0.09613 7.194478,-0.365683 z M 35.749296,11.748624 c -6.22e-4,-0.331728 -6.892118,-0.275796 -7.002996,0.05684 -0.06955,0.208652 0.658178,0.252311 3.457654,0.207436 2.187992,-0.03507 3.54559,-0.136271 3.545342,-0.264274 z M 110.30751,26.21405 c -0.14327,-0.09847 -0.18992,-0.901912 -0.13178,-2.270345 0.083,-1.953708 0.12834,-2.143084 0.58477,-2.442145 0.48939,-0.320665 0.49479,-0.362753 0.49479,-3.859453 0,-2.086105 -0.0898,-3.703104 -0.21915,-3.944733 -0.21148,-0.395169 -0.1553,-0.407379 1.60762,-0.349374 l 1.82678,0.06011 -0.0213,0.726023 c -0.12091,4.115235 -0.32453,9.064513 -0.41575,10.105274 -0.10361,1.18224 -0.16969,1.324319 -0.7959,1.711339 -0.68679,0.42446 -2.46326,0.584103 -2.93005,0.263308 z m 3.37332,-4.14158 c -0.0526,-0.201828 -0.0991,-0.08692 -0.10331,0.255346 -0.004,0.342269 0.0388,0.5074 0.0956,0.36696 0.0568,-0.140441 0.0603,-0.420478 0.008,-0.622306 z m 0.0637,-1.416377 c 0,-0.439355 -0.084,-0.686358 -0.20743,-0.610064 -0.34391,0.212541 -0.22741,1.348329 0.13828,1.348329 0.038,0 0.0691,-0.332219 0.0691,-0.738265 z m 0.20744,-1.750956 c 0,-0.214713 -0.0934,-0.448077 -0.20744,-0.518588 -0.12135,-0.075 -0.20743,0.140216 -0.20743,0.518588 0,0.37837 0.0861,0.593585 0.20743,0.518587 0.11409,-0.07051 0.20744,-0.303876 0.20744,-0.518587 z m 0,-1.659482 c 0,-0.342268 -0.0934,-0.622306 -0.20744,-0.622306 -0.23073,0 -0.28629,0.889167 -0.0691,1.106321 0.23436,0.234355 0.27658,0.160458 0.27658,-0.484015 z m 0,-1.67837 c 0,-0.09654 -0.14002,-0.121796 -0.31116,-0.05612 -0.17113,0.06566 -0.31115,0.260862 -0.31115,0.433759 0,0.255911 0.0578,0.266346 0.31115,0.05612 0.17114,-0.142028 0.31116,-0.33722 0.31116,-0.433759 z m -80.488749,8.830199 c -0.198994,-0.239773 -0.236963,-1.2338 -0.157659,-4.127557 l 0.104459,-3.81172 -0.645619,-0.579126 c -0.632777,-0.567605 -0.689983,-0.577953 -2.875549,-0.520199 -1.927056,0.05092 -2.229927,0.01401 -2.229927,-0.271761 0,-0.296668 0.78957,-0.330688 7.6751,-0.330688 6.88553,0 7.675099,0.03401 7.675099,0.330688 0,0.286854 -0.30509,0.32165 -2.301675,0.262509 l -2.301675,-0.06817 -0.62182,0.695939 c -0.484496,0.542245 -0.592445,0.816402 -0.488801,1.241397 0.210399,0.862725 0.497208,3.936157 0.513351,5.50103 0.01894,1.835292 -0.153399,1.978125 -2.397223,1.986906 -1.26275,0.0049 -1.751733,-0.07268 -1.948061,-0.309241 z m 2.717511,-0.513904 c 0.107697,0 0.190469,-1.435878 0.190469,-3.304145 0,-2.727189 -0.05692,-3.361066 -0.325969,-3.630115 -0.487293,-0.487293 -1.071401,-0.394785 -1.484307,0.235077 -0.309482,0.472098 -0.367793,1.038884 -0.367793,3.575012 v 3.013963 l 0.622306,0.133654 c 0.342268,0.07351 0.746621,0.09831 0.898565,0.0551 0.151943,-0.04321 0.36197,-0.07855 0.466729,-0.07855 z m -1.608819,-0.466729 c -0.2337,-0.368843 -0.06913,-5.599946 0.185989,-5.911901 0.358847,-0.438794 1.135811,-0.312399 1.27512,0.207434 0.162732,0.607234 0.160965,2.120903 -0.0049,4.25242 -0.132584,1.703179 -0.135982,1.711341 -0.712537,1.711341 -0.318624,0 -0.653249,-0.116682 -0.743609,-0.259294 z m 54.549889,0.444736 c -1.013047,-0.292968 -0.984739,-0.527915 0.09608,-0.797289 2.396873,-0.597375 2.473287,-1.218472 0.539305,-4.382951 -1.245401,-2.037786 -1.464119,-2.286249 -2.29035,-2.601786 -0.890411,-0.340054 -0.93956,-0.336623 -1.948655,0.136014 -0.569369,0.266676 -1.132413,0.601991 -1.251221,0.745143 -0.223536,0.269347 -0.807981,0.166652 -0.807981,-0.141974 0,-0.0963 0.609322,-0.515842 1.354042,-0.932317 1.40679,-0.786722 1.349958,-0.781748 3.248364,-0.284271 0.680435,0.178307 0.883526,0.407791 1.839811,2.078866 0.591221,1.033139 1.200242,1.926514 1.353372,1.985279 0.153139,0.05876 0.990997,-0.104692 1.861904,-0.363235 1.460274,-0.433508 1.6263,-0.445072 2.134185,-0.148644 0.606099,0.353765 1.484168,1.868456 1.484168,2.560239 0,0.489115 -7.84e-4,0.489475 -4.036377,1.658041 -2.69347,0.77995 -2.609755,0.768506 -3.576651,0.488885 z m 4.493958,-2.769295 c 0.313733,-0.378025 0.109928,-0.73511 -0.419567,-0.73511 -0.252137,0 -0.40263,0.142145 -0.40263,0.380298 0,0.679253 0.407129,0.854944 0.822197,0.354812 z m -5.884688,1.419405 c -0.210305,-0.548035 -2.400852,-4.041925 -2.854816,-4.553388 -0.570475,-0.642722 -0.474504,-0.865795 0.605215,-1.406826 0.869479,-0.435679 1.081043,-0.466305 1.799537,-0.260498 0.733456,0.210095 0.95463,0.457426 2.229925,2.493636 0.77864,1.243225 1.415718,2.476874 1.415718,2.741444 0,0.638817 -0.740515,1.097314 -2.016283,1.248411 -0.879915,0.104212 -1.053301,0.06557 -1.179296,-0.262779 z M 71.352956,20.628123 c -0.212509,-0.21251 -0.153647,-1.516814 0.121953,-2.702229 0.189302,-0.814239 0.348911,-1.095109 0.622306,-1.095109 0.511054,0 0.478053,0.826431 -0.0701,1.755488 -0.280965,0.476199 -0.404822,0.966748 -0.345738,1.369317 0.0903,0.615226 -0.06589,0.93506 -0.328417,0.672533 z m 7.023863,-0.9392 c -0.342269,-0.12135 -0.870081,-0.394017 -1.172915,-0.605929 -0.302836,-0.211911 -0.788559,-0.385293 -1.079387,-0.385293 -0.525529,0 -0.526638,-0.0038 -0.180743,-0.606416 0.329624,-0.574333 0.327412,-0.629204 -0.0418,-1.037176 -0.387624,-0.42832 -0.385688,-0.43076 0.341828,-0.43076 0.687052,0 0.739363,0.04816 0.857972,0.789901 0.191457,1.197309 0.91843,1.758274 2.419296,1.866836 1.634685,0.118243 1.863552,-0.08377 1.863552,-1.64496 0,-0.674517 -0.09267,-1.219211 -0.207433,-1.219211 -0.114088,0 -0.207432,0.402214 -0.207432,0.893811 0,0.491596 -0.138369,1.075007 -0.307487,1.296469 -0.288342,0.377581 -0.300071,0.362778 -0.188279,-0.237662 0.09195,-0.493882 4.15e-4,-0.778519 -0.400408,-1.244611 L 79.553958,16.519633 H 75.38726 c -2.291684,0 -4.16676,-0.02567 -4.166831,-0.05704 -7e-5,-0.03137 0.327757,-0.708128 0.728503,-1.503904 l 0.72863,-1.446868 h 4.057195 c 3.387928,0 4.110234,-0.05304 4.378709,-0.321514 0.544602,-0.544601 0.938111,-0.255639 1.77779,1.305456 0.720001,1.33859 0.773909,1.53616 0.495218,1.81485 -0.172003,0.172004 -0.440753,0.312734 -0.597217,0.312734 -0.520534,0 -0.782329,0.487689 -0.782329,1.457375 0,1.328187 -0.580064,1.867669 -1.984,1.845212 -0.563097,-0.009 -1.303847,-0.115663 -1.646114,-0.237014 z m -4.17478,-1.295531 c -0.220236,-0.573925 0.0261,-0.694432 0.398772,-0.195079 0.325183,0.435723 0.330964,0.499388 0.04535,0.499388 -0.180042,0 -0.379895,-0.136939 -0.44412,-0.304309 z M 74.1244,17.15418 c 0,-0.177868 0.09335,-0.323395 0.207436,-0.323395 0.114089,0 0.207435,0.08784 0.207435,0.195193 0,0.107356 -0.09335,0.252884 -0.207435,0.323394 -0.11409,0.07051 -0.207436,-0.01732 -0.207436,-0.195192 z m 19.754418,-2.449605 c -0.702761,-0.864042 -1.315713,-1.856933 -1.440656,-2.333645 -0.119608,-0.456358 -0.285254,-0.993097 -0.368099,-1.192753 -0.141717,-0.341546 0.264955,-0.363011 6.877435,-0.363011 h 7.028062 l 2.43243,2.298839 c 1.46025,1.380059 2.43243,2.457836 2.43243,2.696657 0,0.385143 -0.25072,0.397818 -7.86921,0.397818 h -7.869213 z m 2.774849,0.772567 c 0.322017,-0.49145 0.31981,-0.54984 -0.03569,-0.94259 -0.464235,-0.512978 -1.083884,-0.448259 -1.482264,0.154818 -0.268066,0.4058 -0.254722,0.495074 0.131805,0.881598 0.569637,0.569637 0.969095,0.542597 1.386093,-0.09383 z m 11.786433,0.197932 c 0.17928,-0.179282 0.32597,-0.452652 0.32597,-0.607488 0,-0.725567 -1.10813,-1.194393 -1.618,-0.684536 -0.50985,0.509858 -0.041,1.617995 0.68454,1.617995 0.15483,0 0.42821,-0.146687 0.60749,-0.325971 z m -85.241029,-0.687887 -1.037175,-0.368894 -0.06095,-1.486693 -0.06095,-1.486694 2.187156,-0.03112 c 1.202938,-0.01711 2.30384,-0.04044 2.446451,-0.05187 0.371602,-0.02973 0.325854,2.304668 -0.06057,3.090783 -0.27371,0.556818 -0.414863,0.626571 -1.341345,0.662835 -0.569752,0.02231 -1.501918,-0.125381 -2.072622,-0.328364 z m 3.09671,-1.593898 c 0.435649,-0.435649 0.410708,-0.777656 -0.08974,-1.230557 -0.844096,-0.763896 -2.00796,0.501925 -1.202282,1.307604 0.344523,0.344523 0.903806,0.311172 1.292024,-0.07704 z M 25.08489,13.127535 c -0.231957,-0.375312 0.126695,-0.883817 0.577947,-0.819432 0.603585,0.08612 0.597988,0.8701 -0.0068,0.956288 -0.245934,0.03505 -0.502939,-0.02654 -0.571118,-0.136856 z M 11.668589,14.08227 c -0.01688,-0.834643 -0.02745,-0.8494 -0.19861,-0.277068 -0.09943,0.332493 -0.132571,0.682539 -0.07364,0.777882 0.138351,0.223856 0.02086,0.218456 -0.629867,-0.02895 -0.479003,-0.182117 -0.531775,-0.311471 -0.528916,-1.29647 0.0051,-1.747661 -0.0823,-1.70752 3.878294,-1.781695 l 3.482477,-0.06523 v 1.620984 1.620984 l -0.726023,0.143622 c -0.399313,0.07899 -1.72949,0.149002 -2.955951,0.155576 l -2.229927,0.01196 z m 98.248131,0.06467 c -0.78601,-0.807652 -0.7989,-0.842276 -0.31115,-0.835951 0.76674,0.0099 1.27682,0.490645 1.19848,1.129434 l -0.0673,0.549065 z M 17.826076,13.338221 c -0.199078,-1.759625 -0.0701,-1.970634 1.098247,-1.796752 0.525681,0.07823 0.968292,0.15685 0.983579,0.174701 0.01529,0.01785 0.06638,0.662539 0.113548,1.432641 l 0.08576,1.400188 h -1.072072 -1.072072 z m 3.082652,0.07324 c -0.164443,-1.316148 -0.0387,-1.811473 0.415573,-1.63715 0.444938,0.17074 0.466314,2.774685 0.02277,2.774685 -0.203389,0 -0.340769,-0.356508 -0.438352,-1.137535 z M 8.9970613,13.940329 C 8.6948432,13.37563 8.729838,12.849332 9.1052426,12.313367 c 0.561226,-0.801263 0.8169219,-0.559777 0.8309652,0.784783 0.011051,1.058092 -0.04197,1.243413 -0.3557127,1.243413 -0.2027852,0 -0.4653303,-0.180556 -0.5834338,-0.401234 z M 20.466762,12.993234 c 9.48e-4,-0.798625 0.03842,-1.099917 0.08332,-0.669537 0.04491,0.430379 0.04415,1.0838 -0.0016,1.452046 -0.04581,0.368246 -0.08256,0.01612 -0.08164,-0.782509 z M 79.874457,12.20751 c -0.164476,-0.428614 0.1567,-0.821424 0.601569,-0.73575 0.551126,0.106138 0.510546,0.881971 -0.05033,0.961996 -0.24218,0.03455 -0.490247,-0.06725 -0.551251,-0.226246 z m -5.750059,-1.703497 c -0.285223,-0.163048 -0.73225,-0.299759 -0.993393,-0.303802 -0.462702,-0.0072 -0.473277,-0.05361 -0.41487,-1.822408 l 0.05994,-1.8150574 1.956252,-0.060141 1.95625,-0.060141 1.207136,1.1945386 c 0.663918,0.6569958 1.205586,1.1041144 1.203705,0.993597 C 79.097818,8.5200805 78.661129,8.0096003 78.129635,7.496199 77.352016,6.7450514 77.236204,6.5486671 77.536654,6.4906836 c 0.589985,-0.1138598 3.018233,2.400873 3.018233,3.1257325 0,0.4506999 -0.09683,0.5764399 -0.443865,0.5764399 -0.244117,0 -0.567864,-0.163355 -0.719421,-0.3630119 -0.262446,-0.345725 -0.275883,-0.345725 -0.282164,0 -0.0055,0.3150459 -0.226734,0.3630119 -1.672588,0.3630119 -1.289525,0 -1.692973,0.07031 -1.785392,0.311153 -0.149277,0.389007 -0.846563,0.389007 -1.527061,0 z m 0.207435,-0.5467833 c 0,-0.1599303 0.29989,-0.1945266 0.933459,-0.1076859 L 76.19875,9.9774887 76.178071,9.0998578 C 76.16146,8.395048 76.129205,8.3243462 76.014229,8.7408149 75.895248,9.1718001 75.726221,9.2700465 75.01362,9.3224115 c -0.754105,0.055416 -0.868457,0.00543 -0.948804,-0.4148697 -0.0515,-0.269409 -0.103679,-0.093291 -0.119606,0.4037192 -0.01553,0.4848799 0.06511,0.881599 0.17919,0.881599 0.11409,0 0.207436,-0.106033 0.207437,-0.2356303 z M 73.387424,6.8561806 c -0.06679,-0.1080667 -0.209851,-0.1418394 -0.317919,-0.075053 -0.108068,0.066789 -0.141839,0.2098535 -0.07505,0.3179202 0.06679,0.1080675 0.209852,0.1418401 0.317919,0.075053 0.108068,-0.066789 0.141841,-0.2098528 0.07505,-0.3179202 z m -3.204293,3.1482884 c 0,-0.4670228 -2.575524,-1.0562192 -4.616995,-1.0562192 h -2.047217 l 0.065,-0.6741646 0.065,-0.6741644 2.248219,-0.059059 c 1.674937,-0.043999 2.383147,-0.1474693 2.777356,-0.4057651 0.37323,-0.2445497 0.994312,-0.3493856 2.107918,-0.3558081 l 1.578782,-0.0091 0.06025,1.7113402 0.06025,1.7113402 H 71.33242 c -0.632104,0 -1.149281,-0.08478 -1.149281,-0.188391 z m 0.82974,-0.2264787 c 0,-0.1140895 -0.09335,-0.2074347 -0.207435,-0.2074347 -0.11409,0 -0.207436,0.093345 -0.207436,0.2074347 0,0.1140895 0.09335,0.2074355 0.207436,0.2074355 0.114089,0 0.207435,-0.093346 0.207435,-0.2074355 z m 1.244611,0.034574 c 0,-0.2700961 -0.246593,-0.449726 -0.447187,-0.325753 -0.214533,0.1325892 -0.02955,0.4986155 0.251995,0.4986155 0.107355,0 0.195192,-0.077793 0.195192,-0.1728625 z M 3.3216677,9.6415023 C 3.2465991,9.5664337 3.2669362,9.403077 3.3668579,9.2784904 3.4667827,9.1539046 3.6134257,8.7485186 3.6927303,8.3776336 3.8029553,7.8621413 3.7597315,7.6736802 3.5092484,7.5775586 2.5646511,7.2150825 3.5665828,7.0813356 7.226561,7.0813356 h 4.044986 V 8.4296635 9.777992 H 7.3648512 c -2.148682,0 -3.9681157,-0.061416 -4.0431859,-0.1364897 z M 5.2154361,8.3778046 C 5.1699167,7.6683576 5.065095,7.3924883 4.8410596,7.3924883 c -0.2240363,0 -0.3288548,0.2758693 -0.3743774,0.9853163 -0.056731,0.8840686 -0.018259,0.9853172 0.3743774,0.9853172 0.3926345,0 0.4311049,-0.1012486 0.3743765,-0.9853172 z M 6.8678732,8.779711 C 6.913032,8.64423 6.8021891,8.5333816 6.6215445,8.5333816 c -0.1806414,0 -0.3284393,0.1477978 -0.3284393,0.3284385 0,0.3663153 0.4465579,0.3025213 0.574768,-0.082109 z m 1.2446116,0 C 8.1576436,8.64423 8.0468007,8.5333816 7.8661554,8.5333816 c -0.1806414,0 -0.3284393,0.1477978 -0.3284393,0.3284385 0,0.3663153 0.4465577,0.3025213 0.5747687,-0.082109 z m 1.2921481,0.064821 c 0,-0.1711346 -0.1400186,-0.3111527 -0.3111528,-0.3111527 -0.323925,0 -0.4115441,0.245333 -0.1728626,0.4840152 C 9.1592997,9.2560759 9.4046329,9.1684569 9.4046329,8.844532 Z M 6.5005409,7.807356 c 0,-0.1711338 -0.1400189,-0.3111527 -0.3111526,-0.3111527 -0.3239258,0 -0.4115449,0.2453337 -0.1728626,0.4840152 0.2386815,0.2386822 0.4840152,0.1510624 0.4840152,-0.1728625 z m 1.0371752,0 c 0,-0.1711338 -0.1400182,-0.3111527 -0.3111527,-0.3111527 -0.323925,0 -0.411544,0.2453337 -0.1728626,0.4840152 0.2386823,0.2386822 0.4840153,0.1510624 0.4840153,-0.1728625 z m 1.2446112,0 c 0,-0.1711338 -0.1400181,-0.3111527 -0.3111531,-0.3111527 -0.3239249,0 -0.411544,0.2453337 -0.1728625,0.4840152 C 8.5369943,8.2189007 8.7823273,8.1312809 8.7823273,7.807356 Z M 9.9794015,7.742535 C 10.02456,7.6070539 9.9137102,7.4962055 9.7330718,7.4962055 c -0.1806409,0 -0.3284389,0.1477978 -0.3284389,0.3284393 0,0.3663154 0.4465582,0.3025208 0.5747686,-0.08211 z m 1.9198045,0.7389876 0.0053,-1.2964698 0.788629,-0.3630116 c 0.433748,-0.1996559 0.876216,-0.3630108 0.983264,-0.3630108 0.10705,0 0.207711,0.5688494 0.223694,1.2641106 0.03375,1.4683242 -0.361284,2.054851 -1.383984,2.054851 h -0.622306 l 0.0053,-1.2964694 z m 8.911298,0.7741935 C 20.620776,9.0271075 19.841442,8.9456884 17.421735,8.9016829 l -3.142376,-0.057146 -0.06223,-1.3145814 c -0.03742,-0.7906191 0.0347,-1.43138 0.180977,-1.6076224 0.194103,-0.2338802 1.05022,-0.2930414 4.240594,-0.2930414 4.364117,0 4.249214,0.033516 4.249214,-1.239383 0,-0.6291224 0.303093,-0.8349681 1.229428,-0.8349681 0.623169,0 1.172722,0.4848729 1.293079,1.140893 0.05196,0.2832201 0.239777,0.4148705 0.591863,0.4148705 0.4287,0 0.526599,-0.1121914 0.580044,-0.6647351 l 0.06429,-0.6647358 h 4.233565 c 2.607354,0 4.282965,0.079928 4.362165,0.2080793 0.08039,0.1300707 0.218886,0.1355517 0.369428,0.014622 0.365858,-0.2938983 6.147652,-0.2965686 6.501376,-0.00298 0.220597,0.1830782 0.349487,0.1834608 0.53137,0.00157 0.314347,-0.3143468 1.457676,-0.3086846 1.775152,0.00879 0.193605,0.1936057 0.304239,0.1936057 0.497844,0 0.304376,-0.3043758 3.899781,-0.347359 3.899781,-0.046625 0,0.1314443 0.186366,0.1314443 0.532092,0 0.70602,-0.2684291 1.612248,-0.2567732 1.893372,0.024352 0.163913,0.1639123 0.343882,0.1639123 0.650156,0 0.232927,-0.1246586 1.166194,-0.2266524 2.073926,-0.2266524 h 1.650425 l 0.08476,0.7260231 0.08476,0.7260225 -13.597208,0.035641 -13.597208,0.035641 9.749452,0.1718504 c 14.281159,0.2517297 16.905965,0.3623703 16.905965,0.7126214 0,0.1588703 0.186691,0.2888548 0.414869,0.2888548 0.228179,0 0.414871,0.086678 0.414871,0.1926187 0,0.1059397 0.146686,0.3393048 0.32597,0.5185876 0.296335,0.2963357 0.14076,0.3254459 -1.71134,0.3202071 -1.982119,-0.00557 -2.0537,-0.022461 -2.64233,-0.6223053 -0.332759,-0.3390987 -0.674508,-0.616543 -0.75944,-0.616543 -0.08493,0 -0.390059,0.2800379 -0.67806,0.6223054 C 49.943802,7.668421 49.522876,7.6583003 48.665292,6.8270971 47.911344,6.0963431 47.461407,6.1577027 47.056779,7.0464544 46.754868,7.7095963 45.953606,7.6162407 45.130752,6.822052 L 44.432256,6.1478877 43.827333,6.822052 C 43.058418,7.6789785 42.404871,7.6956739 41.797315,6.873914 41.544264,6.5316456 41.216272,6.2516085 41.068441,6.2516085 c -0.351521,0 -1.21596,0.9229132 -1.034449,1.1044234 0.0771,0.077107 -0.137945,0.1401874 -0.477881,0.1401874 -0.415964,0 -0.813026,-0.203492 -1.214276,-0.6223053 -0.691439,-0.7217082 -0.947053,-0.7654471 -1.419896,-0.2429606 -0.450563,0.4978678 -0.433161,0.6578303 0.07156,0.6578303 0.35169,0 0.414871,0.1382902 0.414871,0.9080595 0,1.1484529 -0.318169,1.41512 -1.591507,1.3338933 L 34.815432,9.4668555 34.750913,8.4497481 C 34.709365,7.7948289 34.779289,7.3752268 34.947273,7.2714086 35.139121,7.1528393 35.073862,6.9984128 34.700643,6.6877947 34.421514,6.4554841 34.146461,6.2650426 34.089417,6.2645918 34.032372,6.2641355 33.682325,6.5397562 33.311534,6.877072 32.74108,7.3960265 32.63737,7.6344187 32.63737,8.4267548 c 0,0.9021354 -0.02276,0.9363825 -0.622305,0.9363825 -0.608476,0 -0.622305,-0.023049 -0.622305,-1.037176 0,-0.655799 0.08957,-1.0371759 0.243593,-1.0371759 0.133978,0 0.02436,-0.2333644 -0.243593,-0.5185876 -0.599647,-0.6382961 -0.782086,-0.6387077 -1.503905,-0.00337 -0.480661,0.4230571 -0.570447,0.6668973 -0.570447,1.5492092 0,0.9786442 -0.03392,1.0471256 -0.518587,1.0471256 -0.481134,0 -0.518589,-0.071906 -0.518589,-0.9956885 0,-0.5476288 -0.112015,-1.1077037 -0.248921,-1.2446108 -0.193605,-0.1936066 -0.05804,-0.2489222 0.610063,-0.2489222 0.472441,0 0.916675,-0.093346 0.987187,-0.2074357 0.0832,-0.1346225 -0.920587,-0.2074348 -2.859701,-0.2074348 -2.706678,0 -3.022618,0.038361 -3.356767,0.4075926 -0.364264,0.4025075 -0.34077,0.4083311 1.882927,0.4667294 l 2.251794,0.059138 -0.06699,0.9334581 c -0.03685,0.5134025 -0.08185,0.9438912 -0.100022,0.9566433 -0.01817,0.012749 -1.448473,0.078716 -3.178466,0.1465972 -2.585558,0.1014469 -3.189294,0.07057 -3.391828,-0.173471 z m 2.016372,-1.1890634 c -0.04944,-0.2567011 -0.0899,-0.046672 -0.0899,0.4667289 0,0.5134022 0.04045,0.7234309 0.0899,0.4667294 0.04944,-0.256701 0.04944,-0.6767573 0,-0.9334583 z M 18.047817,6.8721893 18.497311,6.0441597 h -0.484436 c -0.326267,0 -0.625414,0.2281091 -0.916225,0.6986488 -0.542356,0.8775514 -0.539307,0.9612268 0.03495,0.959121 0.330128,-0.00117 0.598286,-0.2440558 0.916224,-0.8297402 z m 1.521138,0.00172 0.423301,-0.8297403 -0.470944,0.00157 c -0.33118,0.00109 -0.611297,0.2473698 -0.943869,0.8297403 l -0.472922,0.8281432 h 0.520566 c 0.398486,0 0.619836,-0.194585 0.943868,-0.8297403 z m 1.580956,0.015508 c 0.425062,-0.7831695 0.426731,-0.8142961 0.04898,-0.9130794 -0.2866,-0.074951 -0.559232,0.1421263 -1.020475,0.8125204 l -0.629393,0.9147893 0.580412,-0.00172 c 0.46075,-0.00134 0.671139,-0.1688743 1.020475,-0.8125204 z m 11.8371,-0.2591159 c 0.264055,-0.2480668 0.480099,-0.5047679 0.480099,-0.570448 0,-0.065677 -0.466729,-0.1194168 -1.037176,-0.1194168 -0.570447,0 -1.037176,0.040659 -1.037176,0.090348 0,0.1309025 0.882491,1.0505448 1.008106,1.0505448 0.05832,0 0.322093,-0.2029629 0.586147,-0.451028 z m 3.79906,-0.570448 c 0,-0.065677 -0.420056,-0.1194168 -0.933458,-0.1194168 -0.513401,0 -0.933458,0.040659 -0.933458,0.090348 0,0.04969 0.203455,0.3069152 0.452121,0.5716092 L 35.823399,7.0836594 36.304736,6.631467 C 36.56947,6.3827612 36.786071,6.1255372 36.786071,6.0598571 Z m 3.0463,0.5704472 c 0.264054,-0.248066 0.480171,-0.5047671 0.48026,-0.5704472 1.22e-4,-0.091274 -1.503778,-0.1124126 -2.058812,-0.028938 -0.11821,0.017781 0.857399,1.0504131 0.992404,1.0504131 0.05833,0 0.322094,-0.2029629 0.586148,-0.4510279 z M 43.604952,6.387213 c 0.21269,-0.2562761 0.09255,-0.312843 -0.795072,-0.3743366 -0.575093,-0.039843 -1.045564,-0.031784 -1.045493,0.017907 7e-5,0.04969 0.199701,0.3027827 0.443623,0.5624262 0.463128,0.4929772 0.86617,0.433544 1.396942,-0.2059979 z m 3.138007,0.1755289 0.487188,-0.5185883 h -1.109493 -1.109495 l 0.487189,0.5185883 c 0.267954,0.2852233 0.547991,0.5185876 0.622306,0.5185876 0.07431,0 0.35435,-0.2333643 0.622305,-0.5185876 z m 3.526397,0 0.487189,-0.5185883 H 49.64705 48.537557 l 0.487188,0.5185883 c 0.267955,0.2852233 0.547991,0.5185876 0.622305,0.5185876 0.07432,0 0.354352,-0.2333643 0.622306,-0.5185876 z M 24.301052,4.5372429 c 0.08256,-0.4286809 -0.516267,-0.7175388 -0.832316,-0.4014891 -0.31605,0.3160504 -0.02719,0.914874 0.401488,0.8323181 0.198692,-0.038267 0.392565,-0.2321374 0.430828,-0.430829 z m 13.314759,3.892419 c 0,-0.8758375 0.07229,-1.1408938 0.311153,-1.1408938 0.171135,0 0.311153,0.093346 0.311153,0.2074357 0,0.1354387 3.491825,0.2074348 10.060605,0.2074348 h 10.060605 v 0.8297406 0.8297409 h -0.897533 c -0.871067,0 -0.894944,-0.017627 -0.809802,-0.5977407 0.04825,-0.3287579 -0.01458,-0.6609768 -0.139643,-0.7382658 -0.149686,-0.092511 -0.227293,0.1294364 -0.227138,0.6496001 l 2.39e-4,0.7901237 -4.2008,-0.063691 C 49.77421,9.3681153 47.795173,9.2514295 47.686789,9.1438505 47.575572,9.0334611 45.537829,8.9482513 43.009125,8.9482513 c -3.20833,0 -4.55128,-0.070678 -4.72952,-0.2489221 -0.162177,-0.1621781 -0.248922,-0.1710287 -0.248922,-0.025402 0,0.5818532 0.677976,0.6824613 4.994602,0.7411723 l 4.443697,0.060442 -4.926585,0.047512 -4.926586,0.047504 z M 29.733277,8.3259441 c 0,-1.0141278 0.01384,-1.037176 0.622305,-1.037176 0.608476,0 0.622306,0.02305 0.622306,1.037176 0,1.0141276 -0.01384,1.037176 -0.622306,1.037176 -0.608476,0 -0.622305,-0.023049 -0.622305,-1.037176 z m 3.318962,0 c 0,-1.0141278 0.01383,-1.037176 0.622305,-1.037176 0.608476,0 0.622306,0.02305 0.622306,1.037176 0,1.0141276 -0.01384,1.037176 -0.622306,1.037176 -0.608475,0 -0.622305,-0.023049 -0.622305,-1.037176 z M 58.566762,8.1307507 c 0,-0.6778022 0.07053,-1.2759648 0.156759,-1.3292499 0.08622,-0.053281 0.412927,-0.04791 0.726023,0.01194 0.543893,0.1039719 0.569265,0.1632138 0.569265,1.3292498 V 9.36312 h -0.726024 -0.726023 z m 1.866916,-0.029526 c 0,-1.0807887 0.490494,-1.0091211 0.58297,0.08518 0.04897,0.5795138 -0.01309,0.7618472 -0.259295,0.7618472 -0.240431,0 -0.323675,-0.2178403 -0.323675,-0.8470272 z m 1.037176,0.2247214 c 0,-0.5992572 0.03457,-0.6223055 0.933458,-0.6223055 0.898885,0 0.933458,0.02305 0.933458,0.6223055 0,0.5992574 -0.03457,0.6223057 -0.933458,0.6223057 -0.898885,0 -0.933458,-0.02305 -0.933458,-0.6223057 z M 57.477728,7.3588254 c 0.142611,-0.057546 0.375976,-0.057546 0.518587,0 0.142611,0.057546 0.02593,0.1046273 -0.259294,0.1046273 -0.285223,0 -0.401905,-0.04708 -0.259293,-0.1046273 z m 12.654436,-1.159089 c -0.255493,-0.6947524 0.05943,-0.7778821 2.946946,-0.7778821 2.290411,0 2.912936,0.062093 3.11964,0.3111526 0.226309,0.2726878 0.02582,0.3111528 -1.62184,0.3111528 -1.034039,0 -1.937764,0.093346 -2.008276,0.2074356 -0.190106,0.3075973 -2.320963,0.2622432 -2.43647,-0.051862 z m 0.362119,-1.4001876 c 0.07052,-0.1140895 0.337389,-0.2074348 0.593061,-0.2074348 0.560919,0 0.962703,-0.3636067 0.962703,-0.8712276 0,-0.2725318 0.160266,-0.3733833 0.593354,-0.3733833 0.326342,0 1.009414,-0.057028 1.517935,-0.1267284 0.711484,-0.09752 1.005017,-0.046296 1.273563,0.2222518 0.427957,0.427958 0.472176,1.563958 0.06088,1.563958 -0.158458,0 -0.275139,-0.1597791 -0.259294,-0.3550642 C 75.252416,4.4555 75.089849,4.2607864 74.87262,4.216127 c -0.311023,-0.063944 -0.368979,0.00989 -0.278714,0.3550642 0.110427,0.4222661 0.04658,0.4357933 -2.056928,0.4357933 -1.394438,0 -2.125037,-0.07419 -2.042689,-0.2074357 z"
       id="path911" />
  </g>
</svg>
