<?xml version="1.0" encoding="UTF-8" standalone="no"?>
<svg
   xmlns:dc="http://purl.org/dc/elements/1.1/"
   xmlns:cc="http://creativecommons.org/ns#"
   xmlns:rdf="http://www.w3.org/1999/02/22-rdf-syntax-ns#"
   xmlns:svg="http://www.w3.org/2000/svg"
   xmlns="http://www.w3.org/2000/svg"
   xmlns:sodipodi="http://sodipodi.sourceforge.net/DTD/sodipodi-0.dtd"
   xmlns:inkscape="http://www.inkscape.org/namespaces/inkscape"
   width="383.79001"
   height="128"
   viewBox="0 0 101.54443 33.866667"
   version="1.1"
   id="svg8"
   inkscape:version="1.0.1 (3bc2e813f5, 2020-09-07)"
   sodipodi:docname="HAVOC Rifle.svg">
  <defs
     id="defs2" />
  <sodipodi:namedview
     id="base"
     pagecolor="#ffffff"
     bordercolor="#666666"
     borderopacity="1.0"
     inkscape:pageopacity="0.0"
     inkscape:pageshadow="2"
     inkscape:zoom="0.98994949"
     inkscape:cx="171.27572"
     inkscape:cy="50.3996"
     inkscape:document-units="mm"
     inkscape:current-layer="layer1"
     inkscape:document-rotation="0"
     showgrid="false"
     units="px"
     inkscape:window-width="1366"
     inkscape:window-height="705"
     inkscape:window-x="-8"
     inkscape:window-y="-8"
     inkscape:window-maximized="1" />
  <metadata
     id="metadata5">
    <rdf:RDF>
      <cc:Work
         rdf:about="">
        <dc:format>image/svg+xml</dc:format>
        <dc:type
           rdf:resource="http://purl.org/dc/dcmitype/StillImage" />
        <dc:title></dc:title>
      </cc:Work>
    </rdf:RDF>
  </metadata>
  <g
     inkscape:label="Layer 1"
     inkscape:groupmode="layer"
     id="layer1">
    <path
       style="fill:#273839;fill-opacity:1;stroke-width:0.203479"
       d="M 58.78638,29.25631 C 58.248834,28.466846 57.396978,27.23489 56.893366,26.51863 52.785311,20.67596 52.213341,19.745609 52.213341,18.906239 V 18.075972 H 50.72794 c -0.915133,0 -1.584399,-0.09765 -1.743273,-0.254348 -0.206608,-0.203787 -0.310173,-0.18356 -0.520957,0.101738 -0.32879,0.445027 -0.690521,0.452103 -1.164907,0.02279 -0.298638,-0.270263 -0.426218,-0.285229 -0.674552,-0.07913 -0.326548,0.271011 -2.605961,0.344573 -3.211396,0.103639 -0.494694,-0.196864 -0.98506,0.03049 -1.111899,0.515525 -0.05871,0.224487 -0.301816,0.44794 -0.540249,0.496563 -1.251836,0.255281 -2.80671,0.383402 -6.012767,0.49545 -2.073471,0.07247 -3.57081,0.208318 -3.607958,0.327351 -0.03493,0.111914 0.991993,0.913805 2.282045,1.781979 1.931825,1.300076 2.442599,1.556738 2.89578,1.455127 0.628048,-0.140819 1.331702,-0.908233 2.095486,-2.285366 0.571482,-1.030406 1.222067,-1.398111 2.088804,-1.180574 0.757834,0.190205 0.679096,0.656086 -0.330986,1.958409 -0.477403,0.615525 -1.265766,1.714314 -1.751918,2.441753 -0.59812,0.894978 -1.128469,1.437749 -1.640282,1.678705 -0.887957,0.418038 -2.205318,0.455016 -2.704503,0.07591 -0.32753,-0.24874 -0.316496,-0.300473 0.15946,-0.74761 0.281238,-0.264209 0.485366,-0.595781 0.453619,-0.736824 C 35.65574,24.106012 34.121166,22.972122 32.27732,21.7273 l -3.352451,-2.263314 -0.573169,0.641489 -0.573169,0.641489 -1.009229,-0.725058 c -0.757798,-0.544425 -1.213683,-0.725058 -1.829904,-0.725058 -0.787334,0 -0.836909,0.03927 -1.220163,0.966527 -0.591233,1.430449 -0.70458,1.576966 -1.219974,1.576966 -0.408016,0 -0.507812,-0.161986 -0.752168,-1.220877 -0.154954,-0.671483 -0.246729,-1.472682 -0.203941,-1.780445 0.07693,-0.553358 0.06508,-0.559569 -1.067145,-0.559569 -0.629716,0 -1.254818,-0.109878 -1.389114,-0.244175 -0.189915,-0.189913 -0.298438,-0.189913 -0.488351,0 -0.294895,0.294895 -1.38366,0.326917 -1.38366,0.0407 0,-0.111913 -0.137348,-0.203479 -0.30522,-0.203479 -0.16787,0 -0.305219,0.09157 -0.305219,0.203479 0,0.312852 -3.40075,0.263823 -3.52844,-0.05087 -0.07424,-0.182949 -0.150396,-0.190806 -0.271307,-0.02799 -0.106151,0.142942 -1.138053,0.237418 -2.80008,0.256363 -2.55327,0.0291 -2.9487555,-0.05576 -2.960589,-0.635336 -0.00169,-0.08394 5.124566,-0.152609 11.391731,-0.152609 9.604137,0 11.394847,0.04454 11.394847,0.283448 0,0.475679 0.492358,0.530469 4.766872,0.530469 3.864731,0 4.14623,-0.0255 4.491442,-0.406959 0.35506,-0.392336 0.626709,-0.406958 7.560275,-0.406958 4.659001,0 7.191981,0.07166 7.191981,0.203479 0,0.111913 0.457829,0.203479 1.017397,0.203479 0.559569,0 1.017398,0.09157 1.017398,0.20348 0,0.124232 0.941265,0.203479 2.416838,0.203479 1.900065,0 2.470999,-0.06526 2.670147,-0.305218 0.323096,-0.389308 0.610438,-0.391517 0.610438,-0.0047 0,0.165291 0.228247,0.450082 0.507215,0.63287 0.681526,0.446552 1.465473,0.22655 1.897323,-0.532456 0.280731,-0.493401 0.475953,-0.602079 1.083422,-0.603134 0.615792,-0.0011 0.761986,0.08237 0.865262,0.493849 0.06835,0.272325 0.303729,0.552095 0.523071,0.621712 0.542351,0.172134 1.228089,-0.228249 1.228089,-0.717049 0,-0.391264 0.188299,-0.3998 8.819823,-0.3998 10.244517,0 9.493322,-0.166303 9.493322,2.101687 v 1.357464 H 84.973525 83.95613 v 0.712177 0.712179 h 1.119139 c 1.084546,0 1.119213,0.0173 1.121904,0.559567 0.0015,0.307762 0.05692,0.761475 0.123088,1.008249 0.117905,0.439752 0.08833,0.447001 -1.486133,0.364328 -1.541295,-0.08093 -1.634981,-0.05996 -2.310479,0.517369 -0.387225,0.330947 -0.781822,0.601937 -0.876878,0.602199 -0.09505,2.04e-4 -0.827577,-0.680213 -1.62783,-1.51217 l -1.45502,-1.512645 0.864795,-0.739823 c 1.030172,-0.881314 1.109127,-1.474024 0.305209,-2.291225 l -0.559562,-0.568817 -5.015314,0.107778 c -4.558375,0.09796 -5.054281,0.143095 -5.443071,0.495405 -0.754721,0.683902 -0.55268,1.410492 1.131502,4.069179 0.857599,1.353822 1.704576,2.614702 1.882182,2.801955 0.426464,0.449632 1.468013,0.535494 2.139098,0.176341 0.525089,-0.281021 0.572986,-0.253632 1.955411,1.118199 0.779425,0.773452 1.417138,1.516523 1.417138,1.65127 0,0.134746 -0.341344,0.526355 -0.758545,0.870245 l -0.758531,0.625252 h -3.569998 -3.569998 l -0.339862,-0.661309 c -0.186922,-0.36372 -0.367984,-0.805045 -0.40236,-0.980724 -0.03438,-0.175681 -0.978157,-1.764032 -2.097294,-3.529674 l -2.034794,-3.210257 -3.760621,0.1346 c -2.06834,0.07403 -3.79214,0.166123 -3.830667,0.204649 -0.0615,0.0615 1.432959,2.295574 3.872671,5.789269 l 0.77092,1.103968 3.340594,-0.05117 c 3.165578,-0.04849 3.352062,-0.02974 3.559511,0.357885 0.120405,0.224978 0.218919,0.506639 0.218919,0.62591 0,0.14624 -1.321659,0.216857 -4.058758,0.216857 h -4.058762 z m 1.52576,-8.717916 c 0.03375,-0.716072 -0.01689,-1.380205 -0.112538,-1.475852 -0.09565,-0.09565 -1.016026,-0.114126 -2.045288,-0.04107 l -1.871386,0.132835 v 1.258234 c 0,0.692029 0.03925,1.296387 0.08721,1.343016 0.04797,0.04663 0.940733,0.08478 1.983925,0.08478 h 1.89671 z m 15.809366,6.849425 -1.56321,-1.477889 1.778517,-1.576965 C 77.315,23.465633 78.231573,22.756 78.373646,22.756 c 0.142065,0 0.863046,0.663852 1.602179,1.475225 l 1.343876,1.475225 -1.072669,0.986424 c -0.589975,0.542534 -1.407842,1.253366 -1.817494,1.57963 l -0.744824,0.593205 z M 31.224814,23.106951 c -2.940546,-2.028722 -2.976463,-2.062672 -2.6727,-2.526271 0.169343,-0.258452 0.398711,-0.469913 0.509705,-0.469913 0.208165,0 5.11914,3.294825 5.639019,3.783279 0.248003,0.23301 0.250485,0.351774 0.01648,0.789004 -0.151502,0.283086 -0.328661,0.506953 -0.393685,0.497479 -0.06502,-0.0095 -1.459495,-0.942581 -3.098825,-2.073578 z m 55.503721,0.641009 c -0.26118,-1.305916 -0.208767,-1.39892 0.788486,-1.39892 0.908035,0 0.915651,-0.0058 0.915651,-0.701028 0,-0.691959 -0.01253,-0.701832 -0.966523,-0.763049 l -0.966524,-0.06202 -0.113562,-1.458195 c -0.06245,-0.802008 -0.233915,-1.603209 -0.381009,-1.780445 -0.147094,-0.177237 -0.187555,-0.316017 -0.08992,-0.308397 0.09764,0.0076 0.749809,0.703251 1.449269,1.54585 1.178777,1.419999 1.271748,1.604933 1.271748,2.529641 0,0.548702 0.06871,0.99705 0.152608,0.996328 0.08393,-7.33e-4 0.587549,-0.374111 1.119139,-0.82975 1.43187,-1.227291 1.368774,-1.469669 -1.094617,-4.205284 L 86.752142,15.02378 h -2.313665 -2.313665 v 1.032317 c 0,0.873265 -0.05485,1.021899 -0.356089,0.964697 -0.268316,-0.05095 -0.371373,-0.305426 -0.418108,-1.032317 -0.03406,-0.530584 -0.126332,-0.964697 -0.204948,-0.964697 -0.07861,0 -0.111196,0.398964 -0.07247,0.886587 0.06798,0.855274 0.04748,0.891207 -0.583531,1.017396 -0.933472,0.186694 -5.893651,0.162291 -5.893651,-0.02899 0,-0.08789 0.618079,-0.474699 1.373491,-0.859566 1.129196,-0.575297 1.681113,-0.721589 3.103066,-0.822499 l 1.729573,-0.12274 -1.903998,-0.0351 c -1.845127,-0.03401 -1.947313,-0.01151 -3.305182,0.727956 -0.770644,0.419677 -1.401796,0.880313 -1.402542,1.023637 -7.37e-4,0.205847 -1.048437,0.251564 -4.985641,0.217622 -4.923751,-0.04244 -4.989664,-0.0487 -5.427675,-0.514938 -0.638417,-0.679564 -1.281848,-0.587268 -2.383839,0.341946 L 60.42801,17.669009 H 58.35544 56.282872 V 16.04118 14.413345 h 1.831315 1.831315 v -0.620151 -0.620148 l 1.271746,0.06058 1.271746,0.06058 0.06202,0.966527 c 0.056,0.872625 0.110357,0.966528 0.559568,0.966528 0.273654,0 0.49755,0.09156 0.49755,0.20348 0,0.130435 1.899141,0.203479 5.290465,0.203479 4.187772,0 5.290468,-0.05478 5.290468,-0.262831 0,-0.144558 0.505641,-0.51082 1.123647,-0.813917 0.981409,-0.48133 1.367756,-0.551088 3.052193,-0.551088 1.150039,0 1.928542,-0.08214 1.928542,-0.203478 0,-0.111914 0.137347,-0.20348 0.305217,-0.20348 0.167871,0 0.305225,0.09157 0.305225,0.20348 0,0.294121 2.975657,0.254719 3.456824,-0.04577 0.31495,-0.196686 0.451692,-0.196686 0.648382,0 0.137082,0.13709 0.414061,0.249254 0.615514,0.249254 0.323974,0 0.366264,-0.199711 0.366264,-1.729574 0,-1.60283 -0.0303,-1.729575 -0.413346,-1.729575 -0.227346,0 -0.466054,0.137347 -0.530477,0.305218 -0.151569,0.394996 -0.480534,0.394996 -0.480534,0 0,-0.247367 -0.327836,-0.305218 -1.729573,-0.305218 -1.401752,0 -1.729581,0.05785 -1.729581,0.305218 0,0.447148 -0.341896,0.372489 -0.465913,-0.101739 -0.09791,-0.374397 -0.277548,-0.406958 -2.245136,-0.406958 -1.695452,0 -2.337965,-0.08541 -3.100042,-0.4120745 -1.2006,-0.5146378 -1.375446,-0.3982376 -0.354858,0.2362535 0.670095,0.416596 1.080705,0.490206 3.065133,0.549474 2.008093,0.05997 2.317152,0.116576 2.499775,0.457828 0.248638,0.464568 0.770408,0.51157 0.934422,0.08418 0.1679,-0.43755 2.556015,-0.421265 3.232597,0.02204 0.458924,0.300699 0.509656,0.300699 0.625047,0 0.272121,-0.709145 0.489005,-0.262594 0.489005,1.006859 v 1.334119 l -0.602014,-0.355617 c -0.4792,-0.283069 -0.697131,-0.309381 -1.068268,-0.128976 -0.790661,0.384328 -2.764169,0.474608 -3.097108,0.14168 -0.34402,-0.344022 -0.851449,-0.378832 -1.041423,-0.07145 -0.08563,0.138541 -0.86851,0.199401 -2.129427,0.165539 l -1.994034,-0.05355 -1.089139,0.75012 c -0.87973,0.605894 -1.274632,0.750119 -2.053902,0.750119 h -0.964765 l -0.0023,-1.983924 c -0.0015,-1.091158 -0.05899,-2.327295 -0.128364,-2.746972 L 71.490532,9.326356 h 1.349239 c 1.063666,0 1.349239,-0.0646 1.349239,-0.3052185 0,-0.2508402 -0.360442,-0.3052194 -2.023094,-0.3052194 h -2.023098 l -0.06257,0.8647875 -0.06257,0.8647864 -1.678705,0.0591 -1.678705,0.0591 V 9.6398056 8.7159196 H 64.625585 62.590792 V 9.8350559 10.954193 H 61.573393 60.555995 V 9.9367962 8.9193987 H 58.419462 56.282928 V 7.6761381 6.4328774 l 4.222198,0.1690294 c 5.543271,0.2219164 5.547789,0.2217303 5.887317,-0.2424518 0.255322,-0.3490623 0.515938,-0.3849457 2.455548,-0.338104 1.193452,0.028824 2.26079,0.1432782 2.371857,0.254349 0.111074,0.1110703 0.940347,0.2019458 1.842835,0.2019458 1.835655,0 2.968514,0.335107 5.107423,1.5107944 l 1.323482,0.7274794 h 3.648465 c 3.398882,0 3.662878,0.026925 3.859111,0.3935817 0.115848,0.2164706 0.210632,0.4453842 0.210632,0.5086984 0,0.063317 -2.083119,0.1131032 -4.629151,0.1106414 l -4.629158,-0.0045 -1.6246,-1.0129377 -1.6246,-1.0129206 H 72.447791 70.1913 L 69.977648,6.935438 69.763996,6.1723898 l -0.02572,0.9665273 -0.02572,0.9665273 2.594362,5.083e-4 2.594361,5.092e-4 1.526093,1.0163797 1.5261,1.0163644 4.73728,5.1e-4 c 5.02955,5.48e-4 5.19324,-0.03215 4.834887,-0.966012 -0.201453,-0.5249605 -0.166484,-0.5541978 0.58516,-0.4894393 0.378252,0.032588 0.748158,-0.038537 0.822018,-0.1580489 0.171099,-0.2768438 7.678623,-0.2996927 7.954416,-0.024212 0.118944,0.1188096 0.154164,3.1911592 0.09156,7.9865672 l -0.101744,7.793483 -1.296557,0.06123 -1.296557,0.06122 0.138239,-1.290858 c 0.122623,-1.145076 0.09096,-1.333645 -0.280408,-1.669726 -0.380773,-0.344597 -0.418647,-0.613184 -0.418647,-2.969161 0,-2.546081 0.0088,-2.596047 0.51439,-2.927333 0.513821,-0.33667 0.514315,-0.340081 0.457825,-3.126462 L 94.63878,9.6315422 93.959234,9.5664187 c -0.594074,-0.056932 -0.663688,-0.01518 -0.553502,0.331992 0.08153,0.2568523 0.01607,0.4393043 -0.18524,0.5165643 -0.25436,0.09761 -0.311285,0.546325 -0.311285,2.453842 0,1.510824 0.08083,2.384344 0.229108,2.475982 0.158743,0.09811 0.181082,0.554828 0.07277,1.487235 -0.12401,1.067176 -0.267668,4.538284 -0.297807,7.195674 -0.0037,0.322995 -0.285363,0.35609 -3.030791,0.35609 h -3.026742 z m 5.732571,-1.348049 0.0606,-1.271747 h -0.674518 c -0.510394,0 -0.93359,0.226637 -1.739284,0.931437 -0.606062,0.530167 -1.064772,1.103504 -1.064772,1.330845 0,0.369393 0.126155,0.394968 1.678701,0.340309 l 1.678702,-0.05909 z m -3.011031,0.900768 c 0,-0.325605 1.975919,-1.969036 2.367397,-1.969036 0.201114,0 0.277835,0.309043 0.277835,1.119137 v 1.119137 h -1.32262 c -0.961451,0 -1.322612,-0.07352 -1.322612,-0.269238 z m 3.00601,-7.920809 c 0.05397,-3.508148 0.04372,-3.611759 -0.356089,-3.611759 -0.275999,0 -0.41165,-0.134106 -0.41165,-0.406959 0,-0.223827 -0.134398,-0.406959 -0.298663,-0.406959 -0.494999,0 -0.03325,0.905141 0.502195,0.98445 0.452554,0.06703 0.461143,0.111366 0.335165,1.729576 -0.07115,0.913429 -0.129849,2.416199 -0.13052,3.339486 -0.0015,1.605793 -0.02109,1.67857 -0.459049,1.67559 C 91.31625,18.681083 90.80021,18.218614 89.9079,17.133192 L 88.636153,15.586207 V 13.37194 c 0,-2.078615 0.02492,-2.214267 0.406961,-2.214267 0.271309,0 0.406961,0.135652 0.406961,0.406959 0,0.329442 0.135651,0.406958 0.712178,0.406958 0.624,0 0.712178,-0.06298 0.712178,-0.508698 0,-0.279785 -0.09156,-0.508699 -0.203481,-0.508699 -0.111911,0 -0.203487,0.183132 -0.203487,0.406959 0,0.236714 -0.135652,0.406959 -0.324261,0.406959 -0.178355,0 -0.372162,-0.183132 -0.430694,-0.406959 -0.07997,-0.305801 -0.277547,-0.406959 -0.794864,-0.406959 h -0.688445 l 1.5e-5,2.390883 2.2e-5,2.390883 1.439581,1.690461 c 1.306082,1.533685 1.499507,1.684652 2.08564,1.627835 l 0.64606,-0.06262 z m -4.633847,-3.216809 c 0,-1.041414 -0.07421,-1.593952 -0.203481,-1.514087 -0.111911,0.06917 -0.20348,0.807096 -0.20348,1.639844 0,0.873738 0.08605,1.514087 0.20348,1.514087 0.118819,0 0.203481,-0.682268 0.203481,-1.639844 z m -14.09506,-1.560418 c -0.04407,-0.422174 -0.08083,-0.126626 -0.08173,0.656769 -7.37e-4,0.783396 0.03515,1.12881 0.08008,0.767586 0.04499,-0.361223 0.04568,-1.002183 0.0015,-1.424355 z m 23.455113,11.616718 c 0,-1.235226 0.0606,-4.874809 0.134722,-8.087962 0.133093,-5.771449 0.139861,-5.8413641 0.55957,-5.7813986 0.386833,0.055273 0.430185,0.2143126 0.484559,1.7776446 0.03281,0.94432 -0.03414,1.951543 -0.1489,2.238273 -0.114735,0.286732 -0.29769,3.030653 -0.406563,6.097603 -0.118421,3.335875 -0.283423,5.661736 -0.41067,5.78899 -0.147978,0.147968 -0.212718,-0.470893 -0.212718,-2.03315 z M 84.363083,21.636863 c 0,-0.249888 0.350435,-0.30522 1.933054,-0.30522 1.582628,0 1.933062,0.05533 1.933062,0.30522 0,0.249886 -0.350434,0.305219 -1.933062,0.305219 -1.582619,0 -1.933054,-0.05533 -1.933054,-0.305219 z m 4.605654,-0.0021 c -0.071,-0.18504 -0.129104,-0.595445 -0.129104,-0.91201 0,-0.407661 -0.392289,-1.05578 -1.344701,-2.221632 L 86.150231,16.85512 h -1.809229 -1.809236 v -0.712177 -0.712178 l 2.08567,0.0093 2.085663,0.0093 1.983925,2.23425 c 1.09116,1.228839 1.983926,2.350637 1.983926,2.492887 0,0.14225 -0.353951,0.604259 -0.786561,1.026687 -0.65358,0.638206 -0.808378,0.711173 -0.915652,0.431613 z M 62.183832,18.076009 c -0.512205,-0.512205 -0.514357,-0.857132 -0.0082,-1.315197 0.916628,-0.829536 2.152932,0.406767 1.323394,1.323396 -0.458061,0.506155 -0.802989,0.504005 -1.315193,-0.0082 z m 4.055432,0.08468 c -0.36147,-0.435544 0.0022,-1.00034 0.643983,-1.00034 0.553686,0 0.762599,0.565515 0.379457,1.027172 -0.319115,0.384509 -0.690131,0.374782 -1.02344,-0.02683 z m -11.99113,-2.22125 v -1.526095 h 0.813918 0.813918 v 1.526095 1.526096 H 55.062052 54.248134 Z M 4.8696403,17.104292 C 4.7386208,17.020949 4.5736283,16.678979 4.502989,16.344359 l -0.1284347,-0.6084 0.3222798,0.559569 0.3222806,0.559569 h 2.5369936 c 1.5556764,0 2.5369937,0.07871 2.5369937,0.203479 0,0.237621 -4.854977,0.280112 -5.2234617,0.04571 z m 5.2469957,-0.610024 c -0.2362296,-0.46305 -0.3495989,-0.988001 -0.2856329,-1.322616 0.099839,-0.522277 0.1703319,-0.554829 1.2014779,-0.554829 0.602478,0 1.095415,-0.09157 1.095415,-0.203479 0,-0.129488 1.627836,-0.20348 4.476547,-0.20348 2.848712,0 4.476548,0.07399 4.476548,0.20348 0,0.113043 0.542612,0.203479 1.220876,0.203479 0.709611,0 1.220877,-0.08863 1.220877,-0.21163 0,-0.225574 1.64887,-1.869956 1.761811,-1.757015 0.03681,0.03681 -0.207195,0.373954 -0.542225,0.749213 -0.417213,0.467306 -0.609148,0.895143 -0.609148,1.357819 v 0.67553 H 17.029076 9.9249688 l 0.3515802,0.722809 0.351579,0.722808 6.737393,-0.01569 c 4.397809,-0.01024 6.782148,0.05673 6.866275,0.192849 0.08704,0.140834 -2.119704,0.208535 -6.797291,0.208535 h -6.926173 z m 14.351579,0.153806 c -0.247934,-1.239665 0.07373,-2.488099 0.851033,-3.302998 0.40031,-0.419676 0.818784,-0.763048 0.929939,-0.763048 0.111156,0 -0.09056,0.301948 -0.448253,0.670996 -0.970906,1.001718 -0.876646,1.363799 0.355032,1.363799 0.552964,0 1.061979,-0.09157 1.131147,-0.203479 0.07766,-0.125649 1.833427,-0.20348 4.590295,-0.20348 2.840706,0 4.464539,0.07401 4.464539,0.20348 0,0.113043 0.542612,0.203479 1.220877,0.203479 1.040964,0 1.220875,-0.05409 1.220875,-0.367043 0,-0.371261 1.186458,-1.667752 1.52621,-1.667752 0.101318,0 -0.13843,0.343372 -0.532774,0.763048 -0.529562,0.563579 -0.713231,0.935922 -0.702605,1.424356 l 0.01439,0.661308 h -7.2881 -7.288101 l 0.140066,0.45783 c 0.311117,1.016942 0.002,0.974573 7.462519,1.022764 l 7.044277,0.04551 0.137565,-1.369831 c 0.12521,-1.246819 0.210984,-1.443251 0.955134,-2.187405 0.449664,-0.449667 0.916329,-0.817575 1.037029,-0.817575 0.120702,0 -0.08531,0.314445 -0.457815,0.698767 -0.919365,0.948545 -0.747943,1.336028 0.591055,1.336028 0.56308,0 1.023782,-0.09157 1.023782,-0.203479 0,-0.129488 1.627834,-0.20348 4.476547,-0.20348 2.848712,0 4.476547,0.07399 4.476547,0.20348 0,0.113043 0.542613,0.203479 1.220877,0.203479 1.085223,0 1.220876,0.04522 1.220876,0.406959 0,0.39922 -0.135653,0.406958 -7.134064,0.406958 h -7.134063 l 0.06316,0.723625 0.06316,0.723624 7.070908,-0.01635 c 4.699965,-0.01087 7.070911,0.05352 7.070911,0.192033 0,0.140264 -4.781032,0.208387 -14.625082,0.208387 H 24.591011 Z M 4.3157092,15.108879 c -0.06793,-0.177024 -0.1235097,-0.360156 -0.1235097,-0.406959 0,-0.0468 1.190355,-0.0851 2.6452321,-0.0851 2.5095799,0 2.6452326,0.02087 2.6452326,0.406959 0,0.385066 -0.1356527,0.406958 -2.5217222,0.406958 -2.111774,0 -2.5418017,-0.05233 -2.6452328,-0.321861 z M 63.184722,14.667692 c -0.0091,-0.08394 -0.03197,-0.518872 -0.05087,-0.966527 l -0.03436,-0.813918 h -1.831315 c -1.744222,0 -1.834408,0.02177 -1.896337,0.457829 -0.06029,0.424492 -0.167711,0.457829 -1.475225,0.457829 H 56.486409 V 11.666371 9.5298366 h 1.729575 1.729574 v 0.9156584 0.915657 h 1.642921 1.642922 l -0.05742,-1.068267 -0.05742,-1.068267 1.295553,-0.061415 c 0.898637,-0.042607 1.347032,0.019737 1.463577,0.203479 0.193283,0.3047232 0.236233,4.648385 0.05074,5.131763 -0.0948,0.247051 -0.425863,0.32186 -1.424356,0.32186 -0.715465,0 -1.308275,-0.06868 -1.317352,-0.152609 z m 3.475656,-1.772523 v -1.940976 h 1.838951 1.83895 l -0.0585,1.882185 -0.0585,1.882184 -1.780444,0.05879 -1.780446,0.05879 z m 4.273066,-0.82184 c 0,-1.69566 0.07787,-2.7469715 0.203484,-2.7469715 0.125602,0 0.203477,1.0513115 0.203477,2.7469715 0,1.695662 -0.07788,2.746973 -0.203477,2.746973 -0.125611,0 -0.203484,-1.051311 -0.203484,-2.746973 z M 4.2695219,13.914388 c -0.2388307,-0.622384 0.1536036,-0.721922 2.8462465,-0.721922 2.0555505,0 2.7899111,-0.07098 3.0910516,-0.298747 0.21724,-0.164311 0.573804,-0.30166 0.792365,-0.305219 0.325798,-0.0053 0.254209,0.140155 -0.397384,0.807446 L 9.8070313,14.209864 H 7.0949692 c -2.1832647,0 -2.7341703,-0.05761 -2.8254473,-0.295476 z m 6.9427171,-0.518442 c 0.437123,-0.447655 0.886335,-0.813918 0.998248,-0.813918 0.111914,0 -0.154166,0.366263 -0.591289,0.813918 -0.437124,0.447654 -0.886335,0.813918 -0.998249,0.813918 -0.111913,0 0.154167,-0.366264 0.59129,-0.813918 z m 0.915657,0.06166 c 0.391699,-0.462618 0.786045,-0.848875 0.876326,-0.858348 0.269277,-0.02825 -0.3511,0.747606 -0.991983,1.240601 -0.565062,0.434672 -0.558963,0.414513 0.115657,-0.382253 z m 10.377718,0.04233 c 0.391551,-0.446419 0.734801,-0.850834 0.76278,-0.8987 0.02798,-0.04787 0.09497,-0.04293 0.148874,0.01097 0.0539,0.0539 -0.289348,0.458317 -0.762779,0.898701 l -0.860784,0.800696 z m 0.915389,-0.103983 c 0.437123,-0.447655 0.886338,-0.813918 0.998251,-0.813918 0.111912,0 -0.154169,0.366263 -0.591291,0.813918 -0.437122,0.447654 -0.886336,0.813917 -0.998249,0.813917 -0.111913,0 0.154167,-0.366263 0.591289,-0.813917 z m 2.774242,0.01723 c 0.376701,-0.438182 0.817949,-0.804446 0.980554,-0.813919 0.165197,-0.0096 -0.05503,0.341905 -0.499125,0.796694 -1.021952,1.046574 -1.377279,1.059288 -0.481429,0.01723 z m 0.37969,0.641331 c 0,-0.245894 1.397307,-1.567347 1.523683,-1.440972 0.05799,0.05799 -0.261122,0.444571 -0.709129,0.859081 -0.448004,0.414511 -0.814554,0.676361 -0.814554,0.581891 z m 10.37745,0.03309 c 0,-0.263652 1.385688,-1.612061 1.51931,-1.478438 0.05558,0.05558 -0.263527,0.457057 -0.709129,0.892175 -0.445599,0.435118 -0.810181,0.698936 -0.810181,0.586263 z m 1.451624,-0.674426 c 0.376701,-0.438183 0.81795,-0.804445 0.980554,-0.813918 0.165198,-0.0096 -0.05503,0.341905 -0.499124,0.796694 -1.021952,1.046574 -1.377278,1.059286 -0.48143,0.01723 z m 2.211006,0.674426 c 0,-0.263652 1.385687,-1.612061 1.51931,-1.478438 0.05558,0.05558 -0.263528,0.457057 -0.70913,0.892175 -0.445599,0.435118 -0.81018,0.698936 -0.81018,0.586263 z m 1.526095,-0.69165 c 0.437121,-0.447655 0.886335,-0.813919 0.998249,-0.813919 0.111914,0 -0.154168,0.366264 -0.591291,0.813918 -0.437122,0.447654 -0.886335,0.813917 -0.99825,0.813917 -0.111914,0 0.154169,-0.366263 0.591292,-0.813916 z m 10.302978,0.01723 c 0.376701,-0.438183 0.81795,-0.804445 0.980555,-0.813918 0.165197,-0.0096 -0.05503,0.341905 -0.499126,0.796694 -1.02195,1.046574 -1.377278,1.059286 -0.481429,0.01723 z m 0.379691,0.657906 c 0,-0.105619 0.264939,-0.445863 0.588755,-0.756097 0.506972,-0.485709 0.573913,-0.674725 0.481905,-1.360686 l -0.106848,-0.796622 h 0.942451 0.942447 v 1.424353 1.424356 l -0.661307,0.0022 c -0.36372,0.0012 -1.004679,0.05899 -1.424356,0.128363 -0.431819,0.07138 -0.763047,0.04277 -0.763047,-0.06591 z M 13.247033,13.192466 c 0.321661,-0.335741 0.676402,-0.610438 0.788316,-0.610438 0.111914,0 -0.05969,0.274697 -0.381357,0.610438 -0.32166,0.335742 -0.676402,0.610439 -0.788316,0.610439 -0.111914,0 0.05969,-0.274697 0.381357,-0.610439 z m 0.951051,0.01126 c 0.260318,-0.329549 0.604893,-0.604247 0.765723,-0.610438 0.184171,-0.0071 0.07592,0.214715 -0.292418,0.59918 -0.752321,0.785253 -1.091065,0.793311 -0.473305,0.01126 z m 0.880264,-0.01126 c 0.321661,-0.335741 0.676403,-0.610438 0.788316,-0.610438 0.111914,0 -0.05969,0.274697 -0.381357,0.610438 -0.32166,0.335742 -0.676403,0.610439 -0.788317,0.610439 -0.111913,0 0.05969,-0.274697 0.381358,-0.610439 z m 1.154531,0.01126 c 0.260317,-0.329549 0.604892,-0.604247 0.765722,-0.610438 0.184171,-0.0071 0.07592,0.214715 -0.292418,0.59918 -0.75232,0.785253 -1.091065,0.793311 -0.473304,0.01126 z m 0.880264,-0.01126 c 0.321659,-0.335741 0.676401,-0.610438 0.788316,-0.610438 0.111913,0 -0.05969,0.274697 -0.381358,0.610438 -0.321661,0.335742 -0.676403,0.610439 -0.788317,0.610439 -0.111913,0 0.05969,-0.274697 0.381359,-0.610439 z m 0.951051,0.01126 c 0.260317,-0.329549 0.604893,-0.604247 0.765723,-0.610438 0.184169,-0.0071 0.07592,0.214715 -0.292418,0.59918 -0.752322,0.785253 -1.091066,0.793311 -0.473305,0.01126 z m 0.575044,0.469239 c 0,-0.261836 0.981908,-1.19425 1.116212,-1.059947 0.05523,0.05523 -0.173323,0.36268 -0.507896,0.683222 -0.334575,0.320542 -0.608316,0.490068 -0.608316,0.376725 z m 1.322615,-0.480497 c 0.321661,-0.335742 0.676403,-0.610439 0.788316,-0.610439 0.111915,0 -0.05969,0.274697 -0.381356,0.610439 -0.321661,0.335741 -0.676403,0.610438 -0.788317,0.610438 -0.111913,0 0.05969,-0.274697 0.381357,-0.610438 z m 0.947833,0 c 0.248224,-0.335742 0.542793,-0.610439 0.654599,-0.610439 0.111806,0 -0.05989,0.274697 -0.381555,0.610439 -0.321661,0.335741 -0.61623,0.610438 -0.654599,0.610438 -0.03837,0 0.133331,-0.274697 0.381555,-0.610438 z m 0.883483,0 c 0.32166,-0.335742 0.676402,-0.610439 0.788315,-0.610439 0.111914,0 -0.05969,0.274697 -0.381357,0.610439 -0.321659,0.335741 -0.676401,0.610438 -0.788316,0.610438 -0.111914,0 0.05969,-0.274697 0.381358,-0.610438 z m 6.444995,0.01126 c 0.260316,-0.32955 0.604892,-0.604247 0.765723,-0.610439 0.184171,-0.0071 0.07592,0.214715 -0.292418,0.59918 -0.752321,0.785254 -1.091065,0.793311 -0.473305,0.01126 z m 0.575044,0.469238 c 0,-0.261836 0.981908,-1.19425 1.116213,-1.059947 0.05523,0.05523 -0.173324,0.362681 -0.507896,0.683223 -0.334574,0.320541 -0.608317,0.490067 -0.608317,0.376724 z m 1.390747,-0.342983 c 0.244361,-0.260108 0.382409,-0.534805 0.306777,-0.610439 -0.07564,-0.07563 0.07801,-0.137514 0.341425,-0.137514 h 0.478942 l -0.584837,0.610439 c -0.321659,0.335742 -0.675232,0.610438 -0.785717,0.610438 -0.110484,0 -0.001,-0.212815 0.24341,-0.472924 z m 0.644047,0.342983 c 0,-0.261836 0.981908,-1.19425 1.116213,-1.059947 0.05523,0.05523 -0.173324,0.362681 -0.507898,0.683223 -0.334573,0.320541 -0.608315,0.490067 -0.608315,0.376724 z m 1.322616,-0.480497 c 0.321661,-0.335741 0.676402,-0.610439 0.788316,-0.610439 0.111915,0 -0.05969,0.274698 -0.381357,0.610439 -0.321659,0.335742 -0.676403,0.610438 -0.788315,0.610438 -0.111914,0 0.05969,-0.274696 0.381356,-0.610438 z m 0.916396,0.10174 c 0.27938,-0.335742 0.530851,-0.64859 0.55883,-0.695222 0.02798,-0.04663 0.0957,-0.03995 0.150487,0.01484 0.05479,0.05479 -0.196683,0.367639 -0.558829,0.695221 l -0.658445,0.595605 z m 0.914919,-0.10174 c 0.321661,-0.335741 0.676402,-0.610439 0.788316,-0.610439 0.111913,0 -0.05969,0.274698 -0.381357,0.610439 -0.32166,0.335742 -0.676403,0.610438 -0.788316,0.610438 -0.111913,0 0.05969,-0.274696 0.381357,-0.610438 z m 0.916396,0.10174 c 0.279379,-0.335742 0.530851,-0.64859 0.558829,-0.695222 0.02798,-0.04663 0.0957,-0.03995 0.150488,0.01484 0.05479,0.05479 -0.196683,0.367639 -0.558829,0.695221 l -0.658445,0.595605 z m 0.914918,-0.10174 c 0.321661,-0.335741 0.676403,-0.610439 0.788316,-0.610439 0.111915,0 -0.05969,0.274698 -0.381356,0.610439 -0.321661,0.335742 -0.676403,0.610438 -0.788316,0.610438 -0.111914,0 0.05969,-0.274696 0.381356,-0.610438 z m 0.951594,0.0106 c 0.260019,-0.329188 0.543547,-0.60359 0.630062,-0.609783 0.255392,-0.01828 -0.458774,0.961161 -0.794878,1.090137 -0.200769,0.07704 -0.143408,-0.09014 0.164816,-0.480354 z m 6.476143,0.09114 c 0.279379,-0.33574 0.530852,-0.64859 0.558831,-0.695221 0.02798,-0.04663 0.0957,-0.03995 0.150487,0.01483 0.05479,0.05479 -0.196683,0.367639 -0.558831,0.695221 l -0.658444,0.595604 z m 0.914919,-0.101741 c 0.321661,-0.335742 0.676403,-0.610438 0.788316,-0.610438 0.111914,0 -0.05969,0.274696 -0.381356,0.610438 -0.321661,0.335741 -0.676403,0.610439 -0.788317,0.610439 -0.111914,0 0.05969,-0.274698 0.381357,-0.610439 z m 0.916396,0.101741 c 0.27938,-0.335742 0.530852,-0.648592 0.55883,-0.695223 0.02798,-0.04663 0.0957,-0.03995 0.150487,0.01484 0.05479,0.05479 -0.196682,0.367639 -0.558829,0.695221 l -0.658445,0.595605 z m 0.914919,-0.101741 c 0.32166,-0.335742 0.676403,-0.610438 0.788316,-0.610438 0.111913,0 -0.05969,0.274696 -0.381357,0.610438 -0.321661,0.335741 -0.676402,0.610439 -0.788316,0.610439 -0.111913,0 0.05969,-0.274698 0.381357,-0.610439 z m 0.951594,0.0106 c 0.260018,-0.329188 0.543546,-0.603591 0.630062,-0.609782 0.255391,-0.01828 -0.458775,0.961161 -0.794878,1.090137 -0.200769,0.07704 -0.143408,-0.09014 0.164816,-0.480355 z m 0.879721,-0.0106 c 0.32166,-0.335742 0.676403,-0.610438 0.788315,-0.610438 0.111914,0 -0.05969,0.274696 -0.381356,0.610438 -0.321661,0.335741 -0.676402,0.610439 -0.788316,0.610439 -0.111915,0 0.05969,-0.274698 0.381357,-0.610439 z m 1.085528,0.137515 c 0.244361,-0.260109 0.382409,-0.534806 0.306775,-0.610439 -0.07564,-0.07563 0.02133,-0.137514 0.215476,-0.137514 0.316845,0 0.308482,0.0625 -0.08168,0.610438 -0.239068,0.335741 -0.535964,0.610439 -0.659765,0.610439 -0.1238,0 -0.02516,-0.212817 0.219197,-0.472924 z m 0.949265,-0.137515 c 0.321662,-0.335742 0.676403,-0.610438 0.788317,-0.610438 0.111914,0 -0.05969,0.274696 -0.381358,0.610438 -0.32166,0.335741 -0.676402,0.610439 -0.788316,0.610439 -0.111912,0 0.05969,-0.274698 0.381357,-0.610439 z m 0.951051,0.01126 c 0.260317,-0.329549 0.604894,-0.604246 0.765724,-0.610438 0.184171,-0.0071 0.07592,0.214715 -0.292418,0.59918 -0.75232,0.785253 -1.091065,0.793311 -0.473306,0.01126 z m 0.880264,-0.01126 c 0.321661,-0.335742 0.676403,-0.610438 0.788317,-0.610438 0.111913,0 -0.05969,0.274696 -0.381357,0.610438 -0.321661,0.335741 -0.676403,0.610439 -0.788316,0.610439 -0.111914,0 0.05969,-0.274698 0.381356,-0.610439 z M 3.5233334,13.007513 C 3.1751148,12.418026 3.0651237,11.273297 3.2983123,10.665616 3.4539046,10.26015 4.1107176,10.24488 4.263558,10.643173 c 0.091877,0.239428 0.6738706,0.310776 2.9046738,0.35609 l 2.789775,0.05666 0.1901682,0.571342 c 0.14889,0.447321 0.112536,0.657126 -0.1674675,0.966528 -0.3199235,0.353511 -0.6429222,0.395184 -3.0629618,0.395184 -2.189418,0 -2.7377964,0.05802 -2.8756025,0.304272 -0.1370488,0.244893 -0.2382952,0.18913 -0.5188098,-0.285743 z M 12.433116,11.97159 c -0.329853,-0.533712 0.305557,-0.610438 5.055391,-0.610438 4.793981,0 4.929634,0.0112 4.929634,0.406959 0,0.395759 -0.135653,0.406958 -4.929634,0.406958 -3.066931,0 -4.977152,-0.07689 -5.055391,-0.203479 z m 14.548777,-0.203479 c 0,-0.395885 0.135655,-0.406959 4.985246,-0.406959 4.849592,0 4.985246,0.01107 4.985246,0.406959 0,0.395885 -0.135654,0.406958 -4.985246,0.406958 -4.849591,0 -4.985246,-0.01107 -4.985246,-0.406958 z m 14.447039,0 c 0,-0.395885 0.135654,-0.406959 4.985245,-0.406959 4.849593,0 4.985245,0.01107 4.985245,0.406959 0,0.395885 -0.135652,0.406958 -4.985245,0.406958 -4.849591,0 -4.985245,-0.01107 -4.985245,-0.406958 z M 37.52467,11.425632 c 0.146886,-0.05878 0.322386,-0.05155 0.390003,0.01606 0.06762,0.06762 -0.05257,0.115708 -0.267066,0.106871 -0.237044,-0.0098 -0.285259,-0.05798 -0.122937,-0.122934 z m 2.441753,0 c 0.146886,-0.05878 0.322387,-0.05155 0.390003,0.01606 0.06762,0.06762 -0.05257,0.115708 -0.267066,0.106871 -0.237045,-0.0098 -0.285259,-0.05798 -0.122937,-0.122934 z M 10.383468,10.653343 c -0.215659,-0.163156 -0.300539,-0.298156 -0.188626,-0.3 0.302358,-0.005 0.819154,0.358222 0.691431,0.485944 -0.06089,0.06089 -0.287148,-0.02279 -0.502805,-0.185944 z m 0.934592,5.49e-4 c -0.160495,-0.193384 -0.175931,-0.310138 -0.04101,-0.310138 0.245917,0 0.532627,0.386042 0.391515,0.527154 -0.05121,0.05121 -0.208946,-0.04644 -0.35051,-0.217016 z m 0.896723,-5.49e-4 c -0.34426,-0.260449 -0.350121,-0.297435 -0.04803,-0.303118 0.189245,-0.0035 0.404437,0.09119 0.478205,0.210547 0.221657,0.358648 -0.01201,0.408932 -0.430179,0.09257 z m 0.934592,5.49e-4 c -0.160495,-0.193384 -0.175932,-0.310138 -0.04101,-0.310138 0.245916,0 0.532627,0.386042 0.391515,0.527154 -0.05121,0.05121 -0.208945,-0.04644 -0.35051,-0.217016 z m 0.896722,-5.49e-4 c -0.34426,-0.260449 -0.35012,-0.297435 -0.04803,-0.303118 0.189244,-0.0035 0.404435,0.09119 0.478204,0.210547 0.221657,0.358648 -0.01201,0.408932 -0.43018,0.09257 z m 1.857827,-0.021 c -0.33006,-0.241346 -0.3403,-0.288581 -0.06256,-0.288581 0.182657,0 0.392458,0.09766 0.466227,0.217016 0.215675,0.348969 0.02253,0.383211 -0.403667,0.07157 z m 1.831315,0 c -0.330061,-0.241346 -0.340301,-0.288581 -0.06255,-0.288581 0.182655,0 0.392457,0.09766 0.466226,0.217016 0.215675,0.348969 0.02253,0.383211 -0.403667,0.07157 z m 1.925477,0.02156 c -0.160495,-0.193384 -0.175931,-0.310136 -0.04101,-0.310136 0.245916,0 0.532628,0.38604 0.391515,0.527153 -0.05122,0.05121 -0.208945,-0.04644 -0.35051,-0.217017 z m 2.034793,0 c -0.160494,-0.193384 -0.17593,-0.310136 -0.04101,-0.310136 0.245916,0 0.532627,0.38604 0.391514,0.527153 -0.05121,0.05121 -0.208945,-0.04644 -0.350509,-0.217017 z m 0.896723,-5.5e-4 c -0.215658,-0.163159 -0.300539,-0.298159 -0.188625,-0.300005 0.302359,-0.005 0.819153,0.358223 0.691431,0.485945 -0.06089,0.06089 -0.287148,-0.02279 -0.502806,-0.185944 z m 0.934593,5.5e-4 c -0.160494,-0.193384 -0.175931,-0.310136 -0.04101,-0.310136 0.245915,0 0.532625,0.38604 0.391514,0.527153 -0.05121,0.05121 -0.208944,-0.04644 -0.350508,-0.217017 z m 0.896721,-5.5e-4 c -0.34426,-0.260448 -0.35012,-0.297434 -0.04803,-0.303117 0.189244,-0.0035 0.404435,0.09119 0.478205,0.210547 0.221657,0.358648 -0.012,0.408933 -0.43018,0.09257 z m 0.934594,5.5e-4 c -0.160495,-0.193384 -0.175933,-0.310136 -0.04101,-0.310136 0.245916,0 0.532627,0.38604 0.391515,0.527153 -0.05121,0.05121 -0.208945,-0.04644 -0.350509,-0.217017 z m 0.896721,-5.5e-4 c -0.344261,-0.260448 -0.350121,-0.297434 -0.04803,-0.303117 0.189243,-0.0035 0.404435,0.09119 0.478204,0.210547 0.221657,0.358648 -0.012,0.408933 -0.430179,0.09257 z m 1.857828,-0.021 c -0.330062,-0.241345 -0.340301,-0.288582 -0.06256,-0.288582 0.182659,0 0.392458,0.09766 0.466227,0.217018 0.215674,0.348969 0.02253,0.383211 -0.403667,0.07157 z m 1.831315,0 c -0.330062,-0.241345 -0.340301,-0.288582 -0.06256,-0.288582 0.182659,0 0.392458,0.09766 0.466227,0.217018 0.215674,0.348969 0.02253,0.383211 -0.403667,0.07157 z m 1.925477,0.02156 c -0.160494,-0.193382 -0.175932,-0.310134 -0.04101,-0.310134 0.245915,0 0.532626,0.386041 0.391514,0.527153 -0.05122,0.05121 -0.208943,-0.04644 -0.350509,-0.217017 z m 0.896722,-5.48e-4 c -0.215658,-0.163155 -0.30054,-0.298156 -0.188626,-0.300002 0.302358,-0.005 0.819153,0.358224 0.691432,0.485946 -0.06089,0.06089 -0.287149,-0.02279 -0.502806,-0.185944 z m 0.934593,5.48e-4 c -0.160494,-0.193382 -0.175933,-0.310134 -0.04101,-0.310134 0.245915,0 0.532625,0.386041 0.391515,0.527153 -0.05122,0.05121 -0.208946,-0.04644 -0.35051,-0.217017 z m 0.896721,-5.48e-4 c -0.344261,-0.260448 -0.350121,-0.297435 -0.04803,-0.303117 0.189244,-0.0035 0.404436,0.09119 0.478205,0.210545 0.221656,0.358649 -0.01201,0.408933 -0.43018,0.09257 z m 0.934593,5.48e-4 c -0.160494,-0.193382 -0.175932,-0.310134 -0.04101,-0.310134 0.245915,0 0.532627,0.386041 0.391516,0.527153 -0.05122,0.05121 -0.208946,-0.04644 -0.35051,-0.217017 z m 0.896722,-5.48e-4 c -0.344261,-0.260448 -0.350122,-0.297435 -0.04803,-0.303117 0.189243,-0.0035 0.404436,0.09119 0.478205,0.210545 0.221656,0.358649 -0.01201,0.408933 -0.43018,0.09257 z m 1.857828,-0.021 c -0.330062,-0.241344 -0.340302,-0.28858 -0.06256,-0.28858 0.182657,0 0.392458,0.09766 0.466227,0.217017 0.215673,0.34897 0.02253,0.383211 -0.403667,0.07157 z m 1.831315,0 c -0.330062,-0.241344 -0.340301,-0.28858 -0.06256,-0.28858 0.182658,0 0.392457,0.09766 0.466227,0.217017 0.215673,0.34897 0.02253,0.383211 -0.403667,0.07157 z m 2.034793,0 c -0.330062,-0.241344 -0.3403,-0.28858 -0.06256,-0.28858 0.182657,0 0.392456,0.09766 0.466227,0.217017 0.215674,0.34897 0.02253,0.383211 -0.403668,0.07157 z m 1.925478,0.02156 c -0.160495,-0.193381 -0.175933,-0.310133 -0.04101,-0.310133 0.245914,0 0.532626,0.386041 0.391514,0.527152 -0.05122,0.05121 -0.208945,-0.04644 -0.350509,-0.217016 z m 2.034794,0 c -0.160495,-0.193381 -0.175933,-0.310133 -0.04101,-0.310133 0.245916,0 0.532627,0.386041 0.391515,0.527152 -0.05122,0.05121 -0.208945,-0.04644 -0.35051,-0.217016 z m 0.896721,-5.48e-4 c -0.215658,-0.163156 -0.300539,-0.298156 -0.188625,-0.300001 0.302357,-0.005 0.819153,0.358222 0.691431,0.485944 -0.06089,0.06089 -0.287148,-0.02279 -0.502806,-0.185943 z m 0.934593,5.48e-4 c -0.160494,-0.193381 -0.175932,-0.310133 -0.04101,-0.310133 0.245916,0 0.532626,0.386041 0.391514,0.527152 -0.05121,0.05121 -0.208944,-0.04644 -0.350509,-0.217016 z m 0.896722,-5.48e-4 c -0.344261,-0.260468 -0.350121,-0.297455 -0.04803,-0.303137 0.189243,-0.0035 0.404436,0.09119 0.478205,0.210546 0.221656,0.358649 -0.01201,0.408932 -0.430181,0.09257 z m 0.934593,5.48e-4 c -0.160494,-0.193381 -0.175932,-0.310133 -0.04101,-0.310133 0.245915,0 0.532626,0.386041 0.391514,0.527152 -0.05122,0.05121 -0.208944,-0.04644 -0.350509,-0.217016 z m 0.896721,-5.48e-4 c -0.34426,-0.260449 -0.350121,-0.297436 -0.04803,-0.303118 0.189244,-0.0035 0.404436,0.09119 0.478205,0.210546 0.221657,0.358648 -0.01201,0.408933 -0.43018,0.09257 z m 1.857828,-0.021 c -0.330061,-0.241343 -0.3403,-0.288578 -0.06256,-0.288578 0.182657,0 0.392457,0.09766 0.466226,0.217016 0.215674,0.34897 0.02253,0.383212 -0.403667,0.07157 z m 1.852323,-0.04901 c -0.511591,-0.565296 -0.426213,-0.6465301 0.679511,-0.6465301 0.881743,0 1.017397,0.054263 1.017397,0.4069591 0,0.299781 -0.135654,0.406959 -0.515084,0.406959 -0.283298,0 -0.56779,-0.137349 -0.632208,-0.30522 -0.06442,-0.167886 -0.210105,-0.305235 -0.323749,-0.305235 -0.117641,0 -0.09578,0.133562 0.05077,0.310137 0.375303,0.452213 0.122326,0.573765 -0.276635,0.132917 z M 4.5991586,10.445502 C 4.4531518,10.269567 4.4333764,10.140275 4.552473,10.140275 c 0.1136435,0 0.2593304,0.137349 0.3237481,0.30522 0.064416,0.16787 0.085427,0.305218 0.046689,0.305218 -0.038745,0 -0.1844281,-0.137348 -0.3237479,-0.305218 z m 10.2757094,0.101732 c -0.06917,-0.111913 -0.03419,-0.20348 0.07772,-0.20348 0.111913,0 0.260069,0.09157 0.329236,0.20348 0.06917,0.111914 0.03419,0.203479 -0.07772,0.203479 -0.111915,0 -0.260071,-0.09156 -0.329238,-0.203479 z m 1.831315,0 c -0.06917,-0.111913 -0.03419,-0.20348 0.07772,-0.20348 0.111915,0 0.260071,0.09157 0.329238,0.20348 0.06917,0.111914 0.03419,0.203479 -0.07772,0.203479 -0.111913,0 -0.260069,-0.09156 -0.329238,-0.203479 z m 1.831316,0 c -0.06917,-0.111913 -0.03419,-0.20348 0.07772,-0.20348 0.111914,0 0.26007,0.09157 0.329236,0.20348 0.06917,0.111914 0.03419,0.203479 -0.07772,0.203479 -0.111914,0 -0.26007,-0.09156 -0.329236,-0.203479 z m 2.034792,0 c -0.06917,-0.111913 -0.03419,-0.20348 0.07772,-0.20348 0.111913,0 0.260071,0.09157 0.329237,0.20348 0.06917,0.111914 0.03419,0.203479 -0.07772,0.203479 -0.111914,0 -0.26007,-0.09156 -0.329237,-0.203479 z m 6.511342,0 c -0.06917,-0.111913 -0.03419,-0.20348 0.07772,-0.20348 0.111913,0 0.260069,0.09157 0.329236,0.20348 0.06917,0.111914 0.03419,0.203479 -0.07772,0.203479 -0.111915,0 -0.260071,-0.09156 -0.329236,-0.203479 z m 1.831315,0 c -0.06917,-0.111913 -0.03419,-0.20348 0.07772,-0.20348 0.111913,0 0.260069,0.09157 0.329235,0.20348 0.06917,0.111914 0.03419,0.203479 -0.07772,0.203479 -0.111913,0 -0.260069,-0.09156 -0.329235,-0.203479 z m 1.831314,0 c -0.06917,-0.111913 -0.03419,-0.20348 0.07772,-0.20348 0.111914,0 0.260069,0.09157 0.329237,0.20348 0.06917,0.111914 0.03419,0.203479 -0.07772,0.203479 -0.111915,0 -0.26007,-0.09156 -0.329237,-0.203479 z m 6.511342,0 c -0.06917,-0.111913 -0.03419,-0.20348 0.07772,-0.20348 0.111913,0 0.260068,0.09157 0.329235,0.20348 0.06917,0.111914 0.03419,0.203479 -0.07772,0.203479 -0.111914,0 -0.26007,-0.09156 -0.329236,-0.203479 z m 1.831315,0 c -0.06917,-0.111913 -0.03419,-0.20348 0.07772,-0.20348 0.111913,0 0.260068,0.09157 0.329236,0.20348 0.06917,0.111914 0.03419,0.203479 -0.07772,0.203479 -0.111913,0 -0.260069,-0.09156 -0.329235,-0.203479 z m 2.034793,0 c -0.06917,-0.111913 -0.03419,-0.20348 0.07772,-0.20348 0.111914,0 0.260069,0.09157 0.329236,0.20348 0.06917,0.111914 0.03419,0.203479 -0.07772,0.203479 -0.111914,0 -0.260069,-0.09156 -0.329236,-0.203479 z m 1.831315,0 c -0.06917,-0.111913 -0.03419,-0.20348 0.07772,-0.20348 0.111914,0 0.26007,0.09157 0.329236,0.20348 0.06917,0.111914 0.03419,0.203479 -0.07772,0.203479 -0.111915,0 -0.26007,-0.09156 -0.329236,-0.203479 z m 2.034794,0 c -0.06917,-0.111913 -0.03419,-0.20348 0.07772,-0.20348 0.111913,0 0.260069,0.09157 0.329235,0.20348 0.06917,0.111914 0.03419,0.203479 -0.07772,0.203479 -0.111913,0 -0.260069,-0.09156 -0.329235,-0.203479 z m 6.511341,0 c -0.06917,-0.111913 -0.03419,-0.20348 0.07772,-0.20348 0.111914,0 0.260069,0.09157 0.329237,0.20348 0.06917,0.111914 0.03419,0.203479 -0.07772,0.203479 -0.111914,0 -0.260069,-0.09156 -0.329237,-0.203479 z m 1.831315,0 c -0.06917,-0.111913 -0.03419,-0.20348 0.07772,-0.20348 0.111914,0 0.260069,0.09157 0.329236,0.20348 0.06917,0.111914 0.03419,0.203479 -0.07772,0.203479 -0.111914,0 -0.260069,-0.09156 -0.329236,-0.203479 z M 4.2657828,9.6315768 C 3.9568656,8.8265507 4.2790951,8.7159196 6.9327853,8.7159196 H 9.4826642 V 9.3263575 9.9367962 H 6.9327853 c -2.0788508,0 -2.5715141,-0.05638 -2.6670025,-0.3052194 z m 7.9638542,0.1017403 c -0.06917,-0.1119139 -0.623965,-0.2034805 -1.232886,-0.2034805 -0.971474,0 -1.1071279,-0.049862 -1.1071279,-0.4069581 0,-0.3992079 0.1356539,-0.4069589 7.1217799,-0.4069589 h 7.121779 v 0.6104379 c 0,0.4747852 -0.09043,0.6104387 -0.406959,0.6104387 -0.223828,0 -0.406959,-0.091567 -0.406959,-0.2034791 0,-0.1130449 -0.542611,-0.2034805 -1.220877,-0.2034805 -0.678264,0 -1.220876,0.090436 -1.220876,0.2034805 0,0.2766709 -8.476883,0.2766709 -8.647874,0 z M 24.759685,9.377228 24.743619,8.7159196 h 7.121779 7.12178 v 0.6104379 c 0,0.3357411 -0.09156,0.6104387 -0.203479,0.6104387 -0.111914,0 -0.203481,-0.091567 -0.203481,-0.2034791 0,-0.1130449 -0.542611,-0.2034805 -1.220876,-0.2034805 -0.678264,0 -1.220876,0.090436 -1.220876,0.2034805 0,0.1293424 -1.593921,0.2034791 -4.374807,0.2034791 -2.780886,0 -4.374807,-0.074137 -4.374807,-0.2034791 0,-0.305989 -2.385986,-0.2576415 -2.510472,0.050872 C 24.82193,9.9240819 24.768519,9.7409551 24.759684,9.377231 Z M 39.394137,9.326356 V 8.7159167 h 7.22352 7.223518 v 0.6104379 c 0,0.4069588 -0.101739,0.6104386 -0.305219,0.6104386 -0.16787,0 -0.305219,-0.091567 -0.305219,-0.2034798 0,-0.1130441 -0.542612,-0.2034798 -1.220877,-0.2034798 -0.678263,0 -1.220876,0.090436 -1.220876,0.2034798 0,0.1291935 -1.560009,0.2034798 -4.273067,0.2034798 -2.713059,0 -4.273068,-0.074283 -4.273068,-0.2034798 0,-0.1130441 -0.542613,-0.2034798 -1.220877,-0.2034798 -0.678263,0 -1.220877,0.090436 -1.220877,0.2034798 0,0.1119132 -0.09157,0.2034798 -0.203479,0.2034798 -0.111913,0 -0.203479,-0.2746976 -0.203479,-0.6104386 z M 54.248134,8.0037413 V 6.4776458 h 0.813918 0.813918 V 8.0037413 9.5298366 H 55.062052 54.248134 Z M 4.1949782,8.0546144 C 4.1965191,7.9147223 4.2529649,7.5942421 4.3204497,7.3424362 4.440217,6.895527 4.5105211,6.8846079 7.268123,6.8846079 c 1.5537386,0 2.824979,0.032116 2.824979,0.071376 0,0.039253 -0.1005229,0.3597368 -0.2233846,0.7121774 L 9.6463327,8.3089637 H 6.9192661 c -2.0474825,0 -2.7263744,-0.063384 -2.7242879,-0.2543493 z m 5.8981238,0.1425045 c 0,-0.061517 0.139701,-0.3819939 0.310445,-0.7121773 l 0.310445,-0.6003337 h 6.91695 6.916951 l -0.133749,0.5595683 c -0.07356,0.3077623 -0.172276,0.6282426 -0.219365,0.7121781 -0.09706,0.1730076 -14.101677,0.2134921 -14.101677,0.040768 z M 24.743619,7.9186468 c 0,-1.0761977 -0.294905,-1.0340389 7.23328,-1.0340389 4.2135,0 7.033879,0.077045 7.106236,0.1941213 0.06598,0.1067672 0.06146,0.4272476 -0.01005,0.7121782 L 38.94306,8.3089608 h -7.09972 c -6.863163,0 -7.099721,-0.013006 -7.099721,-0.3903171 z m 14.688495,-0.2709915 0.06376,-0.6613074 6.104381,-0.1098174 c 3.35741,-0.060402 6.21426,-0.030101 6.348551,0.067338 0.134296,0.097435 0.592124,0.146852 1.017398,0.1098173 0.739883,-0.064431 0.775977,-0.038822 0.836989,0.5939705 l 0.06376,0.6613078 H 46.61765 39.368347 Z M 33.443433,6.1724298 c 0.104195,-0.5450647 0.20306,-0.5705236 1.982856,-0.5106148 0.559569,0.018834 1.047919,0.1185377 1.085223,0.2215604 0.08681,0.2397455 1.051312,0.2466886 1.051312,0.00754 0,-0.3213609 0.831788,-0.4174037 0.949873,-0.1096775 0.06109,0.1591839 0.335585,0.2894243 0.610001,0.2894243 0.274414,0 0.447007,-0.084022 0.383538,-0.1867169 -0.06457,-0.1044839 0.524265,-0.2165038 1.336994,-0.254349 1.026711,-0.047812 1.480858,0.00692 1.549516,0.1867168 0.133086,0.3485308 0.672141,0.3200403 0.946808,-0.050042 0.200537,-0.2702025 0.291375,-0.2702025 0.808739,0 0.67332,0.3516524 1.146747,0.3933129 1.146747,0.1009116 0,-0.2978007 2.714183,-0.2566147 3.016574,0.045774 0.196686,0.1966853 0.33343,0.1966853 0.648373,0 0.219516,-0.1370896 0.527784,-0.2492541 0.68504,-0.2492541 0.157257,0 0.34493,-0.235105 0.417049,-0.5224558 0.125928,-0.5017322 0.184485,-0.5205218 1.476211,-0.4736932 1.301937,0.047197 1.371864,0.024041 2.180074,-0.7218929 L 54.553353,3.175 56.557121,3.3711823 c 1.878316,0.1838998 2.201427,0.3069157 2.419283,0.9210731 0.03017,0.085059 0.466598,0.2246036 0.969835,0.3100995 0.73237,0.124424 0.927952,0.2458442 0.979998,0.6083957 0.04038,0.2813306 0.207429,0.4529485 0.440872,0.4529485 0.206717,0 0.414372,0.1144572 0.461458,0.2543492 0.06698,0.1990194 0.15022,0.2010505 0.382646,0.00934 0.184271,-0.151997 0.871814,-0.2292456 1.811028,-0.2034791 1.280784,0.035138 1.524883,0.098328 1.584713,0.4102352 0.06603,0.3442626 -0.0889,0.3611211 -2.337508,0.2543469 -7.368107,-0.3498721 -9.428271,-0.3554931 -9.428271,-0.025725 0,0.2416327 -0.220625,0.3183354 -0.915658,0.3183354 -0.678263,0 -0.915657,-0.079131 -0.915657,-0.3052192 0,-0.213686 -0.215492,-0.3052198 -0.718562,-0.3052198 -0.451017,0 -0.762175,0.1136449 -0.835688,0.3052198 -0.101522,0.2645622 -1.248849,0.3052192 -8.613274,0.3052192 h -8.496148 z"
       id="path927" />
  </g>
</svg>
