<?xml version="1.0" encoding="UTF-8" standalone="no"?>
<!-- Generator: Adobe Illustrator 22.1.0, SVG Export Plug-In . SVG Version: 6.00 Build 0)  -->

<svg
   version="1.1"
   id="Layer_4_1_"
   x="0px"
   y="0px"
   viewBox="0 0 512 512"
   xml:space="preserve"
   sodipodi:docname="Helmet.svg"
   width="512"
   height="512"
   inkscape:version="1.1 (c68e22c387, 2021-05-23)"
   xmlns:inkscape="http://www.inkscape.org/namespaces/inkscape"
   xmlns:sodipodi="http://sodipodi.sourceforge.net/DTD/sodipodi-0.dtd"
   xmlns="http://www.w3.org/2000/svg"
   xmlns:svg="http://www.w3.org/2000/svg"><defs
   id="defs23" /><sodipodi:namedview
   id="namedview21"
   pagecolor="#ffffff"
   bordercolor="#666666"
   borderopacity="1.0"
   inkscape:pageshadow="2"
   inkscape:pageopacity="0.0"
   inkscape:pagecheckerboard="0"
   showgrid="false"
   inkscape:zoom="0.61155181"
   inkscape:cx="188.8638"
   inkscape:cy="298.42116"
   inkscape:window-width="1366"
   inkscape:window-height="697"
   inkscape:window-x="-8"
   inkscape:window-y="-8"
   inkscape:window-maximized="1"
   inkscape:current-layer="Layer_4_1_" />
<style
   type="text/css"
   id="style2">
	.st0{fill:#241C1C;}
	.st1{fill:#483737;}
</style>







<g
   id="g1190"
   transform="matrix(13.40658,0,0,13.406593,8.648604,6.6373628)"><path
     class="st0"
     d="M 28.5,18.7 C 28.2,18.4 27.8,18.3 27.4,18.3 H 9.6 c -0.4,0 -0.8,0.1 -1.1,0.4 0,0 0,0 -0.1,0.1 v 3.2 2.7 c 0,0.8 0.2,1.6 0.5,2.4 0.7,1.4 1.7,3.9 1.7,4.6 0,1 4.2,5.1 6.2,5.1 h 1.4 0.5 1.4 c 2.1,0 6.2,-4.1 6.2,-5.1 0,-0.7 1.1,-3.1 1.7,-4.6 0.3,-0.7 0.5,-1.5 0.5,-2.4 V 22 19 c 0.1,-0.2 0.1,-0.2 0,-0.3 z m -11.8,4.2 c 0,1.2 -2.4,2.2 -3.6,2.2 h -0.3 c -1.2,0 -2.2,-1.1 -2.2,-2.3 v -0.1 c 0,-1 1.2,-1.6 2.2,-1.6 h 1.1 c 0.8,0.1 2.8,0.8 2.8,1.8 z m 9.7,0 c 0,1.2 -1.1,2.3 -2.2,2.3 h -0.3 c -1.2,0 -3.6,-1 -3.6,-2.2 v -0.1 c 0,-0.9 2,-1.7 3,-1.7 h 1.1 c 0.8,0 2,0.6 2,1.7 z"
     id="path4"
     style="fill:#273839;fill-opacity:1" /><path
     class="st1"
     d="m 30.7,22.6 c -0.4,-1.1 -0.9,-2.1 -1.3,-2.9 v 4.8 c 0,0.1 0,0.3 0,0.4 0.6,0.5 1.5,0.9 2.8,1 -0.6,-0.9 -1.1,-2 -1.5,-3.3 z"
     id="path6"
     style="fill:#4b5354;fill-opacity:1" /><path
     class="st1"
     d="m 7.8,19.6 c -0.5,0.7 -1,1.8 -1.4,3 -0.5,1.3 -0.9,2.4 -1.4,3.3 1.3,0 2.3,-0.5 2.9,-1 0,-0.1 0,-0.2 0,-0.4 v -4.9 z"
     id="path8"
     style="fill:#4b5354;fill-opacity:1" /><path
     class="st0"
     d="m 3.9,21.7 c 0.5,-1.4 1.5,-3.8 2.9,-5 0.8,-0.7 1.8,-1 2.8,-1 h 17.7 c 1,0 2,0.4 2.8,1 1.4,1.2 2.4,3.7 2.9,5 0.8,2.2 1.3,3.2 1.7,3.6 h 0.6 l -2.6,-7.7 c -0.1,0 -0.1,0 -0.1,0 H 32.1 L 32,17.2 c 0,-0.1 -1.1,-3.4 -1.4,-4.9 -0.1,-0.2 -0.1,-0.4 -0.1,-0.6 0,-0.3 0,-0.6 -0.1,-0.9 L 29.8,8.9 v 0 C 29.3,7 27.3,5.4 24.3,4.5 v 0.8 c 0,0 -3,-1 -5.8,-1 -2.8,0 -5.8,1 -5.8,1 V 4.5 C 9.7,5.4 7.7,7 7.2,8.9 v 0 l -0.6,1.9 c -0.1,0.3 -0.1,0.6 -0.1,0.9 0,0.2 0,0.4 -0.1,0.6 C 6.1,13.7 5,17 5,17.2 L 4.9,17.7 H 4.4 c 0,0 -0.1,0 -0.1,0 L 1.7,25.4 H 2.3 C 2.5,24.9 3.1,24 3.9,21.7 Z"
     id="path10"
     style="fill:#273839;fill-opacity:1" /><path
     class="st0"
     d="m 35.1,27.5 c -1.8,0 -2.8,-2.2 -3.8,-5.1 -0.7,-2 -1.6,-3.6 -2.4,-4.2 -0.4,-0.4 -1,-0.6 -1.5,-0.6 H 9.6 c -0.6,0 -1.1,0.2 -1.5,0.6 -0.8,0.7 -1.7,2.2 -2.4,4.2 -1.1,2.9 -2,5.1 -3.8,5.1 -0.4,0 -0.7,-0.3 -0.7,-0.7 0,-0.4 0.3,-0.7 0.7,-0.7 0.9,0 1.7,-1.7 2.6,-4.2 C 5,20.6 6,18.3 7.2,17.2 7.9,16.6 8.7,16.3 9.6,16.3 h 17.7 c 0.9,0 1.7,0.3 2.4,0.9 1.3,1.1 2.3,3.5 2.7,4.8 1,2.6 1.7,4.2 2.6,4.2 0.4,0 0.7,0.3 0.7,0.7 0,0.4 -0.2,0.6 -0.6,0.6 z"
     id="path12"
     style="fill:#273839;fill-opacity:1" /><path
     class="st0"
     d="M 21,0.8 C 20.9,0.5 20.7,0.4 20.4,0.4 h -2 -2 c -0.3,0 -0.5,0.2 -0.6,0.4 -0.2,0.7 -0.8,2.3 -2.3,3.4 0,0 1.9,-0.6 4.9,-0.6 3,0 4.9,0.6 4.9,0.6 C 21.9,3.1 21.3,1.5 21,0.8 Z"
     id="path14"
     style="fill:#273839;fill-opacity:1" /><path
     class="st0"
     d="m 4.8,11.4 c 0,0 1.3,-0.8 0.9,0.7 C 5.4,13.6 4.4,17 4.4,17 4.4,17 2.9,17 3.5,14.5 4.1,12 4.8,11.4 4.8,11.4 Z"
     id="path16"
     style="fill:#273839;fill-opacity:1" /><path
     class="st0"
     d="m 32.2,11.4 c 0,0 -1.3,-0.8 -0.9,0.7 0.3,1.5 1.4,4.9 1.4,4.9 0,0 1.5,0 0.9,-2.5 -0.8,-2.5 -1.4,-3.1 -1.4,-3.1 z"
     id="path18"
     style="fill:#273839;fill-opacity:1" /></g>
</svg>
