<?xml version="1.0" encoding="UTF-8" standalone="no"?>
<svg
   xmlns:dc="http://purl.org/dc/elements/1.1/"
   xmlns:cc="http://creativecommons.org/ns#"
   xmlns:rdf="http://www.w3.org/1999/02/22-rdf-syntax-ns#"
   xmlns:svg="http://www.w3.org/2000/svg"
   xmlns="http://www.w3.org/2000/svg"
   xmlns:sodipodi="http://sodipodi.sourceforge.net/DTD/sodipodi-0.dtd"
   xmlns:inkscape="http://www.inkscape.org/namespaces/inkscape"
   width="296.98599"
   height="128"
   viewBox="0 0 78.577534 33.866667"
   version="1.1"
   id="svg8"
   inkscape:version="1.0.1 (3bc2e813f5, 2020-09-07)"
   sodipodi:docname="Hemlok Burst AR.svg">
  <defs
     id="defs2" />
  <sodipodi:namedview
     id="base"
     pagecolor="#ffffff"
     bordercolor="#666666"
     borderopacity="1.0"
     inkscape:pageopacity="0.0"
     inkscape:pageshadow="2"
     inkscape:zoom="0.98994949"
     inkscape:cx="201.34601"
     inkscape:cy="76.021689"
     inkscape:document-units="mm"
     inkscape:current-layer="layer1"
     inkscape:document-rotation="0"
     showgrid="false"
     units="px"
     inkscape:window-width="1366"
     inkscape:window-height="705"
     inkscape:window-x="-8"
     inkscape:window-y="-8"
     inkscape:window-maximized="1" />
  <metadata
     id="metadata5">
    <rdf:RDF>
      <cc:Work
         rdf:about="">
        <dc:format>image/svg+xml</dc:format>
        <dc:type
           rdf:resource="http://purl.org/dc/dcmitype/StillImage" />
        <dc:title></dc:title>
      </cc:Work>
    </rdf:RDF>
  </metadata>
  <g
     inkscape:label="Layer 1"
     inkscape:groupmode="layer"
     id="layer1">
    <path
       style="fill:#273839;fill-opacity:1;stroke-width:0.162718"
       d="m 39.929932,30.214103 c 0,-0.26266 -0.07141,-0.665389 -0.158695,-0.894953 -0.155466,-0.408913 -0.144126,-0.417389 0.558555,-0.417389 0.60227,0 0.735122,0.05869 0.828811,0.366117 0.237162,0.778238 0.537965,0.935632 1.78813,0.935632 1.070851,0 1.200044,-0.036 1.439248,-0.401072 0.144537,-0.220589 0.262796,-0.513483 0.262796,-0.650875 0,-0.196836 0.207008,-0.249802 0.976312,-0.249802 0.910519,0 1.215381,0.158476 0.799413,0.415557 -0.09729,0.06013 -0.142384,0.241274 -0.100214,0.402544 0.05923,0.226494 -0.109101,0.370421 -0.739758,0.632511 -0.702841,0.292085 -1.153008,0.339294 -3.235515,0.339294 h -2.419083 z m -0.813596,-2.21302 c 0,-0.518302 0.03118,-0.558567 0.314745,-0.406797 0.187888,0.100555 1.672627,0.168443 3.68391,0.168443 3.017909,0 3.391707,0.02969 3.585333,0.284759 0.118891,0.156616 0.218491,0.339675 0.221338,0.406796 0.0031,0.06712 -1.75219,0.122039 -3.900077,0.122039 h -3.905249 z m 0.433919,-0.67227 c -0.05966,-0.05966 -0.108479,-0.487251 -0.108479,-0.950193 0,-0.74407 0.04809,-0.863621 0.414454,-1.030551 0.62417,-0.284393 0.700546,-0.241789 0.755435,0.421356 l 0.05049,0.610196 1.627192,0.07539 1.627185,0.07539 -1.627185,0.08733 c -1.532838,0.08227 -1.630205,0.108559 -1.679184,0.453449 -0.0396,0.278821 -0.159229,0.366116 -0.501716,0.366116 -0.247348,0 -0.498537,-0.04881 -0.558199,-0.108479 z m 4.610365,-1.736666 c 0,-1.810252 0.0077,-1.848653 0.406792,-2.030497 l 0.406798,-0.185348 v 2.030495 2.030495 H 44.567412 44.16062 Z m 1.139029,-0.258881 c 0,-1.18301 0.0663,-2.12666 0.149408,-2.12666 0.08218,0 0.267421,-0.04528 0.411657,-0.100632 0.234462,-0.08997 0.257421,0.129787 0.216708,2.074663 -0.04428,2.116153 -0.05548,2.176709 -0.411657,2.227292 -0.363649,0.05165 -0.366116,0.03769 -0.366116,-2.074663 z m -4.556122,1.778589 c 0,-0.09643 0.596636,-0.162719 1.464469,-0.162719 0.867832,0 1.464468,0.06629 1.464468,0.162719 0,0.09642 -0.596636,0.162718 -1.464468,0.162718 -0.867833,0 -1.464469,-0.06629 -1.464469,-0.162718 z m 13.758274,-0.04068 c -0.175226,-0.569347 0.01999,-0.845466 1.076249,-1.522532 0.836905,-0.536442 1.111908,-0.803853 1.111908,-1.081196 0,-0.387435 -0.528352,-1.484026 -1.32126,-2.742261 L 54.896581,20.976 l -1.2426,-0.105039 c -0.683425,-0.05777 -1.345399,-0.190358 -1.47105,-0.294636 -0.12565,-0.104279 -0.718965,-0.18747 -1.318486,-0.18487 -0.712502,0.0031 -0.84659,-0.01922 -0.387136,-0.06444 l 0.70289,-0.06917 -0.04121,-0.889483 c -0.03358,-0.725189 0.01691,-0.929389 0.273423,-1.105523 0.519448,-0.356682 2.103361,-0.891953 2.985732,-1.009004 0.74514,-0.09885 0.827341,-0.07875 0.827341,0.202244 0,0.171598 0.137692,0.582064 0.305975,0.912145 0.257802,0.505659 0.270612,0.629501 0.08136,0.786564 -0.327887,0.272123 -0.291467,0.374968 0.426583,1.204604 0.35815,0.413816 0.948526,1.366697 1.311947,2.117511 0.400596,0.827638 0.784875,1.404511 0.975999,1.465172 0.422983,0.13425 0.418704,0.95097 -0.0073,1.376894 -0.279688,0.279686 -3.421636,1.955603 -3.666301,1.955603 -0.0492,0 -0.117588,-0.09153 -0.152022,-0.203399 z m 3.86962,-2.306846 c 0.138317,-0.36043 -0.291944,-0.639148 -0.534851,-0.346469 -0.109072,0.131426 -0.151071,0.315388 -0.09334,0.408805 0.151743,0.245524 0.52424,0.208562 0.628193,-0.06234 z m -4.386472,-6.038648 c 0.05566,-0.14501 -0.01009,-0.290947 -0.156247,-0.347044 -0.303853,-0.116599 -0.636347,0.172647 -0.483236,0.420385 0.159672,0.258355 0.528426,0.216063 0.639483,-0.07334 z m -13.078705,7.084423 c 0,-0.48641 0.0031,-0.488156 0.94587,-0.488156 0.838552,0 0.998925,0.05538 1.413553,0.488156 l 0.467682,0.488156 h -1.413552 -1.413553 z m 2.1967,-0.325437 c -0.407339,-0.42517 -0.584478,-0.489117 -1.372871,-0.495614 l -0.905188,-0.0075 1.464469,-0.560872 c 0.805459,-0.308479 1.482771,-0.561404 1.505145,-0.562057 0.02239,-6.71e-4 0.04066,0.474768 0.04066,1.056487 0,0.58172 -0.05953,1.057672 -0.132275,1.057672 -0.07275,0 -0.342733,-0.219671 -0.599963,-0.488156 z m 11.234849,0.122039 c -0.03512,-0.111869 -0.150847,-0.496292 -0.257132,-0.854274 -0.106278,-0.357981 -0.36812,-0.971297 -0.581876,-1.362923 -0.213749,-0.391628 -0.388637,-0.729195 -0.388637,-0.75015 0,-0.02095 0.413157,-0.08074 0.918133,-0.13286 0.504971,-0.05211 0.994873,-0.171504 1.088674,-0.265303 0.118916,-0.118912 0.333575,0.134592 0.709057,0.837355 0.741715,1.388227 0.712828,1.574942 -0.341189,2.205381 -0.985888,0.589683 -1.056908,0.609669 -1.14703,0.322774 z M 37.125538,25.54328 c -0.04372,-0.07698 -0.12768,-0.341336 -0.186505,-0.587449 -0.09358,-0.391491 -0.05915,-0.447476 0.275182,-0.447476 0.291639,0 0.379074,0.0867 0.369215,0.366117 -0.0079,0.222701 0.08269,0.366117 0.23116,0.366117 0.148467,0 0.239014,-0.143416 0.231154,-0.366117 -0.0071,-0.201364 0.07205,-0.366117 0.175903,-0.366117 0.103848,0 0.713756,-0.541371 1.355349,-1.203048 1.198751,-1.236278 1.431941,-1.782439 0.841092,-1.969967 -0.303546,-0.09634 -0.32544,-0.246198 -0.32544,-2.227861 v -2.124572 l -1.505144,-1.438802 -1.505151,-1.438803 -3.254374,4.56e-4 -3.254374,4.55e-4 -0.447476,0.589787 c -0.246113,0.324388 -0.447478,0.761061 -0.447478,0.970388 0,0.375114 -0.0249,0.380594 -1.730021,0.380594 -1.444011,0 -1.81677,0.05362 -2.254763,0.324309 -0.47323,0.292473 -0.535018,0.422608 -0.629401,1.325619 -0.05757,0.550721 -0.104657,1.283462 -0.104657,1.628316 0,0.344852 -0.07322,0.637988 -0.16272,0.651413 -0.08949,0.01342 -0.239861,0.03173 -0.334148,0.04068 -0.09428,0.009 -0.368872,-0.345499 -0.610194,-0.787664 -0.413059,-0.756833 -0.519803,-0.835472 -1.821875,-1.342181 l -1.383109,-0.538244 -3.592996,-2.49e-4 -3.592995,-2.49e-4 -0.213093,0.398167 c -0.227374,0.424853 -0.59053,0.637503 -0.832896,0.487712 -0.08142,-0.05032 -0.148035,-0.563121 -0.148035,-1.139561 v -1.048068 l 3.213695,0.0058 c 2.479186,0.0044 3.30667,0.05892 3.620492,0.238312 0.223738,0.127901 0.480019,0.232072 0.569514,0.231492 0.488377,-0.0031 -1.075839,-0.62576 -1.586506,-0.631468 -0.587588,-0.0066 -0.610196,-0.02792 -0.610196,-0.576336 0,-0.313234 -0.07322,-0.569516 -0.162718,-0.569516 -0.08949,0 -0.162719,0.256282 -0.162719,0.569516 0,0.397757 -0.07361,0.569515 -0.244079,0.569515 -0.170466,0 -0.244078,-0.171758 -0.244078,-0.569515 0,-0.397757 -0.07361,-0.569516 -0.244077,-0.569516 -0.170468,0 -0.244079,0.171759 -0.244079,0.569516 0,0.710785 -0.286632,0.753651 -0.355808,0.05321 -0.07367,-0.745958 -0.457785,-0.801983 -0.457785,-0.06677 0,0.40981 -0.07253,0.583076 -0.244078,0.583076 -0.170467,0 -0.244078,-0.171759 -0.244078,-0.569516 0,-0.397756 -0.07361,-0.569515 -0.244078,-0.569515 -0.170468,0 -0.244078,0.171759 -0.244078,0.569515 0,0.313234 -0.07322,0.569516 -0.162719,0.569516 -0.0895,0 -0.162719,-0.256282 -0.162719,-0.569516 0,-0.397756 -0.07361,-0.569515 -0.244078,-0.569515 -0.170467,0 -0.244078,0.171759 -0.244078,0.569515 0,0.397757 -0.07361,0.569516 -0.244078,0.569516 -0.171549,0 -0.244078,-0.173266 -0.244078,-0.583076 0,-0.395169 -0.06555,-0.560604 -0.203398,-0.513348 -0.111869,0.03835 -0.202692,0.300733 -0.201826,0.583075 8.95e-4,0.305133 -0.08156,0.513349 -0.203399,0.513349 -0.130654,0 -0.204971,-0.235991 -0.204971,-0.650875 v -0.650878 h 3.17548 3.175479 l 0.869833,0.490902 0.86983,0.490902 4.294024,-0.04342 4.294023,-0.04342 0.05006,-0.406797 c 0.02753,-0.223738 0.310203,-0.644772 0.628161,-0.935632 l 0.578111,-0.528836 h 3.409824 c 2.059026,0 3.550622,0.06802 3.765244,0.171696 0.34333,0.165856 0.344677,0.163089 0.03955,-0.08136 -0.264327,-0.21177 -0.902698,-0.253055 -3.912903,-0.253055 H 29.90741 l -0.602539,0.617056 c -0.331396,0.339381 -0.602539,0.742109 -0.602539,0.894953 0,0.255056 -0.35423,0.277898 -4.309603,0.277898 H 20.083128 L 19.289773,14.745256 18.496418,14.2571 h -3.081795 c -3.188523,0 -3.47232,0.05586 -3.47232,0.683418 0,0.161091 -0.07322,0.292895 -0.162719,0.292895 -0.0904,0 -0.162719,-0.433918 -0.162719,-0.976313 v -0.976313 h 8.793656 8.793656 l -0.04753,-1.248011 c -0.05769,-1.514831 -0.372964,-1.801252 -0.372964,-0.33883 v 1.017322 h -1.301736 -1.30175 v -1.017306 c 0,-0.908809 -0.0347,-1.017289 -0.325438,-1.017289 -0.290734,0 -0.325437,0.10848 -0.325437,1.017289 v 1.017289 h -1.139033 -1.139031 v -1.017289 c 0,-0.908809 -0.0347,-1.017289 -0.325438,-1.017289 -0.290734,0 -0.325437,0.10848 -0.325437,1.017289 v 1.017289 H 21.461352 20.32232 v -1.017289 c 0,-0.908809 -0.0347,-1.017289 -0.325436,-1.017289 -0.290735,0 -0.325439,0.10848 -0.325439,1.017289 v 1.017289 h -1.13903 -1.139031 v -1.017289 c 0,-0.908809 -0.03471,-1.017289 -0.325437,-1.017289 -0.290735,0 -0.325438,0.10848 -0.325438,1.017289 v 1.017289 l -2.429553,0.04519 c -1.56247,0.02907 -2.512004,0.113626 -2.660579,0.236933 -0.19845,0.1647 -0.222979,-0.224104 -0.173947,-2.757346 0.0314,-1.6219947 0.09649,-2.9884164 0.144661,-3.0364928 0.06436,-0.064234 16.988271,-0.1624285 18.899024,-0.1096549 0.233254,0.00644 0.282958,0.2432504 0.33459,1.5940739 0.03335,0.8725789 0.159152,1.8427898 0.279554,2.1560228 0.120404,0.313233 0.242128,0.661045 0.270499,0.772914 0.03888,0.153292 0.774379,0.203399 2.985627,0.203399 h 2.934045 v 0.813593 c 0,0.614715 0.05966,0.813594 0.244075,0.813594 0.134242,0 0.244081,0.138264 0.244081,0.307253 0,0.169926 0.579663,0.87135 1.29693,1.569356 l 1.29693,1.262102 0.04551,1.969777 0.04551,1.969776 1.015949,0.667775 1.015949,0.667777 2.038264,-0.406903 c 1.12104,-0.223797 2.08619,-0.358972 2.144774,-0.30039 0.05861,0.05859 0.03881,0.369941 -0.04391,0.691909 l -0.150429,0.585397 -4.149324,1.543933 c -4.172793,1.552663 -5.09851,1.83011 -5.245174,1.572036 z m 4.848026,-3.460091 c -0.139716,-0.226067 -0.527399,-0.231015 -0.664926,-0.0085 -0.05775,0.09342 -0.0134,0.28015 0.09846,0.414964 0.177981,0.214453 0.23303,0.215514 0.440056,0.0085 0.130147,-0.130146 0.187034,-0.316879 0.126414,-0.414964 z m 4.249858,0.04932 c 0.12479,-0.325204 -0.270993,-0.594523 -0.542528,-0.36917 -0.246221,0.204345 -0.103843,0.629669 0.210785,0.629669 0.127477,0 0.276762,-0.117225 0.331743,-0.260499 z M 24.122907,16.680008 c -0.121424,-0.07694 -1.136063,-0.127142 -2.254755,-0.111566 l -2.033983,0.02832 1.980461,0.09123 c 1.089253,0.05017 2.033066,0.144153 2.097359,0.208842 0.0643,0.06469 0.187728,0.07384 0.274294,0.02033 0.09188,-0.05678 0.0655,-0.155504 -0.06338,-0.237162 z m -6.363119,-2.870409 c 0.05153,-0.155222 -0.398191,-0.203398 -1.898668,-0.203398 -1.657346,0 -1.966185,0.03915 -1.966185,0.249242 0,0.212222 0.282006,0.242433 1.898668,0.203398 1.340449,-0.03237 1.918519,-0.105644 1.966185,-0.249242 z m 4.393405,0 c 0.05153,-0.155222 -0.39819,-0.203398 -1.898668,-0.203398 -1.657345,0 -1.966184,0.03915 -1.966184,0.249242 0,0.212222 0.282006,0.242433 1.898667,0.203398 1.340451,-0.03237 1.918519,-0.105644 1.966185,-0.249242 z m 4.393406,0 c 0.05153,-0.155222 -0.39819,-0.203398 -1.898668,-0.203398 -1.657347,0 -1.966184,0.03915 -1.966184,0.249242 0,0.212222 0.282006,0.242433 1.898666,0.203398 1.340451,-0.03237 1.91852,-0.105644 1.966186,-0.249242 z m 1.790604,0 c 0.04693,-0.142852 -0.155183,-0.203398 -0.678976,-0.203398 -0.702205,0 -0.897073,0.119917 -0.629571,0.38742 0.186475,0.186475 1.235291,0.03898 1.308547,-0.184022 z m -14.57712,-1.611727 c 0.381431,-0.345189 0.375884,-0.585704 -0.02181,-0.945608 -0.366998,-0.332128 -0.72073,-0.250292 -0.975458,0.225673 -0.142818,0.266858 -0.113386,0.394606 0.152075,0.660066 0.398594,0.398595 0.465653,0.403344 0.845189,0.05987 z m -0.732981,-0.164619 c -0.238408,-0.238407 -0.101161,-0.705115 0.207355,-0.705115 0.415353,0 0.575227,0.280109 0.329126,0.576644 -0.214817,0.258838 -0.369155,0.295798 -0.536481,0.128471 z m 2.831156,0.265472 c 0.178593,-0.09558 0.314739,-0.339458 0.314739,-0.563789 0,-0.331135 -0.388873,-0.732234 -0.709914,-0.732234 -0.169998,0 -0.591835,0.521906 -0.591835,0.732234 0,0.210326 0.421837,0.732234 0.591835,0.732234 0.04423,0 0.222068,-0.0758 0.395175,-0.168445 z m -0.65116,-0.388524 c -0.252595,-0.304358 -0.09231,-0.582063 0.335945,-0.582063 0.243256,0 0.313818,0.09062 0.275155,0.353372 -0.06498,0.441576 -0.34687,0.547069 -0.6111,0.228691 z m 12.529626,0.388524 c 0.669772,-0.35845 0.140795,-1.468825 -0.56983,-1.196133 -0.41297,0.158472 -0.518649,0.88795 -0.165995,1.145817 0.358799,0.262361 0.34179,0.261198 0.735825,0.05031 z m -0.651158,-0.388524 c -0.252595,-0.304358 -0.09232,-0.582063 0.335944,-0.582063 0.243254,0 0.313816,0.09062 0.275154,0.353372 -0.06497,0.441576 -0.346869,0.547069 -0.611098,0.228691 z M 13.227092,10.365757 c 0.372705,-0.235996 0.07827,-0.6648057 -0.456477,-0.6648057 -0.566232,0 -0.774732,0.2419369 -0.496951,0.5766437 0.22124,0.266578 0.614261,0.30292 0.953428,0.08816 z m 4.369694,0.01825 c 0.11187,-0.03685 0.203399,-0.205612 0.203399,-0.375028 0,-0.2851121 -0.145265,-0.3080279 -1.952625,-0.3080279 -1.784975,0 -1.952625,0.025615 -1.952625,0.2983176 0,0.1640743 0.05492,0.3535033 0.122039,0.4209513 0.121624,0.122216 3.193175,0.09114 3.579812,-0.03622 z m 4.312046,0.02616 c 0.156617,-0.04414 0.284758,-0.221783 0.284758,-0.394742 0,-0.2933462 -0.131173,-0.314473 -1.952625,-0.314473 -1.784975,0 -1.952624,0.025615 -1.952624,0.2983181 0,0.1640749 0.04166,0.3399819 0.09259,0.3909039 0.113911,0.113912 3.13401,0.131026 3.527905,0.01999 z m 4.352653,0.02304 c 0.179031,-0.05682 0.325511,-0.244826 0.325511,-0.417785 0,-0.2933459 -0.131174,-0.3144727 -1.952625,-0.3144727 -1.784976,0 -1.952624,0.025615 -1.952624,0.2983181 0,0.1640746 0.03518,0.3334946 0.07817,0.3764896 0.122988,0.122988 3.13916,0.172474 3.501567,0.05745 z m 2.109502,-0.155614 c 0.289187,-0.3484512 0.06236,-0.5766437 -0.573205,-0.5766437 -0.434465,0 -0.559912,0.066838 -0.559912,0.2983181 0,0.1640746 0.04881,0.3471336 0.10848,0.4067966 0.193601,0.193602 0.822814,0.11471 1.024637,-0.128471 z M 15.993317,9.0817697 C 16.108964,8.8656809 16.055445,8.6183318 15.790874,8.1461371 L 15.431223,7.504249 13.776846,7.4579756 C 12.227431,7.414639 12.110617,7.4338487 11.935641,7.7607912 11.772292,8.0660117 11.82647,8.1894127 12.36674,8.7426995 l 0.61793,0.6328169 h 1.42572 c 1.207909,0 1.449737,-0.044875 1.582927,-0.2937444 z m -3.3651,-0.5650649 C 12.113684,7.985841 12.088294,7.7483267 12.54608,7.7483267 c 0.123249,0 0.202574,0.1281408 0.176278,0.2847577 -0.04178,0.2488405 0.136905,0.2950199 1.416656,0.3661172 1.157111,0.064284 1.464469,0.1325857 1.464469,0.3254371 0,0.1911576 -0.265208,0.2542348 -1.223178,0.2909201 -1.199452,0.045932 -1.233436,0.03626 -1.752088,-0.498854 z m 7.921224,0.5650649 C 20.665088,8.8656809 20.611569,8.6183318 20.346998,8.1461371 L 19.987347,7.504249 18.32336,7.4578693 c -1.644866,-0.045848 -1.666158,-0.041614 -1.852927,0.3682943 -0.172998,0.3796915 -0.13517,0.4625311 0.448367,0.9818876 0.624293,0.5556289 0.666262,0.567214 2.055371,0.5673382 1.200607,1.08e-4 1.442171,-0.04492 1.57527,-0.2936174 z M 17.182889,8.5530998 c -0.529144,-0.4812591 -0.568622,-0.8047731 -0.0982,-0.8047731 0.139838,0 0.221468,0.119945 0.193795,0.2847577 -0.04192,0.2495996 0.122845,0.2906723 1.334384,0.3326607 0.760207,0.026348 1.455218,0.1209257 1.544467,0.2101743 0.283425,0.2834252 -0.266286,0.4692959 -1.380836,0.4668949 -0.945484,-0.00201 -1.114519,-0.053976 -1.593608,-0.4897145 z m 7.759958,0.5286699 C 25.058492,8.8656843 25.004979,8.6183262 24.740433,8.1461371 L 24.380811,7.504249 22.760828,7.4572153 c -1.382595,-0.040142 -1.650151,-0.00578 -1.825846,0.2344992 -0.2909,0.3978305 -0.275525,0.4399879 0.39959,1.0957262 0.601897,0.5846203 0.613805,0.5880729 2.02826,0.5880729 1.205101,0 1.446862,-0.044942 1.580015,-0.2937439 z M 21.571774,8.5105425 C 21.06267,7.9852811 21.038993,7.7483267 21.495608,7.7483267 c 0.123251,0 0.202577,0.1281408 0.17628,0.2847577 -0.04191,0.2495996 0.122844,0.2906723 1.334383,0.3326607 0.760209,0.026348 1.455218,0.1209257 1.544467,0.2101743 0.282978,0.2829777 -0.265182,0.469038 -1.389595,0.4716649 -0.995337,0.00235 -1.101293,-0.033474 -1.589369,-0.5370418 z m 7.609212,0.5573038 C 29.305905,8.8344318 29.258198,8.5991305 28.983312,8.0928757 L 28.62098,7.4255735 26.958837,7.424231 c -1.525455,-0.00123 -1.677259,0.026907 -1.845974,0.3421531 -0.159514,0.298054 -0.102086,0.427214 0.434095,0.9763131 l 0.617929,0.632808 h 1.425719 c 1.231737,0 1.448123,-0.04186 1.59038,-0.3076673 z M 25.891135,8.5998862 C 25.399341,8.0865646 25.320263,7.7483267 25.692043,7.7483267 c 0.134242,0 0.244078,0.1435953 0.244078,0.3191025 0,0.2890959 0.133883,0.3235235 1.423789,0.3661166 1.136216,0.037524 1.423788,0.096314 1.423788,0.2910929 0,0.1911878 -0.265387,0.2542353 -1.224696,0.2909481 -1.161585,0.04445 -1.247535,0.02303 -1.667867,-0.4157006 z M 37.163712,24.029802 c 0,-0.08421 0.07322,-0.19837 0.162722,-0.253681 0.09981,-0.06169 0.162716,-1.374651 0.162716,-3.396254 V 17.08418 l -0.453106,-0.434104 c -0.513657,-0.492115 -1.057111,-0.557499 -4.875933,-0.586641 -2.056428,-0.0157 -2.156022,-0.03179 -2.156022,-0.34848 0,-0.182614 0.160218,-0.548731 0.356038,-0.813593 l 0.356039,-0.481568 h 3.105326 3.105328 l 1.338836,1.345828 1.338836,1.345828 v 2.126506 2.126506 l 0.430316,0.196064 0.430315,0.196065 -0.468414,0.52161 c -1.575716,1.754646 -1.756724,1.904717 -2.297357,1.904717 -0.294604,0 -0.53564,-0.0689 -0.53564,-0.153116 z m 20.828001,-0.493685 c 0,-0.403174 -1.004175,-2.282328 -1.610805,-3.014371 -0.660645,-0.797222 -0.780828,-1.209882 -0.390248,-1.339924 0.423913,-0.141139 2.651924,3.442336 2.651924,4.265288 0,0.139172 -0.142551,0.247652 -0.325435,0.247652 -0.178997,0 -0.325436,-0.07139 -0.325436,-0.158645 z m -5.207588,-1.714166 c -0.09455,-0.248678 -0.215822,-0.523198 -0.2695,-0.610049 -0.17715,-0.28664 2.280211,0.0404 2.509083,0.333925 0.273503,0.35076 0.02977,0.481746 -1.155523,0.621056 -0.888029,0.104369 -0.916706,0.09525 -1.08406,-0.344932 z M 41.679157,20.828892 c -0.556501,-0.419331 -0.772913,-0.695012 -0.772913,-0.984576 0,-0.328122 0.0599,-0.383153 0.32544,-0.298882 0.292229,0.09275 0.325433,0.02924 0.325433,-0.6225 0,-0.896493 0.05996,-0.923328 2.062857,-0.923328 1.306469,0 1.622167,-0.05276 2.02279,-0.338025 l 0.474712,-0.338025 -0.34384,-0.482882 -0.343846,-0.482882 -2.353925,0.02364 c -1.294661,0.013 -2.397884,-0.02032 -2.451611,-0.07405 -0.05375,-0.05373 -0.01224,-0.09769 0.09215,-0.09769 0.224167,0 0.256965,-0.590182 0.04022,-0.724127 -0.08228,-0.05086 -0.254911,0.01284 -0.383619,0.141559 -0.203546,0.203543 -0.334031,0.132474 -1.002068,-0.545761 -0.633192,-0.642854 -0.720011,-0.798214 -0.494454,-0.884768 0.159033,-0.06103 0.234598,-0.206619 0.180465,-0.347696 -0.08177,-0.213093 0.879076,-0.242707 7.874976,-0.242707 h 7.968111 v 0.676094 c 0,0.636903 -0.01673,0.660961 -0.288466,0.415039 -0.232433,-0.210346 -0.728811,-0.266047 -2.55533,-0.286746 -2.767999,-0.03137 -2.851362,0.02175 -2.851362,1.817139 v 1.121004 h -1.464469 c -1.31498,0 -1.464468,0.03064 -1.464468,0.300219 0,0.489566 -0.517343,0.814319 -1.384285,0.868963 l -0.81242,0.05121 v 0.650875 0.650874 l 1.274083,0.30429 c 0.700749,0.167359 1.213308,0.363896 1.139035,0.436748 -0.07428,0.07285 -0.830675,0.248969 -1.680881,0.391369 -0.850207,0.142403 -1.728888,0.292461 -1.952625,0.333466 -0.28956,0.05307 -0.629544,-0.09329 -1.179711,-0.507851 z m 5.637065,-4.062985 c 0.18322,-0.477462 0.100638,-0.725051 -0.303208,-0.909056 -0.30737,-0.140046 -0.46056,-0.134536 -0.650872,0.02341 -0.252895,0.209885 -0.33801,0.836962 -0.140417,1.034552 0.213319,0.213322 0.996379,0.106786 1.094497,-0.148908 z m -0.987721,-0.328551 c -0.113917,-0.296866 0.216757,-0.564422 0.542897,-0.43927 0.119987,0.04604 0.218159,0.222327 0.218159,0.391742 0,0.384452 -0.61698,0.422983 -0.761056,0.04753 z m 0.110178,3.853431 c -0.134243,-0.07684 -0.668457,-0.233459 -1.187135,-0.348046 -1.063427,-0.234932 -1.164546,-0.325899 -1.016773,-0.914685 0.09387,-0.373996 0.164297,-0.407867 0.675578,-0.324897 0.752741,0.122153 0.967044,0.02271 1.375588,-0.638339 l 0.342001,-0.55337 h 1.451203 1.451197 l 0.0025,-0.610195 c 0.0012,-0.335608 0.05646,-0.525386 0.122416,-0.421732 0.06595,0.103655 0.390974,0.239314 0.722262,0.301464 l 0.602345,0.113 -0.337784,0.456872 c -0.200552,0.271263 -0.358779,0.770964 -0.389467,1.229993 -0.03426,0.51235 -0.164771,0.886212 -0.38697,1.10841 -0.189758,0.18976 -0.335286,0.248968 -0.335286,0.13641 0,-0.109383 0.07322,-0.198878 0.162717,-0.198878 0.231824,0 0.201701,-0.865353 -0.04071,-1.168518 -0.28743,-0.359511 -0.859017,-0.461688 -1.946749,-0.347998 l -0.94151,0.09841 v 0.765194 c 0,1.047587 0.286252,1.272446 1.71221,1.344999 1.071293,0.05451 1.052719,0.05929 -0.329099,0.08469 -0.805459,0.01481 -1.574308,-0.03595 -1.708549,-0.112782 z m 24.434665,-1.829618 c -0.864981,-0.974261 -1.719126,-1.804102 -1.898122,-1.84409 -0.178991,-0.03999 -1.481946,-0.182305 -2.895467,-0.316258 -1.413516,-0.133952 -2.640013,-0.286798 -2.725539,-0.339658 -0.08553,-0.05286 -0.155502,-0.432628 -0.155502,-0.84393 v -0.747824 l 5.732075,0.116353 c 3.152634,0.06399 5.747536,0.131818 5.766439,0.150721 0.03988,0.03984 -0.437366,5.377373 -0.483936,5.412935 -0.01712,0.01305 -0.421713,0.05959 -0.899165,0.103429 l -0.868102,0.07971 z m 1.600337,-0.549511 c 0,-1.01287 -0.508565,-1.701957 -1.2561,-1.701957 -0.861479,0 -0.825459,0.369037 0.142132,1.456002 0.478436,0.537465 0.924808,0.978912 0.991924,0.980993 0.06712,0.0021 0.122044,-0.328686 0.122044,-0.735038 z m 2.004441,1.999893 c 0.04794,-0.201364 0.178902,-1.484471 0.291083,-2.851348 0.132298,-1.61178 0.265155,-2.464799 0.378025,-2.427095 0.18172,0.06071 0.179091,0.153686 -0.07917,2.796982 -0.225689,2.310031 -0.322152,2.847578 -0.510982,2.847578 -0.09133,0 -0.126855,-0.164752 -0.07895,-0.366117 z m -33.537776,-1.952624 0.04723,-1.34243 2.115341,-0.0467 c 2.012698,-0.04444 2.129529,-0.0293 2.407638,0.312091 0.266222,0.326794 0.269402,0.381755 0.03561,0.61622 -0.194009,0.194552 -0.722429,0.277296 -2.163564,0.338785 l -1.906856,0.08136 -0.05006,0.691554 c -0.03475,0.480207 -0.123781,0.691555 -0.291338,0.691555 -0.197574,0 -0.23274,-0.243253 -0.194038,-1.342429 z m 9.729021,-0.02266 c 0,-0.124327 0.128363,-0.384573 0.285249,-0.578323 0.248633,-0.307041 0.420993,-0.345918 1.342435,-0.302784 l 1.057172,0.04949 -1.116618,0.528836 c -1.223413,0.579413 -1.568238,0.645989 -1.568238,0.302783 z m 2.766221,-1.010464 c 0,-0.110735 -0.03857,-0.301755 -0.08563,-0.424489 -0.05627,-0.146584 0.125202,-0.299037 0.528832,-0.444314 1.216452,-0.437829 1.346703,-0.597987 1.346703,-1.655925 v -0.957598 h 0.569515 0.56952 v -2.003542 c 0,-1.9827477 -0.0049,-2.0080778 -0.456385,-2.4407806 -0.264567,-0.2534745 -0.640707,-0.4372396 -0.894948,-0.4372396 -0.24255,0 -0.438434,-0.090911 -0.438256,-0.2033989 1.6e-4,-0.1540174 -0.460339,-0.1910244 -1.897114,-0.1524315 -1.890123,0.050765 -1.900061,0.053126 -2.579901,0.6101949 l -0.682459,0.5592286 -1.773149,0.00313 -1.773149,0.00313 -0.616667,1.0545551 -0.616672,1.054554 H 42.23908 39.842334 L 39.31662,10.534602 c -0.289142,-0.525953 -0.525714,-1.0124274 -0.525714,-1.0810555 0,-0.068627 0.950076,-0.086244 2.111276,-0.039147 1.678033,0.068058 2.149597,0.03946 2.29799,-0.1393371 0.142311,-0.1714751 0.717624,-0.2249653 2.419625,-0.2249653 1.956561,0 2.266244,-0.036831 2.502213,-0.2975708 0.148117,-0.1636637 0.269296,-0.343226 0.269296,-0.3990271 0,-0.0558 -1.153266,-0.1369149 -2.562815,-0.1802521 -3.058979,-0.094049 -4.622512,-0.2359513 -4.83275,-0.4386101 -0.08502,-0.081955 -0.872174,-0.1490085 -1.749225,-0.1490085 -1.308984,0 -1.594646,-0.043723 -1.594646,-0.2440783 0,-0.1627189 0.162723,-0.2440783 0.488157,-0.2440783 0.268484,0 0.488156,0.073224 0.488156,0.1627188 0,0.089495 0.109839,0.1627189 0.244081,0.1627189 0.134242,0 0.244075,-0.073224 0.244075,-0.1627189 0,-0.2547057 5.89922,-0.215818 6.171112,0.040685 0.172477,0.1627188 0.230514,0.1627188 0.290175,0 0.09451,-0.2577595 5.90534,-0.2977884 5.90534,-0.040685 0,0.089495 0.109833,0.1627189 0.244075,0.1627189 0.134243,0 0.244081,-0.073224 0.244081,-0.1627189 0,-0.094016 0.515272,-0.1627188 1.220388,-0.1627188 1.218923,0 1.220411,5.37e-4 1.23661,0.4474766 l 0.01623,0.447476 0.112256,-0.406796 c 0.195257,-0.7075987 0.828208,-0.6158672 2.590435,0.3754227 2.362123,1.3287429 2.554807,1.4117632 3.48484,1.5014717 0.4828,0.046564 1.051177,0.2236194 1.299186,0.4046971 0.41749,0.30483 0.716952,0.321908 5.64487,0.321908 3.984492,0 5.234826,0.04766 5.335629,0.203397 0.0724,0.11187 0.131638,0.953936 0.131638,1.87126 v 1.667861 l -0.528839,6e-6 c -0.361595,4e-6 -0.528832,-0.07718 -0.528832,-0.244072 0,-0.134243 -0.112132,-0.244078 -0.249184,-0.244078 -0.137053,0 -0.291329,0.109835 -0.342844,0.244078 -0.06047,0.157486 -0.312223,0.244078 -0.70972,0.244078 -0.397502,0 -0.649293,-0.08659 -0.709719,-0.244078 -0.05152,-0.134243 -0.208102,-0.244078 -0.347957,-0.244078 -0.139861,0 -0.296442,0.109835 -0.347952,0.244078 -0.07726,0.201348 -0.50456,0.244078 -2.440782,0.244078 -1.936223,0 -2.363519,-0.04273 -2.440778,-0.244078 -0.05158,-0.134243 -0.197965,-0.244078 -0.325441,-0.244078 -0.127481,0 -0.27392,0.109835 -0.32543,0.244078 -0.07495,0.195293 -0.431682,0.244078 -1.78481,0.244078 -1.579019,0 -2.130154,0.164167 -1.365698,0.406797 0.178991,0.05681 0.325436,0.238813 0.325436,0.404453 0,0.16564 0.04162,0.409701 0.09255,0.542357 0.06893,0.179633 -0.07643,0.269741 -0.569512,0.353048 -0.364135,0.06152 -0.662064,0.178644 -0.662064,0.260272 0,0.08163 -0.878686,0.148416 -1.95263,0.148416 -1.808344,0 -1.97959,0.02705 -2.317532,0.366118 -0.431694,0.433121 -2.075871,0.839209 -2.075871,0.51271 z m 6.183308,-4.118962 V 11.844774 L 58.276469,11.0765 c -0.738338,-0.422552 -1.397349,-0.799399 -1.46447,-0.837439 -0.06712,-0.03804 -0.122041,0.740616 -0.122041,1.730346 v 1.79951 h 1.464467 1.464471 z m -2.440782,-0.500474 v -1.299828 l 1.016996,0.62083 c 0.960039,0.586063 1.019794,0.658854 1.067024,1.299827 l 0.05007,0.678998 H 58.24518 57.178147 Z m 6.152702,-1.423843 c -0.08169,-0.424165 -0.620261,-0.47147 -0.620261,-0.05447 0,0.232866 0.104502,0.337368 0.337362,0.337368 0.232872,0 0.320496,-0.08763 0.282899,-0.282889 z m -19.102146,0.0214 c 0.171825,-0.06594 0.257383,-0.303031 0.257383,-0.713265 0,-0.5411324 -0.05344,-0.6247149 -0.447473,-0.7000849 -0.246111,-0.047068 -0.557313,-0.021224 -0.691555,0.057442 -0.196192,0.1149687 -0.177778,0.1440014 0.09385,0.1479782 0.282192,0.00414 0.326116,0.085477 0.266289,0.4931047 l -0.07164,0.488156 h -1.599116 c -0.890557,0 -1.64368,0.0721 -1.699681,0.162719 -0.110147,0.178219 3.442055,0.236587 3.89194,0.06395 z m 6.960963,5.632915 c -0.991528,-0.112615 -1.517778,-0.36019 -1.27714,-0.600828 0.139691,-0.139687 2.88764,0.403185 3.10816,0.614033 0.174211,0.166574 -0.276786,0.163322 -1.83102,-0.01321 z M 49.532829,15.55068 c -0.0037,-0.904365 0.157286,-0.968176 2.445616,-0.968176 1.786697,0 2.093028,0.03918 2.326876,0.297571 0.14811,0.163663 0.269296,0.337704 0.269296,0.386758 0,0.04905 -0.379953,0.25264 -0.844333,0.452413 -0.677558,0.291476 -1.007014,0.34139 -1.667868,0.252688 -2.119191,-0.284442 -2.245605,-0.287883 -2.38684,-0.06497 -0.09393,0.148251 -0.14108,0.03057 -0.142747,-0.356281 z m 13.181637,0.09979 c -0.116294,-0.30589 -0.289131,-0.40815 -0.75629,-0.447477 -0.494776,-0.04165 -0.610309,-0.117942 -0.631622,-0.417092 -0.02405,-0.33717 0.04257,-0.366118 0.841676,-0.366118 h 0.867761 v 0.813594 c 0,0.897669 -0.09296,1.01826 -0.321525,0.417093 z m 11.386398,-3.491339 c 0,-1.370522 0.05174,-1.792354 0.228173,-1.860055 0.12549,-0.04815 0.271941,-0.04378 0.325436,0.0097 0.05353,0.0535 0.09726,0.890522 0.09726,1.860054 0,1.654306 -0.02003,1.762785 -0.32543,1.762785 -0.30552,0 -0.325441,-0.108479 -0.325441,-1.772495 z m 0.945803,0.389387 c -0.01678,-0.760711 -0.03513,-1.578372 -0.04067,-1.817026 -0.0056,-0.238654 0.08136,-0.464426 0.193227,-0.501716 0.154908,-0.05164 0.203397,0.381485 0.203397,1.817026 0,2.208386 -0.308704,2.643508 -0.355951,0.501716 z m -71.5167109,0.56237 c 0.047834,-0.182926 -0.016396,-0.530737 -0.1427378,-0.772913 -0.2919933,-0.5597 -0.2896624,-0.60321 0.050541,-0.943414 0.1552433,-0.155243 0.2616825,-0.439291 0.2365321,-0.631216 -0.044551,-0.339958 0.010055,-0.349945 2.1178406,-0.387331 1.1899627,-0.02111 2.8408857,0.01014 3.6687166,0.06943 l 1.5051484,0.107804 v 1.340228 1.340229 l -1.0983512,0.103733 c -0.6040935,0.05705 -2.2967725,0.104253 -3.761509,0.104889 -2.6024156,0.0011 -2.6611733,-0.0064 -2.5761822,-0.331437 z m 1.5781685,-0.236922 c 0.276494,-0.333154 -0.1405399,-0.336881 -0.5790951,-0.0051 -0.3096623,0.234216 -0.3090675,0.239004 0.030338,0.244078 0.1904064,0.0029 0.4373485,-0.104661 0.54876,-0.238904 z m 1.8006033,0.07564 c 0.4253941,-0.227665 0.3959513,-0.393192 -0.1110284,-0.624187 -0.361559,-0.164737 -0.4585839,-0.150271 -0.643368,0.09592 -0.1848768,0.246317 -0.1773468,0.320501 0.050074,0.493312 0.3230213,0.245457 0.3120165,0.244911 0.7043243,0.03496 z M 8.7776048,12.801789 C 8.542026,12.541477 8.4368206,12.519617 8.18287,12.678211 c -0.4681553,0.292368 -0.3721967,0.439833 0.2862077,0.439833 0.5786722,0 0.587005,-0.0085 0.3085271,-0.316255 z M 4.8090107,12.440058 C 5.615492,12.19843 5.5328926,11.959578 4.5465091,11.680984 3.887565,11.494873 3.7320838,11.495412 3.5430334,11.68449 c -0.1898049,0.189805 -0.1854027,0.278408 0.02904,0.584569 0.291355,0.415967 0.3789667,0.428081 1.2369364,0.171027 z m 3.8789259,-1.03056 c 0,-0.700554 -0.020547,-0.732235 -0.4748484,-0.732235 -0.2611657,0 -0.5879186,0.04339 -0.7261168,0.09642 -0.2252053,0.08642 -0.2241676,0.137782 0.010008,0.495173 0.204413,0.311974 0.8838222,0.823686 1.1502809,0.86636 0.02237,0.0036 0.040679,-0.322991 0.040679,-0.72572 z m -1.789906,-0.08873 V 10.66252 l -0.6101955,0.110318 c -0.3356072,0.06068 -0.6374191,0.133933 -0.670693,0.162791 -0.099125,0.08598 0.915423,1.043388 1.1056529,1.043388 0.09638,0 0.1752356,-0.296212 0.1752356,-0.658249 z M 4.7826869,11.175023 c 0,-0.237594 -0.2681339,-0.346816 -0.5684746,-0.231564 -0.2171017,0.08331 -0.228342,0.132463 -0.055363,0.242114 0.2908064,0.184342 0.6238381,0.17871 0.6238376,-0.01055 z M 37.651867,12.304451 V 11.490857 H 34.560213 31.468557 V 10.28007 c 0,-0.6659328 -0.07322,-1.2560419 -0.162718,-1.311353 -0.08949,-0.055313 -0.162719,-0.2060789 -0.162719,-0.3350403 0,-0.1954705 0.487232,-0.2344751 2.928937,-0.2344751 h 2.928937 V 8.968717 c 0,0.5655767 0.005,0.5695155 0.724286,0.5695155 h 0.724292 l 0.618142,1.1797105 0.618137,1.179711 2.542157,0.0447 2.542157,0.0447 0.700559,-1.224417 0.700558,-1.2244176 h 1.780081 c 1.761605,0 1.786101,-0.00531 2.359134,-0.5084085 l 0.579046,-0.5084084 2.168282,0.073538 c 1.998023,0.067763 2.200204,0.1035239 2.57477,0.4554128 0.387099,0.3636608 0.40649,0.4697792 0.40649,2.2247767 v 1.842901 H 46.845476 37.651867 Z M 55.416078,11.22156 c 0.36507,-0.330384 0.387125,-1.082372 0.04188,-1.4276261 -0.574853,-0.5748532 -1.696927,-0.1170512 -1.696927,0.6923391 0,0.870383 1.009972,1.31908 1.655058,0.735287 z m -1.267127,-0.453432 c -0.167133,-0.435537 0.01685,-0.8223421 0.418212,-0.8792318 0.511625,-0.072519 0.875047,0.3834288 0.646297,0.8108458 -0.192236,0.359199 -0.934615,0.406891 -1.064509,0.06839 z m 19.074643,-0.159642 c 0.09763,-0.254399 0.547662,-0.477792 0.685285,-0.340168 0.09022,0.09022 -0.451748,0.557398 -0.657187,0.56649 -0.0643,0.0029 -0.07695,-0.099 -0.02814,-0.226322 z M 9.5985362,9.3257171 C 9.4198862,9.1950848 9.3295328,8.9599753 9.364037,8.7155217 9.4143549,8.3590463 9.5086823,8.3127466 10.274444,8.2686593 l 0.854273,-0.049182 V 8.878855 c 0,0.6552819 -0.0039,0.6593794 -0.619775,0.6593794 -0.340875,0 -0.7505584,-0.095632 -0.9104058,-0.2125159 z M 37.163712,8.6432793 c 0,-0.4278937 -0.07081,-0.5734463 -0.284757,-0.5853251 -0.156617,-0.0087 -1.419721,-0.016077 -2.806898,-0.016413 l -2.52214,-6.153e-4 V 7.6505545 7.2601685 h 2.78792 c 2.57304,0 2.793974,0.023142 2.866428,0.3002284 0.06664,0.254831 0.309406,0.3161243 1.605487,0.4053539 4.012616,0.2762537 4.211833,0.3040122 4.211833,0.5868764 0,0.5924384 -0.320525,0.6601676 -3.124199,0.6601676 H 37.163712 Z M 31.956714,6.5464048 c 0,-0.2841386 0.690521,-0.4382041 2.400101,-0.5354971 1.14502,-0.065163 1.342429,-0.038745 1.342429,0.1796354 0,0.1408189 0.109836,0.2560336 0.244078,0.2560336 0.134243,0 0.244079,-0.073223 0.244079,-0.1627185 0,-0.2596781 0.769091,-0.1879563 0.872437,0.08136 0.05406,0.1408891 0.297285,0.2440781 0.575302,0.2440781 0.264898,0 0.591476,-0.1098353 0.725718,-0.2440781 0.274302,-0.2743029 0.9182,-0.3313564 0.9182,-0.08136 0,0.089495 0.329506,0.1627185 0.732232,0.1627185 0.402726,0 0.732237,-0.073223 0.732237,-0.1627185 0,-0.089495 0.183055,-0.1627185 0.406792,-0.1627185 0.223743,0 0.406798,0.073223 0.406798,0.1627185 0,0.089495 0.292893,0.1627185 0.650879,0.1627185 0.357979,0 0.650873,-0.073223 0.650873,-0.1627185 0,-0.089495 0.178737,-0.1627185 0.397192,-0.1627185 0.218459,0 0.442448,0.073223 0.497762,0.1627185 0.131148,0.2122064 1.383109,0.2122064 1.383109,0 0,-0.089495 0.183055,-0.1627185 0.406792,-0.1627185 0.223743,0 0.406798,0.073223 0.406798,0.1627185 0,0.2122064 1.251962,0.2122064 1.38311,0 0.13094,-0.2118643 0.894954,-0.2118643 0.894954,0 0,0.2122064 1.251956,0.2122064 1.38311,0 0.13094,-0.2118643 0.894955,-0.2118643 0.894955,0 0,0.089495 0.146443,0.1627185 0.325433,0.1627185 0.243429,0 0.328675,-0.1127608 0.338288,-0.4474764 0.0071,-0.2461118 0.04975,-0.3559471 0.09492,-0.244078 0.05511,0.1366277 0.471705,0.2033983 1.268979,0.2033983 0.856516,0 1.243296,0.067941 1.389475,0.2440781 0.111407,0.1342427 0.303435,0.244078 0.426718,0.244078 0.123282,0 0.224155,0.073224 0.224155,0.1627192 0,0.1069177 -3.878128,0.1627185 -11.30895,0.1627185 -9.532479,0 -11.308953,-0.035442 -11.308953,-0.2256096 z m 22.201529,-0.50145 C 53.95565,5.8917257 53.451941,5.8041964 52.753633,5.8008766 52.154826,5.798047 51.616621,5.7176069 51.55763,5.6221571 51.396076,5.36076 51.503326,5.317432 52.594496,5.2033852 c 0.849727,-0.088814 1.003808,-0.1534763 1.003808,-0.4212546 0,-0.1739847 0.229082,-0.6353256 0.509067,-1.0252017 0.459386,-0.6396768 0.533642,-0.6842956 0.760798,-0.4571375 0.208786,0.2087815 0.216535,0.30808 0.04545,0.5820329 -0.115632,0.1851555 -0.14212,0.374351 -0.06027,0.4305368 0.211197,0.1449923 0.226314,1.511019 0.01949,1.7602373 -0.223682,0.2695188 -0.326977,0.2655231 -0.714575,-0.027644 z M 32.008206,5.9290537 c -0.209198,-0.2644499 -0.224053,-1.4474834 -0.02141,-1.7053731 0.09147,-0.1164146 0.08296,-0.229379 -0.02218,-0.2943605 -0.254655,-0.1573864 -0.206024,-0.7371179 0.06183,-0.7371179 0.299715,0 0.743858,0.444143 0.743858,0.7438571 0,0.1278505 0.06836,0.2324552 0.151911,0.2324552 0.08355,0 0.17508,0.2013645 0.203398,0.4474769 0.04802,0.4173623 0.108977,0.4507864 0.90576,0.4966599 0.707151,0.040713 0.854274,0.1013734 0.854274,0.3522325 0,0.2556296 -0.159136,0.3142458 -1.016992,0.3746007 -0.559345,0.039354 -1.168555,0.1239158 -1.353797,0.1879157 -0.209015,0.072214 -0.401248,0.034901 -0.506655,-0.098346 z m 3.3656,-0.2960708 c 0,-0.089495 0.07322,-0.1627185 0.16272,-0.1627185 0.08949,0 0.162718,0.073224 0.162718,0.1627185 0,0.089495 -0.07322,0.1627191 -0.162718,0.1627191 -0.0895,0 -0.16272,-0.073224 -0.16272,-0.1627191 z"
       id="path959" />
  </g>
</svg>
