<?xml version="1.0" encoding="UTF-8" standalone="no"?>
<!-- Generator: Adobe Illustrator 22.1.0, SVG Export Plug-In . SVG Version: 6.00 Build 0)  -->

<svg
   version="1.1"
   id="Layer_4_1_"
   x="0px"
   y="0px"
   viewBox="0 0 512 512"
   xml:space="preserve"
   sodipodi:docname="Knockdown_Shield.svg"
   width="512"
   height="512"
   inkscape:version="1.1 (c68e22c387, 2021-05-23)"
   xmlns:inkscape="http://www.inkscape.org/namespaces/inkscape"
   xmlns:sodipodi="http://sodipodi.sourceforge.net/DTD/sodipodi-0.dtd"
   xmlns="http://www.w3.org/2000/svg"
   xmlns:svg="http://www.w3.org/2000/svg"><defs
   id="defs39" /><sodipodi:namedview
   id="namedview37"
   pagecolor="#ffffff"
   bordercolor="#666666"
   borderopacity="1.0"
   inkscape:pageshadow="2"
   inkscape:pageopacity="0.0"
   inkscape:pagecheckerboard="0"
   showgrid="false"
   inkscape:zoom="0.43243243"
   inkscape:cx="137.59375"
   inkscape:cy="433.59375"
   inkscape:window-width="1366"
   inkscape:window-height="697"
   inkscape:window-x="-8"
   inkscape:window-y="-8"
   inkscape:window-maximized="1"
   inkscape:current-layer="Layer_4_1_" />
<style
   type="text/css"
   id="style2">
	.st0{fill:#FF0000;}
	.st1{fill:#241C1C;}
</style>

<g
   id="g34"
   transform="matrix(13.189189,0,0,13.189176,12,11.340782)">
	<g
   id="g10">
		
		
	</g>
	
	
	
	
	
	
	
	
	
	
	<g
   id="g1177"><path
     class="st0"
     d="m 18.1,13.4 -1,0.6 c -0.4,0.2 -0.8,0.1 -1,-0.3 L 14.2,10.4 C 14,10 14.1,9.6 14.5,9.4 l 1.1,-0.6 c 0.4,-0.2 0.8,-0.1 1,0.3 l 1.9,3.3 c 0.1,0.4 0,0.8 -0.4,1 z"
     id="path4" /><path
     class="st1"
     d="m 9,12.2 -2.9,5 C 5.6,18 5.6,19 6.1,19.8 l 5.1,8.8 c 0.5,0.8 1.3,1.3 2.3,1.3 h 5.7 z"
     id="path6"
     style="fill:#273839;fill-opacity:1" /><path
     class="st1"
     d="M 30.9,17.2 25.8,8.4 C 25.3,7.6 24.5,7.1 23.5,7.1 h -7.4 l 11,19.1 3.7,-6.4 C 31.4,19 31.4,18 30.9,17.2 Z"
     id="path8"
     style="fill:#273839;fill-opacity:1" /><path
     class="st1"
     d="M 8.8,5.7 C 8.5,5.2 8.5,4.7 8.6,4.2 8.7,3.7 9.1,3.2 9.5,3 c 0.3,-0.2 0.7,-0.3 1,-0.3 0.7,0 1.4,0.4 1.7,1 0.3,0.5 0.3,1 0.2,1.5 0,0.1 -0.1,0.2 -0.2,0.3 h 2 L 12.4,2.3 H 12 C 11.6,1.7 10.8,1.5 10.2,1.9 l -2,1.2 C 7.6,3.4 7.4,4.2 7.7,4.8 l -0.2,0.3 1.8,3.2 1,-1.7 C 9.7,6.6 9.1,6.2 8.8,5.7 Z"
     id="path12"
     style="fill:#273839;fill-opacity:1" /><path
     class="st1"
     d="m 29.5,31.9 -1.8,-3.2 -1,1.7 c 0.6,0.1 1.2,0.4 1.6,1 0.6,1 0.2,2.2 -0.7,2.7 -0.3,0.2 -0.7,0.3 -1,0.3 -0.7,0 -1.4,-0.4 -1.7,-1 -0.3,-0.5 -0.3,-1 -0.2,-1.5 0,-0.1 0.1,-0.2 0.2,-0.3 h -2 l 1.8,3.2 H 25 c 0.4,0.6 1.2,0.8 1.8,0.4 L 28.9,34 c 0.6,-0.4 0.8,-1.1 0.5,-1.7 z"
     id="path14"
     style="fill:#273839;fill-opacity:1" /><path
     class="st1"
     d="m 21.8,31.5 h -9.5 c 0,0.1 0.1,0.2 0.2,0.3 0.1,0.5 0.1,1.1 -0.2,1.5 -0.4,0.6 -1,1 -1.7,1 -0.4,0 -0.7,-0.1 -1,-0.3 C 9.1,33.7 8.8,33.3 8.7,32.8 8.6,32.3 8.6,31.7 8.9,31.3 c 0.3,-0.6 0.9,-0.9 1.6,-1 L 4.2,19.7 c -0.4,0.5 -1,0.8 -1.6,0.8 -1.1,0 -2,-0.9 -2,-2 0,-1.1 0.9,-2 2,-2 0.7,0 1.3,0.3 1.6,0.8 L 8.9,9.1 7.1,5.9 1.3,16 C 0.6,16 0,16.6 0,17.3 v 2.4 C 0,20.4 0.6,21 1.3,21 l 6.5,11.2 c -0.3,0.6 -0.1,1.4 0.5,1.7 l 2.1,1.2 c 0.6,0.4 1.4,0.2 1.8,-0.4 h 11.6 z"
     id="path16"
     style="fill:#273839;fill-opacity:1" /><path
     class="st1"
     d="M 35.7,16 29.3,4.8 C 29.6,4.2 29.4,3.4 28.8,3.1 L 26.7,1.9 C 26.1,1.5 25.3,1.7 24.9,2.3 H 13.3 l 1.8,3.2 h 9.5 c 0,-0.1 -0.1,-0.2 -0.2,-0.3 -0.1,-0.5 -0.1,-1.1 0.2,-1.5 0.4,-0.6 1,-1 1.7,-1 0.4,0 0.7,0.1 1,0.3 1,0.6 1.3,1.8 0.7,2.7 -0.3,0.6 -0.9,0.9 -1.6,1 l 6.2,10.7 c 0.4,-0.5 1,-0.8 1.6,-0.8 1.1,0 2,0.9 2,2 0,1.1 -0.9,2 -2,2 -0.7,0 -1.3,-0.3 -1.6,-0.8 l -4.7,8.2 1.8,3.2 6,-10.2 C 36.4,21 37,20.4 37,19.7 V 17.3 C 37,16.6 36.4,16 35.7,16 Z"
     id="path18"
     style="fill:#273839;fill-opacity:1" /><circle
     class="st1"
     cx="2.5"
     cy="18.5"
     r="1.3"
     id="circle20"
     style="fill:#273839;fill-opacity:1" /><circle
     class="st1"
     cx="34.5"
     cy="18.5"
     r="1.3"
     id="circle22"
     style="fill:#273839;fill-opacity:1" /><circle
     class="st1"
     cx="10.5"
     cy="4.6999998"
     r="1.3"
     id="circle24"
     style="fill:#273839;fill-opacity:1" /><circle
     class="st1"
     cx="26.5"
     cy="32.299999"
     r="1.3"
     id="circle26"
     style="fill:#273839;fill-opacity:1" /><circle
     class="st1"
     cx="10.5"
     cy="32.299999"
     r="1.3"
     id="circle28"
     style="fill:#273839;fill-opacity:1" /><circle
     class="st1"
     cx="26.5"
     cy="4.6999998"
     r="1.3"
     id="circle30"
     style="fill:#273839;fill-opacity:1" /><path
     class="st1"
     d="m 9.7,8.9 0.9,1.6 c 0,0 0,0 0,0 l 10.9,18.9 c 0,0 0,0 0,0 l 0.9,1.5 h 1.7 c 0.5,0 1,-0.1 1.5,-0.4 0.5,-0.3 0.8,-0.7 1,-1.2 l 0.7,-1.2 -1,-1.6 c 0,0 0,0 0,0 L 19,13.7 l -1.7,1 c -0.6,0.4 -1.5,0.2 -1.9,-0.5 l -2,-3.4 C 13,10.2 13.2,9.3 13.9,8.9 l 1.7,-1 v 0 l -1,-1.8 H 13 c -0.4,0 -0.9,0.1 -1.3,0.3 -0.5,0.2 -0.9,0.6 -1.1,1.1 z"
     id="path32"
     style="fill:#273839;fill-opacity:1" /></g>
</g>
</svg>
