<?xml version="1.0" encoding="UTF-8" standalone="no"?>
<svg
   xmlns:dc="http://purl.org/dc/elements/1.1/"
   xmlns:cc="http://creativecommons.org/ns#"
   xmlns:rdf="http://www.w3.org/1999/02/22-rdf-syntax-ns#"
   xmlns:svg="http://www.w3.org/2000/svg"
   xmlns="http://www.w3.org/2000/svg"
   xmlns:sodipodi="http://sodipodi.sourceforge.net/DTD/sodipodi-0.dtd"
   xmlns:inkscape="http://www.inkscape.org/namespaces/inkscape"
   width="512"
   height="128"
   viewBox="0 0 135.46665 33.866667"
   version="1.1"
   id="svg8"
   inkscape:version="1.0.1 (3bc2e813f5, 2020-09-07)"
   sodipodi:docname="Kraber .50-cal Sniper Rifle.svg">
  <defs
     id="defs2" />
  <sodipodi:namedview
     id="base"
     pagecolor="#ffffff"
     bordercolor="#666666"
     borderopacity="1.0"
     inkscape:pageopacity="0.0"
     inkscape:pageshadow="2"
     inkscape:zoom="0.7"
     inkscape:cx="157.93772"
     inkscape:cy="111.86243"
     inkscape:document-units="mm"
     inkscape:current-layer="layer1"
     inkscape:document-rotation="0"
     showgrid="false"
     units="px"
     inkscape:window-width="1366"
     inkscape:window-height="705"
     inkscape:window-x="-8"
     inkscape:window-y="-8"
     inkscape:window-maximized="1" />
  <metadata
     id="metadata5">
    <rdf:RDF>
      <cc:Work
         rdf:about="">
        <dc:format>image/svg+xml</dc:format>
        <dc:type
           rdf:resource="http://purl.org/dc/dcmitype/StillImage" />
        <dc:title></dc:title>
      </cc:Work>
    </rdf:RDF>
  </metadata>
  <g
     inkscape:label="Layer 1"
     inkscape:groupmode="layer"
     id="layer1">
    <path
       style="fill:#273839;fill-opacity:1;stroke-width:0.202377"
       d="m 105.3249,29.518034 c -0.29094,-0.224101 -0.35416,-0.598533 -0.35416,-2.097693 0,-2.270126 0.11114,-2.396687 2.02693,-2.30818 0.83235,0.03845 1.42158,-0.02277 1.50409,-0.156284 0.0746,-0.120727 0.5369,-0.219503 1.02729,-0.219503 1.00298,0 1.38379,-0.4118 1.27252,-1.376054 -0.0858,-0.743235 -0.44456,-0.614338 -0.56902,0.204421 -0.0756,0.497042 -0.20373,0.66569 -0.50594,0.66569 -0.30838,0 -0.42885,-0.168648 -0.50595,-0.70832 l -0.10118,-0.70832 -1.77411,-0.05852 c -1.93826,-0.06394 -2.15271,0.05721 -1.78998,1.011272 0.16796,0.441759 0.11051,0.598906 -0.39649,1.084647 -0.57675,0.552567 -0.59291,0.622153 -0.59291,2.553952 v 1.98591 h -1.27231 -1.2723 l 0.0812,-2.607697 c 0.11047,-3.545407 0.19461,-3.46362 -3.562916,-3.46362 -3.300426,0 -3.68782,-0.15002 -3.68782,-1.428116 v -0.798033 h 1.315451 c 1.268227,0 1.315451,0.01816 1.315451,0.505943 v 0.505943 h 7.768244 7.76825 l 0.32684,-0.498822 c 0.25974,-0.396401 0.32685,-1.05482 0.32685,-3.20667 0,-3.430025 0.0341,-3.387994 -3.00407,-3.701261 l -2.15656,-0.222363 4.30052,-0.03061 c 3.70137,-0.02634 4.30051,0.01169 4.30051,0.272956 0,0.256345 0.51944,0.308289 3.33923,0.333923 1.83657,0.0167 3.44547,0.03946 3.57533,0.0506 0.12986,0.01113 0.27405,-0.0936 0.32043,-0.232733 0.0653,-0.195984 -0.71731,-0.252972 -3.47414,-0.252972 -1.95716,0 -3.55846,-0.08045 -3.55846,-0.178774 0,-0.33499 0.90846,-0.42283 4.4017,-0.425595 l 3.49101,-0.0028 v 0.505942 c 0,0.371025 0.10793,0.505943 0.40475,0.505943 0.29154,0 0.40476,0.134919 0.40476,0.48234 0,0.31214 -0.14283,0.519689 -0.40476,0.588185 -0.36318,0.09497 -0.40475,0.276046 -0.40475,1.762757 0,1.48671 0.0415,1.667783 0.40475,1.762756 0.56983,0.149014 0.56219,1.070524 -0.009,1.070524 -0.38401,0 -0.40937,0.10504 -0.35416,1.467235 l 0.0594,1.467235 h 0.8095 c 0.79204,0 0.81089,-0.01669 0.87316,-0.773038 0.035,-0.425171 -0.0302,-0.886109 -0.14487,-1.024305 -0.1286,-0.154949 -0.21691,-2.069563 -0.23039,-4.994712 l -0.0219,-4.743446 1.53278,-0.05911 1.53278,-0.05911 v 1.425154 c 0,1.385245 0.0142,1.425153 0.50595,1.425153 h 0.50594 v 3.743979 3.743979 h -0.60713 -0.60713 v 2.646377 2.646378 l -3.89577,-0.06607 c -4.95317,-0.084 -5.21121,-0.18273 -5.21121,-1.993848 v -1.209066 h -3.29624 -3.29623 l -0.99773,1.012954 c -0.97454,0.98941 -0.99957,1.045657 -1.07722,2.419895 -0.0696,1.23181 -0.14239,1.448149 -0.58473,1.73798 -0.58379,0.382514 -1.08087,0.115895 -0.57172,-0.306659 0.22786,-0.189103 0.31214,-0.648629 0.31214,-1.701788 v -1.442697 l 1.06248,-1.251683 1.06248,-1.251682 5.21122,-0.0129 5.21121,-0.0129 v -1.011879 -1.011886 h -3.23804 -3.23803 v 0.70832 0.708321 h -2.11516 -2.11515 l -1.21323,1.441312 c -0.66728,0.792721 -1.24088,1.635116 -1.27466,1.871989 -0.0565,0.396487 -0.20187,0.435318 -1.83036,0.489124 -1.66347,0.05496 -1.77599,0.08668 -1.88779,0.532083 -0.0654,0.260501 -0.089,0.735083 -0.0525,1.054629 0.0658,0.575935 0.0805,0.58187 1.68541,0.682179 1.25924,0.0787 1.61902,0.168647 1.61902,0.404755 0,0.42348 -3.87176,0.535176 -4.40171,0.126983 z m 19.47096,-2.743228 c 0.24717,-0.461839 0.10039,-0.947732 -0.33701,-1.115578 -0.42908,-0.164651 -0.8694,0.243191 -0.8694,0.805267 0,0.72903 0.86346,0.951129 1.20641,0.310311 z m 1.71151,0.267254 c 0.41087,-0.157664 0.42362,-1.210779 0.0165,-1.366985 -0.51656,-0.198223 -0.91069,0.09098 -0.91069,0.668239 0,0.78461 0.22077,0.957141 0.89414,0.698746 z m 2.02377,0 c 0.39362,-0.151045 0.4204,-0.958635 0.0422,-1.272511 -0.59785,-0.496169 -1.31596,0.281299 -0.92851,1.005257 0.22255,0.415825 0.37743,0.462527 0.8863,0.267254 z m -3.72743,-6.960362 c 0,-0.111308 -0.23815,-0.202377 -0.52922,-0.202377 -0.51596,0 -0.52103,-0.01249 -0.20237,-0.498823 0.43328,-0.661274 0.44904,-2.790608 0.0233,-3.143967 -0.16696,-0.138565 -0.30357,-0.377391 -0.30357,-0.530723 0,-0.153332 -0.0911,-0.278786 -0.20237,-0.278786 -0.31224,0 -0.23932,0.7293 0.10118,1.011886 0.19936,0.165459 0.30357,0.616996 0.30357,1.315452 0,0.698457 -0.10421,1.149994 -0.30357,1.315452 -0.16696,0.138566 -0.30356,0.468461 -0.30356,0.7331 0,0.414982 0.0974,0.481163 0.70832,0.481163 0.38957,0 0.70832,-0.09107 0.70832,-0.202377 z m -9.12358,-0.48593 c 0.15064,-0.181509 0.21418,-0.928032 0.17656,-2.074367 l -0.0587,-1.790813 h -0.80951 -0.80951 l -0.0591,1.817847 c -0.0499,1.535002 -0.005,1.857759 0.29165,2.074366 0.46026,0.336551 0.9761,0.32556 1.26873,-0.02703 z m -1.15557,-1.892002 c 0.0532,-1.413803 0.099,-1.568424 0.46386,-1.568424 0.36485,0 0.41058,0.154621 0.46386,1.568424 0.059,1.566932 0.0586,1.568423 -0.46386,1.568423 -0.52248,0 -0.52292,-0.0015 -0.46386,-1.568423 z m 4.49992,1.72577 c 0.44461,-0.634764 0.43129,-2.931495 -0.0199,-3.430042 -0.41652,-0.460252 -1.03559,-0.474563 -1.52113,-0.03516 -0.28756,0.260248 -0.37009,0.633787 -0.37009,1.675177 0,1.526475 0.3545,2.239814 1.11308,2.239814 0.26969,0 0.62212,-0.198636 0.79803,-0.449785 z m 3.84518,0 c 0.20092,-0.286865 0.31503,-0.893642 0.31503,-1.675176 0,-1.405197 -0.376,-2.124961 -1.11009,-2.124961 -0.84911,0 -1.11605,0.495809 -1.11605,2.072887 0,1.052997 0.0895,1.535714 0.33493,1.806939 0.45537,0.503184 1.19408,0.465836 1.57618,-0.07969 z m -15.99651,8.868829 c -0.0634,-0.165172 -0.0835,-0.465004 -0.0447,-0.666295 0.061,-0.316623 0.28845,-0.365981 1.68673,-0.365981 h 1.61624 v 0.607132 0.607132 l -1.57149,0.05916 c -1.24153,0.04674 -1.59568,-0.0039 -1.68673,-0.241151 z m 23.19237,-2.95486 v -2.226149 h 0.50594 0.50594 v -4.452298 -4.452299 h -0.50594 c -0.47835,0 -0.50594,-0.06071 -0.50594,-1.113075 0,-1.219459 0.002,-1.220448 1.32703,-0.886672 l 0.89912,0.226402 v 7.56512 7.565121 h -1.11308 -1.11307 z M 64.963685,23.775083 c -0.06932,-0.194789 -0.16291,-0.422463 -0.207969,-0.505944 -0.04506,-0.08348 0.834145,-0.151783 1.953788,-0.151783 h 2.035716 v 0.505943 c 0,0.502326 -0.01307,0.505943 -1.827745,0.505943 -1.557778,0 -1.846364,-0.05231 -1.95379,-0.354159 z m 5.683821,0.199277 c -0.21912,-0.14631 -0.688022,-0.926211 -0.688022,-1.144351 0,-0.06137 0.543822,-0.386101 1.208491,-0.721625 0.890598,-0.449572 1.49045,-0.610046 2.280361,-0.610046 0.809857,0 1.25387,-0.123673 1.816429,-0.505942 l 0.744561,-0.505943 h 5.038805 c 4.78178,0 5.057485,0.02064 5.405097,0.404754 0.297634,0.328887 0.623317,0.404754 1.737494,0.404754 1.267906,0 1.376076,0.03431 1.435868,0.455349 0.0589,0.414434 0.173783,0.455349 1.278935,0.455349 1.105159,0 1.220076,-0.04091 1.278935,-0.455349 0.0527,-0.371154 0.193035,-0.455349 0.758916,-0.455349 0.543898,0 0.694245,0.08218 0.694245,0.379458 0,0.208701 0.055,0.654563 0.122268,0.990804 0.09223,0.461138 0.01767,0.715978 -0.303562,1.037184 -0.422579,0.422571 -0.510794,0.425812 -11.505993,0.422737 -6.094084,-0.0017 -11.180356,-0.07 -11.302828,-0.151784 z m 14.250738,-2.324238 0.06402,-0.556538 H 81.60325 c -2.799101,0 -3.378436,0.05061 -3.475509,0.303566 -0.0641,0.166961 -0.06318,0.442436 0.0023,0.612166 0.10066,0.2623 0.612494,0.300254 3.411472,0.252972 l 3.292952,-0.05563 z M 61.864395,22.117106 V 20.68883 h 0.919944 0.919945 l -0.05985,1.366046 -0.05984,1.366046 -0.860104,0.06223 -0.860103,0.06223 z m -17.684078,0.739207 c -0.260862,-0.190747 -0.3394,-0.476862 -0.291652,-1.06248 0.06036,-0.740274 0.115541,-0.806277 0.723071,-0.864854 l 0.657727,-0.06342 v 1.125897 c 0,0.951324 -0.05676,1.125897 -0.366075,1.125897 -0.20134,0 -0.526722,-0.117469 -0.723071,-0.261043 z m 1.4939,-0.95322 v -1.011886 h 0.708321 0.70832 v 1.011886 1.011886 h -0.70832 -0.708321 z m 1.821395,0 c 0,-0.944427 0.03373,-1.011886 0.505943,-1.011886 0.472213,0 0.505944,0.06746 0.505944,1.011886 0,0.944427 -0.03373,1.011886 -0.505944,1.011886 -0.472213,0 -0.505943,-0.06745 -0.505943,-1.011886 z m 1.416641,-0.01407 c 0,-0.932552 0.0393,-1.020074 0.43163,-0.961292 0.366845,0.05497 0.43519,0.20898 0.455349,1.026119 0.02144,0.86921 -0.01997,0.961433 -0.43163,0.961292 -0.412314,-1.42e-4 -0.455349,-0.09712 -0.455349,-1.026119 z m 1.41664,0.01407 c 0,-0.876968 0.05397,-1.011886 0.404755,-1.011886 0.350786,0 0.404754,0.134918 0.404754,1.011886 0,0.876968 -0.05397,1.011886 -0.404754,1.011886 -0.350787,0 -0.404755,-0.134918 -0.404755,-1.011886 z m 1.214263,0 c 0,-0.944427 0.03373,-1.011886 0.505944,-1.011886 0.472213,0 0.505943,0.06746 0.505943,1.011886 0,0.944427 -0.03373,1.011886 -0.505943,1.011886 -0.472213,0 -0.505944,-0.06745 -0.505944,-1.011886 z m 1.416641,0 c 0,-0.876968 0.05397,-1.011886 0.404754,-1.011886 0.350787,0 0.404755,0.134918 0.404755,1.011886 0,0.876968 -0.05397,1.011886 -0.404755,1.011886 -0.350786,0 -0.404754,-0.134918 -0.404754,-1.011886 z m 1.416641,0 v -0.809509 h 3.440413 3.440412 v 0.809509 0.809509 h -3.440412 -3.440413 z m 9.916484,-2.934469 v -3.541602 h 2.084485 c 1.351431,0 2.16989,0.0854 2.327339,0.242853 0.374257,0.374258 0.314412,2.683855 -0.07798,3.009514 -0.323744,0.268683 -0.315646,1.1445 0.02279,2.463968 0.113177,0.44125 0.04392,0.637868 -0.336248,0.954558 -0.394421,0.328566 -0.790805,0.40003 -2.249585,0.405577 l -1.7708,0.0067 z m 34.624217,1.640364 c -0.154194,-0.185799 -0.214521,-1.032778 -0.17656,-2.47912 l 0.05767,-2.196903 2.471721,-0.05676 2.47172,-0.05676 0.058,1.979347 0.058,1.979347 2.22351,0.05793 c 2.72058,0.07087 2.73474,0.05885 2.73474,-2.322757 v -1.681527 h 1.8821 c 1.19403,0 1.9709,0.08879 2.12497,0.242853 0.33196,0.331967 0.33196,4.241759 0,4.573725 -0.38179,0.381784 -13.587349,0.3444 -13.905849,-0.03937 z m 2.402741,-0.821134 c 0.34227,-0.412411 0.17756,-1.021607 -0.27621,-1.021607 -0.55286,0 -0.87373,0.591957 -0.53931,0.994921 0.32954,0.397063 0.50342,0.402753 0.81552,0.02669 z m -0.66102,-0.240326 c -0.18886,-0.188868 0.0394,-0.477716 0.37747,-0.477716 0.1604,0 0.29162,0.136604 0.29162,0.303565 0,0.304828 -0.42721,0.416023 -0.66909,0.174151 z m 10.55837,0.185236 c 0.23446,-0.418961 -0.0546,-1.067706 -0.4758,-1.067706 -0.42531,0 -0.71369,0.629181 -0.4846,1.057254 0.24445,0.456759 0.70781,0.461802 0.9604,0.01046 z m -0.7823,-0.359387 c 0,-0.166961 0.13661,-0.303565 0.30357,-0.303565 0.16696,0 0.30356,0.136604 0.30356,0.303565 0,0.166962 -0.1366,0.303566 -0.30356,0.303566 -0.16696,0 -0.30357,-0.136604 -0.30357,-0.303566 z m -8.94081,-1.985223 c 0.10949,-0.568517 -0.33601,-0.9809 -0.79455,-0.735496 -0.4412,0.236121 -0.49302,0.607665 -0.13474,0.965945 0.33755,0.337552 0.8441,0.211936 0.92929,-0.230449 z m -0.75123,-0.01196 c -0.18042,-0.217397 -0.18414,-0.331181 -0.0142,-0.436173 0.33005,-0.203989 0.73953,0.24913 0.46932,0.519345 -0.14636,0.146354 -0.28571,0.120885 -0.45506,-0.08317 z m 10.49402,0.08865 c 0.15784,-0.294918 0.13124,-0.468568 -0.10852,-0.708321 -0.17469,-0.17469 -0.35014,-0.31762 -0.38989,-0.31762 -0.0398,0 -0.21521,0.14293 -0.38991,0.317621 -0.3662,0.366201 -0.10621,1.09902 0.38991,1.09902 0.15912,0 0.38341,-0.175815 0.49841,-0.3907 z m -0.67256,0.04791 c -0.24188,-0.241872 -0.13069,-0.669089 0.17415,-0.669089 0.16696,0 0.30356,0.13123 0.30356,0.291622 0,0.338101 -0.28885,0.566334 -0.47771,0.377467 z M 36.010705,20.456246 C 35.657949,20.274952 35.555356,20.046805 35.555356,19.443643 V 18.66506 l 4.300516,0.005 4.300516,0.005 0.873772,0.824509 c 0.480575,0.45348 0.822534,0.875747 0.75991,0.938372 -0.240378,0.240376 -9.314201,0.257249 -9.779365,0.01818 z m 14.615432,0.08122 -3.85149,-0.05945 -1.271439,-1.10886 -1.271436,-1.10886 h -4.616478 -4.616476 l -0.126485,-0.632428 c -0.06957,-0.347836 -0.126486,-0.985325 -0.126486,-1.416641 v -0.784211 h 9.499785 c 6.114889,0 9.544353,0.07211 9.624863,0.202377 0.06879,0.111307 0.575051,0.202377 1.125019,0.202377 h 0.999942 v 0.721625 c 0,1.307938 0.23892,1.504524 1.828515,1.504524 1.328713,0 1.409152,-0.02611 1.403084,-0.455349 -0.0035,-0.250441 -0.140146,-0.632126 -0.303565,-0.848189 -0.163422,-0.216061 -0.29713,-0.603108 -0.29713,-0.860103 0,-0.418875 0.09431,-0.467262 0.910697,-0.467262 h 0.910698 v 1.41664 1.41664 h 0.778142 c 1.07337,0 1.448007,-0.465915 1.448007,-1.800811 0,-0.984146 0.03283,-1.055957 0.455349,-0.99595 0.440697,0.06259 0.455348,0.136299 0.455348,2.290819 v 2.226149 l -0.945168,0.06102 c -0.519842,0.03356 -1.054644,0.192936 -1.188448,0.35416 -0.254803,0.307018 -0.180988,0.306052 -10.824848,0.141773 z m 4.145811,-2.164837 c 0.13348,-0.160834 0.212933,-0.502346 0.176562,-0.758914 -0.09112,-0.642782 -1.058838,-0.765975 -1.375091,-0.175051 -0.457759,0.855331 0.587675,1.669998 1.198529,0.933965 z m -0.800265,-0.517081 c 0,-0.260843 0.102486,-0.404323 0.252972,-0.354161 0.139135,0.04638 0.252972,0.20575 0.252972,0.354161 0,0.148409 -0.113837,0.307781 -0.252972,0.354159 -0.150486,0.05016 -0.252972,-0.09332 -0.252972,-0.354159 z M 52.75742,17.14723 v -1.113075 h -2.428527 c -2.793748,0 -2.897641,0.08671 -1.696658,1.416058 l 0.73187,0.810092 h 1.696657 1.696658 z m -3.509711,0.101189 -0.540956,-0.607132 h 1.822957 1.822956 v 0.607132 0.607132 h -1.281999 c -1.169314,0 -1.32955,-0.05337 -1.822958,-0.607132 z m 37.355843,3.130653 c -0.151479,-0.270682 -0.899503,-0.29652 -5.92959,-0.204812 -3.165927,0.05772 -7.122282,0.12881 -8.791894,0.157976 l -3.035659,0.05303 -0.0653,-0.569617 c -0.03591,-0.31329 0.08509,-0.799145 0.268904,-1.079678 0.249922,-0.38143 0.317427,-0.863088 0.267676,-1.909958 l -0.06653,-1.3999 2.377932,4.56e-4 2.377933,4.56e-4 0.0022,1.264857 c 0.0021,1.201779 0.0432,1.307751 0.824726,2.124961 l 0.822544,0.860103 h 4.92781 4.927806 l 0.822548,-0.860103 0.82254,-0.860104 0.0023,-2.782686 0.0023,-2.782687 h 6.412435 c 6.206634,0 6.426747,0.01345 6.858447,0.419012 0.42579,0.400014 0.65673,0.418068 5.09282,0.398159 3.71454,-0.01667 4.69311,0.03496 4.87767,0.257334 0.12698,0.153003 0.17095,0.338111 0.0977,0.41135 -0.0733,0.07324 -4.95285,0.133163 -10.843573,0.133163 H 88.946893 l -0.379867,0.455349 c -0.315892,0.378659 -0.379868,0.796191 -0.379868,2.479121 0,2.508257 0.245652,2.934469 1.691333,2.934469 0.512377,0 1.089732,0.0817 1.283012,0.181566 0.19328,0.09986 0.579091,0.275838 0.857358,0.391058 0.384151,0.159062 -0.185846,0.212788 -2.367879,0.223188 -2.379459,0.01134 -2.903638,-0.03959 -3.04717,-0.296062 z M 71.538026,19.434091 c 0.324466,-0.324465 0.324466,-3.237375 0,-3.561839 -0.34055,-0.34055 -1.085454,-0.302274 -1.462898,0.07517 -0.393425,0.393426 -0.451989,3.10985 -0.07517,3.48667 0.313061,0.313061 1.225005,0.313061 1.538066,0 z m -1.249218,-0.47132 c -0.06982,-0.181949 -0.126946,-0.821048 -0.126946,-1.42022 0,-0.862156 0.08,-1.132216 0.383502,-1.294647 0.61295,-0.328041 0.859264,0.183288 0.790281,1.64057 -0.0535,1.130091 -0.111768,1.289812 -0.490299,1.343821 -0.253383,0.03615 -0.481662,-0.0744 -0.556538,-0.269524 z m 27.509457,1.011302 c -0.305275,-0.2309 -1.076415,-0.29713 -3.459637,-0.29713 -3.776654,0 -3.736665,0.02562 -3.736665,-2.393867 v -1.653677 h 2.38349 c 1.811619,0 2.489542,-0.07427 2.825451,-0.309555 0.397552,-0.278454 0.518986,-0.2771 1.208703,0.01348 l 0.766741,0.323032 -0.505937,0.282917 c -0.35419,0.198055 -1.249555,0.285067 -2.985068,0.290088 -2.266607,0.0066 -2.992213,0.171728 -2.159003,0.491461 0.176063,0.06756 1.272533,0.122841 2.436589,0.122841 1.717095,0 2.266186,-0.07637 2.909857,-0.404755 0.436362,-0.222614 0.84255,-0.404754 0.902632,-0.404754 0.06012,0 0.109257,0.956233 0.109257,2.124961 0,1.168728 -0.0683,2.122065 -0.151785,2.118525 -0.08348,-0.0035 -0.328559,-0.140145 -0.544625,-0.303567 z m -5.982039,-1.803014 c 0,-0.605623 -0.09108,-1.157416 -0.202382,-1.226208 -0.126414,-0.07813 -0.202375,0.335194 -0.202375,1.101131 0,0.682553 0.08973,1.226207 0.202375,1.226207 0.111307,0 0.202382,-0.495509 0.202382,-1.10113 z m -2.903103,0.933412 c -0.511314,-0.564995 -0.484137,-4.08682 0.03518,-4.55678 0.330402,-0.299014 1.176837,-0.334932 7.892712,-0.334932 4.880155,0 7.522615,0.07109 7.522615,0.202377 0,0.128769 -1.61504,0.202378 -4.440352,0.202378 -2.74194,0 -4.4882,0.07741 -4.565439,0.202377 -0.07435,0.120307 -1.351278,0.202377 -3.148786,0.202377 H 89.18534 v 0.607131 c 0,0.472214 0.08994,0.607132 0.404757,0.607132 0.327656,0 0.404757,0.134918 0.404757,0.70832 0,0.573402 -0.0771,0.70832 -0.404757,0.70832 -0.312771,0 -0.404757,0.134919 -0.404757,0.59369 0,0.492618 0.09209,0.604591 0.54093,0.657726 0.297512,0.03522 0.578311,0.177874 0.623998,0.317008 0.132074,0.402212 -1.054661,0.305496 -1.437122,-0.117124 z m 15.131067,0.09818 c -0.0574,-0.14955 -0.0773,-0.946411 -0.0442,-1.7708 l 0.0601,-1.49889 h 2.12496 2.12496 l 0.0584,1.770801 0.0585,1.7708 h -2.13919 c -1.60413,0 -2.16529,-0.06801 -2.24353,-0.271911 z M 75.260992,18.200074 C 74.700526,17.62182 74.61416,17.391 74.61416,16.471355 v -1.061358 l 1.568424,0.05911 1.568426,0.05911 0.06639,0.708321 c 0.11634,1.240766 0.447278,1.41664 2.665674,1.41664 2.218396,0 2.549333,-0.175874 2.665673,-1.41664 l 0.06639,-0.708321 1.669617,-0.05878 1.669611,-0.05878 v 0.978999 c 0,0.86656 -0.08814,1.065067 -0.767445,1.728391 l -0.767453,0.749392 H 80.463625 75.907777 Z M 3.175,15.52821 v -2.327337 h 5.565374 5.565373 v 2.327337 2.327339 H 8.740374 3.175 Z m 4.4118238,0.870223 c 0.133569,-0.133569 0.2428527,-0.592336 0.2428527,-1.019481 v -0.776628 l -1.8719895,0.05819 c -1.791702,0.05569 -1.8748785,0.0786 -1.9393564,0.534121 -0.037051,0.261763 -0.012552,0.694344 0.054453,0.961292 0.1155038,0.460205 0.2034272,0.485359 1.6965038,0.485359 0.9549196,0 1.6702688,-0.09558 1.8175392,-0.242853 z m 5.0889342,-0.04749 c 0.132531,-0.15969 0.211984,-0.592271 0.176563,-0.961291 l -0.0644,-0.670947 H 10.966522 9.1451272 l -0.064855,0.676992 c -0.1121697,1.170915 -0.00704,1.245592 1.7539278,1.245592 1.143466,0 1.669409,-0.08292 1.841555,-0.290346 z m 48.176751,0.08797 c 0,-1.343314 0.02409,-1.41664 0.465467,-1.41664 0.669712,0 0.951174,0.375229 0.951174,1.268044 0,1.043598 -0.305878,1.565238 -0.917817,1.565238 -0.482672,0 -0.498824,-0.04587 -0.498824,-1.416642 z m -45.93963,-1.003972 c 0,-1.724044 0.06066,-2.247686 0.252971,-2.18393 0.407481,0.135086 0.458614,3.861162 0.05756,4.194011 -0.275974,0.229038 -0.310525,0.0054 -0.310525,-2.010081 z m 41.730183,1.975382 C 56.509494,17.27675 56.40021,16.780626 56.40021,16.30782 v -0.859645 l -1.06248,-0.06117 -1.062481,-0.06117 -0.06326,-0.766396 -0.06326,-0.766395 1.98584,0.05808 1.985842,0.05808 0.0591,1.449516 c 0.03928,0.963158 0.158105,1.53168 0.354159,1.694392 0.162282,0.134682 0.295058,0.324795 0.295058,0.422473 0,0.269366 -1.908018,0.212401 -2.185674,-0.06525 z M 78.46645,16.856967 c -0.369794,-0.690956 -0.241208,-0.822813 0.802385,-0.822813 1.066946,0 1.233845,0.196595 0.730172,0.860103 -0.363108,0.47833 -1.268394,0.456302 -1.532557,-0.03729 z m 3.268063,-0.165087 c 0.04582,-0.398483 0.193356,-0.574904 0.519391,-0.621207 0.560894,-0.07966 0.606489,0.371099 0.08525,0.842812 -0.523973,0.474192 -0.67819,0.417669 -0.604638,-0.221605 z M 15.924765,15.631461 v -1.418702 h 9.217411 9.21741 l -0.05984,1.366046 -0.05984,1.366046 -9.15757,0.05266 -9.157569,0.05266 z m 64.830551,0.899908 c -0.06593,-0.171762 -0.06915,-0.36302 -0.0069,-0.42502 0.177225,-0.177224 0.544403,0.12338 0.544403,0.445692 0,0.388332 -0.386041,0.373479 -0.53729,-0.02068 z m -2.458863,-1.863262 c 0.05936,-0.924995 0.08691,-0.963714 0.729583,-1.025467 0.48039,-0.04616 0.718355,-0.196886 0.847621,-0.536878 0.516798,-1.359289 1.216573,-0.708291 1.216573,1.131777 v 1.39186 h -1.427729 -1.427729 z m 3.198534,-0.06404 c 0,-0.999146 0.01423,-1.023694 0.556535,-0.961292 0.509661,0.05865 0.561735,0.145006 0.618222,1.025328 0.06096,0.950477 0.05477,0.961292 -0.556542,0.961292 -0.608026,0 -0.618215,-0.0169 -0.618215,-1.025328 z m 16.594931,0.70463 c -0.628511,-0.257242 0.101179,-0.27989 6.476072,-0.201002 4.12062,0.051 7.40015,0.175717 7.69033,0.292474 0.35363,0.142283 -1.59606,0.202797 -6.47607,0.201002 -5.59092,-0.0021 -7.123136,-0.06033 -7.690332,-0.292474 z M 34.782999,14.46573 c 0.03522,-0.306095 0.166075,-0.537702 0.29079,-0.514682 0.124715,0.02302 0.59454,-0.272957 1.044058,-0.657726 0.723264,-0.619088 0.949022,-0.699581 1.962106,-0.699581 1.65123,0 1.927702,0.204196 1.927702,1.423761 v 1.004766 h -2.644346 -2.644346 z m 4.010393,-0.66616 c 0,-1.234417 -0.693383,-1.31234 -1.588095,-0.178473 -0.662431,0.839501 -0.484315,1.120486 0.652938,1.030036 l 0.935157,-0.07438 z m 1.41664,0.02038 c 0,-0.739616 -0.09735,-1.265328 -0.252971,-1.366045 -0.139135,-0.09005 -0.844925,-0.2177 -1.568424,-0.283668 -0.723498,-0.06596 1.029594,-0.134269 3.895762,-0.151783 l 5.211213,-0.03184 v 1.517829 1.517829 h -3.64279 -3.64279 z m 3.403894,-0.669669 c -0.05249,-0.369625 -0.213437,-0.467525 -0.854888,-0.520026 -1.14674,-0.09386 -1.739497,0.101903 -1.739497,0.574476 0,0.358931 0.139181,0.400899 1.329527,0.400899 1.263013,0 1.326293,-0.02278 1.264858,-0.455349 z m 3.238036,0 c -0.05886,-0.414434 -0.173778,-0.455349 -1.278934,-0.455349 -1.105155,0 -1.220073,0.04091 -1.278932,0.455349 -0.0615,0.432983 0.0015,0.455349 1.278932,0.455349 1.27761,0 1.340428,-0.02237 1.278934,-0.455349 z m 1.048405,0.351783 v -1.520205 l 7.842117,0.05297 7.842117,0.05297 0.05993,1.490466 0.05993,1.490466 -0.768248,-0.133793 c -1.826345,-0.318064 -2.488456,-0.354097 -2.488456,-0.135425 0,0.129089 -0.382943,0.222755 -0.910698,0.222755 -0.899591,0 -0.910697,-0.0083 -0.910697,-0.68354 0,-1.037331 -0.297825,-1.159863 -2.660451,-1.094573 l -2.095414,0.05791 -0.06223,0.860103 -0.06223,0.860104 h -2.922833 -2.922833 z m 16.392555,0.0024 v -1.517828 h 0.910697 0.910698 v 1.126379 c 0,0.619508 0.09427,1.302532 0.209496,1.517829 0.195398,0.365101 0.134096,0.39145 -0.910697,0.39145 h -1.120194 z m 4.493646,0.151785 0.05984,-1.366047 2.580309,-0.05664 2.580311,-0.05664 v 1.422686 1.422687 h -2.640155 -2.64015 z m 5.827592,0.0506 v -1.315452 h 2.529715 c 1.55156,0 2.529717,0.07825 2.529717,0.202377 0,0.111307 -0.354542,0.202378 -0.78786,0.202378 -0.888435,0 -1.033535,0.201215 -1.033535,1.433191 v 0.792958 H 76.233178 74.61416 Z m 8.49984,0.44523 c 0,-1.044395 -0.265034,-1.355927 -1.153546,-1.355927 -0.367316,0 -0.667849,-0.09107 -0.667849,-0.202378 0,-0.12454 1.011889,-0.202377 2.630909,-0.202377 h 2.630902 v 1.315452 1.315452 H 84.834208 83.114 Z M 66.721319,14.313638 C 66.610082,14.021065 66.519071,13.1902 66.519071,12.46727 c 0,-1.190577 -0.06674,-1.40182 -0.70832,-2.242077 C 65.421175,9.7149445 65.10243,9.2353988 65.10243,9.1595003 c 0,-0.0759 0.229638,-0.3537305 0.510305,-0.6174034 l 0.510305,-0.4794065 1.114875,1.1010275 1.114876,1.1010271 -0.05675,2.226977 -0.05675,2.226977 -0.657856,0.06342 c -0.552079,0.05323 -0.690378,-0.0221 -0.860103,-0.468522 z m 0.97626,-0.572966 c 0.03873,-0.199698 -0.06451,-0.337389 -0.252972,-0.337389 -0.187731,0 -0.318404,0.173031 -0.318404,0.421619 0,0.493202 0.472909,0.423489 0.571376,-0.08423 z m 42.879681,-0.647315 c -0.21589,-0.296628 -0.5653,-0.499583 -0.8601,-0.499583 -0.63282,0 -0.66565,-0.5609 -0.0412,-0.703113 0.51747,-0.11784 6.7824,-0.899812 8.09291,-1.010136 0.47425,-0.03993 1.18103,-0.134063 1.5706,-0.209198 0.70822,-0.136589 0.70842,-0.136415 1.37029,1.208935 0.36409,0.740048 0.60916,1.43101 0.5446,1.535471 -0.0646,0.10446 -0.60242,0.189927 -1.19524,0.189927 -0.92639,0 -1.12444,-0.0711 -1.40936,-0.505943 -0.27383,-0.417915 -0.49296,-0.505943 -1.25948,-0.505943 -0.88878,0 -0.92261,0.02137 -0.80099,0.505943 l 0.12699,0.505943 -2.88774,-0.0063 c -2.83398,-0.0063 -2.8945,-0.01566 -3.25133,-0.505944 z m -10.26119,-0.803149 c -0.18933,-0.22812 -0.698452,-0.303566 -2.048553,-0.303566 -1.661701,0 -1.79662,-0.0304 -1.79662,-0.404754 0,-0.370774 0.134919,-0.404755 1.607073,-0.404755 0.883892,0 1.663361,-0.09107 1.732155,-0.202377 0.08288,-0.134094 -4.146631,-0.202377 -12.535443,-0.202377 -10.831214,0 -12.660522,-0.04173 -12.660522,-0.288801 0,-0.243304 0.884743,-0.288204 5.615967,-0.285002 7.026955,0.0047 7.133795,0.0018 7.133795,-0.198223 0,-0.090692 -0.341508,-0.334864 -0.758909,-0.5426044 L 85.846097,9.0800029 87.025076,8.9196528 c 0.953305,-0.1296573 1.277802,-0.095598 1.695272,0.1779372 0.349761,0.2291749 1.094497,0.3659335 2.308936,0.4239963 1.566625,0.074898 1.80973,0.041174 1.928189,-0.2675181 0.08665,-0.2258247 0.0143,-0.421079 -0.200623,-0.5413549 -0.268882,-0.1504738 -0.291691,-0.2712469 -0.11393,-0.6033891 0.543446,-1.0154347 -0.582518,-2.801166 -1.766224,-2.801166 -1.156843,0 -2.01349,1.1217162 -1.841175,2.4108685 l 0.09704,0.725978 h -4.071756 c -2.239469,0 -4.094535,-0.068305 -4.122361,-0.1517825 -0.02784,-0.083481 -0.05056,-0.8348059 -0.05056,-1.6696125 V 5.1057843 h 1.988501 c 1.859395,0 2.019356,-0.032844 2.463803,-0.5059436 0.409846,-0.4362575 0.651635,-0.5059428 1.755487,-0.5059428 1.237592,0 1.280174,0.017179 1.280174,0.516519 0,0.4959525 0.0423,0.5140835 1.062478,0.4553491 0.96582,-0.055607 1.058096,-0.1025963 1.014276,-0.5165197 -0.04421,-0.4177992 0.03503,-0.4553484 0.961291,-0.4553484 0.831979,0 1.009502,0.06318 1.009502,0.3592728 0,0.3262709 0.194978,0.3520545 2.122716,0.2806949 1.624849,-0.060143 2.314076,-0.00199 2.938571,0.2478596 0.448707,0.1795397 1.038468,0.3264361 1.310571,0.3264361 0.815266,0 1.126675,1.1107607 0.787232,2.8079834 -0.114221,0.5711306 -0.198825,0.6324289 -0.872831,0.6324289 -0.56452,0 -0.887564,0.1473982 -1.325999,0.6050206 -0.318806,0.3327617 -0.516783,0.6678818 -0.439957,0.7447108 0.07683,0.07683 0.885758,0.146082 1.797622,0.153894 l 1.657929,0.0142 0.75161,1.07368 c 0.63638,0.909063 0.78106,1.021064 0.94366,0.730501 0.21292,-0.380452 0.65011,-0.224746 0.65011,0.231536 0,0.416911 -2.0811,0.406676 -2.42852,-0.01194 z M 96.187238,8.0402508 c 0.01553,-0.9495195 0.0023,-1.0070982 -0.06119,-0.2640883 l -0.08114,0.950175 -0.833738,0.061711 c -0.460434,0.034076 -0.872771,0.1803252 -0.920913,0.3266219 -0.06555,0.1992447 0.15629,0.2494101 0.894975,0.202377 l 0.982135,-0.06253 0.01989,-1.2142634 z M 99.301083,6.977773 c -0.0023,-0.8259813 -0.06004,-1.0755765 -0.199277,-0.8601031 -0.222162,0.3437632 -0.26329,1.2248036 -0.07954,1.7036548 0.214139,0.5580264 0.282,0.3526993 0.278818,-0.8435517 z M 74.61416,11.581855 c 0,-0.391263 0.134919,-0.404755 4.047544,-0.404755 3.912628,0 4.047547,0.01349 4.047547,0.404755 0,0.391262 -0.134919,0.404754 -4.047547,0.404754 -3.912625,0 -4.047544,-0.01349 -4.047544,-0.404754 z m 8.49984,0.202377 c 0,-0.111307 0.182143,-0.202377 0.404757,-0.202377 0.222614,0 0.404757,-0.09107 0.404757,-0.202378 0,-0.111306 0.182136,-0.202377 0.40475,-0.202377 0.222621,0 0.404757,0.09107 0.404757,0.202377 0,0.111308 0.182143,0.202378 0.404757,0.202378 0.222613,0 0.404749,-0.09107 0.404749,-0.202378 0,-0.111306 0.136609,-0.202377 0.30357,-0.202377 0.16696,0 0.303562,0.09107 0.303562,0.202377 0,0.111308 0.182143,0.202378 0.404757,0.202378 0.222613,0 0.404757,-0.09107 0.404757,-0.202378 0,-0.111306 0.227669,-0.202377 0.505944,-0.202377 0.371018,0 0.505937,0.107935 0.505937,0.404755 0,0.382268 -0.134919,0.404754 -2.428527,0.404754 -1.484094,0 -2.428527,-0.0787 -2.428527,-0.202377 z m 5.464185,-0.202377 c 0,-0.350787 0.134919,-0.404755 1.011889,-0.404755 0.87697,0 1.011889,0.05397 1.011889,0.404755 0,0.350787 -0.134919,0.404754 -1.011889,0.404754 -0.87697,0 -1.011889,-0.05396 -1.011889,-0.404754 z m 2.630909,0 c 0,-0.382268 0.134919,-0.404755 2.428527,-0.404755 2.293608,0 2.428527,0.02249 2.428527,0.404755 0,0.382268 -0.134919,0.404754 -2.428527,0.404754 -2.293608,0 -2.428527,-0.02249 -2.428527,-0.404754 z M 78.747035,8.2742858 c -0.05737,-0.1495513 -0.0773,-0.946411 -0.04421,-1.7708006 l 0.06012,-1.4988898 0.657729,-0.063417 0.657721,-0.063417 V 6.711979 8.5461959 h -0.61348 c -0.337416,0 -0.660437,-0.1223603 -0.717827,-0.2719101 z m 11.24798,-0.132658 c -0.562998,-0.5630005 -0.460747,-1.3612997 0.2412,-1.8830261 0.51084,-0.3796823 0.576391,-0.3844407 1.047135,-0.075999 0.722362,0.4733096 0.858498,1.0896872 0.382147,1.7301896 -0.509624,0.68523 -1.129215,0.7701068 -1.670482,0.2288355 z"
       id="path943" />
  </g>
</svg>
