<?xml version="1.0" encoding="UTF-8" standalone="no"?>
<svg
   xmlns:dc="http://purl.org/dc/elements/1.1/"
   xmlns:cc="http://creativecommons.org/ns#"
   xmlns:rdf="http://www.w3.org/1999/02/22-rdf-syntax-ns#"
   xmlns:svg="http://www.w3.org/2000/svg"
   xmlns="http://www.w3.org/2000/svg"
   xmlns:sodipodi="http://sodipodi.sourceforge.net/DTD/sodipodi-0.dtd"
   xmlns:inkscape="http://www.inkscape.org/namespaces/inkscape"
   width="297.289"
   height="128"
   viewBox="0 0 78.657705 33.866667"
   version="1.1"
   id="svg8"
   inkscape:version="1.0.1 (3bc2e813f5, 2020-09-07)"
   sodipodi:docname="L-STAR EMG.svg">
  <defs
     id="defs2" />
  <sodipodi:namedview
     id="base"
     pagecolor="#ffffff"
     bordercolor="#666666"
     borderopacity="1.0"
     inkscape:pageopacity="0.0"
     inkscape:pageshadow="2"
     inkscape:zoom="0.98994949"
     inkscape:cx="201.34601"
     inkscape:cy="76.021689"
     inkscape:document-units="mm"
     inkscape:current-layer="layer1"
     inkscape:document-rotation="0"
     showgrid="false"
     units="px"
     inkscape:window-width="1366"
     inkscape:window-height="705"
     inkscape:window-x="-8"
     inkscape:window-y="-8"
     inkscape:window-maximized="1" />
  <metadata
     id="metadata5">
    <rdf:RDF>
      <cc:Work
         rdf:about="">
        <dc:format>image/svg+xml</dc:format>
        <dc:type
           rdf:resource="http://purl.org/dc/dcmitype/StillImage" />
        <dc:title></dc:title>
      </cc:Work>
    </rdf:RDF>
  </metadata>
  <g
     inkscape:label="Layer 1"
     inkscape:groupmode="layer"
     id="layer1">
    <path
       style="fill:#273839;stroke-width:0.16677;fill-opacity:1"
       d="m 3.8763616,30.380189 c -0.589368,-0.376577 -0.7973585,-0.712078 -0.6612828,-1.066686 0.1370141,-0.357053 0.2129788,-0.341267 1.1171639,0.232151 0.8287444,0.525573 0.9036337,0.650297 0.5829919,0.970939 -0.2634284,0.263428 -0.4518213,0.238694 -1.038873,-0.136404 z m 40.9513224,-0.07231 c 0.05742,-0.05815 1.633402,-1.155901 3.502173,-2.439459 2.288052,-1.571539 3.42733,-2.454305 3.488284,-2.70289 0.08414,-0.343121 0.198778,-0.37253 1.626009,-0.4171 l 1.535491,-0.04795 v 0.716609 c 0,0.535994 0.08407,0.769107 0.333541,0.924907 0.314161,0.196196 0.33354,0.166552 0.33354,-0.510227 0,-0.395188 -0.09177,-0.810298 -0.20394,-0.922464 -0.160742,-0.160741 0.466298,-0.194302 2.960172,-0.158431 l 3.164111,0.04551 0.05175,0.625388 0.05175,0.625388 h 1.470441 c 1.103618,0 1.522243,0.06241 1.678057,0.250155 0.361862,0.436016 0.500315,0.274492 0.500315,-0.583695 v -0.833852 h 3.085244 3.085254 l -0.0022,0.792159 c -0.0045,1.399515 0.774478,1.290114 -9.341369,1.311909 l -9.022555,0.01944 -2.365598,1.648264 -2.365599,1.648261 -1.834472,0.0569 c -1.008959,0.03129 -1.787487,0.0093 -1.730064,-0.04882 z m -2.355806,-0.228267 c -0.762957,-0.345728 -1.241514,-0.89637 -2.274542,-2.617152 -1.131055,-1.884075 -1.151456,-1.906104 -1.769635,-1.91083 -0.343963,-0.0026 -0.625388,-0.07983 -0.625388,-0.171553 0,-0.09925 -0.62926,-0.16677 -1.554241,-0.16677 -1.450008,0 -1.578554,0.02796 -1.916754,0.416925 l -0.362513,0.416926 -5.546212,-6.72e-4 c -6.529903,-7.15e-4 -6.045687,0.133598 -7.577518,-2.102522 -1.994145,-2.910989 -2.048277,-2.93521 -6.40908,-2.867429 l -3.270513,0.05088 0.249547,-0.380438 c 0.340863,-0.519648 0.10107,-0.701987 -0.254069,-0.193196 -0.156197,0.223775 -0.519501,0.632003 -0.80734,0.907175 -0.287838,0.27517 -0.5712258,0.638182 -0.6297483,0.806694 C 9.6253677,22.551282 9.5793908,22.541995 9.1047044,22.142572 8.8226846,21.905268 8.480073,21.71111 8.3433433,21.71111 c -0.3417928,0 -0.1565649,-0.53431 0.5484605,-1.58209 0.3077689,-0.457394 0.560605,-1.020244 0.5618572,-1.250776 0.00543,-1.000397 0.1486687,-1.169618 0.99,-1.169618 0.942118,0 1.043106,-0.07614 0.802208,-0.604857 -0.137117,-0.300939 -0.134254,-0.455001 0.01115,-0.600412 0.24456,-0.24456 0.262463,-2.694207 0.02296,-3.141719 -0.144396,-0.269806 -0.117115,-0.322577 0.166769,-0.322577 0.186675,0 0.339409,-0.07505 0.339409,-0.16677 0,-0.09172 -0.366044,-0.16677 -0.813431,-0.16677 -1.0821546,0 -1.214147,-0.193797 -1.1537367,-1.693968 l 0.04931,-1.22451 0.6031937,-0.050441 c 0.59377,-0.049651 0.604821,-0.063978 0.707324,-0.9172355 0.05727,-0.4767399 0.104782,-1.1845806 0.105579,-1.5729798 0.0011,-0.5495588 0.158646,-0.9445825 0.710223,-1.7810941 0.657724,-0.9974916 0.753817,-1.0757549 1.334161,-1.0865989 0.343964,-0.00643 0.625863,0.044601 0.626443,0.113392 5.6e-4,0.068793 0.225719,0.2529185 0.50031,0.4091692 0.274591,0.15625 0.499256,0.4001513 0.499256,0.5420032 0,0.2301138 1.194229,0.2579112 11.080374,0.2579112 7.517027,0 11.114974,0.055985 11.187959,0.1740759 0.05917,0.095741 0.01688,0.2833583 -0.09396,0.4169253 -0.172742,0.2081412 -1.77835,0.2428499 -11.234177,0.2428499 H 14.862361 L 14.31612,7.0339272 c -0.502878,0.4593094 -0.542235,0.5685287 -0.495784,1.3758544 l 0.05046,0.8769393 11.578339,0.1356119 c 11.254208,0.131815 11.59035,0.126683 12.007453,-0.1833378 0.631068,-0.469057 0.678474,-1.4284827 0.100395,-2.0318675 -0.348984,-0.364256 -0.391525,-0.4895823 -0.215718,-0.6354908 0.147581,-0.1224792 2.218508,-0.1927779 6.350246,-0.2155612 5.335629,-0.029423 6.157458,-6.328e-4 6.333214,0.2217477 0.111083,0.1405559 1.308066,0.6177287 2.659965,1.0603837 2.363025,0.7737313 2.477801,0.8324039 2.970534,1.5185214 l 0.512534,0.7136928 H 55.18865 c -0.60272,0 -1.103555,-0.094126 -1.302832,-0.2448519 -0.372042,-0.2813987 -1.172127,-0.3349791 -1.324343,-0.088689 -0.06176,0.099942 -1.172778,0.1667702 -2.772514,0.1667702 -1.513129,0 -2.808521,0.074432 -2.990515,0.1718322 -0.235856,0.1262264 -0.452059,0.1040946 -0.814605,-0.083386 -0.635606,-0.3286845 -2.016365,-0.3270173 -2.808545,0.00342 -0.72014,0.3003624 -1.671636,1.1599364 -1.882837,1.7009424 l -0.146486,0.375234 -5.966161,0.0037 c -6.487698,0.004 -6.37459,-0.0117 -6.869746,0.95522 L 28.11791,13.205847 H 20.77719 13.43647 L 13.550712,11.7466 c 0.06284,-0.802581 0.147967,-1.496762 0.189183,-1.542624 0.04122,-0.04586 0.53781,-0.128226 1.10354,-0.183032 l 1.0286,-0.099648 -1.000621,-0.020127 c -1.4526,-0.029216 -1.58317,0.120449 -1.58962,1.822123 -0.0036,0.965135 -0.08126,1.499582 -0.250155,1.722884 -0.148017,0.195695 -0.244852,0.695351 -0.244852,1.263398 0,0.766604 0.07109,1.006463 0.385981,1.302287 0.366159,0.343988 0.536953,0.362611 3.325562,0.362611 1.616768,0 2.982,0.06864 3.033845,0.152526 0.05185,0.08389 0.0055,0.182127 -0.103069,0.218305 -0.415769,0.13859 0.0785,0.46302 0.705412,0.46302 0.473031,0 0.657238,-0.07011 0.657238,-0.250156 0,-0.281867 0.275157,-0.341921 0.362739,-0.07917 0.0379,0.113688 2.732618,0.169869 8.041528,0.167653 7.238322,-0.003 8.003416,-0.02916 8.18657,-0.279634 0.142313,-0.194624 0.237122,-0.219534 0.32072,-0.08427 0.06528,0.105619 0.451966,0.192034 0.859309,0.192034 0.424394,0 0.740623,0.0778 0.740623,0.182205 0,0.116603 -0.33033,0.161637 -0.917463,0.125077 -0.897077,-0.05586 -1.18037,0.05628 -0.653214,0.258571 0.145088,0.05568 0.858029,0.101227 1.584317,0.101227 0.769167,0 1.320521,0.06963 1.320521,0.166771 0,0.106608 -1.462736,0.16677 -4.054668,0.16677 H 32.52807 l -0.479328,0.500311 c -0.440745,0.46004 -0.570782,0.500311 -1.615518,0.500311 -1.074409,0 -1.136189,-0.02085 -1.136189,-0.383572 0,-0.630563 -0.314371,-0.78382 -1.607829,-0.78382 -1.315572,0 -1.475737,0.09948 -1.476781,0.917236 l -6.72e-4,0.50031 -1.125699,0.04931 -1.125699,0.04931 v -0.684538 c 0,-0.425684 -0.06474,-0.644533 -0.171192,-0.57874 -0.09416,0.05819 -0.160312,0.193953 -0.147012,0.301691 0.06516,0.527609 -0.04131,0.612812 -0.765774,0.612812 -0.999537,0 -0.965202,0.301486 0.04169,0.366096 0.684483,0.04392 0.799633,0.103598 0.847151,0.439048 0.03025,0.21352 0.611858,1.17049 1.292468,2.126599 0.680613,0.95611 1.237477,1.778701 1.237477,1.82798 0,0.04928 -0.652866,0.06792 -1.450812,0.04141 L 23.393518,23.628975 21.581821,21.2525 19.770125,18.876025 h -4.358888 c -3.390246,0 -4.314415,0.04448 -4.158763,0.200124 0.110068,0.110069 0.202406,0.35397 0.205195,0.542003 0.0046,0.312274 0.01979,0.316607 0.175057,0.05003 0.153749,-0.26397 0.520807,-0.291849 3.842555,-0.291849 3.338699,0 3.648745,0.02383 3.410501,0.262068 -0.314533,0.314533 -0.325682,0.441459 -0.06194,0.705199 0.532,0.532001 1.214392,-0.03294 0.814071,-0.673964 -0.116176,-0.186027 -0.131352,-0.30353 -0.03484,-0.269756 0.09405,0.03291 0.919253,1.110491 1.833791,2.394621 1.287493,1.807807 1.609366,2.364884 1.426067,2.468147 -0.309923,0.174599 -0.302667,0.688307 0.01342,0.950642 0.50626,0.420158 1.025379,-0.492229 0.550341,-0.967267 -0.155652,-0.155652 0.882029,-0.200124 4.669565,-0.200124 3.135279,0 4.869689,0.05939 4.869689,0.16677 0,0.09172 -0.07505,0.16677 -0.16677,0.16677 -0.232242,0 -0.208987,0.558156 0.03335,0.800497 0.264831,0.264831 0.390577,0.25268 0.712072,-0.06882 0.238891,-0.238892 0.241542,-0.310753 0.02372,-0.643193 l -0.245221,-0.374254 2.281283,-0.0264 c 2.541994,-0.02941 2.505658,-0.01331 3.127974,-1.386908 0.362447,-0.800008 0.209074,-1.389363 -0.450303,-1.73034 l -0.516015,-0.266843 0.466247,-0.486657 c 0.461349,-0.481542 0.486081,-0.486657 2.352905,-0.486657 1.799706,0 2.074581,0.06728 1.737455,0.425264 -0.08206,0.08714 -0.198355,0.392147 -0.258434,0.677799 -0.08685,0.412941 -0.02118,0.624018 0.320479,1.030055 0.236342,0.280876 0.656079,0.560402 0.932751,0.62117 0.306678,0.06736 0.909657,0.523153 1.544733,1.167671 0.630972,0.640354 1.236351,1.098703 1.535389,1.162483 0.271531,0.05791 0.606262,0.163327 0.743848,0.234249 0.280857,0.144779 1.599946,1.982652 1.488892,2.074463 -0.03923,0.03244 -1.094466,0.74622 -2.344947,1.586176 -1.923403,1.29196 -2.372931,1.525386 -2.918478,1.515469 -0.354681,-0.0064 -0.757447,-0.06273 -0.895032,-0.125078 z m 2.468199,-1.897797 c 0.110068,-0.110068 0.200124,-0.357721 0.200124,-0.550341 0,-0.192619 -0.09006,-0.440273 -0.200124,-0.550342 -0.443179,-0.443178 -1.300808,-0.121175 -1.300808,0.488399 0,0.637649 0.867239,1.045854 1.300808,0.612284 z M 44.036182,27.80623 c -0.127257,-0.33163 0.06127,-0.591681 0.428938,-0.591681 0.373123,0 0.551357,0.390555 0.295155,0.646758 -0.260381,0.260381 -0.613342,0.233535 -0.724093,-0.05508 z m -2.733493,-4.842154 c 0.522791,-0.629924 -0.45445,-1.607167 -1.084374,-1.084375 -0.29863,0.247841 -0.32433,0.855774 -0.04786,1.132239 0.276465,0.276465 0.884399,0.250766 1.132239,-0.04786 z M 40.33221,22.516635 c 0.07112,-0.502085 0.722122,-0.551706 0.722122,-0.05504 0,0.22236 -0.129528,0.351887 -0.388582,0.388581 -0.323335,0.0458 -0.379338,-0.01021 -0.33354,-0.333542 z M 10.86893,19.709886 c 0,-0.32583 -0.09555,-0.428006 -0.437313,-0.467639 -0.5047067,-0.05853 -0.7671644,0.371689 -0.4557011,0.74698 0.3198761,0.385426 0.8930141,0.206145 0.8930141,-0.279341 z m 6.253881,-2.442322 c -1.397389,-0.123221 -3.002584,-0.132598 -3.002238,-0.01753 2.06e-4,0.06879 0.807126,0.112462 1.793155,0.09704 0.986028,-0.01542 1.530116,-0.0512 1.209083,-0.07951 z M 13.506934,17.099677 C 13.6977,16.90891 12.77182,16.541252 12.100643,16.541252 c -0.536837,0 -0.648017,0.05723 -0.648017,0.333541 0,0.295421 0.11118,0.33354 0.972826,0.33354 0.535054,0 1.021721,-0.04889 1.081482,-0.108656 z m 3.330119,-0.347623 c -0.4782,-0.03357 -1.303712,-0.03388 -1.834471,-6.72e-4 -0.530761,0.0332 -0.139506,0.06066 0.869453,0.06104 1.00896,3.83e-4 1.443218,-0.02678 0.965018,-0.06036 z m 3.080692,-5.795538 c -0.20722,-0.319898 -0.431123,-0.58256 -0.497561,-0.583695 -0.114111,-0.002 -0.62967,0.877138 -0.62967,1.073659 0,0.05042 0.338399,0.09167 0.751998,0.09167 h 0.752 z M 4.8672381,29.63052 C 4.5931865,29.406603 4.1429069,29.133686 3.866617,29.024039 3.5903271,28.914392 3.3438888,28.810995 3.3189751,28.794269 c -0.1119158,-0.07514 2.6630456,-4.558495 2.8708174,-4.638224 0.1283178,-0.04924 0.5395544,-0.540498 0.9138588,-1.091685 0.6449601,-0.949747 0.7045242,-0.993633 1.13891,-0.839147 0.2520957,0.08966 0.6228802,0.292092 0.8239649,0.449853 L 9.432135,22.961904 8.8117715,23.986217 8.191408,25.010529 7.4905212,24.596612 C 7.1050334,24.368958 6.694347,24.216237 6.5778848,24.257233 c -0.1164622,0.04099 0.05091,0.192998 0.3719461,0.337783 0.3210325,0.144785 0.7677683,0.411215 0.9927457,0.592068 0.372572,0.299501 0.3902193,0.3711 0.1978983,0.802908 -0.2813971,0.631807 -2.54253,4.061278 -2.6726668,4.053647 -0.056262,-0.0033 -0.3265183,-0.189202 -0.60057,-0.413119 z M 71.865125,26.943514 c -0.236569,-0.10248 -0.286853,-1.681937 -0.0647,-2.032242 0.09178,-0.144722 0.415113,-0.201106 0.956377,-0.166769 l 0.817717,0.05187 0.04967,1.042313 c 0.04452,0.934383 0.01646,1.042314 -0.271005,1.042314 -0.176361,0 -0.536408,0.03439 -0.800121,0.07641 -0.263701,0.04202 -0.573268,0.03577 -0.687921,-0.01389 z M 48.171582,25.858482 c -0.712245,-1.001418 -0.716774,-1.016571 -0.375233,-1.255798 0.320499,-0.224484 0.345715,-0.404995 0.345715,-2.474788 0,-2.11921 -0.02043,-2.256413 -0.402228,-2.700558 -0.382661,-0.445157 -0.482646,-0.470662 -2.055434,-0.524326 l -1.653208,-0.05641 0.07484,-0.90252 0.07484,-0.902521 h -1.271427 -1.271428 v -0.739187 -0.739189 l 0.814288,0.547975 c 0.447857,0.301387 1.118247,0.59658 1.489751,0.655986 0.478828,0.07657 0.70716,0.207878 0.784344,0.451065 0.161092,0.507553 0.995812,0.387796 1.001847,-0.143735 0.0024,-0.211206 0.114968,-0.453958 0.250156,-0.539449 0.135187,-0.08549 1.465301,-0.156588 2.955809,-0.157992 2.578941,-0.0025 2.710015,0.01322 2.710015,0.323491 0,0.43575 2.352821,2.221935 3.391163,2.574461 0.581919,0.197567 1.42458,0.268127 3.202091,0.268127 h 2.412336 v 2.501553 2.501552 h -1.585726 c -1.500839,0 -1.575423,-0.01651 -1.393153,-0.30837 0.241435,-0.386599 0.06946,-1.121401 -0.295198,-1.261334 -0.60464,-0.232022 -1.425483,0.825032 -0.895177,1.152778 0.511502,0.316127 -0.05298,0.416926 -2.334783,0.416926 -2.047097,0 -2.501553,0.04293 -2.501553,0.236274 0,0.182813 -2.494175,2.11392 -2.704658,2.094072 -0.02588,-0.0025 -0.371476,-0.460578 -0.767997,-1.018085 z m 2.830866,-0.770258 c 0.134066,-0.160516 0.331704,-0.498225 0.439198,-0.750466 0.187004,-0.438819 0.246496,-0.458618 1.378006,-0.458618 1.119016,0 1.179702,-0.01947 1.129274,-0.362284 -0.04173,-0.28368 -0.442271,-0.535073 -1.84607,-1.15865 l -1.79278,-0.796366 v 1.270597 c 0,0.968832 -0.06829,1.346059 -0.287555,1.58834 -0.274114,0.302892 -0.268268,0.332562 0.125078,0.634812 0.510448,0.392228 0.55315,0.393857 0.854849,0.03264 z M 50.315737,24.88326 c -0.185084,-0.114389 -0.173413,-0.193111 0.0638,-0.430324 0.228915,-0.228915 0.278729,-0.514389 0.23551,-1.349646 -0.03015,-0.582626 -0.01588,-1.059164 0.03173,-1.058972 0.0476,1.67e-4 0.647971,0.234445 1.334161,0.52056 2.073021,0.864372 2.194655,1.147492 0.492983,1.147492 -1.171363,0 -1.171577,8.6e-5 -1.272806,0.506234 -0.112273,0.561359 -0.536825,0.880072 -0.885376,0.664656 z m 3.663283,-4.067206 v -1.562156 l -0.672923,-0.445319 c -0.748401,-0.495269 -0.673797,-0.516654 -2.104224,0.603219 -1.384757,1.084123 -1.321704,1.234486 0.915712,2.183688 0.977927,0.414876 1.796812,0.760711 1.819742,0.768522 0.02293,0.0078 0.04169,-0.688769 0.04169,-1.547954 z m -2.033318,0.333942 c -0.705568,-0.292291 -1.329294,-0.577876 -1.386054,-0.634637 -0.05676,-0.05676 0.361363,-0.460674 0.929161,-0.897586 l 1.032363,-0.794385 0.562154,0.30274 c 0.554092,0.298398 0.562154,0.319106 0.562154,1.44387 0,0.809643 -0.06055,1.136817 -0.208463,1.126282 -0.114655,-0.0082 -0.785746,-0.253994 -1.491315,-0.546284 z m 5.668908,-0.139303 c 0.539079,-0.539081 -0.06566,-1.450649 -0.806409,-1.215546 -0.406505,0.12902 -0.603108,0.833584 -0.325831,1.167682 0.247841,0.29863 0.855775,0.324329 1.13224,0.04787 z m -0.790337,-0.127137 c -0.318549,-0.196874 -0.139302,-0.756745 0.24228,-0.756745 0.210596,0 0.349653,0.128947 0.381765,0.354006 0.05511,0.386104 -0.290298,0.609007 -0.624045,0.402739 z m -5.555268,-2.307668 c 0.389825,-0.315636 0.708298,-0.621127 0.707719,-0.678871 -0.003,-0.299901 -1.109148,-0.688684 -1.959388,-0.688684 h -0.932792 l 0.341771,0.375233 c 0.458853,0.503779 0.716991,1.028745 0.716991,1.458118 0,0.408459 0.09398,0.369573 1.125699,-0.465796 z m -1.1463,-0.45575 -0.270757,-0.578265 h 0.625569 c 0.344064,0 0.712916,0.105246 0.819672,0.233878 0.154811,0.186537 0.09466,0.304689 -0.297173,0.583696 -0.270201,0.1924 -0.517211,0.347374 -0.548914,0.344387 -0.0317,-0.003 -0.179481,-0.26565 -0.328397,-0.583696 z m 23.868738,3.374188 v -5.119844 h 0.524256 0.524255 l -0.09916,1.125699 c -0.05455,0.619134 -0.225682,2.851771 -0.380303,4.961413 -0.154627,2.109642 -0.345912,3.907008 -0.425088,3.994145 -0.08108,0.08923 -0.143958,-2.077897 -0.143958,-4.961413 z M 61.885794,25.29706 c -0.203567,-0.811065 -0.03024,-0.917609 1.492662,-0.917609 1.542644,0 1.762782,0.143577 1.409382,0.919212 -0.177974,0.390596 -0.265611,0.414949 -1.493284,0.414949 -1.251765,0 -1.308416,-0.01676 -1.40876,-0.416552 z m 2.76652,-0.08376 c 0.171618,-0.320677 0.126822,-0.333541 -1.161529,-0.333541 -1.005508,0 -1.34003,0.05552 -1.34003,0.22236 0,0.379113 0.187758,0.444722 1.272704,0.444722 0.879666,0 1.079358,-0.0542 1.228855,-0.333541 z m -3.535303,-3.08739 c -0.04357,-2.098811 -0.01702,-2.406574 0.199893,-2.316916 0.300434,0.12417 2.243978,0.103604 3.46049,-0.03662 l 0.875539,-0.100923 v 2.353999 c 0,2.218959 -0.01859,2.353998 -0.323697,2.353998 -0.178035,0 -0.370082,-0.07505 -0.426773,-0.16677 -0.167994,-0.271828 -2.801364,-0.207135 -3.178453,0.07808 -0.178041,0.134667 -0.376153,0.247237 -0.440231,0.250155 -0.06408,0.0029 -0.139125,-1.083836 -0.166768,-2.415006 z m 6.318668,2.29599 -1.469265,-0.05573 0.028,-2.203065 c 0.0154,-1.211686 -0.01865,-2.315636 -0.0756,-2.453221 -0.08859,-0.213967 0.156105,-0.247265 1.691457,-0.230178 l 1.795023,0.01998 -1.612171,-0.103426 c -2.462839,-0.157999 -2.151832,-0.354727 0.542065,-0.342883 1.609308,0.0071 2.280144,0.06047 2.028852,0.161465 -0.206479,0.08299 -0.506666,0.108679 -0.667077,0.05708 -0.237947,-0.07653 -0.247036,-0.06221 -0.04934,0.07775 0.250703,0.177518 1.040414,0.09121 1.550473,-0.169459 0.27157,-0.138784 0.291669,0.02218 0.289295,2.316581 -0.0011,1.35615 -0.05768,2.549842 -0.125075,2.652649 -0.138493,0.211283 -1.3733,0.39683 -1.3733,0.206358 0,-0.06789 0.07505,-0.169822 0.166768,-0.22651 0.303625,-0.187652 0.173079,-0.738642 -0.238966,-1.00863 -0.325488,-0.213264 -0.477841,-0.227268 -0.770227,-0.07079 -0.306935,0.16427 -0.3507,0.297773 -0.277204,0.845703 0.04799,0.357854 0.07565,0.635209 0.06146,0.616348 -0.01417,-0.01886 -0.686997,-0.05937 -1.495093,-0.09002 z m 2.624752,-3.473152 c 0.503714,-0.503715 0.213899,-1.238864 -0.488398,-1.238864 -0.447024,0 -0.75047,0.303445 -0.75047,0.750466 0,0.702294 0.735154,0.992113 1.238868,0.488398 z m -0.869429,-0.278376 c -0.245686,-0.296034 0.008,-0.675084 0.401012,-0.59938 0.383529,0.07386 0.422473,0.697354 0.04811,0.769458 -0.146025,0.02812 -0.348113,-0.04841 -0.449079,-0.170078 z m 2.632424,0.990723 c 0,-1.891914 -0.06082,-2.779196 -0.200123,-2.918478 -0.150432,-0.150431 -2.316607,-0.200125 -8.723657,-0.200125 h -8.523539 l -1.19348,-0.875543 C 52.526214,17.1854 51.986589,16.697598 51.983463,16.582943 51.978963,16.418272 54.234042,16.37448 62.718362,16.37448 h 10.740576 l 0.0578,0.822252 c 0.05197,0.740412 0.03158,0.798508 -0.205499,0.583695 -0.320997,-0.290839 -0.850349,-0.308989 -1.120905,-0.03843 -0.257245,0.257243 -0.257245,0.843439 0,1.100683 0.242746,0.24275 0.908177,0.263875 1.050651,0.03336 0.263987,-0.427146 0.333542,-0.0098 0.333542,2.001242 0,2.011086 -0.06956,2.428387 -0.333542,2.001242 -0.155685,-0.251901 -0.848927,-0.199874 -1.082214,0.08122 -0.281521,0.339217 -0.07826,1.039427 0.340301,1.172273 0.200722,0.06371 0.50969,-0.002 0.750073,-0.1595 0.224819,-0.147306 0.408763,-0.206062 0.408763,-0.130569 0,0.321633 -0.448754,0.537509 -1.117361,0.537509 h -0.717115 z m -15.059137,2.446168 c -0.215667,-0.215666 -0.119746,-0.691675 0.161096,-0.799444 0.351489,-0.134879 0.60488,0.109949 0.527839,0.509998 -0.06123,0.317973 -0.483149,0.495234 -0.688935,0.289446 z m 12.383871,-0.15311 c -0.177245,-0.213561 -0.166286,-0.306792 0.06297,-0.536046 0.256993,-0.256991 0.297717,-0.25733 0.550482,-0.0045 0.303115,0.303112 0.201365,0.799134 -0.163918,0.799134 -0.12923,0 -0.33152,-0.116335 -0.449527,-0.258525 z m 3.292524,-0.18043 c -0.06432,-0.06432 -0.116943,-0.25453 -0.116943,-0.422691 0,-0.217154 0.124161,-0.305745 0.42852,-0.305745 0.3485,0 0.418575,0.06976 0.375235,0.373529 -0.05275,0.369706 -0.461029,0.580685 -0.686812,0.354907 z M 25.336243,21.718757 c -0.756719,-1.090254 -1.375854,-2.049851 -1.375854,-2.132437 0,-0.0846 1.714714,-0.152984 3.927207,-0.156632 l 3.927206,-0.0065 0.459637,-0.440359 c 0.438557,-0.420165 0.541866,-0.440358 2.252878,-0.440358 h 1.793244 l -0.05128,0.708773 c -0.04264,0.589202 -0.114585,0.717763 -0.426514,0.762064 -0.272863,0.03875 -0.375234,-0.0307 -0.375234,-0.254561 0,-0.258586 -0.106757,-0.297673 -0.66708,-0.244239 -0.850235,0.08108 -0.876494,0.450814 -0.04169,0.587004 0.343963,0.05611 0.830397,0.149527 1.080962,0.207587 0.39144,0.0907 0.481213,0.03834 0.637686,-0.371914 0.10016,-0.262614 0.152051,-0.683856 0.115311,-0.936096 l -0.0668,-0.458621 h 2.045073 2.045073 l 0.37492,-0.66708 0.37492,-0.667081 h 1.220067 1.220068 v 0.675591 c 0,0.611904 -0.05395,0.698131 -0.572293,0.914709 -0.31476,0.131515 -0.619375,0.315302 -0.676923,0.408416 -0.06129,0.09917 -0.924899,0.169296 -2.084866,0.169296 h -1.980234 l -0.614949,0.750466 -0.614951,0.750466 h -5.123939 c -5.833488,0 -5.678183,-0.03688 -5.67339,1.347293 0.0029,0.816194 0.09032,1.010194 0.581142,1.288518 l 0.33354,0.189139 -0.33354,-6.72e-4 c -0.237375,-5.22e-4 -0.730218,-0.572135 -1.709394,-1.982897 z m 11.416775,1.880793 c -0.234248,-0.06357 -0.291353,-0.231339 -0.26424,-0.776297 0.01954,-0.392767 -0.08811,-0.930988 -0.247456,-1.237203 l -0.282046,-0.542003 h 0.679645 c 1.486173,0 2.166938,0.866368 1.564658,1.991238 -0.318666,0.595167 -0.737018,0.757905 -1.450561,0.564265 z M 9.6181536,23.493287 c 0,-0.182266 0.8716034,-1.60588 1.0984714,-1.794163 0.22343,-0.185432 0.247886,-0.092 0.203156,0.776141 l -0.05086,0.98695 -0.625388,0.05176 c -0.3439633,0.02846 -0.6253883,0.01916 -0.6253883,-0.02069 z M 7.849674,20.450427 c -0.1552114,-0.61841 0.026545,-1.925162 0.2910803,-2.092775 0.1246428,-0.07898 0.4330014,-0.144739 0.6852417,-0.146144 0.3902831,-0.0021 0.4586177,0.06611 0.4586177,0.458291 0,0.392936 -1.0291653,2.207478 -1.2520298,2.207478 -0.041677,0 -0.123987,-0.192082 -0.1829099,-0.42685 z m 53.230875,-1.010978 c -0.411362,-0.228089 -0.836377,-0.252971 -2.751703,-0.161097 -1.298665,0.06229 -2.478676,0.04134 -2.765509,-0.04911 -0.338634,-0.106785 1.24971,-0.1624 4.915135,-0.172103 4.623677,-0.01224 5.367348,0.01897 5.086488,0.213439 -0.200302,0.138692 -1.046407,0.269005 -2.163431,0.333198 -1.517824,0.08723 -1.918445,0.05887 -2.32098,-0.164328 z M 72.379748,18.4479 c -0.05516,-0.143751 -0.02039,-0.341332 0.07741,-0.43907 0.259401,-0.259403 0.700438,-0.03168 0.700438,0.36166 0,0.411292 -0.625827,0.473572 -0.777844,0.07741 z M 40.220481,17.041563 c 0.05669,-0.09172 0.267495,-0.165621 0.46846,-0.164216 0.297057,0.0021 0.318608,0.03279 0.115235,0.164216 -0.328557,0.212329 -0.714922,0.212329 -0.583695,0 z M 27.629333,16.378941 c 0,-0.324536 0.100127,-0.337999 2.51378,-0.337999 2.304236,0 2.509112,0.02433 2.457767,0.291847 -0.04983,0.259661 -0.327079,0.296939 -2.51378,0.337999 -2.372575,0.04455 -2.457767,0.03444 -2.457767,-0.291847 z m -7.838199,-0.08784 c 0,-0.213808 -0.472515,-0.250155 -3.252018,-0.250155 H 13.287098 V 14.873551 13.70616 h 0.480859 c 0.340607,0 0.506301,0.09728 0.568083,0.33354 0.07993,0.305667 0.227477,0.33354 1.765545,0.33354 1.671423,0 1.679842,0.0021 2.048218,0.500311 0.298476,0.403711 0.492639,0.50031 1.005613,0.50031 h 0.635718 v -0.917235 -0.917237 l 4.294333,-4.83e-4 4.294331,-4.84e-4 0.333541,-0.50345 0.33354,-0.50345 1.667702,0.04531 1.667702,0.04531 0.04773,1.626009 0.04774,1.62601 h -2.523204 c -2.382951,0 -2.528053,0.01854 -2.610427,0.33354 -0.0722,0.276099 -0.227478,0.333541 -0.901623,0.333541 l -0.814401,7e-6 v -0.680978 c 0,-0.868914 -0.394338,-0.811296 -0.468686,0.06848 -0.05012,0.593077 -0.07259,0.612496 -0.708773,0.612496 h -0.657012 v -0.680978 c 0,-0.868914 -0.394338,-0.811296 -0.468686,0.06848 -0.04998,0.591412 -0.07405,0.612496 -0.699184,0.612496 -0.642452,0 -0.647819,-0.0054 -0.698706,-0.708773 -0.02821,-0.389825 -0.126328,-0.708773 -0.218052,-0.708773 -0.09172,0 -0.189846,0.318948 -0.218052,0.708773 l -0.05128,0.708773 h -0.824261 c -0.621497,0 -0.824262,-0.06154 -0.824262,-0.250155 z m 13.174844,-0.466956 c 0,-0.394412 -0.09006,-0.807167 -0.200124,-0.917236 -0.155652,-0.155652 -0.155652,-0.200124 0,-0.200124 0.133417,0 0.200124,-0.333541 0.200124,-1.000621 v -1.000621 h 1.995375 c 2.340201,0 2.34065,3.33e-4 2.34065,1.740123 0,0.983789 -0.03386,1.094969 -0.333541,1.094969 -0.271061,0 -0.33354,-0.11118 -0.33354,-0.593537 0,-0.353226 -0.06752,-0.551807 -0.16677,-0.490468 -0.09172,0.05669 -0.16677,0.323779 -0.16677,0.593537 0,0.269758 -0.06702,0.490468 -0.148928,0.490468 -0.184905,0 -0.351382,-0.414692 -0.351382,-0.875285 0,-0.55482 -0.114296,-0.275812 -0.239006,0.583437 -0.104058,0.716964 -0.08364,0.792159 0.215147,0.792159 0.44485,0 0.857709,0.169138 0.857709,0.351382 0,0.08191 -0.825512,0.148928 -1.834472,0.148928 h -1.834472 z m 4.805178,0.508648 C 37.59095,16.189231 37.533182,15.942594 37.585612,15.540631 l 0.07614,-0.583695 0.904134,0.05712 c 0.79816,0.05043 0.903866,0.0993 0.901856,0.416925 -0.0055,0.878569 -0.176505,1.110264 -0.81915,1.110264 -0.338664,0 -0.73351,-0.09381 -0.877432,-0.208462 z m 0.614853,-0.625387 c -0.05669,-0.09172 -0.215639,-0.166771 -0.353224,-0.166771 -0.137586,0 -0.203776,0.07505 -0.147087,0.166771 0.05669,0.09172 0.21564,0.16677 0.353224,0.16677 0.137586,0 0.203776,-0.07505 0.147087,-0.16677 z m 1.917857,0.08338 c 0,-0.639286 0.04942,-0.750466 0.33354,-0.750466 0.284127,0 0.333541,0.11118 0.333541,0.750466 0,0.639285 -0.04942,0.750465 -0.333541,0.750465 -0.284126,0 -0.33354,-0.11118 -0.33354,-0.750465 z m 2.918478,0.164026 c -2.196765,-1.183625 -2.311982,-4.139034 -0.211168,-5.416616 1.972898,-1.1997908 4.640327,0.310993 4.626915,2.620603 -0.0052,0.895613 -0.524065,1.925027 -1.248982,2.477947 -0.777712,0.593192 -2.361,0.752215 -3.166765,0.318066 z m 1.417546,-0.330797 c 0,-0.229308 -0.07505,-0.416925 -0.16677,-0.416925 -0.186311,0 -0.228592,0.549669 -0.05559,0.72267 0.183838,0.183838 0.22236,0.13087 0.22236,-0.305745 z m -0.855989,-0.198341 c 0.12584,-0.242058 0.132977,-0.400237 0.02118,-0.469332 -0.183124,-0.113177 -0.511196,0.581396 -0.379686,0.803846 0.09422,0.159372 0.108843,0.145726 0.358506,-0.334514 z m 1.825935,-0.135925 c -0.101676,-0.223157 -0.246109,-0.36789 -0.320963,-0.321629 -0.07485,0.04626 -0.0529,0.266694 0.04877,0.489852 0.101676,0.223157 0.246109,0.36789 0.320963,0.321628 0.07485,-0.04626 0.0529,-0.266694 -0.04877,-0.489851 z m -2.671002,-0.282783 c 0.110069,-0.110068 0.200125,-0.309316 0.200125,-0.442773 0,-0.192617 -0.06877,-0.180411 -0.33354,0.0592 -0.342612,0.310059 -0.43643,0.583696 -0.200125,0.583696 0.07338,0 0.223472,-0.09006 0.33354,-0.200125 z m 3.702298,0.05377 c 0,-0.213258 -0.490367,-0.586264 -0.61149,-0.46514 -0.121125,0.121123 0.251883,0.61149 0.46514,0.61149 0.08049,0 0.14635,-0.06586 0.14635,-0.14635 z m -1.156884,-0.504674 c 0.597979,-0.21105 0.914279,-1.262422 0.602717,-2.003411 -0.285897,-0.679948 -1.485814,-1.328376 -1.869263,-1.01014 -0.137998,0.114526 -0.418405,0.219721 -0.62313,0.233764 -0.213558,0.01465 -0.351699,0.119788 -0.324068,0.246644 0.02648,0.12161 -0.06905,0.399994 -0.212307,0.618632 -0.193156,0.294794 -0.412858,0.397523 -0.850161,0.397523 -0.386642,0 -0.550628,0.06321 -0.476241,0.183572 0.06438,0.104168 0.320387,0.142184 0.591867,0.08789 0.421521,-0.0843 0.515314,-0.02375 0.788766,0.509266 0.343074,0.66872 1.288123,1.238208 1.694233,1.020947 0.137585,-0.0736 0.442499,-0.201713 0.677587,-0.284685 z m -1.856227,-0.501961 c -0.373682,-0.373681 -0.471927,-0.605941 -0.425388,-1.005657 0.199267,-1.711428 2.393838,-1.627265 2.707748,0.103843 0.05193,0.286367 -0.06958,0.545999 -0.41908,0.895505 -0.636874,0.636874 -1.230706,0.638885 -1.86328,0.0063 z m 0.67833,0.152364 c 0,-0.09172 -0.07948,-0.166771 -0.176614,-0.166771 -0.09714,0 -0.13023,0.07505 -0.07354,0.166771 0.05669,0.09172 0.136164,0.166769 0.176613,0.166769 0.04045,0 0.07354,-0.07505 0.07354,-0.166769 z m 0.83385,-0.166771 c 0,-0.09172 -0.03309,-0.16677 -0.07354,-0.16677 -0.04044,0 -0.119923,0.07505 -0.176612,0.16677 -0.05669,0.09172 -0.02359,0.166771 0.07354,0.166771 0.09714,0 0.176613,-0.07505 0.176613,-0.166771 z m -1.440622,-0.416923 c -0.0528,-0.137586 -0.172201,-0.250156 -0.265342,-0.250156 -0.09761,0 -0.0814,0.105967 0.03826,0.250156 0.114186,0.137584 0.23359,0.250155 0.265341,0.250155 0.03175,0 0.01454,-0.112571 -0.03826,-0.250155 z M 45.640511,13.456 c 0,-0.137586 -0.02949,-0.250155 -0.06554,-0.250155 -0.03605,0 -0.108739,0.112569 -0.161537,0.250155 -0.05279,0.137586 -0.0233,0.250156 0.06554,0.250156 0.08884,0 0.161536,-0.11257 0.161536,-0.250156 z m 0,-0.750465 c 0,-0.09172 -0.07947,-0.166771 -0.176613,-0.166771 -0.09714,0 -0.13023,0.07505 -0.07354,0.166771 0.05669,0.09172 0.136164,0.16677 0.176613,0.16677 0.04045,0 0.07354,-0.07505 0.07354,-0.16677 z m -0.502863,-0.542003 c 0.0064,-0.314769 -0.263207,-0.08263 -0.288116,0.248052 -0.02209,0.293248 0.0055,0.320026 0.128727,0.125077 0.08626,-0.136428 0.157985,-0.304337 0.159389,-0.373129 z m -2.4268,1.691296 c -0.04626,-0.07485 -0.266693,-0.0529 -0.489851,0.04877 -0.223158,0.101677 -0.367891,0.246111 -0.321629,0.320963 0.04626,0.07485 0.266694,0.0529 0.48985,-0.04877 0.22316,-0.101677 0.367892,-0.24611 0.32163,-0.320962 z m 4.597365,0.354815 c 0,-0.190525 -0.801722,-0.424436 -0.949214,-0.276943 -0.0549,0.0549 0.07992,0.171733 0.299614,0.259612 0.526596,0.210644 0.6496,0.213925 0.6496,0.01733 z m 0.16677,-1.003798 c 0,-0.09172 -0.187616,-0.166771 -0.416925,-0.166771 -0.229309,0 -0.416926,0.07505 -0.416926,0.166771 0,0.09172 0.187617,0.16677 0.416926,0.16677 0.229309,0 0.416925,-0.07505 0.416925,-0.16677 z m -4.700161,-0.911346 c -0.305382,-0.255095 -0.799438,-0.39714 -0.887234,-0.255085 -0.113176,0.183123 0.581398,0.511194 0.803848,0.379684 0.07489,-0.04428 0.112418,-0.100347 0.08339,-0.124599 z m 4.293054,-0.167357 c 0.258804,-0.195749 0.271588,-0.245914 0.06375,-0.250155 -0.142985,-0.0029 -0.405648,0.10488 -0.583695,0.239548 -0.258804,0.195749 -0.271589,0.245915 -0.06375,0.250155 0.142986,0.0029 0.405649,-0.104879 0.583696,-0.239548 z m -3.928917,-0.568579 c 0,-0.213258 -0.490368,-0.586263 -0.611491,-0.46514 -0.121124,0.121123 0.251883,0.611491 0.46514,0.611491 0.08049,0 0.146351,-0.06586 0.146351,-0.146351 z m 3.338749,-0.107835 c 0.116025,-0.139802 0.16455,-0.300589 0.107835,-0.357305 -0.121123,-0.121123 -0.611491,0.251882 -0.611491,0.46514 0,0.229718 0.27181,0.171522 0.503656,-0.107835 z m -2.820019,-0.794724 c -0.288562,-0.288562 -0.398279,-0.01528 -0.164305,0.409238 0.192657,0.34956 0.221309,0.357761 0.279306,0.07995 0.03555,-0.170259 -0.01621,-0.390396 -0.115001,-0.489192 z m 1.977406,0.22518 c 0.105278,-0.196715 0.112091,-0.361118 0.01739,-0.419646 -0.163333,-0.100946 -0.227223,-0.0285 -0.397951,0.451217 -0.141187,0.396715 0.16494,0.371318 0.38056,-0.03157 z M 44.63989,10.611069 c 0,-0.242045 -0.07218,-0.382155 -0.16677,-0.323698 -0.09172,0.05669 -0.166769,0.248734 -0.166769,0.426768 0,0.178033 0.07505,0.323698 0.166769,0.323698 0.09172,0 0.16677,-0.192046 0.16677,-0.426768 z m 2.501553,5.34878 c 0,-0.05106 0.20208,-0.398192 0.449067,-0.771415 0.321194,-0.485357 0.469241,-0.95749 0.519916,-1.658048 0.08637,-1.194051 -0.0037,-1.585267 -0.550587,-2.391129 -0.233147,-0.343566 -0.380714,-0.694551 -0.327925,-0.779968 0.05308,-0.08588 1.343933,-0.155303 2.88788,-0.155303 1.980719,0 2.851253,-0.05936 2.996184,-0.2042868 0.161202,-0.1612025 0.273276,-0.1612025 0.531401,0 0.182028,0.1136778 0.878515,0.2042868 1.570312,0.2042868 0.683759,0 1.289579,0.07505 1.346267,0.16677 0.05669,0.09172 0.499338,0.16677 0.983668,0.16677 0.794045,0 0.932801,0.05737 1.411745,0.583696 l 0.531156,0.583696 h 5.493497 c 5.06216,0 5.505583,0.02292 5.647256,0.291847 0.143735,0.27284 0.279086,2.390286 0.218531,3.418789 l -0.02699,0.458618 h -4.47143 -4.47143 L 61.51006,15.373861 c -0.3521,-0.476244 -0.428324,-0.50031 -1.584477,-0.50031 -1.131837,0 -1.247235,0.03408 -1.693911,0.50031 l -0.479326,0.500311 -3.09574,-0.0011 -3.095739,-0.0011 -0.296254,-0.520449 c -0.27622,-0.485252 -0.346007,-0.51484 -1.031972,-0.437522 l -0.735717,0.08293 0.253642,-0.387108 c 0.146456,-0.223521 0.207864,-0.531346 0.145314,-0.728427 -0.132846,-0.418558 -0.833056,-0.621821 -1.172273,-0.340296 -0.281093,0.23328 -0.33312,0.926517 -0.08122,1.082201 0.09172,0.05669 0.166771,0.178116 0.166771,0.26984 0,0.09172 -0.06414,0.127131 -0.142529,0.07868 -0.07839,-0.04845 -0.322291,0.104107 -0.542003,0.339012 -0.40819,0.436416 -0.98317,0.815919 -0.98317,0.64892 z m 1.000233,-0.101522 c 0.0026,-0.656677 2.332741,-0.94546 2.662163,-0.329929 0.162599,0.303818 0.09482,0.324241 -1.245298,0.375233 -0.779489,0.02966 -1.41708,0.0093 -1.416865,-0.04531 z m 10.34014,0 c 0,-0.05458 0.137238,-0.223432 0.30498,-0.375233 0.43598,-0.394559 1.8877,-0.375896 2.254109,0.02898 0.151804,0.167739 0.275999,0.336593 0.275999,0.375233 0,0.03864 -0.637894,0.07025 -1.417547,0.07025 -0.779647,0 -1.417541,-0.04465 -1.417541,-0.09923 z m 12.708839,-1.734954 c -0.01221,-0.962939 -0.102657,-1.901021 -0.200924,-2.084627 -0.162304,-0.303271 -0.127141,-0.333828 0.384134,-0.333828 0.720509,0 0.917899,0.40309 0.950755,1.941558 0.04911,2.29945 0.06703,2.227696 -0.556295,2.227696 h -0.555409 z m 1.436683,0.153766 c 0.0294,-0.87878 -0.02302,-1.81703 -0.116405,-2.085001 l -0.169843,-0.48722 h 1.388454 c 1.812439,0 1.844472,0.03924 1.700783,2.083328 -0.06082,0.865532 -0.154846,1.688948 -0.208899,1.829811 -0.07649,0.199345 -0.380807,0.256198 -1.372908,0.256489 l -1.274625,3.67e-4 0.05343,-1.597782 z m -54.330774,0.438575 c -0.287822,-0.404209 -0.487218,-0.500357 -1.124019,-0.542003 -0.442527,-0.02894 -0.804266,-0.142152 -0.844488,-0.264294 -0.05534,-0.168066 0.22662,-0.18996 1.321125,-0.102582 0.765317,0.0611 1.485295,0.1852 1.59995,0.275782 0.114654,0.09058 0.208462,0.380644 0.208462,0.644584 0,0.39712 -0.06995,0.47989 -0.405569,0.47989 -0.258647,0 -0.532322,-0.178008 -0.755461,-0.491377 z m 30.465852,-0.390472 c -0.132233,-0.34459 0.125978,-0.660394 0.483638,-0.591515 0.443083,0.08533 0.410462,0.709072 -0.04044,0.773408 -0.194704,0.02778 -0.39414,-0.05408 -0.443189,-0.181893 z M 37.635543,13.827808 c 0,-0.735314 0.308014,-0.990939 1.11406,-0.924568 0.604745,0.0498 0.63965,0.08414 0.688788,0.677842 l 0.05176,0.625388 h -0.663508 c -0.36493,0 -0.782215,0.04555 -0.927302,0.101228 -0.209445,0.08037 -0.263796,-0.01851 -0.263796,-0.47989 z m 0.833851,-0.280074 c 0,-0.252039 -0.228891,-0.33117 -0.443274,-0.153248 -0.329282,0.27328 -0.27239,0.459922 0.109733,0.359995 0.183448,-0.04797 0.333541,-0.141009 0.333541,-0.206747 z m -23.848135,0.449071 c 0,-0.148104 0.232585,-0.190503 0.792158,-0.144403 0.600441,0.04947 0.711435,0.09737 0.458618,0.197942 -0.52773,0.209932 -1.250776,0.178983 -1.250776,-0.05354 z m 25.773799,-0.391072 c -0.124623,-0.664291 -0.05662,-0.819837 0.2988,-0.683451 0.130683,0.05015 0.268944,0.359605 0.307246,0.687683 0.05558,0.476065 0.0128,0.596505 -0.211855,0.596505 -0.191189,0 -0.317648,-0.192717 -0.394191,-0.600737 z m -2.920982,-0.825148 c -0.01115,-0.36846 0.423538,-0.574259 1.15375,-0.546222 l 0.758804,0.02913 -0.740216,0.06537 c -0.43515,0.03843 -0.828168,0.181069 -0.953623,0.346097 -0.117377,0.154397 -0.215796,0.201924 -0.218715,0.105613 z m 2.704712,-0.523546 c 0.160517,-0.04195 0.423179,-0.04195 0.583696,0 0.160516,0.04195 0.02918,0.07627 -0.291848,0.07627 -0.321032,0 -0.452364,-0.03432 -0.291848,-0.07627 z m 29.309864,-0.92438 c -2.311903,-0.243097 -7.36578,-0.333648 -7.563898,-0.135523 -0.09584,0.09583 -0.633235,0.174241 -1.194206,0.174241 -0.956064,0 -1.052348,-0.03657 -1.536736,-0.583696 C 58.734838,10.26926 58.58501,10.203986 57.854029,10.203986 H 57.03101 L 55.505016,8.2728688 C 54.058364,6.4421598 53.686208,5.701191 54.213372,5.701191 c 0.128895,0 1.611065,0.2596086 3.293709,0.5769086 9.718804,1.8326886 11.403088,2.1105273 12.161723,2.0061879 l 0.77039,-0.1059555 0.942271,1.0412466 c 0.941189,1.0400474 1.026295,1.2375994 0.83716,1.9433354 -0.113135,0.422163 -0.249057,0.430615 -2.729973,0.169745 z M 71.231251,9.4522042 C 70.064793,8.086853 69.828046,8.3360333 70.946526,9.751882 c 0.696366,0.881511 0.974987,1.133237 1.013751,0.915921 0.03052,-0.171001 -0.282529,-0.6929614 -0.729026,-1.2155988 z M 17.815403,8.7829147 c 0.685162,-0.3721716 2.633166,-0.3958609 3.138538,-0.038165 0.402011,0.2845376 0.362325,0.2916812 -1.584317,0.285171 -1.834022,-0.00612 -1.960619,-0.026254 -1.554221,-0.247003 z M 37.392299,5.7428836 C 37.329551,5.5790244 34.956303,5.534421 26.300404,5.534421 c -9.592071,0 -11.012064,-0.031705 -11.012064,-0.2458723 0,-0.1352304 -0.22514,-0.3622973 -0.50031,-0.5045935 -0.275172,-0.1422962 -0.500311,-0.2943168 -0.500311,-0.3378229 0,-0.043504 6.899229,-0.079102 15.331617,-0.079102 15.185152,0 15.33263,0.00321 15.43748,0.3335399 0.09406,0.2963446 0.252328,0.3335406 1.419252,0.3335406 1.06273,0 1.434566,0.071614 1.948311,0.3752332 L 49.0593,5.7845763 47.058058,5.8255215 C 40.096154,5.967948 37.469885,5.945495 37.392299,5.7428836 Z m 7.004293,-0.8644477 c -0.07323,-0.1184918 -1.53737,-0.177866 -4.386079,-0.177866 -2.798673,0 -4.219561,0.05659 -4.112373,0.1637779 0.13129,0.131289 8.317502,0.3443711 8.549988,0.2225507 0.03211,-0.016829 0.0089,-0.1106369 -0.05153,-0.2084626 z m 2.07777,-0.177866 c 0,-0.091723 0.11257,-0.1667699 0.250156,-0.1667699 0.137585,0 0.250155,0.075047 0.250155,0.1667699 0,0.091724 -0.11257,0.1667706 -0.250155,0.1667706 -0.137586,0 -0.250156,-0.075047 -0.250156,-0.1667706 z M 11.793784,4.4595945 C 11.683789,4.3270574 11.618315,4.0456329 11.648287,3.8342061 c 0.05402,-0.3810649 0.07628,-0.3845461 2.556046,-0.3997897 1.375855,-0.00846 2.636675,-0.074226 2.801824,-0.1461524 0.464085,-0.2021204 4.005086,-0.01386 4.082047,0.2170261 0.07932,0.2379467 0.645346,0.2579912 0.787557,0.027891 0.138052,-0.2233714 4.25264,-0.2233714 4.25264,0 0,0.2661437 0.788241,0.1926361 0.89416,-0.083385 0.140059,-0.3649867 3.803519,-0.3649867 4.168506,0 0.285815,0.2858146 0.60752,0.3299705 0.60752,0.083385 0,-0.223696 4.281159,-0.223696 4.41941,0 0.157954,0.2555765 0.748923,0.1980712 0.856927,-0.083385 0.140598,-0.3663949 3.925483,-0.3663949 4.229563,0 0.114186,0.137586 0.301802,0.2501554 0.416925,0.2501554 0.115123,0 0.30274,-0.1125694 0.416925,-0.2501554 0.162331,-0.1955953 0.622347,-0.2501552 2.109177,-0.2501552 1.874883,0 1.903788,0.00586 2.060078,0.4169259 0.08718,0.2293089 0.235419,0.4169253 0.329413,0.4169253 0.09399,0 0.170898,0.067164 0.170898,0.1492534 0,0.2551569 -1.401123,0.3199827 -1.550911,0.071756 C 45.147689,4.0733661 42.116287,4.033492 28.454897,4.033492 c -9.167802,0 -16.668731,0.060037 -16.668731,0.1334163 0,0.073378 0.09006,0.2234716 0.200124,0.3335399 0.110069,0.1100683 0.15678,0.2001242 0.103806,0.2001242 -0.05298,0 -0.186316,-0.1084389 -0.296312,-0.2409753 z"
       id="path975" />
  </g>
</svg>
