<?xml version="1.0" encoding="UTF-8" standalone="no"?>
<svg
   xmlns:dc="http://purl.org/dc/elements/1.1/"
   xmlns:cc="http://creativecommons.org/ns#"
   xmlns:rdf="http://www.w3.org/1999/02/22-rdf-syntax-ns#"
   xmlns:svg="http://www.w3.org/2000/svg"
   xmlns="http://www.w3.org/2000/svg"
   xmlns:sodipodi="http://sodipodi.sourceforge.net/DTD/sodipodi-0.dtd"
   xmlns:inkscape="http://www.inkscape.org/namespaces/inkscape"
   width="512"
   height="128"
   viewBox="0 0 135.46665 33.866667"
   version="1.1"
   id="svg8"
   inkscape:version="1.0.1 (3bc2e813f5, 2020-09-07)"
   sodipodi:docname="Longbow DMR.svg">
  <defs
     id="defs2" />
  <sodipodi:namedview
     id="base"
     pagecolor="#ffffff"
     bordercolor="#666666"
     borderopacity="1.0"
     inkscape:pageopacity="0.0"
     inkscape:pageshadow="2"
     inkscape:zoom="0.7"
     inkscape:cx="158.55547"
     inkscape:cy="-7.3626803"
     inkscape:document-units="mm"
     inkscape:current-layer="layer1"
     inkscape:document-rotation="0"
     showgrid="false"
     units="px"
     inkscape:window-width="1366"
     inkscape:window-height="705"
     inkscape:window-x="-8"
     inkscape:window-y="-8"
     inkscape:window-maximized="1" />
  <metadata
     id="metadata5">
    <rdf:RDF>
      <cc:Work
         rdf:about="">
        <dc:format>image/svg+xml</dc:format>
        <dc:type
           rdf:resource="http://purl.org/dc/dcmitype/StillImage" />
        <dc:title></dc:title>
      </cc:Work>
    </rdf:RDF>
  </metadata>
  <g
     inkscape:label="Layer 1"
     inkscape:groupmode="layer"
     id="layer1">
    <path
       style="opacity:0.998;fill:#273839;fill-opacity:1;stroke-width:0.224752"
       d="m 84.711312,27.518567 c -0.932558,-1.792496 -1.085681,-2.269388 -0.72868,-2.269388 0.107456,0 0.465331,0.622457 0.795269,1.38324 l 0.599895,1.383238 0.72181,-1.043883 c 0.623815,-0.90217 0.828602,-1.044656 1.508438,-1.049554 1.337155,-0.0096 1.519915,-0.279047 0.864084,-1.273746 -0.31192,-0.473101 -0.688076,-1.087745 -0.83589,-1.365875 -0.253317,-0.47663 -0.226066,-0.505692 0.474073,-0.505692 0.677432,0 0.828339,0.138569 1.714024,1.573872 1.40461,2.276246 1.746295,1.805842 0.48464,-0.667209 -0.254403,-0.498664 -0.372572,-0.906663 -0.2626,-0.906663 0.264282,0 1.381062,2.589817 1.38745,3.217528 0.0025,0.269984 0.202782,0.743725 0.444512,1.052759 0.24173,0.309033 0.441751,0.803576 0.444503,1.098983 0.009,0.965849 -0.540067,1.133656 -3.734557,1.14139 l -2.952914,0.0071 z m 6.605144,0.427635 c 0,-0.550314 -0.03941,-0.563202 -1.913418,-0.626042 l -1.913408,-0.06417 -0.407765,0.690287 -0.407755,0.690285 2.321173,-0.06424 c 2.308949,-0.06391 2.321173,-0.0672 2.321173,-0.626123 z M 51.530122,25.192991 c -0.0694,-0.278131 -0.09661,-1.517077 -0.06047,-2.753212 l 0.06571,-2.247519 h 2.247519 2.24752 l 0.06571,2.247519 c 0.09987,3.416349 0.211631,3.258903 -2.313226,3.258903 -2.018122,0 -2.133015,-0.02579 -2.252753,-0.505691 z m 28.283693,-0.449505 c -0.37969,-0.401743 -1.427655,-2.146381 -2.328809,-3.87697 -2.242879,-4.307272 -2.300978,-4.382663 -3.377383,-4.382663 -0.775699,0 -0.883704,-0.06403 -0.883704,-0.523901 0,-0.799994 0.774087,-1.079457 2.779745,-1.003557 l 1.759113,0.06657 1.832295,3.525873 c 1.634735,3.14572 1.801195,3.576803 1.543895,3.998237 -0.240413,0.393769 -0.22847,0.57381 0.07178,1.082089 0.28055,0.474934 0.308276,0.746244 0.125397,1.227247 -0.306798,0.80694 -0.679056,0.779325 -1.522328,-0.112925 z m 2.175432,0.198874 c 0,-0.16875 0.202273,-0.563971 0.449498,-0.878269 0.589939,-0.74998 0.56939,-1.421913 -0.05615,-1.837595 -0.278129,-0.184812 -1.365373,-2.005878 -2.416082,-4.046813 l -1.910394,-3.710792 -1.966579,-0.0039 c -1.742464,-0.0035 -1.966581,-0.05001 -1.966581,-0.408457 0,-0.95511 -1.101783,-1.259823 -1.662206,-0.459706 -0.244135,0.348553 -0.276983,0.600475 -0.117213,0.899007 0.21298,0.397955 -0.0022,0.414756 -5.313098,0.414756 -5.19475,0 -5.570203,0.02763 -6.106519,0.449504 -0.547979,0.431041 -0.91177,0.449504 -8.856966,0.449504 h -8.285545 v -1.23613 -1.236136 h 6.24994 6.249943 l 0.66118,-0.893695 0.661182,-0.893695 5.186307,-0.0054 5.186303,-0.0054 0.52786,0.561879 0.527859,0.56188 h 10.260237 10.260234 l 0.527861,-0.56188 c 0.595732,-0.634128 1.591218,-0.744738 2.022767,-0.224752 0.497433,0.599369 2.103899,0.372223 7.014869,-0.991859 2.631536,-0.730943 5.154296,-1.4281103 5.606116,-1.5492606 l 0.8215,-0.2202741 0.0844,0.8847824 c 0.0657,0.6886563 -0.061,1.1082623 -0.57144,1.8929693 -0.76837,1.181218 -1.09612,1.165037 -0.39717,-0.0196 0.52741,-0.893906 0.65097,-2.3664073 0.19642,-2.340848 -0.15451,0.00869 -0.48321,0.1081646 -0.73044,0.2210598 -0.40468,0.1847925 -0.39347,0.2000283 0.11238,0.1527671 0.78188,-0.073053 0.85052,0.6874081 0.16113,1.7849001 -0.29698,0.472795 -0.49689,0.98605 -0.4442,1.140566 0.0747,0.218914 -0.95335,0.280941 -4.656014,0.280941 -2.613479,0 -4.700075,-0.08366 -4.636884,-0.185916 0.0632,-0.102255 0.727212,-0.37131 1.47559,-0.5979 0.74838,-0.226591 1.32178,-0.450898 1.274211,-0.49846 -0.137094,-0.137101 -2.229738,0.411018 -2.725795,0.713958 -0.287847,0.175785 -2.062454,0.331173 -4.934346,0.43206 -2.466659,0.08665 -4.590565,0.241928 -4.719793,0.345057 -0.129219,0.103129 -1.400523,0.234284 -2.825112,0.291454 -1.424589,0.05717 -2.822123,0.22809 -3.105638,0.379822 -0.46794,0.250432 -0.486314,0.321035 -0.19918,0.765473 0.17396,0.269278 1.352929,2.234232 2.619926,4.366567 1.266999,2.132333 2.355933,3.87697 2.419864,3.87697 0.06396,0 0.315131,-0.252846 0.55822,-0.56188 0.428652,-0.544952 0.525294,-0.56188 3.20754,-0.56188 2.326362,0 2.814553,-0.06039 3.074028,-0.38027 0.209595,-0.258389 0.218412,-0.326174 0.02752,-0.211489 -0.198493,0.119251 -0.280932,-0.01902 -0.280932,-0.471142 0,-0.479035 -0.243216,-0.843227 -0.96736,-1.448534 -0.827286,-0.691529 -1.092112,-1.145876 -1.829015,-3.137933 -0.473912,-1.281129 -0.909097,-2.455748 -0.967081,-2.610265 -0.07373,-0.196478 0.174207,-0.28094 0.824686,-0.28094 1.119847,0 1.321185,0.345543 0.91624,1.572526 -0.271656,0.82312 -0.245357,0.938893 0.544927,2.399374 0.968481,1.789798 1.772882,2.543741 2.713731,2.5435 1.074699,-2.7e-4 5.494767,-1.481549 6.09027,-2.041 0.31062,-0.291807 0.539914,-0.76406 0.539914,-1.111987 0,-0.80134 -0.798947,-1.789149 -1.447082,-1.789149 -0.425526,0 -0.601228,0.235252 -1.007149,1.348512 -0.270424,0.741681 -0.58739,1.348512 -0.70437,1.348512 -0.116969,0 -0.212677,-0.758538 -0.212677,-1.685639 v -1.68564 h -2.444753 c -1.898924,0 -2.50722,-0.07527 -2.724536,-0.337128 -0.247863,-0.298655 0.588987,-0.333099 7.3331,-0.301818 4.1871,0.01942 7.10722,0.09527 6.48914,0.168563 l -1.12376,0.133255 -0.0703,0.978166 c -0.0504,0.701684 0.0446,1.105022 0.33592,1.426965 0.39485,0.436299 0.38793,0.463332 -0.24823,0.970591 -0.64329,0.51295 -0.6478,0.531835 -0.26601,1.114537 0.3791,0.578574 0.37463,0.603572 -0.18722,1.04552 -0.31658,0.249025 -0.5756,0.552119 -0.5756,0.673543 0,0.121425 0.40832,0.822053 0.90737,1.556952 0.6232,0.917696 1.05483,1.336179 1.37817,1.336179 0.61557,0 1.92476,-0.816494 2.23315,-1.392729 0.26919,-0.502989 0.60732,-0.314542 0.74819,0.417 0.13047,0.677415 -0.0719,0.876716 -2.01332,1.983101 -2.15842,1.230024 -2.46207,1.272022 -2.27047,0.314029 0.11162,-0.558151 -0.0238,-0.971436 -0.66316,-2.023956 -0.44188,-0.727423 -0.99806,-1.42675 -1.23594,-1.55406 -0.23788,-0.127309 -0.43251,-0.468126 -0.43251,-0.757371 0,-0.368517 -0.213834,-0.629461 -0.714521,-0.871951 -0.653308,-0.316407 -0.802516,-0.311577 -1.741827,0.05638 -0.565016,0.221334 -1.381292,0.471112 -1.813937,0.55506 -0.432654,0.08395 -1.618189,0.374647 -2.634529,0.645997 -1.634379,0.436357 -1.862883,0.561191 -1.977619,1.080383 -0.192623,0.871639 -0.969467,1.098398 -3.770438,1.100585 l -2.517892,0.002 -0.867558,1.346544 c -0.731135,1.134804 -0.969705,1.346558 -1.517078,1.346558 -0.398989,0 -0.649511,-0.118342 -0.649511,-0.306819 z M 100.34233,11.089807 c 1.28341,-0.370842 2.39878,-0.674256 2.47861,-0.674256 0.0799,0 0.0877,-0.05749 0.0174,-0.127751 -0.12084,-0.120832 -4.881909,1.166786 -5.09232,1.377204 -0.198221,0.198216 0.307206,0.08624 2.59631,-0.575197 z m 15.69685,12.835154 c -0.81564,-0.123995 -0.90554,-0.204196 -0.96927,-0.864749 -0.054,-0.559202 0.14153,-1.023831 0.84282,-2.003167 0.50492,-0.705108 0.91307,-1.535556 0.91307,-1.857771 0,-0.361809 -0.81024,-1.796265 -2.13748,-3.784196 l -2.13748,-3.201512 h -3.01639 -3.0164 l -0.0716,-2.082514 -0.0716,-2.0825151 1.23614,0.00357 c 1.20825,0.00348 1.23779,-0.011654 1.30961,-0.6706966 0.0818,-0.7505233 0.4884,-1.3451002 0.4884,-0.7141853 0,0.2129051 0.41744,0.8399626 0.92764,1.3934622 l 0.92763,1.0063618 h 2.77286 c 2.54285,0 2.79283,0.037291 3.01344,0.4495041 0.22576,0.42184 0.17092,0.4495034 -0.89109,0.4495034 -0.85611,0 -1.13168,0.08209 -1.13168,0.3371275 0,0.256937 0.28118,0.337128 1.18208,0.337128 0.93866,0 1.23987,0.09256 1.46279,0.449504 0.40814,0.653557 3.1034,0.653557 3.93427,0 0.49989,-0.393217 0.91177,-0.449504 3.28921,-0.449504 2.26595,0 2.71777,-0.05605 2.71777,-0.337128 0,-0.282444 -0.47569,-0.3371275 -2.93263,-0.3371275 h -2.93262 L 121.44248,9.237839 c -0.16842,-0.4005195 -0.25871,-0.805073 -0.20065,-0.8990075 0.058,-0.093934 1.81894,-0.17079 3.91308,-0.17079 h 3.80752 v 0.7866312 c 0,0.5493935 0.10167,0.7866321 0.33712,0.7866321 0.18542,0 0.33713,0.1517078 0.33713,0.3371282 0,0.18542 -0.15171,0.337128 -0.33713,0.337128 -0.25922,0 -0.33712,0.288597 -0.33712,1.248866 0,1.019306 -0.1678,1.574754 -0.91281,3.021771 -0.89106,1.730647 -0.91173,1.822499 -0.86708,3.853595 0.0307,1.396709 -0.0387,2.108817 -0.21095,2.166253 -0.14118,0.04706 -0.25669,0.258353 -0.25669,0.469542 0,0.535016 -1.73918,2.183055 -2.74599,2.602074 -0.6322,0.263117 -1.58957,0.340003 -3.93315,0.315873 -1.70367,-0.01754 -3.50212,-0.0934 -3.99656,-0.168564 z m 8.00996,-1.7329 1.1029,-0.809596 -0.0614,-3.854006 -0.0614,-3.854006 -4.10174,-0.06125 c -4.81099,-0.07185 -4.71304,-0.144099 -2.97796,2.196401 l 1.12377,1.515869 v 2.838096 2.838097 h 1.93646 c 1.86963,0 1.97454,-0.02795 3.03936,-0.809597 z m -4.52631,-2.437637 v -2.797731 l -1.12377,-1.350334 c -0.61806,-0.742684 -1.12376,-1.405334 -1.12376,-1.472556 0,-0.06723 1.66879,-0.122222 3.70841,-0.122222 h 3.70841 v 3.438042 3.438043 l -0.8523,0.832244 c -0.83374,0.814127 -0.89001,0.832246 -2.58465,0.832246 h -1.73234 z m -6.0683,-9.45125 c 0,-0.283615 -0.49946,-0.3371274 -3.14653,-0.3371274 -2.64708,0 -3.14653,0.053515 -3.14653,0.3371274 0,0.283616 0.49945,0.337128 3.14653,0.337128 2.64707,0 3.14653,-0.05352 3.14653,-0.337128 z M 81.402638,23.355397 c -0.204481,-0.532861 0.08486,-1.071017 0.529738,-0.985339 0.248806,0.04792 0.393995,0.280665 0.393995,0.631601 0,0.640684 -0.709381,0.912337 -0.923733,0.353738 z m 21.654102,-1.299663 c -1.36857,-1.855089 -1.34663,-1.779064 -0.70648,-2.447237 0.55136,-0.575492 0.56204,-0.63384 0.23271,-1.270712 -0.33301,-0.643969 -0.32537,-0.676558 0.21683,-0.923599 0.30912,-0.140843 0.59552,-0.256077 0.63646,-0.256077 0.041,0 0.46262,0.581545 0.93707,1.292324 0.47445,0.710778 1.03945,1.497321 1.25557,1.747873 0.49864,0.578083 0.32881,1.263291 -0.45715,1.844375 -1.11795,0.826538 -1.51308,0.828976 -2.11501,0.01306 z M 82.095055,19.256011 c -1.078265,-1.83372 -2.154552,-3.656746 -2.391754,-4.051168 -0.426588,-0.709317 -0.426435,-0.719723 0.01359,-0.955196 0.244661,-0.130935 1.437577,-0.241283 2.65094,-0.245213 1.582742,-0.0051 2.329379,-0.100388 2.642378,-0.337128 0.908164,-0.686903 1.142444,-0.44701 2.146994,2.19848 0.75486,1.987928 1.169939,2.746321 1.941636,3.547562 0.667732,0.693295 0.981521,1.214233 0.981521,1.629451 v 0.610348 h -2.684282 c -2.465684,0 -2.710998,0.03815 -3.012394,0.468452 -0.311572,0.444824 -0.426995,0.300295 -2.288588,-2.865588 z m 7.311007,1.942814 c 0,-0.38855 -1.167552,-2.017949 -1.445969,-2.017949 -0.215337,0 -1.251054,1.77261 -1.251054,2.141155 0,0.0585 0.606826,0.106365 1.348512,0.106365 0.768044,0 1.348511,-0.09882 1.348511,-0.229571 z m 39.936388,0.735262 c -0.1,-0.154516 -0.47927,-0.28094 -0.84281,-0.28094 h -0.66099 V 18.81696 15.980773 l 0.84282,-1.377912 0.84282,-1.37791 0.0641,2.179375 c 0.096,3.260722 -0.0392,6.849342 -0.24601,6.529761 z m 0.95206,-5.82482 c -0.009,-3.316964 -0.092,-6.5618206 -0.18447,-7.2107923 L 129.942,7.7185275 h 0.84266 c 1.39591,0 1.62874,0.428181 1.45964,2.6842725 -0.65875,8.788192 -1.03544,11.442886 -1.65244,11.645194 -0.21979,0.07207 -0.28451,-1.220544 -0.29735,-5.938727 z m -78.533764,3.073621 c -0.241678,-0.761458 0.0736,-0.90102 2.035393,-0.90102 h 1.897128 v 0.674256 0.674256 h -1.895246 c -1.695016,0 -1.910252,-0.04727 -2.037275,-0.447492 z M 27.834515,18.450433 c 0.01939,-0.934516 0.553187,-3.428041 0.721702,-3.37128 0.09175,0.0309 0.355513,0.05619 0.586142,0.05619 0.372474,0 0.398678,0.106722 0.23454,0.955195 -0.101634,0.525358 -0.189192,1.385034 -0.194575,1.910392 -0.0093,0.909319 -0.04218,0.955195 -0.684044,0.955195 -0.552503,0 -0.672361,-0.09131 -0.663765,-0.505691 z m 9.904686,-0.155787 c 0.409126,-0.553371 0.466773,-0.849588 0.352733,-1.812483 -0.129415,-1.092687 -0.111146,-1.147427 0.360496,-1.080351 0.400386,0.05694 0.510758,0.240994 0.568644,0.94824 0.104326,1.274646 -0.0826,1.77488 -0.827698,2.215021 -0.925016,0.546421 -1.017419,0.491403 -0.454175,-0.270427 z m -23.130592,-0.05773 c -0.38826,-0.388261 -0.346284,-2.533477 0.05611,-2.867432 0.179195,-0.14872 0.609094,-0.240683 0.955332,-0.204365 0.346236,0.03632 0.762612,-0.01622 0.925279,-0.116755 0.162666,-0.100534 0.324643,-0.147377 0.359948,-0.104095 0.0353,0.04328 -0.03851,0.862516 -0.164021,1.820521 l -0.228209,1.741828 h -0.817367 c -0.449551,0 -0.938732,-0.121367 -1.087068,-0.269702 z m 2.427321,-0.485562 c 0,-1.573382 0.277427,-2.840768 0.621837,-2.840768 0.263181,0 0.305799,0.182629 0.196676,0.84282 -0.07662,0.463551 -0.140422,1.272658 -0.141783,1.798016 -0.0018,0.698129 -0.0932,0.955196 -0.339602,0.955196 -0.232786,0 -0.337128,-0.233754 -0.337128,-0.755264 z m 1.208057,-0.846249 c 0.08186,-0.880832 0.203494,-1.689939 0.27029,-1.798016 0.06679,-0.108076 0.803906,-0.196503 1.638026,-0.196503 h 1.516579 l -0.212964,1.573264 -0.212964,1.573263 H 20.16409 c -0.593375,0 -1.141371,0.10114 -1.217768,0.224752 -0.0764,0.123613 -0.299166,0.224753 -0.495043,0.224753 -0.305621,0 -0.335024,-0.227165 -0.207292,-1.601513 z m 11.643381,1.37589 c -0.345835,-0.146577 -0.484583,-0.353829 -0.412208,-0.61573 0.06001,-0.217131 0.174363,-0.87519 0.254134,-1.462354 l 0.145041,-1.067573 h 2.380957 c 2.252774,0 2.361877,0.02118 2.026508,0.393317 -0.508852,0.564645 -0.675198,1.439816 -0.4075,2.143916 0.226949,0.596922 0.214148,0.609294 -0.630423,0.609294 -0.474141,0 -1.306028,0.04951 -1.84864,0.110038 -0.54261,0.06052 -1.221153,0.01061 -1.507869,-0.110908 z m -8.131646,-0.754392 c 0,-0.415394 0.06432,-1.224501 0.142925,-1.798016 l 0.142926,-1.042751 h 0.987093 0.987093 l -0.137034,1.517075 c -0.188118,2.082607 -0.18598,2.078955 -1.216942,2.078955 -0.878496,0 -0.906061,-0.02298 -0.906061,-0.755263 z m 13.182824,0.344251 c -0.827327,-0.914183 -0.141981,-2.342198 1.124085,-2.342198 0.677789,0 1.425728,0.749968 1.425728,1.429597 0,1.109604 -1.791317,1.750731 -2.549813,0.912601 z m 4.797332,-1.229677 c 0,-0.902379 -0.108506,-1.749194 -0.241124,-1.881812 -0.132618,-0.132618 -0.208472,-0.582683 -0.168563,-1.000147 l 0.07256,-0.759022 1.741827,-0.06565 1.741828,-0.06565 v 2.217797 c 0,2.027639 -0.0446,2.259697 -0.520177,2.706477 -0.381285,0.358199 -0.801363,0.488681 -1.573264,0.488681 h -1.053087 z m -15.632805,0.123614 c 0.245528,-2.092671 0.140761,-1.992339 1.978773,-1.895 0.896392,0.04748 1.686716,0.151926 1.756279,0.232119 0.06956,0.0802 0.03545,0.77792 -0.07581,1.550504 l -0.202285,1.4047 h -1.804289 -1.80429 z m 26.896584,0.827036 c -0.538573,-0.328343 -0.830384,-0.393674 -1.000146,-0.223913 -0.145729,0.145731 -1.411521,0.239697 -3.228897,0.239697 h -2.989201 v -0.56188 -0.56188 h 8.634222 c 6.697082,0 8.659654,-0.06303 8.747582,-0.28094 0.06235,-0.154517 0.121345,0.09833 0.131104,0.56188 l 0.01775,0.84282 h -1.415939 c -0.801615,0 -1.532949,-0.117015 -1.685639,-0.269703 -0.209767,-0.209768 -0.329637,-0.209768 -0.539404,0 -0.148337,0.148336 -0.54692,0.269703 -0.885743,0.269703 -0.338823,0 -0.678549,0.101138 -0.754946,0.224751 -0.0764,0.123615 -1.068467,0.224374 -2.204598,0.223912 -1.690051,-6.97e-4 -2.203975,-0.08515 -2.826141,-0.464447 z m 10.918976,-1.567295 c -0.0678,-0.259285 -0.0029,-0.512976 0.145972,-0.570082 0.14748,-0.05659 2.642804,-0.0757 5.545166,-0.04244 5.107033,0.05851 5.27702,0.07494 5.27702,0.509961 0,0.435423 -0.169874,0.451386 -5.422993,0.509626 -5.327194,0.05906 -5.425152,0.05187 -5.545165,-0.407065 z M 37.038855,14.910589 C 36.853112,14.790553 34.859874,14.691176 32.600003,14.68928 30.01765,14.68708 28.49828,14.60259 28.49828,14.461086 c 0,-0.123615 0.139913,-0.224752 0.310915,-0.224752 0.171002,0 0.36381,-0.202277 0.428462,-0.449504 0.112971,-0.431997 0.306565,-0.449504 4.970756,-0.449504 h 4.853209 v 0.899008 c 0,0.88963 -0.0088,0.898972 -0.84282,0.895565 -0.463551,-0.0019 -0.994527,-0.101481 -1.179947,-0.22131 z m 35.759201,-0.308641 c -0.374443,-0.451176 -0.05521,-1.076364 0.50836,-0.995566 0.55187,0.07912 0.776328,0.824279 0.332932,1.10527 -0.416598,0.264011 -0.545037,0.247263 -0.841292,-0.109704 z m 32.264024,-2.16363 c 0.21905,-0.370841 0.46815,-0.674255 0.55354,-0.674255 0.22873,0 -0.0596,0.983869 -0.34483,1.176506 -0.51074,0.34497 -0.59268,0.147761 -0.20871,-0.502251 z M 3.7041697,12.483603 C 3.1246206,11.843208 3.0065207,10.801283 3.4223405,9.9971766 L 3.7871089,9.2917924 h 5.7348567 5.7348574 l -0.06565,1.7418276 -0.06565,1.741828 -5.5242993,0.06003 C 4.4864738,12.891058 4.049297,12.864972 3.7041621,12.483603 Z M 10.742876,11.87644 c 0,-0.283021 -0.486963,-0.337127 -3.0341517,-0.337127 -2.5471885,0 -3.0341512,0.05411 -3.0341512,0.337127 0,0.28302 0.4869627,0.337128 3.0341512,0.337128 2.5471887,0 3.0341517,-0.05411 3.0341517,-0.337128 z m 0,-1.573264 c 0,-0.283021 -0.486963,-0.3371277 -3.0341517,-0.3371277 -2.5471885,0 -3.0341512,0.05411 -3.0341512,0.3371277 0,0.283021 0.4869627,0.337128 3.0341512,0.337128 2.5471887,0 3.0341517,-0.05411 3.0341517,-0.337128 z m 19.696131,2.427688 c -0.183849,-0.183849 3.663661,-4.1133274 4.027525,-4.1133274 0.135546,0 0.483983,-0.2528457 0.774307,-0.5618796 0.321514,-0.3422356 0.776117,-0.5618795 1.162936,-0.5618795 0.349294,0 0.63508,-0.1011388 0.63508,-0.2247526 0,-0.1236137 -0.157678,-0.2247516 -0.350393,-0.2247516 -0.192717,0 -0.287885,-0.1011388 -0.211488,-0.2247516 0.09095,-0.1471573 7.164953,-0.2247526 20.489739,-0.2247526 17.997292,0 20.335872,0.03899 20.221463,0.337128 -0.114107,0.2973623 1.462173,0.3371278 13.363471,0.3371278 9.36545,0 13.633853,-0.075465 13.953803,-0.2466922 0.5559,-0.2975152 1.00611,0.066189 1.12059,0.9052935 0.0668,0.4892052 -0.0663,0.5904798 -1.27397,0.970174 -1.28663,0.4044923 -2.07202,0.4174847 -17.113327,0.2830966 -8.670638,-0.07747 -18.632771,-0.067973 -22.138065,0.021109 l -6.37326,0.1619623 -1.412375,1.7619279 -1.412377,1.761928 h -6.272115 c -3.938971,0 -6.323785,-0.0836 -6.411018,-0.224752 -0.181179,-0.293153 -3.864356,-0.293153 -4.045536,0 -0.08361,0.135289 -1.630026,0.224752 -3.884962,0.224752 h -3.746058 l 1.792742,-1.805138 1.792743,-1.8051364 0.0674,1.2432574 0.0674,1.243257 h 1.786798 c 1.041367,0 1.786801,-0.09376 1.786801,-0.224751 0,-0.124863 -0.599339,-0.224753 -1.348511,-0.224753 H 36.139846 V 10.518082 9.7216036 l 1.625719,0.066036 1.625718,0.066037 -0.06964,0.9551954 -0.06964,0.955197 h 1.702826 c 0.985382,0 1.702826,-0.09469 1.702826,-0.224752 0,-0.127008 -0.641543,-0.224753 -1.475128,-0.224753 h -1.475134 l 0.07043,-0.730444 0.07043,-0.7304434 1.741826,-0.065646 1.741828,-0.065646 v 1.0208374 1.020839 h 1.68564 c 0.973925,0 1.68564,-0.0949 1.68564,-0.224752 0,-0.126784 -0.636797,-0.224753 -1.460888,-0.224753 H 43.781413 V 10.527925 9.7412932 h 1.68564 1.685639 v 1.0113838 1.011384 h 1.68564 c 0.973925,0 1.68564,-0.0949 1.68564,-0.224752 0,-0.126784 -0.636797,-0.224752 -1.460888,-0.224752 H 47.602196 V 10.518471 9.7223851 l 1.741828,0.065646 1.741827,0.065646 0.06956,0.9644089 0.06956,0.964408 1.728454,-0.0654 c 1.718544,-0.06503 1.728877,-0.0691 1.802192,-0.710624 0.04055,-0.354874 0.01969,-0.860566 -0.04636,-1.1237602 -0.120069,-0.4784095 -0.122512,-0.4785352 -9.269814,-0.4785352 -7.119979,0 -9.170493,-0.062324 -9.243383,-0.2809398 -0.203742,-0.6110775 -0.932349,-0.1826449 -2.973801,1.7486362 -2.050622,1.939961 -2.441327,2.200921 -2.783249,1.858999 z M 48.253014,8.8615301 c 0.172529,-0.1092451 0.251557,-0.3605422 0.175618,-0.5584384 -0.109407,-0.2851131 -0.483768,-0.359811 -1.803246,-0.359811 -1.741841,0 -2.438206,0.3158661 -1.894668,0.8594051 0.308103,0.3081028 3.056142,0.3540125 3.522296,0.058842 z m 4.786934,-0.046253 c 0.135602,-0.083807 0.184413,-0.314289 0.108475,-0.5121852 -0.108272,-0.282152 -0.475188,-0.359811 -1.700009,-0.359811 -0.859065,0 -1.721915,0.06139 -1.917443,0.1364219 -0.424317,0.1628255 -0.469629,0.676376 -0.07457,0.8451468 0.388349,0.1659048 3.280925,0.077462 3.583549,-0.1095722 z m 4.652649,0.052182 c 0.172528,-0.1125071 0.251557,-0.366474 0.175616,-0.5643701 -0.202624,-0.528033 -3.697764,-0.528033 -3.90039,0 -0.07594,0.1978961 -0.01542,0.4356096 0.134471,0.528253 0.39929,0.2467746 3.223689,0.2751872 3.590303,0.036119 z m 3.35193,-0.4184888 c -0.05698,-0.2958706 -0.296953,-0.393316 -0.968597,-0.393316 -0.671645,0 -0.911619,0.097445 -0.968597,0.393316 -0.06336,0.3290241 0.09496,0.393316 0.968597,0.393316 0.873633,0 1.031961,-0.064295 0.968597,-0.393316 z M 15.799795,12.491063 c -0.123614,-0.09082 -0.224752,-0.771953 -0.224752,-1.513634 0,-1.2324246 0.161832,-1.6728829 0.618068,-1.6821971 0.09271,-0.00187 0.168563,0.7550961 0.168563,1.6821971 0,1.63165 -0.08598,1.863271 -0.561879,1.513634 z m 6.227021,-1.457445 0.06604,-1.6294519 1.96658,-0.064941 1.966579,-0.064941 v 1.6943899 1.694389 h -2.032618 -2.032613 z m 5.797208,1.424253 -1.236135,-0.13193 V 10.977429 9.6289178 l 0.967437,-0.069706 c 0.65896,-0.047485 1.012056,-0.190811 1.107367,-0.4495035 0.23382,-0.6346397 0.535873,-0.7099075 2.863246,-0.713482 l 2.241026,-0.00348 -1.454395,1.4704697 c -1.311624,1.326121 -1.462024,1.419888 -1.532118,0.955196 -0.04274,-0.283401 -0.190944,-0.65301 -0.329325,-0.8213556 -1.059493,-1.2889078 -3.191512,0.067659 -2.407796,1.5320416 0.287347,0.536914 1.261657,0.992756 1.632295,0.763689 0.142348,-0.08798 0.175124,-0.04274 0.08025,0.110769 -0.0882,0.142711 -0.280821,0.242993 -0.428042,0.222844 -0.147222,-0.02015 -0.823936,-0.096 -1.503812,-0.168565 z M 16.811179,10.97743 V 9.4894082 l 0.815979,0.069757 0.81598,0.069757 v 1.3485118 1.348513 l -0.81598,0.06976 -0.815979,0.06976 z m 2.022767,0 V 9.5165432 h 0.786632 0.786632 v 1.4608868 1.460888 h -0.786632 -0.786632 z m 2.022768,0 c 0,-1.148732 0.07203,-1.4608868 0.337128,-1.4608868 0.265092,0 0.337127,0.3121548 0.337127,1.4608868 0,1.148733 -0.07203,1.460888 -0.337127,1.460888 -0.265092,0 -0.337128,-0.312155 -0.337128,-1.460888 z m 7.788776,0.600371 c -0.522533,-0.57739 -0.462916,-1.092292 0.174846,-1.510171 0.757652,-0.4964319 1.47596,-0.1083486 1.47596,0.797425 0,1.020113 -0.986991,1.446254 -1.650806,0.712746 z M 67.829872,10.752679 66.609091,9.5165432 h 8.589086 8.58908 v 1.2361358 1.236135 h -7.3683 -7.368304 z m 16.388161,1.179947 c -0.01028,-0.0309 -0.044,-0.283749 -0.07484,-0.56188 -0.05437,-0.490487 0.0034,-0.505691 1.929125,-0.505691 1.091857,0 1.985205,-0.06933 1.985205,-0.154079 0,-0.08474 -0.219908,-0.388158 -0.488684,-0.674256 l -0.48868,-0.5201768 h 7.051446 c 3.958627,0 6.957785,0.084894 6.837915,0.1935512 -0.32714,0.2965606 -6.892637,2.0539686 -7.673414,2.0539686 -0.37868,0 -0.814408,-0.151709 -0.968296,-0.337129 -0.433732,-0.522617 -2.302383,-0.447871 -2.809397,0.112377 -0.359159,0.396865 -0.692231,0.449503 -2.844234,0.449503 -1.340589,0 -2.445866,-0.02529 -2.45617,-0.05619 z M 51.464927,10.584114 c 0.06893,-0.714897 0.09617,-0.7319107 1.279774,-0.7993966 1.598465,-0.091139 1.773924,-0.00246 1.65105,0.8347666 -0.101936,0.694542 -0.103123,0.695074 -1.551633,0.695074 h -1.449619 z m 6.833909,0.224753 c 0.596429,-1.0483965 0.674645,-1.0675721 4.354526,-1.0675721 h 3.519149 l 0.645978,0.6742561 0.645977,0.674256 h -4.66273 c -3.665586,0 -4.628548,-0.06008 -4.5029,-0.28094 z m 59.410444,-1.0538559 -0.47753,-1.1100431 -2.84096,0.00255 -2.84095,0.00255 -0.84568,-0.906611 c -0.59329,-0.6360512 -0.84567,-1.11043 -0.84567,-1.5895717 V 5.4709268 h 5.59127 c 6.26302,0 6.27194,0.00221 5.99407,1.4833509 -0.0979,0.5216246 -0.30263,0.8532269 -0.57008,0.9231643 -0.40467,0.1058252 -0.40405,0.1401543 0.0201,1.1298395 0.66817,1.5587615 0.46418,1.8576915 -1.26763,1.8576915 h -1.43949 z M 84.314412,10.134611 c -0.236361,-0.3824406 0.236056,-0.6180678 1.23918,-0.6180678 0.934011,0 1.604946,0.2771699 1.604946,0.6630178 0,0.189793 -2.725669,0.146715 -2.844126,-0.04495 z M 29.213092,7.4375876 c 0.06875,-0.484071 0.175478,-0.5084232 2.496269,-0.5695688 1.844215,-0.048589 2.49967,0.011349 2.738762,0.2504383 0.615137,0.6151363 -0.08435,0.8248219 -2.751521,0.8248219 -2.521416,0 -2.554376,-0.00671 -2.48351,-0.5056914 z M 26.484474,6.0436844 C 26.335517,5.8642029 26.249113,5.5355033 26.292466,5.3132405 c 0.07118,-0.3648923 0.310115,-0.396216 2.462007,-0.3227517 1.588684,0.054238 2.434682,-0.00195 2.537649,-0.1685635 C 31.377077,4.6844663 31.898912,4.572 32.451756,4.572 c 0.752403,0 1.041528,0.098907 1.149735,0.393316 0.07951,0.2163242 0.278612,0.4741954 0.442452,0.5730482 0.163836,0.098852 0.297888,0.3264137 0.297888,0.5056914 0,0.4828369 -7.456623,0.4824844 -7.857357,-3.822e-4 z M 38.45692,6.0023413 c -0.252457,-0.6578927 0.251731,-1.0891522 1.358167,-1.1617128 0.824388,-0.054068 1.044551,0.00518 1.044551,0.2809398 0,0.4461327 0.361092,0.4545108 0.530781,0.012317 0.09776,-0.2547561 0.509618,-0.3371279 1.68564,-0.3371279 1.274241,0 1.5839,0.071278 1.708743,0.3933152 0.145215,0.3745872 0.166267,0.3745872 0.442139,0 0.360945,-0.4900989 1.476248,-0.5325487 1.476248,-0.056183 0,0.4362901 0.36336,0.4362901 0.530781,0 0.09776,-0.254756 0.509618,-0.3371278 1.685639,-0.3371278 1.274242,0 1.583901,0.071278 1.708745,0.3933151 0.145214,0.3745873 0.166266,0.3745873 0.442138,0 0.377612,-0.5127308 1.382148,-0.5127308 1.579691,0 0.144321,0.3745873 0.162051,0.3745873 0.372343,0 0.323905,-0.5769676 3.225709,-0.5769676 3.449378,0 0.145214,0.3745873 0.166267,0.3745873 0.442139,0 0.377545,-0.5126408 1.381896,-0.5126408 1.580628,0 0.145215,0.3745873 0.166268,0.3745873 0.44214,0 0.421494,-0.5723159 3.156778,-0.5723159 3.378644,0 0.145214,0.3745873 0.166267,0.3745873 0.442139,0 0.377544,-0.5126408 1.381896,-0.5126408 1.580628,0 0.145214,0.3745873 0.166267,0.3745873 0.442139,0 0.407473,-0.5532788 3.15677,-0.5741762 3.367279,-0.025594 0.130646,0.3404595 0.171232,0.3404595 0.547434,0 0.532939,-0.4823033 1.294892,-0.4691861 1.486699,0.025594 0.145215,0.3745873 0.166267,0.3745873 0.442139,0 0.397035,-0.5391047 3.151571,-0.5726421 3.44854,-0.041988 0.1783,0.3186047 0.223775,0.3186047 0.488192,0 0.391431,-0.471646 1.275387,-0.4463068 1.46468,0.041988 0.145215,0.3745873 0.166267,0.3745873 0.442139,0 0.419263,-0.5692868 3.146374,-0.5692868 3.487846,0 0.224682,0.3745873 0.247158,0.3745873 0.47184,0 0.305481,-0.5092795 1.2443,-0.5092795 1.441721,0 0.145215,0.3745873 0.166273,0.3745873 0.442142,0 0.419266,-0.5692868 3.146379,-0.5692868 3.487852,0 0.224682,0.3745873 0.24715,0.3745873 0.471839,0 0.305473,-0.5092795 1.244292,-0.5092795 1.441723,0 0.145214,0.3745873 0.166272,0.3745873 0.442141,0 0.419266,-0.5692868 3.146378,-0.5692868 3.487842,0 0.22469,0.3745873 0.247158,0.3745873 0.471848,0 0.305473,-0.5092795 1.244291,-0.5092795 1.441722,0 0.145214,0.3745873 0.166264,0.3745873 0.442142,0 0.395226,-0.536649 3.499011,-0.58649 3.499011,-0.056183 0,0.43629 0.363364,0.43629 0.530783,0 0.173858,-0.4530634 1.183361,-0.4303582 1.360251,0.030589 0.130647,0.3404595 0.171225,0.3404595 0.547432,0 0.541282,-0.4898558 3.295902,-0.5269015 3.480132,-0.046805 0.0677,0.1765051 0.40639,0.3534969 0.75258,0.3933152 0.38368,0.044129 0.65854,0.2259562 0.70401,0.4657134 0.0708,0.3731475 -1.62657,0.3933161 -33.099863,0.3933161 -30.506107,0 -33.185795,-0.029578 -33.315537,-0.3676769 z"
       id="path991" />
  </g>
</svg>
