<?xml version="1.0" encoding="UTF-8" standalone="no"?>
<svg
   xmlns:dc="http://purl.org/dc/elements/1.1/"
   xmlns:cc="http://creativecommons.org/ns#"
   xmlns:rdf="http://www.w3.org/1999/02/22-rdf-syntax-ns#"
   xmlns:svg="http://www.w3.org/2000/svg"
   xmlns="http://www.w3.org/2000/svg"
   xmlns:sodipodi="http://sodipodi.sourceforge.net/DTD/sodipodi-0.dtd"
   xmlns:inkscape="http://www.inkscape.org/namespaces/inkscape"
   width="383.35599"
   height="128"
   viewBox="0 0 101.42959 33.866667"
   version="1.1"
   id="svg8"
   inkscape:version="1.0.1 (3bc2e813f5, 2020-09-07)"
   sodipodi:docname="M600 Spitfire.svg">
  <defs
     id="defs2" />
  <sodipodi:namedview
     id="base"
     pagecolor="#ffffff"
     bordercolor="#666666"
     borderopacity="1.0"
     inkscape:pageopacity="0.0"
     inkscape:pageshadow="2"
     inkscape:zoom="0.98994949"
     inkscape:cx="123.31803"
     inkscape:cy="60.180368"
     inkscape:document-units="mm"
     inkscape:current-layer="layer1"
     inkscape:document-rotation="0"
     showgrid="false"
     units="px"
     inkscape:window-width="1366"
     inkscape:window-height="705"
     inkscape:window-x="-8"
     inkscape:window-y="-8"
     inkscape:window-maximized="1" />
  <metadata
     id="metadata5">
    <rdf:RDF>
      <cc:Work
         rdf:about="">
        <dc:format>image/svg+xml</dc:format>
        <dc:type
           rdf:resource="http://purl.org/dc/dcmitype/StillImage" />
        <dc:title></dc:title>
      </cc:Work>
    </rdf:RDF>
  </metadata>
  <g
     inkscape:label="Layer 1"
     inkscape:groupmode="layer"
     id="layer1">
    <path
       style="fill:#273839;fill-opacity:1;stroke-width:0.182441"
       d="m 78.953131,30.596929 c -0.749808,-0.267976 -0.997653,-1.319104 -0.319274,-1.354079 0.308905,-0.01593 0.331483,-0.04181 0.09122,-0.104598 -0.175605,-0.04589 -0.319274,-0.152798 -0.319274,-0.237576 0,-0.08478 -0.04661,-0.275557 -0.103535,-0.423953 -0.08085,-0.210713 0.175126,-0.319613 1.168619,-0.49716 0.699689,-0.125042 1.409136,-0.174784 1.576546,-0.110541 0.423266,0.162423 0.273493,0.701484 -0.27152,0.977228 -0.249965,0.12647 -0.346461,0.231155 -0.214435,0.232634 0.887218,0.0099 1.243605,-0.889482 0.535329,-1.351053 -0.361343,-0.235484 -0.563385,-0.234128 -1.687578,0.01131 -1.544462,0.337204 -2.280507,0.158473 -2.280507,-0.553768 0,-0.245133 -0.04985,-0.575558 -0.110745,-0.734278 -0.07688,-0.200387 -0.0052,-0.288583 0.233905,-0.288583 0.18956,0 0.777386,-0.112252 1.306294,-0.249449 0.884212,-0.229363 0.993926,-0.222061 1.362457,0.09066 l 0.400799,0.340111 -0.511883,0.45666 c -0.336026,0.299779 -0.417927,0.456667 -0.238396,0.456667 0.297697,0 0.841502,-0.671956 0.841502,-1.039811 0,-0.125875 -0.193293,-0.355513 -0.429547,-0.51031 -0.391101,-0.256262 -0.566618,-0.248589 -1.961233,0.08574 -1.733838,0.415643 -1.805363,0.424563 -1.805363,0.225139 0,-0.07953 0.356815,-0.240032 0.792901,-0.356669 0.870958,-0.232945 1.943715,-1.112031 1.943715,-1.592807 0,-0.168146 -0.239325,-0.545039 -0.531824,-0.837545 -0.615315,-0.615318 -1.071181,-0.593384 -2.7292,0.131322 -0.871672,0.381 -1.257015,0.428573 -3.471388,0.428573 -3.194698,0 -3.301825,-0.05953 -3.301825,-1.834751 v -1.266741 h 2.382497 c 1.567364,0 2.343289,0.06344 2.267902,0.185417 -0.06303,0.101979 -0.183211,0.143011 -0.267073,0.09118 -0.08386,-0.05183 -0.362166,0.263578 -0.618454,0.700904 -0.396927,0.677298 -1.154076,1.394226 -1.472443,1.394226 -0.05068,0 0.11063,-0.298801 0.358457,-0.664002 0.247835,-0.3652 0.450608,-0.866122 0.450608,-1.113159 0,-0.44792 -0.0035,-0.4488 -1.322696,-0.318975 -0.727485,0.0716 -1.338486,0.143613 -1.357779,0.160025 -0.01931,0.01641 -0.05482,0.411705 -0.07901,0.878426 -0.06723,1.299233 0.124538,1.422566 2.212167,1.422566 2.060868,0 2.24361,-0.11208 2.168706,-1.330133 -0.04393,-0.713892 0.03778,-0.905287 0.743192,-1.741889 0.93826,-1.112721 1.470356,-1.304095 3.629875,-1.305536 1.3834,-9.57e-4 1.511811,0.02857 1.38611,0.318254 -0.258044,0.594679 -0.301417,1.461783 -0.09262,1.851909 0.114295,0.213573 0.553201,0.604788 0.975348,0.869363 0.96361,0.60394 3.72552,3.271101 4.068322,3.928752 0.141238,0.270959 0.256799,0.747099 0.256799,1.058093 0,1.07761 -0.400961,1.492797 -2.510693,2.59978 -1.874428,0.98352 -2.478374,1.160657 -3.14497,0.922423 z m 1.003418,-1.332915 c 0.351793,-0.151168 0.350541,-0.157255 -0.03483,-0.169617 -0.219847,-0.0071 -0.450468,0.06927 -0.512479,0.169617 -0.133366,0.215787 0.04514,0.215787 0.547318,0 z m -1.094641,-1.824406 c 0.240598,-0.103385 0.271666,-0.160211 0.09122,-0.166824 -0.150517,-0.0055 -0.396808,0.06955 -0.547325,0.166824 -0.333493,0.21552 -0.04543,0.21552 0.456102,0 z m -32.182045,1.596355 c -0.08507,-0.22577 -0.212712,-0.677311 -0.283639,-1.003424 l -0.128961,-0.592931 h 1.588559 1.58856 l -0.12254,0.766321 c -0.172787,1.080546 -0.366449,1.240526 -1.501696,1.240526 -0.854645,0 -1.006152,-0.05454 -1.140283,-0.410492 z m -0.26198,-2.082865 c -0.06689,-0.06689 -0.121628,-0.354238 -0.121628,-0.638542 v -0.516915 h 1.550746 1.550745 v 0.638542 0.638543 h -1.429118 c -0.786016,0 -1.483852,-0.05473 -1.550745,-0.121628 z m 13.26234,-0.122594 c 0.06468,-0.184494 0.120235,-2.372814 0.123456,-4.862937 l 0.0055,-4.527498 4.372238,-0.02486 4.372246,-0.02486 v 1.4778 c 0,0.938742 -0.06654,1.43667 -0.182445,1.365045 -0.100342,-0.06202 -0.182438,-0.474463 -0.182438,-0.916551 0,-0.607971 -0.08597,-0.849808 -0.352887,-0.992657 -0.402056,-0.215173 -6.917694,-0.259457 -7.244039,-0.04923 -0.114436,0.07372 -0.237588,0.561086 -0.273658,1.083035 -0.03606,0.52195 -0.0095,0.891392 0.05903,0.820983 0.06854,-0.07041 0.15065,-0.456409 0.182438,-0.857778 l 0.05778,-0.729763 h 3.648816 3.648808 l 0.05502,0.852058 c 0.03027,0.468631 0.173923,0.950749 0.319271,1.071372 0.206386,0.17129 0.264259,0.748763 0.264259,2.63712 0,2.851489 -0.103583,3.503018 -0.599086,3.768203 -0.322387,0.172534 -0.349479,0.154617 -0.216701,-0.14331 0.174984,-0.392657 0.449635,-5.331077 0.315864,-5.679665 -0.06918,-0.180281 -0.93536,-0.221477 -3.85396,-0.183298 l -3.764727,0.04925 -0.09122,2.775897 c -0.07935,2.414686 -0.136136,2.818264 -0.436396,3.10149 -0.331607,0.312803 -0.34055,0.312415 -0.227569,-0.0099 z m 0.78671,-0.285037 c 0.06371,-0.260791 0.205855,-0.534481 0.315836,-0.608202 0.13775,-0.09233 0.129006,-0.134906 -0.02806,-0.13683 -0.242753,-0.0029 -0.31503,-0.584764 -0.09944,-0.800357 0.179908,-0.179906 0.196981,-1.574165 0.01931,-1.574165 -0.161104,0 -0.100866,-0.655161 0.07655,-0.832573 0.06172,-0.06172 0.06675,-0.392228 0.01124,-0.734464 -0.106272,-0.65487 0.176246,-0.870818 0.396375,-0.30298 0.117877,0.304069 0.134964,0.304069 0.358905,0 0.204021,-0.277032 0.565106,-0.319271 2.729301,-0.319271 2.143558,0 2.510317,0.04207 2.60901,0.299257 0.104956,0.273516 0.134812,0.271943 0.347018,-0.01827 0.127696,-0.17464 0.31974,-0.263412 0.426763,-0.19727 0.24367,0.150598 0.25733,0.828485 0.01669,0.828485 -0.101638,0 -0.129378,0.242522 -0.06475,0.565789 0.07667,0.383349 0.0311,0.62314 -0.14139,0.743652 -0.196037,0.136977 -0.202125,0.199133 -0.02648,0.270397 0.270258,0.109661 0.309555,0.79189 0.04565,0.79189 -0.100342,0 -0.182445,0.0821 -0.182445,0.182441 0,0.100342 0.122634,0.182441 0.272519,0.182441 0.333516,0 0.262377,0.764311 -0.08182,0.879045 -0.186852,0.06228 -0.186411,0.105494 0.0021,0.222114 0.18512,0.11441 0.16795,0.245997 -0.08184,0.627231 l -0.316113,0.482446 -3.360449,-0.03832 -3.36045,-0.03832 0.115876,-0.474165 z m -1.589706,-0.702215 c -0.0041,-0.476627 -0.01406,-1.400233 -0.02206,-2.052458 -0.038,-3.07236 0.02206,-3.831254 0.303176,-3.831254 0.233396,0 0.273665,0.496644 0.273665,3.375153 0,2.878508 -0.04027,3.375151 -0.273665,3.375151 -0.2038,0 -0.275554,-0.221218 -0.281091,-0.866592 z m 16.791971,-0.680677 c 0,-0.3877 -0.137431,-0.77945 -0.346947,-0.988964 -0.340961,-0.340965 -0.333391,-0.352121 0.439628,-0.647337 1.314526,-0.502024 2.056035,-0.558517 2.465619,-0.187847 0.923124,0.835418 0.03262,1.851746 -2.056587,2.347188 -0.474813,0.112599 -0.501713,0.08456 -0.501713,-0.52304 z m -29.307111,-0.0038 c -0.127898,-0.333295 -0.0084,-1.105544 0.162218,-1.048659 0.07526,0.02509 0.75777,0.04561 1.516696,0.04561 h 1.379864 l -0.05717,0.578606 -0.05717,0.578607 -1.424876,0.0463 c -1.062448,0.03452 -1.448959,-0.01647 -1.519562,-0.200456 z m 44.495298,-0.756566 c -0.312513,-0.129431 -0.285989,-0.69989 0.06399,-1.376731 0.224398,-0.433949 0.26353,-0.83132 0.168882,-1.715147 -0.111186,-1.038217 -0.19305,-1.213457 -0.839926,-1.797864 l -0.716723,-0.64752 H 86.79753 c -2.736092,0 -2.736092,0 -2.371214,-0.364882 0.318073,-0.31807 0.364885,-0.608135 0.364885,-2.260989 0,-1.538096 0.05295,-1.916442 0.280644,-2.003801 0.38082,-0.146132 2.835372,1.642923 2.708323,1.974016 -0.05214,0.13586 -6.92e-4,0.30506 0.113897,0.375998 0.264833,0.163674 5.43329,0.18974 5.594815,0.02822 0.06613,-0.06616 0.764985,-0.120285 1.55296,-0.120285 h 1.432679 l -0.04919,3.968085 -0.04919,3.968084 -2.645392,0.03364 c -1.454962,0.0185 -2.748008,-0.0089 -2.873436,-0.06082 z m 5.427605,-3.712856 v -3.101491 h -1.058154 c -0.581986,0 -1.156674,0.09852 -1.277088,0.218929 -0.235738,0.235744 -0.325342,5.63438 -0.0973,5.862425 0.06686,0.06689 0.641581,0.121629 1.277088,0.121629 h 1.155452 z m -2.250094,2.797423 c -0.227285,-0.227274 -0.138168,-5.26208 0.0973,-5.497545 0.120406,-0.12041 0.613002,-0.218928 1.094641,-0.218928 h 0.875715 v 2.91905 2.919051 h -0.973013 c -0.535167,0 -1.027749,-0.05474 -1.094642,-0.121628 z m -1.398717,-2.06766 c 0,-0.100343 -0.0821,-0.182441 -0.182439,-0.182441 -0.100347,0 -0.182439,0.0821 -0.182439,0.182441 0,0.100342 0.08209,0.18244 0.182439,0.18244 0.10034,0 0.182439,-0.0821 0.182439,-0.18244 z m -0.279811,-2.444264 c -0.167306,-0.511988 -0.398567,-0.991205 -0.513907,-1.064925 -0.11534,-0.07372 -1.424733,-0.135294 -2.909769,-0.136831 -2.059113,-0.0021 -2.827824,-0.06887 -3.238314,-0.28114 -0.590101,-0.305151 -0.725264,-0.177496 -0.218993,0.206821 0.232108,0.176194 1.075304,0.243946 3.08846,0.248164 3.426106,0.0071 3.30405,-0.06965 3.632117,2.286311 l 0.127026,0.912203 0.168787,-0.619857 c 0.124912,-0.458735 0.08972,-0.861826 -0.135407,-1.550746 z m 3.928622,-1.743046 c 0,-0.104427 -1.602989,-0.176033 -4.022422,-0.179681 l -4.022416,-0.006 -0.766649,-0.516913 c -1.202846,-0.811021 -2.134953,-1.352336 -2.134953,-1.239859 0,0.05661 0.676589,0.555889 1.503519,1.109524 l 1.503511,1.006608 h 3.969705 c 2.390317,0 3.969705,-0.06907 3.969705,-0.173615 z m 0.42661,6.90021 c 0.06362,-0.237816 0.116856,-2.753777 0.118226,-5.591025 l 0.0029,-5.158634 0.592936,0.303802 c 0.84525,0.433087 0.896665,0.563015 0.785846,1.986076 -0.05471,0.702397 -0.18168,2.426461 -0.282182,3.831254 -0.297528,4.158592 -0.344038,4.412894 -0.869978,4.757506 -0.454953,0.298092 -0.461043,0.29583 -0.347338,-0.128979 z m -50.339133,-0.50843 c -0.04192,-0.0418 -0.07621,-0.216517 -0.07621,-0.388237 0,-0.171722 -0.184721,-0.441078 -0.410491,-0.598568 -0.382863,-0.267069 -0.259323,-0.286988 1.83542,-0.295913 l 2.245911,-0.0096 -0.05663,0.672502 -0.05663,0.672502 -1.702584,0.01166 c -0.936421,0.0064 -1.736879,-0.02256 -1.778796,-0.06437 z M 30.177598,21.699063 c -0.766936,-0.58103 -0.163461,-0.644879 6.095189,-0.644879 6.37255,0 6.635985,0.03057 5.973286,0.693275 -0.264707,0.264707 -1.058156,0.292067 -1.058156,0.03649 0,-0.100342 -0.2004,-0.18244 -0.445334,-0.18244 -0.244934,0 -0.496074,0.0821 -0.55809,0.18244 -0.06202,0.100343 -0.313155,0.182441 -0.55809,0.182441 -0.244933,0 -0.445333,-0.0821 -0.445333,-0.182441 0,-0.100342 -0.2004,-0.18244 -0.445334,-0.18244 -0.244933,0 -0.496074,0.0821 -0.55809,0.18244 -0.06202,0.100343 -0.313155,0.182441 -0.558089,0.182441 -0.244934,0 -0.445334,-0.0821 -0.445334,-0.182441 0,-0.100342 -0.2004,-0.18244 -0.445334,-0.18244 -0.244934,0 -0.496075,0.0821 -0.55809,0.18244 -0.06202,0.100343 -0.313155,0.182441 -0.55809,0.182441 -0.244933,0 -0.445333,-0.0821 -0.445333,-0.182441 0,-0.100342 -0.241449,-0.18244 -0.536555,-0.18244 -0.295105,0 -0.587295,0.0821 -0.649309,0.18244 -0.06202,0.100343 -0.313156,0.182441 -0.55809,0.182441 -0.244934,0 -0.445334,-0.0821 -0.445334,-0.182441 0,-0.100342 -0.2004,-0.18244 -0.445334,-0.18244 -0.244934,0 -0.496074,0.0821 -0.558089,0.18244 -0.166425,0.269282 -1.406924,0.210686 -1.797067,-0.08488 z m 14.110361,-0.100264 c -0.291861,-0.545348 0.03548,-0.601947 2.944485,-0.509108 2.502983,0.07988 2.880768,0.176522 2.892271,0.739866 0.0015,0.07526 -1.266841,0.136831 -2.818618,0.136831 -2.641616,0 -2.833947,-0.02342 -3.018138,-0.367589 z M 30.241478,20.337111 c 0,-0.415534 -0.09145,-0.54762 -0.410491,-0.592932 -0.395931,-0.05623 -0.410492,-0.126252 -0.410492,-1.973926 v -1.915627 l 0.848989,-0.05489 0.84899,-0.05489 0.125457,0.742576 c 0.069,0.408417 0.06846,1.15695 -0.0013,1.663408 -0.115707,0.841286 -0.09286,0.92967 0.264487,1.023117 0.523689,0.136948 0.377559,0.497639 -0.230787,0.569656 -0.404536,0.0479 -0.487554,0.148843 -0.487554,0.592932 0,0.354109 -0.0926,0.535204 -0.273662,0.535204 -0.180997,0 -0.27366,-0.181031 -0.27366,-0.534633 z m 1.094644,0.272752 c 0,-0.144033 0.533639,-0.7333 1.185864,-1.309481 1.020148,-0.901209 1.185864,-1.134 1.185864,-1.665866 0,-0.566836 0.04173,-0.613461 0.501712,-0.560534 l 0.501712,0.05772 0.03172,1.870017 0.03172,1.870017 h -1.7193 c -1.372263,0 -1.7193,-0.05286 -1.7193,-0.26188 z m 3.77044,0.140254 c -0.15416,-0.15416 -0.157298,-1.756485 -0.0056,-2.86318 0.111877,-0.816235 0.137925,-0.846447 0.729762,-0.846447 0.601545,0 0.613745,0.01559 0.613745,0.784495 0,0.431472 -0.100567,0.885061 -0.223482,1.007977 -0.176349,0.176349 -0.176349,0.298954 0,0.581335 0.122924,0.196819 0.223492,0.605261 0.223492,0.907649 0,0.501477 -0.05345,0.549798 -0.608136,0.549798 -0.334475,0 -0.662869,-0.05474 -0.729762,-0.121627 z m 1.641967,0 c -0.193201,-0.1932 -0.141637,-0.76349 0.104699,-1.157934 0.156431,-0.250487 0.170515,-0.461002 0.04561,-0.681676 -0.09939,-0.1756 -0.155471,-0.668189 -0.124616,-1.094644 0.05435,-0.751182 0.0757,-0.775373 0.684153,-0.775373 h 0.628052 v 1.915627 1.915627 h -0.608135 c -0.334476,0 -0.662869,-0.05474 -0.729763,-0.121627 z m 1.702779,-1.794 V 17.04049 h 0.638541 0.638543 v 1.627044 c 0,0.894875 0.04983,1.756907 0.110739,1.915627 0.0899,0.234281 -0.03025,0.288583 -0.638541,0.288583 h -0.749282 z m 1.641965,0 V 17.04049 h 0.640605 0.640607 l -0.03801,1.505135 c -0.02091,0.827825 0.02475,1.689857 0.101451,1.915627 0.129539,0.381273 0.08665,0.410492 -0.60259,0.410492 h -0.742057 z m 1.641966,1.313573 c 0,-0.33113 0.09686,-0.698914 0.215242,-0.817297 0.165364,-0.165363 0.162139,-0.314469 -0.01393,-0.643429 -0.126037,-0.235503 -0.202373,-0.709227 -0.169633,-1.05272 0.05503,-0.577393 0.111166,-0.628808 0.743678,-0.681157 l 0.684159,-0.05663 v 1.926639 1.926641 h -0.729763 c -0.703964,0 -0.729763,-0.02129 -0.729763,-0.602054 z m 1.824406,-1.313573 V 17.04049 h 0.638543 0.638542 v 1.627044 c 0,0.894875 0.04983,1.756907 0.11074,1.915627 0.0899,0.234281 -0.03025,0.288583 -0.638542,0.288583 h -0.749283 z m 1.719903,1.673137 c -0.05118,-0.133369 -0.06912,-0.974876 -0.03988,-1.870017 l 0.05317,-1.627527 h 0.638542 c 0.608303,0 0.641259,0.033 0.695926,0.696884 0.03156,0.383287 -0.0392,0.813258 -0.157242,0.955491 -0.119232,0.143665 -0.155429,0.401541 -0.08144,0.5802 0.07325,0.176877 0.166467,0.588414 0.207148,0.914527 0.0713,0.571625 0.05066,0.592932 -0.574599,0.592932 -0.371151,0 -0.688368,-0.103723 -0.741618,-0.24249 z m 1.685657,0.120863 c -0.192189,-0.192189 -0.141493,-1.155458 0.06081,-1.155458 0.23107,0 0.238679,-0.600087 0.01053,-0.830105 -0.09455,-0.09532 -0.124792,-0.522236 -0.06719,-0.948691 0.09967,-0.738015 0.134323,-0.775373 0.719235,-0.775373 h 0.614521 v 1.915627 1.915627 h -0.608136 c -0.334475,0 -0.662869,-0.05474 -0.729762,-0.121627 z m 1.702778,-1.794 V 17.04049 h 0.626805 0.626803 l 0.05735,1.916012 0.05735,1.916011 -0.684152,-3.84e-4 -0.684153,-3.85e-4 z m 1.641966,0 V 17.04049 h 0.729763 0.729763 v 0.741756 c 0,0.407966 -0.08971,0.909371 -0.199342,1.114231 -0.144163,0.26937 -0.144163,0.427655 0,0.571816 0.109637,0.109638 0.199342,0.470267 0.199342,0.801397 0,0.580768 -0.0258,0.602054 -0.729763,0.602054 h -0.729763 z m 1.716504,1.458011 c -0.06667,-0.265638 -0.03434,-0.567763 0.07216,-0.674258 0.119908,-0.119906 0.153181,-0.667397 0.08789,-1.446168 -0.09997,-1.192484 -0.0861,-1.253212 0.286277,-1.253212 0.372701,0 0.391343,0.08256 0.391343,1.733186 0,0.953252 0.02052,1.79476 0.04561,1.870017 0.02509,0.07526 -0.136208,0.162685 -0.358431,0.194285 -0.307249,0.04369 -0.432983,-0.05785 -0.524844,-0.42385 z m 1.202546,-1.153423 v -1.611039 l 0.793829,-0.570086 c 0.701261,-0.503603 0.959522,-0.576357 2.214579,-0.623859 1.286978,-0.04871 1.435132,-0.09282 1.573585,-0.468509 0.124083,-0.336684 0.02868,-0.552184 -0.50697,-1.145076 -0.362905,-0.401687 -0.616641,-0.773522 -0.563864,-0.8263 0.05275,-0.05278 0.528145,0.400932 1.056374,1.008245 l 0.960404,1.104205 h 4.61411 c 2.879281,0 4.656508,0.0686 4.726868,0.182441 0.07385,0.119488 -1.254251,0.182441 -3.848878,0.182441 -3.944649,0 -3.964197,0.0019 -4.559607,0.456102 -0.708572,0.540452 -0.8453,0.553618 -1.495342,0.143991 -0.486092,-0.306312 -0.489877,-0.305464 -0.203753,0.04561 0.465233,0.570841 0.553707,1.008484 0.336765,1.665823 -0.398203,1.20657 -1.874624,1.519323 -2.74976,0.582485 -0.294068,-0.314799 -0.560726,-0.540569 -0.59257,-0.501712 -0.03186,0.03885 -0.288772,0.501666 -0.570952,1.028464 -0.33362,0.622847 -0.630514,0.957813 -0.848933,0.957813 -0.300861,0 -0.335885,-0.167984 -0.335885,-1.611038 z m 4.673909,-0.494502 c 0.38752,-0.591429 0.113595,-1.297035 -0.570139,-1.468642 -0.918895,-0.230628 -1.573923,0.969628 -0.898029,1.645524 0.437113,0.437111 1.119757,0.354868 1.468168,-0.176882 z m -1.402668,-0.19026 c -0.321106,-0.386907 -0.01096,-0.878618 0.60072,-0.95239 0.509528,-0.06145 0.769353,0.336063 0.589679,0.902164 -0.133108,0.419376 -0.858627,0.449988 -1.190399,0.05023 z m 0.825881,-0.245762 c 0.134923,-0.218309 -0.208275,-0.434616 -0.451282,-0.284429 -0.204035,0.126101 -0.07009,0.454263 0.185417,0.454263 0.0885,0 0.208137,-0.07643 0.265865,-0.169834 z m 11.665436,1.96421 c -0.07223,-0.11686 -0.169964,-0.814695 -0.217204,-1.550746 -0.08588,-1.338179 -0.08585,-1.338274 0.383446,-1.338274 0.258129,0 0.527952,0.09486 0.599603,0.210791 0.09613,0.15554 1.437882,0.181716 5.119101,0.09987 4.085361,-0.09083 4.98883,-0.06697 4.98883,0.131752 0,0.133471 0.131106,0.351483 0.291351,0.484472 0.264546,0.219557 0.260348,0.253995 -0.04558,0.374398 -0.185333,0.07293 -1.316404,0.138369 -2.513499,0.145422 l -2.176537,0.01283 -0.764536,0.820983 -0.764533,0.820983 h -2.384551 c -1.617591,0 -2.426786,-0.06834 -2.515861,-0.212472 z m 4.214693,-1.703156 c 0,-0.45553 -0.07316,-0.547321 -0.436216,-0.547321 -0.583998,0 -0.904083,0.506296 -0.572594,0.905715 0.135915,0.163766 0.418502,0.27327 0.627964,0.243343 0.289441,-0.04136 0.380846,-0.185772 0.380846,-0.601737 z m -63.186805,0.845427 c -0.2623369,-0.875601 -0.2745623,-2.484429 -0.02246,-2.955487 0.106404,-0.19882 0.380554,-0.352889 0.627927,-0.352889 0.433094,0 0.437578,0.01777 0.329604,1.305688 -0.08096,0.965729 -0.05445,1.271686 0.101834,1.175097 0.116216,-0.07183 0.212558,-0.556761 0.214094,-1.077636 0.0015,-0.520876 0.08238,-1.070194 0.179647,-1.220708 0.09727,-0.150513 0.180907,-0.232612 0.185861,-0.182441 0.01534,0.155383 0.02387,3.356575 0.0098,3.694424 -0.01023,0.246363 -0.173311,0.319271 -0.714142,0.319271 -0.655584,0 -0.714544,-0.04558 -0.912203,-0.705319 z m 2.890172,0.355359 c 0,-0.09214 -0.04983,-0.297381 -0.11074,-0.456101 -0.09225,-0.240411 0.04805,-0.288583 0.840502,-0.288583 0.770594,0 0.931299,0.05197 0.846228,0.273661 -0.05775,0.150513 -0.0241,0.273661 0.07479,0.273661 0.107523,0 0.160229,-0.605085 0.131105,-1.505135 l -0.0487,-1.505136 5.062728,-0.0485 5.062728,-0.0485 v 1.094551 1.09455 l -4.880287,0.04859 -4.880288,0.04859 -0.05717,0.592931 c -0.05681,0.589231 -0.06336,0.592933 -1.049035,0.592933 -0.545525,0 -0.991864,-0.07538 -0.991864,-0.167519 z m 14.52355,-0.668385 c -0.06091,-0.158721 -0.110739,-1.718588 -0.110739,-3.466372 0,-2.703076 0.04088,-3.177791 0.273661,-3.177791 0.232564,0 0.273661,0.46757 0.273661,3.113486 0,1.797314 0.07984,3.262661 0.188858,3.466372 0.156371,0.292178 0.12834,0.352888 -0.16292,0.352888 -0.193479,0 -0.401614,-0.129862 -0.462521,-0.288583 z m 0.885606,-0.0986 c -0.06759,-0.212951 -0.130867,-1.341802 -0.140619,-2.508559 l -0.01773,-2.121378 0.493206,-0.05772 0.493208,-0.05772 v 2.566288 c 0,2.414833 -0.02081,2.566287 -0.352587,2.566287 -0.199126,0 -0.406072,-0.168518 -0.475475,-0.387182 z m 52.732426,0.0223 c -0.323317,-0.357259 -0.318663,-0.36488 0.223043,-0.36488 0.657502,0 1.141247,0.439813 0.678894,0.617236 -0.445026,0.170771 -0.544106,0.143048 -0.901937,-0.252356 z m -55.796694,0.04561 c -0.09718,-0.160968 -0.19433,-1.742276 -0.151312,-2.462948 0.02844,-0.476434 0.07591,-0.501712 0.94215,-0.501712 h 0.912204 v 0.980618 c 0,0.53934 0.05131,1.237176 0.114025,1.550746 l 0.114025,0.570127 h -0.92424 c -0.508332,0 -0.961417,-0.06158 -1.006852,-0.136831 z m 33.336977,-0.151753 c 0.06088,-0.158721 0.11074,-0.528163 0.11074,-0.820983 0,-0.410774 0.08335,-0.532401 0.364876,-0.532401 0.310824,0 0.364884,0.121627 0.364884,0.820984 0,0.763071 -0.03351,0.820982 -0.475623,0.820982 -0.358747,0 -0.448408,-0.07091 -0.364877,-0.288582 z m 24.338872,-2.447755 c 0.0486,-2.430109 0.08952,-2.737505 0.364886,-2.74243 0.26361,-0.0047 0.269082,-0.02877 0.03645,-0.160373 -0.150517,-0.08515 -0.478907,-0.211182 -0.729764,-0.280064 -0.348287,-0.09563 -0.39141,-0.07995 -0.182439,0.06636 0.204899,0.143454 0.01009,0.1923 -0.775375,0.194392 -0.928337,0.0025 -1.049038,-0.03919 -1.049038,-0.362088 0,-0.410816 0.137034,-0.442479 0.809116,-0.186956 0.257381,0.09786 0.467972,0.114351 0.467972,0.03665 0,-0.14896 -1.060068,-0.579457 -1.426868,-0.579457 -0.124199,0 -0.215091,0.269843 -0.215091,0.638543 0,0.608135 0.03041,0.638541 0.638541,0.638541 h 0.63854 v 2.286234 c 0,1.948333 -0.04411,2.303162 -0.298464,2.400764 -0.710448,0.272628 -0.883189,-0.155541 -0.978617,-2.425734 l -0.09122,-2.170043 -1.607268,-0.05287 -1.607261,-0.05287 0.749227,-0.89487 c 0.642576,-0.767482 0.858388,-0.904751 1.516044,-0.964287 l 0.766812,-0.06942 -0.852482,-0.03187 c -0.821702,-0.03072 -0.88344,0.0043 -1.709736,0.97155 l -0.857254,1.003423 h -5.359839 c -3.49258,0 -5.359832,0.06429 -5.359832,0.184558 0,0.121453 2.409037,0.180811 7.045528,0.173601 3.875036,-0.006 7.083165,0.02668 7.129153,0.07267 0.04602,0.04599 0.0257,0.747807 -0.04507,1.559586 l -0.12875,1.47596 h -1.41784 -1.417841 l -0.161754,-0.684153 -0.161747,-0.684152 -8.967554,-0.09122 -8.967557,-0.09122 -0.663606,-0.775373 -0.663613,-0.775373 2.522777,-0.02024 c 1.387526,-0.01113 3.076939,-0.0038 3.754246,0.01638 0.789378,0.02347 1.231476,-0.03477 1.231476,-0.162204 0,-0.119819 -0.406394,-0.198817 -1.02278,-0.198817 -0.83297,0 -1.146152,-0.09311 -1.687579,-0.501712 l -0.664792,-0.501712 -4.880291,0.05143 -4.880285,0.05143 v 0.569783 c 0,0.540439 0.01718,0.554233 0.333636,0.267845 0.292859,-0.265035 0.927043,-0.301937 5.188789,-0.301937 3.039973,0 4.897316,0.06821 4.967912,0.18244 0.113029,0.182886 -3.00793,0.273998 -6.975913,0.203651 -1.386291,-0.02457 -2.009244,0.04016 -2.417336,0.251186 -0.302371,0.156362 -0.549766,0.325859 -0.549766,0.376658 0,0.0508 0.205059,-0.01508 0.455688,-0.146397 0.329651,-0.172723 0.879943,-0.20577 1.989598,-0.119487 1.284598,0.09989 1.640504,0.200571 2.189702,0.619468 1.045128,0.797157 0.885051,1.004209 -0.776359,1.004209 -1.302417,0 -1.500742,0.04969 -2.189289,0.548466 -0.746304,0.540619 -0.757217,0.542577 -0.762685,0.136831 -0.0049,-0.367379 -0.02554,-0.37731 -0.191506,-0.09237 -0.173434,0.297766 -0.842785,0.319272 -9.937467,0.319272 H 33.34301 v 0.792707 c 0,0.949861 -0.401459,1.39658 -1.255082,1.39658 H 31.50012 l 0.03336,-1.687576 c 0.01835,-0.928167 0.07234,-1.790199 0.119981,-1.915627 0.06663,-0.175428 1.346022,-0.228051 5.544523,-0.228051 h 5.457907 l -0.298851,0.456102 -0.298849,0.456101 h -3.53661 c -2.236112,0 -3.53661,0.06709 -3.53661,0.182441 0,0.19348 6.345171,0.261755 7.037918,0.07573 0.20836,-0.05595 0.52087,-0.342174 0.694468,-0.63605 l 0.315631,-0.534323 h 4.266274 c 4.347078,0 4.485278,-0.02092 4.587301,-0.694334 0.02808,-0.18541 -0.02134,-0.190569 -0.222921,-0.02327 -0.218927,0.181692 -0.259013,0.04209 -0.259013,-0.902022 0,-0.82712 0.06521,-1.116983 0.251323,-1.116983 0.138226,0 0.353524,-0.123148 0.47844,-0.273661 0.188387,-0.226994 0.865917,-0.273661 3.973203,-0.273661 h 3.746081 l 0.622138,0.474526 c 0.342169,0.260989 0.661585,0.435077 0.709798,0.386862 0.0482,-0.04821 -0.257785,-0.34171 -0.679997,-0.652208 l -0.767657,-0.564544 -3.710564,0.115431 -3.710562,0.11543 V 10.248201 8.8712009 l 2.55417,-0.02366 c 2.448169,-0.022673 2.554164,-0.00837 2.554164,0.3446069 0,0.3238543 0.118615,0.3682626 0.983649,0.3682626 0.899712,0 0.993509,0.039315 1.099285,0.4607416 0.280615,1.118064 1.593291,1.55148 2.511475,0.829236 0.405904,-0.319283 0.899807,-0.364203 5.315384,-0.483427 2.677344,-0.07229 4.867901,-0.20124 4.867901,-0.286553 0,-0.221514 4.14991,-0.1950646 4.287356,0.02733 0.062,0.100342 0.236261,0.18244 0.387212,0.18244 0.19973,0 0.258891,-0.161413 0.217278,-0.592932 l -0.05714,-0.5929325 -1.55075,-0.01567 -1.550746,-0.01567 1.550746,0.1068957 c 2.995255,0.2064687 1.074958,0.4141938 -3.704212,0.4006973 -2.6286,-0.00743 -5.271867,0.049419 -5.873918,0.126323 -1.384057,0.1767866 -3.230499,0.01972 -3.330386,-0.2832942 -0.05882,-0.1785341 1.146242,-0.2372025 5.550082,-0.2701976 5.578141,-0.04179 5.588628,-0.042585 1.252404,-0.094616 C 66.798821,9.027798 64.933624,8.9319952 64.826483,8.8248551 64.706173,8.7045447 66.794408,8.6595826 71.02374,8.6914209 l 6.378714,0.04802 0.05663,0.7857303 c 0.05633,0.7825118 0.05928,0.7855008 0.715662,0.7297618 0.89394,-0.07591 1.026077,-0.5120684 0.155141,-0.5120684 -0.621132,0 -0.653747,-0.030774 -0.653747,-0.6168473 V 8.509171 L 75.897337,8.3747751 c -0.97833,-0.073918 -4.529088,-0.1238855 -7.890552,-0.1110393 -3.36147,0.012843 -6.44016,0.014198 -6.841528,0.00302 -0.401366,-0.0112 -1.109516,0.055494 -1.573652,0.1481957 -0.464143,0.092703 -2.018034,0.1310808 -3.453097,0.085281 -2.262828,-0.072217 -2.563942,-0.116356 -2.268336,-0.3325125 0.187471,-0.1370832 0.653566,-0.2492423 1.035756,-0.2492423 0.496055,0 0.694891,-0.078306 0.694891,-0.273661 0,-0.2059682 0.220811,-0.273661 0.892684,-0.273661 0.676715,0 0.925604,-0.077243 1.028752,-0.3192712 0.252681,-0.5929502 0.210895,-0.9902574 -0.126324,-1.2008551 -0.220529,-0.1377246 -0.33562,-0.4254776 -0.33562,-0.8391268 0,-0.5719275 0.02248,-0.598834 0.24529,-0.2940714 0.198719,0.2717613 0.408724,0.3170337 1.106056,0.2384345 0.747998,-0.08431 0.843679,-0.057963 0.730332,0.2011263 -0.255618,0.5842957 -0.29424,1.4933087 -0.07468,1.7578615 0.12271,0.1478539 0.176459,0.390389 0.119441,0.5389669 -0.152105,0.3963852 0.263597,0.5706677 0.521126,0.2184785 0.333317,-0.4558408 1.756726,-0.4119316 2.053546,0.063348 0.23798,0.3810643 1.032509,0.4990858 1.228201,0.182441 0.14681,-0.2375429 1.003424,-0.2375429 1.003424,0 0,0.2460498 0.606878,0.2306083 1.178837,-0.029995 0.36276,-0.1652826 0.564409,-0.1599021 0.908482,0.024244 0.261039,0.1397041 0.578096,0.1778984 0.773815,0.09322 0.452793,-0.195903 11.566305,-0.2510076 11.94943,-0.059252 0.168595,0.084382 0.332787,0.3349005 0.364886,0.5567051 0.04529,0.3129639 0.569085,0.6633736 2.33885,1.564621 1.254283,0.638736 2.349484,1.284357 2.433786,1.434714 0.132541,0.236381 0.07822,0.234557 -0.401425,-0.01348 -0.828925,-0.428651 -0.927365,-0.346236 -0.187196,0.15672 0.510321,0.346773 0.656397,0.571197 0.669395,1.028419 0.0092,0.321668 0.103903,0.672119 0.210561,0.778782 0.236401,0.236401 0.249111,-0.515083 0.02806,-1.657841 -0.114345,-0.591087 -0.0937,-0.775372 0.08687,-0.775372 0.314185,0 0.417897,0.4016 0.46831,1.813347 0.02761,0.774641 -0.03152,1.199285 -0.173669,1.246677 -0.147991,0.04933 -0.215627,0.685348 -0.215627,2.02773 v 1.955854 l -0.601611,0.583111 c -0.330894,0.320711 -0.679808,0.583234 -0.775376,0.583383 -0.104765,1.65e-4 -0.152019,-1.086399 -0.118999,-2.736609 z M 34.437613,16.128286 c 0,-0.100341 -0.0821,-0.18244 -0.182441,-0.18244 -0.100342,0 -0.18244,0.0821 -0.18244,0.18244 0,0.100343 0.0821,0.182441 0.18244,0.182441 0.100343,0 0.182441,-0.0821 0.182441,-0.182441 z m 15.096964,-0.855524 c -0.175599,-0.04589 -0.462944,-0.04589 -0.638542,0 -0.1756,0.04589 -0.03193,0.08343 0.31927,0.08343 0.351198,0 0.494871,-0.03755 0.319272,-0.08343 z m 2.96466,-0.42156 c 0.551884,-0.291559 0.938579,-0.533981 0.859325,-0.538715 -0.07925,-0.0048 -0.489746,0.170823 -0.912204,0.390127 -0.422457,0.219303 -1.096497,0.455323 -1.497866,0.524487 l -0.729763,0.125753 0.638542,0.01423 c 0.376334,0.0084 1.050584,-0.203453 1.641966,-0.51588 z m 27.001211,0.110739 c 0,-0.24012 -0.102615,-0.472799 -0.228043,-0.517065 -0.365703,-0.129061 -1.778802,0.06401 -1.778802,0.243048 0,0.0898 -0.73888,0.163278 -1.641959,0.163278 -2.169522,0 -2.132521,0.333689 0.04558,0.411392 0.928167,0.03312 2.118598,0.07724 2.645392,0.09807 0.899169,0.03555 0.957807,0.01113 0.957807,-0.398718 z m -1.824406,-0.009 c 0,-0.21591 0.200827,-0.28415 0.836186,-0.28415 1.07677,0 1.013529,0.431977 -0.07499,0.512201 -0.591493,0.04359 -0.7612,-0.0072 -0.7612,-0.228051 z M 67.262524,12.433867 c -0.0079,-0.526797 -0.05578,-0.855191 -0.106424,-0.729762 -0.05061,0.125427 -0.351996,0.215749 -0.669743,0.200714 -0.551597,-0.0261 -0.555038,-0.03077 -0.07602,-0.103338 0.27594,-0.0418 0.501716,-0.152648 0.501716,-0.246326 0,-0.09559 -0.920502,-0.170322 -2.09807,-0.170322 h -2.098068 v 0.707424 c 0,0.406252 0.116504,0.804115 0.273658,0.934542 0.235732,0.195637 0.273664,0.122866 0.273664,-0.524983 v -0.752101 h 1.277082 1.277089 v 0.714559 c 0,0.755419 0.140708,0.889545 0.957812,0.913003 0.487187,0.01398 0.501295,-0.01331 0.487305,-0.94341 z m -1.171459,0.410492 c 0.06199,-0.100343 0.313154,-0.182442 0.558092,-0.182442 0.244932,0 0.445333,0.0821 0.445333,0.182442 0,0.100342 -0.251145,0.18244 -0.558093,0.18244 -0.325601,0 -0.511114,-0.076 -0.445332,-0.18244 z m 0,-0.547323 c 0.06199,-0.100342 0.313154,-0.182441 0.558092,-0.182441 0.244932,0 0.445333,0.0821 0.445333,0.182441 0,0.100343 -0.251145,0.182441 -0.558093,0.182441 -0.325601,0 -0.511114,-0.076 -0.445332,-0.182441 z m 17.24064,0.266731 c 0,-0.05398 -0.663901,-0.397353 -1.475344,-0.763045 -1.394807,-0.628597 -1.471229,-0.692957 -1.399903,-1.178934 0.04153,-0.282722 0.0076,-0.51404 -0.0754,-0.51404 -0.08297,0 -0.150841,0.26975 -0.150841,0.599445 0,0.575479 0.06016,0.626019 1.505132,1.264151 1.752873,0.77411 1.596354,0.716027 1.596354,0.592423 z M 68.189134,11.111172 c 0,-0.150513 -0.118305,-0.273661 -0.262894,-0.273661 -0.304798,0 -0.510542,0.260394 -0.340281,0.430654 0.218046,0.218046 0.603175,0.117804 0.603175,-0.156993 z m 9.35972,0.0025 c 0.01981,-0.09897 -0.107703,-0.20761 -0.283301,-0.241427 -0.199693,-0.03845 -0.319267,0.05102 -0.319267,0.238929 0,0.317409 0.539166,0.319643 0.602568,0.0025 z M 57.151475,10.107734 c 0,-0.2115458 -0.285772,-0.2860495 -1.259002,-0.3282354 -1.250205,-0.054191 -1.726883,0.1073441 -1.48269,0.5024594 0.08074,0.130633 0.605637,0.186516 1.434511,0.152726 1.016629,-0.04145 1.307181,-0.114118 1.307181,-0.32695 z m 24.948761,8.585007 c -0.357639,-0.298352 -0.410291,-0.514862 -0.408914,-1.681507 0.0029,-2.256735 0.177807,-3.254688 0.571154,-3.254688 0.315386,0 0.339466,0.187638 0.339466,2.64539 0,1.454964 -0.02054,2.642658 -0.04558,2.63932 -0.02511,-0.0033 -0.230334,-0.16017 -0.456109,-0.348515 z M 11.907542,18.006474 c 0.0277,-0.48112 0.05926,-1.018436 0.07013,-1.194035 0.01086,-0.175599 0.105765,-0.319271 0.210895,-0.319271 0.263124,0 0.143424,2.231457 -0.124438,2.319809 -0.139438,0.04599 -0.19052,-0.217116 -0.15658,-0.806503 z m 0.758821,0.736795 c -0.150716,-0.150715 -0.154814,-1.286689 -0.0066,-1.83961 0.09167,-0.342081 0.23568,-0.410251 0.864102,-0.40905 l 0.754094,0.0015 0.02201,1.184423 0.02201,1.184423 h -0.766976 c -0.421837,0 -0.821708,-0.05473 -0.888603,-0.121627 z m 56.737532,-1.83547 c -0.454641,-0.378561 -0.831853,-0.749866 -0.838253,-0.825123 -0.0062,-0.07526 1.751921,-0.13683 3.907373,-0.13683 3.915976,0 3.919069,3.1e-4 4.008554,0.410491 0.269752,1.236371 0.52773,1.135055 -3.030001,1.190004 l -3.221053,0.04975 z m 23.331299,-0.402025 c -0.134928,-0.218309 0.208278,-0.434615 0.451285,-0.284428 0.20403,0.126101 0.0701,0.454263 -0.185421,0.454263 -0.08849,0 -0.208132,-0.07643 -0.265864,-0.169835 z m -4.660028,-0.301471 c 0,-0.158874 0.09749,-0.256367 0.216644,-0.216647 0.338287,0.112761 0.394392,0.505512 0.07224,0.505512 -0.158875,0 -0.288861,-0.129989 -0.288861,-0.288865 z m 0.729756,-0.167237 C 88.680017,15.886553 88.4819,15.763405 88.36469,15.763405 c -0.117218,0 -0.885826,-0.493766 -1.708028,-1.097259 -1.546192,-1.134903 -1.626613,-1.262631 -1.721348,-2.733994 l -0.05287,-0.820984 3.375156,0.0602 3.375156,0.0602 1.733183,0.703845 c 0.953248,0.387113 2.017794,0.775026 2.365647,0.862027 0.546132,0.136593 0.653467,0.256425 0.786399,0.877926 0.08468,0.395858 0.102034,1.150758 0.03851,1.677556 l -0.115377,0.957813 h -1.357656 c -0.764226,0 -1.516059,-0.09893 -1.720059,-0.226326 -0.288449,-0.180141 -0.436359,-0.180141 -0.724816,0 -0.54577,0.340841 -3.542271,0.303842 -3.833724,-0.04734 z M 12.727176,15.682181 c 0,-0.402764 -0.08419,-0.451508 -0.866593,-0.501712 l -0.866592,-0.0556 V 13.939005 12.75314 l 0.866592,-0.0556 c 0.476626,-0.03058 0.866593,-0.133206 0.866593,-0.228051 0,-0.09484 0.361756,-0.172444 0.803903,-0.172444 0.73803,0 0.796718,0.03364 0.716222,0.410491 -0.08549,0.400218 -0.08049,0.401628 0.19952,0.05635 0.164182,-0.202447 0.29994,-0.749475 0.31694,-1.277083 l 0.02974,-0.922944 0.107094,1.003423 0.107093,1.003424 1.277085,0.09122 1.277084,0.09122 0.01449,1.231475 0.01449,1.231474 h -1.148332 c -0.934673,0 -1.182272,0.06343 -1.330768,0.340894 -0.100342,0.187492 -0.130597,0.392737 -0.06723,0.456102 0.06336,0.06336 0.02805,0.115208 -0.07848,0.115208 -0.106527,0 -0.224646,-0.324659 -0.262488,-0.721465 l -0.0688,-0.721465 0.825012,-0.05391 0.825013,-0.05391 0.02324,-0.729762 c 0.01877,-0.589508 0.0078,-0.615805 -0.05717,-0.136831 l -0.0804,0.592932 H 14.81369 c -1.110713,0 -1.42251,0.06576 -1.719399,0.362654 -0.36191,0.361911 -0.361723,0.362577 0.09122,0.32509 0.249631,-0.02066 0.453874,-0.142806 0.453874,-0.271434 0,-0.128627 0.123148,-0.233868 0.273661,-0.233868 0.150513,0 0.273661,0.112885 0.273661,0.250855 0,0.137971 0.05131,0.507413 0.114025,0.820983 l 0.114025,0.570127 h -0.843788 c -0.773371,0 -0.843787,-0.03722 -0.843787,-0.446106 z m -0.06161,-2.518555 c -0.05061,-0.125428 -0.09202,-0.02281 -0.09202,0.228051 0,0.250855 0.04141,0.353479 0.09202,0.22805 0.05061,-0.125427 0.05061,-0.330673 0,-0.456101 z m 5.358811,2.246892 c -0.24193,-0.452052 -0.247073,-2.873532 -0.0064,-3.022265 0.100341,-0.06202 0.18244,-0.27119 0.18244,-0.464833 0,-0.257236 -0.392074,-0.549208 -1.455476,-1.083876 -0.800511,-0.40249 -1.662543,-0.731799 -1.915627,-0.731799 -0.436708,0 -0.460151,0.05165 -0.460151,1.013913 v 1.013914 l -0.775372,-0.0561 -0.775373,-0.0561 -0.05471,-1.049033 -0.05471,-1.0490349 9.90651,0.036716 c 5.448579,0.020199 9.261617,0.064853 8.473418,0.09924 -1.239962,0.0541 -1.445669,0.110617 -1.526416,0.419386 -0.07913,0.302586 -0.254701,0.356862 -1.154391,0.356862 -0.900843,0 -1.078559,-0.0551 -1.176881,-0.364882 -0.103776,-0.326968 -0.276038,-0.36488 -1.657905,-0.36488 -1.481727,0 -1.608019,0.03392 -3.226027,0.866593 -1.046986,0.538806 -2.02897,0.907101 -2.596135,0.973686 -0.904964,0.106243 -0.906265,0.10733 -0.164084,0.136831 l 0.748119,0.02974 0.01404,1.322696 c 0.0077,0.727482 0.100052,1.548464 0.205179,1.824406 l 0.191137,0.501712 h -1.266166 c -1.065084,0 -1.29614,-0.05604 -1.455009,-0.352888 z M 3.6817426,15.319175 C 3.4859237,15.175988 3.3141739,14.709397 3.2338791,14.10247 3.1219186,13.256185 3.1543476,13.069681 3.4649348,12.773634 c 0.2786836,-0.265637 0.3941546,-0.291213 0.5050056,-0.111852 0.09557,0.154635 0.3182756,0.189192 0.6648278,0.10316 0.8119403,-0.201567 3.7712605,-0.484909 4.0295118,-0.385809 0.1617231,0.06206 0.2316398,0.550296 0.2316398,1.617579 v 1.52869 l -2.4482771,0.01301 c -1.7123727,0.0091 -2.5437484,-0.0568 -2.7659001,-0.219239 z m 1.6565841,-0.285532 c 0.067237,-0.108787 -0.1537287,-0.182441 -0.5473219,-0.182441 -0.393594,0 -0.6145556,0.07365 -0.547322,0.182441 0.062017,0.100342 0.3083096,0.18244 0.547322,0.18244 0.2390116,0 0.4853068,-0.0821 0.5473219,-0.18244 z m 1.7103806,-0.296467 c 0.5856887,-0.117137 0.7941516,-0.433297 0.285699,-0.433297 -0.1564351,0 -0.2306924,-0.08695 -0.1650151,-0.193213 0.065679,-0.106267 0.3130303,-0.167841 0.5496747,-0.13683 0.2366444,0.03101 0.4340493,-0.02571 0.4386768,-0.126058 0.011225,-0.243442 -0.067313,-0.234759 -1.4967213,0.16546 -1.2763417,0.35736 -1.5263674,0.573347 -0.820983,0.709209 0.2257704,0.04349 0.4618025,0.09025 0.5245169,0.10391 0.062713,0.01367 0.3705826,-0.02647 0.684152,-0.08918 z M 4.883221,13.873275 5.4734309,13.62511 4.8740405,13.416161 C 4.3743167,13.241957 4.219702,13.25694 3.9441972,13.506268 3.309887,14.080311 3.8700958,14.299262 4.883221,13.873275 Z m 2.9427187,-0.930559 0.613878,-0.26652 -0.7297627,-0.0046 c -0.9183411,-0.0059 -1.5769154,0.165308 -1.4467063,0.37599 0.1503052,0.243199 0.8725951,0.194746 1.562591,-0.104821 z m 1.3510379,1.630854 c -0.1339158,-1.07183 0.00317,-2.094097 0.2807596,-2.094097 0.09237,0 0.1679448,0.697836 0.1679448,1.550746 0,1.751431 -0.2586342,2.064619 -0.4487044,0.543351 z m 0.8135855,-0.543351 c 0,-2.037051 0.3732949,-2.047383 0.4217899,-0.01167 0.02419,1.015466 -0.03296,1.462811 -0.193739,1.516573 -0.170765,0.0571 -0.2280509,-0.320935 -0.2280509,-1.504899 z m 19.3387079,0.820983 c 0,-0.53516 0.02027,-0.547323 0.912203,-0.547323 0.501713,0 0.912204,-0.0821 0.912204,-0.182439 0,-0.106424 -0.608135,-0.182441 -1.459525,-0.182441 h -1.459525 v -0.729763 -0.729763 l 1.140254,-0.03398 c 1.073765,-0.03201 1.049829,-0.03999 -0.410491,-0.13683 -1.527045,-0.10127 -1.551629,-0.11051 -1.608474,-0.604553 l -0.05773,-0.501712 h 2.201405 2.201406 v -0.456102 c 0,-0.439728 0.04256,-0.456102 1.185863,-0.456102 0.710555,0 1.185865,-0.07719 1.185865,-0.192574 0,-0.1869078 5.233029,-0.1452911 13.980248,0.111181 l 3.30747,0.09698 0.120181,0.75157 c 0.07079,0.442682 0.04237,0.829382 -0.06915,0.9409 -0.104132,0.104131 -0.18933,0.792938 -0.18933,1.530681 v 1.34135 l -0.957813,-0.05514 -0.957814,-0.05514 -0.105341,-1.185864 -0.105341,-1.185865 -0.03149,1.049034 c -0.01841,0.613369 -0.113722,1.049034 -0.229497,1.049034 -0.128353,0 -0.176489,-0.41729 -0.136832,-1.186247 0.03365,-0.652436 -3.64e-4,-1.186075 -0.07565,-1.185865 -0.07526,2.19e-4 -0.13683,0.62214 -0.13683,1.382066 0,1.217355 -0.03798,1.374471 -0.319272,1.321057 -0.251284,-0.04772 -0.341702,-0.312796 -0.424612,-1.244852 l -0.105341,-1.184227 -0.03149,1.049034 c -0.04038,1.345195 -0.343285,1.364793 -0.425097,0.0275 -0.06856,-1.120788 0.04108,-1.454505 0.429001,-1.305647 0.17931,0.06881 0.252233,-0.04479 0.246463,-0.383907 l -0.0082,-0.481629 H 43.01232 38.177643 l 0.01448,0.410492 c 0.01224,0.346817 -0.08681,0.415021 -0.638541,0.439689 l -0.653029,0.0292 0.592933,0.07358 0.592932,0.07358 v 1.083085 c 0,0.595697 0,1.144659 0,1.219915 0,0.07526 -0.431016,0.136831 -0.957814,0.136831 h -0.957813 l -0.02394,-1.094644 c -0.02116,-0.967053 0.03028,-1.13909 0.441204,-1.475963 0.70294,-0.576258 0.443152,-1.023929 -0.552423,-0.951947 l -0.777042,0.05619 0.06366,1.778797 c 0.05845,1.633308 0.03607,1.778322 -0.27366,1.772995 -0.734783,-0.01264 -0.99857,-0.441649 -0.939906,-1.528605 0.0304,-0.563177 0.137364,-1.028847 0.237705,-1.03482 0.331782,-0.01975 0.494625,-0.539681 0.258238,-0.82451 -0.150276,-0.181072 -0.477988,-0.254722 -0.972224,-0.218499 -0.605698,0.04439 -0.745539,0.123084 -0.745539,0.419524 0,0.26243 0.140871,0.38109 0.501712,0.42261 0.497149,0.0572 0.501712,0.07006 0.501712,1.413915 v 1.356186 h -1.114587 -1.114584 l 0.06937,-1.373633 c 0.05628,-1.114582 0.02049,-1.364026 -0.189802,-1.322694 -0.203917,0.04007 -0.250943,0.391267 -0.220586,1.647294 l 0.03859,1.596355 h -1.014705 c -1.005821,0 -1.014704,-0.0048 -1.014704,-0.547322 z M 33.211016,12.9962 c -0.330634,-0.330632 -0.441978,-0.356882 -0.679085,-0.160101 -0.377815,0.313558 -0.359875,0.858913 0.03566,1.084079 0.240534,0.136928 0.408007,0.09417 0.679085,-0.173375 0.358052,-0.353388 0.357877,-0.357062 -0.03566,-0.750603 z m -0.698857,0.562021 c -0.188009,-0.304205 0.234839,-0.653048 0.486517,-0.40137 0.210522,0.210523 0.07876,0.599707 -0.203032,0.599707 -0.0885,0 -0.216066,-0.08925 -0.283485,-0.198337 z m 1.871764,-0.577036 c -0.04348,-0.22577 -0.07906,-0.04105 -0.07906,0.410492 0,0.451541 0.03558,0.636262 0.07906,0.410491 0.04349,-0.22577 0.04349,-0.595212 0,-0.820983 z m 3.337618,0.426412 c 0,-0.184868 -0.127624,-0.442042 -0.283609,-0.571498 -0.236973,-0.19667 -0.34758,-0.171402 -0.672645,0.153662 -0.376715,0.376715 -0.378562,0.400613 -0.05831,0.754487 0.255512,0.282341 0.408484,0.323835 0.672645,0.182462 0.188054,-0.100645 0.341917,-0.334245 0.341917,-0.519113 z m -0.830808,0.150624 c -0.188008,-0.304205 0.234841,-0.653048 0.486519,-0.40137 0.210522,0.210523 0.07876,0.599707 -0.203033,0.599707 -0.0885,0 -0.216065,-0.08925 -0.283486,-0.198337 z m 13.747606,0.34429 c 0.303003,-0.303004 0.273736,-0.785551 -0.06468,-1.066412 -0.23618,-0.196012 -0.34296,-0.176022 -0.63852,0.119538 -0.326563,0.326564 -0.332228,0.387297 -0.07093,0.760357 0.323582,0.461979 0.464672,0.495973 0.774127,0.186517 z m -0.611878,-0.34429 c -0.188009,-0.304205 0.234839,-0.653048 0.486518,-0.40137 0.210522,0.210523 0.07876,0.599707 -0.203033,0.599707 -0.0885,0 -0.216066,-0.08925 -0.283485,-0.198337 z m -7.92634,-2.903154 c 0,-0.100343 -0.0821,-0.182441 -0.182441,-0.182441 -0.100343,0 -0.182441,0.0821 -0.182441,0.182441 0,0.100343 0.0821,0.182441 0.182441,0.182441 0.100342,0 0.182441,-0.0821 0.182441,-0.182441 z m 6.613472,-0.135734 c -0.827824,-0.03381 -2.182446,-0.03381 -3.010269,0 -0.827825,0.03381 -0.150514,0.06147 1.505134,0.06147 1.655649,0 2.33296,-0.02766 1.505135,-0.06147 z m -27.665848,4.408168 c -0.06091,-0.15872 -0.110739,-0.774457 -0.110739,-1.368304 v -1.079724 h 3.01027 c 2.999665,0 3.010276,0.0015 3.011856,0.410492 8.84e-4,0.22577 0.05336,0.841507 0.116632,1.368305 l 0.115047,0.957813 h -3.016163 c -2.582048,0 -3.032103,-0.04154 -3.126903,-0.288582 z m 18.026522,-0.324779 c -0.05244,-0.136663 -0.07039,-0.724377 -0.03988,-1.30603 0.04418,-0.842561 0.120371,-1.066929 0.374737,-1.103683 0.279499,-0.04038 0.319271,0.122311 0.319271,1.306031 0,1.092611 -0.05363,1.352162 -0.279387,1.352162 -0.153663,0 -0.322295,-0.111816 -0.374739,-0.24848 z m 1.474378,0.02044 c -0.04427,-0.125436 -0.108609,-0.6796 -0.142966,-1.231482 l -0.06247,-1.003424 -0.03375,1.049034 c -0.01892,0.588106 -0.117734,1.049034 -0.224894,1.049034 -0.118639,0 -0.170542,-0.43253 -0.136831,-1.140255 l 0.05432,-1.140254 h 1.243378 1.243379 l 0.0337,1.322836 0.0337,1.322835 -0.963538,-1.41e-4 c -0.606162,-8.8e-5 -0.993396,-0.08472 -1.044038,-0.228191 z m 1.551476,-1.231474 c 0,-0.521862 -0.630065,-0.8034 -0.990754,-0.442709 -0.157482,0.157482 -0.286331,0.356701 -0.286331,0.442709 0,0.08601 0.128849,0.285226 0.286331,0.442708 0.360689,0.360691 0.990754,0.07915 0.990754,-0.442708 z m -0.912204,0 c 0,-0.274783 0.09526,-0.373291 0.319271,-0.330151 0.1756,0.03382 0.319272,0.182385 0.319272,0.330151 0,0.147765 -0.143672,0.296332 -0.319272,0.330149 -0.224009,0.04314 -0.319271,-0.05536 -0.319271,-0.330149 z m 2.226906,0.138764 c 0.04413,-1.087393 0.110015,-1.331523 0.372873,-1.381682 0.281325,-0.05368 0.319271,0.103292 0.319271,1.320761 0,1.269927 -0.03016,1.381682 -0.372874,1.381682 -0.346137,0 -0.369029,-0.09471 -0.31927,-1.320761 z m 1.516083,1.102315 c -0.0463,-0.130711 -0.112294,-0.689197 -0.146651,-1.241079 l -0.06247,-1.003424 -0.03375,1.049034 c -0.01857,0.576968 -0.115847,1.049034 -0.216189,1.049034 -0.208867,0 -0.245545,-1.812826 -0.04281,-2.116225 0.07372,-0.110329 0.667676,-0.216665 1.319902,-0.236302 l 1.185864,-0.03571 -0.0271,1.330946 -0.0271,1.330945 -0.932753,0.05522 c -0.642461,0.03803 -0.958952,-0.01875 -1.016937,-0.182441 z m 1.54779,-1.241079 c 0,-0.458908 -0.546384,-0.755672 -0.962524,-0.522788 -0.709034,0.396796 -0.07845,1.431945 0.638542,1.048221 0.17819,-0.09536 0.323982,-0.331809 0.323982,-0.525433 z m -1.003424,0.18244 c -0.15271,-0.24709 0.05335,-0.547322 0.375649,-0.547322 0.144592,0 0.262894,0.164196 0.262894,0.364882 0,0.377707 -0.44014,0.503462 -0.638543,0.18244 z m -9.943015,-0.15204 c 0,-1.016393 0.101567,-1.378537 0.344717,-1.229131 0.1764,0.108392 0.0063,2.293369 -0.178481,2.293369 -0.09143,0 -0.166236,-0.478907 -0.166236,-1.064238 z m 2.919051,-0.01964 c 0,-0.596133 0.0821,-1.134616 0.18244,-1.196632 0.114544,-0.07079 0.18244,0.332581 0.18244,1.083877 0,0.676128 -0.07936,1.196632 -0.18244,1.196632 -0.101154,0 -0.18244,-0.48292 -0.18244,-1.083877 z m 4.378575,0 c 0,-0.596133 0.0821,-1.134616 0.182441,-1.196632 0.114543,-0.07079 0.182441,0.332581 0.182441,1.083877 0,0.676128 -0.07936,1.196632 -0.182441,1.196632 -0.101155,0 -0.182441,-0.48292 -0.182441,-1.083877 z m -38.3581461,-1.0438 c 0.125428,-0.05061 0.3306735,-0.05061 0.4561015,0 0.1254278,0.05061 0.022803,0.09202 -0.2280507,0.09202 -0.2508559,0 -0.3534787,-0.04141 -0.2280508,-0.09202 z M 60.460009,10.459386 C 59.915943,10.031423 59.846037,9.4669987 60.263312,8.8712561 60.840677,8.0469454 62.35103,8.601934 62.35103,9.638403 c 0,0.44448 -0.746288,1.199106 -1.185863,1.199106 -0.123448,0 -0.440767,-0.170155 -0.705158,-0.378123 z m 1.227532,-0.8085086 c 0.05199,-0.1354188 -0.02792,-0.3477889 -0.177494,-0.4719337 -0.39965,-0.3316834 -0.966824,0.235486 -0.635141,0.6351413 0.249999,0.301229 0.666515,0.217578 0.812635,-0.1632076 z M 32.761439,9.9831183 c 0.131699,-0.052703 0.289054,-0.046223 0.349679,0.014404 0.06063,0.060626 -0.04713,0.1037427 -0.239453,0.095821 -0.212534,-0.0087 -0.255764,-0.05198 -0.110226,-0.1102234 z m 35.108424,-0.010987 c 0.777649,-0.034205 2.050173,-0.034205 2.827829,0 0.777656,0.034198 0.14139,0.062181 -1.413915,0.062181 -1.555304,0 -2.19157,-0.02798 -1.413914,-0.062181 z M 12.362295,9.3902763 c 0,-0.3210942 0.651755,-0.3500709 6.841524,-0.304167 3.51625,0.026083 6.297932,-0.025781 6.422196,-0.1197279 0.135114,-0.1021489 0.46753,-0.075937 0.866474,0.068322 0.50362,0.1821114 0.695871,0.1854413 0.866309,0.015007 0.278256,-0.2782566 1.086653,-0.2814201 1.68979,-0.00663 0.364429,0.1660443 0.565165,0.1594941 0.919229,-0.029993 0.354065,-0.1894899 0.5548,-0.1960393 0.91923,-0.029993 0.571961,0.2606033 1.178837,0.2760445 1.178837,0.029993 0,-0.2375426 0.856614,-0.2375426 1.003425,0 0.06202,0.1003426 0.313155,0.1824406 0.558089,0.1824406 0.244934,0 0.445334,-0.082098 0.445334,-0.1824406 0,-0.2375426 0.856614,-0.2375426 1.003424,0 0.13091,0.2118179 1.003423,0.2498249 1.003423,0.043712 0,-0.1863132 7.326903,-0.1734714 7.616897,0.013351 0.125428,0.080803 0.228051,0.2241692 0.228051,0.3185891 0,0.1059487 -6.041843,0.1716746 -15.781116,0.1716746 -9.638921,0 -15.781116,-0.066223 -15.781116,-0.1701466 z M 57.790016,9.1043208 c 0,-0.202711 0.212847,-0.2736608 0.820979,-0.2736608 0.60814,0 0.820987,0.070951 0.820987,0.2736608 0,0.2027125 -0.212847,0.2736616 -0.820987,0.2736616 -0.608132,0 -0.820979,-0.070951 -0.820979,-0.2736616 z m 5.06273,-0.2231964 c 0.326111,-0.040472 0.859753,-0.040472 1.185863,0 0.326111,0.040472 0.0593,0.073579 -0.592935,0.073579 -0.652221,0 -0.919046,-0.033108 -0.592928,-0.073579 z M 59.379129,4.6801357 c 0.05675,-0.5769687 0.112416,-1.0588768 0.123648,-1.0709072 0.01124,-0.012033 1.64187,-0.076403 3.623626,-0.1430512 2.942631,-0.098963 3.603203,-0.076557 3.603203,0.1222154 0,0.5665994 -0.44125,0.6812513 -2.621898,0.6812513 -1.821473,0 -2.24372,-0.053005 -2.543525,-0.3192713 -0.349852,-0.310721 -0.352727,-0.308278 -0.107313,0.091221 0.240732,0.3918667 0.36027,0.4104912 2.634744,0.4104912 2.459236,0 2.820438,-0.09813 2.820438,-0.7662508 0,-0.1806159 0.0821,-0.3283932 0.182438,-0.3283932 0.100342,0 0.182438,0.2052463 0.182438,0.4561021 0,0.2508558 -0.07441,0.4561015 -0.165358,0.4561015 -0.09095,0 -0.127675,0.1436717 -0.08162,0.3192712 0.07772,0.2963082 -0.138129,0.3154084 -3.001062,0.2655637 L 60.94408,4.8007708 60.639932,5.2649694 c -0.210304,0.3209565 -0.467688,0.4641987 -0.834096,0.4641987 h -0.529931 z m 2.01029,-0.3382756 c -0.06061,-0.060624 -0.217984,-0.067106 -0.349679,-0.014404 -0.145541,0.058238 -0.102307,0.1014706 0.110223,0.1102243 0.192326,0.00792 0.300081,-0.035201 0.239456,-0.09582 z m 5.95496,0.7943771 C 67.404851,4.9104668 67.455512,4.376828 67.456877,3.9503727 67.458946,3.383887 67.533092,3.175 67.733031,3.175 c 0.215185,0 0.273665,0.2533899 0.273665,1.1858645 0,1.0860184 -0.03255,1.1858638 -0.386164,1.1858638 -0.31143,0 -0.364869,-0.079438 -0.276153,-0.4104911 z M 57.607578,4.5799394 c 0,-0.1634601 0.198187,-0.2138895 0.638541,-0.162481 0.351196,0.041 0.638541,0.1476629 0.638541,0.2370272 0,0.089364 -0.287345,0.1624803 -0.638541,0.1624803 -0.402105,0 -0.638541,-0.087766 -0.638541,-0.2370265 z M 57.060256,3.8090267 c 0,-0.3380177 0.809381,-0.6716287 1.448805,-0.5971674 0.324166,0.037752 0.484636,0.1797995 0.525119,0.4648524 0.05448,0.3835384 -0.0084,0.4104918 -0.957812,0.4104918 -0.788916,0 -1.016112,-0.062197 -1.016112,-0.2781768 z"
       id="path1007" />
  </g>
</svg>
