<?xml version="1.0" encoding="UTF-8" standalone="no"?>
<svg
   xmlns:dc="http://purl.org/dc/elements/1.1/"
   xmlns:cc="http://creativecommons.org/ns#"
   xmlns:rdf="http://www.w3.org/1999/02/22-rdf-syntax-ns#"
   xmlns:svg="http://www.w3.org/2000/svg"
   xmlns="http://www.w3.org/2000/svg"
   xmlns:sodipodi="http://sodipodi.sourceforge.net/DTD/sodipodi-0.dtd"
   xmlns:inkscape="http://www.inkscape.org/namespaces/inkscape"
   width="433.22"
   height="128"
   viewBox="0 0 114.62278 33.866667"
   version="1.1"
   id="svg8"
   inkscape:version="1.0.1 (3bc2e813f5, 2020-09-07)"
   sodipodi:docname="Mastiff Shotgun.svg">
  <defs
     id="defs2" />
  <sodipodi:namedview
     id="base"
     pagecolor="#ffffff"
     bordercolor="#666666"
     borderopacity="1.0"
     inkscape:pageopacity="0.0"
     inkscape:pageshadow="2"
     inkscape:zoom="0.7"
     inkscape:cx="158.55547"
     inkscape:cy="-7.3626803"
     inkscape:document-units="mm"
     inkscape:current-layer="layer1"
     inkscape:document-rotation="0"
     showgrid="false"
     units="px"
     inkscape:window-width="1366"
     inkscape:window-height="705"
     inkscape:window-x="-8"
     inkscape:window-y="-8"
     inkscape:window-maximized="1" />
  <metadata
     id="metadata5">
    <rdf:RDF>
      <cc:Work
         rdf:about="">
        <dc:format>image/svg+xml</dc:format>
        <dc:type
           rdf:resource="http://purl.org/dc/dcmitype/StillImage" />
        <dc:title></dc:title>
      </cc:Work>
    </rdf:RDF>
  </metadata>
  <g
     inkscape:label="Layer 1"
     inkscape:groupmode="layer"
     id="layer1">
    <path
       style="fill:#273839;fill-opacity:1;stroke-width:0.176389"
       d="m 83.808742,29.996521 c 0,-0.38233 0.07937,-0.744202 0.176387,-0.80416 0.40193,-0.248405 0.10144,-1.08047 -1.254113,-3.472712 -0.78678,-1.388481 -1.613374,-2.768211 -1.83688,-3.066068 -0.465513,-0.620377 -1.815167,-1.134137 -2.9794,-1.134137 -0.783047,0 -1.161547,-0.234371 -1.161547,-0.719235 0,-0.497526 0.531654,-0.775892 1.658313,-0.868265 l 1.075714,-0.08819 0.05093,-1.543403 0.05093,-1.543402 h 1.143947 1.143953 l -0.0208,1.994617 c -0.0222,2.130454 0.1364,2.776748 0.949826,3.870244 0.234567,0.315332 1.070154,1.690811 1.856848,3.056619 1.538918,2.671759 1.778009,2.896575 3.080452,2.896575 0.551994,0 0.799664,0.0907 0.963335,0.352778 0.397262,0.636109 1.053254,0.433686 2.761604,-0.852155 0.880477,-0.662712 2.275547,-1.678206 3.100167,-2.256651 1.639033,-1.149733 1.872012,-1.584668 1.309067,-2.443828 -0.287393,-0.438611 -0.28398,-0.474654 0.08168,-0.863875 0.552346,-0.587936 0.725929,-1.383713 0.725929,-3.327813 0,-2.436742 0.01342,-2.426511 -3.175,-2.426511 -1.461971,0 -2.46944,-0.06916 -2.46944,-0.169518 0,-0.286461 -0.752461,-0.888816 -1.11031,-0.888816 -0.186028,0 -0.494318,0.198437 -0.6851,0.440972 -0.29421,0.374037 -0.492841,0.440973 -1.308563,0.440973 -0.863521,0 -0.978824,-0.04502 -1.129363,-0.440973 -0.165449,-0.435162 -0.194438,-0.440972 -2.200495,-0.440972 -1.156172,0 -2.032838,-0.07176 -2.032838,-0.166386 0,-0.09151 0.176407,-0.289951 0.392027,-0.440973 0.3398,-0.238009 1.38536,-0.274586 7.849303,-0.274586 h 7.457283 v 3.527779 3.527778 h 0.61736 c 0.339552,0 0.61736,0.04654 0.61736,0.103419 0,0.05688 -0.168351,0.682809 -0.374109,1.390951 -0.367719,1.265548 -0.389413,1.29465 -1.270795,1.704565 -1.135945,0.528308 -3.536522,2.2212 -5.862349,4.134145 l -1.807175,1.486364 h -3.19209 -3.192095 z m 5.115281,-1.433365 c 0,-0.10353 0.277817,-0.450245 0.61736,-0.770481 0.848385,-0.800133 0.826037,-1.366841 -0.08819,-2.236532 -0.424146,-0.403477 -0.70556,-0.83301 -0.70556,-1.076921 0,-0.223158 -0.198438,-0.619749 -0.440976,-0.881311 -0.302169,-0.325882 -0.440968,-0.677261 -0.440968,-1.116362 0,-0.527579 -0.140242,-0.77709 -0.793752,-1.412229 -0.436557,-0.424292 -0.793744,-0.89346 -0.793744,-1.042601 0,-0.49081 -0.306378,-0.282687 -0.419978,0.28529 -0.231167,1.155816 -0.81475,1.382685 -0.81475,0.316732 0,-0.840849 -0.383165,-1.664582 -0.90394,-1.943292 -0.222534,-0.119095 -0.680861,-0.152174 -1.144707,-0.08262 l -0.773574,0.116005 v -0.884453 c 0,-0.486448 0.09211,-1.086624 0.204701,-1.333724 0.20074,-0.440578 0.241127,-0.449272 2.086859,-0.449272 1.827116,0 1.889061,0.0129 2.118157,0.440972 0.213155,0.398271 0.342923,0.440972 1.340127,0.440972 1.074881,0 1.516008,-0.189928 1.696124,-0.730265 0.09477,-0.284304 0.952895,-0.05364 1.085438,0.291771 0.05736,0.14962 -0.05191,0.425686 -0.245129,0.618884 -0.550199,0.550198 -0.462729,1.456255 0.193927,2.008792 0.298487,0.251158 0.65034,0.456652 0.781911,0.456652 0.131563,0 0.651808,0.683082 1.156096,1.51796 0.691976,1.145602 1.060248,1.577859 1.501291,1.762138 0.321414,0.134295 0.70198,0.199051 0.845702,0.143899 0.341606,-0.131083 0.862187,0.660452 0.786246,1.195462 -0.07706,0.54304 -5.64802,4.515543 -6.363601,4.537725 -0.266789,0.0083 -0.485068,-0.06967 -0.485068,-0.173195 z m 2.058124,-4.852527 c 0.0587,-0.153044 -0.02314,-0.408178 -0.181927,-0.566966 -0.267334,-0.267345 -0.310059,-0.267345 -0.577402,0 -0.360625,0.360624 -0.195101,0.845225 0.288701,0.845225 0.200115,0 0.411903,-0.125216 0.470628,-0.278259 z m -0.701015,-0.01092 c -0.140921,-0.140929 0.01836,-0.416376 0.240794,-0.416376 0.09129,0 0.165985,0.119062 0.165985,0.264583 0,0.272769 -0.208132,0.350432 -0.406779,0.151786 z m -1.357109,-3.67957 c 0.175185,-0.211088 0.175185,-0.31808 0,-0.529168 -0.440792,-0.531118 -1.069095,-0.124747 -0.818163,0.529168 0.05585,0.14552 0.213373,0.264583 0.350059,0.264583 0.136686,0 0.347334,-0.119063 0.468104,-0.264583 z m -0.592756,-0.0342 c -0.198648,-0.198646 -0.120988,-0.406779 0.15178,-0.406779 0.145525,0 0.264584,0.07469 0.264584,0.165979 0,0.222423 -0.275452,0.381722 -0.416364,0.2408 z m -76.983088,2.556555 c -0.137274,-0.137272 -0.209947,-0.834715 -0.206772,-1.984375 l 0.0049,-1.772708 1.450313,-0.926946 1.450313,-0.926945 0.104144,0.50137 c 0.162946,0.784453 0.308869,0.911549 1.046588,0.911549 0.730029,0 1.05413,-0.321827 1.05413,-1.046737 0,-0.200406 0.04327,-0.364375 0.09616,-0.364375 0.252652,0 2.726911,1.801464 2.732865,1.989751 0.07838,2.478162 0.03946,3.298224 -0.168423,3.548704 -0.200709,0.241839 -0.745307,0.282379 -3.793451,0.282379 -2.533001,0 -3.62012,-0.06103 -3.770763,-0.211667 z m 7.162233,-1.155347 -0.05376,-0.837847 h -3.35139 -3.351388 l -0.05653,0.590056 c -0.106512,1.111858 -0.191052,1.085638 3.500238,1.085638 h 3.36659 z m 0.03443,-2.037292 c 0,-0.574516 -0.413368,-0.652639 -3.453264,-0.652639 -2.437575,0 -3.071604,0.05021 -3.243101,0.256858 -0.450722,0.543085 -0.01055,0.625087 3.355386,0.625087 2.623724,0 3.340979,-0.04922 3.340979,-0.229306 z m 90.265798,2.241854 c -0.24923,-0.249234 -0.12883,-0.561758 0.42502,-1.103258 0.47315,-0.462587 0.52175,-0.585073 0.32578,-0.821192 -0.12667,-0.152632 -0.38966,-0.254738 -0.58442,-0.226902 -0.29885,0.04272 -0.41797,-0.155816 -0.7634,-1.272307 -0.48943,-1.581904 -0.53645,-3.303853 -0.13835,-5.066686 0.25439,-1.12647 0.31138,-1.222954 0.68062,-1.152368 0.57145,0.109241 0.78193,-0.485713 0.28793,-0.813919 -0.20033,-0.133101 -0.36425,-0.421038 -0.36425,-0.639861 0,-0.218822 -0.11818,-0.4959472 -0.26263,-0.6158327 -0.4703,-0.3903159 -0.11113,-0.5050106 1.27879,-0.4083526 1.62038,0.112683 1.88081,0.3215679 1.70444,1.3670693 -0.0646,0.38266 -0.26652,1.129305 -0.44883,1.659211 -0.4775,1.38785 -0.4607,4.333265 0.0338,5.934358 0.50468,1.633943 0.35909,2.495032 -0.48119,2.846125 -0.81624,0.341046 -1.53327,0.473972 -1.69332,0.313915 z M 98.625407,20.46111 v -1.058333 h 1.940283 c 1.17592,0 1.94028,-0.06948 1.94028,-0.176389 0,-0.165339 -1.99201,-0.278715 -3.307295,-0.188236 l -0.573268,0.03943 v -0.898937 -0.89894 l 0.66146,0.03858 c 1.249433,0.07287 2.513543,-0.03236 2.513543,-0.209242 0,-0.09738 -0.37703,-0.165175 -0.83785,-0.150645 -0.46081,0.01453 -1.175187,0.01483 -1.587493,6.66e-4 l -0.74966,-0.02574 v -1.024286 c 0,-0.95334 0.03363,-1.037559 0.485068,-1.215958 0.36075,-0.142549 -1.624955,-0.196483 -7.747569,-0.210439 l -8.232652,-0.01877 -0.5427,0.456653 c -0.329693,0.277414 -0.5427,0.623581 -0.5427,0.881944 0,0.413856 -0.0378,0.425293 -1.404493,0.425293 h -1.404494 l -0.05073,1.631597 -0.05073,1.631597 -0.839647,0.05384 c -1.037713,0.06653 -1.0873,-0.03476 -0.881713,-1.80131 0.08572,-0.736632 0.09138,-1.339332 0.0126,-1.339332 -0.07882,0 -0.143293,-1.391026 -0.143293,-3.091171 v -3.091174 l 0.474253,-0.180313 c 0.29176,-0.1109258 2.17532,-0.1598351 4.894794,-0.1271009 l 4.420529,0.053215 2.29958,0.9253199 c 2.185459,0.879401 2.333793,0.97114 2.98893,1.848669 0.379132,0.507844 0.678794,1.063422 0.665896,1.23462 -0.02155,0.286105 0.218086,0.311269 2.964193,0.311269 1.874176,0 2.987657,-0.06574 2.987657,-0.176388 0,-0.100935 -0.53264,-0.176389 -1.245135,-0.176389 -0.785174,0 -1.204859,-0.06516 -1.136122,-0.176389 0.05996,-0.09701 0.62027,-0.176389 1.245135,-0.176389 h 1.136122 V 13.06504 c 0,-0.395802 -0.09298,-0.534808 -0.396876,-0.59334 -0.218287,-0.04204 1.29845,-0.08725 3.37051,-0.100463 l 3.76739,-0.02402 -0.13236,0.485069 c -0.23145,0.848154 -0.22223,3.950835 0.0171,5.776736 0.33356,2.544346 0.47061,2.429174 -3.20908,2.69697 -4.200793,0.305721 -3.769502,0.402391 -3.769502,-0.844886 z m 4.409723,-1.234722 c 0,-0.09701 -0.035,-0.176389 -0.0777,-0.176389 -0.0428,0 -0.12684,0.07938 -0.1868,0.176389 -0.06,0.09701 -0.0249,0.176389 0.0778,0.176389 0.10273,0 0.18679,-0.07938 0.18679,-0.176389 z m 1.5875,-0.08819 c 0,-0.145521 -0.11906,-0.264584 -0.26458,-0.264584 -0.14552,0 -0.26459,0.119063 -0.26459,0.264584 0,0.14552 0.11907,0.264583 0.26459,0.264583 0.14552,0 0.26458,-0.119063 0.26458,-0.264583 z m 0,-1.940278 c 0,-0.184788 -0.18619,-0.264584 -0.61736,-0.264584 -0.33954,0 -0.61736,0.08472 -0.61736,0.188276 0,0.108005 0.15041,0.140538 0.35278,0.07631 0.20238,-0.06423 0.35277,-0.0317 0.35277,0.07631 0,0.103552 0.11907,0.188275 0.26459,0.188275 0.14552,0 0.26458,-0.119062 0.26458,-0.264583 z M 80.721936,14.640277 c 0,-0.215556 -0.293713,-0.264583 -1.58508,-0.264583 -1.3824,0 -1.59286,0.04034 -1.645847,0.315488 -0.0554,0.287705 0.08419,0.311006 1.585087,0.264584 1.322753,-0.04091 1.64584,-0.102844 1.64584,-0.315489 z m 1.803954,0 c 0.246666,-0.194028 0.671219,-0.352776 0.943452,-0.352776 0.272234,0 0.546074,-0.08269 0.60854,-0.183765 0.0762,-0.123295 -0.370199,-0.166827 -1.356599,-0.132291 -1.458207,0.05105 -1.470634,0.05542 -1.525994,0.536541 -0.04847,0.421531 0.0054,0.48507 0.413154,0.48507 0.257926,0 0.670779,-0.158751 0.917447,-0.352779 z m 7.544661,-0.529166 c 0.07086,-0.114598 -0.817852,-0.176389 -2.536818,-0.176389 -1.573626,0 -2.690016,0.07148 -2.754854,0.176389 -0.07086,0.114598 0.817852,0.17639 2.536827,0.17639 1.573617,0 2.690007,-0.07148 2.754845,-0.17639 z m 2.381248,0 c 0,-0.09701 -0.357187,-0.176389 -0.793752,-0.176389 -0.436565,0 -0.793752,0.07938 -0.793752,0.176389 0,0.09701 0.357187,0.17639 0.793752,0.17639 0.436565,0 0.793752,-0.07938 0.793752,-0.17639 z m -0.04503,-0.60167 c 0.04822,-0.04818 -0.15978,-0.423969 -0.462133,-0.835097 -0.394469,-0.536401 -0.82389,-0.859053 -1.520553,-1.142485 -0.548162,-0.223017 -0.970832,-0.314035 -0.970832,-0.20906 0,0.362602 1.137723,2.249017 1.404596,2.328915 0.307946,0.09219 1.416261,-0.0096 1.548922,-0.142273 z M 90.40939,12.603837 c -0.258404,-0.440944 -0.427517,-0.84403 -0.375803,-0.895747 0.166657,-0.166657 0.937835,0.356257 1.527874,1.036007 l 0.574165,0.661459 h -0.628194 c -0.558954,0 -0.679992,-0.08838 -1.098042,-0.801719 z M 85.372767,12.11552 c 0.49607,-0.879669 0.716018,-1.439429 0.608036,-1.547409 -0.09957,-0.09957 -1.542792,-0.149389 -3.507745,-0.121076 -2.976814,0.04289 -3.33622,0.07966 -3.316967,0.339369 0.01187,0.160196 0.44844,0.852211 0.97014,1.537811 l 0.948547,1.246548 1.760393,-0.03851 1.760398,-0.03851 z m -4.959449,-0.01553 c -0.460813,-0.612195 -0.837847,-1.164197 -0.837847,-1.226672 0,-0.06247 1.38906,-0.113592 3.086807,-0.113592 1.69774,0 3.086804,0.04163 3.086804,0.09252 0,0.05088 -0.324617,0.606511 -0.721367,1.234723 l -0.721364,1.142204 -1.527593,-0.008 -1.527594,-0.0081 z m 9.745484,1.389361 c 0,-0.05093 -0.278815,-0.646241 -0.619574,-1.322916 l -0.619582,-1.230319 -1.188406,0.0012 -1.188406,0.0012 -0.66146,1.214638 c -0.363803,0.668048 -0.66146,1.262829 -0.66146,1.321733 0,0.05891 1.111249,0.107099 2.469448,0.107099 1.35819,0 2.46944,-0.04167 2.46944,-0.0926 z m -4.40972,-0.336654 c 0,-0.04206 0.25219,-0.482165 0.560421,-0.978009 l 0.56043,-0.901534 0.971377,0.05197 0.971377,0.05197 0.405035,0.926041 0.405035,0.926043 h -1.936842 c -1.065254,0 -1.936833,-0.03441 -1.936833,-0.07648 z m -6.708138,-0.974812 c 0.215933,-0.136567 0.168507,-0.276015 -0.284033,-0.835147 -0.695887,-0.859794 -1.18882,-0.89138 -1.26644,-0.08115 -0.03107,0.32453 -0.01373,0.701561 0.03853,0.837846 0.10768,0.280628 1.109987,0.332635 1.511907,0.07845 z m -56.615501,8.45962 c 0,-0.09702 -0.109809,-0.176389 -0.244019,-0.176389 -0.134214,0 -0.281914,-0.198223 -0.328226,-0.440496 -0.07373,-0.385647 0.07197,-0.540644 1.170061,-1.244801 l 1.254268,-0.804306 1.499305,0.08262 c 0.824619,0.04544 1.796962,0.138036 2.160764,0.205766 0.440869,0.08208 0.661459,0.05789 0.661459,-0.07254 0,-0.139649 1.793182,-0.195688 6.261806,-0.195688 h 6.261805 v -0.507324 c 0,-0.421684 0.242523,-0.704552 1.436692,-1.675694 1.400261,-1.138746 2.238415,-1.467108 2.53206,-0.991982 0.144254,0.23341 0.918271,0.226624 1.064098,-0.0093 0.07659,-0.12392 1.60859,-0.172154 4.604171,-0.144957 l 4.489392,0.04076 0.936572,0.718221 c 1.240069,0.950962 1.384598,1.312107 1.214109,3.033763 -0.137449,1.388017 -0.137747,1.388648 -0.681439,1.44171 -0.299163,0.0292 -0.962207,-0.111782 -1.473429,-0.313288 -0.776154,-0.305931 -1.472115,-0.383792 -4.21857,-0.47196 -3.801986,-0.122053 -6.600081,0.106608 -7.985134,0.652545 -0.741374,0.292222 -1.168523,0.349881 -2.003649,0.27046 -3.411534,-0.324433 -3.971817,-0.327248 -3.971817,-0.01995 0,0.612179 -0.451189,0.799251 -1.927678,0.799251 -0.831549,0 -1.423711,-0.07337 -1.423711,-0.176389 0,-0.09702 -0.198437,-0.176389 -0.440972,-0.176389 -0.242536,0 -0.440973,0.07937 -0.440973,0.176389 0,0.09701 -0.198437,0.176389 -0.440972,0.176389 -0.242535,0 -0.440973,-0.07938 -0.440973,-0.176389 0,-0.09702 -0.238124,-0.176389 -0.529166,-0.176389 -0.291042,0 -0.529166,0.07937 -0.529166,0.176389 0,0.102893 -0.587963,0.176389 -1.411112,0.176389 -0.823149,0 -1.411111,-0.07349 -1.411111,-0.176389 0,-0.09702 -0.198437,-0.176389 -0.440972,-0.176389 -0.242535,0 -0.440973,0.07937 -0.440973,0.176389 0,0.09701 -0.238124,0.176389 -0.529166,0.176389 -0.291042,0 -0.529167,-0.07938 -0.529167,-0.176389 0,-0.09702 -0.198437,-0.176389 -0.440972,-0.176389 -0.242535,0 -0.440973,0.07937 -0.440973,0.176389 0,0.102893 -0.587962,0.176389 -1.41111,0.176389 -0.82315,0 -1.411112,-0.07349 -1.411112,-0.176389 z M 42.61542,17.532008 c 0.218708,-0.218708 0.236758,-0.339313 0.07919,-0.529166 -0.112242,-0.135243 -0.303699,-0.245896 -0.425462,-0.245896 -0.121763,0 -0.313221,0.110653 -0.425462,0.245896 -0.157563,0.189853 -0.139513,0.310458 0.07919,0.529166 0.155799,0.1558 0.311619,0.283272 0.346267,0.283272 0.03465,0 0.190468,-0.127472 0.346268,-0.283272 z m -0.577042,-0.259125 c 0.03476,-0.104289 0.138611,-0.189618 0.230774,-0.189618 0.09216,0 0.196012,0.08533 0.230775,0.189618 0.03477,0.104291 -0.06908,0.189618 -0.230775,0.189618 -0.16169,0 -0.265539,-0.08533 -0.230774,-0.189618 z m 14.957384,0.28006 c 0.293087,-0.353149 0.09786,-0.795997 -0.350914,-0.795997 -0.200117,0 -0.409926,0.120074 -0.466242,0.26683 -0.101356,0.264132 0.209297,0.791504 0.466242,0.791504 0.07326,0 0.231167,-0.118052 0.350914,-0.262337 z m -0.527303,-0.355025 c 0,-0.161689 0.08533,-0.265538 0.189618,-0.230775 0.10429,0.03476 0.189618,0.138613 0.189618,0.230775 0,0.09216 -0.08533,0.196013 -0.189618,0.230776 -0.10429,0.03477 -0.189618,-0.06908 -0.189618,-0.230776 z m 51.317611,2.350335 c -0.27758,-0.742251 -0.67777,-1.361097 -1.25622,-1.942604 l -0.84888,-0.853357 v -1.232395 -1.232395 h 0.70556 0.70555 v -1.207384 c 0,-0.945682 -0.0699,-1.270658 -0.32257,-1.499306 -0.42972,-0.388893 -0.86377,-0.369457 -0.99518,0.04456 -0.0587,0.185065 -0.22381,0.381388 -0.36684,0.436273 -0.20129,0.07724 -0.23541,0.0015 -0.15096,-0.334839 0.13038,-0.519501 -0.32548,-0.781619 -0.82108,-0.472115 -0.22772,0.14222 -0.33491,0.143596 -0.38116,0.0049 -0.0367,-0.110162 -0.62874,-0.215118 -1.37958,-0.24458 -0.7234,-0.02839 -2.02964,-0.132518 -2.902775,-0.231407 -1.659336,-0.187935 -3.086808,-0.09739 -3.086808,0.195789 0,0.287656 -2.969787,-0.318701 -3.263192,-0.666262 C 93.165577,10.009411 91.197222,9.5151903 90.732313,9.6377776 90.508559,9.6967791 90.160999,9.6278406 89.934712,9.479574 89.580343,9.2473778 88.555113,8.9936339 87.642453,8.9122403 87.471159,8.8969667 87.237006,8.7904547 87.122106,8.6755533 86.850294,8.4037467 86.544503,8.4103306 86.309872,8.6930399 c -0.216459,0.2608217 -0.09204,0.5074521 0.409287,0.8113313 0.325858,0.1975172 0.319133,0.2050165 -0.0882,0.098287 -0.914782,-0.2397013 -1.27778,-1.1867224 -0.694751,-1.8125325 0.30746,-0.3300187 0.547105,-0.3818207 1.766345,-0.3818207 1.411145,0 4.39647,0.6054014 4.39647,0.8915714 0,0.3512787 3.434913,0.8542233 8.378467,1.2267885 1.45522,0.1096692 3.16177,0.2815851 3.79236,0.3820326 0.6306,0.1004495 1.8446,0.2196775 2.69779,0.2649525 1.3502,0.07165 1.53929,0.120675 1.45901,0.378278 -0.44899,1.440597 -0.84046,3.362781 -0.92533,4.54346 -0.0913,1.270116 -0.042,1.61996 0.45313,3.213602 0.30558,0.98358 0.60223,1.909861 0.65923,2.058404 0.0644,0.167794 0.005,0.270077 -0.15831,0.270077 -0.15941,0 -0.42139,-0.426355 -0.6693,-1.089248 z M 69.962215,19.274448 c -4.023682,-0.792741 -4.088769,-0.799469 -7.937502,-0.820551 l -3.880559,-0.02125 -0.05582,-0.485069 -0.05581,-0.48507 3.230811,-0.02086 c 1.776948,-0.01148 3.468942,-0.07685 3.759982,-0.145254 0.291046,-0.06841 -1.098021,-0.118553 -3.086807,-0.111423 l -3.615972,0.01296 -0.04937,-2.03461 -0.04937,-2.03461 0.578534,-0.170251 c 0.577856,-0.170052 0.578596,-0.171744 0.630356,-1.44907 0.051,-1.258362 0.05946,-1.278895 0.529166,-1.283519 0.286734,-0.0028 0.894621,-0.3197821 1.52232,-0.7937507 L 62.52715,8.6430702 h 6.103628 c 6.767354,0 6.814887,0.00759 6.920767,1.1047236 0.0484,0.5015212 0.124834,0.5776942 0.628367,0.6262442 l 0.573266,0.05527 v 3.604794 3.604797 l -0.39688,0.0095 c -1.544939,0.03712 -3.920767,0.192369 -3.989066,0.260669 -0.0454,0.04542 0.92284,0.08257 2.151686,0.08257 h 2.23426 v 0.79375 0.79375 l -0.837853,-3e-5 c -0.460813,-1.7e-5 -1.459987,-0.119079 -2.220373,-0.264583 -1.934413,-0.370158 -2.28348,-0.297225 -0.469554,0.09811 0.82462,0.179719 1.955713,0.330392 2.51354,0.334829 0.557834,0.0044 1.01424,0.08744 1.01424,0.184457 0,0.397056 -2.828326,0.123219 -6.790973,-0.657498 z m -3.215741,-2.280424 c -0.11942,-0.04831 -0.357548,-0.05126 -0.529167,-0.0065 -0.171627,0.04472 -0.07391,0.08425 0.217127,0.08785 0.29104,0.0036 0.431459,-0.033 0.31204,-0.08132 z m 5.26e-4,-1.66103 c 0.361674,-0.298105 0.657574,-0.615605 0.657574,-0.705556 0,-0.08995 -0.793754,-0.163547 -1.763887,-0.163547 -1.989201,0 -2.19418,0.164482 -1.190627,0.955399 0.777954,0.61312 1.480467,0.586726 2.29696,-0.0863 z m 4.185355,0.294185 c 0,-0.331281 -1.444433,-1.163288 -2.019566,-1.163288 -0.545093,0 -1.860995,0.827281 -1.860995,1.169968 0,0.189317 0.417,0.241142 1.940281,0.241142 1.548774,0 1.94028,-0.05 1.94028,-0.247822 z m 2.954514,-0.622847 c 0.412306,-0.478773 0.749654,-0.954985 0.749654,-1.058247 0,-0.123518 -0.819074,-0.187749 -2.394187,-0.187749 -2.13688,0 -2.388054,0.0315 -2.337154,0.293068 0.06979,0.358628 2.379401,1.823632 2.874807,1.823512 0.209113,-5.1e-5 0.66804,-0.361003 1.10688,-0.870584 z m -6.482295,-2.285483 c 0,-0.485958 0.0526,-0.520363 1.102428,-0.720713 0.60634,-0.115717 1.935874,-0.253033 2.95452,-0.305147 2.27696,-0.116489 2.46944,-0.203149 2.46944,-1.111793 0,-1.2335208 -0.05733,-1.2445512 -6.190753,-1.1911129 l -5.362723,0.046725 -0.05093,1.6493629 c -0.03286,1.064503 0.02167,1.736882 0.153887,1.89618 0.156847,0.188989 0.757694,0.246819 2.564493,0.246819 H 67.40459 Z M 62.85374,11.78278 c -0.363067,-0.363069 -0.25674,-1.324259 0.18036,-1.630415 0.541334,-0.3791658 0.892193,-0.3441985 1.341113,0.133659 0.454727,0.484032 0.479794,0.786932 0.108941,1.316397 -0.306154,0.4371 -1.267347,0.543428 -1.630414,0.180359 z m 2.046113,0 c 0.116414,-0.116417 0.211667,-0.457729 0.211667,-0.758472 0,-0.300744 -0.09525,-0.642056 -0.211667,-0.758473 -0.164633,-0.164629 0.709474,-0.211666 3.933469,-0.211666 4.273967,0 4.568474,0.04654 4.568474,0.721961 0,0.424553 -0.354307,0.512252 -2.086994,0.516578 -0.85926,0.0021 -2.22042,0.156669 -3.10754,0.352778 -1.818915,0.402093 -3.648142,0.478026 -3.307409,0.137294 z m 6.383416,1.184052 c 0.260833,-0.314288 0.122414,-0.760809 -0.284227,-0.916852 -0.417686,-0.16028 -0.814167,0.418495 -0.582813,0.850777 0.211806,0.395769 0.570713,0.423121 0.86704,0.06607 z m -0.703694,-0.355024 c 0,-0.181674 0.115607,-0.268187 0.30868,-0.231005 0.371801,0.0716 0.348354,0.384648 -0.0348,0.464424 -0.159807,0.03327 -0.273901,-0.06396 -0.273901,-0.233419 z m 2.359354,0.223795 c 0.147933,-0.234914 0.124933,-0.372744 -0.09971,-0.597384 -0.528413,-0.528408 -1.316767,0.162185 -0.840393,0.736178 0.274267,0.330469 0.682547,0.270193 0.9401,-0.138794 z m -0.825853,-0.07201 c -0.164614,-0.164614 0.03433,-0.41637 0.328993,-0.41637 0.139793,0 0.254174,0.119063 0.254174,0.264584 0,0.265682 -0.372354,0.362598 -0.583167,0.151786 z m 36.742894,7.168352 c 0,-0.09701 0.11906,-0.176388 0.26458,-0.176388 0.14552,0 0.26458,0.07937 0.26458,0.176388 0,0.09701 -0.11906,0.176389 -0.26458,0.176389 -0.14552,0 -0.26458,-0.07937 -0.26458,-0.176389 z M 20.132346,16.969133 v -2.610036 l 0.668894,-0.653158 0.668898,-0.653159 h 9.876365 9.876367 l 0.958088,-0.970139 0.958088,-0.970139 h 5.978558 5.978558 l 1.029078,0.548494 c 1.565122,0.8342 1.598766,0.896999 1.634848,3.051466 0.02866,1.711834 -0.13058,2.387174 -0.357916,1.517839 -0.05037,-0.192642 -0.573785,-0.708579 -1.163131,-1.146528 l -1.071535,-0.796271 -5.743621,0.0018 -5.743621,0.0018 -1.455208,1.178868 c -1.197012,0.969701 -1.455209,1.266706 -1.455209,1.67393 v 0.495057 h -8.383073 -8.383072 l -1.449039,0.970139 c -0.883265,0.591351 -1.639045,0.970139 -1.935678,0.970139 h -0.486639 z m 1.039778,0.427532 c 0.27277,-0.328668 0.05857,-0.816108 -0.35863,-0.816108 -0.427984,0 -0.612928,0.45088 -0.326507,0.795997 0.270292,0.325682 0.427702,0.330303 0.685137,0.02012 z M 37.028716,15.668714 C 36.99467,14.711093 36.903522,14.203216 36.757,14.154709 c -0.162507,-0.0538 -0.220487,0.255552 -0.220487,1.176428 v 1.24942 H 35.213597 33.89068 v -1.126508 c 0,-1.11358 -0.006,-1.127387 -0.522399,-1.203179 -0.627318,-0.09207 -0.712324,0.07189 -0.712324,1.373975 0,0.901834 -0.02486,0.955712 -0.440972,0.955712 -0.424315,0 -0.440972,-0.04252 -0.440972,-1.125964 0,-1.058108 -0.02632,-1.130997 -0.436827,-1.20947 -0.240254,-0.04593 -0.478379,-0.04195 -0.529167,0.0088 -0.05078,0.05078 -0.09234,0.595048 -0.09234,1.209469 v 1.11713 h -1.234723 -1.234722 v -1.126508 c 0,-1.117297 -0.0044,-1.127143 -0.53017,-1.20432 -0.291594,-0.04279 -0.569407,-0.03857 -0.617362,0.0094 -0.04796,0.04796 -0.08719,0.589897 -0.08719,1.20432 0,1.074012 -0.01702,1.117129 -0.440973,1.117129 -0.425143,0 -0.440972,-0.04116 -0.440972,-1.146528 0,-0.872157 -0.05986,-1.146528 -0.250157,-1.146528 -0.137586,0 -0.375711,-0.04818 -0.529166,-0.107066 -0.238203,-0.09141 -0.27901,0.07528 -0.27901,1.139661 v 1.246727 l -1.529168,0.05097 c -1.028457,0.03427 -1.553081,0.123161 -1.602199,0.271451 -0.05768,0.174109 1.526922,0.220485 7.533524,0.220485 h 7.606554 z m -12.769621,0.179017 c 0.342155,-0.488497 0.08148,-1.031062 -0.495386,-1.031062 -0.613168,0 -0.908651,0.435046 -0.662466,0.975362 0.245817,0.539511 0.800294,0.566185 1.157852,0.0557 z m -0.775361,-0.413702 c 0,-0.14552 0.119063,-0.264583 0.264584,-0.264583 0.145521,0 0.264584,0.119063 0.264584,0.264583 0,0.145522 -0.119063,0.264584 -0.264584,0.264584 -0.145521,0 -0.264584,-0.119062 -0.264584,-0.264584 z m 6.595668,0.396876 c 0.283733,-0.452622 -0.07712,-0.926042 -0.705864,-0.926042 -0.398175,0 -0.522575,0.08911 -0.567578,0.406584 -0.11831,0.834566 0.832724,1.222508 1.273442,0.519458 z m -0.907125,-0.352778 c 0.04042,-0.121267 0.179329,-0.220486 0.30868,-0.220486 0.129352,0 0.268258,0.09922 0.30868,0.220486 0.04372,0.131161 -0.08133,0.220486 -0.30868,0.220486 -0.227345,0 -0.3524,-0.08933 -0.30868,-0.220486 z m 6.557886,0.47247 c 0.508026,-0.508024 0.206843,-1.133928 -0.545639,-1.133928 -0.564965,0 -0.820614,0.547201 -0.481703,1.031062 0.315335,0.450203 0.646815,0.483394 1.027342,0.102866 z m -0.78115,-0.516568 c 0,-0.181673 0.115606,-0.268186 0.30868,-0.231003 0.371801,0.0716 0.348357,0.384648 -0.03478,0.464424 -0.159805,0.03327 -0.2739,-0.06396 -0.2739,-0.233421 z m 9.348612,-2.830682 c 0,-0.16035 -0.956227,-0.950117 -1.157625,-0.956104 -0.103117,-0.0031 -0.415623,0.232551 -0.694459,0.523593 l -0.506973,0.529166 h 1.179528 c 0.648741,0 1.179529,-0.0435 1.179529,-0.09666 z m 1.594642,-0.289294 c 0.846594,-0.625914 0.682621,-0.848773 -0.624503,-0.848773 -1.259868,0 -1.398434,0.150094 -0.763004,0.826479 0.476714,0.507438 0.725899,0.511442 1.387507,0.0223 z m 2.462302,0.222363 c 0,-0.202809 -0.862151,-0.894747 -1.114849,-0.894747 -0.224224,0 -1.001817,0.708415 -1.001817,0.912691 0,0.0801 0.47625,0.145642 1.058333,0.145642 0.582084,0 1.058333,-0.07362 1.058333,-0.163586 z m 1.706447,-0.288883 c 0.32627,-0.248858 0.547359,-0.526671 0.49131,-0.617361 -0.05606,-0.09069 -0.613163,-0.164892 -1.238028,-0.164892 -1.283643,0 -1.469841,0.241054 -0.671357,0.869142 0.593337,0.46672 0.700897,0.460129 1.418075,-0.08689 z m 2.350499,0.331546 c 0,-0.179986 -0.743224,-0.93741 -0.919836,-0.93741 -0.221251,0 -1.196832,0.745943 -1.196832,0.915116 0,0.07877 0.476251,0.143217 1.058334,0.143217 0.582083,0 1.058334,-0.05441 1.058334,-0.120923 z m 1.77103,-0.265026 c 0.846595,-0.625914 0.682622,-0.848773 -0.624502,-0.848773 -1.259869,0 -1.398435,0.150094 -0.763004,0.826479 0.476713,0.507438 0.725898,0.511442 1.387506,0.0223 z m 2.462303,0.222363 c 0,-0.202809 -0.862152,-0.894747 -1.11485,-0.894747 -0.224223,0 -1.001817,0.708415 -1.001817,0.912691 0,0.0801 0.47625,0.145642 1.058334,0.145642 0.582084,0 1.058333,-0.07362 1.058333,-0.163586 z m -42.074812,5.229325 c -0.05553,-0.221275 -0.0769,-0.907553 -0.04746,-1.525063 0.05939,-1.245901 0.38823,-1.68788 0.97956,-1.316572 0.23032,0.144623 0.322265,0.478842 0.362198,1.316572 0.07654,1.605787 -0.03541,1.92738 -0.670879,1.92738 -0.396783,0 -0.546734,-0.09677 -0.623419,-0.402317 z m 1.048801,-1.942025 c 0.27557,-0.436869 -0.289977,-0.986229 -0.681111,-0.661617 -0.32851,0.272639 -0.348974,0.56681 -0.05956,0.856219 0.259485,0.259485 0.492935,0.198149 0.740675,-0.194602 z m -9.4212151,1.638785 c 0,-0.341001 0.1162853,-0.352646 3.4836806,-0.348854 l 3.4836805,0.0039 -0.440972,0.344934 c -0.398293,0.31155 -0.735456,0.345313 -3.4836805,0.348855 -2.9264233,0.0038 -3.0427086,-0.0096 -3.0427086,-0.348855 z M 17.268379,17.151828 c -0.861628,-0.561541 -1.012232,-0.738761 -1.014236,-1.193481 -0.0034,-0.764799 -0.447512,-1.318067 -1.058089,-1.318067 -0.699106,0 -1.060931,0.423276 -1.060931,1.241115 0,0.498444 -0.09355,0.736818 -0.341182,0.869346 -0.20346,0.108888 -1.805492,0.182594 -3.9687499,0.182594 H 6.1976219 v -1.852083 -1.852083 h 7.2626921 7.262692 l -0.383525,0.408243 c -0.344375,0.366571 -0.383524,0.600639 -0.383524,2.293055 v 1.884813 l -0.837847,-0.002 c -0.667707,-0.0016 -1.04333,-0.135903 -1.849731,-0.661451 z M 3.3753998,16.933335 c 0,-0.342986 0.083625,-0.365233 1.1906247,-0.316739 0.9175606,0.04019 1.1906253,0.112837 1.1906253,0.316739 0,0.203903 -0.2730647,0.276545 -1.1906253,0.31674 -1.1069994,0.04849 -1.1906247,0.02625 -1.1906247,-0.31674 z m 0,-2.028472 v -1.322917 h 1.234722 1.2347227 v 1.322917 1.322917 H 4.6101218 3.3753998 Z M 92.628191,12.668712 C 91.859194,11.62744 91.77392,11.569974 89.894159,10.826475 86.984297,9.6755365 87.090392,9.733374 87.339169,9.4336198 c 0.257875,-0.3107186 1.442743,-0.1874973 2.089503,0.2173007 0.229054,0.1433594 0.864049,0.2827716 1.411112,0.3098061 1.255348,0.062028 1.945127,0.2401364 2.453188,0.6334124 0.220115,0.170382 0.795488,0.364151 1.278627,0.430599 0.483131,0.06645 0.922874,0.192753 0.977213,0.280678 0.128091,0.207243 1.085808,0.207899 1.21379,8e-4 0.173666,-0.281006 2.087414,-0.382144 3.450308,-0.182344 0.72761,0.106667 1.79917,0.207269 2.38126,0.223561 1.06024,0.02968 1.49929,0.170531 1.49929,0.481003 0,0.09713 -1.2293,0.165982 -2.96339,0.165982 h -2.963409 l -0.989515,0.881944 -0.989523,0.881945 -1.382844,-0.0074 -1.382844,-0.0074 z M 4.4337331,12.595983 c 0,-0.310878 0.8722194,-0.766865 1.476806,-0.77206 0.5874648,-0.005 0.6523261,0.03116 0.4634721,0.258716 -0.337948,0.407202 0.3345954,0.339948 0.881944,-0.08819 0.4346567,-0.339994 1.4111117,-0.486462 1.4111117,-0.211668 0,0.07761 -0.09525,0.236362 -0.2116667,0.352779 -0.3712767,0.371276 0.3708906,0.250773 0.8690904,-0.141111 0.4949202,-0.389304 1.6947734,-0.517753 1.3181324,-0.141112 -0.30451,0.30451 -0.260885,0.493889 0.113773,0.493889 0.178991,0 0.469106,-0.158749 0.644699,-0.352777 0.229796,-0.253923 0.543272,-0.352778 1.118672,-0.352778 h 0.799412 l -0.506972,0.529166 -0.506975,0.529168 H 8.3694828 c -2.1646623,0 -3.9357497,-0.04681 -3.9357497,-0.104018 z m 8.6430569,-0.03312 c 0,-0.450534 0.598873,-0.923209 1.200626,-0.947621 0.532473,-0.0216 0.562862,-0.03985 0.166388,-0.09991 -0.460257,-0.06973 -0.48507,-0.122238 -0.48507,-1.026623 0,-0.8545146 -0.05475,-0.9936258 -0.529167,-1.3443724 C 13.138526,8.9291558 12.9004,8.6886541 12.9004,8.6098841 c 0,-0.07877 1.309688,-0.1432173 2.910417,-0.1432173 h 2.910417 v 2.1166662 2.116668 h -2.822222 c -1.552222,0 -2.822222,-0.06171 -2.822222,-0.137142 z m 6.173611,-1.118749 c 0,-1.093685 0.02595,-1.173741 0.352777,-1.088274 0.252573,0.06605 0.352779,0.0054 0.352779,-0.213475 0,-0.2188859 -0.100206,-0.2795234 -0.352779,-0.2134747 -0.322658,0.084378 -0.352777,0.00537 -0.352777,-0.9249221 V 7.9867915 l 5.512153,-0.1179487 c 3.031684,-0.064873 5.909028,-0.1579527 6.394098,-0.2068466 1.390629,-0.1401727 1.403505,-0.1078381 0.959434,2.4095078 -0.212238,1.20314 -0.435561,2.239163 -0.496272,2.302271 -0.06071,0.06311 -2.868666,0.145372 -6.239899,0.182805 l -6.129514,0.06806 z m 11.553473,-0.334026 c 0,-0.378091 -0.512528,-0.32348 -0.586867,0.06253 -0.04539,0.235725 0.02644,0.307564 0.262169,0.262168 0.178583,-0.03439 0.324698,-0.180507 0.324698,-0.324698 z m 0.881944,0 c 0,-0.378091 -0.512527,-0.32348 -0.586866,0.06253 -0.04539,0.235725 0.02644,0.307564 0.262168,0.262168 0.178583,-0.03439 0.324698,-0.180507 0.324698,-0.324698 z M 3.4909317,12.201045 C 3.0538124,11.718033 3.0761458,9.3380938 3.5215784,8.9349805 3.9565971,8.5412935 4.1227724,8.5652735 4.6188478,9.0933217 4.9732098,9.4705225 4.9999425,9.5694832 4.7835938,9.7031941 4.6141358,9.807925 4.3830318,9.7695606 4.1114531,9.5916155 3.8838158,9.4424616 3.6622891,9.3557045 3.6191718,9.3988218 c -0.04312,0.043119 0.1225199,0.2100388 0.368082,0.3709376 0.6057813,0.3969236 0.608546,1.1959796 0.00553,1.5911066 -0.2425347,0.158916 -0.4409721,0.372243 -0.4409721,0.474062 0,0.101818 0.2077674,0.02169 0.4617048,-0.178053 0.4745193,-0.373256 0.7730173,-0.348886 0.7730173,0.06311 0,0.194358 -0.7100766,0.803627 -0.9365947,0.803627 -0.036887,0 -0.1984267,-0.145158 -0.358984,-0.322571 z M 32.204496,11.95035 c 0.154323,-0.725441 0.62785,-3.1675358 0.62785,-3.2379638 0,-0.038133 1.111251,-0.069327 2.469445,-0.069327 h 2.469445 v 0.981452 c 0,0.9566788 -0.02337,1.0032588 -0.926042,1.8453588 l -0.926041,0.863908 -1.899542,0.0067 c -1.878817,0.0066 -1.89862,0.0024 -1.815115,-0.390151 z M 37.4943,9.8577953 c -0.150303,-0.2431948 -0.605009,-0.1839845 -0.605009,0.078783 0,0.1293517 0.05223,0.2874137 0.116062,0.3512477 0.159514,0.159514 0.608988,-0.2358 0.488947,-0.4300307 z m -0.957787,2.4048687 c 0,-0.04651 0.357188,-0.413806 0.79375,-0.816215 0.751461,-0.692672 0.79375,-0.782144 0.79375,-1.6793277 0,-0.8133335 0.0475,-0.9476731 0.335018,-0.9476731 0.270058,0 0.347242,-0.1537407 0.398078,-0.7929127 L 38.920175,7.2336228 21.191886,7.1886895 3.4635958,7.1437561 V 5.9417514 4.7397467 l 2.3812507,-0.0032 2.3812503,-0.0032 0.3249174,0.5437481 c 0.2982607,0.4991379 0.4023225,0.543748 1.2684092,0.543748 0.5189206,0 0.9925486,-0.079375 1.0525076,-0.1763894 0.143623,-0.2323887 2.910416,-0.2323887 2.910416,0 0,0.097014 0.198438,0.1763894 0.440972,0.1763894 0.242534,0 0.440972,-0.079375 0.440972,-0.1763894 0,-0.2461573 0.636007,-0.2202787 1.083773,0.0441 0.298744,0.1763893 0.3894,0.1763893 0.453278,0 0.09803,-0.2707047 2.795982,-0.310886 2.960867,-0.0441 0.141939,0.2296633 0.970138,0.2296633 0.970138,0 0,-0.097013 0.198438,-0.1763886 0.440973,-0.1763886 0.242535,0 0.440972,0.079375 0.440972,0.1763886 0,0.2296633 0.828199,0.2296633 0.970138,0 0.142144,-0.2299926 2.680081,-0.2299926 2.822224,0 0.141939,0.2296633 0.970138,0.2296633 0.970138,0 0,-0.2296627 0.828199,-0.2296627 0.970139,0 0.141941,0.2296633 0.970139,0.2296633 0.970139,0 0,-0.1028934 0.587963,-0.1763886 1.411112,-0.1763886 0.823148,0 1.411111,0.073495 1.411111,0.1763886 0,0.2296633 0.828198,0.2296633 0.970139,0 0.14194,-0.2296627 0.970138,-0.2296627 0.970138,0 0,0.097014 0.198438,0.1763894 0.440973,0.1763894 0.242535,0 0.440972,-0.079375 0.440972,-0.1763894 0,-0.2323887 2.766792,-0.2323887 2.910417,0 0.14194,0.2296633 0.970139,0.2296633 0.970139,0 0,-0.097013 0.198437,-0.1763886 0.440972,-0.1763886 0.242535,0 0.440972,0.079375 0.440972,0.1763886 0,0.2296633 0.828199,0.2296633 0.970139,0 0.143625,-0.2323887 2.910417,-0.2323887 2.910417,0 0,0.097014 0.193753,0.1763894 0.430562,0.1763894 0.236809,0 0.479619,-0.079375 0.539577,-0.1763894 0.05996,-0.097013 0.302768,-0.1763886 0.539577,-0.1763886 0.236809,0 0.430562,0.079375 0.430562,0.1763886 0,0.097014 0.198437,0.1763894 0.440972,0.1763894 0.242535,0 0.440973,-0.079375 0.440973,-0.1763894 0,-0.1028934 0.587962,-0.1763886 1.41111,-0.1763886 0.823149,0 1.411112,0.073495 1.411112,0.1763886 0,0.097014 0.238125,0.1763894 0.529167,0.1763894 0.291041,0 0.529166,-0.079375 0.529166,-0.1763894 0,-0.097013 0.198438,-0.1763886 0.440972,-0.1763886 0.242536,0 0.440973,0.079375 0.440973,0.1763886 0,0.097014 0.193753,0.1763894 0.430562,0.1763894 0.236809,0 0.479619,-0.079375 0.539577,-0.1763894 0.05996,-0.097013 0.73933,-0.1763886 1.509716,-0.1763886 0.816208,0 1.400701,0.073605 1.400701,0.1763886 0,0.097014 0.198438,0.1763894 0.440972,0.1763894 0.242535,0 0.440973,-0.079375 0.440973,-0.1763894 0,-0.2296627 0.828198,-0.2296627 0.970139,0 0.14194,0.2296633 0.970138,0.2296633 0.970138,0 0,-0.102694 0.581673,-0.1763886 1.39224,-0.1763886 1.459453,0 1.606366,0.081979 1.606366,0.8963706 0,0.2988 0.13918,0.33992 1.190627,0.3517707 l 1.190628,0.01342 -0.617361,0.2377447 c -0.388033,0.1494313 -1.420006,0.2427293 -2.778125,0.251164 -1.31397,0.00816 -2.160764,0.082545 -2.160764,0.189808 0,0.097014 -0.396875,0.1763887 -0.881944,0.1763887 -0.485069,0 -0.881944,-0.079374 -0.881944,-0.1763887 0,-0.108882 -0.911344,-0.1763887 -2.381251,-0.1763887 -1.469907,0 -2.38125,0.067507 -2.38125,0.1763887 0,0.225354 -1.71474,0.2329673 -1.793288,0.00796 -0.03311,-0.09485 -1.175974,-0.1798844 -2.616434,-0.1946684 l -2.557639,-0.026247 -0.0286,1.9983357 -0.0286,1.9983349 -0.630261,0.57759 -0.63026,0.577591 h -2.38384 c -1.311112,0 -2.383841,-0.03805 -2.383841,-0.08456 z M 7.0795666,6.2618055 c 0,-0.4213734 -0.04704,-0.4409721 -1.0583334,-0.4409721 -1.0112968,0 -1.0583334,0.0196 -1.0583334,0.4409721 0,0.4213739 0.047034,0.4409726 1.0583334,0.4409726 1.011296,0 1.0583334,-0.0196 1.0583334,-0.4409726 z M 57.024218,11.549678 56.080672,10.759722 H 49.571787 43.062903 V 9.3486111 7.9375002 h 8.025695 8.025694 v 2.2048608 2.204861 l -0.573263,-0.0038 c -0.417662,-0.0028 -0.829372,-0.218214 -1.516811,-0.793752 z M 44.474014,8.8194449 c 0,-0.097014 -0.119063,-0.1763894 -0.264583,-0.1763894 -0.145521,0 -0.264583,0.079375 -0.264583,0.1763894 0,0.097013 0.119062,0.1763886 0.264583,0.1763886 0.14552,0 0.264583,-0.079379 0.264583,-0.1763886 z m 1.234722,0 c 0,-0.097014 -0.07938,-0.1763894 -0.176388,-0.1763894 -0.09701,0 -0.176389,0.079375 -0.176389,0.1763894 0,0.097013 0.07937,0.1763886 0.176389,0.1763886 0.09701,0 0.176388,-0.079379 0.176388,-0.1763886 z m 58.913894,2.7340281 c 0,-0.145522 0.0794,-0.264584 0.17639,-0.264584 0.097,0 0.17639,0.119062 0.17639,0.264584 0,0.14552 -0.0794,0.264583 -0.17639,0.264583 -0.097,0 -0.17639,-0.119063 -0.17639,-0.264583 z m 4.00295,0.151785 c -0.14092,-0.140923 0.0184,-0.416369 0.24079,-0.416369 0.0913,0 0.16599,0.119062 0.16599,0.264584 0,0.272769 -0.20813,0.350432 -0.40678,0.151785 z M 4.9041032,11.347685 C 4.7167871,11.160369 4.7680904,9.8777775 4.9628966,9.8777775 c 0.097014,0 0.1763887,0.3571885 0.1763887,0.7937505 0,0.807579 -0.02678,0.884565 -0.2351853,0.676157 z M 5.4920665,10.583333 V 9.7013887 h 0.6173613 0.6173607 v 0.8819443 0.881944 H 6.1094278 5.4920665 Z m 2.5038777,0.0441 c 0.04588,-0.7149919 0.1119566,-0.8461133 0.4506366,-0.8942134 0.3667954,-0.052092 0.3968747,0.011405 0.3968747,0.8378484 0,0.841347 -0.02664,0.894211 -0.4506367,0.894211 -0.4275546,0 -0.4478833,-0.04291 -0.3968746,-0.837846 z m 2.0822348,-0.03182 c 0,-0.8413481 0.02664,-0.8942121 0.450636,-0.8942121 0.427555,0 0.447883,0.042909 0.396874,0.8378471 -0.04588,0.714992 -0.111956,0.846112 -0.450636,0.894212 -0.366795,0.05209 -0.396874,-0.0114 -0.396874,-0.837847 z m 2.116666,-5.47e-4 c 0,-0.8139335 0.03138,-0.874981 0.48507,-0.9437098 0.4391,-0.066523 0.4292,-0.075991 -0.104471,-0.09991 -0.324247,-0.014541 -0.791357,-0.1851845 -1.038023,-0.3792125 -0.696412,-0.5477965 -1.462839,-0.4269298 -0.894798,0.1411112 0.164629,0.1646296 0.09231,0.2116672 -0.32544,0.2116672 -0.313094,0 -0.6702608,-0.1471346 -0.856366,-0.3527784 C 9.285224,8.9782027 8.9431205,8.8194535 8.7005848,8.8194535 c -0.4297993,0 -0.4328826,0.00894 -0.1217126,0.3527772 0.313482,0.3463936 0.3080866,0.3527784 -0.2981013,0.3527784 -0.3933487,0 -0.7332063,-0.1280078 -0.936621,-0.3527784 C 7.1685572,8.9781993 6.8784426,8.8194502 6.6994505,8.8194502 c -0.3746573,0 -0.4182827,0.1893785 -0.1137726,0.4938883 0.1646293,0.1646296 0.056833,0.2104287 -0.48507,0.2060933 C 5.6203411,9.5155652 5.2531652,9.3812111 4.9188025,9.0869193 4.6520144,8.8521042 4.4337331,8.6164875 4.4337331,8.5633275 c 0,-0.05316 1.7182314,-0.096655 3.8182924,-0.096655 h 3.8182915 l 0.76782,0.6291703 c 0.717374,0.5878333 0.767819,0.6863386 0.767819,1.4993052 v 0.870135 H 12.9004 12.194845 v -0.870228 z m 63.876538,-1.5362055 0.05274,-0.85676 -6.920007,-0.046147 -6.920002,-0.046146 -0.895188,0.7076046 c -0.580314,0.45871 -1.07574,0.7076011 -1.408514,0.7076011 -0.505553,0 -0.513327,-0.014918 -0.513327,-0.9848384 0,-0.7105113 0.0614,-0.9638247 0.220488,-0.9094006 0.121266,0.041493 0.770166,-0.1106454 1.442006,-0.3380788 1.145768,-0.387872 1.481349,-0.413516 5.411262,-0.413516 2.776082,0 5.637289,0.1249534 8.479875,0.3703287 2.359567,0.2036814 4.647314,0.3916787 5.083874,0.4177721 0.436559,0.026094 0.992187,0.097401 1.23472,0.1584612 0.242533,0.06106 1.11566,0.1453714 1.94028,0.1873594 0.824619,0.041987 1.598528,0.081844 1.719801,0.088571 0.137055,0.0076 0.220484,0.275512 0.220484,0.7080647 V 9.505567 L 81.4716,9.58913 C 79.410053,9.635092 77.339787,9.7273506 76.871006,9.7941532 L 76.018673,9.915611 76.07141,9.05885 Z m 10.417003,-0.076242 c 0.0348,-0.1042898 0.138606,-0.1896178 0.230773,-0.1896178 0.09217,0 0.196006,0.085328 0.230773,0.1896178 0.03472,0.1042898 -0.0691,0.189618 -0.230773,0.189618 -0.161692,0 -0.26554,-0.085328 -0.230773,-0.189618 z m -8.412284,-1.868693 c -0.29104,-0.03584 -0.886353,-0.1503474 -1.322913,-0.2544534 -0.50462,-0.120336 -3.284273,-0.1801687 -7.631007,-0.1642587 -6.129035,0.022433 -6.848522,-0.00434 -6.945928,-0.2581593 -0.06493,-0.1691793 0.03953,-0.42123 0.259393,-0.6260867 0.29654,-0.2762694 0.624546,-0.3429033 1.687946,-0.3429033 0.725934,0 1.36894,0.079375 1.428893,0.1763892 0.141941,0.2296628 0.97014,0.2296628 0.97014,0 0,-0.097014 0.198441,-0.1763892 0.440974,-0.1763892 0.242533,0 0.440974,0.079375 0.440974,0.1763892 0,0.2296628 0.828202,0.2296628 0.970141,0 0.143621,-0.2323893 2.910414,-0.2323893 2.910414,0 0,0.097014 0.19844,0.1763888 0.440974,0.1763888 0.242533,0 0.440972,-0.079374 0.440972,-0.1763888 0,-0.097014 0.238128,-0.1763892 0.529168,-0.1763892 0.444832,0 0.529166,-0.069285 0.529166,-0.4347661 0,-0.6255793 0.47838,-0.8049953 2.458687,-0.9221287 l 1.740386,-0.1029427 0.286247,0.5535301 c 0.157434,0.3044413 0.357907,0.55353 0.4455,0.55353 0.351427,0 0.713627,0.588308 0.713627,1.1591267 0,0.4089654 0.08229,0.604762 0.254173,0.604762 0.139793,0 0.303227,0.079374 0.363187,0.1763887 0.10776,0.174362 -0.324167,0.1922253 -1.411114,0.05836 z m -0.833,-0.8621134 c 0.489454,-0.3428227 0.507334,-1.0212247 0.03927,-1.4893034 -0.465533,-0.4655273 -0.805726,-0.4450341 -1.330933,0.080177 -0.525213,0.5252107 -0.545707,0.8654067 -0.08018,1.3309347 0.423793,0.423794 0.844233,0.447758 1.37186,0.078192 z M 76.252682,6.0186794 C 76.122929,5.9364334 76.043556,5.67968 76.076296,5.4481167 c 0.08191,-0.579338 0.944853,-0.701548 1.117293,-0.158232 0.200193,0.6307453 -0.382973,1.0824441 -0.940907,0.7287947 z M 3.4929924,4.29213 C 3.4283191,4.2274567 3.3753998,3.9496414 3.3753998,3.6747687 V 3.175 h 2.0883533 c 2.0666941,0 2.0904775,0.00467 2.2930564,0.449272 0.112586,0.2470994 0.204702,0.524912 0.204702,0.6173614 0,0.1892907 -4.2813438,0.237672 -4.4685191,0.050493 z"
       id="path1023" />
  </g>
</svg>
