<?xml version="1.0" encoding="UTF-8" standalone="no"?>
<!-- Generator: Adobe Illustrator 22.1.0, SVG Export Plug-In . SVG Version: 6.00 Build 0)  -->

<svg
   version="1.1"
   id="Layer_4_1_"
   x="0px"
   y="0px"
   viewBox="0 0 512 512"
   xml:space="preserve"
   sodipodi:docname="Med_Kit.svg"
   width="512"
   height="512"
   inkscape:version="1.1 (c68e22c387, 2021-05-23)"
   xmlns:inkscape="http://www.inkscape.org/namespaces/inkscape"
   xmlns:sodipodi="http://sodipodi.sourceforge.net/DTD/sodipodi-0.dtd"
   xmlns="http://www.w3.org/2000/svg"
   xmlns:svg="http://www.w3.org/2000/svg"><defs
   id="defs19" /><sodipodi:namedview
   id="namedview17"
   pagecolor="#ffffff"
   bordercolor="#666666"
   borderopacity="1.0"
   inkscape:pageshadow="2"
   inkscape:pageopacity="0.0"
   inkscape:pagecheckerboard="0"
   showgrid="false"
   inkscape:zoom="0.43243243"
   inkscape:cx="12.71875"
   inkscape:cy="188.46875"
   inkscape:window-width="1366"
   inkscape:window-height="697"
   inkscape:window-x="-8"
   inkscape:window-y="-8"
   inkscape:window-maximized="1"
   inkscape:current-layer="Layer_4_1_" />
<style
   type="text/css"
   id="style2">
	.st0{fill:#CE3535;}
	.st1{fill:#FFFFFF;}
	.st2{fill:#241C1C;}
</style>
<g
   id="g975"
   transform="matrix(13.707881,0,0,13.707881,2.4044833,1.0334165)"><g
     id="g14">
	<path
   class="st0"
   d="M 34.4,15.8 V 12 c 0,-1.3 -0.9,-2.4 -2,-2.4 h -0.5 c -0.3,0 -0.5,0.3 -0.5,0.6 v 2.2 h -1 v -3 c 0,-0.7 -0.5,-1.3 -1.1,-1.3 h -0.2 v 3.8 H 27 v -3.7 0 c -0.6,0 -1.1,0.6 -1.1,1.3 v 3 H 24.6 V 10.3 C 24.6,9.9 24.4,9.7 24,9.7 H 12.8 c -0.3,0 -0.6,0.3 -0.6,0.6 v 2.2 h -1.3 v -3 C 10.9,8.8 10.4,8.2 9.8,8.2 H 9.7 V 12 H 7.5 V 8.2 H 7.4 C 6.8,8.2 6.3,8.8 6.3,9.5 v 3 h -1 V 10.3 C 5.3,10 5.1,9.7 4.8,9.7 H 4.6 c -1.1,0 -2,1.1 -2,2.4 V 16 h 4.2 v 9.9 H 2.6 v 3.9 c 0,1.3 0.9,2.4 2,2.4 h 0.3 c 0.3,0 0.5,-0.3 0.5,-0.6 v -2 h 1 v 2.8 c 0,0.7 0.5,1.3 1.1,1.3 h 0.1 v -3.6 h 2.1 v 3.6 h 0.1 c 0.6,0 1.1,-0.6 1.1,-1.3 v -2.8 h 1.3 v 2 c 0,0.4 0.2,0.6 0.6,0.6 H 24 c 0.3,0 0.6,-0.3 0.6,-0.6 v -2 h 1.3 v 2.8 c 0,0.7 0.5,1.3 1.1,1.3 v 0 -3.6 h 2.1 v 3.6 h 0.2 c 0.6,0 1.1,-0.6 1.1,-1.3 v -2.8 h 1 v 2 c 0,0.3 0.2,0.6 0.5,0.6 h 0.5 c 1.1,0 2,-1.1 2,-2.4 V 25.9 H 30.2 V 16 h 4.2 z"
   id="path4" />
	<path
   class="st1"
   d="m 18.5,13.7 h -1.4 c -0.2,0 -0.4,0.2 -0.4,0.4 v 5.1 h -5.1 c -0.2,0 -0.4,0.2 -0.4,0.4 V 21 c 0,4.1 3.3,7.4 7.4,7.4 H 20 c 0.2,0 0.4,-0.2 0.4,-0.4 v -5 h 5.1 c 0.2,0 0.4,-0.2 0.4,-0.4 v -1.4 c 0,-4.1 -3.3,-7.5 -7.4,-7.5 z m -1.8,10.4 v 3.3 C 14.6,26.8 12.9,25.1 12.3,23 h 3.2 l 4.9,-4.9 v -3.2 c 2.1,0.6 3.8,2.3 4.4,4.4 h -3.3 z"
   id="path6" />
	<path
   class="st0"
   d="m 0.7,16.7 v 1.2 c 0,0.1 0.1,0.2 0.3,0.2 h 1.1 c 0.3,0 0.5,0.2 0.5,0.5 v 0.6 H 1.1 v 3.1 H 2.5 V 23 c 0,0.2 -0.2,0.5 -0.5,0.5 H 1 c -0.1,0 -0.3,0.1 -0.3,0.2 v 1.2 h 5.1 v -8.2 z"
   id="path8" />
	<path
   class="st0"
   d="M 34.9,18.2 H 36 c 0.1,0 0.3,-0.1 0.3,-0.2 V 16.8 H 31.2 V 25 h 5.1 v -1.2 c 0,-0.1 -0.1,-0.2 -0.3,-0.2 h -1.1 c -0.3,0 -0.5,-0.2 -0.5,-0.5 v -0.6 h 1.4 v -3.1 h -1.4 v -0.6 c 0,-0.4 0.3,-0.6 0.5,-0.6 z"
   id="path10" />
	<path
   class="st2"
   d="m 28.6,6.9 h -1.2 c 0,-2.1 -1.8,-2.1 -2,-2.1 h -14 c -0.2,0 -2,0.1 -2,2.1 H 8.2 c 0,-1 0.3,-1.8 0.9,-2.4 1,-0.9 2.3,-0.9 2.4,-1 h 14 c 0.1,0 1.4,0 2.3,0.9 0.5,0.7 0.8,1.5 0.8,2.5 z"
   id="path12"
   style="fill:#273839;fill-opacity:1" />
</g></g>
</svg>
