<?xml version="1.0" encoding="UTF-8" standalone="no"?>
<svg
   id="draw_on_this_one"
   data-name="draw on this one"
   viewBox="0 0 512 512"
   version="1.1"
   sodipodi:docname="Mobile_Respawn_Beacon.svg"
   width="512"
   height="512"
   inkscape:version="1.1 (c68e22c387, 2021-05-23)"
   xmlns:inkscape="http://www.inkscape.org/namespaces/inkscape"
   xmlns:sodipodi="http://sodipodi.sourceforge.net/DTD/sodipodi-0.dtd"
   xmlns="http://www.w3.org/2000/svg"
   xmlns:svg="http://www.w3.org/2000/svg"
   xmlns:rdf="http://www.w3.org/1999/02/22-rdf-syntax-ns#"
   xmlns:cc="http://creativecommons.org/ns#"
   xmlns:dc="http://purl.org/dc/elements/1.1/">
  <sodipodi:namedview
     id="namedview35"
     pagecolor="#ffffff"
     bordercolor="#666666"
     borderopacity="1.0"
     inkscape:pageshadow="2"
     inkscape:pageopacity="0.0"
     inkscape:pagecheckerboard="0"
     showgrid="false"
     inkscape:zoom="0.44290658"
     inkscape:cx="278.83984"
     inkscape:cy="321.73828"
     inkscape:window-width="1366"
     inkscape:window-height="697"
     inkscape:window-x="-8"
     inkscape:window-y="-8"
     inkscape:window-maximized="1"
     inkscape:current-layer="draw_on_this_one" />
  <defs
     id="defs4">
    <style
       id="style2">.cls-1{fill:#241c1c;}.cls-2{fill:#b1fd56;}</style>
  </defs>
  <title
     id="title6">Mobile Respawn Beacon</title>
  <g
     id="g1080"
     transform="matrix(13.508651,0,0,13.508651,12,12)">
    <path
       class="cls-1"
       d="M 3.213,12.685 V 11.3 L 11.3,3.213 h 1.388 V 1.671 h -2.096 l -8.921,8.921 v 2.093 z"
       transform="translate(-0.438,-0.437)"
       id="path8"
       style="fill:#273839;fill-opacity:1" />
    <path
       class="cls-1"
       d="M 3.213,25.7 V 24.315 H 1.671 v 2.093 l 8.921,8.921 h 2.093 V 33.787 H 11.3 Z"
       transform="translate(-0.438,-0.437)"
       id="path10"
       style="fill:#273839;fill-opacity:1" />
    <path
       class="cls-1"
       d="M 33.787,24.315 V 25.7 L 25.7,33.787 h -1.385 v 1.542 h 2.093 l 8.921,-8.921 v -2.093 z"
       transform="translate(-0.438,-0.437)"
       id="path12"
       style="fill:#273839;fill-opacity:1" />
    <path
       class="cls-1"
       d="m 33.787,11.3 v 1.388 h 1.542 V 10.592 L 26.408,1.671 H 24.315 V 3.213 H 25.7 Z"
       transform="translate(-0.438,-0.437)"
       id="path14"
       style="fill:#273839;fill-opacity:1" />
    <polygon
       class="cls-1"
       points="0,19.462 1.351,19.462 1.351,20.345 0,20.345 0,22.027 2.775,22.027 2.775,14.098 0,14.098 0,15.78 1.351,15.78 1.351,16.663 0,16.663 "
       id="polygon16"
       style="fill:#273839;fill-opacity:1" />
    <polygon
       class="cls-1"
       points="19.462,36.125 19.462,34.774 20.345,34.774 20.345,36.125 22.027,36.125 22.027,33.35 14.098,33.35 14.098,36.125 15.78,36.125 15.78,34.774 16.663,34.774 16.663,36.125 "
       id="polygon18"
       style="fill:#273839;fill-opacity:1" />
    <polygon
       class="cls-1"
       points="36.125,16.663 34.774,16.663 34.774,15.78 36.125,15.78 36.125,14.098 33.35,14.098 33.35,22.027 36.125,22.027 36.125,20.345 34.774,20.345 34.774,19.462 36.125,19.462 "
       id="polygon20"
       style="fill:#273839;fill-opacity:1" />
    <polygon
       class="cls-1"
       points="16.663,0 16.663,1.351 15.78,1.351 15.78,0 14.098,0 14.098,2.775 22.027,2.775 22.027,0 20.345,0 20.345,1.351 19.462,1.351 19.462,0 "
       id="polygon22"
       style="fill:#273839;fill-opacity:1" />
    <path
       class="cls-2"
       d="M 18.5,31.386 A 2.7,2.7 0 0 1 16.584,30.593 L 6.407,20.416 a 2.711,2.711 0 0 1 0,-3.832 L 16.584,6.407 a 2.776,2.776 0 0 1 3.832,0 l 10.177,10.177 a 2.711,2.711 0 0 1 0,3.832 L 20.416,30.593 A 2.7,2.7 0 0 1 18.5,31.386 Z m 0,-24.978 a 1.908,1.908 0 0 0 -1.355,0.56 L 6.968,17.145 a 1.919,1.919 0 0 0 0,2.71 l 10.177,10.176 a 1.917,1.917 0 0 0 2.71,0 L 30.031,19.855 a 1.917,1.917 0 0 0 0,-2.71 L 19.855,6.968 A 1.907,1.907 0 0 0 18.5,6.408 Z"
       transform="translate(-0.438,-0.437)"
       id="path24" />
    <path
       class="cls-2"
       d="m 24.646,24.976 -0.093,-2.99 -3.112,0.661 1.1,0.8 a 6.372,6.372 0 0 1 -10.417,-4.931 6.407,6.407 0 0 1 0.159,-1.4 L 11.27,16.639 a 7.466,7.466 0 0 0 12.18,7.468 z"
       transform="translate(-0.438,-0.437)"
       id="path26" />
    <path
       class="cls-2"
       d="m 18.5,11.033 a 7.431,7.431 0 0 0 -4.95,1.886 l -1.2,-0.869 0.093,2.99 3.112,-0.661 -1.1,-0.8 a 6.372,6.372 0 0 1 10.417,4.931 6.4,6.4 0 0 1 -0.159,1.4 l 1.013,0.477 A 7.455,7.455 0 0 0 18.5,11.033 Z"
       transform="translate(-0.438,-0.437)"
       id="path28" />
    <path
       class="cls-2"
       d="m 16.96,18.515 0.711,-1.757 0.853,2.539 0.666,-1.635 0.479,0.853 h 2.864 a 2.359,2.359 0 0 0 0.1,-0.655 2.467,2.467 0 0 0 -4.133,-1.828 2.467,2.467 0 0 0 -4.134,1.828 2.36,2.36 0 0 0 0.1,0.655 z"
       transform="translate(-0.438,-0.437)"
       id="path30" />
    <path
       class="cls-2"
       d="m 19.359,19.044 -0.093,-0.167 -0.79,1.938 -0.851,-2.534 -0.309,0.763 H 14.68 a 2.551,2.551 0 0 0 0.24,0.359 v 0 l 3.58,3.482 3.58,-3.485 a 2.551,2.551 0 0 0 0.24,-0.359 z"
       transform="translate(-0.438,-0.437)"
       id="path32" />
  </g>
  <metadata
     id="metadata852">
    <rdf:RDF>
      <cc:Work
         rdf:about="">
        <dc:title>Mobile Respawn Beacon</dc:title>
      </cc:Work>
    </rdf:RDF>
  </metadata>
</svg>
