<?xml version="1.0" encoding="UTF-8" standalone="no"?>
<svg
   xmlns:osb="http://www.openswatchbook.org/uri/2009/osb"
   xmlns:dc="http://purl.org/dc/elements/1.1/"
   xmlns:cc="http://creativecommons.org/ns#"
   xmlns:rdf="http://www.w3.org/1999/02/22-rdf-syntax-ns#"
   xmlns:svg="http://www.w3.org/2000/svg"
   xmlns="http://www.w3.org/2000/svg"
   xmlns:sodipodi="http://sodipodi.sourceforge.net/DTD/sodipodi-0.dtd"
   xmlns:inkscape="http://www.inkscape.org/namespaces/inkscape"
   width="512"
   height="512"
   viewBox="0 0 135.46667 135.46667"
   version="1.1"
   id="svg8"
   inkscape:version="1.0.1 (3bc2e813f5, 2020-09-07)"
   sodipodi:docname="Modded Loader.svg">
  <defs
     id="defs2">
    <linearGradient
       id="linearGradient1099-6-5"
       osb:paint="gradient">
      <stop
         style="stop-color:#273839;stop-opacity:0.5"
         offset="0"
         id="stop1151" />
      <stop
         style="stop-color:#273839;stop-opacity:1"
         offset="1"
         id="stop1153" />
    </linearGradient>
  </defs>
  <sodipodi:namedview
     id="base"
     pagecolor="#ffffff"
     bordercolor="#666666"
     borderopacity="1.0"
     inkscape:pageopacity="0.0"
     inkscape:pageshadow="2"
     inkscape:zoom="0.7"
     inkscape:cx="45.87662"
     inkscape:cy="359.78091"
     inkscape:document-units="px"
     inkscape:current-layer="g1320"
     inkscape:document-rotation="0"
     showgrid="false"
     inkscape:pagecheckerboard="true"
     inkscape:object-nodes="true"
     fit-margin-top="0"
     fit-margin-left="0"
     fit-margin-right="0"
     fit-margin-bottom="0"
     inkscape:window-width="1600"
     inkscape:window-height="837"
     inkscape:window-x="-8"
     inkscape:window-y="-8"
     inkscape:window-maximized="1"
     units="px" />
  <metadata
     id="metadata5">
    <rdf:RDF>
      <cc:Work
         rdf:about="">
        <dc:format>image/svg+xml</dc:format>
        <dc:type
           rdf:resource="http://purl.org/dc/dcmitype/StillImage" />
        <dc:title></dc:title>
      </cc:Work>
    </rdf:RDF>
  </metadata>
  <g
     inkscape:label="Layer 1"
     inkscape:groupmode="layer"
     id="layer1"
     transform="translate(-59.62574,-110.15787)">
    <path
       style="fill:#000000;stroke-width:0.264583"
       id="path853"
       d="" />
    <path
       style="fill:#000000;stroke-width:0.264583"
       id="path849"
       d="" />
    <g
       id="g1061"
       transform="translate(9.0714285,1.8898814)">
      <g
         id="g1320"
         transform="translate(7.2162774,44.901282)">
        <g
           id="g1783"
           transform="matrix(1.4395287,0,0,1.4395287,-48.258451,-52.65055)">
          <path
             style="fill:#273839;fill-opacity:0.501961;stroke-width:0.264583"
             d="m 104.36484,171.89794 c -0.12021,-0.32742 -0.54873,-1.96453 -0.95228,-3.63802 -0.40354,-1.67349 -0.8928,-3.17142 -1.08723,-3.32873 -0.28205,-0.22819 -0.12832,-0.50448 0.76038,-1.3666 l 1.11391,-1.08058 1.4552,0.2658 c 2.09767,0.38316 8.26478,0.38085 10.58334,-0.004 1.0914,-0.18114 3.36053,-0.7888 5.04251,-1.35034 13.12723,-4.38266 22.20382,-16.17691 23.5456,-30.59549 0.26167,-2.81184 -0.009,-8.7222 -0.43034,-9.40428 -0.0761,-0.12311 0.31643,-0.71138 0.87227,-1.30727 l 1.01061,-1.08343 2.11145,0.54838 c 1.16129,0.30161 2.82581,0.76466 3.69894,1.029 l 1.5875,0.48061 0.0707,6.6537 0.0707,6.65369 -0.99671,0.27286 c -0.54818,0.15007 -2.17828,0.61063 -3.62242,1.02347 l -2.62572,0.75061 -0.56697,2.0968 c -0.67629,2.5011 -1.98617,5.80304 -3.06062,7.71519 -0.42804,0.76178 -0.77827,1.50808 -0.77827,1.65845 0,0.15036 0.77588,1.66429 1.72418,3.36428 0.9483,1.69999 1.69244,3.17451 1.65365,3.2767 -0.15955,0.4203 -8.76358,9.23322 -9.01437,9.23322 -0.14976,0 -1.56893,-0.7739 -3.15369,-1.71979 -2.93464,-1.75157 -3.34684,-1.91137 -3.7907,-1.46964 -0.566,0.56328 -5.78599,2.94226 -7.9069,3.60353 -1.25147,0.39018 -2.34186,0.81697 -2.4231,0.94842 -0.0812,0.13145 -0.49881,1.63483 -0.92794,3.34084 -0.42912,1.70602 -0.84489,3.31021 -0.92392,3.56487 -0.13162,0.42409 -0.67667,0.46302 -6.48242,0.46302 -6.33234,0 -6.33894,-5.3e-4 -6.55727,-0.59531 z M 72.185031,135.43526 c -1.455208,-0.42948 -3.094351,-0.9043 -3.64254,-1.05515 l -0.996707,-0.27427 0.07067,-6.6442 0.07066,-6.6442 1.322917,-0.44936 c 0.727604,-0.24714 2.422334,-0.72742 3.766066,-1.06727 l 2.443149,-0.61792 0.407166,-1.47138 c 0.631297,-2.28133 1.691209,-4.98347 2.812185,-7.1694 0.562362,-1.09662 1.022476,-2.14244 1.022476,-2.32405 0,-0.18162 -0.842934,-1.81897 -1.873187,-3.63858 l -1.873188,-3.30837 3.962728,-4.157158 c 2.1795,-2.286438 4.248326,-4.42301 4.597392,-4.747937 l 0.634664,-0.590778 2.839765,1.689267 c 1.561872,0.929097 3.016636,1.836056 3.232811,2.015466 0.322498,0.267648 0.95037,0.04057 3.498009,-1.265087 1.707732,-0.875208 4.0885,-1.913471 5.2906,-2.307253 1.202103,-0.393781 2.286483,-0.914124 2.409743,-1.156318 0.12326,-0.242194 0.61208,-2.017931 1.08626,-3.946082 l 0.86215,-3.50573 h 6.4207 6.4207 l 0.13198,0.595313 c 0.57747,2.604678 1.85218,6.961988 2.05762,7.033507 0.47944,0.166908 0.25139,0.735931 -0.64197,1.601811 l -0.89531,0.867768 -3.12465,-0.322152 C 98.156741,90.890972 83.220324,101.1254 78.374304,117.32763 c -1.460125,4.88179 -1.918355,10.21079 -1.275461,14.83303 l 0.283603,2.03903 -0.998758,1.02282 c -0.549317,0.56256 -1.123423,1.01625 -1.275791,1.00822 -0.152368,-0.008 -1.467657,-0.36599 -2.922866,-0.79547 z"
             id="path1779"
             sodipodi:nodetypes="cssscsscscscsscccsscssssssssscsssccssccccscsssscsscsssssscccssscssscscs" />
          <path
             style="fill:#273839;fill-opacity:1;stroke-width:0.264583"
             d="m 106.49959,155.26495 c -1.06334,-1.1703 -1.88377,-2.2673 -1.82318,-2.43778 0.0606,-0.17048 0.41748,-0.28852 0.79308,-0.26231 0.53657,0.0374 0.70048,-0.0872 0.76486,-0.58172 0.051,-0.39187 1.62308,-2.20711 4.16575,-4.81015 13.61675,-13.94002 14.05735,-14.36724 14.81726,-14.36724 0.55604,0 1.33469,-0.55172 3.18422,-2.25625 3.00583,-2.77017 7.33846,-6.53439 9.20369,-7.99622 1.387,-1.08703 2.35749,-1.56529 2.6278,-1.29498 0.38966,0.38966 -2.94206,4.79759 -7.65797,10.13164 -1.78204,2.01562 -3.53772,4.27887 -3.90153,5.02944 -0.49449,1.02021 -2.69839,3.45522 -8.73125,9.64687 -10.04053,10.3048 -9.51706,9.81308 -10.2526,9.63097 -0.41284,-0.1022 -0.59531,-0.029 -0.59531,0.23892 0,0.21246 0.11906,0.45988 0.26458,0.54982 0.49812,0.30786 0.27497,0.92621 -0.33073,0.91643 -0.40119,-0.006 -1.22576,-0.70348 -2.52867,-2.13744 z m -5.45017,-5.78172 c -2.041904,-2.09825 -2.525321,-3.16789 -1.33813,-2.96081 0.285765,0.0498 0.63117,0.10938 0.76757,0.13229 0.1364,0.0229 0.25546,-0.21345 0.26459,-0.52526 0.0175,-0.59918 1.13913,-1.80766 11.81341,-12.72839 5.31506,-5.43777 6.38739,-6.41614 7.03237,-6.41614 0.59541,0 1.36851,-0.56141 3.55246,-2.57969 7.43299,-6.86915 11.6173,-10.05065 11.6173,-8.83311 0,0.69027 -5.02022,7.03444 -9.72905,12.29481 -1.0998,1.22862 -1.92129,2.4025 -2.01733,2.88269 -0.11755,0.58779 -1.4545,2.1244 -4.87256,5.60028 -2.5908,2.63462 -6.66522,6.79071 -9.05426,9.23575 -3.66708,3.75304 -4.43747,4.42199 -4.94567,4.29444 -0.65319,-0.16394 -0.82975,0.31912 -0.30752,0.84136 0.33923,0.33923 0.0974,0.86972 -0.39647,0.86972 -0.18446,0 -1.25848,-0.94858 -2.38671,-2.10794 z m -5.535174,-5.79918 c -1.116639,-1.14745 -2.030256,-2.1952 -2.030256,-2.32833 0,-0.52921 0.605576,-0.85478 1.098868,-0.59078 0.268747,0.14383 0.501287,0.16803 0.516757,0.0538 0.01548,-0.11426 0.04523,-0.39922 0.06615,-0.63323 0.0209,-0.23401 3.848021,-4.33564 8.504685,-9.11472 10.46489,-10.74 9.57997,-9.90668 10.52006,-9.90668 0.61571,0 1.22216,-0.41911 2.80564,-1.93893 6.34127,-6.08638 12.20659,-10.64635 12.20659,-9.48995 0,0.77097 -3.00182,4.66913 -8.05246,10.45693 -1.75578,2.01204 -3.29902,3.97657 -3.42941,4.36562 -0.42284,1.26161 0.44993,0.31725 -13.32965,14.42307 -4.603689,4.71269 -5.196525,5.23174 -5.801932,5.07979 -0.574736,-0.14425 -0.645398,-0.0989 -0.478533,0.30722 0.875064,2.12966 -0.111429,1.86987 -2.596505,-0.68378 z m -4.972499,-5.2559 c -2.116633,-2.18988 -2.670959,-2.98601 -2.349098,-3.37383 0.14719,-0.17735 0.545303,-0.26938 0.884695,-0.2045 0.485198,0.0927 0.612068,0.005 0.593632,-0.41197 -0.02339,-0.52884 0.839182,-1.4483 12.857564,-13.70544 4.47994,-4.56894 5.36517,-5.3532 6.22441,-5.51439 0.55094,-0.10336 1.06151,-0.2745 1.1346,-0.38033 0.22423,-0.32463 6.67126,-6.17512 8.04396,-7.29965 0.71054,-0.58208 1.72154,-1.41552 2.24667,-1.85208 2.20023,-1.82916 3.46831,-2.44605 3.46831,-1.68725 0,0.67005 -4.06237,5.80664 -9.98802,12.62919 -0.90951,1.04717 -1.65365,2.14946 -1.65365,2.44955 0,0.35889 -3.01011,3.63884 -8.79588,9.58435 -4.837733,4.97131 -9.00617,9.1952 -9.263191,9.38642 -0.270521,0.20126 -0.70584,0.27197 -1.033727,0.16791 -0.476724,-0.15131 -0.534374,-0.10162 -0.36408,0.31378 0.80646,1.9672 -0.04834,1.92385 -2.006195,-0.10176 z m -5.748736,-6.01833 c -2.650152,-2.83302 -3.0063,-3.72946 -1.350088,-3.39822 0.682463,0.13649 0.77722,0.0849 0.717346,-0.39044 -0.05075,-0.4029 1.749859,-2.41456 6.810179,-7.60841 3.783542,-3.88339 7.817303,-8.05843 8.963914,-9.27787 1.699788,-1.80774 2.266438,-2.24621 3.068698,-2.37449 0.60799,-0.0972 1.37839,-0.5192 2.01629,-1.10439 7.53357,-6.91105 12.04312,-10.639833 12.86772,-10.639833 1.08328,0 -1.98523,4.176843 -8.69886,11.840863 -1.2177,1.39008 -2.54062,3.15832 -2.93984,3.92942 -0.52965,1.02305 -3.07728,3.80021 -9.425508,10.27472 -7.857569,8.01388 -8.764561,8.85644 -9.370066,8.70447 -0.581231,-0.14588 -0.643107,-0.10141 -0.46521,0.33436 0.783053,1.91816 -0.257493,1.78056 -2.194575,-0.29018 z"
             id="path1777" />
        </g>
      </g>
    </g>
  </g>
</svg>
