<?xml version="1.0" encoding="UTF-8" standalone="no"?>
<svg
   xmlns:dc="http://purl.org/dc/elements/1.1/"
   xmlns:cc="http://creativecommons.org/ns#"
   xmlns:rdf="http://www.w3.org/1999/02/22-rdf-syntax-ns#"
   xmlns:svg="http://www.w3.org/2000/svg"
   xmlns="http://www.w3.org/2000/svg"
   xmlns:sodipodi="http://sodipodi.sourceforge.net/DTD/sodipodi-0.dtd"
   xmlns:inkscape="http://www.inkscape.org/namespaces/inkscape"
   width="242.715"
   height="128"
   viewBox="0 0 64.218336 33.866667"
   version="1.1"
   id="svg8"
   inkscape:version="1.0.1 (3bc2e813f5, 2020-09-07)"
   sodipodi:docname="Mozambique Shotgun.svg">
  <defs
     id="defs2" />
  <sodipodi:namedview
     id="base"
     pagecolor="#ffffff"
     bordercolor="#666666"
     borderopacity="1.0"
     inkscape:pageopacity="0.0"
     inkscape:pageshadow="2"
     inkscape:zoom="1.4"
     inkscape:cx="126.44822"
     inkscape:cy="22.059074"
     inkscape:document-units="mm"
     inkscape:current-layer="layer1"
     inkscape:document-rotation="0"
     showgrid="false"
     units="px"
     inkscape:window-width="1366"
     inkscape:window-height="705"
     inkscape:window-x="-8"
     inkscape:window-y="-8"
     inkscape:window-maximized="1" />
  <metadata
     id="metadata5">
    <rdf:RDF>
      <cc:Work
         rdf:about="">
        <dc:format>image/svg+xml</dc:format>
        <dc:type
           rdf:resource="http://purl.org/dc/dcmitype/StillImage" />
        <dc:title></dc:title>
      </cc:Work>
    </rdf:RDF>
  </metadata>
  <g
     inkscape:label="Layer 1"
     inkscape:groupmode="layer"
     id="layer1">
    <path
       style="fill:#273839;fill-opacity:1;stroke-width:0.202351"
       d="m 50.099764,30.229772 c -0.573493,-0.38527 -0.697878,-0.603469 -0.749783,-1.315282 -0.03863,-0.529769 0.02331,-0.853386 0.163337,-0.853386 0.764363,0 2.063881,0.525801 2.547747,1.03085 l 0.563302,0.587958 h 3.260455 c 2.266116,0 3.334523,-0.07406 3.503287,-0.242822 0.133559,-0.133551 0.242823,-0.709556 0.242823,-1.28001 0,-0.844263 0.09395,-1.125445 0.505082,-1.511685 0.27779,-0.260973 0.573731,-0.405957 0.657636,-0.322187 0.08391,0.08377 0.18502,0.981256 0.224689,1.994414 0.06225,1.590924 0.02254,1.878369 -0.291612,2.108075 -0.276239,0.201984 -1.515575,0.26597 -5.151565,0.26597 -4.649732,0 -4.807655,-0.01332 -5.475398,-0.461895 z m 5.590474,-0.909644 c -2.98886,-0.05549 -3.037896,-0.06375 -3.602488,-0.607054 -0.31481,-0.302937 -0.954537,-0.6457 -1.421609,-0.761695 -0.705726,-0.17526 -0.859969,-0.302616 -0.912766,-0.753655 -0.03496,-0.298516 0.01945,-0.691047 0.120885,-0.872288 0.136387,-0.243707 -0.150106,-0.929231 -1.099982,-2.632051 -0.706425,-1.266387 -1.284405,-2.486288 -1.284405,-2.710894 0,-0.224607 -0.10523,-0.408375 -0.233837,-0.408375 -0.128616,0 -0.534183,-0.229084 -0.901276,-0.509075 -0.367085,-0.279991 -0.949779,-0.565545 -1.294884,-0.634565 -0.443418,-0.08868 -0.593852,-0.213055 -0.512892,-0.424035 0.08729,-0.227481 0.02975,-0.257057 -0.241842,-0.124252 -0.196031,0.09586 -2.88327,0.199829 -5.971653,0.231039 l -5.61524,0.05675 -1.66e-4,-0.663799 -1.66e-4,-0.663799 4.790201,0.05788 4.790199,0.05788 1.128732,-0.694135 c 2.60181,-1.600028 8.698299,-4.721578 8.875449,-4.544437 0.113225,0.113228 0.653436,-0.117702 1.379636,-0.589771 1.55303,-1.009551 3.159376,-1.733313 3.642462,-1.641165 0.225693,0.04305 0.412926,0.277408 0.454164,0.568458 0.05713,0.403444 -0.306052,0.853028 -1.960059,2.426146 l -2.030231,1.930934 0.108255,1.011755 c 0.06707,0.626886 0.251342,1.136904 0.484412,1.34075 0.448549,0.392308 0.31589,0.581585 -0.407624,0.581585 -0.362278,0 -0.815393,-0.289573 -1.424867,-0.91058 -0.491516,-0.500818 -1.00477,-0.910579 -1.140556,-0.910579 -0.135792,0 -0.791303,0.324302 -1.456693,0.720671 -1.801674,1.073252 -1.908499,2.133146 -0.243356,2.41447 0.709917,0.11994 0.904757,0.311997 2.214207,2.182598 0.789694,1.128097 1.435803,2.245675 1.435803,2.483508 0,0.237831 -0.182116,0.597233 -0.404703,0.798672 -0.467937,0.42348 -0.528823,1.43823 -0.118724,1.978788 0.242612,0.3198 0.586339,0.353679 3.079415,0.303527 l 2.806318,-0.05646 0.06233,-0.863048 c 0.04734,-0.655143 0.183227,-0.942239 0.564081,-1.19178 0.469717,-0.30777 0.520165,-0.304351 0.791182,0.05364 0.397671,0.525288 0.376996,0.627663 -0.203525,1.008038 -0.444183,0.291036 -0.505881,0.475841 -0.505881,1.515178 0,0.93192 -0.07533,1.21751 -0.354111,1.342597 -0.194772,0.08739 -1.717671,0.133566 -3.384235,0.102625 z m -2.399639,-2.608032 c -0.293642,-0.293648 -0.108752,-1.033223 0.370976,-1.483907 0.843136,-0.792083 0.669926,-1.301097 -1.325526,-3.895257 -1.604908,-2.086437 -1.902131,-2.377625 -2.426952,-2.377625 -0.373087,0 -0.598067,-0.10486 -0.598067,-0.278749 0,-0.330432 0.218853,-0.513621 1.369023,-1.145949 l 0.863151,-0.47453 0.894682,0.878063 c 0.883449,0.867045 0.908655,0.87662 2.008709,0.763086 0.853345,-0.08807 1.173605,-0.04319 1.368633,0.191809 0.211396,0.254716 0.17044,0.371472 -0.24129,0.687907 -0.272748,0.209615 -0.582408,0.383144 -0.688139,0.385619 -0.105723,0.0025 -0.09134,0.105386 0.03196,0.228691 0.164027,0.164022 0.42151,0.159072 0.959395,-0.01845 1.283599,-0.423627 1.770284,0.05135 0.700263,0.683427 -0.812,0.47966 -0.503796,0.789874 0.483655,0.486816 0.564754,-0.173328 0.817226,-0.174296 0.987729,-0.0038 0.170508,0.170506 0.06615,0.321815 -0.408292,0.591948 -0.993834,0.565855 -0.672749,0.917374 0.509811,0.558145 0.379192,-0.115188 0.51842,0.01718 0.983583,0.935132 l 0.541861,1.069313 -0.631296,0.518958 c -0.472092,0.388087 -0.63083,0.684806 -0.629463,1.176601 l 0.0013,0.657641 h -2.495658 c -1.372618,0 -2.55637,-0.0607 -2.630567,-0.134902 z M 7.8290732,18.247078 7.3538258,17.741201 H 17.709 c 5.695347,0 10.355175,0.03159 10.355175,0.07022 0,0.03862 -0.170032,0.266262 -0.37785,0.505877 -0.337541,0.389191 -0.583973,0.435663 -2.310173,0.435663 -1.365614,0 -1.95726,-0.07418 -2.017348,-0.252938 -0.06802,-0.202351 -0.226029,-0.202351 -0.790046,0 -0.890329,0.319421 -1.437863,0.321003 -1.7538,0.005 -0.195595,-0.195594 -0.332097,-0.195271 -0.647231,0.0015 -0.475363,0.29687 -6.632557,0.297148 -7.014005,3.24e-4 -0.148794,-0.115788 -0.393664,-0.104527 -0.644338,0.02963 -0.222384,0.119004 -1.259498,0.216381 -2.304698,0.216381 -1.7654234,0 -1.9341119,-0.03592 -2.3756128,-0.505878 z M 29.480633,17.866394 c 0,-0.04244 0.318703,-0.320246 0.708228,-0.617352 l 0.708228,-0.540192 v 0.617351 c 0,0.570643 -0.05358,0.617351 -0.708228,0.617351 -0.389525,0 -0.708228,-0.03472 -0.708228,-0.07716 z m 3.193382,-0.884009 c -0.232639,-0.481844 -0.387883,-0.556466 -1.15766,-0.556466 h -0.888994 l -0.970155,-2.078165 c -0.533586,-1.142991 -0.918443,-2.212922 -0.855241,-2.377624 0.09727,-0.253474 0.90212,-0.29946 5.241272,-0.29946 3.199299,0 5.173371,-0.07607 5.25142,-0.202351 0.07383,-0.119461 1.296872,-0.202351 2.985671,-0.202351 h 2.860616 l 0.853423,0.961167 0.85343,0.961168 1.383379,-0.708229 c 1.367011,-0.699847 1.38414,-0.718812 1.447281,-1.602576 0.102087,-1.4287688 -0.04703,-1.6832884 -1.463259,-2.4978405 -1.292742,-0.7435192 -1.350056,-0.7560083 -3.469751,-0.7560083 -1.882214,0 -2.139735,-0.040556 -2.032472,-0.3200762 0.06755,-0.1760424 0.122825,-0.4492159 0.122825,-0.607053 0,-0.2340908 0.522879,-0.2869772 2.837301,-0.2869772 H 48.5104 l 2.519358,1.4670448 c 2.306592,1.3431484 3.017508,1.9729234 2.227119,1.9729234 -0.600743,0 -0.286251,0.53569 0.55316,0.942241 l 0.856698,0.414918 -0.644299,0.333176 c -0.791132,0.409111 -0.866741,0.411698 -0.866741,0.02965 0,-0.504125 -0.986967,-0.376951 -1.230991,0.158616 -0.14376,0.315512 -1.506683,1.146488 -4.295625,2.619041 l -4.085051,2.1569 -0.06281,-1.047746 C 43.436258,14.706286 43.2687,14.212282 42.89156,13.717827 l -0.526848,-0.690734 -3.278192,0.134364 c -2.794864,0.114554 -3.315717,0.08915 -3.532725,-0.172334 -0.198729,-0.239451 -0.734623,-0.306697 -2.444147,-0.306697 -2.033292,0 -2.212099,0.03211 -2.504612,0.449726 -0.173249,0.24735 -0.315,0.63685 -0.315,0.865555 0,0.228707 0.141751,0.618206 0.315,0.865556 0.292705,0.417894 0.470891,0.449726 2.517447,0.449726 1.250021,0 2.256525,-0.0875 2.327504,-0.202352 0.315953,-0.51122 0.505877,-0.09338 0.505877,1.112932 v 1.315281 h -1.506589 c -1.443524,0 -1.51784,-0.0233 -1.775261,-0.556465 z m -26.7131924,0 C 5.0234738,15.919078 3.6250116,11.910661 3.9216757,11.137568 3.9713489,11.008116 3.9147161,10.842089 3.7958476,10.768616 3.6769677,10.695143 3.5797015,10.458289 3.5797015,10.242271 c 0,-0.3820367 0.2145431,-0.39276 7.8579655,-0.39276 4.32188,0 7.906335,-0.048373 7.965457,-0.1074928 C 19.462242,9.6828999 19.306894,9.068256 19.0579,8.3761486 18.808906,7.6840408 18.54193,6.912891 18.464619,6.6624817 l -0.140564,-0.4552896 10.282949,0.020015 c 5.655624,0.011006 10.761038,0.0793 11.345364,0.1517636 l 1.062412,0.1317513 -1.224533,1.56822 -1.224533,1.5682208 h -5.934221 c -5.197928,0 -5.96763,0.040252 -6.203473,0.324429 -0.226336,0.2727182 -0.196148,0.6098152 0.189402,2.1149422 0.252259,0.984782 0.763584,2.546126 1.136274,3.469653 l 0.677621,1.679139 -3.142093,0.05585 c -2.812284,0.04999 -3.170713,0.01812 -3.414751,-0.303527 -0.257753,-0.339731 -0.273012,-0.340019 -0.279095,-0.0053 -0.006,0.330901 -0.508454,0.354114 -7.664412,0.354114 -7.0394902,0 -7.683189,-0.0286 -7.9701434,-0.354114 z m 7.0116514,-0.982817 c 0.44456,-0.170594 0.405782,-0.489135 -0.35455,-2.912441 L 11.951286,10.962441 9.8692585,10.861267 c -1.1451149,-0.05565 -2.1738961,-0.04395 -2.2861813,0.02599 -0.3413179,0.212598 0.042246,2.541214 0.5888624,3.574992 0.8538979,1.614914 0.9304184,1.660148 2.8083864,1.660148 0.91964,0 1.816106,-0.05527 1.992148,-0.122825 z M 9.4728313,14.590519 C 9.043522,14.04474 8.7125325,12.499222 8.9130502,11.976682 c 0.148959,-0.388181 2.2125828,-0.432083 2.4947378,-0.05308 0.103566,0.139116 0.354074,0.799286 0.556685,1.467045 0.202611,0.667758 0.411941,1.327928 0.465178,1.467045 0.07134,0.186421 -0.250931,0.252938 -1.22545,0.252938 -1.179035,0 -1.3665557,-0.05633 -1.7313697,-0.520118 z m 10.3564547,1.278935 c 0.314967,-0.233488 0.282645,-0.431886 -0.420317,-2.579976 l -0.761521,-2.327037 -2.088354,-0.101174 c -2.549623,-0.123524 -2.605551,-0.08219 -2.260764,1.670905 0.258721,1.315482 0.364599,1.575405 1.15334,2.831405 l 0.476521,0.758816 h 1.779945 c 1.10708,0 1.90893,-0.09562 2.12115,-0.252939 z M 16.148423,14.535826 C 15.888128,14.170274 15.717363,13.56253 15.679354,12.86643 l -0.05977,-1.094584 1.246552,-0.05977 1.246553,-0.05978 0.524019,1.618748 c 0.288211,0.89031 0.524018,1.668436 0.524018,1.729168 0,0.06073 -0.585676,0.110421 -1.301502,0.110421 -1.198933,0 -1.333759,-0.0453 -1.710804,-0.574811 z m 22.14164,-5.7206339 c 0.269808,-0.8500914 -0.889841,-1.2740297 -1.209112,-0.4420208 -0.06617,0.1724408 -0.01653,0.4385747 0.110306,0.5914073 0.345538,0.4163486 0.94512,0.3348331 1.098806,-0.1493865 z m -9.108004,8.1246199 c -0.159318,-0.257784 0.05634,-1.01977 0.28861,-1.01977 0.09081,0 0.211863,0.178768 0.268999,0.397262 0.118879,0.45459 -0.342828,0.970032 -0.557609,0.622508 z m 12.303118,-0.136946 c -0.177018,-0.07223 -0.164104,-0.273096 0.05059,-0.78693 0.396538,-0.949045 0.367298,-1.185041 -0.235585,-1.901528 L 40.776317,13.49183 h 0.70144 c 0.811988,0 1.089227,0.262535 1.251818,1.185421 0.08335,0.473121 -0.01129,0.890899 -0.330447,1.458771 -0.454578,0.80881 -0.494538,0.837967 -0.913947,0.666844 z m -12.9404,-1.381603 c -0.07418,-0.193326 6.28e-4,-0.473947 0.17226,-0.645506 0.269766,-0.269767 0.315501,-0.257604 0.411483,0.109425 0.141305,0.540357 -0.3936,1.031588 -0.583743,0.536081 z m 2.392783,-0.755798 c -0.133552,-0.133551 -0.242821,-0.434043 -0.242821,-0.667758 0,-0.758548 0.388576,-0.910744 2.316919,-0.907481 1.007202,0.0017 1.928975,0.07 2.048387,0.151763 0.395414,0.270756 0.464741,0.804502 0.160852,1.238365 -0.268399,0.383194 -0.49528,0.427932 -2.170125,0.427932 -1.184948,0 -1.959379,-0.08899 -2.113212,-0.242821 z m -2.973639,-0.565093 c -0.164441,-0.26607 0.06876,-1.013245 0.316242,-1.013245 0.245581,0 0.245878,0.952542 4.04e-4,1.104289 -0.103603,0.06403 -0.246067,0.02306 -0.316588,-0.09104 z m -0.871014,-2.188944 c -0.359454,-1.740304 -0.423727,-1.657215 1.281914,-1.657215 1.447065,0 1.514033,0.02003 1.314365,0.393112 -0.147212,0.27507 -0.468348,0.411783 -1.069462,0.455289 -0.783487,0.05671 -0.853929,0.10669 -0.8006,0.568056 0.07172,0.620374 -0.111155,1.416457 -0.325373,1.416457 -0.0869,0 -0.267285,-0.529064 -0.400844,-1.175699 z M 46.141804,11.569487 45.38066,10.658915 h -2.688886 c -1.478888,0 -2.688888,-0.04178 -2.688888,-0.09284 0,-0.05106 0.377339,-0.5974089 0.838536,-1.2141068 l 0.838535,-1.1212701 h 2.413208 c 2.369094,0 2.430522,0.011608 3.360248,0.6352169 1.187512,0.7965131 1.452914,1.1253737 1.452914,1.80031 0,0.586778 -0.360556,0.981937 -1.355802,1.48591 l -0.647578,0.327919 z m -7.744086,-0.839354 c 1.484526,-1.7601914 3.223975,-4.1337663 3.223975,-4.3992916 0,-0.3339363 0.700497,-0.4635692 0.885702,-0.1639056 0.179127,0.289835 -3.502131,4.7900022 -3.981111,4.8667232 -0.412989,0.06615 -0.422135,0.04456 -0.128566,-0.303526 z m -7.804155,-0.07122 c 0.06879,-0.111294 0.352704,-0.202351 0.630937,-0.202351 0.285725,0 0.451453,0.08806 0.380818,0.202351 -0.06879,0.111293 -0.352704,0.202351 -0.630936,0.202351 -0.285726,0 -0.451454,-0.08806 -0.380819,-0.202351 z m 1.821159,0 c 0.06879,-0.111294 0.398233,-0.202351 0.732112,-0.202351 0.353176,0 0.554752,0.08463 0.481995,0.202351 -0.06879,0.111293 -0.398233,0.202351 -0.732112,0.202351 -0.353176,0 -0.554752,-0.08463 -0.481995,-0.202351 z m 1.922335,0 c 0,-0.111294 0.273174,-0.202351 0.607054,-0.202351 0.333878,0 0.607052,0.09106 0.607052,0.202351 0,0.111293 -0.273174,0.202351 -0.607052,0.202351 -0.33388,0 -0.607054,-0.09106 -0.607054,-0.202351 z m 1.922335,0 c 0.06878,-0.111294 0.398233,-0.202351 0.732112,-0.202351 0.353175,0 0.554752,0.08463 0.481994,0.202351 -0.06879,0.111293 -0.398233,0.202351 -0.732112,0.202351 -0.353176,0 -0.554751,-0.08463 -0.481994,-0.202351 z M 3.175,8.4330547 V 7.6236496 h 5.576595 c 3.666203,0 5.533753,-0.06932 5.451536,-0.2023504 -0.07807,-0.1263215 -2.059337,-0.2023508 -5.2730699,-0.2023508 -3.2698818,0 -5.148008,-0.073244 -5.148008,-0.2007593 0,-0.1104168 0.3414671,-0.3609687 0.7588159,-0.5567814 0.6534912,-0.3066061 0.7675339,-0.461305 0.8216192,-1.1145232 l 0.062805,-0.7585001 h 2.3087794 2.3087794 l 0.461332,0.8041933 0.461332,0.8041933 3.431544,0.055799 3.431545,0.055799 0.445936,1.4670448 0.445936,1.4670452 H 10.947738 3.175 Z M 9.0955998,5.9036663 C 9.0687862,5.7923731 8.4541432,5.6743903 7.7297307,5.6414821 6.5177886,5.5864248 6.1858976,5.7106728 6.5560748,6.0808501 6.7759838,6.3007588 9.1513447,6.1350279 9.0955998,5.9036663 Z M 50.727484,7.2233818 C 48.938408,6.103959 48.720093,6.0200339 47.578134,6.0127103 l -1.227015,-0.00787 0.0896,-1.2646933 c 0.09617,-1.3574984 0.238004,-1.5603081 1.094545,-1.5651224 0.413434,-0.00229 0.63239,0.1537704 0.875701,0.6242869 0.247107,0.4778377 0.728436,0.8140308 2.019277,1.4104059 1.575588,0.7279214 1.708246,0.8368415 1.885275,1.5478878 0.284938,1.1445161 0.401234,1.6758432 0.365952,1.672013 -0.01743,-0.00193 -0.896693,-0.544696 -1.953981,-1.2062367 z M 47.894575,4.2729156 c 0,-0.1603714 -0.136593,-0.2915843 -0.303529,-0.2915843 -0.304784,0 -0.41597,0.4271612 -0.174129,0.6690019 0.188843,0.1888431 0.477658,-0.039364 0.477658,-0.3774176 z M 18.486227,5.6675898 C 18.218148,5.3995113 18.36021,5.0379646 18.776388,4.929131 19.010444,4.867925 19.14147,4.7209265 19.067972,4.6020046 c -0.09139,-0.1478678 0.542281,-0.215971 2.009502,-0.215971 1.718203,0 2.166065,0.060166 2.259452,0.3035265 0.06406,0.1669395 0.246178,0.3035266 0.404701,0.3035266 0.158526,0 0.340642,-0.1365871 0.404702,-0.3035266 0.1569,-0.4088711 1.414084,-0.4025914 1.643981,0.00821 0.178397,0.3187773 0.857408,0.2150051 0.857408,-0.1310362 0,-0.099386 0.900838,-0.1807018 2.001861,-0.1807018 1.592765,0 2.025663,0.062025 2.118336,0.3035265 0.150925,0.3933085 0.916828,0.3933085 1.067753,0 0.130818,-0.3409065 1.489634,-0.4331969 1.489634,-0.1011758 0,0.2631861 0.747921,0.2631861 0.910579,0 0.07032,-0.1137757 1.040269,-0.2023507 2.215868,-0.2023507 2.071505,0 2.091999,0.00474 2.22011,0.5151833 0.07112,0.2833506 0.07561,0.6020536 0.01,0.7082288 -0.13538,0.2190492 -19.977594,0.276176 -20.195625,0.058147 z"
       id="path1039" />
  </g>
</svg>
