<?xml version="1.0" encoding="UTF-8" standalone="no"?>
<svg
   xmlns:dc="http://purl.org/dc/elements/1.1/"
   xmlns:cc="http://creativecommons.org/ns#"
   xmlns:rdf="http://www.w3.org/1999/02/22-rdf-syntax-ns#"
   xmlns:svg="http://www.w3.org/2000/svg"
   xmlns="http://www.w3.org/2000/svg"
   xmlns:sodipodi="http://sodipodi.sourceforge.net/DTD/sodipodi-0.dtd"
   xmlns:inkscape="http://www.inkscape.org/namespaces/inkscape"
   version="1.1"
   id="Layer_4_1_"
   x="0px"
   y="0px"
   viewBox="0 0 512 512"
   xml:space="preserve"
   sodipodi:docname="Optics_Slot.svg"
   inkscape:version="1.0.1 (3bc2e813f5, 2020-09-07)"
   width="512"
   height="512"><metadata
   id="metadata27"><rdf:RDF><cc:Work
       rdf:about=""><dc:format>image/svg+xml</dc:format><dc:type
         rdf:resource="http://purl.org/dc/dcmitype/StillImage" /><dc:title></dc:title></cc:Work></rdf:RDF></metadata><defs
   id="defs25" /><sodipodi:namedview
   pagecolor="#ffffff"
   bordercolor="#666666"
   borderopacity="1"
   objecttolerance="10"
   gridtolerance="10"
   guidetolerance="10"
   inkscape:pageopacity="0"
   inkscape:pageshadow="2"
   inkscape:window-width="1366"
   inkscape:window-height="705"
   id="namedview23"
   showgrid="false"
   inkscape:zoom="0.64260718"
   inkscape:cx="150.30586"
   inkscape:cy="310.0499"
   inkscape:window-x="-8"
   inkscape:window-y="-8"
   inkscape:window-maximized="1"
   inkscape:current-layer="Layer_4_1_"
   inkscape:document-rotation="0" />
<style
   type="text/css"
   id="style2">
	.st0{fill:#241C1C;}
</style>








<g
   id="g848"
   transform="matrix(13.43187,0,0,13.431863,7.5070446,7.9704409)"><circle
     class="st0"
     cx="18.5"
     cy="18.5"
     r="2.0999999"
     id="circle4"
     style="fill:#273839;fill-opacity:1" /><rect
     x="17.799999"
     y="0.30000001"
     class="st0"
     width="1.4"
     height="10.2"
     id="rect6"
     style="fill:#273839;fill-opacity:1" /><rect
     x="17.799999"
     y="26.5"
     transform="rotate(180,18.49975,31.5655)"
     class="st0"
     width="1.4"
     height="10.2"
     id="rect8"
     style="fill:#273839;fill-opacity:1" /><path
     class="st0"
     d="M 5.7,22.6 H 4 c 1.4,5 5.3,8.9 10.3,10.3 V 31.3 C 10.3,30 7,26.7 5.7,22.6 Z"
     id="path10"
     style="fill:#273839;fill-opacity:1" /><path
     class="st0"
     d="M 4,14.4 H 5.6 C 7,10.3 10.3,7 14.4,5.7 V 4 C 9.4,5.5 5.5,9.4 4,14.4 Z"
     id="path12"
     style="fill:#273839;fill-opacity:1" /><rect
     x="4.6999998"
     y="13.4"
     transform="rotate(-90,5.4345,18.5)"
     class="st0"
     width="1.4"
     height="10.2"
     id="rect14"
     style="fill:#273839;fill-opacity:1" /><path
     class="st0"
     d="M 31.3,14.4 H 33 C 31.6,9.4 27.7,5.5 22.7,4.1 v 1.6 c 4,1.3 7.3,4.6 8.6,8.7 z"
     id="path16"
     style="fill:#273839;fill-opacity:1" /><path
     class="st0"
     d="m 31.3,22.6 c -1.3,4.1 -4.6,7.3 -8.7,8.7 V 33 c 5,-1.4 8.9,-5.3 10.3,-10.3 h -1.6 z"
     id="path18"
     style="fill:#273839;fill-opacity:1" /><rect
     x="30.799999"
     y="13.4"
     transform="rotate(90,31.5655,18.5005)"
     class="st0"
     width="1.4"
     height="10.2"
     id="rect20"
     style="fill:#273839;fill-opacity:1" /></g>
</svg>
