<?xml version="1.0" encoding="UTF-8" standalone="no"?>
<svg
   xmlns:dc="http://purl.org/dc/elements/1.1/"
   xmlns:cc="http://creativecommons.org/ns#"
   xmlns:rdf="http://www.w3.org/1999/02/22-rdf-syntax-ns#"
   xmlns:svg="http://www.w3.org/2000/svg"
   xmlns="http://www.w3.org/2000/svg"
   xmlns:sodipodi="http://sodipodi.sourceforge.net/DTD/sodipodi-0.dtd"
   xmlns:inkscape="http://www.inkscape.org/namespaces/inkscape"
   width="168.07201"
   height="128"
   viewBox="0 0 44.469047 33.866667"
   version="1.1"
   id="svg8"
   inkscape:version="1.0.1 (3bc2e813f5, 2020-09-07)"
   sodipodi:docname="P2020.svg">
  <defs
     id="defs2" />
  <sodipodi:namedview
     id="base"
     pagecolor="#ffffff"
     bordercolor="#666666"
     borderopacity="1.0"
     inkscape:pageopacity="0.0"
     inkscape:pageshadow="2"
     inkscape:zoom="1.4"
     inkscape:cx="126.44822"
     inkscape:cy="22.059074"
     inkscape:document-units="mm"
     inkscape:current-layer="layer1"
     inkscape:document-rotation="0"
     showgrid="false"
     units="px"
     inkscape:window-width="1366"
     inkscape:window-height="705"
     inkscape:window-x="-8"
     inkscape:window-y="-8"
     inkscape:window-maximized="1" />
  <metadata
     id="metadata5">
    <rdf:RDF>
      <cc:Work
         rdf:about="">
        <dc:format>image/svg+xml</dc:format>
        <dc:type
           rdf:resource="http://purl.org/dc/dcmitype/StillImage" />
        <dc:title></dc:title>
      </cc:Work>
    </rdf:RDF>
  </metadata>
  <g
     inkscape:label="Layer 1"
     inkscape:groupmode="layer"
     id="layer1">
    <path
       style="fill:#273839;stroke-width:0.168208;fill-opacity:1"
       d="m 31.474952,30.557765 c -0.04563,-0.07384 -0.318976,-1.069051 -0.607419,-2.211578 -0.386302,-1.530145 -0.474845,-2.126151 -0.336146,-2.262702 0.137601,-0.135473 0.253176,-0.09748 0.429283,0.14113 0.19995,0.27091 0.240988,0.280102 0.240988,0.05397 0,-0.193713 0.255405,-0.324739 0.883091,-0.453038 6.252628,-1.278036 6.525937,-1.320684 6.669608,-1.040764 0.357465,0.696451 0.880137,2.587564 0.750224,2.714428 -0.07966,0.0778 -1.128859,0.570828 -2.331547,1.09563 -4.715604,2.057689 -5.477334,2.320096 -5.698082,1.962918 z m 8.287982,-3.695682 c -0.724143,-1.903444 -1.267376,-3.901301 -1.104958,-4.063719 0.279297,-0.279297 0.587626,-0.214309 0.791618,0.166853 0.199511,0.372786 -0.06761,0.915868 -0.361228,0.734403 -0.198395,-0.122613 -0.188044,-0.0053 0.04458,0.505256 0.106555,0.23386 0.326643,0.467384 0.489087,0.518941 0.420095,0.133333 0.545904,0.586517 0.252753,0.910448 -0.313786,0.346727 -0.166628,0.975219 0.260041,1.11064 0.384402,0.122004 0.412378,0.342644 0.06056,0.477649 -0.174688,0.06703 -0.313992,-0.04909 -0.432459,-0.360471 z m 0.573809,-0.237712 c -0.478899,-0.23408 -0.628232,-0.642511 -0.34022,-0.930523 0.448832,-0.448832 1.181275,0.24101 0.775286,0.730197 -0.23965,0.288759 0.03943,0.305701 0.341493,0.02073 0.179874,-0.169693 0.208016,-0.16158 0.145858,0.04205 -0.097,0.317784 -0.446916,0.369961 -0.922417,0.137541 z m 0.728348,-0.72627 c -0.05325,-0.138771 -0.0235,-0.252312 0.06611,-0.252312 0.08961,0 0.162931,0.113541 0.162931,0.252312 0,0.138771 -0.02975,0.252312 -0.06611,0.252312 -0.03636,0 -0.109678,-0.113541 -0.162928,-0.252312 z M 30.465542,25.568089 c 0.114378,-0.298066 -0.143919,-0.225005 4.241092,-1.199602 2.998957,-0.666537 3.613174,-0.75871 3.735621,-0.56059 0.08059,0.130408 0.09292,0.286916 0.0274,0.347793 -0.108854,0.101122 -7.561172,1.658307 -7.936262,1.658307 -0.08921,0 -0.119736,-0.110658 -0.06784,-0.245908 z m 9.915456,-0.354834 c -0.317245,-0.317245 -0.328491,-0.445265 -0.06248,-0.711279 0.304568,-0.304568 0.421585,-0.249139 0.608997,0.288475 0.244073,0.700142 -0.04531,0.924014 -0.546521,0.422804 z m -9.670012,-0.95518 c -0.08263,-0.218044 -0.07771,-0.46023 0.01161,-0.571363 0.205949,-0.256265 0.75887,-0.09961 0.884144,0.250499 0.05487,0.153346 0.143325,0.392352 0.196565,0.531124 0.07723,0.201286 0.06445,0.206159 -0.06319,0.02409 -0.111804,-0.159488 -0.194639,-0.172153 -0.275046,-0.04206 -0.193051,0.312365 -0.602402,0.207976 -0.754081,-0.192302 z m 8.828972,0.114141 c -0.324623,-0.324623 -0.331726,-0.479584 -0.03334,-0.727226 0.473688,-0.393126 1.153685,0.286875 0.76056,0.760561 -0.247642,0.298391 -0.402602,0.291288 -0.727226,-0.03333 z m -7.663692,-0.32226 c -0.294521,-0.354876 -0.0848,-0.759076 0.393846,-0.759076 0.450167,0 0.697626,0.521547 0.392317,0.826854 -0.25272,0.252721 -0.540785,0.227887 -0.786163,-0.06778 z m 1.279773,-0.174385 c -0.325326,-0.325326 -0.337732,-0.451979 -0.07045,-0.719257 0.292281,-0.292281 0.602615,-0.248076 0.796067,0.113394 0.12888,0.240813 0.09528,0.381699 -0.142298,0.596705 -0.2866,0.259372 -0.332382,0.26009 -0.583315,0.0091 z m 0.860297,0.06727 c 0.114101,-0.114957 0.249827,-0.166639 0.301616,-0.11485 0.05179,0.05179 -0.04156,0.145845 -0.207455,0.209012 -0.23973,0.09128 -0.25905,0.07196 -0.09416,-0.09416 z m 6.548892,0.07694 c -0.06168,-0.06167 -0.112141,-0.190354 -0.112141,-0.285953 0,-0.105399 0.07835,-0.09547 0.199045,0.02523 0.109477,0.109476 0.15994,0.238155 0.11214,0.285953 -0.0478,0.0478 -0.137371,0.03645 -0.199044,-0.02523 z m -6.239712,-0.488603 c -0.32462,-0.324623 -0.331724,-0.479584 -0.03334,-0.727226 0.473687,-0.393125 1.153688,0.286875 0.760562,0.760561 -0.247642,0.298391 -0.402605,0.291288 -0.727228,-0.03334 z m 0.829027,0.09612 c 0.05718,-0.09251 0.175183,-0.168208 0.262238,-0.168208 0.08705,0 0.158279,0.07569 0.158279,0.168208 0,0.09251 -0.118007,0.168208 -0.262239,0.168208 -0.144231,0 -0.215456,-0.07569 -0.158278,-0.168208 z m 1.093349,-0.165959 c 0,-0.197632 0.479126,-0.347796 0.58145,-0.182235 0.04818,0.07796 -0.06294,0.181105 -0.246928,0.229219 -0.183987,0.04811 -0.334522,0.02697 -0.334522,-0.04698 z m -5.797917,-0.219763 c -0.072,-0.16589 -0.08372,-0.348817 -0.02603,-0.406502 0.170814,-0.170814 0.308509,0.06912 0.22989,0.400591 -0.0697,0.29385 -0.07877,0.294113 -0.203858,0.0059 z m 0.617117,0.01566 c -0.250603,-0.250603 -0.257457,-0.516299 -0.01946,-0.754299 0.25435,-0.254349 0.779634,-0.08363 0.87595,0.284684 0.143677,0.549412 -0.450764,0.875343 -0.856492,0.469615 z m 4.465918,0.02017 c -0.353104,-0.205663 -0.379828,-0.547236 -0.06337,-0.809872 0.473685,-0.393125 1.153685,0.286875 0.76056,0.760562 -0.225639,0.271879 -0.30538,0.277517 -0.69719,0.04931 z m 4.343363,-0.08265 c -0.330492,-0.330491 -0.332072,-0.479295 -0.0079,-0.748294 0.315805,-0.262095 0.384387,-0.199002 0.51983,0.478211 0.118151,0.590748 -0.08436,0.6976 -0.511882,0.270083 z m -2.366922,-0.07209 c 0.05718,-0.09251 0.269802,-0.162887 0.472499,-0.156384 0.355315,0.0114 0.356469,0.01701 0.03212,0.156384 -0.462988,0.198953 -0.627582,0.198953 -0.504622,0 z m -5.264906,-0.201849 c -0.307937,-0.307938 -0.241773,-0.603847 0.163803,-0.732572 0.465731,-0.147817 0.910014,0.361096 0.620148,0.710362 -0.230793,0.27809 -0.519879,0.286279 -0.783951,0.02221 z m 4.328316,-0.155957 c -0.149366,-0.279089 -0.141416,-0.389541 0.03613,-0.502048 0.588674,-0.373026 1.218544,0.122934 0.798662,0.628863 -0.277918,0.334868 -0.615124,0.283642 -0.834792,-0.126815 z m -3.25351,-0.252243 c -0.120126,-0.313041 0.169515,-0.735615 0.504206,-0.735615 0.341141,0 0.600105,0.579493 0.364329,0.81527 -0.280744,0.280743 -0.746634,0.238016 -0.868535,-0.07965 z m 4.395291,-0.0566 c -0.102734,-0.392849 0.273454,-0.757251 0.63752,-0.617546 0.370056,0.142004 0.509989,0.618642 0.233099,0.793969 -0.394144,0.24957 -0.779649,0.171451 -0.870619,-0.176423 z m -7.418603,-0.09479 c -0.332156,-0.332157 -0.340701,-0.485875 -0.04085,-0.734735 0.366771,-0.304392 0.80406,-0.03837 0.745304,0.453394 -0.06311,0.52819 -0.345023,0.640779 -0.70446,0.281341 z m 4.365895,-0.0075 c -0.324624,-0.324623 -0.331727,-0.479584 -0.03334,-0.727227 0.473688,-0.393125 1.153689,0.286876 0.760563,0.760562 -0.247642,0.29839 -0.402602,0.291287 -0.727225,-0.03333 z m 4.588909,0.142986 c -0.36923,-0.08646 -0.504062,-0.658398 -0.2123,-0.90054 0.485222,-0.402698 1.189254,0.332239 0.722661,0.754385 -0.128292,0.116073 -0.357955,0.181842 -0.510361,0.146155 z m -7.8792,-0.465246 c -0.294521,-0.354883 -0.0848,-0.759083 0.393844,-0.759083 0.450167,0 0.697626,0.521547 0.39232,0.826854 -0.25272,0.25272 -0.540785,0.227886 -0.786164,-0.06778 z m 4.467745,-0.01416 c -0.312064,-0.312063 -0.327909,-0.445849 -0.08194,-0.691823 0.43653,-0.436529 1.203116,0.250472 0.80916,0.725158 -0.247641,0.29839 -0.402602,0.291287 -0.727225,-0.03333 z M 32.456553,21.5878 c -0.192517,-0.606568 0.61531,-0.906799 0.918015,-0.341185 0.114384,0.213732 0.105737,0.371166 -0.02772,0.504624 -0.309221,0.309221 -0.766949,0.225191 -0.890293,-0.163439 z m 4.477961,0.04677 c -0.192377,-0.359464 0.05349,-0.698601 0.506477,-0.698601 0.365459,0 0.551817,0.478541 0.303077,0.778256 -0.267239,0.322003 -0.612789,0.288003 -0.809554,-0.07966 z m -7.139779,-0.400691 c -0.150348,-0.561147 -0.132342,-0.633511 0.132359,-0.531937 0.347567,0.133375 0.448342,0.516953 0.19176,0.729897 -0.170314,0.141348 -0.245514,0.09542 -0.324119,-0.19796 z m 3.861031,0.101289 c -0.120126,-0.313041 0.169515,-0.735614 0.504206,-0.735614 0.341144,0 0.600105,0.579492 0.364328,0.815269 -0.280743,0.280742 -0.746634,0.238016 -0.868534,-0.07965 z m 4.395291,-0.0566 c -0.102731,-0.392849 0.273457,-0.757251 0.637523,-0.617547 0.370053,0.142005 0.509989,0.618644 0.233096,0.79397 -0.394144,0.24957 -0.779647,0.171451 -0.870619,-0.176423 z m -7.396074,-0.01966 c -0.353102,-0.205662 -0.379828,-0.547235 -0.06337,-0.809871 0.474685,-0.393955 1.161686,0.372631 0.725157,0.80916 -0.220561,0.220561 -0.284211,0.220628 -0.661785,7.09e-4 z m 4.343365,-0.08264 c -0.324623,-0.324622 -0.331726,-0.479584 -0.03334,-0.727226 0.473685,-0.393125 1.153685,0.286875 0.76056,0.760562 -0.247642,0.29839 -0.402603,0.291286 -0.727226,-0.03334 z m 4.373902,5.02e-4 c -0.298138,-0.29814 -0.283692,-0.598959 0.03385,-0.704806 0.193636,-0.06454 0.48927,0.74138 0.33028,0.900371 -0.04635,0.04635 -0.210213,-0.04165 -0.364128,-0.195565 z m -7.664191,-0.322758 c -0.294521,-0.35488 -0.0848,-0.75908 0.393843,-0.75908 0.45017,0 0.697629,0.521547 0.392319,0.826854 -0.25272,0.252721 -0.540784,0.227886 -0.786162,-0.06778 z m 4.467744,-0.01417 c -0.324624,-0.324622 -0.331727,-0.479584 -0.03333,-0.727226 0.474686,-0.393955 1.161686,0.372631 0.725156,0.80916 -0.245974,0.245974 -0.379757,0.230129 -0.691821,-0.08193 z m -3.361077,-0.345721 c -0.120123,-0.313038 0.169515,-0.735612 0.504209,-0.735612 0.341141,0 0.600102,0.579493 0.364326,0.81527 -0.280741,0.280743 -0.746634,0.238016 -0.868535,-0.07965 z m 4.456203,-0.03701 c -0.192378,-0.35946 0.05349,-0.698597 0.506479,-0.698597 0.365457,0 0.551818,0.478541 0.303077,0.778255 -0.267242,0.322004 -0.612791,0.288004 -0.809556,-0.07965 z m -7.458765,-0.04696 c -0.35143,-0.19667 -0.377775,-0.539752 -0.06159,-0.80216 0.304416,-0.252642 0.778256,-0.06017 0.778256,0.316122 0,0.436984 -0.363637,0.683601 -0.716663,0.486038 z m 4.180016,-0.252446 c -0.120123,-0.313038 0.169516,-0.735611 0.504209,-0.735611 0.358244,0 0.660837,0.682627 0.381157,0.859855 -0.36277,0.229875 -0.771486,0.172522 -0.885366,-0.12424 z m 4.373403,0 C 38.24546,19.844673 38.535099,19.4221 38.869792,19.4221 c 0.274133,0 0.629498,0.615237 0.487797,0.844516 -0.164851,0.266729 -0.877902,0.188451 -0.992006,-0.108901 z m -7.466699,-0.09642 c -0.405729,-0.405728 -0.0798,-1.000167 0.469615,-0.856493 0.368316,0.09632 0.539032,0.621602 0.284684,0.87595 -0.238001,0.238001 -0.503696,0.231146 -0.754299,-0.01946 z m 4.435879,-0.06247 c -0.32462,-0.324623 -0.331724,-0.479584 -0.03334,-0.727226 0.473687,-0.393125 1.153685,0.286874 0.760562,0.760561 -0.247641,0.298391 -0.402605,0.291287 -0.727228,-0.03333 z m -3.290289,-0.322259 c -0.276469,-0.333124 -0.09497,-0.759077 0.323442,-0.759077 0.428715,0 0.745341,0.544236 0.474308,0.81527 -0.263753,0.26375 -0.548892,0.243664 -0.79775,-0.05619 z m 4.369765,-0.08972 c -0.231528,-0.432618 -0.085,-0.669355 0.414311,-0.669355 0.455623,0 0.689366,0.442719 0.410896,0.778256 -0.274018,0.33017 -0.614253,0.28527 -0.825207,-0.108901 z m -7.236095,-0.430252 c -0.195984,-0.515477 -0.125389,-0.661557 0.250077,-0.517476 0.289778,0.111198 0.352206,0.705886 0.09104,0.867292 -0.09269,0.05729 -0.246192,-0.100133 -0.341121,-0.349816 z m 3.973,0.160095 c -0.120126,-0.313043 0.169515,-0.735616 0.504205,-0.735616 0.341142,0 0.600106,0.579492 0.364329,0.81527 -0.280743,0.280741 -0.746634,0.238015 -0.868534,-0.07965 z m 4.456203,-0.03701 c -0.192381,-0.359462 0.05349,-0.698599 0.506476,-0.698599 0.365459,0 0.551817,0.478541 0.303077,0.778254 -0.267239,0.322005 -0.612791,0.288005 -0.809553,-0.07965 z m -7.458768,-0.04696 c -0.351429,-0.196671 -0.377774,-0.539752 -0.06159,-0.802159 0.304416,-0.252643 0.778256,-0.06017 0.778256,0.316122 0,0.436982 -0.363637,0.6836 -0.716663,0.486037 z m 4.323229,-0.05307 c -0.256428,-0.190416 -0.287828,-0.30561 -0.146289,-0.536663 0.253068,-0.413115 0.494392,-0.456619 0.805757,-0.145256 0.218744,0.218745 0.230371,0.328497 0.06317,0.596237 -0.245138,0.392527 -0.300565,0.399099 -0.722632,0.08568 z m 4.229133,-0.202135 c -0.160257,-0.41762 0.01638,-0.474644 0.230566,-0.07443 0.10333,0.193074 0.117549,0.350821 0.03163,0.350821 -0.08587,0 -0.203856,-0.124374 -0.262191,-0.276387 z m -7.373127,-0.0735 c -0.534865,-0.311531 -0.224141,-1.033889 0.3771,-0.876661 0.368315,0.09632 0.539035,0.6216 0.284685,0.875949 -0.22056,0.22056 -0.28421,0.220628 -0.661785,7.09e-4 z m 4.343367,-0.08265 c -0.324624,-0.324622 -0.331727,-0.479584 -0.03334,-0.727226 0.474686,-0.393954 1.161686,0.37263 0.725159,0.80916 -0.245974,0.245974 -0.37976,0.230129 -0.691821,-0.08193 z m -3.382835,-0.429505 c -0.07117,-0.224243 -0.0284,-0.411305 0.114817,-0.502047 0.385048,-0.243977 0.773438,-0.166278 0.862016,0.172447 0.172766,0.660648 -0.770724,0.978997 -0.976833,0.3296 z m 4.462308,0.01752 c -0.231304,-0.432196 -0.08508,-0.669355 0.41269,-0.669355 0.435713,0 0.676349,0.527619 0.377113,0.826855 -0.27966,0.27966 -0.588837,0.218005 -0.789803,-0.1575 z m -7.443113,-0.01771 c -0.35143,-0.19667 -0.377775,-0.539751 -0.06159,-0.802159 0.304416,-0.252642 0.778255,-0.06017 0.778255,0.316122 0,0.436983 -0.363636,0.6836 -0.716662,0.486037 z m 4.180017,-0.252447 c -0.120126,-0.313042 0.169516,-0.735615 0.504206,-0.735615 0.341144,0 0.600106,0.579491 0.364329,0.81527 -0.280743,0.280742 -0.746634,0.238014 -0.868535,-0.07965 z m 4.395292,-0.0566 c -0.0475,-0.181627 0.0075,-0.408116 0.122186,-0.503308 0.152862,-0.126864 0.260512,-0.05903 0.403158,0.254041 0.254417,0.558387 0.249965,0.579498 -0.12219,0.579498 -0.174239,0 -0.355658,-0.148604 -0.403154,-0.330231 z m -7.44803,-0.08043 c -0.256427,-0.190417 -0.287828,-0.305611 -0.146288,-0.536664 0.380901,-0.621793 1.025218,-0.363218 0.848585,0.34055 -0.12604,0.502181 -0.245282,0.53548 -0.702297,0.196114 z m 4.39158,-0.02561 c -0.313457,-0.313457 -0.324139,-0.442134 -0.05874,-0.707537 0.266014,-0.266014 0.394032,-0.254769 0.711277,0.06247 0.343288,0.343289 0.333324,0.452699 -0.06381,0.700717 -0.266827,0.166635 -0.376835,0.156235 -0.588728,-0.05566 z m -3.286548,-0.318517 c -0.294522,-0.354877 -0.0848,-0.759077 0.393842,-0.759077 0.45017,0 0.697626,0.521546 0.39232,0.826854 -0.25272,0.25272 -0.540785,0.227885 -0.786162,-0.06778 z m 4.467743,-0.01416 c -0.324623,-0.324622 -0.331726,-0.479585 -0.03334,-0.727227 0.473685,-0.393125 1.153685,0.286874 0.76056,0.760561 -0.247642,0.298391 -0.402602,0.291288 -0.727226,-0.03333 z M 28.616353,17.19334 c -0.148738,-0.555014 -0.131877,-0.630779 0.140374,-0.630779 0.357437,0 0.627723,0.572469 0.384924,0.815269 -0.284408,0.284406 -0.411612,0.239731 -0.525298,-0.18449 z m 4.008407,0.02105 c -0.192516,-0.606567 0.61531,-0.906798 0.918015,-0.341184 0.114384,0.213731 0.105737,0.371164 -0.02772,0.504624 -0.309221,0.309221 -0.766949,0.225192 -0.890293,-0.16344 z m 4.497813,0.155567 c -0.30794,-0.307938 -0.241773,-0.603848 0.1638,-0.732573 0.465731,-0.147817 0.910017,0.361096 0.620151,0.710362 -0.230796,0.27809 -0.519882,0.286282 -0.783951,0.02221 z M 29.64563,17.21515 c -0.352947,-0.197519 -0.37995,-0.540272 -0.06326,-0.803095 0.265212,-0.220106 0.71202,-0.0965 0.838009,0.231819 0.136116,0.354711 -0.423873,0.767633 -0.774743,0.571276 z m 4.178343,-0.253382 c -0.120123,-0.313041 0.169515,-0.735615 0.504206,-0.735615 0.341144,0 0.600105,0.579492 0.364329,0.81527 -0.280741,0.280743 -0.746634,0.238015 -0.868535,-0.07966 z m -3.000782,-0.07626 c -0.353102,-0.205662 -0.379829,-0.547235 -0.06337,-0.809872 0.473687,-0.393125 1.153688,0.286874 0.760562,0.760561 -0.225639,0.271879 -0.30538,0.277519 -0.697189,0.04931 z m 4.343365,-0.08265 c -0.324624,-0.324622 -0.331727,-0.479584 -0.03334,-0.727226 0.473685,-0.393125 1.153686,0.286874 0.76056,0.760561 -0.247642,0.298391 -0.402602,0.291287 -0.727225,-0.03333 z M 31.876266,16.4806 c -0.294911,-0.355348 -0.08457,-0.759078 0.395467,-0.759078 0.468442,0 0.708346,0.438174 0.426103,0.778256 -0.249482,0.300603 -0.562234,0.293303 -0.82157,-0.01918 z m 4.365872,-0.097 c -0.234472,-0.438114 0.0451,-0.832487 0.504926,-0.712242 0.406305,0.106251 0.572032,0.529766 0.324174,0.828419 -0.275623,0.332104 -0.61461,0.284604 -0.8291,-0.116177 z m -8.138287,-0.265634 c -0.160257,-0.417621 0.01638,-0.474645 0.230564,-0.07444 0.10333,0.193075 0.11755,0.350823 0.03163,0.350823 -0.08587,0 -0.203856,-0.124374 -0.262189,-0.276387 z m 0.525717,0.171344 c -0.06558,-0.06558 -0.119235,-0.258006 -0.119235,-0.427616 0,-0.169609 -0.08016,-0.30838 -0.178135,-0.30838 -0.09797,0 -0.12636,-0.08377 -0.06308,-0.186166 0.06328,-0.102392 0.162367,-0.121315 0.220188,-0.04205 0.05782,0.07926 0.294363,0.144114 0.525649,0.144114 0.336416,0 0.420519,0.0841 0.420519,0.42052 0,0.295155 -0.102356,0.435171 -0.343337,0.469667 -0.188835,0.02703 -0.396992,-0.0045 -0.462571,-0.07009 z m 4.353365,-0.168589 c -0.120123,-0.313042 0.169516,-0.735615 0.504209,-0.735615 0.341141,0 0.600103,0.579491 0.364326,0.81527 -0.28074,0.280742 -0.746634,0.238014 -0.868535,-0.07965 z m -3.002561,-0.08397 c -0.35143,-0.196671 -0.377775,-0.539752 -0.06159,-0.802159 0.304415,-0.252642 0.778255,-0.06017 0.778255,0.316122 0,0.436983 -0.363637,0.6836 -0.716663,0.486037 z m 4.180019,-0.252446 c -0.120126,-0.313041 0.169512,-0.735615 0.504206,-0.735615 0.341141,0 0.600105,0.579492 0.364325,0.81527 -0.28074,0.280743 -0.746634,0.238015 -0.868531,-0.07966 z m -3.093299,-0.09642 c -0.250603,-0.250603 -0.257457,-0.516299 -0.01946,-0.754299 0.25435,-0.254349 0.779634,-0.08363 0.87595,0.284684 0.143677,0.549412 -0.450764,0.875343 -0.856492,0.469615 z m 4.435881,-0.06247 c -0.324623,-0.324623 -0.331726,-0.479585 -0.03334,-0.727227 0.473688,-0.393125 1.153688,0.286874 0.760563,0.760561 -0.247642,0.298391 -0.402605,0.291288 -0.727226,-0.03333 z m -16.99228,-0.05797 c -0.05238,-0.08475 -0.019,-0.354606 0.07418,-0.599678 0.284423,-0.748087 0.206359,-1.732399 -0.167004,-2.105762 -0.470389,-0.470389 -0.419778,-0.672832 0.168208,-0.672832 0.426127,0 0.504623,-0.06541 0.504623,-0.420519 0,-0.333705 0.08477,-0.420519 0.410593,-0.420519 0.225826,0 0.460651,-0.081 0.521836,-0.179996 0.06118,-0.099 0.273808,-0.245587 0.472499,-0.325754 0.277125,-0.111814 0.163436,-0.148241 -0.488195,-0.15642 -0.467197,-0.0058 -0.923079,0.06297 -1.01307,0.152959 -0.08999,0.08999 -1.33515,0.184608 -2.767018,0.210259 l -2.603398,0.04664 -0.376037,0.745594 -0.376037,0.745593 -4.5860929,-0.03813 C 3.9243808,12.512622 3.6856404,12.494191 3.4130605,12.172674 3.1827043,11.900965 3.162794,11.754805 3.3116355,11.428134 c 0.1373218,-0.30139 0.1340356,-0.468109 -0.012715,-0.64493 -0.1517411,-0.182837 -0.1517411,-0.339796 0,-0.672831 C 3.4519523,9.7745051 3.4504329,9.6201027 3.2922198,9.4294673 3.1472195,9.2547528 3.1374983,9.0897074 3.2588559,8.8629541 3.3530404,8.6869686 3.3873115,8.379356 3.3350144,8.1793701 L 3.2399278,7.8157603 h 4.773079 c 4.6794762,0 4.7774412,0.00699 4.9955582,0.3562465 0.159573,0.2555178 0.171014,0.4077127 0.04046,0.5382652 -0.261436,0.2614357 -0.224309,0.45115 0.08829,0.45115 0.171167,0 0.234796,-0.092541 0.173487,-0.2523116 -0.08438,-0.2198874 0.413655,-0.2523116 3.875511,-0.2523116 h 3.972332 l 0.718463,-0.5887269 0.718464,-0.5887278 h 4.573351 c 4.290211,0 4.565747,0.018228 4.450558,0.2943639 -0.667519,1.6002186 -0.587166,1.6951336 1.490039,1.760075 l 1.540396,0.048158 -0.559355,0.3052407 C 33.782915,10.055064 32.971735,10.289712 32.287941,10.40862 31.067655,10.620822 31.037812,10.617512 30.673326,10.229536 30.373699,9.9105973 30.12896,9.8342532 29.406156,9.8342532 H 28.510333 V 9.1514943 c 0,-0.9084416 -0.329176,-0.697634 -0.359322,0.2301139 -0.0126,0.3877262 -0.05486,0.5411464 -0.09391,0.3409346 -0.06181,-0.3168849 -0.201955,-0.3713371 -1.082302,-0.4205192 -0.970829,-0.054235 -1.008392,-0.041355 -0.938663,0.3219691 0.0714,0.3720088 0.04405,0.3784683 -1.602214,0.3784683 -1.846473,0 -2.743264,-0.3052905 -2.592323,-0.8824914 0.04652,-0.1778888 -0.01676,-0.2949632 -0.159429,-0.2949632 -0.130111,0 -0.236564,0.073317 -0.236564,0.1629284 0,0.089611 -0.121036,0.116483 -0.268968,0.059716 -0.232825,-0.089343 -0.239836,-0.056569 -0.05217,0.2439318 0.345702,0.5535573 -0.02928,0.8665584 -0.904948,0.7553754 -0.389568,-0.049461 -0.821845,-0.1743257 -0.960616,-0.2774744 -0.214454,-0.1594018 -0.220323,-0.1465667 -0.03912,0.08554 0.117375,0.1503464 0.592515,0.3234014 1.057166,0.3850404 0.564871,0.07493 0.805091,0.174861 0.726406,0.302177 -0.0805,0.130251 -0.01607,0.150431 0.204395,0.06401 0.177076,-0.06942 1.305972,-0.168368 2.508658,-0.219892 l 2.186701,-0.09368 0.714884,0.776277 c 0.617445,0.670471 0.714882,0.878208 0.714882,1.524137 0,1.012445 -0.352407,2.472299 -0.621761,2.57566 -0.345841,0.132711 -0.255419,0.362523 0.105503,0.268141 0.178629,-0.04671 0.364996,-0.189737 0.414151,-0.317833 0.125462,-0.326943 0.606731,-0.101631 0.606731,0.284048 0,0.304684 -0.199096,0.318419 -4.615787,0.318419 -2.613868,0 -4.657092,-0.06683 -4.711022,-0.154092 z m 7.927724,-0.897209 c 0.444814,-0.833819 0.401771,-2.407147 -0.08744,-3.195948 l -0.391203,-0.630779 h -2.349543 c -2.660228,0 -3.187429,0.155385 -3.492055,1.029236 -0.24002,0.688524 -0.239275,1.917316 0.0015,2.388029 0.445792,0.871704 0.724908,0.948393 3.466305,0.952397 l 2.560784,0.0038 z M 24.747574,13.9974 c -0.05579,-0.208158 -0.102461,-0.858639 -0.103724,-1.445514 -0.002,-0.92252 -0.04761,-1.078895 -0.33682,-1.154526 -0.477836,-0.124957 -0.24218,-0.385649 0.348615,-0.385649 0.38072,0 0.537708,0.102181 0.662903,0.43147 0.223981,0.589112 0.206644,1.982325 -0.03116,2.504252 -0.240862,0.528637 -0.407401,0.544053 -0.539811,0.04996 z M 7.4456138,11.4488 c 0.2239394,0.239727 0.7115763,0.144289 0.7115763,-0.139266 0,-0.105819 -0.087507,-0.09818 -0.2299937,0.02007 -0.1746331,0.144932 -0.2793411,0.13142 -0.4350006,-0.05614 -0.2740772,-0.330242 -0.053593,-0.649372 0.3717933,-0.538132 0.2607056,0.06818 0.2950689,0.04275 0.1450259,-0.107289 -0.1500437,-0.150044 -0.2800544,-0.144542 -0.5486861,0.02322 -0.2525061,0.157693 -0.4035143,0.168392 -0.5340662,0.03784 -0.2758373,-0.275837 -0.5878087,-0.218852 -0.7813146,0.142716 -0.1317577,0.246192 -0.1082642,0.390263 0.097132,0.59566 0.2363495,0.236348 0.3170689,0.240689 0.6325019,0.03401 0.301011,-0.19723 0.3966611,-0.199356 0.571032,-0.01269 z M 6.3288245,11.290435 c -0.2329534,-0.280691 0.045449,-0.689827 0.3816229,-0.560825 0.1481084,0.05684 0.269288,0.211153 0.269288,0.342929 0,0.325243 -0.4396706,0.472425 -0.6509109,0.217896 z m 4.6542565,0.192258 c 0.111017,-0.111017 0.201849,-0.360806 0.201849,-0.555086 0,-0.194279 -0.09083,-0.444068 -0.201849,-0.555086 -0.156994,-0.156993 0.687159,-0.201849 3.798692,-0.201849 3.125676,0 3.985216,-0.04598 3.930456,-0.2102596 -0.104885,-0.3146542 -13.1024023,-0.3057291 -13.2073348,0.00907 -0.058311,0.1749356 0.404674,0.2089826 2.2873516,0.1682086 2.1419097,-0.04639 2.3381642,-0.02654 2.1196376,0.214435 -0.664909,0.733195 0.3730656,1.8287 1.0711976,1.130567 z m -0.871644,-0.222842 c -0.2059067,-0.205907 -0.2295139,-0.349959 -0.09771,-0.596237 0.210876,-0.394025 0.548571,-0.417293 0.846489,-0.05832 0.156345,0.188384 0.171174,0.345563 0.05063,0.536664 -0.2466,0.390942 -0.490407,0.426899 -0.79941,0.117896 z M 8.7592729,11.137867 c -0.00812,-0.230213 0.08548,-0.378468 0.2389557,-0.378468 0.1546707,0 0.246913,0.148606 0.2383611,0.384009 -0.00983,0.270602 0.038729,0.331329 0.1644266,0.20563 0.2249937,-0.224994 -0.065358,-0.733999 -0.4633775,-0.81233 -0.3131996,-0.06164 -0.5288743,0.347707 -0.3832054,0.727315 0.1387484,0.361571 0.2202791,0.311358 0.2048395,-0.126156 z M 5.158257,9.8922904 C 5.5354706,9.550917 5.5480932,9.2676833 5.2015385,8.9211286 4.9612419,8.6808317 5.2900116,8.656802 8.8180062,8.656802 c 2.4750578,0 3.8807948,-0.06093 3.8807948,-0.1682076 0,-0.1075264 -1.475292,-0.1682077 -4.0894587,-0.1682077 H 4.5198841 L 4.1518355,8.8181987 C 3.7104117,9.415257 3.7057777,9.4692555 4.0621692,9.8630638 4.407598,10.244759 4.7584466,10.254114 5.158257,9.8922886 Z M 4.3220521,9.8006152 C 3.9078794,9.386442 4.3156426,8.716923 4.855818,8.9242082 5.2066239,9.0588248 5.2121066,9.7665454 4.863381,9.9003643 4.524618,10.03036 4.5579362,10.036499 4.3220521,9.8006152 Z M 20.530366,9.0826709 c 0.424798,-0.3213016 0.240785,-0.3244854 -0.369143,-0.00638 -0.264989,0.1382016 -0.363803,0.2517421 -0.219585,0.2523119 0.144218,5.609e-4 0.409145,-0.1100966 0.588728,-0.2459264 z M 6.3069045,8.9932176 c 0,-0.092514 -0.1135405,-0.1682076 -0.2523116,-0.1682076 -0.138772,0 -0.2523119,0.075693 -0.2523119,0.1682076 0,0.092515 0.1135399,0.1682077 0.2523119,0.1682077 0.1387711,0 0.2523116,-0.075693 0.2523116,-0.1682077 z M 22.927235,8.1395633 c -0.03315,-0.099453 -0.132182,-0.180824 -0.220071,-0.180824 -0.08789,0 -0.18692,0.081371 -0.220071,0.180824 -0.03315,0.099452 0.06588,0.1808234 0.220071,0.1808234 0.154192,0 0.253224,-0.081371 0.220071,-0.1808234 z m 7.277792,-0.033644 c -0.02081,-0.2011267 -0.25152,-0.1621752 -0.3238,0.054668 -0.03701,0.1110171 0.02355,0.1715717 0.134566,0.1345664 0.111017,-0.037007 0.196172,-0.1221612 0.189234,-0.1892344 z m 2.007657,7.1972307 c -0.276471,-0.333126 -0.09497,-0.759077 0.323439,-0.759077 0.428716,0 0.745341,0.544236 0.474308,0.81527 -0.26375,0.263749 -0.548889,0.243663 -0.797747,-0.05619 z m 4.342489,-0.167117 c -0.104567,-0.229507 -0.323035,-0.459469 -0.485476,-0.511026 -0.388836,-0.123412 -0.549184,-0.569466 -0.30882,-0.859086 0.157476,-0.189746 0.10236,-0.213036 -0.309306,-0.130703 -0.607522,0.121504 -0.890219,-0.336226 -0.468262,-0.758183 0.373921,-0.373921 0.717722,-0.09888 1.153774,0.923028 0.199717,0.468044 0.49733,1.054 0.661363,1.302123 0.16403,0.248124 0.219179,0.451134 0.122547,0.451134 -0.09663,0 -0.261246,-0.187779 -0.36582,-0.417287 z m -7.344676,-0.196344 c 0.348893,-0.38994 0.412005,-0.706885 0.241246,-1.211536 -0.15757,-0.465681 0.06294,-0.753817 0.460229,-0.601364 0.327553,0.125693 0.368473,0.589136 0.07769,0.879917 -0.111512,0.11151 -0.206128,0.4105 -0.21026,0.66442 -0.0059,0.361787 -0.0984,0.474483 -0.42757,0.520875 -0.397924,0.05608 -0.405371,0.04279 -0.141338,-0.252312 z m 4.069662,0.02276 c -0.113802,-0.296559 0.216097,-0.754794 0.543398,-0.754794 0.341141,0 0.600105,0.579493 0.364329,0.815271 -0.274928,0.274924 -0.792247,0.240458 -0.907727,-0.06048 z M 27.87493,14.786847 c -0.453419,-0.317587 -0.48446,-0.931565 -0.06623,-1.310054 0.583106,-0.527704 1.374469,-0.1539 1.374469,0.649238 0,0.338579 -0.532412,0.922665 -0.841038,0.922665 -0.05134,0 -0.261584,-0.117832 -0.467196,-0.261849 z m 2.443531,0.07339 c -0.352947,-0.197519 -0.379949,-0.540272 -0.06327,-0.803095 0.265211,-0.220106 0.71202,-0.0965 0.838009,0.231819 0.136116,0.35471 -0.423873,0.767632 -0.774743,0.571276 z m 4.35145,-0.06789 c -0.325326,-0.325326 -0.337732,-0.451979 -0.07045,-0.719256 0.292281,-0.292281 0.602612,-0.248076 0.796067,0.113395 0.128877,0.240813 0.09528,0.381698 -0.142298,0.596705 -0.286603,0.259371 -0.332382,0.26009 -0.583315,0.0092 z M 31.496021,14.5306 c -0.53708,-0.312821 -0.223405,-1.033697 0.381016,-0.875637 0.399302,0.104419 0.562127,0.52997 0.316174,0.826326 -0.225639,0.271879 -0.305381,0.277519 -0.69719,0.04931 z m 1.053078,-0.404904 c -0.276472,-0.333125 -0.09497,-0.759077 0.323439,-0.759077 0.428715,0 0.745341,0.544236 0.474308,0.81527 -0.26375,0.263748 -0.548889,0.243663 -0.797747,-0.05619 z m 1.106667,-0.359878 c -0.120126,-0.313042 0.169515,-0.735615 0.504206,-0.735615 0.341144,0 0.600105,0.579492 0.364328,0.81527 -0.280743,0.280742 -0.746634,0.238015 -0.868534,-0.07966 z M 30.603028,13.628782 C 30.3466,13.438366 30.3152,13.323172 30.456739,13.092118 c 0.380902,-0.621792 1.025219,-0.363218 0.848585,0.34055 -0.12604,0.502182 -0.245282,0.53548 -0.702296,0.196114 z m 1.136895,-0.295805 c -0.250603,-0.250603 -0.257457,-0.516299 -0.01945,-0.754299 0.254347,-0.25435 0.779632,-0.08363 0.875948,0.284684 0.143674,0.549412 -0.450763,0.875343 -0.856491,0.469615 z m -4.115924,-0.533499 c 0.0894,-0.46767 -0.318841,-1.344252 -0.93052,-1.998028 l -0.432787,-0.462572 h 0.956613 0.956612 v 1.327666 c 0,1.055488 -0.05455,1.348597 -0.266069,1.429766 -0.372116,0.142795 -0.368593,0.146477 -0.283849,-0.296832 z m 1.096594,0.287532 c -0.115643,-0.04666 -0.21026,-0.267768 -0.21026,-0.491344 0,-0.291937 0.09314,-0.406502 0.330499,-0.406502 0.42448,0 0.738487,0.545809 0.469027,0.81527 -0.20717,0.207169 -0.261591,0.214796 -0.589266,0.08258 z m 4.055765,-0.140911 c -0.149381,-0.389277 0.06074,-0.756935 0.432595,-0.756935 0.428718,0 0.745341,0.544236 0.474308,0.81527 -0.274116,0.274114 -0.792118,0.240795 -0.906903,-0.05834 z m -3.018266,-0.161206 c -0.257955,-0.191586 -0.285229,-0.300583 -0.136075,-0.543825 0.258169,-0.42103 0.810255,-0.391355 0.872876,0.04692 0.07453,0.521671 -0.33321,0.796658 -0.736801,0.496905 z m 4.234088,-0.19653 c -0.120123,-0.313041 0.169516,-0.735615 0.504209,-0.735615 0.341141,0 0.600103,0.579492 0.364326,0.81527 -0.28074,0.280743 -0.746634,0.238015 -0.868535,-0.07966 z m -3.000782,-0.07656 c -0.353098,-0.205293 -0.37984,-0.546919 -0.06337,-0.809564 0.36677,-0.304393 0.80406,-0.03837 0.745303,0.453393 -0.05888,0.492749 -0.263339,0.59954 -0.681932,0.356171 z m 4.344912,-0.08079 c -0.329495,-0.329492 -0.333767,-0.480717 -0.02093,-0.74035 0.329129,-0.273153 0.554044,-0.104924 0.554044,0.414404 0,0.544415 -0.195263,0.663799 -0.533115,0.325946 z M 32.076338,12.15553 c -0.250603,-0.250604 -0.257456,-0.516299 -0.01946,-0.7543 0.25435,-0.254349 0.779632,-0.08363 0.875948,0.284684 0.143677,0.549412 -0.450763,0.875343 -0.856492,0.469616 z m -3.27804,-0.251104 c -0.339436,-0.574683 -0.280614,-1.9297697 0.05986,-1.37888 0.07566,0.122416 0.07043,0.303463 -0.01162,0.402326 -0.0997,0.12013 0.0012,0.177792 0.303985,0.173849 0.372815,-0.0048 0.453169,0.06867 0.453169,0.414619 0,0.302521 -0.101744,0.435018 -0.362596,0.472191 -0.199427,0.02842 -0.398682,-0.0094 -0.44279,-0.0841 z m 4.331084,-0.240879 c -0.192516,-0.606567 0.61531,-0.906798 0.918018,-0.341184 0.114384,0.213731 0.105734,0.371164 -0.02772,0.504624 -0.309221,0.30922 -0.766949,0.225191 -0.890296,-0.16344 z m -2.979129,7.68e-4 c -0.364242,-0.20384 -0.377628,-0.542199 -0.03277,-0.828401 0.217902,-0.180845 0.317011,-0.161484 0.594662,0.116169 0.31926,0.319257 0.320628,0.344541 0.03277,0.605044 -0.217921,0.197215 -0.381202,0.226647 -0.594665,0.107188 z m 4.178345,-0.253382 c -0.120126,-0.313048 0.169515,-0.735621 0.504206,-0.735621 0.341141,0 0.600105,0.579491 0.364329,0.81527 -0.280744,0.280742 -0.746634,0.238014 -0.868535,-0.07966 z m -3.014801,-0.0067 c -0.243827,-0.243832 -0.08737,-0.39249 0.41308,-0.39249 0.44779,0 0.494348,0.0372 0.315819,0.252311 -0.220932,0.26621 -0.541261,0.327811 -0.728899,0.140174 z m 4.188975,-0.338245 c -0.125416,-0.326836 0.290711,-0.81985 0.554428,-0.656863 0.124327,0.07684 0.121053,0.235012 -0.01087,0.524526 -0.220717,0.484421 -0.392419,0.526224 -0.543568,0.132337 z m -3.039556,-0.05425 c -0.05718,-0.09251 -0.04272,-0.169241 0.03212,-0.170504 0.07485,-0.0013 0.325317,-0.05223 0.556603,-0.113274 0.37757,-0.09964 0.396943,-0.08223 0.189665,0.170505 -0.258453,0.315132 -0.621025,0.367895 -0.778392,0.113273 z M 29.073002,10.58396 c -0.134894,-0.351529 -0.064,-0.387103 0.57697,-0.289511 0.445908,0.06789 0.514118,0.128213 0.357872,0.316478 -0.258558,0.311543 -0.811059,0.295604 -0.934842,-0.02697 z m 4.483566,0.09136 c 0,-0.09251 0.107349,-0.168207 0.238552,-0.168207 0.131206,0 0.37721,-0.05202 0.546678,-0.115598 0.271237,-0.10176 0.280483,-0.08162 0.07726,0.168207 -0.249971,0.307304 -0.862494,0.389399 -0.862494,0.115598 z m 1.387715,-0.12007 c -0.297377,-0.107732 -0.260715,-0.393271 0.0841,-0.6550235 0.379208,-0.2878603 0.490241,-0.2874254 0.60144,0.00236 0.109226,0.2846395 -0.389855,0.7597885 -0.685542,0.6526685 z M 21.293309,10.04452 c 0.12392,-0.1618999 0.236948,-0.3161204 0.251171,-0.3427132 0.0552,-0.1032039 0.910372,0.3625982 0.910372,0.4958692 0,0.07766 -0.312042,0.141208 -0.693426,0.141208 -0.634101,0 -0.674151,-0.02518 -0.468117,-0.294364 z m 14.722263,0.03802 c -0.332627,-0.3326267 -0.341259,-0.4862695 -0.04131,-0.7352034 0.527842,-0.438071 1.127554,0.2709023 0.618696,0.7314144 -0.281136,0.254425 -0.326451,0.254722 -0.577385,0.0038 z M 36.95216,9.371692 c 0.06757,-0.3545404 0.801166,-0.4960766 0.989742,-0.190956 0.201674,0.3263163 0.02515,0.4853196 -0.538816,0.4853196 -0.392122,0 -0.494316,-0.066713 -0.450926,-0.2943636 z m 1.314226,-0.042055 c 0,-0.311618 0.08276,-0.4049302 0.378467,-0.4267152 0.343819,-0.025328 0.375654,0.1099325 0.09251,0.3930741 C 38.49175,9.5416146 38.266386,9.5577117 38.266386,9.32964 Z M 31.43254,9.082135 C 31.3803,8.9460091 31.4773,8.5486182 31.648078,8.1990445 L 31.958594,7.563456 h 1.682077 1.682079 l 0.05388,0.5624095 c 0.07163,0.7476195 -0.348546,1.2037724 -1.10882,1.2037724 -0.526457,0 -0.571028,-0.036282 -0.464972,-0.3784678 0.284389,-0.9175646 0.229606,-1.1519406 -0.0983,-0.4205193 l -0.358185,0.7989871 h -0.909421 c -0.64535,0 -0.936997,-0.071868 -1.004395,-0.2475029 z m 1.703509,-0.088913 c 0.0635,-0.1027433 -0.194498,-0.1682073 -0.662904,-0.1682073 -0.421775,0 -0.766864,0.075693 -0.766864,0.1682073 0,0.092515 0.298307,0.1682077 0.662904,0.1682077 0.364598,0 0.709686,-0.075693 0.766864,-0.1682077 z m 1.900747,-0.2018491 c 0.111018,-0.1110171 0.201849,-0.2569978 0.201849,-0.3244009 0,-0.1975009 -0.510964,-0.6516608 -0.726898,-0.6460895 -0.109034,0.0028 -0.06578,0.082268 0.09612,0.1765662 0.32713,0.1905356 0.389128,0.580937 0.118789,0.7480157 -0.09657,0.059684 -0.285801,0.017032 -0.42052,-0.094773 C 34.171415,8.5388845 34.06119,8.519753 34.06119,8.6081788 c 0,0.4090357 0.631235,0.5275673 0.975606,0.1831971 z M 33.450737,8.1873372 c 0.04523,-0.07318 -0.19631,-0.1066637 -0.536749,-0.074408 -1.040163,0.098552 -1.162829,0.1674675 -0.334543,0.1879499 0.433983,0.010732 0.826066,-0.040363 0.871292,-0.1135419 z m 2.88126,0.8058848 c -0.05718,-0.092514 0.0519,-0.1682073 0.242384,-0.1682073 0.190488,0 0.346343,0.075693 0.346343,0.1682073 0,0.092515 -0.109073,0.1682077 -0.242384,0.1682077 -0.133311,0 -0.289166,-0.075693 -0.346343,-0.1682077 z M 13.132803,8.0650496 c -0.218045,-0.3327774 -0.230639,-0.441539 -0.05876,-0.5074931 0.120315,-0.046168 2.217074,-0.063729 4.659465,-0.039022 l 4.440711,0.044922 -0.667709,0.4625722 -0.667709,0.4625712 h -3.714237 -3.714237 z m 22.574585,-0.081074 -0.07406,-0.5046235 h 1.451094 c 1.4971,0 1.854795,0.1362436 1.854795,0.7064729 0,0.2700561 -0.170613,0.3027741 -1.578881,0.3027741 h -1.578882 z m 0.708711,0.084104 c 0,-0.1387721 -0.07569,-0.2523119 -0.168207,-0.2523119 -0.09251,0 -0.168207,0.1135398 -0.168207,0.2523119 0,0.1387711 0.07569,0.2523116 0.168207,0.2523116 0.09251,0 0.168207,-0.1135405 0.168207,-0.2523116 z m 0.640591,0.071488 c -0.03315,-0.099453 -0.132181,-0.180824 -0.220071,-0.180824 -0.08789,0 -0.186922,0.081371 -0.22007,0.180824 -0.03316,0.099452 0.06588,0.1808234 0.22007,0.1808234 0.154193,0 0.253225,-0.081371 0.220071,-0.1808234 z M 3.3743131,7.4271158 C 3.4287456,7.2852725 3.3953563,7.0236204 3.3001164,6.8456664 3.1743163,6.6106062 3.1891794,6.4332751 3.35446,6.1973027 3.5457738,5.9241646 3.5455379,5.8226746 3.3529978,5.5593329 3.1853484,5.3300598 3.1707911,5.1587613 3.2986542,4.9198505 3.3947078,4.7403725 3.4298932,4.4804185 3.376844,4.3421742 3.1849123,3.8420087 3.5880095,3.4423603 4.2844222,3.4423603 c 0.3613422,0 0.7027155,-0.073992 0.7586072,-0.1644268 0.062112,-0.1005025 0.8997548,-0.1302802 2.1545769,-0.076594 2.6271983,0.1124011 3.1463057,0.1950532 3.1463057,0.5009545 0,0.1345791 0.01892,0.3014599 0.04205,0.3708452 0.02313,0.069386 -1.4718187,0.1664275 -3.3221036,0.2156476 l -3.3641561,0.089492 3.4149581,0.036663 3.4149576,0.036664 0.175913,0.5046234 c 0.140962,0.4043651 0.272901,0.5046235 0.664081,0.5046235 0.571934,0 0.554511,0.062125 0.235857,-0.8410393 -0.292165,-0.8280814 -0.323973,-1.2415979 -0.0841,-1.0933509 0.09251,0.057179 0.168207,0.2403819 0.168207,0.4071209 0,0.2326723 0.09778,0.2844716 0.42052,0.2227756 0.231286,-0.04421 0.420519,-0.052137 0.420519,-0.017616 0,0.034521 0.07041,0.3082758 0.156466,0.6083365 0.137534,0.4795513 0.117568,0.5455648 -0.165003,0.5455648 -0.204184,0 -0.360692,-0.1562798 -0.428979,-0.428353 -0.05913,-0.2355941 -0.13995,-0.3959127 -0.179599,-0.3562638 -0.03965,0.039652 -0.02235,0.2702544 0.03844,0.5124571 0.08734,0.3480078 0.212537,0.4403679 0.596913,0.4403679 0.562801,0 0.566476,-0.01684 0.240245,-1.1008209 -0.135379,-0.4498291 -0.212854,-0.8511609 -0.172167,-0.8918474 0.08699,-0.086995 0.173825,0.1271587 0.466938,1.1516291 0.180852,0.6320975 0.291796,0.7657127 0.672698,0.8101596 0.539825,0.06299 0.588671,-0.2239911 0.217288,-1.2766007 -0.23078,-0.6541045 -0.22625,-0.6793518 0.134268,-0.7482699 0.205209,-0.039226 0.653308,-0.038615 0.995775,0.0014 0.502474,0.05866 0.622668,0.1425037 0.622668,0.434348 0,0.1989103 -0.151386,0.4561974 -0.336415,0.5717499 -0.440157,0.274882 -0.426197,0.5212882 0.03929,0.6934826 0.359352,0.1329332 0.361182,0.1431579 0.04205,0.2349196 -0.183509,0.052767 -0.787813,0.1895235 -1.342899,0.3039081 C 12.845816,5.9092452 12.698827,6.030787 12.698827,6.827141 V 7.4793757 H 8.2550777 c -2.4440626,0 -4.5643392,0.046276 -4.7117261,0.1028325 C 3.3512978,7.655905 3.3034134,7.611973 3.3743391,7.427143 Z M 6.1561565,5.0746147 C 5.9402641,4.8587223 5.7213304,5.0255796 5.8811644,5.2841985 c 0.061915,0.100179 0.1896284,0.134518 0.2838118,0.07631 0.1148861,-0.071004 0.1119834,-0.16509 -0.00882,-0.2858938 z M 13.035216,6.7603186 V 6.2094975 L 14.480243,5.892676 c 1.137777,-0.2494564 1.475282,-0.3916366 1.587313,-0.6686853 0.09785,-0.2419826 0.145613,0.028965 0.152946,0.867642 l 0.01066,1.219507 H 14.633189 13.035214 Z M 16.56758,6.2514308 c 0,-0.5999416 0.08758,-1.1472845 0.201849,-1.2615586 0.156994,-0.1569943 0.156994,-0.246705 0,-0.4036987 C 16.658412,4.4751564 16.56758,4.1723824 16.56758,3.9133419 c 0,-0.358843 0.0801,-0.4709816 0.336415,-0.4709816 0.316913,0 0.336416,0.1121386 0.336416,1.9343896 0,1.8222514 -0.01951,1.9343898 -0.336416,1.9343898 -0.300816,0 -0.336415,-0.1121384 -0.336415,-1.0597089 z m 1.009246,-0.8746809 c 0,-1.7752261 0.02762,-1.9537372 0.294364,-1.9023677 0.259017,0.049881 0.294364,0.2783131 0.294364,1.9023677 0,1.6240548 -0.03535,1.8524856 -0.294364,1.902368 -0.266741,0.051368 -0.294364,-0.1271421 -0.294364,-1.902368 z m 0.91341,1.7121574 c -0.0469,-0.1222288 -0.06345,-0.9737804 -0.03677,-1.8923381 0.03923,-1.3508414 0.09674,-1.6701048 0.300818,-1.6701048 0.206506,0 0.260945,0.3435362 0.299872,1.8923375 0.04083,1.6246973 0.01035,1.8923378 -0.215539,1.8923378 -0.144704,0 -0.301475,-0.1000048 -0.348378,-0.2222324 z m 0.936876,-1.6280534 c 0,-1.7381474 0.02039,-1.850286 0.336416,-1.850286 0.316027,0 0.336415,0.1121386 0.336415,1.850286 0,1.7381474 -0.02039,1.8502858 -0.336415,1.8502858 -0.316027,0 -0.336416,-0.1121384 -0.336416,-1.8502858 z m 1.009247,0.8413576 c 0,-0.7085534 0.08186,-1.11545 0.26029,-1.2938842 0.234912,-0.2349139 0.234912,-0.2883286 0,-0.5479056 -0.33037,-0.365053 -0.336749,-0.8498538 -0.01118,-0.8498538 0.350434,0 0.446458,0.538967 0.38925,2.184841 -0.04181,1.2027819 -0.09604,1.4367739 -0.343993,1.4841521 -0.254513,0.048628 -0.294364,-0.083684 -0.294364,-0.9773495 z m 0.953178,0.8967898 c -0.143597,-0.1435961 -0.1479,-2.9156018 -0.0045,-2.9156018 0.05919,0 0.208166,0.1324634 0.331065,0.2943631 0.311158,0.4098973 0.319551,2.7333771 0.0099,2.7333771 -0.123354,0 -0.274741,-0.050459 -0.336416,-0.1121384 z m 0.897108,-1.14942 c 0,-1.1494198 0.0299,-1.2615584 0.336415,-1.2615584 0.306512,0 0.336416,0.1121386 0.336416,1.2615584 0,1.14942 -0.02991,1.2615584 -0.336416,1.2615584 -0.306511,0 -0.336415,-0.1121384 -0.336415,-1.2615584 z m 1.009247,0.012335 c 0,-1.1708554 0.02781,-1.273892 0.343784,-1.273892 0.319134,0 0.340241,0.087317 0.294364,1.2177233 -0.04069,1.0025624 -0.101433,1.227647 -0.343785,1.2738918 -0.259378,0.049493 -0.294363,-0.095233 -0.294363,-1.2177231 z M 24.24907,7.1990021 C 24.1874,7.1373281 24.13693,6.5696255 24.13693,5.937444 c 0,-1.0372811 0.03282,-1.1494197 0.336416,-1.1494197 0.306512,0 0.336416,0.1121386 0.336416,1.2615584 0,0.9391603 -0.05731,1.2615584 -0.224277,1.2615584 -0.123353,0 -0.274741,-0.050465 -0.336415,-0.112139 z m 0.897107,-1.1494194 c 0,-1.1494198 0.0299,-1.2615584 0.336416,-1.2615584 0.306511,0 0.336416,0.1121386 0.336416,1.2615584 0,1.14942 -0.02991,1.2615584 -0.336416,1.2615584 -0.306512,0 -0.336416,-0.1121384 -0.336416,-1.2615584 z m 1.009247,0.012335 c 0,-1.1708547 0.02781,-1.2738913 0.343785,-1.2738913 0.319134,0 0.340241,0.087317 0.294363,1.2177226 -0.04069,1.0025631 -0.101432,1.2276477 -0.343784,1.2738925 -0.259378,0.049493 -0.294364,-0.095233 -0.294364,-1.2177238 z m 0.953178,1.1370864 c -0.228638,-0.2286377 -0.120349,-2.3629725 0.13045,-2.571117 0.133423,-0.1107317 0.272697,-0.4416973 0.309496,-0.7354793 0.0368,-0.2937814 0.07902,0.3552504 0.09383,1.4422933 0.02109,1.5483558 -0.02166,1.9764415 -0.197357,1.9764415 -0.123354,0 -0.274741,-0.050459 -0.336416,-0.1121385 z M 28.00571,5.3767534 c 0,-1.8222515 0.01951,-1.9343901 0.336416,-1.9343901 0.316913,0 0.336415,0.1121386 0.336415,1.9343901 0,1.8222508 -0.0195,1.9343896 -0.336415,1.9343896 -0.316914,0 -0.336416,-0.1121388 -0.336416,-1.9343896 z m 1.009247,0 c 0,-1.775226 0.02762,-1.9537378 0.294363,-1.9023682 0.259017,0.049881 0.294364,0.2783131 0.294364,1.9023682 0,1.6240546 -0.03535,1.8524856 -0.294364,1.9023674 -0.266742,0.051368 -0.294363,-0.1271414 -0.294363,-1.9023674 z m 0.91341,1.7121569 c -0.04691,-0.1222279 -0.06345,-0.9729031 -0.03677,-1.8903896 0.04165,-1.4322353 0.09014,-1.6761233 0.342869,-1.7244902 0.266635,-0.051025 0.294364,0.1270449 0.294364,1.8903888 0,1.6360141 -0.04111,1.9467237 -0.25759,1.9467237 -0.141677,0 -0.295967,-0.1000048 -0.34287,-0.2222327 z m 0.973419,-1.6680914 c 0.04137,-1.6443425 0.08586,-1.8976631 0.341924,-1.9467236 0.266638,-0.051089 0.294363,0.1269547 0.294363,1.890324 0,1.8450399 -0.01786,1.9467237 -0.341924,1.9467237 -0.326299,0 -0.339751,-0.086388 -0.294363,-1.8903241 z m 0.972703,-0.044064 c 0,-1.7752259 0.02763,-1.9537376 0.294365,-1.9023674 0.259014,0.049881 0.294362,0.278313 0.294362,1.9023674 0,1.6240546 -0.03535,1.8524856 -0.294362,1.9023677 -0.266743,0.051368 -0.294365,-0.1271417 -0.294365,-1.9023677 z m 0.913409,1.7121568 c -0.0469,-0.1222279 -0.06345,-0.972903 -0.03677,-1.8903887 0.04165,-1.432236 0.09014,-1.6761234 0.342871,-1.7244909 0.266634,-0.051025 0.294362,0.1270449 0.294362,1.8903896 0,1.636014 -0.04111,1.9467227 -0.257591,1.9467227 -0.141675,0 -0.295965,-0.1000047 -0.342869,-0.2222327 z m 0.936878,-1.72449 c 0,-1.7633695 0.02772,-1.9414114 0.294362,-1.8903242 0.256059,0.04906 0.300553,0.3023805 0.341924,1.9467229 0.04539,1.8039364 0.03194,1.890324 -0.294363,1.890324 -0.324065,0 -0.341923,-0.1016831 -0.341923,-1.9467227 z M 34.734023,5.6414 c 0,-0.9319259 0.06642,-1.6944111 0.147612,-1.6944111 0.395407,0 0.536932,0.5410555 0.490232,1.8741747 -0.04129,1.1784844 -0.09608,1.4111293 -0.343482,1.4584027 C 34.763797,7.3301213 34.734023,7.1644142 34.734023,5.6414 Z M 35.6872,7.199006 c -0.160352,-0.1603516 -0.139234,-2.7473934 0.02244,-2.7473934 0.375031,0 0.538267,0.494803 0.538267,1.6316155 0,0.9111256 -0.05786,1.2279166 -0.224278,1.2279166 -0.123353,0 -0.274741,-0.050465 -0.336414,-0.1121387 z m 0.897107,-0.9812114 c 0,-0.6013433 0.03166,-1.093351 0.07035,-1.093351 0.465345,0 0.602485,0.2721121 0.602485,1.195451 0,0.8791114 -0.03806,0.9912501 -0.336415,0.9912501 -0.301911,0 -0.336417,-0.1121387 -0.336417,-1.0933501 z m 1.009247,0.2408573 V 5.606159 l 0.504625,0.3593237 c 0.522468,0.372031 0.706816,0.9080699 0.252309,0.7336592 -0.163796,-0.062856 -0.252309,0.00432 -0.252309,0.1914836 0,0.1871635 0.08851,0.2543383 0.252309,0.1914836 0.138773,-0.05325 0.252313,-0.023503 0.252313,0.066107 0,0.089611 -0.227079,0.1629289 -0.504622,0.1629289 -0.494316,0 -0.504625,-0.017419 -0.504625,-0.8524931 z M 10.844351,4.8611794 c -0.233425,-0.6139551 -0.20639,-0.745985 0.152753,-0.745985 0.292322,0 0.515905,0.4143151 0.521945,0.9671948 0.0042,0.3848283 -0.508149,0.2168454 -0.674698,-0.2212098 z m 2.523117,0 c -0.225481,-0.5930594 -0.206532,-0.745985 0.09243,-0.745985 0.230603,0 0.584565,0.6177436 0.584565,1.0201976 0,0.3429371 -0.522876,0.13115 -0.676995,-0.2742126 z m 2.022657,-0.073153 c 0,-0.092514 0.08016,-0.1682082 0.178135,-0.1682082 0.09797,0 0.131354,0.075694 0.07418,0.1682082 -0.05718,0.092514 -0.137338,0.1682075 -0.178135,0.1682075 -0.0408,0 -0.07418,-0.075694 -0.07418,-0.1682075 z m 4.96213,0 c -0.05718,-0.092514 -0.0238,-0.1682082 0.07418,-0.1682082 0.09797,0 0.178136,0.075694 0.178136,0.1682082 0,0.092514 -0.03338,0.1682075 -0.07418,0.1682075 -0.04079,0 -0.120958,-0.075694 -0.178136,-0.1682075 z M 16.105376,4.031091 c 0.0018,-0.3700576 0.03631,-0.5016386 0.07655,-0.2924025 0.04024,0.2092355 0.03871,0.5120095 -0.0034,0.672831 -0.0421,0.1608215 -0.07502,-0.010369 -0.07315,-0.3804285 z m 5.718697,0.2618046 C 21.615917,4.1192442 21.445606,3.9354773 21.445606,3.8845242 c 0,-0.050955 1.324636,-0.094572 2.943636,-0.096931 2.289594,-0.00331 2.943637,0.043797 2.943637,0.2121185 0,0.5298905 -0.406197,0.6201003 -2.767019,0.6145102 -2.060063,-0.0049 -2.411885,-0.046111 -2.741787,-0.3213263 z"
       id="path1055" />
  </g>
</svg>
