<?xml version="1.0" encoding="UTF-8" standalone="no"?>
<svg
   xmlns:dc="http://purl.org/dc/elements/1.1/"
   xmlns:cc="http://creativecommons.org/ns#"
   xmlns:rdf="http://www.w3.org/1999/02/22-rdf-syntax-ns#"
   xmlns:svg="http://www.w3.org/2000/svg"
   xmlns="http://www.w3.org/2000/svg"
   xmlns:sodipodi="http://sodipodi.sourceforge.net/DTD/sodipodi-0.dtd"
   xmlns:inkscape="http://www.inkscape.org/namespaces/inkscape"
   width="466.595"
   height="128"
   viewBox="0 0 123.45325 33.866667"
   version="1.1"
   id="svg8"
   inkscape:version="1.0.1 (3bc2e813f5, 2020-09-07)"
   sodipodi:docname="Peacekeeper.svg">
  <defs
     id="defs2" />
  <sodipodi:namedview
     id="base"
     pagecolor="#ffffff"
     bordercolor="#666666"
     borderopacity="1.0"
     inkscape:pageopacity="0.0"
     inkscape:pageshadow="2"
     inkscape:zoom="1.4"
     inkscape:cx="126.54807"
     inkscape:cy="83.365531"
     inkscape:document-units="mm"
     inkscape:current-layer="layer1"
     inkscape:document-rotation="0"
     showgrid="false"
     units="px"
     inkscape:window-width="1366"
     inkscape:window-height="705"
     inkscape:window-x="-8"
     inkscape:window-y="-8"
     inkscape:window-maximized="1" />
  <metadata
     id="metadata5">
    <rdf:RDF>
      <cc:Work
         rdf:about="">
        <dc:format>image/svg+xml</dc:format>
        <dc:type
           rdf:resource="http://purl.org/dc/dcmitype/StillImage" />
        <dc:title></dc:title>
      </cc:Work>
    </rdf:RDF>
  </metadata>
  <g
     inkscape:label="Layer 1"
     inkscape:groupmode="layer"
     id="layer1">
    <path
       style="fill:#273839;fill-opacity:1;stroke-width:0.224461"
       d="m 115.78201,29.288781 c 0.22334,-3.119903 0.41805,-12.232501 0.27838,-13.028705 l -0.14942,-0.851705 1.37457,0.06609 1.37457,0.0661 0.0696,1.231469 c 0.0384,0.677308 -0.0883,2.091412 -0.28146,3.142452 -0.43795,2.383411 -1.01716,7.768495 -1.02036,9.486536 l -0.003,1.29065 h -0.87199 -0.872 z m 1.99389,-0.112231 c 0.31511,-4.380763 0.61966,-7.154535 1.0369,-9.44351 0.25476,-1.397737 0.41219,-2.921839 0.34981,-3.386893 -0.10607,-0.790826 -0.0792,-0.839001 0.41608,-0.744334 0.79566,0.1521 0.91149,1.254684 0.35306,3.360914 -0.56807,2.142651 -1.38389,7.643032 -1.38389,9.330506 0,1.327066 -0.29453,2.398427 -0.65938,2.398427 -0.13466,0 -0.17882,-0.594248 -0.11258,-1.51511 z m -3.94352,0.956852 c -0.55653,-0.152945 -1.6171,-0.343571 -2.35683,-0.423613 -0.73973,-0.08004 -1.59749,-0.188366 -1.90612,-0.240719 -0.49138,-0.08335 -7.29741,-0.822934 -10.437418,-1.134192 -0.617275,-0.06118 -2.031375,-0.218093 -3.14246,-0.348677 -1.558687,-0.183192 -2.786262,-0.162927 -5.373952,0.08871 -3.015422,0.293226 -3.407701,0.290817 -3.887989,-0.02387 C 86.404786,27.839517 85.567806,26.42651 84.612259,24.479856 83.74261,22.708209 82.94177,21.203482 82.832612,21.136019 82.375569,20.85355 82.715497,17.8974 83.205023,17.8974 c 0.15967,0 0.816756,0.449375 1.460208,0.998609 0.887636,0.757679 1.311754,0.976565 1.757888,0.907241 2.385865,-0.370736 2.20223,-0.271337 2.470633,-1.337292 0.137366,-0.545496 0.249747,-1.40507 0.249747,-1.910167 0,-0.849109 0.04216,-0.912711 0.55916,-0.843475 0.34646,0.0464 0.953119,0.540287 1.59477,1.298329 0.569587,0.672896 1.723526,1.9349 2.564312,2.804454 l 1.528693,1.581007 5.911086,0.394401 c 3.25109,0.216918 6.52579,0.452032 7.27709,0.522475 l 1.36602,0.128076 2.16924,-2.620034 c 1.93411,-2.336026 2.16924,-2.716112 2.16924,-3.506364 0,-0.580684 0.10131,-0.88633 0.29379,-0.88633 0.91665,0 1.55647,1.630561 0.79891,2.035994 -0.2645,0.141556 -0.4097,0.449396 -0.39328,0.833781 0.02,0.465973 0.0514,0.503729 0.13402,0.160447 0.0594,-0.246907 0.20992,-0.549929 0.3345,-0.673382 0.15237,-0.150972 0.18135,1.061592 0.0886,3.703604 -0.0758,2.160435 -0.13059,4.700455 -0.12157,5.64449 0.0171,1.795074 -0.18575,3.353626 -0.43042,3.306086 -0.0788,-0.01533 -0.59871,-0.152994 -1.15524,-0.30594 z m 1.12411,-5.614415 c 0,-0.33233 -0.1286,-0.561152 -0.3154,-0.561152 -0.25047,0 -0.28991,-0.288816 -0.19152,-1.40288 0.0681,-0.771584 0.2107,-1.43676 0.31681,-1.478167 0.32858,-0.128228 -0.0369,-0.485866 -0.49651,-0.485866 -0.36985,0 -0.43597,0.161117 -0.43762,1.066189 -8.5e-4,0.586404 -0.0657,1.596478 -0.1435,2.244609 l -0.14155,1.178419 h 0.70465 c 0.60198,0 0.70464,-0.08175 0.70464,-0.561152 z m -9.42735,-0.698279 c 0,-0.583906 -0.31909,-0.649956 -4.22576,-0.874729 l -2.317833,-0.133359 0.07319,0.516492 c 0.0633,0.44634 0.271397,0.551163 1.532233,0.771758 0.80244,0.140395 2.2418,0.249262 3.19856,0.241926 1.6542,-0.01268 1.73957,-0.0383 1.73957,-0.522088 z m -3.88898,0.142183 c -0.71923,-0.09559 -1.42628,-0.299802 -1.57123,-0.453803 -0.210065,-0.223192 0.21365,-0.248814 2.0884,-0.126284 1.29356,0.08455 2.39622,0.19801 2.45036,0.252144 0.35396,0.353955 -1.35274,0.542563 -2.96753,0.327943 z m -23.139841,3.866894 c -0.09259,-0.09259 -0.235684,-0.172918 -0.317984,-0.178507 -0.497371,-0.03378 -2.506481,-0.660734 -2.506481,-0.782167 0,-0.08047 -0.555541,-0.270633 -1.234535,-0.422586 -0.678993,-0.151951 -1.234534,-0.376001 -1.234534,-0.497886 0,-0.121887 -0.08784,-0.167322 -0.1952,-0.100971 -0.16223,0.100262 -2.8761,-0.678004 -3.142272,-0.901121 -0.04553,-0.03816 0.105976,-0.529291 0.33669,-1.091384 0.272183,-0.663123 0.525327,-0.981829 0.72091,-0.907623 0.165787,0.0629 0.547649,0.176164 0.848585,0.251694 0.432654,0.108589 0.517376,0.237563 0.404854,0.61631 -0.128926,0.433957 -0.113745,0.443364 0.161489,0.10007 0.209542,-0.261358 0.497288,-0.339905 0.927489,-0.253179 0.505893,0.101983 0.599091,0.215949 0.493416,0.603373 -0.120893,0.44321 -0.107438,0.449325 0.186658,0.08484 0.438545,-0.543513 0.663753,-0.491271 0.483826,0.112231 -0.14896,0.499626 -0.14652,0.500227 0.227659,0.05612 0.352733,-0.41866 0.369083,-0.420302 0.242537,-0.02436 -0.117467,0.367533 -0.08749,0.384546 0.223244,0.126664 0.211879,-0.175844 0.4209,-0.211843 0.510177,-0.08787 0.08318,0.115514 0.277497,0.220128 0.431814,0.232473 0.154316,0.01234 0.432086,0.0376 0.617267,0.05612 0.18518,0.01852 0.344666,0.210432 0.354412,0.426476 0.01059,0.23466 0.06331,0.279844 0.130935,0.11223 0.137494,-0.340746 0.749187,-0.375746 0.749187,-0.04286 0,0.13074 0.08941,0.182453 0.198678,0.114918 0.160435,-0.09915 1.514884,0.235843 1.775624,0.439169 0.10993,0.08573 -0.930153,2.126196 -1.083776,2.126196 -0.07828,0 -0.218079,-0.07576 -0.310669,-0.168345 z m -6.871635,-4.433102 c 0,-0.123454 -0.09791,-0.07295 -0.217586,0.11223 -0.119673,0.185181 -0.217586,0.437699 -0.217586,0.561153 0,0.123453 0.09791,0.07295 0.217586,-0.112231 0.119673,-0.18518 0.217586,-0.437698 0.217586,-0.561152 z m -0.737637,-0.154316 c -0.07165,-0.17906 -0.124841,-0.125872 -0.13561,0.135611 -0.0097,0.236619 0.04331,0.369192 0.117891,0.294605 0.07459,-0.07459 0.08256,-0.268184 0.01771,-0.430216 z m 9.009876,3.666269 c 0.213005,-0.47577 0.682028,-1.118558 1.042264,-1.428422 0.560068,-0.481746 0.654983,-0.72488 0.654983,-1.677799 0,-1.565005 -0.424509,-2.468847 -1.28794,-2.742257 -4.416047,-1.398349 -8.323541,-2.499887 -8.554071,-2.411424 -0.802503,0.307949 -2.389361,4.186796 -1.71284,4.186796 0.280331,0 0.07555,0.683373 -0.383831,1.280855 l -0.380768,0.49524 -3.417715,-1.07291 C 61.776941,22.25662 61.178583,21.809746 60.786877,19.749194 L 60.6482,19.019697 h 1.004463 1.004462 v 0.868015 c 0,0.770836 0.105492,0.937827 0.942259,1.491574 1.222052,0.808716 2.511613,0.946856 3.546958,0.379957 0.962937,-0.527253 2.034281,-2.186458 2.138945,-3.312613 0.04271,-0.459509 0.167379,-0.925199 0.277046,-1.034866 0.116221,-0.116221 2.767131,0.606807 6.355025,1.733316 5.437613,1.707273 6.227628,2.0146 6.7729,2.634756 0.681858,0.775513 0.78512,1.663685 0.370638,3.188073 -0.380598,1.399781 -1.933097,2.805761 -3.098161,2.805761 -0.438464,0 -0.439928,-0.0205 -0.06181,-0.865034 z M 102.12654,21.398075 95.693702,20.925029 93.82149,18.925278 c -1.91191,-2.042134 -3.08936,-3.476686 -3.100523,-3.777531 -0.0034,-0.09259 5.091075,-0.168347 11.321133,-0.168347 10.96932,0 11.33472,0.01373 11.55973,0.434167 0.1278,0.238791 0.23236,0.602674 0.23236,0.808631 0,0.205955 -0.9721,1.576195 -2.16023,3.044977 -1.61375,1.994959 -2.28093,2.662093 -2.63741,2.63723 -0.26245,-0.01831 -3.37196,-0.246154 -6.91001,-0.50633 z M 81.19201,20.445193 c -0.484538,-0.168777 -0.921297,-0.347192 -0.970578,-0.396476 -0.04929,-0.04928 0.129765,-0.90263 0.397888,-1.896323 0.26813,-0.993694 0.446345,-1.93021 0.396029,-2.081148 -0.05031,-0.150938 -0.328009,0.605719 -0.617094,1.681458 -0.289094,1.075741 -0.610475,2.008336 -0.71419,2.072434 -0.260665,0.1611 -2.661446,-0.61636 -2.661446,-0.861871 0,-0.109399 0.257155,-1.213378 0.571455,-2.453285 0.314301,-1.239907 0.534805,-2.364326 0.490011,-2.498709 -0.04479,-0.134383 -0.365072,0.825734 -0.711724,2.133592 -0.346655,1.307859 -0.698433,2.488191 -0.781723,2.622962 -0.101677,0.164514 -1.480998,-0.186295 -4.197338,-1.067528 -2.225242,-0.721911 -4.630626,-1.385624 -5.345301,-1.474916 l -1.299412,-0.162351 0.155617,-2.283109 c 0.257476,-3.777481 0.423859,-4.7557809 0.798413,-4.6944898 0.182323,0.029837 1.004129,0.2318498 1.826238,0.4489216 1.430127,0.3776151 1.500186,0.4281825 1.620624,1.1697542 0.06924,0.426291 0.08345,1.537373 0.03158,2.469069 -0.0831,1.492841 -0.07131,1.560726 0.09928,0.571688 0.106473,-0.617266 0.202434,-1.703096 0.213248,-2.412954 0.01082,-0.709858 0.07595,-1.29065 0.14473,-1.29065 0.06878,0 0.574982,0.113291 1.124879,0.251756 1.208176,0.304223 1.329408,0.627208 1.155465,3.078441 -0.07316,1.030928 -0.05053,1.450359 0.05648,1.04679 0.09819,-0.370361 0.190486,-1.355183 0.205094,-2.188494 0.01461,-0.83331 0.102312,-1.507013 0.194902,-1.497114 0.09259,0.0099 0.673383,0.186986 1.29065,0.393531 l 1.122304,0.375537 -0.02456,1.907191 c -0.01464,1.136178 0.04704,1.725709 0.152569,1.458271 0.09742,-0.246908 0.184233,-1.012881 0.192908,-1.702162 0.0087,-0.689282 0.07337,-1.310839 0.143778,-1.38124 0.18686,-0.186861 3.472872,1.052129 3.68022,1.387627 0.111278,0.180048 0.227511,0.201303 0.31619,0.05783 0.114884,-0.185886 2.253768,0.427782 2.567439,0.736626 0.0386,0.03805 -0.08622,1.266481 -0.277472,2.729857 -0.191262,1.463378 -0.374379,2.974713 -0.406956,3.358523 l -0.05921,0.697838 z m -2.514697,-3.267722 c -0.186639,-0.301988 -0.496844,0.343698 -0.507627,1.056612 -0.0056,0.368552 0.05366,0.337461 0.330873,-0.173668 0.185715,-0.342424 0.265252,-0.739749 0.176754,-0.882944 z m -4.226881,-1.412457 c 0.203073,-0.493814 0.264112,-0.796836 0.135646,-0.673382 -0.128465,0.123453 -0.399721,0.62849 -0.602793,1.122304 -0.203073,0.493814 -0.264112,0.796836 -0.135646,0.673383 0.128466,-0.123454 0.399721,-0.628491 0.602793,-1.122305 z m 1.827676,0.519065 c -0.07165,-0.179059 -0.124841,-0.125872 -0.135611,0.135613 -0.0097,0.236619 0.04331,0.369191 0.117891,0.294604 0.07459,-0.07459 0.08256,-0.268183 0.0177,-0.430217 z m -4.657642,-4.783821 c 4.49e-4,-0.123453 -0.147484,-0.0284 -0.328737,0.211246 -0.181254,0.23964 -0.325973,0.593166 -0.321597,0.785614 0.0086,0.380918 0.648895,-0.600462 0.650334,-0.99686 z m -6.04535,8.566546 c 0,-0.07113 0.252518,-0.501434 0.561152,-0.956232 0.358857,-0.528805 0.561151,-1.139284 0.561151,-1.693424 0,-0.769062 0.06163,-0.866521 0.547906,-0.866521 0.753055,0 0.880585,0.313178 0.459287,1.127876 -0.338924,0.65541 -2.129496,2.663595 -2.129496,2.388301 z m 19.119298,-1.709922 c -0.632076,-0.499626 -1.267707,-0.908412 -1.412521,-0.908412 -0.190922,0 -0.222057,-0.443716 -0.113272,-1.614196 0.08254,-0.887809 0.176288,-1.640462 0.208389,-1.672565 0.03207,-0.0321 1.233842,0.265004 2.670525,0.660238 2.529399,0.695839 2.615455,0.739941 2.716232,1.391989 0.05727,0.37036 -0.06117,1.178419 -0.263135,1.795687 l -0.367211,1.122304 -1.14489,0.06668 c -1.045421,0.06088 -1.244751,-0.01225 -2.294117,-0.841729 z m -57.604762,0.213893 c -0.03286,-0.06173 -0.12235,-0.37495 -0.19888,-0.696051 -0.137585,-0.577274 -0.158045,-0.582609 -1.824447,-0.475666 -1.113306,0.07145 -1.793562,0.01831 -2.004281,-0.156576 -0.217789,-0.180748 -0.365129,-0.190066 -0.464444,-0.02937 -0.210356,0.340364 -3.261419,0.308563 -3.261419,-0.03399 0,-0.209496 -0.05986,-0.209496 -0.269353,0 -0.340397,0.340398 -1.526334,0.353924 -1.526334,0.01741 0,-0.176347 -0.08435,-0.181949 -0.281077,-0.01867 -0.181474,0.15061 -2.388745,0.220006 -6.228789,0.195831 L 5.0829168,17.336238 5.0111883,16.831202 C 4.9287623,16.250844 3.4650091,16.31647 18.662796,16.219141 c 4.629505,-0.02965 8.594044,-0.0682 8.810088,-0.08567 0.337814,-0.02732 0.392807,-0.276879 0.392807,-1.782561 0,-1.062448 0.105899,-1.856694 0.269353,-2.020148 0.148145,-0.148144 0.7596,-0.269353 1.358789,-0.269353 h 1.089437 l -0.03749,2.300724 c -0.02146,1.317238 0.0711,2.540598 0.216533,2.861876 0.227868,0.503368 0.240572,0.4722 0.123384,-0.302671 -0.07186,-0.475103 -0.04844,-0.81298 0.05202,-0.750837 0.100464,0.06215 0.147044,-0.735974 0.103513,-1.773593 l -0.07914,-1.886577 h 0.584183 c 0.579556,0 0.584186,0.01393 0.584186,1.758276 0,0.967052 0.07576,1.832865 0.168347,1.924028 0.09259,0.09116 0.295371,0.486774 0.450627,0.879137 l 0.282285,0.713389 -0.118299,-0.673383 c -0.32541,-1.852328 -0.386308,-4.380237 -0.113442,-4.709021 0.398348,-0.479981 2.375766,-0.469402 2.56115,0.0137 0.240979,0.627982 0.145857,3.13693 -0.129365,3.412152 -0.146089,0.146087 -0.19491,0.336317 -0.108491,0.422735 0.395786,0.395785 0.667766,-0.454195 0.619684,-1.936618 l -0.05124,-1.579935 h 0.912905 0.912901 v 1.571225 1.571227 h -0.697397 c -0.545767,0 -0.667566,0.07774 -0.560193,0.357544 0.07546,0.196648 0.198223,0.600678 0.272808,0.897843 0.07458,0.297164 0.218613,0.5403 0.320065,0.5403 0.101451,0 0.09051,-0.327608 -0.02433,-0.728017 -0.114834,-0.400409 -0.20859,-0.728683 -0.208342,-0.729497 2.24e-4,-8.08e-4 0.345898,-0.02606 0.768111,-0.05609 0.686875,-0.04886 0.78313,0.01583 0.914663,0.614692 0.08085,0.368114 0.251059,0.73361 0.37824,0.812212 0.210049,0.129816 0.144834,-0.262022 -0.194263,-1.167213 -0.05362,-0.143128 0.230523,-0.255935 0.687983,-0.273131 0.690289,-0.02595 0.795977,0.04649 0.92503,0.634066 0.203543,0.926734 0.559981,1.066274 0.413199,0.161762 -0.112136,-0.691012 -0.07529,-0.744701 0.543527,-0.791853 0.573385,-0.04369 0.712358,0.06427 1.020085,0.792357 l 0.356265,0.842938 -0.114786,-0.785614 c -0.107954,-0.738867 -0.07545,-0.788291 0.546264,-0.830632 0.566514,-0.03858 0.711323,0.07376 1.012629,0.785612 l 0.351579,0.830634 -0.126378,-0.844467 c -0.106756,-0.713357 -0.07014,-0.822888 0.235807,-0.705484 0.204627,0.07852 0.362186,0.02604 0.362186,-0.120645 0,-0.506021 0.765075,0.159095 1.059255,0.920862 l 0.289535,0.749734 -0.116987,-0.807464 c -0.111863,-0.772108 -0.0872,-0.80831 0.563363,-0.826807 0.57062,-0.01622 0.732284,0.104955 1.002364,0.751348 0.407237,0.974658 0.603851,1.000142 0.329252,0.04267 -0.114834,-0.400408 -0.208791,-0.738815 -0.208791,-0.752015 0,-0.0132 0.606045,-0.04218 1.346765,-0.0644 l 1.346765,-0.0404 -2.5e-5,1.297462 -2.2e-5,1.297463 h -11.58119 c -6.369645,0 -11.608054,-0.0505 -11.640905,-0.11223 z m 1.775609,-1.884981 c -0.08343,-0.444703 -0.252259,-0.808549 -0.375181,-0.808549 -0.122921,0 -0.161752,0.160894 -0.08629,0.357544 0.07546,0.196648 0.199404,0.605382 0.275432,0.908296 0.209287,0.833869 0.359155,0.465491 0.186039,-0.457291 z m 6.060442,0 c -0.08343,-0.444703 -0.252259,-0.808549 -0.37518,-0.808549 -0.122921,0 -0.161752,0.160894 -0.08629,0.357544 0.07546,0.196648 0.199403,0.605382 0.275431,0.908296 0.209286,0.833869 0.359155,0.465491 0.186039,-0.457291 z m -5.488784,-0.584089 c 0,-0.123453 -0.101007,-0.22446 -0.224461,-0.22446 -0.123453,0 -0.224461,0.101007 -0.224461,0.22446 0,0.123454 0.101008,0.224461 0.224461,0.224461 0.123454,0 0.224461,-0.101007 0.224461,-0.224461 z m 4.040296,0 c 0,-0.123453 -0.101007,-0.22446 -0.224461,-0.22446 -0.123453,0 -0.224461,0.101007 -0.224461,0.22446 0,0.123454 0.101008,0.224461 0.224461,0.224461 0.123454,0 0.224461,-0.101007 0.224461,-0.224461 z m -3.412196,-1.927559 c 0.03681,-0.257709 -0.07663,-0.587726 -0.252125,-0.733371 -0.648085,-0.53786 -1.554619,0.368673 -1.016757,1.016755 0.380517,0.458497 1.188671,0.278009 1.268882,-0.283384 z m -1.193658,0.124743 c -0.08718,-0.141046 -0.05288,-0.362065 0.07622,-0.491154 0.301652,-0.301653 1.004942,-0.03854 0.882216,0.330056 -0.124935,0.375228 -0.760107,0.481991 -0.95843,0.161098 z m 5.883154,0.08885 c 0.149975,-0.390824 -0.142227,-1.012718 -0.537785,-1.144571 -0.131168,-0.04372 -0.401522,0.08354 -0.600787,0.282805 -0.274767,0.274767 -0.306269,0.466993 -0.130385,0.795633 0.282915,0.528631 1.075627,0.569943 1.268957,0.06613 z m -0.898523,-0.0022 c -0.317729,-0.317731 -0.137938,-0.752882 0.311062,-0.752882 0.31379,0 0.441742,0.121893 0.392807,0.374205 -0.08012,0.413117 -0.463287,0.619256 -0.703869,0.378674 z m 26.481705,4.035616 c -0.0823,-0.0823 -0.149641,-0.587339 -0.149641,-1.122304 v -0.972664 h 2.020147 c 1.111081,0 2.020148,0.05703 2.020148,0.126721 0,0.0697 -0.303022,0.381699 -0.673383,0.693337 -0.370361,0.311638 -0.673382,0.759649 -0.673382,0.995582 0,0.368696 -0.168202,0.428969 -1.197123,0.428969 -0.658421,0 -1.264465,-0.06734 -1.346766,-0.149641 z M 51.434083,15.920467 50.64847,15.765062 v -1.75967 c 0,-2.639385 -0.04616,-2.617316 5.474213,-2.617316 4.893853,0 5.436579,-0.131334 5.3861,-1.303377 -0.0202,-0.4691108 -0.05076,-0.5039724 -0.136384,-0.1556185 -0.241673,0.9831915 -0.372788,1.0100735 -4.926577,1.0100735 -5.824833,0 -6.134044,0.157663 -6.134044,3.127696 v 1.585982 H 44.128849 37.94592 l 0.06636,-1.51511 0.06637,-1.515111 4.713678,-0.05629 c 4.486236,-0.05357 4.732631,-0.07914 5.106484,-0.529903 0.451102,-0.543899 0.511851,-1.712706 0.132315,-2.5456954 L 47.77065,8.9189576 H 42.868539 37.966432 V 8.124177 7.3293956 l 12.06477,0.078261 12.064771,0.07826 1.795687,0.5759497 1.795686,0.5759498 -0.01803,0.9822999 c -0.03589,1.954729 -0.360179,5.736662 -0.513135,5.984149 -0.180494,0.292035 -12.418629,0.573999 -13.722104,0.316154 z M 49.59401,14.137722 c 0.04134,-0.717974 -0.02444,-1.17842 -0.168345,-1.17842 -0.13029,0 -0.236191,0.452889 -0.236191,1.010074 v 1.010073 h -1.346766 -1.346764 v -1.010073 c 0,-0.860433 -0.06652,-1.010074 -0.448922,-1.010074 -0.382414,0 -0.448922,0.149641 -0.448922,1.010074 0,0.860433 -0.06651,1.010073 -0.448922,1.010073 -0.382413,0 -0.448921,-0.14964 -0.448921,-1.010073 0,-0.860433 -0.06652,-1.010074 -0.448921,-1.010074 -0.382415,0 -0.448923,0.149641 -0.448923,1.010074 0,0.860433 -0.06651,1.010073 -0.448921,1.010073 -0.382414,0 -0.448922,-0.14964 -0.448922,-1.010073 0,-0.860433 -0.06651,-1.010074 -0.448922,-1.010074 -0.382413,0 -0.448921,0.149641 -0.448921,1.010074 v 1.010073 h -1.458995 c -0.840627,0 -1.458996,0.09689 -1.458996,0.228599 0,0.150329 1.78681,0.207968 5.218715,0.168344 l 5.218714,-0.06025 z m 14.29765,0.515616 c 0,-0.376006 -0.320995,-0.484573 -2.46907,-0.835096 -2.721758,-0.444135 -3.703604,-0.376874 -3.703604,0.253715 0,0.71772 0.54309,0.89008 3.043548,0.96593 3.237048,0.0982 3.129126,0.111458 3.129126,-0.384549 z m -6.330212,0.184368 c 0.07795,-0.07795 0.04258,-0.327028 -0.07861,-0.553489 -0.371564,-0.694274 0.633796,-1.180504 2.040775,-0.986995 l 1.143227,0.157234 -0.07104,-0.864844 -0.07104,-0.864844 -3.314304,-0.06214 c -3.575042,-0.06702 -4.336517,0.09665 -4.129669,0.887628 0.112894,0.431709 0.09979,0.434087 -0.31645,0.0574 -0.358515,-0.324453 -0.533,-0.347961 -1.000762,-0.134833 -0.716228,0.326333 -0.905951,0.81361 -0.588261,1.510864 0.184004,0.403845 0.426498,0.546839 0.927351,0.546839 0.373007,0 0.678195,0.101007 0.678195,0.22446 0,0.245021 4.539748,0.323571 4.780601,0.08271 z m -4.332195,-0.350079 c 2.24e-4,-0.08531 0.109164,-0.222246 0.241955,-0.304316 0.132791,-0.08207 0.208547,-0.567817 0.168345,-1.079437 l -0.07309,-0.930217 h 3.363839 c 3.025196,0 3.371455,0.03954 3.439486,0.392806 0.06517,0.338374 -0.108434,0.392806 -1.252787,0.392806 -1.411713,0 -2.265573,0.516985 -1.999416,1.210581 0.104167,0.271457 -0.227012,0.342081 -1.881209,0.401167 -1.104199,0.03944 -2.007404,0.0019 -2.00712,-0.08339 z m -1.714639,-0.744406 c -0.07806,-0.203412 0.0055,-0.51723 0.185614,-0.697374 0.449125,-0.449126 1.122778,-0.158553 1.036371,0.447028 -0.08513,0.596652 -1.015918,0.787341 -1.221985,0.250346 z m 0.817312,-0.33503 c 0,-0.123453 -0.04454,-0.224461 -0.09898,-0.224461 -0.05443,0 -0.16141,0.101008 -0.237709,0.224461 -0.0763,0.123454 -0.03175,0.224461 0.09898,0.224461 0.130739,0 0.237709,-0.101007 0.237709,-0.224461 z m -13.018729,0.448922 c 0,-0.493814 -0.101008,-0.897844 -0.224461,-0.897844 -0.123454,0 -0.224461,0.40403 -0.224461,0.897844 0,0.493813 0.101007,0.897844 0.224461,0.897844 0.123453,0 0.224461,-0.404031 0.224461,-0.897844 z m 1.721195,0.319287 c 0.07473,-0.194754 -0.02945,-0.519421 -0.231506,-0.721483 -0.340205,-0.340205 -0.394566,-0.340205 -0.73477,0 -0.458908,0.458907 -0.248271,1.075579 0.367384,1.075579 0.254655,0 0.524158,-0.159344 0.598892,-0.354096 z M 40.21104,13.857113 c 0,-0.123453 0.101008,-0.224461 0.22446,-0.224461 0.123454,0 0.224462,0.101008 0.224462,0.224461 0,0.123453 -0.101008,0.224461 -0.224462,0.224461 -0.123452,0 -0.22446,-0.101008 -0.22446,-0.224461 z m 8.230559,0.319287 c 0.07473,-0.194754 -0.02945,-0.519421 -0.231506,-0.721483 -0.340204,-0.340205 -0.394564,-0.340205 -0.734768,0 -0.458909,0.458907 -0.248272,1.075579 0.367383,1.075579 0.254656,0 0.524157,-0.159344 0.598891,-0.354096 z m -1.047812,-0.319287 c 0,-0.123453 0.151511,-0.224461 0.336692,-0.224461 0.18518,0 0.336691,0.101008 0.336691,0.224461 0,0.123453 -0.151511,0.224461 -0.336691,0.224461 -0.185181,0 -0.336692,-0.101008 -0.336692,-0.224461 z m 17.620176,-0.187051 c 0,-0.405973 -0.439337,-0.331858 -0.526473,0.08882 -0.04848,0.23405 0.03566,0.33666 0.224462,0.273727 0.166105,-0.05537 0.302011,-0.218512 0.302011,-0.362541 z m 0.336692,-2.61871 c 0,-0.18518 -0.151511,-0.336691 -0.336692,-0.336691 -0.185179,0 -0.336691,0.151511 -0.336691,0.336691 0,0.18518 0.151512,0.336692 0.336691,0.336692 0.185181,0 0.336692,-0.151512 0.336692,-0.336692 z M 55.923299,10.37797 c 0,-0.18518 -0.15151,-0.336692 -0.336691,-0.336692 -0.185181,0 -0.336691,0.151512 -0.336691,0.336692 0,0.185179 0.15151,0.336691 0.336691,0.336691 0.185181,0 0.336691,-0.151512 0.336691,-0.336691 z m 4.591861,0.12774 c 0.166,-0.268591 -0.256248,-0.5347172 -0.555227,-0.349938 -0.251027,0.155144 -0.08623,0.558889 0.228123,0.558889 0.108881,0 0.256078,-0.09403 0.327104,-0.208951 z m -7.11237,-0.282057 c -0.138732,-0.4162008 -0.621943,-0.4852311 -0.621943,-0.08885 0,0.195469 0.159929,0.355396 0.355396,0.355396 0.195469,0 0.315415,-0.119945 0.266547,-0.266546 z m 1.1856,-0.07014 c -0.01759,-0.3331644 -0.519766,-0.2719575 -0.636267,0.07755 -0.06293,0.188798 0.03968,0.272941 0.273725,0.224461 0.20592,-0.04265 0.369063,-0.17856 0.362542,-0.302013 z M 44.700257,7.8956367 c 0,-0.370377 -0.354747,-0.4329525 -0.561153,-0.098984 -0.183049,0.2961797 0.08534,0.7164951 0.352202,0.5515671 0.114922,-0.071025 0.208951,-0.2746892 0.208951,-0.4525831 z M 49.91149,7.7555028 c -0.342868,-0.3428674 -0.595862,-0.089871 -0.405697,0.4056948 0.112284,0.292603 0.209628,0.3215973 0.409313,0.1219113 0.199687,-0.1996861 0.198825,-0.3251639 -0.0036,-0.5276061 z m 10.949948,0.1401339 c 0,-0.370377 -0.354747,-0.4329525 -0.561153,-0.098984 -0.183049,0.2961797 0.08534,0.7164951 0.352202,0.5515671 0.114922,-0.071025 0.208951,-0.2746892 0.208951,-0.4525831 z M 39.537657,8.0343616 c 0,-0.3031049 -0.409178,-0.5132257 -0.677043,-0.3476758 -0.125466,0.077539 -0.170012,0.235015 -0.09898,0.3499384 0.168496,0.2726335 0.776025,0.2708621 0.776025,-0.00229 z m 15.885281,-0.05533 c -0.138733,-0.4162 -0.621942,-0.48523 -0.621942,-0.088848 0,0.1954671 0.159927,0.3553958 0.355394,0.3553958 0.19547,0 0.315415,-0.1199465 0.266548,-0.2665478 z M 3.3246406,15.727604 C 3.0857966,15.48876 3.1518101,12.551158 3.39946,12.398102 3.5420083,12.31 3.6239211,12.919513 3.6239211,14.06831 c 0,1.814108 -0.022074,1.936499 -0.2992805,1.659294 z M 4.072843,14.221272 c 0,-1.948252 0.2056254,-2.218564 1.6107531,-2.117463 l 0.9705473,0.06983 0.065197,1.851802 0.065196,1.851802 H 5.4286932 4.0728498 Z m 1.975256,0.264315 C 6.4508034,14.082883 6.3746736,13.679055 5.842343,13.39416 5.217791,13.059911 4.6298167,13.585637 4.8505122,14.280989 c 0.1654617,0.521322 0.7764756,0.62571 1.1975868,0.204598 z m -0.9200123,-0.09699 c -0.3534607,-0.35346 -0.143664,-0.785234 0.3476368,-0.715459 0.2777704,0.03945 0.5050373,0.221855 0.5050373,0.405345 0,0.356612 -0.5911701,0.571618 -0.8526741,0.310114 z m 2.0872085,-0.19481 c 0,-1.646046 0.012471,-1.683456 0.5611518,-1.683456 0.5486827,0 0.5611527,0.03741 0.5611527,1.683456 0,1.646046 -0.012471,1.683457 -0.5611527,1.683457 -0.5486819,0 -0.5611518,-0.03741 -0.5611518,-1.683457 z m 1.5712256,0.02749 c 0,-1.948253 0.2056255,-2.218565 1.6107532,-2.117465 l 0.970547,0.06984 0.06519,1.851801 0.06519,1.851803 h -1.35583 -1.3558434 z m 2.1993262,-0.04713 c 0.03682,-0.257709 -0.07663,-0.587726 -0.252127,-0.73337 -0.648082,-0.537861 -1.5546156,0.368671 -1.0167549,1.016754 0.3805179,0.458497 1.1886709,0.278009 1.2688819,-0.283384 z m -1.1936589,0.124742 c -0.087168,-0.141044 -0.052867,-0.362064 0.076221,-0.491153 0.3016529,-0.301653 1.0049419,-0.03855 0.8822159,0.330056 -0.124936,0.375228 -0.7601078,0.481991 -0.958432,0.161097 z m 2.1367849,-0.1051 c 0,-1.646046 0.01247,-1.683456 0.561152,-1.683456 0.548683,0 0.561152,0.03741 0.561152,1.683456 0,1.646046 -0.01247,1.683457 -0.561152,1.683457 -0.548682,0 -0.561152,-0.03741 -0.561152,-1.683457 z m 1.73066,1.543609 c -0.271108,-0.271108 -0.179268,-3.117447 0.109919,-3.406634 0.148144,-0.148144 0.752264,-0.269353 1.342489,-0.269353 1.260218,0 1.373309,0.211935 1.262631,2.366192 l -0.06871,1.337412 -1.243447,0.06591 c -0.683896,0.03625 -1.315192,-0.0059 -1.402881,-0.09352 z m 2.015711,-1.349658 c 0.149974,-0.390824 -0.142229,-1.012718 -0.537786,-1.144571 -0.131168,-0.04372 -0.401521,0.08354 -0.600786,0.282804 -0.274768,0.274768 -0.30627,0.466994 -0.130387,0.795635 0.282914,0.528631 1.075628,0.569943 1.268959,0.06613 z m -0.898524,-0.0022 c -0.317728,-0.317727 -0.137938,-0.752879 0.311063,-0.752879 0.313788,0 0.44174,0.121894 0.392807,0.374207 -0.08012,0.413115 -0.463288,0.619255 -0.70387,0.378672 z m 1.912113,-0.13561 c 0.06051,-1.493287 0.107552,-1.633251 0.570985,-1.69907 0.48558,-0.06897 0.505038,-0.0063 0.505038,1.627343 0,1.670501 -0.0096,1.699067 -0.570987,1.699067 -0.565233,0 -0.570321,-0.0164 -0.505036,-1.62734 z m 1.796256,-0.212984 0.06537,-1.86328 h 1.234536 1.234534 v 1.795687 1.795687 l -1.299913,0.06759 -1.299913,0.0676 z m 1.949685,0.409779 c 0.524596,-0.6321 -0.382812,-1.539509 -1.014913,-1.014913 -0.324339,0.269178 -0.412276,0.919838 -0.158599,1.173513 0.253674,0.253677 0.904334,0.165739 1.173512,-0.1586 z m -0.944376,-0.06118 C 19.17277,14.067842 19.35256,13.63269 19.801561,13.63269 c 0.313787,0 0.44174,0.121894 0.392807,0.374207 -0.08012,0.413115 -0.463288,0.619254 -0.70387,0.378672 z m 2.090291,-0.191726 c 0,-1.533816 0.03991,-1.683457 0.448922,-1.683457 0.409018,0 0.448922,0.149641 0.448922,1.683457 0,1.533816 -0.03991,1.683456 -0.448922,1.683456 -0.409018,0 -0.448922,-0.14964 -0.448922,-1.683456 z m 1.571227,0.03868 c 0,-1.960445 0.203888,-2.22989 1.610752,-2.128665 l 0.970547,0.06984 v 1.795686 1.795688 l -1.290649,0.06731 -1.29065,0.06731 z m 1.975255,0.253114 c 0.402705,-0.402704 0.326574,-0.806532 -0.205756,-1.091427 -0.624552,-0.33425 -1.212526,0.191478 -0.99183,0.886829 0.165461,0.521322 0.776475,0.625709 1.197586,0.204598 z m -0.920012,-0.09699 c -0.35346,-0.353461 -0.143664,-0.785234 0.347637,-0.715459 0.277769,0.03945 0.505036,0.221855 0.505036,0.405345 0,0.356611 -0.591169,0.571618 -0.852673,0.310114 z m 2.087208,-0.194809 c 0,-1.646047 0.01248,-1.683457 0.561153,-1.683457 0.54868,0 0.561152,0.03741 0.561152,1.683457 0,1.646045 -0.01248,1.683455 -0.561152,1.683455 -0.548681,0 -0.561153,-0.03741 -0.561153,-1.683455 z m 8.994964,-2.224724 c -0.454199,-0.547275 -0.06784,-0.805529 1.205085,-0.805529 1.074139,0 1.205267,0.05307 1.295343,0.524285 0.09373,0.490287 0.02497,0.52733 -1.060283,0.571237 -0.803929,0.03252 -1.246429,-0.05658 -1.440145,-0.289993 z m 3.048234,-0.07603 c -0.0573,-0.09259 1.956825,-0.168345 4.475837,-0.168345 2.519009,0 4.580079,0.07576 4.58015,0.168345 7.5e-5,0.09259 -2.014051,0.168347 -4.475834,0.168347 -2.461783,0 -4.522853,-0.07576 -4.580153,-0.168347 z m 5.015827,-1.470218 V 9.1434421 h 0.785612 c 0.781457,0 0.785613,0.00534 0.785613,1.0100739 0,0.90435 -0.05404,1.010074 -0.516259,1.010074 -0.283944,0 -0.637468,0.121209 -0.785613,0.269354 -0.209497,0.209496 -0.269353,-0.01497 -0.269353,-1.010075 z m 2.020148,-0.01741 V 9.143443 l 0.729497,0.00348 c 1.05274,0.00492 1.335172,0.2628359 1.251186,1.142405 -0.06304,0.660221 -0.162766,0.77223 -0.746149,0.838052 -0.37036,0.04179 -0.799642,0.180414 -0.953959,0.30806 -0.21871,0.180911 -0.280575,-0.04618 -0.280575,-1.029934 z M 4.2224837,11.01395 C 4.1401846,10.931651 4.072843,10.081125 4.072843,9.1238985 V 7.3834876 L 5.4757235,7.24517 c 0.7715839,-0.076072 1.705903,-0.051597 2.076263,0.054397 0.6704709,0.1918829 0.6733825,0.1999261 0.6733825,1.8600232 0,1.5176678 -0.040289,1.6673088 -0.448922,1.6673088 -0.4015769,0 -0.4558768,-0.171624 -0.5148698,-1.6273428 C 7.1719366,6.9875997 6.7663732,7.125472 6.7663732,9.367902 v 1.795687 H 5.5692488 c -0.6584184,0 -1.2644627,-0.06733 -1.3467651,-0.149639 z M 6.1773579,9.5404614 C 6.3656115,9.2415239 6.3363373,9.0661314 6.0504761,8.7802701 5.3780573,8.1078513 4.3748484,8.9866549 4.9810488,9.7170812 5.3300607,10.137615 5.8496101,10.06091 6.1773579,9.5404614 Z M 5.0431645,9.4574839 C 4.8668957,8.998134 5.4196531,8.6395939 5.8076546,8.9616061 6.02674,9.1434311 6.0356638,9.278754 5.8438115,9.5099187 5.5059131,9.9170616 5.212135,9.8978223 5.043162,9.4574821 Z M 8.8806798,10.860749 C 8.8167648,10.694183 8.7946812,9.8628763 8.8316109,9.0133993 L 8.8987498,7.4688967 10.021054,7.2802545 c 0.617268,-0.1037538 1.555712,-0.1242018 2.085433,-0.045438 l 0.963128,0.1432025 -0.06528,1.7244431 c -0.05879,1.5530409 -0.109906,1.7244439 -0.514206,1.7244439 -0.401577,0 -0.455877,-0.171624 -0.51487,-1.6273419 -0.08964,-2.211956 -0.495204,-2.0740837 -0.495204,0.1683456 v 1.7956873 h -1.241579 c -0.8348941,0 -1.2796461,-0.0992 -1.3577924,-0.302846 z M 10.891036,9.540465 C 11.079289,9.2415273 11.050016,9.0661348 10.764154,8.7802734 10.091735,8.1078546 9.0885263,8.9866583 9.6947266,9.7170839 10.043739,10.137619 10.563288,10.060914 10.891036,9.540465 Z M 9.9088255,9.59705 c -0.2992812,-0.1892501 -0.2992812,-0.2503164 0,-0.5495969 C 10.322725,8.6335528 10.933859,8.9371582 10.734191,9.4574857 10.576748,9.8677748 10.387545,9.8997686 9.9088255,9.59705 Z m 3.8412965,1.260535 C 13.579834,10.6524 13.503658,9.9604476 13.545598,8.9997602 l 0.06683,-1.5308619 1.122305,-0.1886421 C 15.352,7.1765023 16.286318,7.155436 16.810995,7.2334432 l 0.953959,0.1418273 v 1.7512869 c 0,1.6740556 -0.02228,1.7501646 -0.505038,1.7258186 -0.466814,-0.02354 -0.512814,-0.152875 -0.607807,-1.7089254 l -0.10277,-1.6834565 -0.12169,1.7956873 -0.121691,1.7956876 -1.142242,0.06659 c -0.792222,0.04618 -1.225392,-0.0336 -1.413595,-0.260372 z m 1.95162,-1.5265231 C 15.754346,8.8762488 15.650953,8.694989 15.269924,8.574056 14.60276,8.3623062 14.086237,9.0097556 14.421927,9.6369988 14.768058,10.283751 15.614969,10.0813 15.701742,9.3310619 Z m -1.003858,0.1339906 c -0.187078,-0.4875209 0.287858,-0.9459947 0.627806,-0.6060449 0.287318,0.2873172 0.109324,0.9578225 -0.254265,0.9578225 -0.131203,0 -0.299295,-0.1582993 -0.373541,-0.3517776 z m 3.900177,1.5589865 c -0.08785,-0.08785 -0.159723,-0.941471 -0.159723,-1.8969379 V 7.3898876 L 19.556292,7.236129 c 0.614874,-0.084564 1.523941,-0.085167 2.020147,-0.00136 l 0.902194,0.1524156 v 1.7281912 c 0,1.5672782 -0.0418,1.7313402 -0.448922,1.7620072 -0.411715,0.03102 -0.448922,-0.104552 -0.448922,-1.6356896 0,-2.2117091 -0.411798,-2.1534907 -0.495595,0.070066 l -0.06555,1.7395716 -1.130926,0.0662 c -0.62201,0.03641 -1.202802,-0.0057 -1.290651,-0.09352 z m 1.848516,-1.3050913 c 0.201864,-0.2432294 0.204892,-0.4393665 0.01234,-0.7991545 -0.286045,-0.5344795 -0.845697,-0.5228214 -1.190514,0.024797 -0.519267,0.8246681 0.55205,1.5287908 1.178175,0.7743556 z M 19.411563,9.4650525 c -0.18708,-0.4875209 0.287856,-0.9459947 0.627805,-0.6060449 0.287318,0.2873172 0.109325,0.9578225 -0.254265,0.9578225 -0.131202,0 -0.299296,-0.1582993 -0.37354,-0.3517776 z m 3.890093,1.5489035 c -0.0823,-0.0823 -0.14964,-0.928239 -0.14964,-1.8798602 V 7.403877 l 0.70144,-0.1402884 c 0.385791,-0.077158 0.991836,-0.1402884 1.346765,-0.1402884 h 0.645325 v 2.0201478 2.020148 h -1.197124 c -0.65842,0 -1.264464,-0.06733 -1.346766,-0.14964 z M 25.256532,9.5404668 C 25.444784,9.241529 25.41551,9.0661365 25.129648,8.7802752 24.45723,8.1078564 23.454021,8.98666 24.06022,9.7170858 c 0.349014,0.4205342 0.868562,0.3438292 1.196312,-0.176619 z m -0.926098,0.1152597 c -0.380877,-0.1368289 -0.355281,-0.6600714 0.03971,-0.8116423 0.457512,-0.1755647 0.893186,0.3965082 0.524215,0.6883361 -0.155839,0.1232563 -0.409604,0.1787439 -0.56392,0.1233062 z m 3.684901,1.3581995 c -0.08231,-0.0823 -0.149641,-0.890361 -0.149641,-1.795687 0,-2.1306978 -0.408989,-2.1461456 -0.495203,-0.018706 -0.059,1.455718 -0.113295,1.62734 -0.514871,1.62734 -0.40394,0 -0.455436,-0.171313 -0.513942,-1.7097315 L 26.276658,7.407408 26.987003,7.265339 c 0.39069,-0.078143 1.354267,-0.14207 2.141282,-0.14207 h 1.430939 V 9.1434169 11.163565 H 29.3621 c -0.65842,0 -1.264465,-0.06733 -1.346765,-0.149641 z M 29.97021,9.5404369 C 30.158462,9.2414993 30.129187,9.0661068 29.843326,8.7802454 29.170906,8.1078266 28.167699,8.9866302 28.773898,9.7170558 29.12291,10.137591 29.642461,10.060886 29.97021,9.5404369 Z m -0.957497,-0.030546 c -0.194047,-0.2338121 -0.171595,-0.3758905 0.09426,-0.596532 0.429015,-0.356049 0.907748,0.019368 0.703487,0.551663 -0.166258,0.4332632 -0.461622,0.449876 -0.797747,0.044867 z m 3.836011,1.3843221 C 32.517903,10.563392 32.484831,7.6571159 32.809604,7.456395 32.936232,7.378135 33.59278,7.2570355 34.268599,7.1872846 l 1.228764,-0.1268227 v 1.6965016 c 0,0.9330753 -0.06131,1.8562735 -0.136245,2.0515505 -0.166324,0.433434 -2.098742,0.499348 -2.512393,0.0857 z m 1.93219,-1.5631812 c 0.0526,-0.4548131 -0.05079,-0.6360728 -0.431819,-0.7570059 -0.667163,-0.2117496 -1.183686,0.4356996 -0.847996,1.0629423 0.346133,0.6467528 1.193041,0.4443008 1.279815,-0.3059364 z m -1.003859,0.1339901 c -0.187077,-0.4875203 0.287859,-0.9459941 0.627807,-0.6060443 0.287318,0.2873171 0.109323,0.9578229 -0.254265,0.9578229 -0.131202,0 -0.299295,-0.1583002 -0.373542,-0.3517786 z m 4.189377,0.9578221 c 0,-1.143488 0.290954,-1.279426 2.738422,-1.279426 h 2.199716 v 1.010074 1.010075 H 40.4355 37.966432 Z M 3.175,9.255649 c 0,-0.972664 0.094772,-1.6834565 0.2244608,-1.6834565 0.1296886,0 0.2244611,0.7107925 0.2244611,1.6834565 0,0.972664 -0.094772,1.683457 -0.2244611,1.683457 C 3.2697723,10.939106 3.175,10.228313 3.175,9.255649 Z m 27.960679,1.511708 c -0.07014,-0.07014 -0.127534,-0.8682541 -0.127534,-1.7735793 0,-1.6134052 0.01132,-1.6460458 0.570593,-1.6460458 0.567184,0 0.570202,0.010274 0.505037,1.7188101 -0.05371,1.408192 -0.133776,1.728709 -0.443059,1.77358 -0.207628,0.03013 -0.434895,-0.0026 -0.505037,-0.07276 z M 35.721823,9.1434183 V 7.5721925 h 0.897843 0.897844 V 9.1434183 10.714645 H 36.619666 35.721823 Z M 4.7889115,6.5060033 c 0.069489,-0.3610314 0.5474466,-0.3955536 5.9085545,-0.4267646 3.208126,-0.018681 5.977871,0.046287 6.154991,0.1443554 0.17712,0.098073 0.49791,0.06848 0.712866,-0.065764 0.283765,-0.1772139 0.546915,-0.1729611 0.960598,0.015525 0.355956,0.1621844 0.619863,0.1785484 0.703261,0.043606 0.176253,-0.2851842 2.489259,-0.2782506 3.026124,0.00907 0.281119,0.1504501 0.46666,0.1504501 0.559644,0 0.182886,-0.295915 2.489122,-0.2903947 3.045352,0.00729 0.348394,0.186455 0.434165,0.1585713 0.434165,-0.1411462 0,-0.3346764 0.239132,-0.3565503 2.300365,-0.2104159 1.265201,0.089698 2.488133,0.263579 2.717628,0.3864006 0.28432,0.1521637 0.495403,0.1451732 0.662519,-0.021938 0.322848,-0.3228494 2.299065,-0.3151099 2.909143,0.011393 0.359797,0.1925574 0.500915,0.1925574 0.5651,0 0.114258,-0.3427688 1.005779,-0.3272889 1.37807,0.023932 0.23793,0.2244606 0.317988,0.2244606 0.400289,0 0.132732,-0.3619952 2.307982,-0.3741776 3.091216,-0.017315 0.44198,0.2013785 0.639689,0.2013785 0.841068,0 0.342458,-0.3424583 2.474746,-0.3412826 2.817581,0.00152 0.203451,0.2034493 0.38871,0.1985128 0.79944,-0.021302 0.436787,-0.2337611 0.627823,-0.2308775 1.043936,0.015763 0.401484,0.2379664 0.530827,0.2424771 0.610924,0.021302 0.07771,-0.2145891 1.464093,-0.2805759 5.894869,-0.2805759 5.075635,0 5.810139,0.043978 5.929509,0.3550497 0.07493,0.1952772 0.136244,0.3972919 0.136244,0.4489211 0,0.051631 -12.077788,0.093877 -26.839529,0.093877 -25.440617,0 -26.835589,-0.020471 -26.7639275,-0.3928067 z M 48.528505,4.8612312 c 0.270546,-0.3799481 0.706705,-0.7779162 0.969242,-0.884373 0.721269,-0.2924698 6.76102,-0.9309103 7.367224,-0.7787627 0.449418,0.1127965 1.751858,1.7552094 1.751858,2.2091401 0,0.079644 -2.38055,0.1448093 -5.290112,0.1448093 H 48.0366 Z m 1.895504,-0.091725 c 0,-0.4951963 -0.697826,-0.7417973 -1.063721,-0.3759031 -0.377265,0.3772639 -0.0052,0.9735309 0.557681,0.893609 0.331117,-0.047016 0.50604,-0.2259732 0.50604,-0.5177059 z M 49.557472,4.9473808 C 49.30469,4.6945962 49.403517,4.4297412 49.750626,4.4297412 c 0.185181,0 0.336691,0.095046 0.336691,0.2112135 0,0.2830404 -0.350516,0.4857551 -0.529845,0.3064261 z M 57.001356,4.065503 C 57.085413,3.4764071 56.416689,3.1667716 55.98743,3.5960295 55.817179,3.7662818 55.748215,4.0727776 55.831389,4.2895275 56.041237,4.8363786 56.915246,4.6690251 57.001356,4.065503 Z M 56.14776,3.9808204 c 0,-0.1234527 0.151511,-0.2244605 0.336692,-0.2244605 0.185179,0 0.336691,0.1010078 0.336691,0.2244605 0,0.1234536 -0.151512,0.2244614 -0.336691,0.2244614 -0.185181,0 -0.336692,-0.1010078 -0.336692,-0.2244614 z"
       id="path845" />
  </g>
</svg>
