<?xml version="1.0" encoding="UTF-8" standalone="no"?>
<!-- Generator: Adobe Illustrator 22.1.0, SVG Export Plug-In . SVG Version: 6.00 Build 0)  -->

<svg
   version="1.1"
   id="Layer_4_1_"
   x="0px"
   y="0px"
   viewBox="0 0 512 512"
   xml:space="preserve"
   sodipodi:docname="Phoenix_Kit.svg"
   width="512"
   height="512"
   inkscape:version="1.1 (c68e22c387, 2021-05-23)"
   xmlns:inkscape="http://www.inkscape.org/namespaces/inkscape"
   xmlns:sodipodi="http://sodipodi.sourceforge.net/DTD/sodipodi-0.dtd"
   xmlns="http://www.w3.org/2000/svg"
   xmlns:svg="http://www.w3.org/2000/svg"><defs
   id="defs47" /><sodipodi:namedview
   id="namedview45"
   pagecolor="#ffffff"
   bordercolor="#666666"
   borderopacity="1.0"
   inkscape:pageshadow="2"
   inkscape:pageopacity="0.0"
   inkscape:pagecheckerboard="0"
   showgrid="false"
   inkscape:zoom="0.43243243"
   inkscape:cx="47.40625"
   inkscape:cy="320.28125"
   inkscape:window-width="1366"
   inkscape:window-height="697"
   inkscape:window-x="-8"
   inkscape:window-y="-8"
   inkscape:window-maximized="1"
   inkscape:current-layer="Layer_4_1_" />
<style
   type="text/css"
   id="style2">
	.st0{fill:#241C1C;}
	.st1{fill:#FE7E00;}
</style>


















<g
   id="g1207"
   transform="matrix(13.406593,0,0,13.406593,6.6371851,7.9780221)"><path
     class="st0"
     d="m 26.1,12.2 v 7.7 c 0,0 0,0.1 0,0.1 l 1.5,1.1 V 10.9 l -1.5,1.3 c 0,-0.1 0,-0.1 0,0 z"
     id="path4"
     style="fill:#273839;fill-opacity:1" /><path
     class="st0"
     d="m 10.9,19.9 v -7.7 c 0,0 0,-0.1 0,-0.1 L 9.4,11 v 10.2 l 1.5,-1.3 c 0,0.1 0,0.1 0,0 z"
     id="path6"
     style="fill:#273839;fill-opacity:1" /><path
     class="st0"
     d="M 23.8,3.8 H 13.2 c -2.1,0 -3.8,1.7 -3.8,3.8 v 1.7 l 1.7,1.2 V 6.7 C 11.1,6 11.6,5.5 12.3,5.5 H 24.8 C 25.4,5.5 26,6 26,6.7 v 3.8 L 27.7,9.3 V 7.6 c 0,-2.1 -1.8,-3.8 -3.9,-3.8 z"
     id="path8"
     style="fill:#273839;fill-opacity:1" /><path
     class="st0"
     d="m 26,23.9 c 0,0.3 -0.3,0.6 -0.6,0.6 H 11.6 C 11.3,24.5 11,24.2 11,23.9 v -2.3 l -1.7,1.2 v 1.4 c 0,1.2 1,2.2 2.2,2.2 h 13.8 c 1.2,0 2.2,-1 2.2,-2.2 V 22.8 L 26,21.6 Z"
     id="path10"
     style="fill:#273839;fill-opacity:1" /><path
     class="st0"
     d="M 22,0.8 C 21.7,0.5 21.3,0.3 20.9,0.3 H 18.5 16.1 C 15.7,0.3 15.3,0.5 15,0.8 14.5,1.5 13.4,2.5 12.1,2.5 V 3 h 6.3 6.3 V 2.5 c -1.1,0 -2.2,-1 -2.7,-1.7 z m -6.3,1.4 0.8,-0.7 h 4 l 0.8,0.7 z"
     id="path12"
     style="fill:#273839;fill-opacity:1" /><path
     class="st0"
     d="m 11.2,27.3 v 3.9 c 0,0.2 0.2,0.4 0.4,0.4 h 13.8 c 0.2,0 0.4,-0.2 0.4,-0.4 v -3.9 z m 1.5,3.5 c -0.3,0 -0.5,-0.2 -0.5,-0.5 0,-0.3 0.2,-0.5 0.5,-0.5 0.3,0 0.5,0.2 0.5,0.5 0,0.2 -0.2,0.5 -0.5,0.5 z m 0,-1.8 c -0.3,0 -0.5,-0.2 -0.5,-0.5 0,-0.3 0.2,-0.5 0.5,-0.5 0.3,0 0.5,0.2 0.5,0.5 0,0.3 -0.2,0.5 -0.5,0.5 z m 1.4,0.9 c -0.3,0 -0.5,-0.2 -0.5,-0.5 0,-0.3 0.2,-0.5 0.5,-0.5 0.3,0 0.5,0.2 0.5,0.5 0,0.3 -0.2,0.5 -0.5,0.5 z m 1.5,0.9 c -0.3,0 -0.5,-0.2 -0.5,-0.5 0,-0.3 0.2,-0.5 0.5,-0.5 0.3,0 0.5,0.2 0.5,0.5 0,0.2 -0.2,0.5 -0.5,0.5 z m 0,-1.8 c -0.3,0 -0.5,-0.2 -0.5,-0.5 0,-0.3 0.2,-0.5 0.5,-0.5 0.3,0 0.5,0.2 0.5,0.5 0,0.3 -0.2,0.5 -0.5,0.5 z m 1.4,0.9 c -0.3,0 -0.5,-0.2 -0.5,-0.5 0,-0.3 0.2,-0.5 0.5,-0.5 0.3,0 0.5,0.2 0.5,0.5 0,0.3 -0.2,0.5 -0.5,0.5 z m 1.5,0.9 c -0.3,0 -0.5,-0.2 -0.5,-0.5 0,-0.3 0.2,-0.5 0.5,-0.5 0.3,0 0.5,0.2 0.5,0.5 0,0.2 -0.2,0.5 -0.5,0.5 z m 0,-1.8 C 18.2,29 18,28.8 18,28.5 18,28.2 18.2,28 18.5,28 c 0.3,0 0.5,0.2 0.5,0.5 0,0.3 -0.2,0.5 -0.5,0.5 z m 1.5,0.9 c -0.3,0 -0.5,-0.2 -0.5,-0.5 0,-0.3 0.2,-0.5 0.5,-0.5 0.3,0 0.5,0.2 0.5,0.5 -0.1,0.3 -0.3,0.5 -0.5,0.5 z m 1.4,0.9 c -0.3,0 -0.5,-0.2 -0.5,-0.5 0,-0.3 0.2,-0.5 0.5,-0.5 0.3,0 0.5,0.2 0.5,0.5 0,0.2 -0.3,0.5 -0.5,0.5 z m 0,-1.8 c -0.3,0 -0.5,-0.2 -0.5,-0.5 0,-0.3 0.2,-0.5 0.5,-0.5 0.3,0 0.5,0.2 0.5,0.5 0,0.3 -0.3,0.5 -0.5,0.5 z m 1.5,0.9 c -0.3,0 -0.5,-0.2 -0.5,-0.5 0,-0.3 0.2,-0.5 0.5,-0.5 0.3,0 0.5,0.2 0.5,0.5 0,0.3 -0.3,0.5 -0.5,0.5 z m 1.4,0.9 c -0.3,0 -0.5,-0.2 -0.5,-0.5 0,-0.3 0.2,-0.5 0.5,-0.5 0.3,0 0.5,0.2 0.5,0.5 -0.1,0.2 -0.3,0.5 -0.5,0.5 z m 0,-1.8 c -0.3,0 -0.5,-0.2 -0.5,-0.5 0,-0.3 0.2,-0.5 0.5,-0.5 0.3,0 0.5,0.2 0.5,0.5 0,0.3 -0.3,0.5 -0.5,0.5 z"
     id="path14"
     style="fill:#273839;fill-opacity:1" /><path
     class="st0"
     d="M 25.8,35 25,36.3 c -0.1,0.2 -0.2,0.3 -0.3,0.4 h 1.1 c 1,0 1.7,-0.7 1.8,-1.7 z"
     id="path16"
     style="fill:#273839;fill-opacity:1" /><path
     class="st0"
     d="m 15.9,36.3 c -0.1,0.2 -0.2,0.3 -0.3,0.4 h 5.9 C 21.4,36.6 21.3,36.4 21.2,36.3 L 20.4,35 h -3.7 z"
     id="path18"
     style="fill:#273839;fill-opacity:1" /><path
     class="st0"
     d="M 12,36.3 11.2,35 H 9.4 c 0.1,0.9 0.8,1.7 1.8,1.7 h 1.1 C 12.2,36.6 12,36.4 12,36.3 Z"
     id="path20"
     style="fill:#273839;fill-opacity:1" /><path
     class="st1"
     d="M 27.7,33.7 26.2,32.2 H 25.9 C 25.6,32.7 25.2,33 24.6,33 h -12 C 12,33 11.5,32.7 11.3,32.2 H 11 l -1.5,1.5 v 0.5 h 2 l 1.1,1.8 c 0.3,0.4 0.7,0.7 1.2,0.7 h 0.3 v 0 h 0.3 c 0.5,0 1,-0.3 1.2,-0.7 l 1.1,-1.8 h 4 l 1.1,1.8 c 0.3,0.4 0.7,0.7 1.2,0.7 h 0.3 v 0 h 0.3 c 0.5,0 1,-0.3 1.2,-0.7 l 1.1,-1.8 h 2 v -0.5 z"
     id="path22" /><g
     id="g26">
	<path
   class="st1"
   d="M 18.5,20.3 15.8,18.2 V 14 h 5.3 v 4.2 z m -2.3,-2.2 2.3,1.8 2.3,-1.8 v -3.7 h -4.6 z"
   id="path24" />
</g><polygon
     class="st0"
     points="17.9,18.9 18.2,17.4 17.5,17.6 17.7,14.8 16.6,14.8 16.6,17.9 "
     id="polygon28"
     style="fill:#273839;fill-opacity:1" /><polygon
     class="st0"
     points="20.4,17.9 20.4,14.8 19.5,14.8 18.9,16.5 19.9,16.2 18.1,19 18.5,19.4 "
     id="polygon30"
     style="fill:#273839;fill-opacity:1" /><polygon
     class="st0"
     points="17.4,21.4 18.5,23.2 19.6,21.4 18.5,20.6 "
     id="polygon32"
     style="fill:#273839;fill-opacity:1" /><polygon
     class="st0"
     points="16.3,21.4 17.9,20.3 15.8,18.7 14.1,21.4 14.9,21.4 16.7,20 15.5,21.4 "
     id="polygon34"
     style="fill:#273839;fill-opacity:1" /><polygon
     class="st0"
     points="20.6,21.5 19.1,20.4 21.2,18.8 22.8,21.5 22,21.5 20.2,20 21.5,21.5 "
     id="polygon36"
     style="fill:#273839;fill-opacity:1" /><polygon
     class="st0"
     points="14.1,14.2 12.1,13 12.2,13.5 14.1,15.3 12.4,14.4 12.5,15.1 15.4,18.1 15.4,12.8 11.4,9.5 11.6,10.4 14.1,12.9 11.8,11.5 11.9,12 "
     id="polygon38"
     style="fill:#273839;fill-opacity:1" /><polygon
     class="st0"
     points="22.9,14.2 24.9,13 24.8,13.5 22.9,15.3 24.6,14.4 24.5,15.1 21.6,18.1 21.6,12.8 25.5,9.5 25.4,10.4 22.9,12.9 25.2,11.5 25.1,12 "
     id="polygon40"
     style="fill:#273839;fill-opacity:1" /><path
     class="st0"
     d="m 19.9,11.1 1.3,-0.2 -0.3,-0.5 -1,-0.1 -0.3,-0.4 -3.1,-0.5 0.9,1.1 -0.4,1.4 -1.1,0.4 v 1.4 h 5.3 v -1.4 l -1,-0.4 z m -1.2,-0.7 -0.2,-0.4 0.7,0.1 z"
     id="path42"
     style="fill:#273839;fill-opacity:1" /></g>
</svg>
