<?xml version="1.0" encoding="UTF-8" standalone="no"?>
<svg
   xmlns:dc="http://purl.org/dc/elements/1.1/"
   xmlns:cc="http://creativecommons.org/ns#"
   xmlns:rdf="http://www.w3.org/1999/02/22-rdf-syntax-ns#"
   xmlns:svg="http://www.w3.org/2000/svg"
   xmlns="http://www.w3.org/2000/svg"
   xmlns:sodipodi="http://sodipodi.sourceforge.net/DTD/sodipodi-0.dtd"
   xmlns:inkscape="http://www.inkscape.org/namespaces/inkscape"
   width="224.72501"
   height="128"
   viewBox="0 0 59.458486 33.866667"
   version="1.1"
   id="svg8"
   inkscape:version="1.0.1 (3bc2e813f5, 2020-09-07)"
   sodipodi:docname="Prowler Burst PDW.svg">
  <defs
     id="defs2" />
  <sodipodi:namedview
     id="base"
     pagecolor="#ffffff"
     bordercolor="#666666"
     borderopacity="1.0"
     inkscape:pageopacity="0.0"
     inkscape:pageshadow="2"
     inkscape:zoom="1.4"
     inkscape:cx="126.54807"
     inkscape:cy="83.365531"
     inkscape:document-units="mm"
     inkscape:current-layer="layer1"
     inkscape:document-rotation="0"
     showgrid="false"
     units="px"
     inkscape:window-width="1366"
     inkscape:window-height="705"
     inkscape:window-x="-8"
     inkscape:window-y="-8"
     inkscape:window-maximized="1" />
  <metadata
     id="metadata5">
    <rdf:RDF>
      <cc:Work
         rdf:about="">
        <dc:format>image/svg+xml</dc:format>
        <dc:type
           rdf:resource="http://purl.org/dc/dcmitype/StillImage" />
        <dc:title></dc:title>
      </cc:Work>
    </rdf:RDF>
  </metadata>
  <g
     inkscape:label="Layer 1"
     inkscape:groupmode="layer"
     id="layer1">
    <path
       style="fill:#273839;stroke-width:0.183483;fill-opacity:1"
       d="m 24.679964,30.451071 c -1.146843,-0.410312 -2.188575,-1.140066 -4.264215,-2.987169 -1.120052,-0.996728 -2.36008,-2.029851 -2.755618,-2.295829 -0.395538,-0.265979 -0.617071,-0.517628 -0.492294,-0.559219 0.176529,-0.05884 0.178885,-0.165277 0.01062,-0.47969 -0.118938,-0.222236 -0.295912,-0.404066 -0.393277,-0.404066 -0.09736,0 -0.177028,-0.240355 -0.177028,-0.534123 0,-0.981752 -0.734134,-2.555283 -1.37776,-2.953067 -0.720049,-0.445013 -2.710085,-0.502804 -3.659146,-0.106261 -0.758897,0.317087 -1.018032,0.765259 -1.018032,1.760673 0,0.595475 0.116165,0.876274 0.536334,1.296443 0.507996,0.507996 0.618096,0.536335 2.083722,0.536335 h 1.547386 l -0.01954,0.555174 c -0.01741,0.494712 -0.09447,0.567203 -0.707599,0.665642 l -0.688061,0.110467 v 1.256701 c 0,1.146464 -0.04128,1.283746 -0.470581,1.565034 -0.669655,0.438776 -1.831236,0.363895 -3.1089778,-0.200418 -1.2843974,-0.567254 -2.0953171,-1.285329 -2.9642887,-2.6249 -1.3828367,-2.131724 -1.218763,-6.071313 0.3217188,-7.724827 0.3597492,-0.386145 0.4604258,-0.391744 7.0441187,-0.391744 4.254847,0 6.720313,-0.0666 6.792552,-0.183483 0.06237,-0.100916 0.02596,-0.183483 -0.08091,-0.183483 -0.109475,0 -0.194354,-0.380518 -0.194408,-0.871544 l -9.6e-5,-0.871544 h 1.330348 c 1.208025,0 1.330348,-0.03375 1.330348,-0.366966 0,-0.328603 -0.140376,-0.372628 -1.342778,-0.421128 -0.947567,-0.03822 -1.320929,-0.119227 -1.268541,-0.275225 0.05512,-0.16414 1.251313,-0.223798 4.645472,-0.231689 3.269626,-0.0076 4.689865,-0.07532 4.987864,-0.237839 0.229144,-0.124966 0.497488,-0.177237 0.59632,-0.116157 0.09883,0.06108 0.17969,0.849289 0.17969,1.751574 v 1.640518 l -4.999912,0.0129 c -2.962639,0.0076 -4.850388,0.07715 -4.632945,0.170587 0.532943,0.229013 12.018135,0.229013 12.018135,0 0,-0.100916 -0.454119,-0.183483 -1.009156,-0.183483 H 31.470272 V 15.862402 15.15554 l 1.215373,-0.02071 1.215373,-0.02071 -0.08754,0.911056 c -0.04815,0.501081 -0.02383,0.911056 0.05404,0.911056 0.07787,0 0.313453,0.278089 0.523515,0.617976 0.356104,0.576188 0.381931,0.886382 0.381931,4.587075 0,3.263761 -0.04526,3.969098 -0.25472,3.969098 -0.140095,0 -0.903843,0.670307 -1.697218,1.489574 -1.594817,1.646866 -2.333342,2.180622 -3.775722,2.728842 -1.123648,0.427075 -3.339903,0.489154 -4.365341,0.122278 z m 4.603438,-0.937989 c 0.910347,-0.369907 3.654733,-2.320665 3.654733,-2.59785 0,-0.210381 -0.357141,0.0097 -1.030129,0.634944 -1.559801,1.449027 -3.377323,2.228124 -5.208293,2.232578 -0.878408,0.0022 -1.120125,0.05301 -0.917415,0.193076 0.420567,0.2906 2.238407,0.05033 3.501104,-0.462748 z m -4.984258,-0.174626 c -0.327957,-0.320079 -2.003023,-1.335852 -2.003023,-1.214648 0,0.181036 1.630511,1.289263 1.896868,1.289263 0.100433,0 0.148202,-0.03358 0.106155,-0.07461 z m 3.509109,-0.760267 c 0.195002,-0.234963 0.182954,-0.337538 -0.06927,-0.589766 -0.28479,-0.284789 -0.325879,-0.284789 -0.610669,0 -0.252228,0.252228 -0.264276,0.354803 -0.06927,0.589766 0.129833,0.156439 0.298406,0.284433 0.374609,0.284433 0.0762,0 0.244775,-0.127994 0.374607,-0.284433 z m -7.273121,-2.295782 c -0.696564,-0.715579 -1.431614,-1.386516 -1.633446,-1.490969 -0.201832,-0.104454 0.330511,0.518594 1.182984,1.384551 0.852472,0.865957 1.587523,1.536893 1.633445,1.49097 0.04592,-0.04592 -0.486419,-0.668972 -1.182983,-1.384552 z m -8.972766,0.928868 c -0.302747,-0.07704 -0.756867,-0.14857 -1.009156,-0.158964 -0.360062,-0.01483 -0.39952,0.01935 -0.183483,0.158964 0.151374,0.09783 0.605493,0.169359 1.009157,0.158964 0.706992,-0.0182 0.713727,-0.02404 0.183482,-0.158964 z M 9.6343815,26.89018 C 9.6336187,26.814493 9.3033347,26.564325 8.9004497,26.334252 8.4975641,26.104179 8.1679306,25.984741 8.1679306,26.068833 c 0,0.08409 0.309628,0.332364 0.6880616,0.551713 0.786641,0.455956 0.7802804,0.453752 0.7783893,0.269634 z M 25.782298,26.763397 c 0,-0.0445 -0.08257,-0.131943 -0.183483,-0.194313 -0.100915,-0.06237 -0.183483,-0.02596 -0.183483,0.08091 0,0.106871 0.08257,0.194312 0.183483,0.194312 0.100916,0 0.183483,-0.03641 0.183483,-0.08091 z m -13.129267,-0.45298 c 0.1525,-0.246749 -0.08504,-0.750489 -0.353897,-0.750489 -0.32283,0 -0.702093,0.493155 -0.558252,0.725895 0.145658,0.235679 0.771266,0.252549 0.912149,0.0246 z m 16.197435,-1.687606 c 0.960996,-0.465211 1.641584,-1.313727 2.00115,-2.494916 0.466507,-1.532488 -0.07769,-3.499138 -1.079722,-3.901998 -0.719553,-0.28929 0.76221,-0.211377 1.606635,0.08448 l 0.733932,0.257143 -0.443872,-0.36561 c -0.41716,-0.343607 -0.697295,-0.363935 -4.654593,-0.337774 -3.811845,0.0252 -4.297804,0.06403 -5.130005,0.409874 -1.074355,0.446482 -1.604486,1.175006 -1.605497,2.206329 -9.71e-4,1.01182 0.227216,1.312525 1.608139,2.119028 0.679623,0.396921 1.50389,1.055427 1.831703,1.463349 0.435881,0.542394 0.805557,0.791471 1.375864,0.927019 1.087273,0.258418 2.81264,0.08988 3.756266,-0.366923 z M 6.722465,23.417764 c -0.1599148,-0.274999 -0.1957192,-0.282925 -0.2003017,-0.04434 -0.00596,0.309 0.1870043,0.587219 0.3170441,0.457179 0.042892,-0.04289 -0.00965,-0.228665 -0.1167424,-0.412836 z m 25.848704,-1.344013 c 0,-0.100915 -0.03641,-0.183483 -0.08091,-0.183483 -0.0445,0 -0.131943,0.08257 -0.194312,0.183483 -0.06237,0.100916 -0.02596,0.183483 0.08091,0.183483 0.106871,0 0.194312,-0.08257 0.194312,-0.183483 z M 11.419846,19.646262 c 1.07928,-0.503868 1.051881,-0.485713 0.924813,-0.61278 -0.0575,-0.0575 -0.42217,0.06316 -0.810383,0.268127 -1.503632,0.793885 -1.5819503,1.029772 -0.11443,0.344653 z m 4.189948,-0.238849 c -0.195891,-0.148165 -0.443593,-0.266764 -0.550449,-0.263554 -0.106856,0.0032 -0.03401,0.12706 0.161879,0.275224 0.195891,0.148164 0.443593,0.266763 0.550449,0.263554 0.106857,-0.0032 0.03401,-0.127061 -0.161879,-0.275224 z M 13.397196,18.95454 c 0.06237,-0.100916 -0.01045,-0.183483 -0.161825,-0.183483 -0.151374,0 -0.326255,0.08257 -0.388624,0.183483 -0.06237,0.100916 0.01045,0.183483 0.161826,0.183483 0.151373,0 0.326254,-0.08257 0.388623,-0.183483 z m 1.19264,0.102571 c 0,-0.0445 -0.08257,-0.131943 -0.183484,-0.194313 -0.100915,-0.06237 -0.183482,-0.02596 -0.183482,0.08091 0,0.106871 0.08257,0.194311 0.183482,0.194311 0.100916,0 0.183484,-0.03641 0.183484,-0.08091 z M 8.9095052,18.486624 c 0.1950021,-0.234963 0.1829536,-0.337538 -0.069279,-0.589767 -0.2847889,-0.284789 -0.3258776,-0.284789 -0.6106665,0 -0.2522288,0.252229 -0.2642773,0.354804 -0.069279,0.589767 0.1298318,0.156438 0.2984061,0.284433 0.3746084,0.284433 0.076202,0 0.2447766,-0.127995 0.3746083,-0.284433 z m 24.9954678,0.05508 c 0.130141,-0.373088 -0.0645,-0.688061 -0.425191,-0.688061 -0.404519,0 -0.611934,0.286113 -0.471923,0.650977 0.125153,0.326143 0.786745,0.353492 0.897114,0.03709 z M 16.598415,18.324078 c 0.293932,-0.354166 -0.0592,-1.020885 -0.540716,-1.020885 -0.481518,0 -0.834647,0.666719 -0.540714,1.020885 0.120275,0.144923 0.363596,0.263496 0.540714,0.263496 0.177119,0 0.420441,-0.118573 0.540716,-0.263496 z m 3.771135,0.08001 c 0.06237,-0.100916 0.03083,-0.183483 -0.07008,-0.183483 -0.100916,0 -0.234513,0.08257 -0.296882,0.183483 -0.06237,0.100916 -0.03083,0.183483 0.07008,0.183483 0.100916,0 0.234513,-0.08257 0.296882,-0.183483 z m 0.64219,-0.366966 c 0,-0.100915 -0.03641,-0.183483 -0.08091,-0.183483 -0.0445,0 -0.131942,0.08257 -0.194311,0.183483 -0.06237,0.100916 -0.02596,0.183483 0.08091,0.183483 0.106871,0 0.194311,-0.08257 0.194311,-0.183483 z m 0.917415,-0.113141 c 0,-0.03869 -0.165134,-0.07034 -0.366966,-0.07034 -0.201831,0 -0.366965,0.07484 -0.366965,0.166306 0,0.09147 0.165134,0.123121 0.366965,0.07034 0.201832,-0.05278 0.366966,-0.127617 0.366966,-0.166306 z m 2.293538,-2.088655 c 0,-0.211345 -0.312881,-0.296517 -1.348055,-0.366966 -1.371449,-0.09333 -1.610731,-0.01337 -1.423102,0.475586 0.152808,0.398214 2.771157,0.295584 2.771157,-0.10862 z m 3.210952,0.01506 c 0,-0.308117 -0.162074,-0.359491 -1.302436,-0.412836 -1.325056,-0.06198 -1.562228,0.02365 -1.380085,0.498308 0.07597,0.197973 0.433761,0.266438 1.392383,0.266438 1.149416,0 1.290138,-0.03838 1.290138,-0.35191 z m 3.210953,-0.01506 c 0,-0.211345 -0.312881,-0.296517 -1.348056,-0.366966 -1.409218,-0.0959 -1.571379,-0.04314 -1.382245,0.449733 0.161067,0.419731 2.730301,0.341847 2.730301,-0.08277 z M 26.497096,14.75014 c 0.14085,-0.08919 0.205366,-0.29434 0.14337,-0.455898 -0.0882,-0.229862 -0.386641,-0.293743 -1.372278,-0.293743 -1.40106,0 -1.574524,0.07621 -1.307808,0.574574 0.146636,0.273991 0.394059,0.342277 1.232054,0.340031 0.576714,-0.0015 1.163812,-0.07578 1.304662,-0.164964 z m 3.230086,-0.290933 c 0,-0.328265 -0.14029,-0.372652 -1.330251,-0.420876 -1.198054,-0.04855 -1.330252,-0.01968 -1.330252,0.290515 0,0.540425 0.178399,0.607713 1.460088,0.550712 1.060299,-0.04716 1.200415,-0.09622 1.200415,-0.420351 z m 9.403504,15.928282 c -0.40024,-0.104593 -0.419579,-0.530398 -0.03087,-0.679562 0.159626,-0.06126 1.919043,-0.111373 3.909815,-0.111373 2.746797,0 3.701164,0.05965 3.95791,0.24739 0.76981,0.562901 0.153199,0.670451 -3.719323,0.648741 -2.088044,-0.01171 -3.940936,-0.05904 -4.117538,-0.105196 z m 0.412837,-2.075316 c 0,-0.761115 0.05627,-0.917415 0.330269,-0.917415 0.514692,0 0.770629,0.377814 0.770629,1.137595 0,0.652385 -0.03541,0.697235 -0.550449,0.697235 -0.538216,0 -0.550449,-0.02039 -0.550449,-0.917415 z m 1.349681,0.63945 c -0.05866,-0.152882 -0.0652,-0.436527 -0.01451,-0.630322 0.14984,-0.572989 -0.357124,-1.110026 -1.047871,-1.110026 -0.751792,0 -1.175996,-0.418096 -0.837736,-0.825673 0.125629,-0.151374 0.494494,-0.275225 0.819703,-0.275225 0.908379,0 1.198601,-0.458876 1.198601,-1.895148 v -1.224063 h 1.743088 1.743089 v 1.167895 c 0,1.562709 0.415495,2.134799 1.550457,2.134799 0.982155,0 1.443904,0.41987 0.907918,0.825573 -0.191576,0.14501 -0.696327,0.266279 -1.121668,0.26949 -0.86862,0.0065 -1.153224,0.321989 -1.153224,1.278154 v 0.562511 h -1.840588 c -1.474888,0 -1.861782,-0.05523 -1.947254,-0.277965 z m 3.971326,-0.192804 c 0,-0.770152 0.321183,-1.180578 0.923869,-1.180578 0.522411,0 0.543994,0.03276 0.543994,0.825674 v 0.825673 h -0.733931 c -0.665554,0 -0.733932,-0.04386 -0.733932,-0.470769 z m -9.541116,-6.702614 c 0,-3.910517 -0.01463,-4.074681 -0.412837,-4.632946 -0.274469,-0.38479 -0.443584,-0.945248 -0.504578,-1.672198 -0.08035,-0.957676 -0.144768,-1.105844 -0.518851,-1.193453 -0.424679,-0.09946 -0.42394,-0.102371 0.130182,-0.512051 0.617267,-0.456364 1.12045,-0.524264 1.449162,-0.195552 0.166309,0.166308 0.314132,0.164206 0.637899,-0.0091 0.310072,-0.165946 1.664492,-0.211024 5.125898,-0.170602 3.65678,0.0427 4.663509,0.0056 4.520528,-0.166377 -0.239958,-0.288705 -0.03663,-0.604358 0.389292,-0.604358 0.406182,0 0.607686,0.42862 0.331394,0.704912 -0.143251,0.143251 -0.01042,0.168549 0.473047,0.09009 0.645753,-0.104792 0.672224,-0.08793 0.672224,0.428132 0,0.651815 1.179044,1.896074 1.796694,1.896074 0.402364,0 0.405103,0.02166 0.405103,3.207855 v 3.207856 l -4.724119,0.04897 -4.724119,0.04897 0.05546,0.642787 c 0.05291,0.613285 -0.01558,0.695395 -1.492082,1.788959 -1.466878,1.086432 -1.601296,1.146173 -2.578917,1.146173 h -1.03138 z m 3.501672,2.4675 c 0.993795,-0.780768 1.085403,-0.913176 1.085403,-1.5688 v -0.716059 l -1.565481,1.318279 c -0.861016,0.725056 -1.523513,1.36025 -1.472216,1.411546 0.0513,0.0513 0.611268,-0.357873 1.244385,-0.909263 1.480029,-1.288979 1.609828,-1.362389 1.609828,-0.910452 0,0.221033 -0.412487,0.694988 -1.055027,1.212245 -0.888274,0.715075 -1.149278,0.835251 -1.651347,0.760331 -0.327975,-0.04894 -0.596319,-0.01159 -0.596319,0.08297 0,0.09457 0.295958,0.171947 0.657685,0.171947 0.504555,0 0.910407,-0.198547 1.743089,-0.85274 z M 37.71292,23.404003 c 0.889733,-0.782096 1.61846,-1.463277 1.619394,-1.513735 0.0022,-0.1161 -3.063058,-2.822736 -3.290016,-2.905147 -0.09781,-0.03551 -0.168435,1.176178 -0.168435,2.889858 0,1.623059 0.04981,2.951017 0.110681,2.951017 0.06087,0 0.838643,-0.639897 1.728376,-1.421993 z m -1.655574,-1.517305 c 0,-2.97597 -0.207459,-2.846618 1.786319,-1.113793 1.307228,1.136133 1.345403,0.947434 -0.527615,2.607992 l -1.258704,1.115925 z m 5.951708,-1.016028 c 0.561355,-0.661694 1.020645,-1.262522 1.020645,-1.335173 0,-0.07265 -0.577971,-0.705634 -1.28438,-1.40663 l -1.284381,-1.274539 v 2.487389 c 0,3.268321 0.03945,3.307283 1.548116,1.528953 z m -1.319647,-1.264542 0.04675,-2.100657 0.963285,0.947621 c 0.529807,0.521191 0.963286,1.019839 0.963286,1.108107 0,0.226658 -1.661723,2.145586 -1.858002,2.145586 -0.08914,0 -0.141038,-0.945296 -0.115324,-2.100657 z m 4.493378,2.318129 c 0.158393,-0.100609 -0.07568,-0.44231 -0.778341,-1.136248 -0.602037,-0.594559 -1.066429,-0.92191 -1.158455,-0.8166 -1.007184,1.152552 -1.486986,1.894792 -1.278835,1.978319 0.380455,0.152669 2.967433,0.132177 3.215631,-0.02547 z m -1.556766,-0.179639 c -0.731638,-0.02965 -1.327831,-0.112217 -1.324873,-0.183484 0.003,-0.07126 0.258036,-0.407473 0.566837,-0.747129 l 0.561458,-0.617555 0.760598,0.709297 c 0.418328,0.390114 0.796268,0.729939 0.839866,0.755167 0.194434,0.112514 -0.16465,0.133925 -1.403886,0.0837 z m 3.216334,-2.331854 c 0.02819,-1.396541 -0.02359,-2.614003 -0.115049,-2.705468 -0.153447,-0.153447 -2.772518,2.607451 -2.785624,2.93647 -0.009,0.226859 2.468554,2.423664 2.665938,2.363807 0.107493,-0.0326 0.204708,-1.107233 0.234735,-2.594809 z m -1.560708,1.330736 -1.13189,-1.146769 1.175836,-1.284382 1.175834,-1.28438 0.0072,2.431149 c 0.004,1.337133 -0.0158,2.43115 -0.04395,2.43115 -0.02814,0 -0.560521,-0.516046 -1.183061,-1.146768 z m 2.868474,0.64219 c 0.115994,-0.277518 0.454873,-0.917415 0.753062,-1.421994 l 0.542166,-0.917414 0.0035,1.319175 0.0035,1.319176 -0.688059,0.07197 -0.688061,0.07197 0.779802,0.03085 0.779799,0.03085 v -1.690664 c 0,-1.448478 -0.03648,-1.652178 -0.254514,-1.421993 -0.423311,0.446855 -1.81002,3.112657 -1.619157,3.112657 0.09779,0 0.272713,-0.227059 0.388707,-0.504578 z m -8.150085,-0.183483 c -0.03381,-0.176603 -0.06779,-1.249978 -0.07551,-2.385279 l -0.01404,-2.064184 h -1.338885 c -1.320899,0 -1.348539,0.0099 -2.057587,0.736019 l -0.718703,0.736017 0.723257,0.594234 c 0.397791,0.326829 1.261779,1.065606 1.919975,1.641727 1.242906,1.087923 1.666297,1.288968 1.561488,0.741466 z m -1.376937,-0.928636 c -0.556693,-0.473178 -1.337799,-1.127468 -1.735793,-1.45398 l -0.723624,-0.593657 0.625017,-0.644853 c 0.584631,-0.603187 0.699752,-0.644854 1.781663,-0.644854 h 1.156645 v 2.110055 c 0,1.16053 -0.02064,2.105005 -0.04587,2.098834 -0.02523,-0.0062 -0.501347,-0.398367 -1.058038,-0.871545 z m 10.106439,-1.069287 c 0.571034,-0.94169 0.905547,-1.70422 0.905547,-2.064185 v -0.570838 h -1.192635 -1.192639 l 0.0058,2.43115 c 0.0067,2.780903 -0.08141,2.76872 1.473893,0.203873 z m -1.296245,-0.422398 v -1.845659 h 1.009157 c 0.818448,0 1.009155,0.05764 1.009155,0.304969 0,0.324124 -1.571547,3.110232 -1.852219,3.283698 -0.09493,0.05867 -0.166093,-0.688126 -0.166093,-1.743008 z m -2.935727,-0.69884 c 0.555035,-0.667588 1.036679,-1.281294 1.070317,-1.363791 0.03364,-0.0825 -1.019094,-0.149994 -2.339409,-0.149994 -1.320312,0 -2.402618,0.06193 -2.405124,0.137612 -0.0046,0.141137 2.408019,2.559118 2.573318,2.578959 0.05046,0.006 0.545861,-0.535197 1.100898,-1.202786 z m -2.158208,-0.15113 c -0.528552,-0.462365 -0.961004,-0.916827 -0.961004,-1.009917 0,-0.09309 0.877662,-0.169255 1.95036,-0.169255 h 1.950362 l -0.818523,0.952973 c -0.450188,0.524135 -0.895398,0.978597 -0.989356,1.009917 -0.09396,0.03132 -0.603287,-0.321353 -1.131839,-0.783718 z m 5.644384,-2.068149 c 0,-0.08527 -0.160478,-0.300277 -0.356619,-0.477782 -0.19614,-0.177504 -0.381916,-0.520467 -0.412837,-0.762139 l -0.05622,-0.439403 -4.770557,-0.09652 c -5.222934,-0.105669 -5.638578,-0.04327 -5.744319,0.86237 -0.03922,0.335942 0.07075,0.571609 0.36192,0.775551 0.359528,0.251823 1.159801,0.292966 5.69845,0.292966 2.904098,0 5.28018,-0.06977 5.28018,-0.155045 z M 37.079608,15.363516 c -0.356206,-0.356206 -0.361962,-0.523043 -0.02762,-0.800523 0.188318,-0.156289 1.614896,-0.206353 5.137524,-0.180295 l 4.876812,0.03608 v 0.509504 c 0,0.280227 0.10321,0.551151 0.229354,0.602051 0.126145,0.0509 -2.055993,0.09906 -4.849193,0.107032 -4.385168,0.01251 -5.117913,-0.02488 -5.366878,-0.273845 z m 2.463915,10.117164 c 0,-0.286369 0.197184,-0.586619 0.550449,-0.838166 l 0.550449,-0.391955 v 0.617989 c 0,0.686252 -0.270938,1.058346 -0.770629,1.058346 -0.227498,0 -0.330269,-0.138849 -0.330269,-0.446214 z m 5.424532,-0.02026 c -0.210773,-0.321679 -0.288517,-0.763075 -0.250457,-1.421994 l 0.05519,-0.955519 2.247667,-0.05152 c 2.112957,-0.04843 2.24767,-0.03038 2.24767,0.301204 0,0.220649 -0.167203,0.394686 -0.446529,0.464793 -0.245589,0.06164 -0.620108,0.355845 -0.832267,0.653794 -0.430854,0.605082 -0.772769,0.575262 -1.077699,-0.09399 -0.339261,-0.744592 -0.579236,-0.512361 -0.579236,0.560543 0,0.990023 -0.01004,1.009157 -0.529347,1.009157 -0.364517,0 -0.624519,-0.145253 -0.834992,-0.466475 z m 6.501863,-0.726165 c -0.498514,-0.507946 -0.973964,-0.825674 -1.235558,-0.825674 -0.418986,0 -0.420782,-0.0086 -0.122662,-0.585076 0.267703,-0.517675 0.293619,-1.26277 0.224992,-6.467776 -0.06505,-4.934177 -0.125236,-5.978122 -0.373265,-6.474501 l -0.295707,-0.591801 1.130454,0.094464 c 3.431217,0.286723 3.422715,0.285206 3.61537,0.645189 0.176928,0.330587 0.114889,0.352208 -1.0106,0.352208 h -1.199094 l 0.02933,0.68806 c 0.02802,0.6567 0.03266,0.661535 0.102295,0.106089 l 0.07293,-0.581973 1.044477,0.102725 c 0.574457,0.0565 1.085752,0.139445 1.136209,0.184324 0.05049,0.04488 0.120874,1.437127 0.15647,3.093882 0.0525,2.442455 0.01775,3.011749 -0.183481,3.009471 -0.327356,-0.0037 -0.88474,-0.357483 -0.569304,-0.361346 0.126144,-0.0015 0.229354,-0.08538 0.229354,-0.186293 0,-0.100916 -0.123855,-0.183483 -0.275228,-0.183483 -0.465532,0 -0.320366,0.725852 0.183481,0.917415 0.63307,0.240692 0.575352,0.550449 -0.102566,0.550449 -0.327461,0 -0.514041,0.07644 -0.447883,0.183483 0.06234,0.100916 0.356233,0.183483 0.653021,0.183483 h 0.539624 l -0.0129,2.064184 c -0.0083,1.324136 -0.06943,1.932619 -0.170589,1.697217 -0.126497,-0.294374 -0.160242,-0.230858 -0.170588,0.321096 -0.012,0.639324 -0.05187,0.688061 -0.563341,0.688061 -0.302752,0 -0.550449,-0.06883 -0.550449,-0.152953 0,-0.08413 -0.317593,-0.496962 -0.705747,-0.917416 -0.487079,-0.527599 -0.856606,-0.764461 -1.192638,-0.764461 -0.480498,0 -0.486892,-0.01687 -0.486892,-1.284381 0,-0.706409 -0.06193,-1.284283 -0.137614,-1.284163 -0.07569,1.21e-4 -0.137614,0.640018 -0.137614,1.421994 v 1.421774 l 0.672883,0.09174 c 0.516663,0.07044 0.85377,0.29789 1.452034,0.979702 0.653132,0.744336 0.863333,0.875605 1.299566,0.81158 0.446989,-0.0656 0.5204,-0.01486 0.5204,0.359662 0,0.239823 -0.12597,0.679643 -0.279936,0.977379 -0.250589,0.484584 -0.371615,0.541337 -1.154435,0.541337 -0.794075,0 -0.949026,-0.07594 -1.684835,-0.825673 z m 0,-6.330164 c 0,-0.100915 -0.1707,-0.183483 -0.379333,-0.183483 -0.295831,0 -0.353695,-0.08078 -0.262863,-0.366966 0.06685,-0.210512 0.03301,-0.366966 -0.07938,-0.366966 -0.213238,0 -0.271858,0.78024 -0.07352,0.978576 0.19034,0.19034 0.795095,0.14382 0.795095,-0.06116 z m 1.607616,-0.126068 c -0.175429,-0.04592 -0.505699,-0.04759 -0.733937,-0.0037 -0.228237,0.04389 -0.08471,0.08146 0.318959,0.0835 0.40366,0.002 0.590401,-0.03387 0.414978,-0.0798 z m -1.0113,-0.920837 c -0.227059,-0.04373 -0.412835,-0.15634 -0.412835,-0.250237 0,-0.0939 -0.07998,-0.170722 -0.177725,-0.170722 -0.09775,0 -0.130201,0.123851 -0.07211,0.275225 0.06103,0.158996 0.310408,0.264672 0.590567,0.250237 0.432245,-0.02228 0.440081,-0.03363 0.07211,-0.104503 z m -0.266047,-0.824622 c 0.121096,-0.121099 0.22018,-0.292131 0.22018,-0.380071 0,-0.08794 -0.12975,-0.03015 -0.288335,0.128437 -0.498438,0.49844 -0.963714,0.361547 -1.0468,-0.307989 -0.07286,-0.587113 -0.07446,-0.585697 -0.10337,0.09174 -0.02725,0.63826 0.0078,0.688061 0.484389,0.688061 0.282565,0 0.612834,-0.09908 0.733936,-0.22018 z m 1.477069,-0.467881 c -0.02212,-0.553465 -0.04244,-0.589357 -0.103932,-0.183484 -0.09248,0.610475 -0.472793,0.657274 -0.745538,0.09174 -0.198724,-0.412057 -0.199126,-0.411941 -0.211518,0.06116 -0.01526,0.582369 0.109958,0.718642 0.660351,0.718642 0.377288,0 0.42486,-0.0817 0.400637,-0.688061 z m 1.403088,9.17415 c 0.373252,-0.918501 0.417724,-1.721426 0.377399,-6.813041 -0.02406,-3.039405 0.01657,-5.526191 0.09038,-5.526191 0.07379,0 0.12269,-0.141329 0.108675,-0.314065 -0.04036,-0.49717 0.573237,-0.51325 0.677515,-0.01775 0.06366,0.302367 0.08082,0.266509 0.06005,-0.125318 -0.02996,-0.565097 -0.590504,-0.887886 -0.840212,-0.483843 -0.06664,0.107812 -0.20389,-0.255617 -0.305013,-0.80762 -0.175089,-0.955789 -0.165471,-1.003643 0.201705,-1.003643 0.706066,0 1.019512,0.41562 1.174435,1.557259 0.101102,0.745036 0.07098,1.40915 -0.09549,2.104993 -0.168807,0.705593 -0.2452,2.48562 -0.249736,5.818915 l -0.0062,4.802351 -0.475019,0.564526 c -0.519735,0.617672 -0.926211,0.755456 -0.718146,0.243432 z m 0.859838,-3.021354 c -0.131664,-0.13166 -0.217121,-0.142493 -0.217121,-0.02753 0,0.24491 0.216982,0.461899 0.339444,0.339444 0.05215,-0.05214 -0.0028,-0.192503 -0.122323,-0.311921 z m 0.07721,-1.194933 c -0.186511,-0.186513 -0.340408,0.09429 -0.187378,0.341898 0.115603,0.187046 0.158821,0.187191 0.22097,7.63e-4 0.04251,-0.127482 0.02739,-0.281669 -0.03356,-0.342639 z m 0.07263,-1.150591 c 0,-0.100916 -0.08744,-0.183483 -0.194313,-0.183483 -0.106872,0 -0.143279,0.08257 -0.08091,0.183483 0.06234,0.100916 0.149806,0.183483 0.194313,0.183483 0.04452,0 0.08091,-0.08257 0.08091,-0.183483 z m -0.14984,-1.324136 c -0.131664,-0.13166 -0.217121,-0.142493 -0.217121,-0.02752 0,0.24491 0.216982,0.461899 0.339444,0.339443 0.05215,-0.05214 -0.0028,-0.192503 -0.122323,-0.31192 z m 0,-1.284381 c -0.131664,-0.13166 -0.217121,-0.142494 -0.217121,-0.02752 0,0.24491 0.216982,0.461899 0.339444,0.339444 0.05215,-0.05214 -0.0028,-0.192505 -0.122323,-0.311922 z m 0.07721,-1.194933 c -0.186511,-0.186513 -0.340408,0.09429 -0.187378,0.341899 0.115603,0.187046 0.158821,0.18719 0.22097,7.63e-4 0.04251,-0.127481 0.02739,-0.281669 -0.03356,-0.342639 z m 0,-1.467864 c -0.186511,-0.186513 -0.340408,0.09429 -0.187378,0.341899 0.115603,0.187046 0.158821,0.18719 0.22097,7.63e-4 0.04251,-0.127482 0.02739,-0.281669 -0.03356,-0.342638 z m 0.32554,-1.012979 c 0.100756,-0.419999 0.06075,-0.504578 -0.238585,-0.504578 -0.197801,0 -0.410081,0.08162 -0.471732,0.181381 -0.06428,0.104009 0.0094,0.13477 0.172656,0.07211 0.215166,-0.08257 0.284749,0.01509 0.284749,0.399648 0,0.600018 0.08535,0.549882 0.252912,-0.148561 z m -0.06942,-2.41152 c 0,-0.481765 -0.501046,-0.784621 -0.801315,-0.484352 -0.13034,0.130342 -0.06345,0.189498 0.214167,0.189498 0.281337,0 0.40366,0.111201 0.40366,0.366966 0,0.201831 0.04126,0.366965 0.09174,0.366965 0.05049,0 0.09175,-0.197584 0.09175,-0.439077 z M 14.956801,24.174213 c 0,-0.227861 0.189735,-0.273723 0.948864,-0.229353 1.359039,0.07943 1.422946,0.514167 0.07558,0.514167 -0.803626,0 -1.024447,-0.06139 -1.024447,-0.284814 z M 14.683127,22.24806 c 0.07649,-0.452738 0.03964,-0.954293 -0.09379,-1.276402 -0.306452,-0.739841 -0.180774,-0.985997 0.323189,-0.633007 0.333425,0.23354 0.375983,0.35723 0.221944,0.645055 -0.270065,0.504621 0.08142,1.090042 0.654456,1.090042 0.613387,0 0.651736,0.727343 0.03942,0.747566 -0.22706,0.0075 -0.605973,0.04939 -0.842028,0.09309 -0.408103,0.07555 -0.423,0.04281 -0.30319,-0.666341 z M 8.2902527,16.446936 c -0.1952401,-0.195241 -0.1412784,-2.596551 0.061158,-2.721665 0.1165239,-0.07201 0.1834827,0.426222 0.1834827,1.365294 0,1.482922 -0.018044,1.582969 -0.2446441,1.356371 z m 0.4281269,-1.437284 v -1.559605 h 1.5596064 1.559605 v 1.559605 1.559606 H 10.277986 8.7183796 Z m 2.0969484,0.720826 c 0.436834,-0.436834 0.35704,-1.126054 -0.170377,-1.47163 -0.424923,-0.278421 -0.492491,-0.278421 -0.9174145,0 -0.5289775,0.346599 -0.5935542,0.939871 -0.1550452,1.424418 0.3726784,0.411806 0.8597417,0.430308 1.2428367,0.04721 z M 9.6455285,15.388347 C 9.4832072,15.192761 9.479081,15.02725 9.629516,14.746156 c 0.390591,-0.729825 1.452864,-0.261398 1.201711,0.529915 -0.140219,0.44179 -0.8559791,0.509566 -1.1857006,0.112276 z M 10.51828,14.963781 c -0.03401,-0.176602 -0.183427,-0.321094 -0.332036,-0.321094 -0.148609,0 -0.2980256,0.144492 -0.3320366,0.321094 -0.043384,0.22529 0.055686,0.321096 0.3320366,0.321096 0.276353,0 0.375423,-0.09581 0.332036,-0.321096 z m 2.420209,0.04587 c 0,-1.541257 0.0054,-1.559605 0.458707,-1.559605 0.453311,0 0.458708,0.01835 0.458708,1.559605 0,1.541257 -0.0054,1.559606 -0.458708,1.559606 -0.453311,0 -0.458707,-0.01835 -0.458707,-1.559606 z m 2.018312,0 c 0,-1.541257 0.0054,-1.559605 0.458708,-1.559605 0.453311,0 0.458708,0.01835 0.458708,1.559605 0,1.541257 -0.0054,1.559606 -0.458708,1.559606 -0.453311,0 -0.458708,-0.01835 -0.458708,-1.559606 z m 2.018314,0 V 13.45005 h 1.467864 1.467863 v 1.559605 1.559606 h -1.467863 -1.467864 z m 2.049346,0.779803 c 0.520131,-0.419085 0.542493,-0.865147 0.0672,-1.340441 -0.544065,-0.544065 -0.724356,-0.556327 -1.199131,-0.08155 -0.481221,0.481222 -0.46538,1.011157 0.04083,1.365718 0.493402,0.345591 0.717674,0.357158 1.091106,0.05628 z m -1.118367,-0.479232 c -0.235007,-0.439117 0.151134,-1.009135 0.621088,-0.916842 0.435145,0.08546 0.739273,0.576976 0.592946,0.958297 -0.157641,0.410808 -0.987149,0.382483 -1.214034,-0.04146 z m 0.86892,-0.346441 c -0.03401,-0.176603 -0.183426,-0.321096 -0.332035,-0.321096 -0.14861,0 -0.298026,0.144493 -0.332037,0.321096 -0.04338,0.225289 0.05569,0.321094 0.332037,0.321094 0.276353,0 0.375422,-0.09581 0.332035,-0.321094 z m 1.463478,0.642304 c 0.0944,-1.734796 0.167327,-1.906113 0.195308,-0.458822 0.01512,0.782096 -0.03443,1.422045 -0.110121,1.422107 -0.07569,6.4e-5 -0.114021,-0.433415 -0.08519,-0.963285 z m -8.146639,-0.550563 c 0.01656,-1.050808 0.07878,-1.330252 0.296187,-1.330252 0.214378,0 0.287142,0.294087 0.329133,1.330252 0.04885,1.205398 0.02105,1.330251 -0.296187,1.330251 -0.314207,0 -0.347947,-0.136364 -0.329133,-1.330251 z m 1.985366,0 c 0.04199,-1.036165 0.114755,-1.330252 0.329133,-1.330252 0.21438,0 0.287143,0.294087 0.329134,1.330252 0.0504,1.243756 0.029,1.330251 -0.329134,1.330251 -0.358136,0 -0.379537,-0.08649 -0.329133,-1.330251 z m 2.018313,0 c 0.03916,-0.966347 0.121526,-1.330252 0.301082,-1.330252 0.181935,0 0.254576,0.351123 0.275224,1.330342 0.02462,1.167502 -0.01223,1.33033 -0.301081,1.330251 -0.291209,-7.9e-5 -0.322922,-0.153372 -0.275225,-1.330341 z M 5.4887408,15.577571 C 5.4343374,15.435804 5.4162896,15.04361 5.44863,14.706027 l 0.0588,-0.613787 h 1.1926397 1.1926391 l 0.055922,0.871544 0.055922,0.871544 H 6.7961014 c -0.8685215,0 -1.2362741,-0.07251 -1.3073619,-0.257757 z M 48.570183,15.230273 c -0.555021,-0.572635 -0.586443,-0.679726 -0.586443,-1.998682 0,-1.534504 0.06117,-1.616372 1.207644,-1.616372 h 0.627187 v 2.110055 c 0,1.911243 -0.03121,2.110054 -0.330977,2.110054 -0.182031,0 -0.594868,-0.272274 -0.917411,-0.605055 z m 0.88142,-0.587584 c 0.182232,-0.219577 0.182232,-0.330872 0,-0.550449 -0.458513,-0.552479 -1.112084,-0.129765 -0.851061,0.550449 0.05809,0.151374 0.221945,0.275225 0.364129,0.275225 0.142184,0 0.361301,-0.123851 0.486932,-0.275225 z M 31.487122,14.229852 c 0.01415,-0.378433 -0.03064,-0.858021 -0.09952,-1.065749 -0.10326,-0.31142 0.06334,-0.509964 0.949519,-1.131584 0.591113,-0.414642 1.477628,-1.086813 1.970034,-1.493713 l 0.895283,-0.7398182 2.583378,-0.055173 c 1.576155,-0.033662 2.635935,0.016366 2.718182,0.1283137 0.07414,0.1009151 0.136066,0.4931095 0.137611,0.8715435 l 0.0028,0.688062 h -3.446084 -3.44605 l -1.089411,1.100898 c -0.599176,0.605493 -1.005976,1.100898 -0.904002,1.100898 0.101973,0 0.550058,-0.371553 0.995744,-0.825674 0.445686,-0.454121 0.860422,-0.825673 0.921635,-0.825673 0.09294,0 0.729712,1.179492 0.729712,1.351639 0,0.03015 -0.334111,0.323307 -0.742469,0.651473 -0.720146,0.578723 -0.756486,0.587482 -1.208561,0.291272 -0.256348,-0.167966 -0.508248,-0.263233 -0.559777,-0.211704 -0.05153,0.05153 0.07948,0.201839 0.291143,0.334022 0.539033,0.336631 0.479274,0.519026 -0.170048,0.519026 -0.523446,0 -0.553423,-0.03898 -0.529165,-0.688062 z m 3.903114,-0.686834 c -0.06355,-0.165615 -0.02757,-0.389099 0.07996,-0.496631 0.279557,-0.279556 0.809235,-0.02405 0.736211,0.35513 -0.08134,0.422356 -0.669283,0.524289 -0.816175,0.141501 z M 7.1526987,13.256736 C 6.9269609,12.891485 7.8727679,12.202978 8.7608129,12.086099 9.1915951,12.0294 12.458116,11.773463 16.019747,11.517346 l 6.475694,-0.465668 2.309007,0.832219 c 1.269954,0.457721 2.438114,0.832221 2.595912,0.832221 0.228772,0 0.214739,0.05458 -0.06926,0.269389 -0.530609,0.401333 -4.34458,0.39555 -4.678745,-0.0071 -0.196095,-0.236279 -0.505679,-0.26862 -1.719684,-0.17965 -0.814296,0.05967 -2.925467,0.143461 -4.69149,0.186188 -6.6071087,0.159851 -7.6308031,0.203451 -8.2792795,0.352627 -0.478538,0.110083 -0.7052016,0.08744 -0.8092048,-0.08084 z m 20.6479123,-0.07626 c 0,-0.04735 0.987441,-0.831739 2.194312,-1.743089 l 2.194311,-1.6569977 h 1.210953 c 0.687957,0 1.166018,0.072704 1.106913,0.16834 -0.188208,0.3045267 -2.889771,2.2688307 -3.844512,2.7953417 -0.686953,0.378834 -1.191263,0.516731 -1.898691,0.519172 -0.529808,0.0019 -0.963286,-0.03542 -0.963286,-0.08277 z m 6.90843,-0.146103 c -0.172429,-0.126085 -0.331796,-0.476332 -0.354147,-0.778329 l -0.04064,-0.549083 6.763506,-0.04815 c 6.126523,-0.04362 6.752936,-0.0206 6.651259,0.24436 -0.06173,0.160882 -0.112248,0.533462 -0.112248,0.827955 0,0.401481 -0.08619,0.535443 -0.3445,0.535443 -0.189474,0 -0.447286,-0.123851 -0.572915,-0.275224 -0.125629,-0.151374 -0.373331,-0.275225 -0.550449,-0.275225 -0.177118,0 -0.42482,0.123851 -0.550449,0.275225 -0.191547,0.2308 -0.946744,0.275224 -4.678816,0.275224 -3.732072,0 -4.487269,-0.04442 -4.678817,-0.275224 -0.288483,-0.347601 -0.532886,-0.347995 -0.915785,-0.0015 -0.245816,0.222461 -0.361229,0.230799 -0.616002,0.04451 z M 4.8916623,11.291984 3.175,9.6886476 3.1768724,8.1290424 3.1787448,6.5694364 6.0861564,5.5226651 8.9935687,4.4758939 20.629465,4.5135082 c 8.760758,0.028322 11.653758,0.091208 11.708179,0.2545123 0.04368,0.1310697 -0.168094,0.2399785 -0.535176,0.2752245 -0.391716,0.037614 -0.607457,0.1560737 -0.607457,0.3335517 0,0.1999841 0.225721,0.2823944 0.825674,0.3014512 l 0.825673,0.026227 -0.733932,-0.1249233 -0.733932,-0.1249233 0.700544,-0.095271 c 0.550872,-0.074917 0.738458,-0.024431 0.877999,0.2363085 0.144124,0.269298 0.107315,0.3315801 -0.195965,0.3315801 -0.501359,0 -0.472222,0.1755161 0.178178,1.0733682 0.386408,0.5334207 0.685386,0.7614615 0.99833,0.7614615 0.245699,0 0.497755,0.082568 0.560125,0.1834828 0.06861,0.1110156 -0.186063,0.1834835 -0.644816,0.1834835 -0.60865,0 -0.746511,0.060229 -0.698889,0.3053409 0.04533,0.2333147 0.274966,0.3090572 0.973497,0.3210953 0.716797,0.012351 0.927682,0.085081 0.97674,0.3368492 0.05544,0.2845108 -0.10664,0.3210953 -1.42253,0.3210953 h -1.485095 l -2.106277,1.5585084 c -1.158452,0.857179 -2.103836,1.497077 -2.100854,1.421994 0.003,-0.07508 0.590265,-0.549352 1.305074,-1.05393 0.714808,-0.504579 1.582262,-1.165117 1.927672,-1.4678644 L 31.850249,9.3216814 30.513473,7.2580098 C 29.778248,6.1229898 29.115011,5.1941073 29.039615,5.1938257 28.96422,5.1935504 28.571735,5.4921694 28.167426,5.8574373 27.564022,6.402577 27.38382,6.4813063 27.161596,6.2968776 26.967763,6.1360099 26.940795,5.978914 27.066644,5.7437629 27.260446,5.3816406 26.861392,4.8882289 26.53691,5.0887699 26.43855,5.1495599 26.306206,5.1153859 26.24282,5.0128239 26.16781,4.8914484 23.517925,4.8263481 18.652441,4.8263481 h -7.475095 l 0.06993,0.5963198 0.06993,0.5963192 h 5.627073 c 6.185655,0 6.452747,0.041595 6.452747,1.0049815 0,0.443043 -0.27934,0.7759649 -1.649569,1.9659868 -0.907261,0.7879434 -1.65048,1.4739086 -1.651596,1.5243656 -0.0011,0.05046 0.456064,0.06323 1.015955,0.02839 1.003971,-0.06247 1.043394,-0.0871 2.86385,-1.7889597 1.369872,-1.2806284 1.970923,-1.7253045 2.33083,-1.7244252 0.45772,0.00111 0.433787,0.044924 -0.42604,0.7798027 C 25.379397,8.23737 24.429873,9.0598119 23.770394,9.6367782 22.857051,10.43585 22.396468,10.708029 21.837414,10.779066 20.299835,10.974441 8.308876,11.817324 8.2273153,11.735763 8.0725301,11.580978 9.1226779,11.456032 13.397196,11.120653 l 4.220109,-0.331109 -5.085456,-0.04876 -5.0854563,-0.04877 -0.648387,-0.8491668 C 6.1497068,8.9937948 5.9452657,8.0011232 6.3027223,7.4379738 6.490886,7.1415337 9.2674714,5.9671915 9.6449688,6.0243882 9.8542802,6.056101 9.9293674,5.9036355 9.9293674,5.4469095 c 0,-0.4668661 -0.078918,-0.6205688 -0.3186287,-0.6205688 -0.2914796,0 -4.715265,1.5599493 -4.8740357,1.7187199 -0.037781,0.037781 0.029112,0.2833313 0.1486403,0.545673 0.2933923,0.6439265 -0.068654,1.0997552 -0.7894718,0.9939622 -0.483237,-0.070924 -0.5150157,-0.034709 -0.5150157,0.5869627 0,0.5603914 0.1485315,0.8040793 0.9632861,1.5804215 1.767088,1.683777 1.755011,1.676734 2.0798984,1.212893 0.436382,-0.623023 1.3604075,-0.41993 1.3604075,0.299004 0,0.165328 -0.1222617,0.107868 -0.3383873,-0.159036 -0.2164937,-0.267359 -0.4478217,-0.375896 -0.64219,-0.30131 -0.3814544,0.146378 -0.3982851,0.837291 -0.023897,0.980958 0.2158468,0.08283 0.2317018,0.165495 0.069272,0.361207 C 6.933397,12.785385 6.7867969,12.89863 6.723467,12.897453 6.660138,12.896253 5.8358229,12.173812 4.8916581,11.291977 Z M 21.369358,8.8264874 C 23.834434,6.6223093 23.933705,6.6611781 15.839135,6.6611781 H 9.2720588 L 8.0030213,7.2286104 C 7.1585212,7.6062167 6.7009075,7.9225285 6.6351103,8.1741386 6.5433311,8.5251021 6.8678876,9.381607 7.2959147,9.9180012 7.4358435,10.093357 8.9401847,10.147356 13.68554,10.147356 h 6.206607 z M 7.6151813,9.6858758 c -0.44814,-0.5399761 0.050978,-0.6516304 2.6773597,-0.5989294 2.4148,0.048453 2.554206,0.071281 2.554206,0.4182184 0,0.3464906 -0.13928,0.3698047 -2.496271,0.4178413 -2.0869077,0.042531 -2.5354687,0.00368 -2.7352947,-0.2371303 z m 5.5067907,-0.08897 c 0,-0.285418 0.122322,-0.3669656 0.550449,-0.3669656 0.428126,0 0.550449,0.081548 0.550449,0.3669656 0,0.2854186 -0.122323,0.3669662 -0.550449,0.3669662 -0.428127,0 -0.550449,-0.081548 -0.550449,-0.3669662 z m 1.467864,0 c 0,-0.3518033 0.122322,-0.3669656 2.960472,-0.3669656 h 2.960472 l -0.466522,0.3669656 c -0.41455,0.3260856 -0.744351,0.3669662 -2.960472,0.3669662 -2.371628,0 -2.49395,-0.017996 -2.49395,-0.3669662 z M 4.6817538,7.6703344 c 0.1822332,-0.219577 0.1822332,-0.3308713 0,-0.550449 -0.4585165,-0.5524788 -1.1120852,-0.1297652 -0.8510624,0.550449 0.058086,0.151374 0.2219459,0.2752245 0.3641299,0.2752245 0.142184,0 0.3613039,-0.1238505 0.4869325,-0.2752245 z M 4.0701441,7.639752 C 3.8590221,7.4286306 3.9365239,7.2116251 4.2230466,7.2116251 c 0.1513733,0 0.2752245,0.1238511 0.2752245,0.2752244 0,0.2865227 -0.2170056,0.3640245 -0.428127,0.1529025 z M 11.011917,5.5577677 c 0,-0.3252112 -0.111829,-0.4721511 -0.389483,-0.5117668 -0.466352,-0.066539 -0.7221317,0.4449646 -0.410358,0.8206292 0.328979,0.3963954 0.799841,0.2145693 0.799841,-0.3088624 z m -0.64219,-0.1045191 c 0,-0.3240177 0.394994,-0.26759 0.508401,0.072629 0.03994,0.1198374 -0.05811,0.2178856 -0.217886,0.2178856 -0.159784,0 -0.290515,-0.1307312 -0.290515,-0.2905146 z m 16.580292,6.6219054 c -0.06355,-0.165615 -0.02757,-0.389099 0.07996,-0.496631 0.279557,-0.279557 0.809236,-0.02405 0.736212,0.355129 -0.08134,0.422357 -0.669284,0.52429 -0.816175,0.141502 z m 0.667109,-0.18471 c 0,-0.151374 -0.123851,-0.275225 -0.275224,-0.275225 -0.151374,0 -0.275225,0.123851 -0.275225,0.275225 0,0.151373 0.123851,0.275225 0.275225,0.275225 0.151373,0 0.275224,-0.123852 0.275224,-0.275225 z m -2.752245,-0.394695 c -0.857783,-0.327233 -1.627156,-0.621872 -1.709718,-0.654753 -0.122431,-0.04876 4.031791,-3.8025708 5.473299,-4.9457502 0.379651,-0.3010788 0.412648,-0.2698785 1.649482,1.5596059 0.694145,1.0267561 1.127079,1.7572829 0.962078,1.6233915 -0.662297,-0.5374234 -1.74124,0.1536014 -1.309212,0.8385056 0.170683,0.2705902 0.05948,0.4259892 -0.72214,1.0091562 -1.044728,0.779473 -1.093029,0.793678 -1.408061,0.41409 -0.343688,-0.414118 -0.703285,-0.33329 -1.057724,0.237749 l -0.318398,0.512974 z m -17.9392848,0.26855 c 0.113406,-0.340218 0.5084006,-0.396646 0.5084006,-0.07263 0,0.159783 -0.1307312,0.290515 -0.2905143,0.290515 -0.1597838,0 -0.2578321,-0.09805 -0.2178863,-0.217886 z M 4.9058072,10.280031 C 4.2037013,9.5716279 3.7643393,8.9735376 3.7643393,8.726184 c 0,-0.2829915 0.081965,-0.3706888 0.2766406,-0.2959845 0.1521528,0.058384 0.488228,-0.032483 0.7468339,-0.2019251 C 5.1746288,7.9748237 5.2475849,7.8016128 5.1992341,7.2514897 L 5.1404618,6.5827873 6.9752916,5.8990911 C 7.9844478,5.5230583 8.9958981,5.2104269 9.2229584,5.2043548 10.100201,5.1808944 9.5677222,5.6782416 8.0970792,6.2559492 7.2515147,6.5881097 6.4073738,7.0281832 6.2212114,7.2338906 5.6767257,7.8355405 5.7839278,8.8244888 6.5020247,9.8244211 l 0.6192907,0.8623479 -0.4399778,0.366379 c -0.2419882,0.201508 -0.4836469,0.369127 -0.5370198,0.372484 -0.053377,0.0033 -0.6107033,-0.512163 -1.2385106,-1.145601 z m 36.1055798,0.899416 c 0,-0.138759 -0.05066,-0.505595 -0.11258,-0.815189 l -0.11258,-0.5629006 2.451988,-0.056352 c 1.490082,-0.034244 2.504872,0.015624 2.586791,0.1271286 0.07414,0.100915 0.136068,0.49311 0.137613,0.871544 l 0.0028,0.688061 h -2.47702 c -1.979393,0 -2.477021,-0.05069 -2.477021,-0.252289 z m 5.318502,-0.06881 c -0.0015,-0.176602 -0.0523,-0.506871 -0.113143,-0.733931 -0.108767,-0.4058646 -0.08259,-0.4128376 1.549747,-0.4128376 1.795553,0 1.634957,-0.089625 1.972695,1.1008976 0.09891,0.34865 0.01651,0.366967 -1.651341,0.366967 -1.548584,0 -1.755749,-0.03784 -1.757958,-0.321096 z M 7.9019162,11.07967 c -0.085519,-0.138371 0.6114925,-0.198385 2.3040788,-0.198385 1.334679,0 2.392285,0.0311 2.350238,0.06911 -0.04205,0.03801 -1.078884,0.127284 -2.30408,0.198385 C 8.72208,11.23757 7.9861309,11.21593 7.9019162,11.07967 Z M 20.74569,10.183146 C 23.691018,7.6875999 23.952218,7.3571863 23.560697,6.6222358 23.10248,5.7620902 23.056288,5.755749 17.204468,5.7495965 c -4.808738,-0.00506 -5.55036,-0.042607 -5.55036,-0.2810602 0,-0.2400429 0.935425,-0.2752245 7.317929,-0.2752245 h 7.317931 l 0.08769,0.458708 c 0.08575,0.4485859 0.06295,0.4587697 -1.033636,0.4615172 -0.616729,0.00153 -1.236565,0.075779 -1.377416,0.1649648 -0.464316,0.2940032 -0.07793,0.724592 0.703943,0.7844732 l 0.743066,0.056907 -1.746252,1.6054769 c -1.534501,1.4107971 -1.828085,1.6054761 -2.421115,1.6054761 -0.371174,0 -0.596424,-0.06646 -0.500554,-0.14769 z M 30.110868,9.8074378 C 29.905695,9.4754631 30.222933,9.025674 30.62208,9.0826246 c 0.53389,0.076177 0.52894,0.7696314 -0.006,0.8458676 -0.217537,0.030998 -0.444865,-0.023474 -0.505172,-0.1210544 z m 0.808954,-0.1997053 c 0,-0.247769 -0.334479,-0.4195306 -0.553442,-0.284203 -0.102561,0.063384 -0.138973,0.1921103 -0.08091,0.2860532 0.137735,0.2228613 0.634354,0.2214133 0.634354,-0.00187 z m 2.706374,-1.2412166 c 0.227061,-0.043731 0.598614,-0.043731 0.825674,0 0.22706,0.043731 0.04128,0.079516 -0.412837,0.079516 -0.45412,0 -0.639897,-0.035783 -0.412837,-0.079516 z M 33.238946,6.953637 C 32.735454,6.2935261 32.659419,6.1091556 32.892265,6.1129982 c 0.176152,0.00291 1.015747,1.2908093 0.910258,1.3962986 -0.04361,0.043606 -0.297215,-0.2064418 -0.563577,-0.5556598 z m -9.19781,-0.2893438 c -0.06431,-0.1040551 -7.63e-4,-0.2337697 0.141227,-0.2882542 0.443317,-0.1701167 2.979144,-0.00284 2.931636,0.193396 -0.06032,0.2491795 -2.922874,0.3375454 -3.072863,0.094858 z M 9.5465094,4.0963889 C 9.4750554,3.9807741 12.132532,3.8991385 17.012613,3.8670352 c 8.914523,-0.058641 11.888896,5.215e-4 11.888896,0.2364875 0,0.2388654 -19.2073392,0.2317856 -19.3549996,-0.00714 z M 9.7631051,3.6081151 C 9.4502704,3.2952805 10.003907,3.175 11.756678,3.175 c 1.580561,0 1.915743,0.048155 1.915743,0.2752245 0,0.2268876 -0.332988,0.2752245 -1.895991,0.2752245 -1.042795,0 -1.9487912,-0.052801 -2.0133249,-0.1173339 z m 5.2340439,-0.098929 c 0.04381,-0.133345 0.350484,-0.2689777 0.681498,-0.3014068 0.434581,-0.042573 0.579706,0.00842 0.522188,0.1834827 -0.04381,0.133345 -0.350484,0.2689777 -0.681498,0.3014068 -0.43458,0.042573 -0.579706,-0.00842 -0.522188,-0.1834827 z m 2.528415,0.032781 c 0,-0.1107368 0.768122,-0.1834827 1.9374,-0.1834827 1.244877,0 1.896866,0.065582 1.824001,0.1834827 -0.150443,0.2434223 -3.761401,0.2434223 -3.761401,0 z m 5.045782,0 c 0.06237,-0.100915 0.397512,-0.1834827 0.744761,-0.1834827 0.347249,0 0.631361,0.082568 0.631361,0.1834827 0,0.1009158 -0.335142,0.1834835 -0.744761,0.1834835 -0.449783,0 -0.699846,-0.072672 -0.631361,-0.1834835 z m 2.522891,0.076451 c 0.139669,-0.1396694 3.621732,-0.1396694 3.761401,0 0.05887,0.05887 -0.787448,0.1070323 -1.8807,0.1070323 -1.093252,0 -1.939568,-0.048162 -1.880701,-0.1070323 z"
       id="path861" />
  </g>
</svg>
