<?xml version="1.0" encoding="UTF-8" standalone="no"?>
<svg
   xmlns:dc="http://purl.org/dc/elements/1.1/"
   xmlns:cc="http://creativecommons.org/ns#"
   xmlns:rdf="http://www.w3.org/1999/02/22-rdf-syntax-ns#"
   xmlns:svg="http://www.w3.org/2000/svg"
   xmlns="http://www.w3.org/2000/svg"
   xmlns:sodipodi="http://sodipodi.sourceforge.net/DTD/sodipodi-0.dtd"
   xmlns:inkscape="http://www.inkscape.org/namespaces/inkscape"
   width="361.254"
   height="128"
   viewBox="0 0 95.581779 33.866667"
   version="1.1"
   id="svg8"
   inkscape:version="1.0.1 (3bc2e813f5, 2020-09-07)"
   sodipodi:docname="R-301 Carbine.svg">
  <defs
     id="defs2" />
  <sodipodi:namedview
     id="base"
     pagecolor="#ffffff"
     bordercolor="#666666"
     borderopacity="1.0"
     inkscape:pageopacity="0.0"
     inkscape:pageshadow="2"
     inkscape:zoom="0.98994949"
     inkscape:cx="166.35432"
     inkscape:cy="101.10765"
     inkscape:document-units="mm"
     inkscape:current-layer="layer1"
     inkscape:document-rotation="0"
     showgrid="false"
     units="px"
     inkscape:window-width="1366"
     inkscape:window-height="705"
     inkscape:window-x="-8"
     inkscape:window-y="-8"
     inkscape:window-maximized="1" />
  <metadata
     id="metadata5">
    <rdf:RDF>
      <cc:Work
         rdf:about="">
        <dc:format>image/svg+xml</dc:format>
        <dc:type
           rdf:resource="http://purl.org/dc/dcmitype/StillImage" />
        <dc:title></dc:title>
      </cc:Work>
    </rdf:RDF>
  </metadata>
  <g
     inkscape:label="Layer 1"
     inkscape:groupmode="layer"
     id="layer1">
    <path
       style="fill:#273839;stroke-width:0.196548;fill-opacity:1"
       d="m 58.404899,30.53102 c 0,-0.08836 0.486456,-0.313995 1.081012,-0.501413 0.594557,-0.187418 1.081013,-0.4305 1.081013,-0.540183 0,-0.758171 -1.184222,-1.492906 -2.054261,-1.274539 -0.269231,0.06757 -0.593382,0.320819 -0.720332,0.562771 -0.223903,0.426725 -0.21919,0.429602 0.157212,0.09595 0.451632,-0.400332 1.017724,-0.437511 1.728757,-0.113543 0.592381,0.269907 0.556433,0.562834 -0.108628,0.885164 -1.158392,0.561432 -1.458676,0.526048 -1.860003,-0.21917 l -0.376883,-0.699828 0.505105,-0.505104 c 0.648408,-0.648407 1.63934,-0.884266 3.671579,-0.873894 l 1.630464,0.0083 0.282898,-0.677071 c 0.398644,-0.95409 0.565887,-0.990397 1.3581,-0.294824 0.534311,0.469132 0.699684,0.766422 0.699684,1.25782 0,0.35392 -0.126222,0.748244 -0.280489,0.876275 -0.189315,0.157118 -0.244932,0.451898 -0.171101,0.906867 0.194219,1.196831 5.9e-5,1.267053 -3.503429,1.267053 -1.716384,7e-6 -3.120698,-0.07229 -3.120698,-0.160647 z m 6.212556,-0.708452 c 0.05898,-0.153704 0.0039,-0.472691 -0.122567,-0.708861 -0.268923,-0.502488 -0.647299,-0.465934 -2.458937,0.237546 l -1.174206,0.455956 1.179287,0.11437 c 2.12265,0.20586 2.464474,0.192723 2.576423,-0.09901 z m -0.56181,-2.324793 c -0.04504,-0.135127 -0.199824,-0.245685 -0.343958,-0.245685 -0.144135,0 -0.298916,0.110558 -0.343959,0.245685 -0.04872,0.146151 0.09063,0.245685 0.343959,0.245685 0.253328,0 0.392675,-0.09953 0.343958,-0.245685 z m -7.001599,-0.986621 c -0.890612,-1.613395 -0.924624,-1.716517 -0.565486,-1.714595 0.361885,0.0019 1.731775,2.609491 1.536715,2.925103 -0.110648,0.179031 -0.410458,-0.194643 -0.971229,-1.210508 z m 0.661048,-0.344029 c -0.621185,-1.299668 -1.131433,-1.877321 -1.47222,-1.666703 -0.25057,0.154863 -0.982737,-0.430085 -0.982737,-0.785135 0,-0.309089 4.404617,-4.660131 4.483948,-4.429407 0.0339,0.09858 -0.386228,0.749114 -0.933602,1.445635 -0.547375,0.696521 -0.995227,1.329666 -0.995227,1.406988 0,0.07732 0.48736,0.96868 1.083022,1.980794 0.595661,1.012115 1.164922,2.055627 1.265023,2.318914 0.170085,0.447355 0.125638,0.492897 -0.678687,0.695429 -0.473379,0.119199 -0.937931,0.216724 -1.032337,0.216724 -0.09441,0 -0.426139,-0.532458 -0.737183,-1.183239 z m 2.735604,0.151364 c -0.177578,-0.351329 -0.765025,-1.365731 -1.305439,-2.254227 -0.716092,-1.177331 -0.950036,-1.737029 -0.86261,-2.063751 0.132186,-0.493987 1.797112,-2.472435 1.948573,-2.315507 0.05217,0.05405 0.799621,1.513418 1.661005,3.243037 1.881734,3.778425 1.876214,4.02045 -0.09183,4.026219 -0.962431,0.0028 -1.047076,-0.03706 -1.349696,-0.635771 z m 12.547865,-2.84283 c -0.135123,-0.04896 -0.245684,-0.363386 -0.245684,-0.698739 0,-0.335354 -0.169436,-0.792327 -0.376515,-1.015497 -0.498886,-0.537636 -3.161342,-5.044346 -3.161342,-5.351171 0,-0.131949 0.08845,-0.294569 0.196548,-0.361379 0.108101,-0.06682 0.19936,-0.801714 0.202797,-1.633118 0.0084,-2.026659 0.112571,-2.136558 2.111623,-2.22734 1.693739,-0.07692 2.016956,0.04629 1.026889,0.391421 -0.509073,0.177465 -0.589641,0.303009 -0.589641,0.918812 0,0.530447 0.151128,0.864388 0.589641,1.302903 0.324302,0.324303 0.589641,0.611744 0.589641,0.638757 0,0.02701 -0.243224,0.01461 -0.540504,-0.02757 -0.297274,-0.04217 -0.710175,0.04918 -0.917545,0.203003 -0.369209,0.273875 -0.367578,0.294986 0.07864,1.01698 0.430434,0.696455 0.438209,0.766873 0.14032,1.271153 -0.309693,0.524268 -0.295602,0.563581 0.78464,2.189365 0.604997,0.91053 1.124699,1.685419 1.154886,1.721975 0.119884,0.145148 1.880313,-1.019783 2.248569,-1.487943 0.361746,-0.459893 0.392314,-0.467633 0.392314,-0.09938 0,0.250826 -0.529993,0.860057 -1.424973,1.638021 -1.923604,1.672098 -1.979092,1.711614 -2.260304,1.609737 z M 50.569382,20.225511 c -0.861193,-1.648544 -1.878962,-3.505919 -2.261711,-4.127502 -0.682196,-1.107879 -0.713504,-1.130148 -1.588866,-1.130148 -0.491126,0 -0.892957,-0.08845 -0.892957,-0.196549 0,-0.108101 -0.221116,-0.196547 -0.49137,-0.196547 -0.270253,0 -0.491369,0.08845 -0.491369,0.196547 0,0.110874 -0.556884,0.196549 -1.27756,0.196549 -0.720675,0 -1.27756,-0.08567 -1.27756,-0.196549 0,-0.255637 -0.726472,-0.255637 -0.884465,0 -0.173578,0.280857 -2.330328,0.244446 -2.61899,-0.04422 -0.189984,-0.189986 -0.32207,-0.189986 -0.626285,0 -0.212038,0.13242 -0.640309,0.240763 -0.951714,0.240763 -0.444307,0 -0.679995,0.171968 -1.094845,0.798848 -0.290759,0.439366 -0.617332,0.769288 -0.725719,0.733159 -0.108386,-0.03612 -0.407967,-0.584602 -0.665738,-1.218829 -0.257768,-0.634227 -0.707357,-1.402276 -0.999087,-1.706775 l -0.530416,-0.553636 8.254187,-0.01154 8.25419,-0.01154 1.781213,3.294597 c 0.979668,1.812027 1.96951,3.660938 2.199649,4.108689 0.715917,1.392868 1.14233,1.303975 3.294977,-0.686896 1.708471,-1.580074 2.412692,-2.065079 2.412692,-1.661646 0,0.309629 -4.427386,4.580939 -4.748329,4.580939 -0.17592,0 -0.370764,0.13267 -0.432988,0.294821 -0.07961,0.207462 -0.403224,0.294822 -1.092134,0.294822 h -0.979 z m 22.615354,-0.282022 c -0.894641,-1.354647 -0.973944,-1.557637 -0.71873,-1.83965 0.383052,-0.423267 0.362015,-0.7077 -0.108675,-1.469292 -0.355346,-0.574964 -0.363107,-0.652456 -0.07639,-0.762482 0.217114,-0.08332 0.286555,-0.03751 0.217183,0.143265 -0.05612,0.146156 -0.02847,0.3847 0.06144,0.530097 0.134314,0.217329 0.218116,0.218937 0.471022,0.009 0.1692,-0.140423 0.259167,-0.333741 0.199926,-0.429594 -0.05923,-0.09585 0.06317,-0.174277 0.271953,-0.174277 0.416086,0 1.655625,1.253784 2.498012,2.526712 0.468361,0.707734 0.507691,0.879099 0.310592,1.352992 -0.179671,0.431983 -1.082218,1.143805 -2.004103,1.580602 -0.06413,0.03038 -0.569115,-0.629953 -1.122197,-1.467415 z m 1.53362,0.724254 c 0,-0.406914 -0.474173,-0.542392 -0.687915,-0.196548 -0.164521,0.266196 0.0575,0.589643 0.404698,0.589643 0.155765,0 0.283217,-0.176893 0.283217,-0.393095 z m -20.20053,0.261174 c -0.339099,-0.136332 -1.071602,-1.601759 -0.921804,-1.84414 0.228098,-0.369068 -0.31004,-1.561797 -0.704653,-1.561797 -0.442883,0 -1.056689,-1.069601 -0.879214,-1.532095 0.159435,-0.415485 -0.49044,-1.612667 -0.875416,-1.612667 -0.16478,0 -0.507294,-0.391507 -0.761144,-0.870016 -0.429446,-0.809518 -0.440745,-0.908605 -0.162489,-1.424971 0.164479,-0.305225 0.347437,-0.709737 0.406575,-0.898913 0.08475,-0.271122 0.329409,-0.343959 1.155348,-0.343959 h 1.047827 l 0.772641,1.621518 c 0.929319,1.950337 0.846455,1.817303 1.022388,1.641368 0.07917,-0.07917 -0.252506,-0.89221 -0.737054,-1.806761 l -0.880993,-1.662822 -1.362325,0.05422 c -1.309537,0.05211 -1.368033,0.07564 -1.509608,0.607284 -0.308361,1.157956 -0.04995,1.117583 -7.153459,1.117583 H 36.436768 L 36.114812,11.921371 35.792853,11.430002 H 25.187576 14.582298 l -2.427836,1.277561 c -2.1596938,1.136458 -2.5508493,1.277558 -3.5416251,1.277558 -1.517545,0 -1.4712293,-0.318829 0.3062636,-2.108265 l 1.4200525,-1.429593 h 2.668139 c 1.580428,0 2.751245,-0.0831 2.871992,-0.203851 0.14077,-0.14077 0.369768,-0.14077 0.740021,0 0.351745,0.133733 5.275698,0.203851 14.315114,0.203851 H 44.713363 L 46.00666,9.2084392 c 1.26864,-1.2152084 1.311093,-1.2373117 2.226897,-1.1594945 0.858032,0.072911 0.933819,0.1214769 0.936284,0.6000447 0.0016,0.2863926 0.05602,0.7197186 0.121199,0.9629462 0.1173,0.4377084 0.154477,0.4422324 3.633447,0.4422324 2.342845,0 3.514936,-0.069405 3.514936,-0.2081466 0,-0.114481 0.08845,-0.153485 0.196547,-0.086674 0.120128,0.074241 0.196547,-0.2293207 0.196547,-0.7807594 0,-0.6782869 0.08537,-0.9347794 0.343959,-1.0333542 0.189177,-0.072117 0.56417,-0.3346804 0.833319,-0.5834745 0.443699,-0.4101441 0.672948,-0.4519455 2.456846,-0.4479831 1.649771,0.00364 2.046834,0.066433 2.458856,0.3887246 0.351566,0.2750006 0.803164,0.3855988 1.587257,0.3887255 0.918017,0.00364 1.170811,-0.075382 1.557505,-0.4869988 l 0.461619,-0.491369 h 5.05344 5.053441 l 1.180008,1.2614303 1.180008,1.2614309 3.770357,0.023739 c 4.071488,0.025633 4.638841,-0.071255 5.982735,-1.0217237 0.521907,-0.3691216 1.012279,-0.5421383 1.536549,-0.5421383 h 0.77001 l -0.0369,1.4249709 c -0.04485,1.7311644 0.192131,9.8597254 0.309465,10.6135734 0.07753,0.498116 0.0329,0.540506 -0.569212,0.540506 h -0.653353 l -0.414857,-2.407708 c -0.228171,-1.32424 -0.522528,-3.35634 -0.65412,-4.515777 -0.222628,-1.961457 -0.214225,-2.135741 0.120838,-2.505982 0.198061,-0.218855 0.567512,-0.397916 0.821012,-0.397916 0.2535,0 0.460904,-0.08845 0.460904,-0.196548 0,-0.3547705 -0.84954,-0.205548 -1.314024,0.230809 l -0.454905,0.427356 v -0.427356 c 0,-0.235046 -0.08844,-0.427357 -0.196541,-0.427357 -0.30066,0 -0.24041,0.972953 0.292188,4.719119 0.600947,4.226974 0.603325,4.322075 0.107824,4.322075 -0.212407,0 -0.467538,-0.154782 -0.566987,-0.343959 -0.358864,-0.68272 -1.000952,-3.373534 -1.228633,-5.148913 -0.127886,-0.997218 -0.330543,-1.844104 -0.450337,-1.881968 -0.119794,-0.03787 -2.768527,-0.129022 -5.886085,-0.202573 l -5.66828,-0.133731 0.745338,-0.763299 c 0.680436,-0.6968273 0.836009,-0.7632981 1.786469,-0.7632981 0.794406,0 1.041112,-0.069866 1.041112,-0.2948212 0,-0.2249793 -0.246776,-0.2948212 -1.041692,-0.2948212 -0.572937,0 -1.142115,0.1004111 -1.264839,0.2231369 -0.166492,0.1664851 -0.420683,0.066677 -1.001194,-0.3930947 -0.708309,-0.5609897 -0.904414,-0.6162336 -2.187505,-0.6162336 -1.317245,0 -1.528713,0.064286 -3.232426,0.9827384 -1.002638,0.5405065 -1.878767,0.9827385 -1.946954,0.9827385 -0.06819,0 -0.546695,-0.396511 -1.063344,-0.8811346 l -0.939362,-0.8811346 -2.085215,-0.00332 -2.085216,-0.00332 -0.936394,0.8242472 c -0.81889,0.720818 -0.890189,0.842401 -0.568178,0.968924 0.202518,0.07957 1.960252,0.154436 3.906074,0.166361 3.382708,0.02073 3.512001,0.03569 2.948215,0.341051 -0.335161,0.181533 -0.483086,0.355035 -0.342749,0.402008 0.13579,0.04545 1.262874,-0.455589 2.504627,-1.113427 2.243411,-1.1884813 2.268028,-1.1960266 3.880612,-1.1895296 1.313063,0.00525 1.710456,0.079532 2.081698,0.3889018 l 0.45883,0.3823634 -0.728198,0.8886584 -0.728184,0.888657 h -2.214015 c -2.196526,0 -2.216877,0.0043 -2.57592,0.540507 -0.249908,0.373238 -0.384849,1.008724 -0.436047,2.053494 l -0.07415,1.512987 -1.318166,0.796448 c -0.724991,0.438046 -1.489743,0.797323 -1.699446,0.798393 -0.209704,10e-4 -1.299665,-0.193107 -2.422133,-0.431504 l -2.040855,-0.433449 -0.76821,0.442127 c -1.057064,0.608369 -1.499579,0.434078 -1.576197,-0.620805 -0.05774,-0.79497 -0.08256,-0.82326 -0.670637,-0.764516 -0.544464,0.05439 -0.680324,-0.04753 -1.253048,-0.940049 -0.614599,-0.957769 -0.627607,-1.01737 -0.300836,-1.378447 0.333365,-0.368363 0.375101,-0.35079 1.744417,0.734537 0.771586,0.611561 1.518458,1.270745 1.659713,1.464854 0.162857,0.223791 0.509406,0.352925 0.947119,0.352925 0.379662,0 1.576411,0.22462 2.659448,0.499155 1.083036,0.274536 2.129336,0.448318 2.32511,0.386181 0.195775,-0.06213 0.718713,-0.375758 1.162088,-0.696936 0.802697,-0.581471 0.806134,-0.589467 0.806134,-1.874699 0,-1.110897 -0.04673,-1.28174 -0.335376,-1.226152 -0.211903,0.0408 -0.394682,0.350028 -0.496461,0.839888 -0.149443,0.719271 -0.628852,1.48292 -0.930959,1.48292 -0.07122,0 -0.0911,-0.530679 -0.04419,-1.179286 l 0.0853,-1.179286 -2.431333,-0.0055 c -2.359582,-0.0053 -2.452954,-0.02184 -3.164023,-0.560286 l -0.732695,-0.554818 1.911981,-0.126614 c 1.051586,-0.06964 2.398434,-0.145174 2.99299,-0.167858 0.594557,-0.02269 -0.511024,-0.08948 -2.456846,-0.148428 -3.806107,-0.11531 -5.642863,0.0538 -6.328328,0.582652 -0.394379,0.304272 -0.406515,0.369462 -0.139683,0.750415 0.259254,0.370138 0.258053,0.46933 -0.01065,0.879423 -0.286584,0.437381 -0.26292,0.519526 0.440215,1.528123 0.603231,0.865291 0.862226,1.077486 1.376149,1.127485 0.58925,0.05733 0.633068,0.112476 0.633068,0.796771 0,0.578487 -0.142859,0.873646 -0.670264,1.384828 l -0.670264,0.649646 -0.91932,-1.593828 c -0.505621,-0.876606 -1.042445,-1.593829 -1.192941,-1.593829 -0.150492,0 -0.458484,-0.362357 -0.684426,-0.805237 -0.22594,-0.44288 -0.455023,-0.761013 -0.509074,-0.706963 -0.179159,0.179158 0.740222,1.752056 1.075323,1.839687 0.181002,0.04733 0.680964,0.743114 1.111024,1.54618 l 0.781928,1.460117 -0.971668,0.986502 c -0.534418,0.542577 -1.019217,0.979519 -1.077331,0.970985 -0.05811,-0.0085 -0.218586,-0.06091 -0.356603,-0.116405 z m -5.19343,-9.341676 c 0.373729,-0.37373 0.286559,-1.29556 -0.144317,-1.526158 -0.79182,-0.4237691 -1.585302,0.0028 -1.585302,0.85228 0,0.580162 0.356018,0.909735 0.982738,0.909735 0.281063,0 0.61716,-0.106136 0.746881,-0.235857 z m 24.296876,-0.669637 c 0.170991,-0.06562 0.310896,-0.20216 0.310896,-0.303431 0,-0.286092 -2.803186,-0.114937 -2.899739,0.177049 -0.05895,0.17828 0.242387,0.245684 1.098355,0.245684 0.648771,0 1.319491,-0.05368 1.490488,-0.119302 z M 58.797995,10.020508 c 0,-0.4059884 0.636016,-0.949078 1.111475,-0.949078 0.253497,0 0.460906,0.067167 0.460906,0.1492686 0,0.1517848 -0.644018,0.6262392 -1.179286,0.8687924 -0.222417,0.100787 -0.195683,0.136989 0.108855,0.147411 0.222022,0.0076 0.703716,-0.2957488 1.070431,-0.6741025 L 61.03713,8.8748823 h -0.78619 c -0.640471,0 -0.909772,0.1275046 -1.452945,0.6879172 -0.499943,0.5158085 -0.58335,0.6879165 -0.333378,0.6879165 0.183357,0 0.333378,-0.103593 0.333378,-0.230208 z M 68.952068,9.3579663 c 0.468928,-0.2748099 0.852597,-0.5843728 0.852597,-0.6879172 0,-0.1035438 -0.508567,-0.1812794 -1.130149,-0.1727458 -1.156821,0.015881 -1.174436,0.049075 -0.147606,0.2781417 l 0.589449,0.1314936 -0.491174,0.2651263 c -0.446561,0.2410424 -0.540084,0.2185715 -1.029631,-0.2473845 -0.73217,-0.6968883 -0.950446,-0.3901748 -0.245771,0.345347 0.309623,0.3231768 0.604968,0.5875926 0.656319,0.5875926 0.05136,0 0.477039,-0.2248438 0.945966,-0.4996537 z m 22.620248,7.3967097 c -0.203582,-4.182829 -0.185794,-9.0590797 0.03303,-9.0590797 0.863764,0 0.981533,0.7177357 0.580512,3.5378587 -0.115295,0.810759 -0.267343,3.066144 -0.33789,5.011965 l -0.128266,3.537858 z M 25.866784,15.38424 c -0.04885,-0.04885 -0.0888,-0.472068 -0.0888,-0.940507 v -0.851706 h -6.661592 c -5.740104,0 -6.677243,-0.04078 -6.774727,-0.294821 -0.09968,-0.259767 1.119126,-0.294822 10.250447,-0.294822 10.150716,0 10.368621,0.0081 10.609072,0.393094 0.241066,0.38601 0.19629,0.393096 -2.483776,0.393096 -2.940742,0 -3.011536,0.02328 -3.472978,1.141929 -0.143851,0.348733 -0.364501,0.502072 -0.746527,0.518797 -0.298275,0.01306 -0.582278,-0.01622 -0.631119,-0.06506 z M 86.073326,13.951753 C 85.670329,13.555046 84.700801,12.91038 83.918801,12.519162 l -1.421815,-0.711304 1.942851,0.05675 1.942864,0.05675 0.266507,1.175345 c 0.146588,0.64644 0.241841,1.265565 0.211668,1.375834 -0.03013,0.110269 -0.384559,-0.124089 -0.78755,-0.520797 z M 58.422095,13.004872 c -1.394798,-1.281798 -1.419944,-1.131455 0.246274,-1.472473 0.330916,-0.06773 0.802452,0.160316 1.680157,0.812549 l 1.220137,0.906698 -0.436857,0.465011 c -0.698892,0.743937 -1.296458,0.586969 -2.709711,-0.711785 z M 13.886849,12.110821 c 0.476108,-0.218007 2.638666,-0.2717 11.231325,-0.278859 9.283471,-0.0077 10.656124,0.02876 10.754819,0.285957 0.0998,0.260078 -1.223783,0.29294 -11.231326,0.278857 -9.784108,-0.01377 -11.26336,-0.0531 -10.754818,-0.285955 z M 61.224812,9.661073 c 0.654379,-0.5745509 0.724039,-0.589643 2.721734,-0.589643 2.021396,0 2.058096,0.00827 2.615082,0.589643 l 0.564914,0.589643 H 63.839893 60.553245 Z M 3.175,9.8447864 C 3.175,9.7462987 3.5287858,9.6091456 3.9611907,9.540001 4.6837393,9.4244613 4.7473702,9.3646091 4.7472427,8.800625 4.7471259,8.2844914 4.6689186,8.1824536 4.2551385,8.1585749 3.5871994,8.1200278 3.175,7.9457029 3.175,7.701765 c 0,-0.2906363 1.5169818,-0.2512344 1.6542764,0.042967 0.091722,0.1965476 0.1375833,0.1965476 0.2293056,0 C 5.1446755,7.5602454 6.1483297,7.4990473 9.0878089,7.4990473 H 13.002384 V 8.781114 10.06318 L 8.0886922,10.043519 C 5.278084,10.03227 3.175,9.9472113 3.175,9.844785 Z M 13.395479,8.7766081 V 7.4990489 h 2.260299 c 1.243164,0 2.254452,0.066337 2.247307,0.1474103 -0.0071,0.081076 -0.60416,0.654302 -1.326697,1.2738362 -1.196182,1.0256554 -1.397226,1.1267586 -2.247307,1.1301486 l -0.933602,0.0037 z M 49.874058,9.6917866 C 49.758915,9.5054844 51.181748,9.07143 51.907587,9.07143 c 0.796614,0 0.384102,-0.369431 -0.677888,-0.6070946 -0.595224,-0.1332055 -1.040536,-0.2838784 -0.989585,-0.3348293 0.05096,-0.050954 0.704043,0.065944 1.45132,0.2597586 1.296579,0.3362895 1.437003,0.3368417 3.072264,0.012087 0.94247,-0.187173 1.757581,-0.2963146 1.811357,-0.2425386 0.112503,0.1125017 -1.248739,0.5167908 -1.74555,0.5184293 -0.46995,0.00159 -0.625862,0.344732 -0.210555,0.4634591 0.190501,0.054458 0.02133,0.052558 -0.375944,-0.00422 C 53.6417,9.0505327 51.6519,9.3741047 50.313849,9.775429 50.133767,9.8294448 49.935862,9.7918079 49.874058,9.691808 Z M 17.228159,8.8748823 c 0.422232,-0.4324048 0.793968,-0.7861901 0.82608,-0.7861901 0.03212,0 0.05838,0.3537853 0.05838,0.7861901 V 9.661073 h -0.82608 -0.826079 z m 1.906512,0.5503336 C 18.772089,9.062633 18.854161,8.5195158 19.30826,8.2764893 c 0.326644,-0.1748142 0.485634,-0.1501788 0.786191,0.1218204 0.457118,0.4136879 0.46715,0.5546371 0.06788,0.9539026 -0.369316,0.3693155 -0.707338,0.3933289 -1.027663,0.073 z m 0.845155,-0.5503336 c 0,-0.1591907 -0.15478,-0.3192458 -0.343958,-0.3556782 -0.241331,-0.046476 -0.343958,0.059648 -0.343958,0.3556782 0,0.2960306 0.102627,0.4021542 0.343958,0.3556788 0.189178,-0.036427 0.343958,-0.1964882 0.343958,-0.3556788 z m 1.586421,0.47733 c -0.169873,-0.1698729 -0.30886,-0.3846717 -0.30886,-0.47733 0,-0.2183434 0.567847,-0.7861901 0.78619,-0.7861901 0.218344,0 0.786191,0.5678467 0.786191,0.7861901 0,0.2183434 -0.567847,0.7861907 -0.786191,0.7861907 -0.09266,0 -0.307457,-0.1389872 -0.47733,-0.3088607 z m 0.870426,-0.47733 c 0,-0.2620634 -0.131032,-0.3930954 -0.393096,-0.3930954 -0.262063,0 -0.393095,0.131032 -0.393095,0.3930954 0,0.262064 0.131032,0.393096 0.393095,0.393096 0.262064,0 0.393096,-0.131032 0.393096,-0.393096 z m 0.97685,0 L 23.321133,7.990418 20.80587,7.892144 18.290608,7.793871 19.175829,6.9259847 c 0.486873,-0.4773371 0.839614,-0.9416809 0.783871,-1.0318749 -0.05574,-0.090194 0.705107,-0.1639895 1.690778,-0.1639895 1.144703,0 1.748245,-0.071002 1.670655,-0.1965474 -0.0672,-0.1087276 -0.956251,-0.1965483 -1.989765,-0.1965483 -1.8595,0 -1.870777,-0.00297 -2.39611,-0.6272747 -0.808214,-0.9605079 -0.706687,-1.184076 0.553195,-1.2181754 0.840309,-0.022746 1.220326,0.070044 1.706679,0.4167266 0.471016,0.3357485 0.897109,0.4459856 1.723843,0.4459856 1.078862,0 1.109187,0.015622 1.724346,0.8883542 l 0.62617,0.8883549 8.853206,-0.1029199 C 38.991963,5.9714696 49.059696,5.8591607 56.495436,5.7785005 L 70.014967,5.6318455 68.927078,4.5575475 C 68.328739,3.9666839 67.839188,3.4138933 67.839188,3.3291244 67.839188,3.2443561 68.615307,3.175 69.5639,3.175 h 1.724711 l 1.464268,1.4741077 1.464268,1.4741076 H 70.27875 66.340351 l -0.564913,0.589643 c -0.469366,0.4899123 -0.71976,0.5896423 -1.480417,0.5896423 -0.66589,0 -1.0125,-0.1071779 -1.271252,-0.3930948 -0.318585,-0.3520334 -0.60536,-0.3930957 -2.745358,-0.3930957 h -2.38961 l -0.564914,0.5896431 -0.564913,0.5896431 h -5.031719 -5.03172 L 45.727573,8.6783353 44.759612,9.661073 H 42.022536 39.28546 L 38.432543,8.8748823 C 37.96344,8.4424775 37.462932,8.0886922 37.320303,8.0886922 c -0.142628,0 -0.604787,0.3537853 -1.027019,0.7861901 -0.422231,0.4324047 -0.899763,0.7861907 -1.061182,0.7861907 -0.19262,0 -0.07758,-0.2227595 0.334709,-0.6481365 0.345509,-0.3564757 0.628199,-0.7102617 0.628199,-0.7861915 0,-0.07593 -0.619124,-0.1380528 -1.375833,-0.1380528 -0.756709,0 -1.375834,0.062122 -1.375834,0.1380528 0,0.07593 0.282691,0.4297158 0.6282,0.7861915 0.412293,0.425377 0.52733,0.6481365 0.334709,0.6481365 -0.161419,0 -0.638951,-0.353786 -1.061183,-0.7861907 -0.422231,-0.4324048 -0.864464,-0.7861901 -0.982738,-0.7861901 -0.118275,0 -0.560507,0.3537853 -0.982738,0.7861901 -0.444514,0.4552233 -0.953223,0.7861907 -1.208408,0.7861907 -0.386319,0 -0.448102,-0.1152198 -0.500616,-0.933601 l -0.0599,-0.9336016 -2.986905,-0.054199 -2.986905,-0.054199 -0.06547,1.0369387 -0.06547,1.0369382 z M 40.297202,8.409625 c 0.540122,-0.557262 0.590245,-0.6814537 0.317304,-0.7861906 -0.441879,-0.1695647 -2.650567,-0.1581752 -2.650567,0.013668 0,0.2281783 1.239602,1.4343278 1.474108,1.4343278 0.119741,0 0.506361,-0.2978122 0.859155,-0.6618052 z m -1.345195,-0.2169882 -0.443892,-0.4725002 1.003937,0.036868 c 0.552166,0.02028 1.004628,0.052959 1.005471,0.072622 8.29e-4,0.019664 -0.251174,0.2157 -0.560043,0.4356343 l -0.561582,0.39988 z M 22.977737,7.1550902 c 0.06081,-0.1836945 -0.341404,-0.2456844 -1.594098,-0.2456844 -1.552393,0 -2.080634,0.1421272 -1.751505,0.471256 0.242563,0.2425631 3.257931,0.03926 3.345603,-0.2255716 z m 4.077806,0.04914 c 0,-0.2092101 -2.721727,-0.3860793 -3.187963,-0.2071666 -0.152095,0.058366 -0.21935,0.198646 -0.149455,0.3117372 0.163628,0.2647543 3.337418,0.165311 3.337418,-0.1045706 z m 3.930954,0 c 0,-0.2092101 -2.721728,-0.3860793 -3.187964,-0.2071666 -0.152095,0.058366 -0.219349,0.198646 -0.149455,0.3117372 0.163629,0.2647543 3.337419,0.165311 3.337419,-0.1045706 z m 4.422323,0 c 0,-0.2373125 -0.304452,-0.2948215 -1.560781,-0.2948215 -1.438892,0 -1.960827,0.1472819 -1.644155,0.4639545 0.06913,0.06913 0.818519,0.1256886 1.665313,0.1256886 1.237521,0 1.539623,-0.057847 1.539623,-0.2948216 z M 46.415491,6.2829935 c 0,-0.087876 -0.26534,-0.1597753 -0.589643,-0.1597753 -0.548545,0 -0.589643,0.050514 -0.589643,0.7246886 v 0.7246894 l 0.589643,-0.5649134 c 0.324303,-0.310703 0.589643,-0.6368129 0.589643,-0.7246893 z M 71.917609,4.9931724 C 72.025074,4.6704157 71.409241,4.44002 71.145105,4.7041608 c -0.113035,0.1130354 -0.14307,0.3065698 -0.06676,0.4300758 0.173658,0.280988 0.729844,0.1875017 0.839244,-0.1410642 z M 70.296034,4.1577409 c 0,-0.1591906 -0.154784,-0.3192459 -0.343958,-0.3556779 -0.241331,-0.046473 -0.343959,0.059652 -0.343959,0.3556779 0,0.2960301 0.102628,0.4021547 0.343959,0.3556786 0.189174,-0.03643 0.343958,-0.1964873 0.343958,-0.3556786 z M 25.348036,9.5268115 c 0.141882,-0.056773 0.311404,-0.049793 0.376717,0.015522 0.06531,0.065308 -0.05077,0.111765 -0.25797,0.1032314 -0.228967,-0.00943 -0.275539,-0.056006 -0.118747,-0.1187479 z M 27.751297,9.375697 c -0.520396,-0.6270388 0.247426,-1.6126463 0.860153,-1.1041276 0.369737,0.3068559 0.403651,0.8254393 0.07544,1.1536493 -0.315123,0.3151234 -0.647567,0.2975268 -0.935592,-0.049517 z m 0.925822,-0.4515716 c 0.107464,-0.3227558 -0.508367,-0.5531512 -0.772507,-0.2890111 -0.113035,0.1130359 -0.143068,0.3065704 -0.06674,0.4300758 0.17366,0.2809875 0.729846,0.1875012 0.839244,-0.1410647 z m 2.997889,0.048418 0.667348,-0.6885282 0.648766,0.6288108 c 0.356823,0.345846 0.648769,0.6556832 0.648769,0.6885281 0,0.032841 -0.592253,0.059717 -1.316117,0.059717 H 31.00766 Z m 5.012142,0.098081 0.565684,-0.5904468 0.552101,0.5289457 c 0.303654,0.2909193 0.5521,0.5566206 0.5521,0.5904475 0,0.033822 -0.503003,0.0615 -1.117784,0.0615 H 36.121467 Z M 34.349504,8.898857 C 34.175421,8.7064946 34.032986,8.4897372 34.032986,8.4171731 c 0,-0.1707975 0.778917,-0.145782 1.252241,0.040222 0.340004,0.1336105 0.330511,0.1689392 -0.125714,0.4678697 -0.461274,0.302238 -0.514153,0.3005137 -0.810009,-0.0264 z M 78.491367,7.8329632 c -0.561735,-0.5688059 -1.021395,-1.0756337 -1.02145,-1.1262847 -6.2e-5,-0.050648 2.659321,-0.067429 5.909741,-0.037277 5.373225,0.049838 5.904178,0.08432 5.84728,0.3797531 -0.03442,0.1787159 -0.460524,0.6064837 -0.946915,0.9505958 l -0.884345,0.6256567 -3.941486,0.120875 -3.941479,0.1208736 z M 16.458259,7.1323128 C 16.400405,7.0387091 16.146582,7.0015981 15.8942,7.0498437 15.292008,7.1649606 14.817228,6.6398169 15.155258,6.2325163 15.328685,6.0235476 15.645045,5.978835 16.355117,6.0629324 c 0.596286,0.070623 1.066998,0.029009 1.233327,-0.1090344 0.27681,-0.2297316 1.900013,-0.2584066 1.900013,-0.033562 0,0.069175 -0.291661,0.4084601 -0.648137,0.7539698 -0.517113,0.5012051 -0.812766,0.6281988 -1.462508,0.6281988 -0.447903,0 -0.861702,-0.076585 -0.919553,-0.1701886 z M 25.222601,5.471768 c -0.59157,-0.629698 -0.543858,-0.7243863 0.365002,-0.7243863 0.523008,0 0.83082,0.1002212 0.905494,0.2948215 0.124831,0.3253062 1.053816,0.411939 1.053816,0.098274 0,-0.2832033 2.232457,-0.2440443 2.520716,0.044215 0.189985,0.1899858 0.322071,0.1899858 0.626286,0 0.461385,-0.2881402 2.55288,-0.3243641 2.55288,-0.044215 0,0.1081013 0.221117,0.1965474 0.49137,0.1965474 0.270253,0 0.491369,-0.088446 0.491369,-0.1965474 0,-0.110873 0.556885,-0.1965475 1.27756,-0.1965475 0.720675,0 1.277559,0.085675 1.277559,0.1965475 0,0.1081013 0.221117,0.1965474 0.491371,0.1965474 0.270252,0 0.491368,-0.096385 0.491368,-0.2141896 0,-0.1391721 0.464665,-0.1937231 1.326697,-0.1557526 1.05557,0.046495 1.445425,-0.020191 1.907669,-0.3263157 0.561353,-0.371763 1.027111,-0.385575 13.794479,-0.4090738 l 13.213507,-0.024321 0.541137,0.5648256 0.541137,0.5648257 -12.959782,0.00698 C 45.267593,5.3498737 43.093017,5.3963781 42.681084,5.6318599 42.27711,5.8627927 40.718846,5.9139912 33.919836,5.9197172 L 25.649958,5.9267 Z"
       id="path877" />
  </g>
</svg>
