<?xml version="1.0" encoding="UTF-8" standalone="no"?>
<svg
   xmlns:dc="http://purl.org/dc/elements/1.1/"
   xmlns:cc="http://creativecommons.org/ns#"
   xmlns:rdf="http://www.w3.org/1999/02/22-rdf-syntax-ns#"
   xmlns:svg="http://www.w3.org/2000/svg"
   xmlns="http://www.w3.org/2000/svg"
   xmlns:sodipodi="http://sodipodi.sourceforge.net/DTD/sodipodi-0.dtd"
   xmlns:inkscape="http://www.inkscape.org/namespaces/inkscape"
   width="283.18201"
   height="128"
   viewBox="0 0 74.925233 33.866667"
   version="1.1"
   id="svg8"
   inkscape:version="1.0.1 (3bc2e813f5, 2020-09-07)"
   sodipodi:docname="R-99.svg">
  <defs
     id="defs2" />
  <sodipodi:namedview
     id="base"
     pagecolor="#ffffff"
     bordercolor="#666666"
     borderopacity="1.0"
     inkscape:pageopacity="0.0"
     inkscape:pageshadow="2"
     inkscape:zoom="0.98994949"
     inkscape:cx="125.94822"
     inkscape:cy="20.295449"
     inkscape:document-units="mm"
     inkscape:current-layer="layer1"
     inkscape:document-rotation="0"
     showgrid="false"
     units="px"
     inkscape:window-width="1366"
     inkscape:window-height="705"
     inkscape:window-x="-8"
     inkscape:window-y="-8"
     inkscape:window-maximized="1" />
  <metadata
     id="metadata5">
    <rdf:RDF>
      <cc:Work
         rdf:about="">
        <dc:format>image/svg+xml</dc:format>
        <dc:type
           rdf:resource="http://purl.org/dc/dcmitype/StillImage" />
        <dc:title></dc:title>
      </cc:Work>
    </rdf:RDF>
  </metadata>
  <g
     inkscape:label="Layer 1"
     inkscape:groupmode="layer"
     id="layer1">
    <path
       style="opacity:0.997;fill:#273839;fill-opacity:1;stroke-width:0.161134"
       d="M 37.479916,29.650265 C 37.1611,29.047114 36.526375,27.853303 36.069413,26.997352 l -0.83084,-1.556275 0.819793,-0.981106 0.81979,-0.981104 -1.456035,-2.618913 -1.456036,-2.618911 0.914309,-0.04939 c 1.077509,-0.05821 0.883315,-0.25896 2.573799,2.660717 l 1.232061,2.127921 0.880873,0.04739 0.880876,0.04739 0.921297,1.691909 c 0.836148,1.535533 0.929324,1.806325 1.008136,2.929852 l 0.08684,1.237943 -0.863345,0.816517 c -0.790223,0.747358 -0.928992,0.816666 -1.63838,0.818291 -0.426268,9.56e-4 -1.028818,0.04127 -1.339002,0.08955 -0.557136,0.08671 -0.570993,0.07449 -1.143631,-1.00886 z m 2.439114,-0.996338 c 0.819373,-0.820936 1.4655,-1.610534 1.516341,-1.853042 0.04872,-0.232412 0.122768,-0.590067 0.164544,-0.794788 0.04699,-0.230272 -0.07501,-0.594382 -0.319901,-0.954773 l -0.395855,-0.582552 -0.626533,0.246109 c -0.369854,0.145283 -1.177649,0.800104 -1.971773,1.598375 l -1.345242,1.352265 0.598448,1.20944 c 0.329146,0.665193 0.678047,1.209441 0.775333,1.209441 0.09729,0 0.819374,-0.643713 1.604638,-1.430475 z m -1.731408,0.906789 c -0.08422,-0.11078 -0.354855,-0.554235 -0.601423,-0.985456 l -0.448305,-0.78404 1.185945,-1.202043 c 0.652269,-0.661122 1.471936,-1.350234 1.821482,-1.531357 l 0.635533,-0.329312 0.290988,0.359354 c 0.184595,0.227965 0.290985,0.625524 0.290985,1.087353 0,0.697561 -0.05849,0.787774 -1.398801,2.15746 -0.769339,0.786202 -1.449309,1.429458 -1.511043,1.429458 -0.06174,0 -0.181147,-0.09064 -0.265361,-0.201417 z m 2.886427,-0.395254 c 0.419452,-0.409584 0.611047,-0.73799 0.611047,-1.047372 0,-0.247886 -0.05439,-0.442202 -0.120851,-0.431815 -0.06647,0.01038 -0.549785,0.481702 -1.074039,1.047372 -0.944354,1.018952 -0.948897,1.028486 -0.490197,1.028486 0.316534,0 0.656286,-0.188746 1.07404,-0.596671 z M 34.53688,24.084527 c -1.004564,-1.810384 -3.164369,-5.81805 -3.164369,-5.871702 0,-0.16183 1.918163,-0.02293 2.058543,0.149069 0.09042,0.110779 0.811246,1.292971 1.601842,2.627092 l 1.437449,2.425676 -0.686662,0.839662 -0.686663,0.839662 z m 16.141684,0.400463 c -0.694641,-0.812352 -3.837175,-6.564279 -3.837175,-7.023362 0,-0.24607 -0.166578,-0.536731 -0.423356,-0.738713 -0.343163,-0.269931 -0.3866,-0.377299 -0.229317,-0.566814 0.306203,-0.368952 1.640104,-1.162389 2.315093,-1.377074 0.848608,-0.269907 0.609354,-0.416085 -0.27552,-0.168335 -0.436267,0.122147 -1.053969,0.501031 -1.577345,0.96751 -0.693619,0.618211 -1.12977,0.848943 -2.251538,1.191103 -1.207147,0.368203 -1.677462,0.424366 -3.553722,0.424366 h -2.16245 l -0.269704,-0.56558 -0.269707,-0.56558 0.602413,0.08047 c 0.331329,0.04426 1.400028,0.157438 2.374889,0.251512 l 1.772477,0.171042 1.190896,-0.491814 c 0.654993,-0.270498 1.287153,-0.618613 1.404799,-0.773589 0.531275,-0.699846 -0.03937,-2.29595 -0.820851,-2.29595 -0.372207,0 -0.405204,0.05845 -0.405204,0.717779 0,0.554204 -0.09347,0.811251 -0.410159,1.127939 -0.50559,0.50559 -0.659018,0.530226 -0.324081,0.05204 0.261629,-0.373527 0.3146,-0.918303 0.149276,-1.535205 -0.0936,-0.349252 -0.164938,-0.362551 -1.944835,-0.362551 -1.406372,0 -1.831713,-0.04811 -1.780833,-0.201417 0.04978,-0.150001 1.030152,-0.224376 3.840364,-0.291348 3.183913,-0.07588 3.974933,-0.144727 5.062591,-0.440645 0.70899,-0.192893 1.706007,-0.351828 2.215594,-0.35319 0.914687,-0.0024 0.92652,0.0035 0.92652,0.462996 0,0.410317 -0.07159,0.478891 -0.604254,0.57874 -1.114615,0.208939 -1.650157,0.524271 -1.898064,1.117595 -0.322146,0.771001 -0.129609,1.185961 0.94874,2.044744 1.47504,1.174707 4.097027,4.700234 4.474511,6.016435 0.192479,0.671133 -0.1294,1.084745 -1.582181,2.033133 -1.340719,0.875231 -2.205789,1.042448 -2.657867,0.513763 z m 1.912883,-2.14576 c 0.723761,-0.274228 1.17871,-0.794681 1.17871,-1.348432 0,-0.594902 -1.06016,-2.249367 -2.458961,-3.837411 -1.135086,-1.288648 -1.628419,-1.409666 -2.500288,-0.613336 -0.657838,0.600842 -0.670203,1.141833 -0.04417,1.93227 0.261331,0.329956 0.777225,1.210516 1.14643,1.956797 0.369206,0.746282 0.820623,1.520024 1.003148,1.719427 0.362531,0.396056 0.955068,0.463506 1.675126,0.190685 z m -1.463325,-0.293105 c -0.151233,-0.16711 -0.530577,-0.837831 -0.842991,-1.490491 -0.312412,-0.652658 -0.852507,-1.555903 -1.200212,-2.007207 -0.347704,-0.451305 -0.632189,-0.933239 -0.632189,-1.070964 0,-0.257302 1.022286,-1.250597 1.287097,-1.250597 0.608246,0 1.382387,0.819464 3.023239,3.200233 0.936793,1.359223 1.018589,1.738169 0.483403,2.239505 -0.738524,0.691817 -1.682649,0.860965 -2.118347,0.379521 z m -13.655671,-1.555068 -1.392795,-2.330581 0.828825,0.0029 0.828828,0.0029 1.225586,2.212759 1.225585,2.21276 -0.419914,0.101788 c -0.230953,0.05598 -0.528681,0.107726 -0.661617,0.114984 -0.145873,0.008 -0.793907,-0.910813 -1.634498,-2.317379 z M 17.042768,16.750552 c 0.01905,-1.755123 0.09413,-2.668231 0.243444,-2.960553 0.11875,-0.232479 0.170461,-0.468138 0.114913,-0.523685 -0.05555,-0.05555 -1.603191,-0.100997 -3.439208,-0.100997 h -3.338211 l -0.58272,0.645001 c -0.5603636,0.620256 -0.5827191,0.691346 -0.5827191,1.853042 0,0.664424 -0.058008,1.208043 -0.1289072,1.208043 -0.3635864,0 -0.5156292,-0.474996 -0.5156292,-1.610867 0,-1.204668 0.00972,-1.233637 0.6110473,-1.820816 0.3842551,-0.375215 0.7649242,-0.596671 1.0256402,-0.596671 0.228028,0 0.59896,-0.145021 0.824293,-0.322269 0.396647,-0.312002 0.653687,-0.322268 8.068928,-0.322268 5.778335,0 7.691244,0.0475 7.78959,0.193406 0.0717,0.106373 0.789715,1.393432 1.595592,2.860131 1.399247,2.546635 1.511735,2.898111 0.930033,2.905959 -0.100585,0.0013 -0.749619,-0.99455 -1.442296,-2.213127 -1.181762,-2.078986 -1.698049,-2.766396 -2.080907,-2.77062 -0.08862,-9.56e-4 -0.0015,0.123503 0.193586,0.276623 0.286771,0.225072 2.787395,4.406175 2.787395,4.660592 0,0.03902 -0.213102,-0.0808 -0.473562,-0.266262 -0.260458,-0.185463 -0.838504,-0.974933 -1.284546,-1.754378 -1.207749,-2.110501 -1.054702,-2.030069 -3.97857,-2.090907 -1.687619,-0.03512 -2.481163,0.0036 -2.481163,0.12085 0,0.338636 -0.59205,0.164329 -1.043949,-0.307353 l -0.459706,-0.479829 3.128556,-0.04754 3.128556,-0.04754 -3.262966,-0.03659 c -1.794631,-0.02013 -3.262966,0.0063 -3.262966,0.05864 0,0.05238 0.242144,0.378127 0.538097,0.723883 0.295956,0.345755 0.622252,0.909522 0.725104,1.252815 0.230245,0.768485 0.249315,2.923224 0.02587,2.923224 -0.08862,0 -0.161134,-0.277125 -0.161134,-0.615832 0,-0.849304 -0.445161,-2.078388 -0.85733,-2.367084 -0.530872,-0.371837 -1.285177,-0.300649 -1.720133,0.162341 -0.354705,0.377567 -0.375445,0.510335 -0.339821,2.175311 0.02611,1.220325 -0.01813,1.773203 -0.141898,1.773203 -0.125915,0 -0.171583,-0.760961 -0.152305,-2.537863 z m 1.116742,-3.034693 c 0,-0.284551 -0.346882,-0.234996 -0.446475,0.06378 -0.03508,0.105241 0.05102,0.191347 0.191347,0.191347 0.140321,0 0.255128,-0.114808 0.255128,-0.255129 z m 0.886942,0.09286 c 0.05516,-0.08925 -0.0162,-0.206973 -0.158574,-0.261607 -0.308515,-0.118389 -0.480456,0.01207 -0.332158,0.252024 0.133803,0.216497 0.360121,0.220917 0.490732,0.0096 z m -1.496453,3.681921 c 0.04433,-1.745751 0.0574,-1.802643 0.488337,-2.123974 0.920284,-0.686221 1.784253,0.154753 1.982032,1.929281 l 0.110174,0.988509 -0.864665,0.32651 c -0.475566,0.179581 -1.066435,0.404577 -1.313043,0.499992 l -0.448378,0.173481 z m 14.139925,0.227116 c 0.969238,-0.03896 1.448046,-0.130208 1.652067,-0.314843 0.274448,-0.248373 0.268962,-0.291243 -0.122788,-0.959717 l -0.41007,-0.699729 0.933315,10e-4 c 0.867565,9.56e-4 0.952648,0.035 1.207803,0.483402 0.27427,0.481999 0.275705,0.482388 1.786894,0.482388 1.41283,0 1.523107,0.02387 1.674966,0.362551 0.339663,0.757532 0.284797,0.767501 -4.031763,0.732589 -2.230366,-0.01804 -3.441057,-0.05748 -2.690424,-0.08766 z M 28.968363,15.136108 C 28.310762,13.919239 27.635102,12.724215 27.466901,12.4805 l -0.305823,-0.443119 h 1.586979 1.58698 l 0.636462,1.24879 c 0.350054,0.686834 0.662039,1.303172 0.693299,1.36964 0.03126,0.06647 -0.311758,0.120851 -0.762263,0.120851 -0.681338,0 -0.819098,0.04878 -0.819098,0.290042 0,0.492807 0.350424,0.676763 1.289191,0.676763 h 0.90247 l 0.354377,0.729413 c 0.194907,0.401179 0.354377,0.763731 0.354377,0.805671 0,0.04194 -0.634466,0.07486 -1.409924,0.07315 l -1.409924,-0.0031 z m 40.270672,2.075079 C 68.842822,17.101519 68.833549,17.06096 68.675066,14.744712 68.541917,12.798839 68.460503,12.331027 68.206372,12.05177 67.948041,11.767885 67.928703,11.648227 68.085529,11.304039 68.359905,10.701831 68.324905,9.2201439 68.030532,8.9758293 67.87812,8.849336 67.788835,8.8385348 67.788835,8.9465917 c 0,0.094246 0.07251,0.216169 0.161133,0.2709413 0.232106,0.1434495 0.18771,1.542793 -0.06331,1.995663 -0.161447,0.291265 -0.245001,0.332583 -0.345083,0.170644 -0.079,-0.127809 -0.05585,-0.239083 0.05761,-0.276899 0.23321,-0.07774 0.260515,-1.8088408 0.02852,-1.8088408 -0.260079,0 -0.184651,-0.4398994 0.09375,-0.5467295 0.140181,-0.053794 0.95792,-0.097807 1.817186,-0.097807 2.373751,0 2.263328,-0.1817935 2.176657,3.5837033 -0.0393,1.706851 -0.07532,3.513576 -0.08007,4.014946 -0.0075,0.793921 -0.05354,0.923625 -0.356455,1.004888 -0.449833,0.120674 -1.525314,0.09646 -2.03972,-0.04591 z m 1.933605,-1.46772 c 0,-0.52962 -0.172764,-0.616001 -0.4834,-0.241702 -0.160039,0.192832 -0.160039,0.290571 0,0.483403 0.310636,0.374299 0.4834,0.287919 0.4834,-0.241701 z m -0.25302,-1.018765 c -0.170959,-0.445507 -0.391513,-0.306011 -0.391513,0.247622 0,0.465888 0.02486,0.49305 0.247619,0.27031 0.140091,-0.140087 0.202576,-0.36501 0.143894,-0.517932 z m 0.25302,-0.753711 c 0,-0.265872 -0.07023,-0.483402 -0.156077,-0.483402 -0.08584,0 -0.118799,-0.09715 -0.07324,-0.215886 0.04557,-0.118737 -0.03287,-0.311911 -0.174278,-0.429278 -0.229445,-0.190424 -0.253414,-0.136837 -0.222673,0.497871 0.0341,0.704881 0.212226,1.114097 0.484855,1.114097 0.07778,0 0.141408,-0.217531 0.141408,-0.483402 z m -1.933605,-3.222683 c 0,-0.177248 -0.06823,-0.322269 -0.151626,-0.322269 -0.216295,0 -0.368707,0.293285 -0.25121,0.483403 0.168404,0.272484 0.402836,0.178712 0.402836,-0.161134 z m 0.06059,-0.731204 c 0.05475,-0.1426933 -0.0092,-0.2878296 -0.150845,-0.3421743 -0.315272,-0.1209831 -0.459145,0.024489 -0.337563,0.3413253 0.122314,0.318749 0.366258,0.319174 0.488408,8.49e-4 z M 9.6194013,15.653448 c 0,-0.945559 0.053733,-1.123683 0.5103717,-1.691909 l 0.510369,-0.635088 h 3.276282 c 3.456612,0 3.565888,0.02575 3.057882,0.720487 -0.14875,0.203428 -0.315054,0.261591 -0.521476,0.182379 -0.522228,-0.200397 -5.2232,-0.135731 -5.477536,0.07535 -0.139042,0.115394 -0.227954,0.493287 -0.227954,0.968848 0,0.594553 -0.08373,0.857669 -0.352652,1.108209 -0.6202872,0.577886 -0.7752867,0.432285 -0.7752867,-0.728276 z m 25.7814627,0.412284 c -0.145258,-0.271415 -0.122541,-0.322268 0.143956,-0.322268 0.412829,0 0.834007,-0.427966 0.718195,-0.729767 -0.06226,-0.162249 -0.330656,-0.237038 -0.850654,-0.237038 H 34.652667 L 33.93911,13.540667 c -0.919145,-1.592103 -0.899996,-1.503289 -0.324149,-1.503289 0.48494,0 0.496889,0.01832 0.499297,0.765388 0.0034,1.049028 0.140138,1.223991 0.819169,1.048037 0.639171,-0.165626 0.838365,-0.660794 0.320316,-0.796267 -0.242869,-0.06351 -0.336281,-0.217 -0.336281,-0.552549 0,-0.420331 0.05186,-0.464609 0.544127,-0.464609 0.49517,0 0.57396,0.06886 0.875721,0.765388 0.182376,0.420962 0.607782,1.345469 0.945346,2.054459 0.337565,0.708991 0.638382,1.343457 0.668482,1.409924 0.0301,0.06647 -0.492591,0.120851 -1.161536,0.120851 -1.051352,0 -1.23965,-0.0437 -1.388738,-0.322268 z m 1.665091,-0.06879 c 0.04853,-0.126456 -0.01986,-0.31963 -0.151982,-0.429277 -0.193382,-0.160493 -0.289469,-0.150097 -0.49289,0.05333 -0.138975,0.138975 -0.203567,0.332149 -0.143538,0.429277 0.156666,0.25349 0.68437,0.217799 0.78841,-0.05333 z m 1.612976,-0.381369 c -0.06211,-0.237512 -0.216851,-0.355515 -0.466194,-0.355515 -0.311272,0 -0.537297,-0.307589 -1.361666,-1.853043 -0.966271,-1.81148 -1.000848,-1.853042 -1.541592,-1.853042 h -0.553152 v 0.966804 c 0,0.75196 -0.05371,0.966806 -0.241701,0.966806 -0.186535,0 -0.242264,-0.211467 -0.244168,-0.926522 -0.0013,-0.509586 -0.07862,-1.035287 -0.171689,-1.168222 -0.132471,-0.189209 -0.147075,-0.162963 -0.06724,0.12085 l 0.101983,0.362552 h -3.716944 c -2.37054,0 -3.716945,-0.05837 -3.716945,-0.161134 0,-0.08862 0.108766,-0.161134 0.241702,-0.161134 0.132935,0 0.241701,-0.108766 0.241701,-0.241701 0,-0.132936 -0.108766,-0.241702 -0.241701,-0.241702 -0.191362,0 -0.241702,-0.230267 -0.241702,-1.1055941 V 8.8593851 l 0.443119,0.079845 c 0.243715,0.043917 0.533757,0.1515038 0.644536,0.2390864 0.147886,0.1169185 0.201418,0.068346 0.201418,-0.1827574 0,-0.2599739 -0.09945,-0.3419979 -0.41465,-0.3419979 -0.308049,0 -0.400771,-0.072495 -0.360663,-0.2819852 0.04646,-0.2426809 0.28112,-0.2883547 1.683515,-0.3276818 1.53294,-0.042988 1.634708,-0.025881 1.716949,0.2886044 0.07117,0.2721501 0.02999,0.3160739 -0.221493,0.2362561 C 30.131257,8.4858857 30.08344,8.5515627 30.08344,8.9930586 V 9.515407 l 0.372937,-0.350356 0.372937,-0.3503565 9.254828,-0.025785 c 5.090155,-0.014186 9.01917,-0.05503 8.731142,-0.090776 -0.38818,-0.048172 -0.523685,-0.1457359 -0.523685,-0.3770479 0,-0.1716334 -0.108766,-0.3120598 -0.241702,-0.3120598 -0.134278,0 -0.241701,0.1432307 -0.241701,0.3222688 0,0.1772471 -0.07251,0.3222682 -0.161134,0.3222682 -0.08862,0 -0.161134,-0.1450211 -0.161134,-0.3222682 0,-0.1790381 -0.107424,-0.3222688 -0.241701,-0.3222688 -0.134279,0 -0.241702,0.1432307 -0.241702,0.3222688 0,0.3179195 -0.107423,0.3222682 -7.961055,0.3222682 -7.881723,0 -7.960214,-0.00324 -7.876779,-0.3222682 0.08219,-0.3143101 0.21979,-0.3222688 5.571639,-0.3222688 4.997412,0 5.515775,-0.025175 5.805577,-0.2819846 0.233243,-0.2066877 0.337027,-0.2282008 0.388667,-0.080567 0.05288,0.1511723 0.8018,0.2014174 3.002196,0.2014174 2.753864,0 2.948862,0.019996 3.213891,0.3295248 0.241313,0.2818322 0.438654,0.3226443 1.363501,0.2819852 0.919411,-0.040418 1.090238,-0.094098 1.140683,-0.3584129 0.05615,-0.2942777 0.04452,-0.2960442 -0.218453,-0.033088 -0.441764,0.4417621 -0.63962,0.2253434 -0.691538,-0.7564231 -0.05354,-1.0123762 0.09839,-1.1226181 0.981744,-0.7123738 0.332624,0.1544738 0.434,0.3169255 0.434962,0.6970162 0.0012,0.553098 0.361533,0.93445 1.359586,1.4397115 l 0.633225,0.3205682 -3.936474,0.09869 c -2.165062,0.054281 -5.984893,0.1086618 -8.488515,0.1208508 l -4.552039,0.022163 v 0.8056715 0.805671 l 4.068637,0.0036 4.068637,0.0036 -0.402835,0.318247 c -0.373068,0.294731 -0.650612,0.317404 -3.755858,0.306829 -2.321644,-0.0079 -3.422277,0.04606 -3.578174,0.175444 -0.330589,0.274363 -0.561542,0.05092 -0.561542,-0.54327 0,-0.287227 -0.08701,-0.609245 -0.19336,-0.715594 -0.26895,-0.268948 -2.646144,-0.261984 -2.750151,0.0081 -0.05837,0.151563 0.266411,0.201419 1.312117,0.201419 1.332455,0 1.387711,0.01437 1.341591,0.348913 -0.02682,0.19455 0.458645,1.324931 1.097319,2.555055 0.629981,1.213378 1.10194,2.249622 1.0488,2.302764 -0.05314,0.05314 -0.138458,-0.06336 -0.18959,-0.258894 z M 27.988693,11.312275 c 0,-0.132936 -0.108765,-0.241702 -0.2417,-0.241702 -0.132937,0 -0.241702,0.108766 -0.241702,0.241702 0,0.132935 0.108765,0.241701 0.241702,0.241701 0.132935,0 0.2417,-0.108766 0.2417,-0.241701 z M 51.272577,7.2033537 c 0,-0.2954126 -0.09064,-0.5673263 -0.201418,-0.604253 -0.139649,-0.046553 -0.201418,0.1387546 -0.201418,0.604253 0,0.465499 0.06177,0.6508031 0.201418,0.6042529 0.11078,-0.036923 0.201418,-0.3088402 0.201418,-0.6042529 z m 0.725102,0.2417011 c 0,-0.1329357 -0.07251,-0.2417011 -0.161132,-0.2417011 -0.08862,0 -0.161132,0.1087654 -0.161132,0.2417011 0,0.1329362 0.07251,0.2417016 0.161132,0.2417016 0.08862,0 0.161132,-0.1087654 0.161132,-0.2417016 z m -21.59999,7.9036302 c -0.08421,-0.08419 -0.153118,-0.211086 -0.153118,-0.281984 0,-0.182336 5.600435,-0.16166 5.713381,0.02109 0.05099,0.0825 0.0063,0.203416 -0.09936,0.268701 -0.286799,0.177252 -5.282943,0.170107 -5.460906,-0.0078 z m 1.826693,-0.773444 c -0.217814,-0.284154 -1.335274,-2.328807 -1.335274,-2.443194 0,-0.05207 0.38068,-0.09418 0.845954,-0.09359 l 0.845955,0.0011 0.644536,1.167144 c 0.88439,1.601475 0.885373,1.569978 -0.04902,1.569978 -0.448439,0 -0.865361,-0.0882 -0.952149,-0.201418 z M 3.2755961,14.252973 c -0.1728075,-0.644828 -0.1122627,-1.738996 0.099856,-1.804625 0.1107803,-0.03427 0.7089904,-0.09802 1.329357,-0.141649 0.6203665,-0.04363 0.9829181,-0.04253 0.8056709,0.0024 -0.6148471,0.156025 -0.6413926,0.372767 -0.045657,0.372767 0.3205231,0 0.6193422,-0.09064 0.6640424,-0.201417 0.044701,-0.11078 0.086998,0.324282 0.093995,0.966804 l 0.012722,1.168223 h -1.431414 c -1.348218,0 -1.4370606,-0.02107 -1.5285736,-0.362551 z m 2.7988533,0.04028 c 0,-0.08863 -0.2537857,-0.161135 -0.563969,-0.161135 -0.3101833,0 -0.5639697,0.07251 -0.5639697,0.161135 0,0.08862 0.2537864,0.161133 0.5639697,0.161133 0.3101833,0 0.563969,-0.07251 0.563969,-0.161133 z m 0,-0.805671 c 0,-0.08863 -0.2537857,-0.161135 -0.563969,-0.161135 -0.3101833,0 -0.5639697,0.07251 -0.5639697,0.161135 0,0.08862 0.2537864,0.161133 0.5639697,0.161133 0.3101833,0 0.563969,-0.07251 0.563969,-0.161133 z m 1.5084788,0.725103 c -0.051013,-0.132936 -0.2300129,-0.241701 -0.3977787,-0.241701 -0.1677659,0 -0.305029,-0.07251 -0.305029,-0.161135 0,-0.08862 0.1493002,-0.161134 0.3317788,-0.161134 0.1942693,0 0.2876893,-0.07134 0.2254018,-0.172119 -0.058508,-0.09467 -0.2078061,-0.133196 -0.3317777,-0.08562 -0.1286815,0.04938 -0.2254029,-0.01288 -0.2254029,-0.145092 0,-0.132211 0.096721,-0.194471 0.2254029,-0.145092 0.1239716,0.04757 0.2732713,0.009 0.3317777,-0.08562 0.062288,-0.100783 -0.031134,-0.172119 -0.2254018,-0.172119 -0.1824786,0 -0.3317788,-0.07251 -0.3317788,-0.161135 0,-0.08862 0.1812762,-0.161134 0.4028354,-0.161134 0.250654,0 0.402836,-0.09131 0.402836,-0.241701 0,-0.194703 0.2506529,-0.241701 1.2890724,-0.241701 1.1816507,0 1.2890737,0.02686 1.2890737,0.322269 0,0.211124 -0.107423,0.322267 -0.3114806,0.322267 -0.3149065,0 -1.4609957,1.245448 -1.4609957,1.587655 0,0.274275 -0.8006938,0.224147 -0.9085335,-0.05688 z M 39.386565,12.746688 c -0.05338,-0.05339 -0.45961,-0.109144 -0.90272,-0.123905 -0.919971,-0.03064 -1.13068,-0.16234 -0.884541,-0.552848 0.152713,-0.242283 0.58232,-0.279326 3.685049,-0.317751 l 3.512185,-0.0435 1.184044,-1.124727 1.184046,-1.1247271 h 3.141629 3.141629 v 0.7251041 c 0,0.698248 0.0179,0.725103 0.483403,0.725103 0.411509,0 0.483402,0.06149 0.483402,0.413429 0,0.797972 -0.261107,1.036779 -1.133606,1.036779 -0.745911,0 -0.800003,-0.02724 -0.800003,-0.402836 0,-0.254322 0.09097,-0.402835 0.246758,-0.402835 0.387337,0 0.491369,-0.499859 0.155195,-0.745675 -0.326917,-0.239048 -0.724218,-0.04015 -0.724218,0.36257 0,0.162375 -0.248762,0.222962 -0.926524,0.225662 -0.509586,0.002 -1.796645,0.219362 -2.86013,0.482959 -2.345185,0.581282 -2.980982,0.614956 -2.980982,0.157887 0,-0.179038 -0.107423,-0.322269 -0.241701,-0.322269 -0.134279,0 -0.241701,0.143231 -0.241701,0.322269 0,0.308107 -0.107424,0.322268 -2.444609,0.322268 -1.948438,0 -2.498894,0.04913 -2.712072,0.242053 -0.147106,0.133129 -0.311146,0.198372 -0.364533,0.144986 z m 9.194819,-1.771263 c 1.063776,-0.479413 1.269857,-0.631705 1.202638,-0.888749 -0.09984,-0.3817905 -0.365008,-0.5636626 -0.503353,-0.3452401 -0.05656,0.089296 -0.682919,0.3365251 -1.39191,0.5493981 -1.168576,0.350863 -1.293839,0.427988 -1.340058,0.825092 -0.04338,0.372683 0.0087,0.43805 0.34897,0.43805 0.219975,0 0.977645,-0.260348 1.683713,-0.578551 z M 10.74734,12.209637 c 0,-0.365403 -0.01026,-0.36702 -1.9671629,-0.310072 l -1.9671628,0.05725 -0.1102604,-0.538504 c -0.1749694,-0.854537 0.00572,-1.7979406 0.3443846,-1.7979406 0.2395942,0 0.2719743,0.1024781 0.2005741,0.6348036 -0.046833,0.349143 -0.038548,0.820459 0.018403,1.047372 0.1013963,0.403998 0.1333324,0.412568 1.5372573,0.412568 0.8961809,0 1.4557771,-0.0662 1.4925691,-0.17658 0.04148,-0.124435 2.376996,-0.182343 7.909001,-0.196098 l 7.850141,-0.01952 V 10.149371 8.9758293 h -1.208506 c -0.698247,0 -1.208506,0.068035 -1.208506,0.1611344 0,0.088623 -0.176997,0.1611338 -0.393325,0.1611338 -0.21633,0 -0.438141,-0.072511 -0.492913,-0.1611338 -0.05477,-0.088624 -0.312839,-0.1611344 -0.573479,-0.1611344 -0.260641,0 -0.473892,0.072511 -0.473892,0.1611344 0,0.088623 -0.217532,0.1611338 -0.483403,0.1611338 -0.265871,0 -0.483403,-0.072511 -0.483403,-0.1611338 0,-0.088624 -0.213251,-0.1611344 -0.473892,-0.1611344 -0.260641,0 -0.518707,0.072511 -0.57348,0.1611344 -0.05477,0.088623 -0.276583,0.1611338 -0.492912,0.1611338 -0.216329,0 -0.393325,-0.072511 -0.393325,-0.1611338 0,-0.088624 -0.213252,-0.1611344 -0.473893,-0.1611344 -0.260641,0 -0.518707,0.072511 -0.57348,0.1611344 -0.05477,0.088623 -0.272303,0.1611338 -0.483402,0.1611338 -0.211099,0 -0.428629,-0.072511 -0.483402,-0.1611338 -0.05478,-0.088624 -0.312838,-0.1611344 -0.57348,-0.1611344 -0.260641,0 -0.473892,0.072511 -0.473892,0.1611344 0,0.088623 -0.176997,0.1611338 -0.393326,0.1611338 -0.216329,0 -0.438139,-0.072511 -0.492912,-0.1611338 -0.0587,-0.094979 -1.038398,-0.1621478 -2.38624,-0.1636019 -1.535904,-0.00165 -2.207297,-0.053751 -2.044951,-0.1586669 0.147487,-0.095313 3.303685,-0.1571606 8.096991,-0.1586663 l 7.855289,-0.00244 v 1.6113404 1.611342 h -7.442067 c -7.419176,0 -7.443216,0.0011 -7.815006,0.350356 L 10.74734,12.57698 Z M 3.9264448,11.647598 C 3.7983266,11.313726 4.0326667,11.200884 5.090314,11.087162 6.0842089,10.980294 6.2748671,10.653769 5.3023734,10.723986 4.4936447,10.782378 3.7954904,10.512544 3.9194558,10.189494 3.9931284,9.9975072 4.2879391,9.9427344 5.2457348,9.9430844 l 1.2315504,4.514e-4 v 0.9447222 0.944721 L 5.248764,11.862499 C 4.280134,11.885779 4.0004006,11.840309 3.9264448,11.64759 Z M 7.5246575,10.677903 V 9.9629644 l 1.3294144,0.00372 1.3294151,0.00372 -0.05656,0.7112326 c -0.05355,0.673301 -0.08282,0.711235 -0.5487178,0.711235 -0.4756059,0 -0.4827111,-0.01043 -0.2113518,-0.310278 0.3212054,-0.35493 0.2861118,-0.833822 -0.069718,-0.951362 -0.2065655,-0.06823 -0.2098005,-0.04119 -0.022259,0.186013 0.2852695,0.345598 0.122886,0.753359 -0.3000127,0.753359 -0.422897,0 -0.58528,-0.407761 -0.300011,-0.753359 0.1875444,-0.227206 0.1843083,-0.254247 -0.022259,-0.186013 -0.3558296,0.11754 -0.3909237,0.596432 -0.069718,0.951362 0.2729022,0.301553 0.2619698,0.310278 -0.3887111,0.310278 H 7.5246543 Z m 1.7005851,0.05636 C 9.3912956,10.465588 9.01783,10.157486 8.7955437,10.379772 c -0.1859362,0.185936 -0.069565,0.529669 0.1793206,0.529669 0.078164,0 0.1908335,-0.07883 0.2503783,-0.175174 z M 10.425072,10.184338 V 9.2980991 h 2.094744 2.094744 v 0.8862379 0.886238 h -2.094744 -2.094744 z m 1.579205,0.06677 c 0.0678,-0.5832188 -0.338949,-0.894781 -0.858873,-0.6578891 -0.71172,0.3242817 -0.389065,1.2146941 0.406475,1.1217251 0.299129,-0.03496 0.416536,-0.155331 0.452398,-0.463836 z m -1.042327,0.08187 c -0.05365,-0.139808 0.02114,-0.3728775 0.166191,-0.5179314 0.244225,-0.2442244 0.283247,-0.2442244 0.527472,0 0.329435,0.3294364 0.178225,0.7721274 -0.263736,0.7721274 -0.182811,0 -0.376278,-0.114389 -0.429927,-0.254196 z m 0.678254,-0.07879 c 0.148298,-0.239953 -0.02364,-0.3704139 -0.332157,-0.252025 -0.142376,0.05463 -0.213734,0.172358 -0.158575,0.261607 0.130612,0.211334 0.356929,0.206914 0.490732,-0.0096 z m 2.64584,0.183527 c 0.375044,-0.7007746 -0.428538,-1.2598439 -0.995671,-0.6927097 -0.262702,0.2627007 -0.286975,0.3802917 -0.136527,0.6614057 0.232029,0.433549 0.906936,0.45221 1.132198,0.0313 z m -0.920789,-0.03636 c -0.230677,-0.230677 0.02515,-0.7809847 0.363067,-0.7809847 0.337915,0 0.593745,0.5503077 0.363067,0.7809847 -0.102201,0.102202 -0.265581,0.185821 -0.363067,0.185821 -0.09749,0 -0.260866,-0.08362 -0.363067,-0.185821 z m 0.604768,-0.217015 c 0,-0.132936 -0.108765,-0.241702 -0.241701,-0.241702 -0.132936,0 -0.241701,0.108766 -0.241701,0.241702 0,0.132935 0.108765,0.241701 0.241701,0.241701 0.132936,0 0.241701,-0.108766 0.241701,-0.241701 z m 1.93361,0.01121 c 0,-0.8547523 0.01956,-0.897445 0.411256,-0.897445 0.39488,0 0.409316,0.033683 0.362552,0.845955 -0.04243,0.736979 -0.09541,0.852586 -0.411256,0.897444 -0.338746,0.04811 -0.362552,-0.0074 -0.362552,-0.845954 z m 1.93361,-0.01121 c 0,-0.8378985 0.02197,-0.8862385 0.402835,-0.8862385 0.380862,0 0.402835,0.048336 0.402835,0.8862385 0,0.837898 -0.02197,0.886238 -0.402835,0.886238 -0.380863,0 -0.402835,-0.04834 -0.402835,-0.886238 z m 2.085058,0.845954 c -0.0054,-0.02216 -0.02345,-0.421016 -0.04029,-0.886356 -0.02817,-0.7790829 -0.0019,-0.8460643 0.331954,-0.8459549 0.332019,1.089e-4 0.362552,0.074753 0.362552,0.8863569 0,0.778815 -0.03906,0.886238 -0.322268,0.886238 -0.177249,0 -0.326627,-0.01813 -0.331954,-0.04029 z m 1.943295,-0.845954 c 0,-0.7788152 0.03906,-0.8862385 0.322269,-0.8862385 0.283206,0 0.322268,0.1074233 0.322268,0.8862385 0,0.778815 -0.03906,0.886238 -0.322268,0.886238 -0.283207,0 -0.322269,-0.107423 -0.322269,-0.886238 z m 2.094744,0.008 V 9.2980981 h 0.975225 0.975227 l -0.0487,0.8459549 -0.0487,0.845954 -0.926522,0.04833 -0.92652,0.04833 v -0.894279 z m 1.443789,0.321959 C 25.66602,10.198778 25.473241,9.6619814 25.049755,9.5275724 24.571841,9.3758881 24.054031,9.9989375 24.290616,10.441 c 0.194354,0.363153 0.837816,0.405533 1.113513,0.07334 z m -0.946218,-0.151795 c -0.143937,-0.173433 -0.127447,-0.283608 0.07235,-0.4834027 0.142324,-0.1423236 0.317225,-0.258772 0.388666,-0.258772 0.247132,0 0.496787,0.4435917 0.396597,0.7046797 -0.123261,0.321217 -0.604673,0.342265 -0.857609,0.0375 z m 0.630368,-0.178205 c 0,-0.132936 -0.108766,-0.2417015 -0.241701,-0.2417015 -0.132936,0 -0.241701,0.1087655 -0.241701,0.2417015 0,0.132935 0.108765,0.241701 0.241701,0.241701 0.132935,0 0.241701,-0.108766 0.241701,-0.241701 z m -10.232018,0 c 0,-0.4774344 0.05563,-0.5639697 0.362551,-0.5639697 0.306923,0 0.362552,0.086535 0.362552,0.5639697 0,0.477435 -0.05563,0.563969 -0.362552,0.563969 -0.306922,0 -0.362551,-0.08653 -0.362551,-0.563969 z m 2.014177,0 c 0,-0.4941453 0.04988,-0.5639697 0.402835,-0.5639697 0.35296,0 0.402835,0.069824 0.402835,0.5639697 0,0.494144 -0.04987,0.563969 -0.402835,0.563969 -0.35296,0 -0.402835,-0.06982 -0.402835,-0.563969 z m 2.094743,0 c 0,-0.4565464 0.06138,-0.5639697 0.322269,-0.5639697 0.260884,0 0.322268,0.1074233 0.322268,0.5639697 0,0.456547 -0.06138,0.563969 -0.322268,0.563969 -0.260884,0 -0.322269,-0.107422 -0.322269,-0.563969 z m 1.93361,0 c 0,-0.4941453 0.04987,-0.5639697 0.402835,-0.5639697 0.352962,0 0.402837,0.069824 0.402837,0.5639697 0,0.494144 -0.04987,0.563969 -0.402837,0.563969 -0.352961,0 -0.402835,-0.06982 -0.402835,-0.563969 z m 1.93361,0 c 0,-0.4941453 0.04987,-0.5639697 0.402836,-0.5639697 0.352961,0 0.402835,0.069824 0.402835,0.5639697 0,0.494144 -0.04987,0.563969 -0.402835,0.563969 -0.352962,0 -0.402836,-0.06982 -0.402836,-0.563969 z m 30.884047,0.456547 c -0.05907,-0.05908 -0.107423,-0.349125 -0.107423,-0.6445368 V 9.4592325 h 6.848199 c 3.766501,0 6.902581,-0.018132 6.969049,-0.040285 0.06647,-0.022158 0.143145,0.2678853 0.170396,0.6445365 l 0.04955,0.68482 h -6.91118 c -3.801146,0 -6.959511,-0.04834 -7.018591,-0.107422 z M 37.495608,10.023201 V 9.4592319 h 4.623933 4.62393 l -0.546619,0.5639691 -0.54662,0.56397 H 41.572919 37.495608 Z M 7.1218221,9.4592319 C 6.9090639,9.3678067 7.3015607,9.3168993 8.2768664,9.3094224 c 0.8125211,-0.00623 1.5928298,-0.055651 1.7340186,-0.1098329 0.187889,-0.0721 0.229997,-0.028903 0.157073,0.1611349 C 10.087094,9.5714522 9.8211374,9.6182318 8.7562076,9.6090404 8.0345428,9.6028105 7.2990698,9.5353973 7.1218221,9.4592319 Z M 6.7500046,8.2960399 C 6.7936948,7.6965819 6.8471572,7.6144097 7.2023893,7.6006816 9.9079961,7.4961178 9.8854118,7.4988333 9.2971325,7.3488262 8.9869502,7.2697318 8.4975047,7.2441849 8.2094776,7.2920543 7.8070277,7.3589407 7.6857919,7.3214459 7.6857919,7.1300882 c 0,-0.1961801 0.1997965,-0.2490027 0.9418309,-0.2490027 1.1040471,0 1.4751812,0.2849381 1.4751812,1.1325698 0,0.4346187 0.04027,0.5029411 0.201417,0.3417345 0.142218,-0.1422699 0.201418,-0.8739811 0.201418,-2.4895225 0,-1.2584176 0.05866,-2.3786701 0.13036,-2.4894497 C 10.716389,3.2522073 11.136355,3.175 11.731597,3.175 h 0.965238 l 0.573917,1.2085061 c 0.507759,1.0691978 0.624689,1.208506 1.014366,1.208506 0.242247,0 0.65033,0.1803446 0.90685,0.4007651 l 0.466399,0.4007658 5.480343,0.042356 5.480343,0.042357 -0.644536,0.3222682 C 25.376438,7.0995633 24.954306,7.126157 20.118077,7.1694705 L 14.906174,7.2161508 14.199998,6.56522 C 13.505451,5.9250083 13.473861,5.9142891 12.281714,5.9142891 h -1.212105 v 0.5639697 0.5639691 h 1.682399 c 1.702005,0 1.928832,0.075404 1.938859,0.644537 0.0033,0.1878869 0.265494,0.2522648 1.177566,0.2891461 0.693454,0.028037 1.134387,0.1104161 1.078145,0.2014174 -0.05501,0.089012 -1.399809,0.1554845 -3.187482,0.1575558 -2.820976,0.00329 -3.127671,0.031229 -3.495158,0.3186859 C 9.9274385,8.9167827 9.6008656,8.9692616 8.2807796,8.9722544 L 6.7004567,8.975866 Z M 26.0148,8.3636124 c -0.892322,-0.076456 -0.734333,-0.3545883 0.201418,-0.3545883 0.443119,0 0.805671,0.064753 0.805671,0.1438945 0,0.2050258 -0.311832,0.2702641 -1.007089,0.2106938 z M 17.192706,8.1701585 c 0,-0.095408 0.587655,-0.1611344 1.440697,-0.1611344 0.792383,0 1.485512,0.072511 1.540284,0.1611344 0.06374,0.1031303 -0.454874,0.1611343 -1.440697,0.1611343 -0.919433,0 -1.540284,-0.064949 -1.540284,-0.1611343 z m 3.544951,0 c 0,-0.098829 0.778815,-0.1611344 2.014176,-0.1611344 1.235363,0 2.014178,0.062306 2.014178,0.1611344 0,0.098829 -0.778815,0.1611343 -2.014178,0.1611343 -1.235361,0 -2.014176,-0.062306 -2.014176,-0.1611343 z m 28.790611,-0.04004 c -0.222482,-0.162682 -0.279599,-0.3841372 -0.240531,-0.9326023 0.0503,-0.7061391 0.06241,-0.7201818 0.66383,-0.7697686 l 0.612599,-0.050505 -0.04863,0.9367462 c -0.0413,0.7955261 -0.09739,0.9437354 -0.372068,0.9831103 -0.177891,0.025499 -0.454731,-0.049643 -0.6152,-0.1669776 z M 50.225205,7.189931 c 0,-0.8395489 -0.381011,-0.783878 -0.452846,0.066167 -0.03804,0.4501616 0.01017,0.5917968 0.201418,0.5917968 0.186765,0 0.251428,-0.1692163 0.251428,-0.6579638 z M 14.976981,7.6464781 c 0.05102,-0.1533659 1.313179,-0.2206389 5.290571,-0.2819852 2.983587,-0.046015 5.361757,-0.1496651 5.54583,-0.241701 0.207915,-0.1039578 2.923806,-0.1325459 7.653872,-0.080567 l 7.331604,0.080567 0.01279,0.3625518 0.01279,0.3625513 h -7.062413 c -5.377177,0 -7.0528,-0.045782 -7.02213,-0.1918479 0.02216,-0.1055156 -0.08661,-0.2195984 -0.241702,-0.2535161 -0.175201,-0.038314 -0.281984,0.034336 -0.281984,0.1918484 0,0.2257811 -0.618454,0.2535156 -5.653123,0.2535156 -4.450813,0 -5.638872,-0.042839 -5.586114,-0.2014169 z M 41.28226,7.4450601 c 0,-0.2506534 0.09131,-0.4028354 0.241701,-0.4028354 0.150392,0 0.241702,0.152182 0.241702,0.4028354 0,0.2506534 -0.09131,0.4028349 -0.241702,0.4028349 -0.150391,0 -0.241701,-0.1521815 -0.241701,-0.4028349 z m 0.88038,0.1681928 C 42.269744,7.4841992 42.310599,7.3029235 42.253427,7.2104175 42.190903,7.1092523 42.325,7.0422247 42.589912,7.0422247 h 0.440433 L 42.6519,7.4450601 C 42.252968,7.869705 41.828782,8.0155264 42.16264,7.6132529 Z m 1.133796,-0.2286182 c 0,-0.2473366 0.943732,-0.34241 3.398903,-0.34241 2.059856,0 2.37894,0.033545 2.299064,0.241701 -0.07753,0.2020272 -0.552796,0.2417016 -2.895358,0.2417016 -1.541433,0 -2.802609,-0.063447 -2.802609,-0.1409926 z M 26.901038,6.6088801 c 0.155092,-0.04053 0.281985,-0.1408837 0.281985,-0.2230088 0,-0.2258943 0.768097,-0.1789128 0.851756,0.052101 0.05835,0.1611339 0.14117,0.1611339 0.414078,0 0.187623,-0.1107798 0.843649,-0.2014182 1.457832,-0.2014182 0.746547,0 1.141178,0.066764 1.190551,0.2014182 0.05908,0.1611339 0.116553,0.1611339 0.287355,0 0.117427,-0.1107798 0.410489,-0.2014182 0.651251,-0.2014182 0.240761,0 0.470981,0.090638 0.511601,0.2014182 0.05908,0.1611339 0.116554,0.1611339 0.287355,0 0.258652,-0.2440106 2.566062,-0.2802333 2.566062,-0.040286 0,0.088623 0.108765,0.161134 0.241701,0.161134 0.132936,0 0.241701,-0.064081 0.241701,-0.1424026 0,-0.2361708 3.741867,-0.2165393 3.909617,0.020511 0.114407,0.1616705 0.159736,0.16188 0.224998,0.00104 0.10152,-0.2502005 1.182812,-0.2689904 1.182812,-0.02056 0,0.1261992 0.07194,0.121156 0.238032,-0.016687 0.160118,-0.1328856 0.687571,-0.1789018 1.611366,-0.1405811 l 1.373331,0.056967 -2.4e-5,-0.4301688 c -1.9e-5,-0.3731068 0.106851,-0.4656668 0.805648,-0.69777 0.756163,-0.2511567 0.876667,-0.372761 0.821574,-0.8290794 -0.03299,-0.2732547 0.864943,-0.5346812 1.385007,-0.4032341 0.341761,0.086381 0.557112,0.3294128 0.882171,0.9955635 0.236519,0.4847076 0.48004,1.08069 0.541153,1.3244058 l 0.111118,0.4431189 -11.176007,-0.01869 C 31.648256,6.6909681 26.745946,6.649397 26.901038,6.6088655 Z M 48.098234,6.0431912 c 0.546936,-0.5469369 -0.09626,-1.4581305 -0.773443,-1.0957124 -0.314259,0.1681857 -0.454882,0.941615 -0.214846,1.1816505 0.175079,0.1750797 0.77986,0.1224898 0.988289,-0.085938 z M 47.31808,5.8256293 c -0.17125,-0.2063438 -0.160671,-0.2964251 0.06083,-0.5179309 0.250102,-0.2501013 0.286187,-0.2501013 0.536287,0 0.221506,0.2215058 0.232087,0.3115871 0.06084,0.5179309 -0.11402,0.1373838 -0.26206,0.2497883 -0.32898,0.2497883 -0.06692,0 -0.214962,-0.1124045 -0.32898,-0.2497883 z"
       id="path893" />
  </g>
</svg>
