<?xml version="1.0" encoding="UTF-8" standalone="no"?>
<svg
   xmlns:dc="http://purl.org/dc/elements/1.1/"
   xmlns:cc="http://creativecommons.org/ns#"
   xmlns:rdf="http://www.w3.org/1999/02/22-rdf-syntax-ns#"
   xmlns:svg="http://www.w3.org/2000/svg"
   xmlns="http://www.w3.org/2000/svg"
   xmlns:sodipodi="http://sodipodi.sourceforge.net/DTD/sodipodi-0.dtd"
   xmlns:inkscape="http://www.inkscape.org/namespaces/inkscape"
   width="476.36099"
   height="128"
   viewBox="0 0 126.03717 33.866668"
   version="1.1"
   id="svg8"
   inkscape:version="1.0.1 (3bc2e813f5, 2020-09-07)"
   sodipodi:docname="Rampage Icon.svg"
   inkscape:export-filename="C:\Users\deeev\Downloads\Rampage Icon.png"
   inkscape:export-xdpi="97.545326"
   inkscape:export-ydpi="97.545326">
  <defs
     id="defs2" />
  <sodipodi:namedview
     id="base"
     pagecolor="#ffffff"
     bordercolor="#666666"
     borderopacity="1.0"
     inkscape:pageopacity="0.0"
     inkscape:pageshadow="2"
     inkscape:zoom="0.9899495"
     inkscape:cx="197.13465"
     inkscape:cy="124.67476"
     inkscape:document-units="mm"
     inkscape:current-layer="layer1"
     inkscape:document-rotation="0"
     showgrid="false"
     units="px"
     inkscape:window-width="1366"
     inkscape:window-height="705"
     inkscape:window-x="-8"
     inkscape:window-y="-8"
     inkscape:window-maximized="1" />
  <metadata
     id="metadata5">
    <rdf:RDF>
      <cc:Work
         rdf:about="">
        <dc:format>image/svg+xml</dc:format>
        <dc:type
           rdf:resource="http://purl.org/dc/dcmitype/StillImage" />
        <dc:title></dc:title>
      </cc:Work>
    </rdf:RDF>
  </metadata>
  <g
     inkscape:label="Layer 1"
     inkscape:groupmode="layer"
     id="layer1">
    <path
       style="fill:#273839;fill-opacity:1;stroke-width:0.210341"
       d="m 62.384802,30.517475 c -0.161259,-0.260915 5.97e-4,-0.812515 0.679055,-2.311868 l 0.523363,-1.15687 -1.231651,-1.120329 c -1.905947,-1.733663 -2.067392,-1.820739 -2.636624,-1.422031 -0.286004,0.20033 -0.911349,0.333775 -1.564097,0.333775 -0.772693,0 -1.122622,0.09135 -1.208641,0.315514 -0.101905,0.265555 -0.771584,0.315508 -4.229324,0.315508 H 48.608635 V 24.52464 23.578106 l 2.208579,-0.0047 c 1.214719,-0.0024 4.196301,-0.0047 6.625739,-0.0047 2.429436,0 6.25512,0.0018 8.501516,0.0047 l 4.084363,0.0047 -0.0628,0.84203 c -0.06061,0.812643 -0.180625,0.937418 -3.439397,3.575797 -3.23364,2.618032 -3.850215,2.993396 -4.141831,2.521542 z m 1.578719,-1.365334 c 0,-0.17353 -0.141978,-0.315507 -0.315514,-0.315507 -0.17353,0 -0.315508,0.141977 -0.315508,0.315507 0,0.173537 0.141978,0.315514 0.315508,0.315514 0.173536,0 0.315514,-0.141977 0.315514,-0.315514 z m 2.884123,-2.564257 c 0.09904,-0.258104 -0.205721,-0.661932 -1.110894,-1.472006 -1.307499,-1.170137 -1.843031,-1.362823 -2.08166,-0.748993 -0.106691,0.274452 0.168528,0.647747 1.081786,1.467286 1.273966,1.143231 1.878459,1.359083 2.110768,0.753713 z m -1.731106,-0.927361 c -1.09374,-0.900129 -1.353791,-1.241055 -0.946658,-1.241055 0.279821,0 2.317473,1.710618 2.317629,1.945658 2.08e-4,0.317047 -0.34538,0.139436 -1.370971,-0.704603 z m 4.000337,-0.902615 c 0,-1.094951 -1.334104,-1.312019 -1.542763,-0.251018 -0.136582,0.694485 0.141272,0.994179 0.857705,0.925135 0.59998,-0.05783 0.685058,-0.141536 0.685058,-0.674117 z m -1.095744,0.269584 c -0.333281,-0.333282 -0.09815,-0.81836 0.39668,-0.81836 0.304095,0 0.395106,0.120297 0.345593,0.456787 -0.07911,0.537614 -0.406673,0.697174 -0.742273,0.361573 z m -11.982273,-0.53608 c 0.07611,-0.07612 0.03297,-0.265429 -0.09587,-0.420685 -0.177329,-0.213663 -1.017481,-0.282279 -3.456389,-0.282279 -3.083558,0 -3.673472,0.11105 -3.352112,0.63102 0.143974,0.232959 6.6753,0.301008 6.904371,0.07194 z M 50.97497,24.263123 c 0.896578,-0.03942 2.363706,-0.03942 3.260284,0 0.896577,0.03941 0.163014,0.07169 -1.630143,0.07169 -1.793155,0 -2.52672,-0.03226 -1.630141,-0.07169 z m 10.998962,-0.06798 c 0.193582,-0.313229 -0.03089,-0.483534 -0.433593,-0.328988 -0.185853,0.07132 -0.278999,0.224991 -0.206996,0.341496 0.170494,0.27587 0.465927,0.270098 0.640589,-0.01251 z m 33.821387,6.1259 c -0.35551,-0.216204 -0.761095,-0.70963 -0.901298,-1.096507 -0.140204,-0.386873 -0.815026,-2.331969 -1.499618,-4.32243 -1.078646,-3.136141 -1.212185,-3.690433 -1.000864,-4.154232 0.134122,-0.29437 0.312285,-0.535216 0.395897,-0.535216 0.267783,0 0.401813,0.915064 0.174225,1.189301 -0.257763,0.310571 -0.07036,0.703768 0.335515,0.703768 0.410043,0 1.227432,2.50945 0.932972,2.864256 -0.260857,0.314315 -0.08194,0.711537 0.320378,0.711537 0.1513,0 0.50935,0.657261 0.79568,1.460581 0.475302,1.333466 0.49157,1.489608 0.187015,1.794163 -0.304545,0.304555 -0.291095,0.344699 0.154563,0.461246 0.415456,0.108642 1.027801,1.040747 0.820123,1.248412 -0.03745,0.0375 -0.359078,-0.108683 -0.714588,-0.324879 z m 0.974547,-0.135164 c -0.117827,-0.309889 -0.160338,-0.733222 -0.09448,-0.940732 0.06785,-0.213897 -0.0097,-0.452369 -0.179154,-0.550653 -0.478621,-0.277599 -1.42331,-3.118133 -1.133429,-3.408014 0.179618,-0.179618 0.128162,-0.31813 -0.204795,-0.55135 -0.484831,-0.339585 -1.3733,-2.682314 -1.194228,-3.148963 0.06109,-0.159102 -0.08565,-0.485902 -0.325931,-0.726223 -0.640153,-0.640149 -0.539874,-1.006908 0.40742,-1.490181 l 0.844355,-0.430761 0.172592,0.479075 c 1.186201,3.292662 3.684522,10.881637 3.605637,10.952596 -0.05673,0.0511 -0.458876,0.15718 -0.893512,0.235767 -0.721828,0.130511 -0.808814,0.0941 -1.004478,-0.420561 z m -22.499642,-0.0018 c -1.174961,-0.508934 -1.876088,-1.322698 -2.863148,-3.323095 -0.877401,-1.778157 -1.175897,-3.072472 -0.708581,-3.072472 0.117925,0 0.672663,0.970198 1.232749,2.155993 1.329703,2.815218 2.328682,3.733556 4.061409,3.733556 0.35384,0 2.650801,-0.520598 5.104361,-1.156876 2.453568,-0.63628 4.587331,-1.156877 4.741718,-1.156877 0.67852,0 -0.13449,0.263825 -2.922994,0.948524 -1.913073,0.469744 -3.488618,0.999029 -4.376638,1.470279 -1.56452,0.83025 -2.972479,0.962497 -4.268876,0.400968 z m 22.932034,-5.539961 c -1.067206,-3.115734 -1.875539,-5.76988 -1.796293,-5.898103 0.07926,-0.128228 0.316262,-0.178491 0.526702,-0.111706 0.477768,0.151643 2.779795,-0.951703 2.656434,-1.273209 -0.126577,-0.329841 2.051749,-1.355718 2.872339,-1.352724 l 0.67894,0.0024 2.05083,6.054551 c 1.12796,3.329998 2.05082,6.157703 2.05082,6.283783 0,0.237764 -1.43951,1.011173 -1.59417,0.856503 -0.0482,-0.04818 -0.74381,-2.020348 -1.54579,-4.382548 -0.80195,-2.362203 -1.61236,-4.734948 -1.80087,-5.272776 -0.23223,-0.662593 -0.49128,-1.018184 -0.80348,-1.102922 -0.645535,-0.175218 -3.826039,1.25565 -4.093264,1.841511 -0.16183,0.354764 0.140435,1.45916 1.4327,5.234872 0.900779,2.631891 1.563012,4.785256 1.471623,4.785256 -0.0914,0 -1.039314,-2.549232 -2.106521,-5.664962 z m -17.989023,5.111076 c 0.988129,-0.562034 6.836075,-1.979307 6.836075,-1.656747 0,0.146331 -0.118313,0.361949 -0.262927,0.479147 -0.481085,0.389894 -4.324159,1.317492 -5.245191,1.266019 -0.499002,-0.0279 -1.143909,0.02159 -1.433127,0.109898 -0.445071,0.135931 -0.428919,0.105464 0.10517,-0.198317 z m 19.043669,-4.021027 c -0.831989,-2.400517 -1.529048,-4.597824 -1.549043,-4.882899 -0.02938,-0.419237 0.164712,-0.63012 1.01537,-1.103102 1.381383,-0.76809 2.583159,-1.138082 2.845269,-0.875974 0.22545,0.225451 3.57384,9.847928 3.56373,10.241328 -0.0122,0.47871 -0.4163,-0.461301 -1.35196,-3.145632 -2.23197,-6.403352 -2.35338,-6.699441 -2.77304,-6.762932 -0.5468,-0.08272 -2.792856,0.929069 -2.945509,1.326876 -0.06721,0.175163 0.598384,2.354106 1.479113,4.842104 0.88071,2.487995 1.601316,4.568897 1.601316,4.624216 0,0.05533 -0.0838,0.100591 -0.186275,0.100591 -0.102458,0 -0.867,-1.964062 -1.698971,-4.364576 z m 3.256986,3.845196 c 1.332,-0.421143 2.33714,-0.60283 2.09888,-0.379388 -0.21474,0.201386 -2.25096,0.705277 -2.69788,0.66763 -0.13579,-0.01145 0.13376,-0.141149 0.599,-0.288242 z m -1.05622,-0.269746 c 0.11568,-0.112963 0.68361,-0.317189 1.26204,-0.453836 0.57844,-0.136646 1.2292,-0.301637 1.44615,-0.36664 0.23565,-0.07062 0.34175,-0.03297 0.26356,0.09354 -0.072,0.116457 -0.62808,0.32417 -1.23578,0.46158 -0.60773,0.137417 -1.29426,0.299546 -1.52563,0.360291 -0.27583,0.07241 -0.34825,0.03971 -0.21034,-0.09494 z M 74.24874,28.784126 c -0.520607,-0.344736 -1.038998,-1.101636 -1.90879,-2.787017 -1.2603,-2.44208 -1.334378,-2.629259 -1.040453,-2.629259 0.101408,0 0.636535,0.942747 1.189173,2.094996 1.880298,3.920448 2.049188,3.96531 8.647338,2.297085 4.278527,-1.081757 5.508146,-1.309958 5.106122,-0.947644 -0.04816,0.04346 -2.154111,0.611363 -4.679796,1.262048 -5.113746,1.317438 -6.232041,1.425972 -7.313594,0.709791 z m 25.683071,-0.132191 c 0,-0.188047 2.413999,-0.866935 3.082649,-0.866935 0.70708,0 -0.0336,0.362939 -1.44315,0.707221 -1.643253,0.401341 -1.639499,0.400978 -1.639499,0.159714 z m 6.636199,-0.670628 c -0.0612,-0.165814 -1.00878,-2.928111 -2.10599,-6.138439 l -1.99486,-5.836963 h 0.62538 c 0.34397,0 0.62541,0.03816 0.62541,0.08475 0,0.04663 0.86411,2.611069 1.92023,5.698786 l 1.92022,5.614038 -0.43965,0.43965 c -0.35205,0.352044 -0.46178,0.37958 -0.55074,0.138173 z M 61.176501,26.600356 c -0.896575,-0.744828 -1.630137,-1.435425 -1.630137,-1.534674 0,-0.355678 0.698694,-0.439485 1.133927,-0.136015 0.243993,0.170126 0.899662,0.716534 1.457042,1.214229 0.84277,0.752537 0.984442,0.981172 0.841363,1.357794 -0.162244,0.427075 -0.264959,0.375705 -1.802195,-0.901334 z m 38.544963,1.218117 c 0,-0.09728 0.496946,-0.288664 1.104306,-0.425298 0.60735,-0.136643 1.31724,-0.304722 1.57755,-0.373518 0.2603,-0.0688 0.47327,-0.03089 0.47327,0.08422 0,0.115115 -0.61104,0.362789 -1.35787,0.550383 -1.548236,0.388906 -1.797256,0.411659 -1.797256,0.164218 z M 79.911321,26.96518 c 0.144768,-1.518017 -1.375613,-5.97217 -2.246835,-6.582395 -0.382454,-0.267884 -0.413476,-0.403578 -0.234753,-1.026758 0.113268,-0.394944 0.206586,-1.049994 0.207373,-1.455664 l 0.0012,-0.737582 1.208033,-0.05965 c 0.968148,-0.04781 1.303707,-0.162667 1.689815,-0.578438 0.264928,-0.285331 0.575844,-0.51879 0.690877,-0.51879 0.480656,0 -1.239151,1.231275 -1.81056,1.296249 -0.585677,0.06659 -0.637667,0.14885 -0.842567,1.333016 -0.215272,1.244107 -0.208649,1.27485 0.466333,2.163024 0.724059,0.952753 1.623638,3.482017 1.927406,5.419093 0.194887,1.242797 0.198215,1.234926 -0.602605,1.425473 -0.505553,0.120294 -0.527023,0.08825 -0.453992,-0.67758 z m 19.514932,0.01133 c -0.169106,-0.273639 -0.06554,-0.328648 1.424167,-0.756342 1.1965,-0.343512 1.81583,-0.325648 1.81583,0.05241 0,0.100908 -0.49693,0.295266 -1.1043,0.431902 -0.60735,0.136635 -1.30657,0.301925 -1.55381,0.367303 -0.247252,0.06538 -0.509092,0.02254 -0.581887,-0.09525 z M 81.150968,25.839352 c -0.180541,-1.670323 -0.912697,-3.78496 -1.732011,-5.002456 -0.674755,-1.002683 -0.720612,-1.16873 -0.57077,-2.066682 0.137797,-0.825748 0.243433,-0.987268 0.684671,-1.046864 0.286958,-0.03876 0.758371,-0.291652 1.04759,-0.561976 0.669693,-0.625953 1.927674,-0.884453 2.273913,-0.467263 0.197316,0.237746 0.157487,0.382203 -0.192776,0.699184 -0.57642,0.521645 -1.029431,1.412604 -1.029431,2.024616 0,0.268458 0.433658,1.228927 0.963682,2.134368 1.10081,1.880517 2.082056,4.324791 1.833522,4.567254 -0.127801,0.12468 -2.755694,0.824116 -3.096338,0.824116 -0.03447,0 -0.116406,-0.496934 -0.182052,-1.104297 z m 2.593353,0.147201 c 0.223557,-0.269351 0.209739,-0.386943 -0.07943,-0.676091 -0.326478,-0.326476 -0.373579,-0.326476 -0.700056,0 -0.289151,0.289148 -0.30296,0.40674 -0.07943,0.676091 0.148837,0.179338 0.342081,0.326067 0.429435,0.326067 0.08737,0 0.280614,-0.146729 0.429443,-0.326067 z m -0.639774,-0.304952 c 0,-0.115691 0.09465,-0.210344 0.21033,-0.210344 0.115689,0 0.210349,0.09465 0.210349,0.210344 0,0.115687 -0.09466,0.210341 -0.210349,0.210341 -0.115679,0 -0.21033,-0.09465 -0.21033,-0.210341 z m -2.839606,-6.833202 c 0,-0.481275 -0.706148,-0.707352 -0.954458,-0.305574 -0.260158,0.420941 0.02099,0.856567 0.507962,0.787087 0.283859,-0.04048 0.446496,-0.215894 0.446496,-0.481513 z m -46.380167,7.456822 c 0,-0.235444 0.149579,-0.656367 0.332399,-0.93539 0.182822,-0.279019 0.315629,-0.86727 0.295131,-1.307232 -0.02049,-0.439954 -0.0281,-0.918235 -0.01689,-1.062848 0.01536,-0.19803 0.817016,-0.262924 3.248064,-0.262924 2.960553,0 3.259191,0.03482 3.608396,0.420685 0.335983,0.371255 0.647843,0.420677 2.654459,0.420677 2.058477,0 2.295066,-0.03983 2.498893,-0.420677 0.158639,-0.296423 0.440415,-0.420685 0.953933,-0.420685 h 0.728795 l -0.03535,1.630143 c -0.01946,0.89658 -0.0716,1.251529 -0.115902,0.788779 -0.0443,-0.462749 -0.235784,-0.959679 -0.425525,-1.104293 -0.43256,-0.329674 -6.405794,-0.368179 -7.009314,-0.04519 -0.297223,0.159065 -0.406855,0.442465 -0.406855,1.051706 v 0.833964 h -2.285381 c -1.966888,0 -2.359916,0.05861 -2.820194,0.420677 -0.692571,0.544784 -1.20465,0.541635 -1.20465,-0.0074 z m 6.06127,-2.358936 0.06656,-0.578433 h -2.012209 c -1.967803,0 -2.01221,0.01085 -2.01221,0.490792 0,0.269942 0.06651,0.557306 0.147796,0.638593 0.08129,0.08129 0.956831,0.120727 1.945652,0.08765 1.788011,-0.05983 1.798223,-0.06332 1.864415,-0.638594 z m -3.747521,-0.05259 c 0,-0.238384 0.257083,-0.315514 1.051705,-0.315514 0.794621,0 1.051704,0.07713 1.051704,0.315514 0,0.238383 -0.257083,0.315512 -1.051704,0.315512 -0.794622,0 -1.051705,-0.07713 -1.051705,-0.315512 z m 2.365281,0.05259 c 0.133223,-0.40452 1.000172,-0.462785 1.000172,-0.06722 0,0.214766 -0.189901,0.330145 -0.543378,0.330145 -0.340661,0 -0.511079,-0.09809 -0.456794,-0.26293 z M 35.35716,23.250268 c 0,-0.347078 -0.332432,-0.405718 -0.525853,-0.09276 -0.171534,0.277544 0.07998,0.671422 0.330046,0.516869 0.107692,-0.06656 0.195807,-0.257409 0.195807,-0.424113 z m 49.366508,2.810243 c 0.122791,-0.642379 -0.569164,-2.390941 -1.738803,-4.393873 -1.143496,-1.958172 -1.203997,-2.736554 -0.301007,-3.872824 0.714848,-0.899514 0.730619,-0.958405 0.368102,-1.374582 -0.144615,-0.166012 -0.0027,-0.0738 0.315513,0.204941 0.705871,0.618428 0.706781,0.646326 0.05257,1.610335 -0.289221,0.426187 -0.525643,0.974648 -0.525378,1.218802 2.13e-4,0.244155 0.474787,1.28951 1.054491,2.323012 1.008715,1.798375 2.041867,4.244009 1.866807,4.419071 -0.04568,0.04567 -0.331418,0.145375 -0.634987,0.221564 -0.493763,0.123928 -0.541977,0.08637 -0.457327,-0.356446 z m 21.643692,-3.271096 c -0.67806,-2.053458 -1.51321,-4.514445 -1.85586,-5.468868 l -0.623,-1.735308 h -1.45773 c -1.24985,0 -1.66817,0.105957 -2.933113,0.742977 -0.811438,0.408634 -1.420825,0.831208 -1.354167,0.939046 0.06665,0.107835 -0.3484,0.434015 -0.922322,0.724839 -0.652751,0.330776 -1.072249,0.44249 -1.120294,0.298347 -0.04579,-0.13744 -0.773794,0.120011 -1.803903,0.637937 -2.160359,1.086203 -2.287752,0.84491 -0.147267,-0.278929 0.866407,-0.45489 1.575295,-0.937446 1.575295,-1.072339 0,-0.280831 1.642018,-1.075724 2.035719,-0.985475 0.143643,0.03291 0.836661,-0.23064 1.540024,-0.585707 1.210408,-0.611 1.392238,-0.642367 3.395588,-0.585719 l 2.11671,0.05986 1.65229,5.046388 c 1.50104,4.584444 1.80114,5.996505 1.27438,5.996505 -0.0767,0 -0.69425,-1.680095 -1.37235,-3.733547 z m -65.751678,2.371546 v -0.951745 h 3.482719 3.482719 l -0.06468,0.893945 -0.06468,0.893952 -3.418039,0.05778 -3.418039,0.05778 z m 58.400092,0.629434 c -0.174232,-0.454049 2.770126,-1.35357 3.033846,-0.926857 0.24176,0.391183 0.0754,0.505624 -1.30882,0.899944 -1.459812,0.415878 -1.57508,0.417679 -1.725026,0.02689 z m -0.43941,-1.100525 c -0.0698,-0.181787 -0.09958,-0.357768 -0.06628,-0.391069 0.09545,-0.09545 2.979936,-1.126592 3.018046,-1.078888 0.0188,0.02356 0.0957,0.24341 0.17094,0.488644 0.11195,0.364895 0.0308,0.468915 -0.44713,0.572686 -0.32116,0.06975 -1.02599,0.264587 -1.566333,0.432976 -0.880303,0.274364 -0.995571,0.271829 -1.109226,-0.02432 z m 15.074846,-2.262159 c -2.24602,-2.043817 -2.52778,-2.064703 -4.3427,-0.321905 -1.33419,1.281139 -1.59409,1.448499 -1.59409,1.026496 0,-0.129546 -0.58145,-2.022614 -1.29212,-4.206815 l -1.29209,-3.971275 -2.44145,0.0035 c -2.28927,0.0035 -2.50959,0.04139 -3.534952,0.606748 -1.004376,0.553802 -1.325403,0.608948 -1.325403,0.227692 0,-0.07885 0.378619,-0.31407 0.84137,-0.522743 0.954895,-0.430605 0.981147,-0.478525 0.473253,-0.864068 -0.523921,-0.397722 -8.522386,-0.416504 -8.85081,-0.02081 -0.170172,0.205047 0.05997,0.632315 0.934947,1.735314 0.638374,0.804807 1.283366,1.58896 1.433303,1.742553 0.225799,0.231295 0.638865,0.09548 2.404772,-0.790694 1.172668,-0.58848 2.132142,-1.023367 2.132142,-0.966419 0,0.05694 -0.473271,0.34337 -1.051707,0.636488 -0.578436,0.293113 -1.051708,0.626615 -1.051708,0.741117 0,0.225373 -3.92851,2.247439 -4.059045,2.089249 -0.04357,-0.05276 -0.807953,-1.066133 -1.698702,-2.251934 l -1.619548,-2.155992 h -2.937096 c -1.639821,0 -2.93708,-0.08516 -2.93708,-0.192813 0,-0.106048 0.07099,-0.22436 0.157753,-0.262924 0.08676,-0.03857 0.713571,-0.709029 1.392908,-1.489914 l 1.235134,-1.419802 2.235489,0.0083 2.23548,0.0083 0.690274,0.938335 0.690265,0.938332 h 13.552921 c 15.37266,0 13.83547,0.202293 14.10861,-1.856687 0.13607,-1.025809 0.17907,-1.088086 0.75126,-1.088086 h 0.60692 l -0.0555,6.57315 -0.0556,6.573154 -1.99824,0.05896 -1.99824,0.05897 z m 5.31646,-1.163268 c 0,-0.154254 -0.11832,-0.319896 -0.26293,-0.368095 -0.15641,-0.05212 -0.26294,0.09699 -0.26294,0.368095 0,0.271105 0.10653,0.420231 0.26294,0.368095 0.14461,-0.04817 0.26293,-0.213848 0.26293,-0.368095 z m -1.07422,-0.122374 c 0.24722,-0.644251 0.14096,-5.880095 -0.12474,-6.145787 -0.13881,-0.138822 -0.6005,-0.252406 -1.02594,-0.252406 -0.43097,0 -0.8895,-0.139724 -1.03539,-0.315514 -0.36093,-0.434881 -8.23306,-0.471025 -8.59124,-0.03941 -0.16976,0.204535 -0.0518,0.817706 0.45485,2.366336 0.63969,1.954958 0.71753,2.085511 1.20247,2.016819 0.28518,-0.04042 1.30218,-0.118427 2.26,-0.173388 l 1.74149,-0.09994 1.71076,1.488016 c 1.46256,1.272132 1.82461,1.488018 2.49541,1.488018 0.52147,0 0.82748,-0.111605 0.91233,-0.332715 z m -3.21047,-1.364356 -1.71766,-1.486735 -1.94184,0.0723 c -1.06801,0.03977 -2.07453,0.117216 -2.23668,0.172098 -0.21345,0.07225 -0.45934,-0.422782 -0.89071,-1.793269 -0.32773,-1.041186 -0.59733,-1.964061 -0.59912,-2.050827 -0.002,-0.08676 1.83093,-0.157753 4.07266,-0.157753 3.36642,0 4.12149,0.05491 4.33775,0.315513 0.15036,0.181186 0.60909,0.315507 1.07746,0.315507 h 0.81561 v 3.049944 3.049945 h -0.59991 c -0.44105,0 -1.05473,-0.393669 -2.31756,-1.486731 z m 2.18314,-0.409356 c 0.19568,-0.316616 -0.0772,-0.992248 -0.46019,-1.139197 -0.98067,-0.376318 -1.71714,0.740371 -0.91608,1.389029 0.46854,0.379394 1.05296,0.273312 1.37627,-0.249832 z m -1.13681,0.02081 c -0.39771,-0.25156 -0.12043,-0.908988 0.34553,-0.819254 0.20281,0.03905 0.36874,0.251136 0.36874,0.471287 0,0.466691 -0.29745,0.611601 -0.71427,0.347967 z m -7.29342,0.1687 c -0.17923,-0.290012 -0.72147,-0.2194 -0.72147,0.09394 0,0.154248 0.0623,0.342731 0.13841,0.418855 0.19021,0.190219 0.7262,-0.281189 0.58306,-0.512804 z M 87.729816,14.220679 c 0.317569,-0.38265 0.141891,-0.912953 -0.36109,-1.089984 -0.205082,-0.07218 -0.62548,-0.364334 -0.934229,-0.64923 -0.64951,-0.59936 -0.940551,-0.494159 -1.351095,0.488413 -0.408001,0.976476 -0.208856,1.316388 0.826356,1.410511 0.481668,0.04383 1.029801,0.09617 1.218087,0.11638 0.188294,0.02022 0.459172,-0.104027 0.601971,-0.27609 z m -0.904876,-0.03332 c -0.297732,-0.297746 -0.129256,-0.705523 0.291503,-0.705523 0.294052,0 0.413955,0.114229 0.368098,0.350668 -0.07508,0.387127 -0.434144,0.580298 -0.659601,0.354855 z M 85.207943,13.52204 c 0,-0.209267 0.133437,-0.562957 0.296517,-0.785988 0.289433,-0.395815 0.306856,-0.396144 0.729426,-0.01371 0.335666,0.303772 0.385527,0.480332 0.22194,0.785983 -0.280456,0.524038 -1.247883,0.534681 -1.247883,0.01371 z m 33.864897,-1.407422 c 0,-0.173529 -0.14198,-0.315507 -0.31551,-0.315507 -0.17354,0 -0.31553,0.141978 -0.31553,0.315507 0,0.173537 0.14199,0.315514 0.31553,0.315514 0.17353,0 0.31551,-0.141977 0.31551,-0.315514 z M 98.163883,23.449192 c -0.07434,-0.193541 -0.109141,-0.36675 -0.07749,-0.384916 0.03161,-0.01819 0.697421,-0.28052 1.479502,-0.583017 1.359325,-0.525766 1.431125,-0.532909 1.629565,-0.162106 0.18074,0.337687 0.0648,0.440783 -0.89612,0.796645 -1.890789,0.700262 -1.988807,0.715561 -2.135453,0.333394 z M 119.91419,16.426606 V 9.0367304 l 0.57844,0.066556 0.57844,0.066556 v 7.2567636 7.25676 l -0.57844,0.06656 -0.57844,0.06656 z m -78.562316,6.310138 c -0.209391,-0.231371 -0.484358,-0.420523 -0.611038,-0.420332 -0.147095,2.33e-4 -0.230325,-0.588842 -0.230325,-1.630136 v -1.630497 h -0.841363 -0.841365 l -0.06262,1.438738 c -0.03445,0.791303 0.02867,1.548531 0.140245,1.682726 0.152211,0.183064 -0.312579,0.226108 -1.861295,0.172374 -1.329423,-0.04614 -2.231165,0.01777 -2.533328,0.179474 -0.671002,0.359111 -0.829271,-0.0042 -0.833127,-1.911676 -0.0029,-1.395987 0.05711,-1.650154 0.483603,-2.050822 l 0.486824,-0.457347 h 11.362379 c 6.249309,0 11.428679,0.0663 11.509713,0.147336 0.08103,0.08104 -0.919164,1.216877 -2.222673,2.52409 l -2.370014,2.376757 h -2.108828 c -1.881029,0 -2.137209,-0.04543 -2.371548,-0.420685 -0.190802,-0.305519 -0.49052,-0.420678 -1.0949,-0.420678 -0.616908,0 -0.890421,0.108827 -1.057323,0.420678 -0.202792,0.378925 -0.440416,0.420685 -2.393721,0.420685 -1.901446,0 -2.215476,-0.05181 -2.549291,-0.420685 z m 14.408353,-1.998238 c 2.198619,-2.204874 2.480163,-2.418918 3.181762,-2.418918 0.490147,0 0.813679,0.114593 0.890779,0.315513 0.13251,0.345302 1.1135,0.421555 1.584728,0.123178 0.161468,-0.102244 0.235425,-0.337426 0.164354,-0.522637 -0.110865,-0.288902 0.079,-0.336739 1.336567,-0.336739 h 1.465788 v 0.736198 c 0,0.595963 -0.08014,0.736192 -0.420684,0.736192 -0.377535,0 -0.420685,0.140224 -0.420685,1.367213 0,1.226988 0.04317,1.367218 0.420685,1.367218 0.308501,0 0.420684,0.140224 0.420684,0.52585 v 0.525855 h -5.518023 -5.518017 z m 6.977271,0.598425 c 0.477304,-0.431954 0.489002,-0.870682 0.03655,-1.370643 -0.489902,-0.541327 -4.357086,-0.569899 -4.946434,-0.03655 -0.472087,0.42723 -0.493295,0.985587 -0.05414,1.424761 0.48973,0.489729 4.418815,0.475818 4.964007,-0.01759 z M 57.777337,20.92219 c -0.136365,-0.355372 0.199777,-0.919877 0.547756,-0.919877 0.109786,0 0.04758,0.152013 -0.138185,0.337796 -0.260802,0.260808 -0.282326,0.404627 -0.09444,0.631026 0.148487,0.178914 0.160089,0.293227 0.02976,0.293227 -0.117478,0 -0.272679,-0.153981 -0.34489,-0.342172 z m 4.695305,0.04894 c 0.187886,-0.2264 0.166362,-0.370218 -0.09444,-0.631027 -0.185789,-0.185783 -0.24797,-0.337796 -0.138185,-0.337796 0.10978,0 0.307483,0.129982 0.439329,0.288851 0.262907,0.316783 0.103407,0.973198 -0.23647,0.973198 -0.130331,0 -0.118723,-0.114312 0.02975,-0.293226 z m 2.28076,1.660439 c 0.107379,-0.561714 0.682502,-0.73896 0.682502,-0.210336 0,0.26494 0.45712,0.315507 2.852022,0.315507 1.847779,0 2.806236,0.07406 2.722016,0.210341 -0.0772,0.124901 -1.394735,0.210343 -3.243532,0.210343 h -3.113533 z m 56.798908,-3.94389 c -0.0333,-2.45836 -0.0336,-5.493422 -6e-4,-6.744587 0.0582,-2.2133753 0.0724,-2.2730533 0.52585,-2.2085819 0.36293,0.051632 0.4815,0.2291357 0.53599,0.8024599 0.0759,0.798074 -0.29808,2.313752 -0.57082,2.313752 -0.16267,0 -0.13973,1.375158 0.0632,3.786135 0.0536,0.636279 0.11771,1.2042 0.14262,1.262041 0.065,0.151016 0.16727,1.002379 0.25951,2.160661 0.0439,0.552079 0.14095,1.064787 0.21551,1.139347 0.25852,0.25853 0.1339,1.299098 -0.19498,1.627979 -0.84376,0.843772 -0.91257,0.552031 -0.97612,-4.139206 z M 65.751417,22.31606 c -0.07151,-0.115688 0.02755,-0.210341 0.220151,-0.210341 0.19258,0 0.631365,-0.236638 0.975082,-0.525856 0.34372,-0.289212 0.759659,-0.525849 0.924318,-0.525849 0.221098,0 0.299373,-0.290096 0.299373,-1.109552 0,-1.10126 0.0118,-1.121269 1.577556,-2.676584 0.867655,-0.861869 1.577554,-1.68213 1.577554,-1.822807 0,-0.73569 -0.627784,-0.381202 -2.335927,1.31903 -1.62783,1.620288 -1.870888,1.955841 -1.870888,2.582812 0,0.666491 -0.02766,0.696858 -0.368095,0.404454 -0.202456,-0.173874 -0.533745,-0.374879 -0.736198,-0.446679 -0.236261,-0.08378 -0.368097,-0.349625 -0.368097,-0.742256 0,-0.487886 0.34331,-0.94694 1.695974,-2.267765 l 1.695969,-1.656049 3.773209,-0.105171 c 2.075268,-0.05783 3.773067,-0.03417 3.772895,0.05259 -1.74e-4,0.08676 -0.101559,0.157761 -0.225291,0.157761 -0.123731,0 -0.194721,0.212965 -0.157753,0.473267 0.06238,0.439215 0.172933,0.473266 1.536717,0.473266 1.271057,0 1.479796,-0.05343 1.545668,-0.395481 0.04192,-0.217508 -0.04293,-0.469063 -0.18843,-0.559 -0.147659,-0.09126 0.354651,-0.195358 1.136622,-0.235544 0.770666,-0.03959 1.401013,-0.04228 1.400769,-0.0059 -2.09e-4,0.03637 -0.40272,0.533254 -0.894387,1.104186 l -0.893951,1.038052 -3.438171,1.01e-4 c -2.87045,8.9e-5 -3.539041,0.05969 -4.049061,0.360965 l -0.610891,0.360863 v 2.331502 c 0,1.532938 -0.08645,2.417952 -0.252412,2.58391 -0.316498,0.316502 -5.549003,0.354836 -5.742305,0.04209 z m 5.354086,-0.303932 c 0.138732,-0.167164 0.221312,-0.522119 0.18351,-0.788782 -0.05306,-0.374183 -0.223113,-0.499764 -0.745123,-0.550217 -0.576071,-0.05569 -0.696542,0.01491 -0.812265,0.475997 -0.238062,0.948502 0.774864,1.584763 1.373878,0.863002 z m -1.042094,-0.514927 c 0,-0.470071 0.486295,-0.714113 0.799293,-0.401117 0.312996,0.312992 0.06895,0.799291 -0.401116,0.799291 -0.250452,0 -0.398177,-0.147728 -0.398177,-0.398174 z m 0.584216,-1.401647 c 0.858386,-0.601238 0.38423,-2.196656 -0.652843,-2.196656 -1.10247,0 -1.621183,1.569601 -0.725938,2.196656 0.257119,0.180089 0.567342,0.327439 0.689394,0.327439 0.122045,0 0.432275,-0.14735 0.689387,-0.327439 z m -1.362615,-0.35617 c -0.358289,-0.473667 -0.26466,-1.199287 0.18586,-1.440401 0.314255,-0.168183 0.393763,-0.168289 0.289995,-3.76e-4 -0.08146,0.131794 0.0035,0.231318 0.197373,0.231318 0.19391,0 0.278826,-0.09952 0.197368,-0.23133 -0.10377,-0.167901 -0.02427,-0.167795 0.289995,3.81e-4 0.779406,0.417132 0.411389,1.703331 -0.487363,1.703331 -0.260892,0 -0.563842,-0.118317 -0.673228,-0.262923 z m 1.022488,-0.396776 c -0.249938,-0.09246 -0.454432,-0.224067 -0.454432,-0.292468 0,-0.0684 0.09466,-0.06586 0.210343,0.0054 0.115683,0.07151 0.210336,0.02415 0.210336,-0.105169 0,-0.129344 0.09465,-0.176667 0.210342,-0.105172 0.115689,0.07151 0.210343,0.04871 0.210343,-0.05068 0,-0.09938 -0.33129,-0.180686 -0.736192,-0.180686 -0.404908,0 -0.736197,0.04871 -0.736197,0.10829 0,0.285754 0.981986,0.995443 1.243218,0.898483 0.214038,-0.07944 0.170095,-0.156944 -0.157761,-0.278226 z m 5.01443,-4.283312 c 0,-0.24221 -0.268767,-0.315507 -1.156876,-0.315507 -0.888102,0 -1.156876,0.07329 -1.156876,0.315507 0,0.242211 0.268774,0.315513 1.156876,0.315513 0.888109,0 1.156876,-0.0733 1.156876,-0.315513 z m -1.524972,-0.04328 c 0.260295,-0.05014 0.68624,-0.05014 0.946535,0 0.260294,0.05015 0.04734,0.09116 -0.473267,0.09116 -0.520591,0 -0.733563,-0.04102 -0.473268,-0.09116 z m 23.923559,7.295628 c -0.07295,-0.118109 0.20537,-0.354739 0.618602,-0.52585 0.413232,-0.171109 1.097138,-0.454323 1.519825,-0.629375 0.422668,-0.17505 0.812968,-0.273788 0.867348,-0.219411 0.2818,0.281807 -0.25631,0.725514 -1.374268,1.133141 -1.440885,0.525378 -1.45479,0.527434 -1.631507,0.241495 z M 5.8393222,22.175835 c -0.077124,-0.07712 -0.1402268,-0.929005 -0.1402268,-1.893068 0,-1.47406 0.054088,-1.752839 0.3400426,-1.752839 0.2611328,0 0.301885,0.109821 0.1756053,0.473267 -0.2117625,0.609461 -0.2117625,2.230136 0,2.839602 0.1565859,0.450663 -0.062997,0.645462 -0.3754211,0.333038 z M 26.5582,22.053133 C 26.528583,21.74483 26.305401,21.685038 25.184204,21.685038 H 23.845565 L 23.518534,20.791092 C 23.338669,20.29942 23.136003,19.66051 23.068167,19.371291 l -0.123337,-0.525855 0.232913,0.525855 c 0.509952,1.151325 0.517924,1.156877 1.662372,1.156877 1.127804,0 1.215817,-0.05759 1.607983,-1.051705 0.128368,-0.325417 0.182239,-0.21698 0.237882,0.478823 0.03956,0.494731 0.03496,1.251959 -0.01024,1.682727 -0.04519,0.430772 -0.09809,0.617575 -0.117537,0.41512 z m 12.374754,-1.4198 v -1.262042 h 0.631022 0.631023 v 1.262042 1.262047 h -0.631023 -0.631022 z m 24.904777,0.968654 c -0.06191,-0.161362 -0.08262,-0.658293 -0.04597,-1.104288 l 0.0666,-0.810901 1.209459,-0.06308 1.209465,-0.06307 v 1.167369 1.167372 h -1.163478 c -0.80118,0 -1.198534,-0.09136 -1.276065,-0.293393 z M 9.3129189,21.292311 C 9.1390498,21.182066 9.060508,20.810196 9.1025783,20.296414 c 0.065583,-0.80089 0.087756,-0.821448 0.9541337,-0.884293 0.799627,-0.05801 0.900278,-0.01139 1.021921,0.473268 0.07421,0.295683 0.07554,0.774238 0.0029,1.063456 -0.106961,0.426164 -0.260813,0.525242 -0.811581,0.522631 -0.3737806,-0.0018 -0.8044665,-0.0824 -0.9570822,-0.179165 z m 2.2757201,-0.133123 c 0,-0.173607 0.186237,-0.315513 0.414082,-0.315513 0.281654,0 0.37536,0.100902 0.293006,0.315513 -0.06659,0.173531 -0.252926,0.315514 -0.41408,0.315514 -0.161154,0 -0.293008,-0.141983 -0.293008,-0.315514 z m 1.189944,0.01032 c -0.09277,-0.241765 0.01346,-0.325841 0.411743,-0.325841 0.335885,0 0.504014,0.0984 0.449235,0.262925 -0.13085,0.392995 -0.717855,0.435889 -0.860978,0.06291 z m 1.258083,-0.01032 c -0.09069,-0.23632 0.03399,-0.315513 0.496747,-0.315513 0.462755,0 0.587431,0.07919 0.496745,0.315513 -0.06659,0.173531 -0.290125,0.315514 -0.496745,0.315514 -0.206621,0 -0.430157,-0.141983 -0.496747,-0.315514 z m 1.478337,0.175283 c -0.284892,-0.28489 -0.12588,-0.490796 0.379024,-0.490796 0.375138,0 0.485647,0.08757 0.398178,0.315513 -0.125603,0.327313 -0.533237,0.419248 -0.777202,0.175283 z m 1.262045,0 c -0.284891,-0.28489 -0.125879,-0.490796 0.379023,-0.490796 0.375139,0 0.48565,0.08757 0.398178,0.315513 -0.125602,0.327313 -0.533236,0.419248 -0.777201,0.175283 z m 1.256095,-0.175283 c -0.08721,-0.22727 0.02231,-0.315513 0.391575,-0.315513 0.369271,0 0.478787,0.08825 0.391577,0.315513 -0.06659,0.173531 -0.242801,0.315514 -0.391577,0.315514 -0.148777,0 -0.324986,-0.141983 -0.391575,-0.315514 z m 1.262044,0 c -0.09068,-0.23632 0.03399,-0.315513 0.496747,-0.315513 0.462756,0 0.587432,0.07919 0.496747,0.315513 -0.06659,0.173531 -0.290127,0.315514 -0.496747,0.315514 -0.206621,0 -0.430156,-0.141983 -0.496747,-0.315514 z m 1.338111,-0.01002 c 0,-0.265434 0.239683,-0.313986 1.297936,-0.26293 0.80366,0.03875 1.330993,0.16275 1.384742,0.325548 0.06356,0.192509 -0.284069,0.262931 -1.297935,0.262931 -1.10963,0 -1.384743,-0.06468 -1.384743,-0.325549 z m 76.774413,0.08379 c 0,-0.3969 2.786839,-1.468622 2.994529,-1.151588 0.0982,0.149901 -0.22925,0.4083 -0.89446,0.705855 -1.49261,0.667659 -2.100069,0.796591 -2.100069,0.445733 z M 6.3301181,20.317826 c 0,-0.691791 0.077624,-0.955716 0.2629265,-0.893952 0.1493712,0.04979 0.2629255,0.435877 0.2629255,0.893952 0,0.458074 -0.1135543,0.844158 -0.2629255,0.893945 -0.1853005,0.06176 -0.2629265,-0.202161 -0.2629265,-0.893945 z m 60.2062949,0.315507 c 0,-0.404902 0.04328,-0.57055 0.09619,-0.368096 0.05289,0.202454 0.05289,0.533744 0,0.736198 -0.05288,0.202446 -0.09619,0.03679 -0.09619,-0.368102 z m 5.594751,-0.206157 c -0.04436,-0.465051 -0.0071,-0.845543 0.08268,-0.845543 0.08982,0 0.163316,0.09699 0.163316,0.215542 0,0.118558 0.260297,0.319145 0.57844,0.445756 0.325232,0.129438 0.463345,0.272942 0.315513,0.327833 -0.144614,0.05372 -0.262931,0.18998 -0.262931,0.302853 0,0.112875 0.118317,0.137138 0.262931,0.0539 0.144606,-0.08322 0.188352,-0.06946 0.09722,0.03059 -0.09114,0.100044 -0.388642,0.211755 -0.66112,0.248245 -0.438618,0.05872 -0.504646,-0.03059 -0.576041,-0.779204 z m 0.774399,0.03345 c -0.167138,-0.167137 -0.528784,0.212285 -0.400376,0.420058 0.08735,0.141322 0.195739,0.11981 0.307505,-0.06102 0.09494,-0.153609 0.13673,-0.315173 0.09287,-0.359033 z m 2.784462,0.64694 c -1.628862,-0.05462 -2.050821,-0.132115 -2.050821,-0.376658 0,-0.247095 0.367397,-0.307894 1.860465,-0.307894 1.593336,0 1.915134,0.0604 2.241177,0.42068 0.209395,0.231377 0.295056,0.400871 0.190357,0.376656 -0.104695,-0.0242 -1.113226,-0.07496 -2.241178,-0.112784 z M 7.1714814,20.422997 c 0,-0.580941 0.058427,-0.631027 0.7361926,-0.631027 0.6777658,0 0.7361934,0.05008 0.7361934,0.631027 0,0.580943 -0.058427,0.631021 -0.7361934,0.631021 -0.677765,0 -0.7361926,-0.05008 -0.7361926,-0.631021 z M 66.924898,20.72098 c 0.01009,-0.245037 0.05994,-0.294877 0.127078,-0.127082 0.06076,0.151838 0.0533,0.333257 -0.01657,0.403156 -0.06989,0.06989 -0.119606,-0.05432 -0.110478,-0.276074 z m 0.57956,-1.003862 c 0.06845,-1.09721 0.114514,-1.171078 1.735308,-2.782368 0.91575,-0.910385 1.665006,-1.560437 1.665006,-1.444569 0,0.115873 -0.709904,0.915833 -1.577561,1.777701 -1.52415,1.513977 -1.577555,1.601029 -1.577555,2.571413 0,0.552411 -0.07099,1.004512 -0.157753,1.004667 -0.08676,1.6e-4 -0.126117,-0.506919 -0.08744,-1.126844 z m -55.915819,0.705879 c 0,-0.135037 2.033296,-0.210342 5.679206,-0.210342 3.645907,0 5.679201,0.07531 5.679201,0.210342 0,0.135031 -2.033294,0.210337 -5.679201,0.210337 -3.64591,0 -5.679206,-0.07531 -5.679206,-0.210337 z M 23.64157,19.504225 c -0.119584,-0.389639 -0.170629,-1.195442 -0.113433,-1.790676 0.114964,-1.196449 0.375432,-1.381839 1.75614,-1.249945 0.684692,0.06541 0.718022,0.109435 0.847724,1.119792 0.07425,0.578437 0.03561,1.406653 -0.08587,1.840479 -0.214923,0.767464 -0.247458,0.78878 -1.20401,0.78878 -0.93296,0 -0.994209,-0.03613 -1.200543,-0.70843 z m 1.496853,0.160073 c 0.182994,-0.07023 0.332714,-0.354181 0.332714,-0.631021 0,-0.398344 -0.111078,-0.503348 -0.532452,-0.503348 -0.619643,0 -0.891139,0.498435 -0.517029,0.949212 0.298018,0.359086 0.277394,0.353763 0.716767,0.185157 z m -0.508648,-0.60852 c 0,-0.192812 0.101753,-0.316651 0.226115,-0.275195 0.124366,0.04144 0.226117,0.16529 0.226117,0.275195 0,0.109906 -0.101751,0.233745 -0.226117,0.275195 -0.124362,0.04143 -0.226115,-0.08238 -0.226115,-0.275195 z m 0.841362,-1.44988 c 0,-0.614446 -0.592188,-0.88768 -1.012642,-0.467228 -0.427161,0.427165 -0.158312,0.970575 0.48019,0.970575 0.421374,0 0.532452,-0.105004 0.532452,-0.503347 z m -0.841362,-0.02248 c 0,-0.192813 0.101753,-0.316652 0.226115,-0.275195 0.124366,0.04144 0.226117,0.165289 0.226117,0.275195 0,0.109899 -0.101751,0.233738 -0.226117,0.275195 -0.124362,0.04143 -0.226115,-0.08238 -0.226115,-0.275195 z m -13.041136,1.998239 c 0,-0.231378 0.130941,-0.420684 0.29098,-0.420684 0.160037,0 0.340483,0.189306 0.400989,0.420684 0.0816,0.312038 0.0065,0.420678 -0.290978,0.420678 -0.260763,0 -0.400991,-0.14711 -0.400991,-0.420678 z m 1.2011,0 c 0.0605,-0.231378 0.229911,-0.420684 0.376457,-0.420684 0.146546,0 0.315951,0.189306 0.376458,0.420684 0.0866,0.33113 0.0065,0.420678 -0.376458,0.420678 -0.382912,0 -0.463048,-0.08955 -0.376457,-0.420678 z m 1.262045,0 c 0.0605,-0.231378 0.237621,-0.420684 0.393589,-0.420684 0.155968,0 0.384893,0.189306 0.508721,0.420684 0.201424,0.37636 0.159961,0.420678 -0.39359,0.420678 -0.515173,0 -0.600318,-0.07041 -0.50872,-0.420678 z m 1.362569,0.05497 c 0.102423,-0.531835 0.725684,-0.579076 0.860069,-0.06518 0.09118,0.348718 0.01323,0.430867 -0.40891,0.430867 -0.38221,0 -0.502765,-0.09771 -0.451159,-0.365681 z m 1.305133,0.03297 c 0.07022,-0.182993 0.127676,-0.372299 0.127676,-0.420679 0,-0.301167 0.601884,-0.01174 0.691968,0.332716 0.08846,0.338272 0.0065,0.420677 -0.418653,0.420677 -0.395656,0 -0.496542,-0.08371 -0.400991,-0.332714 z m 1.328776,-0.08796 c 0.0605,-0.231378 0.22991,-0.420684 0.376456,-0.420684 0.146545,0 0.315952,0.189306 0.376458,0.420684 0.0866,0.33113 0.0065,0.420678 -0.376458,0.420678 -0.382911,0 -0.46305,-0.08955 -0.376456,-0.420678 z m 1.262043,0 c 0.0605,-0.231378 0.237622,-0.420684 0.39359,-0.420684 0.155969,0 0.384893,0.189306 0.508721,0.420684 0.201424,0.37636 0.159962,0.420678 -0.39359,0.420678 -0.515174,0 -0.600317,-0.0704 -0.508721,-0.420678 z m 1.362047,0.05259 c 0.05232,-0.275489 0.313941,-0.383945 1.039873,-0.431095 0.829256,-0.05384 0.986327,-4.58e-4 1.082705,0.368096 0.103512,0.395833 0.01846,0.431094 -1.039873,0.431094 -0.984121,0 -1.142387,-0.05378 -1.082705,-0.368095 z m 54.76548,-0.57168 c 0.167627,-0.401188 0.304776,-1.016438 0.304776,-1.367213 0,-0.540069 0.08056,-0.637781 0.525855,-0.637781 0.462897,0 0.52585,0.09006 0.52585,0.752373 0,0.551118 -0.164468,0.916841 -0.61484,1.367219 -0.831781,0.831775 -1.118549,0.787463 -0.741641,-0.114598 z m 23.862947,0.519101 c 0.173537,-0.112148 0.410164,-0.203903 0.525858,-0.203903 0.115704,0 0.06841,0.09175 -0.105173,0.203903 -0.173528,0.11214 -0.410164,0.203895 -0.525859,0.203895 -0.115676,0 -0.06841,-0.09175 0.105174,-0.203895 z M 64.76729,18.513765 C 64.68637,17.66524 64.70802,17.635382 66.825922,15.674163 L 68.966335,13.6921 h 5.747248 5.747247 l 0.975726,-0.961059 c 0.861707,-0.84875 1.068721,-0.953212 1.771478,-0.893951 l 0.79575,0.06711 -0.994967,1.104288 -0.994967,1.104287 h -6.444325 -6.444332 l -1.844643,1.836098 c -1.668559,1.660832 -1.844646,1.911813 -1.844646,2.629264 0,1.130577 -0.559794,1.076677 -0.668614,-0.06438 z m -4.660018,-0.124054 c -0.301543,-0.301537 -0.112284,-0.490796 0.490797,-0.490796 0.420678,0 0.63102,0.105171 0.63102,0.315513 0,0.318362 -0.846478,0.450628 -1.121817,0.175283 z m 28.099134,-1.01745 c -0.882471,-1.142633 -0.905756,-1.156072 -2.004018,-1.156072 -0.67113,0 -1.298614,0.131287 -1.584486,0.331522 -0.449191,0.314631 -0.505196,0.297376 -1.099426,-0.33875 -0.547764,-0.58638 -0.718152,-0.653003 -1.361398,-0.532329 -0.459171,0.08614 -0.735267,0.05539 -0.735267,-0.08193 0,-0.142739 1.060977,-0.21987 3.024458,-0.21987 h 3.02446 l 1.187369,1.577554 c 0.905674,1.203306 1.098844,1.57737 0.814256,1.576756 -0.205202,-4.42e-4 -0.774878,-0.521031 -1.265948,-1.156876 z m -60.094083,0.684413 c -0.04402,-0.144613 -0.183035,-0.584675 -0.30891,-0.977927 -0.130696,-0.408305 -0.228866,-2.373495 -0.228866,-4.581511 0,-3.2428698 -0.05089,-3.8860534 -0.315513,-3.9875932 -0.17353,-0.066593 -0.31551,-0.3475798 -0.31551,-0.6244264 0,-0.4698874 0.07689,-0.5033471 1.156874,-0.5033471 h 1.156876 v 5.4688677 5.468862 h -0.532453 c -0.292851,0 -0.568474,-0.118318 -0.612498,-0.262925 z m 0.93461,-2.694262 c 0,-0.108861 -0.141981,-0.197929 -0.315511,-0.197929 -0.325274,0 -0.417885,0.248198 -0.181003,0.485079 0.168048,0.168045 0.496514,-0.02194 0.496514,-0.28715 z m 0,-3.878893 c 0,-0.173531 -0.08906,-0.315514 -0.197927,-0.315514 -0.265235,0 -0.455199,0.32847 -0.28715,0.496514 0.236883,0.236887 0.485077,0.144273 0.485077,-0.181 z m 0.631023,2.944773 c 0,-3.131742 0.04708,-3.680965 0.315511,-3.680965 0.264819,0 0.315512,0.45464 0.315512,2.829705 0,1.710044 0.09722,3.043088 0.245713,3.368987 0.209584,0.459988 0.186389,0.584167 -0.157755,0.84457 -0.22191,0.167908 -0.47446,0.308299 -0.561226,0.311978 -0.08677,0.0035 -0.157755,-1.649742 -0.157755,-3.674275 z M 91.93609,16.49099 c -0.519073,-0.658674 -1.067447,-1.368572 -1.218607,-1.577555 -0.262536,-0.36292 -0.08491,-0.379972 3.95629,-0.379972 2.686375,0 4.185029,0.07466 4.10479,0.204481 -0.132917,0.215058 -5.448482,2.950634 -5.733459,2.950634 -0.09094,0 -0.58995,-0.538913 -1.109014,-1.197588 z m 1.638701,-0.181556 c 0.574366,-0.402307 0.592099,-0.75663 0.06183,-1.23648 -0.839887,-0.760077 -1.918403,0.318429 -1.158319,1.158307 0.443433,0.48998 0.502491,0.49419 1.096444,0.07817 z M 92.64648,15.902083 c -0.07277,-0.189857 -0.03161,-0.446055 0.09168,-0.569329 0.320481,-0.320473 0.927699,-0.02755 0.843984,0.407114 -0.09324,0.484185 -0.767259,0.601038 -0.935652,0.162215 z m -61.822383,0.84671 c -0.211126,-0.505302 -0.304778,-1.539424 -0.304778,-3.365456 v -2.636016 h 2.302942 2.302943 l 0.06563,2.997356 c 0.0361,1.648548 0.145737,3.163003 0.243651,3.365456 0.163798,0.338679 -0.001,0.368097 -2.063792,0.368097 h -2.241816 z m 4.837839,0 C 35.450812,16.243491 35.35716,15.209369 35.35716,13.383337 v -2.636016 h 6.513965 c 5.703776,0 6.498907,0.03923 6.392893,0.315507 -0.102173,0.266257 -0.794249,0.315513 -4.433319,0.315513 h -4.312243 l -1.344455,1.069819 -1.344455,1.069813 v 1.980125 c 0,1.856322 -0.02698,1.980132 -0.431415,1.980132 -0.293466,0 -0.528871,-0.233244 -0.736195,-0.729437 z m 0.706612,-1.38975 c -0.04145,-0.124363 -0.165292,-0.226113 -0.275196,-0.226113 -0.109903,0 -0.233742,0.10175 -0.275195,0.226113 -0.04145,0.124365 0.08238,0.22612 0.275195,0.22612 0.192814,0 0.316653,-0.101755 0.275196,-0.22612 z m 1.706904,-3.263208 c 0.859041,-0.722831 0.81613,-0.927836 -0.194202,-0.927836 -0.821331,0 -0.841364,0.01753 -0.841364,0.736197 0,0.879325 0.178945,0.912441 1.035566,0.191639 z m -0.825224,-0.184238 c 0,-0.182689 0.182684,-0.322913 0.420681,-0.322913 0.231375,0 0.420682,0.044 0.420682,0.09777 0,0.05378 -0.189307,0.199078 -0.420682,0.322913 -0.335768,0.179695 -0.420681,0.15996 -0.420681,-0.09777 z m -0.841364,-0.545669 c 0,-0.108861 -0.14198,-0.197929 -0.315512,-0.197929 -0.325273,0 -0.417883,0.248197 -0.181002,0.485079 0.168048,0.16805 0.496514,-0.02189 0.496514,-0.28715 z m 0.841364,4.153618 v -1.958679 l 0.677073,-0.512827 c 1.289335,-0.976556 1.495449,-1.110333 1.351258,-0.877025 -0.09418,0.152382 0.04675,0.220293 0.402843,0.194119 0.436634,-0.03208 0.742097,0.204165 1.506362,1.165074 0.801977,1.008317 0.915309,1.257576 0.693388,1.524972 -0.145901,0.175803 -0.431484,0.319639 -0.634625,0.319639 -0.429536,0 -2.103232,-2.075786 -2.103232,-2.608516 0,-0.198596 -0.09465,-0.302587 -0.210341,-0.231086 -0.115687,0.07151 -0.21034,0.244095 -0.21034,0.383557 0,0.450824 2.109092,2.876729 2.501039,2.876729 0.449577,0 1.074755,-0.636011 1.074755,-1.093376 0,-0.446967 -1.649428,-2.48024 -2.189005,-2.698416 -0.26943,-0.108947 0.845204,-0.183197 2.872614,-0.191353 l 3.312868,-0.01336 -0.420681,0.42068 c -0.231376,0.231377 -0.420682,0.543694 -0.420682,0.694043 0,0.4222 1.967196,2.764845 2.390128,2.846291 0.443829,0.08548 1.185666,-0.525896 1.185666,-0.977144 0,-0.464544 -1.640616,-2.55867 -2.17255,-2.773097 -0.29106,-0.117335 0.761848,-0.188944 2.902962,-0.19744 3.098623,-0.01228 3.323345,0.01211 2.892187,0.314106 -0.257117,0.180089 -0.467486,0.498161 -0.467486,0.706826 0,0.604675 1.930407,2.941769 2.438905,2.952722 0.478972,0.01031 1.136893,-0.591155 1.136893,-1.039345 0,-0.417667 -1.70415,-2.546155 -2.19911,-2.746695 -0.28319,-0.114742 0.142778,-0.178837 1.246791,-0.187614 1.57596,-0.01252 1.648791,0.0064 1.209462,0.314106 -0.257119,0.180089 -0.467486,0.498161 -0.467486,0.706826 0,0.604675 1.930406,2.941769 2.438905,2.952722 0.478972,0.01031 1.13689,-0.591155 1.13689,-1.039345 0,-0.417667 -1.704148,-2.546155 -2.199107,-2.746695 -0.287787,-0.116601 0.08173,-0.178694 1.116499,-0.187614 1.543819,-0.01329 1.548578,-0.01162 2.599424,0.933202 l 1.052772,0.946534 3.184952,0.01013 3.18495,0.01013 -1.998238,1.880499 -1.99824,1.880505 -13.409233,0.0024 -13.40923,0.0024 z m 7.992953,-0.144728 c 0.231376,-0.231377 0.420681,-0.523327 0.420681,-0.648787 0,-0.125456 -0.439901,-0.78803 -0.977563,-1.472385 -0.754519,-0.960384 -1.104861,-1.244278 -1.535488,-1.244278 -0.650848,0 -1.062744,0.34523 -1.062744,0.890749 0,0.542587 1.920922,2.891576 2.366335,2.893663 0.202454,0.0012 0.557404,-0.187583 0.788779,-0.418962 z m -1.975267,-1.162147 c -0.797401,-0.978885 -0.928289,-1.256269 -0.750002,-1.589401 0.372236,-0.695534 0.948824,-0.460745 1.872307,0.762396 0.935594,1.239181 1.02664,1.843432 0.293586,1.948418 -0.331189,0.0474 -0.704813,-0.248485 -1.415891,-1.121413 z m 1.662148,0.737593 c 0.152105,-0.246109 -1.505185,-2.415048 -1.845339,-2.415048 -0.496275,0 -0.33539,0.508881 0.487724,1.54267 0.877446,1.102028 1.119542,1.257593 1.357615,0.872378 z m 7.044027,0.424554 c 0.231375,-0.231377 0.420682,-0.523327 0.420682,-0.648787 0,-0.125456 -0.439903,-0.78803 -0.977564,-1.472385 -0.75452,-0.960384 -1.10486,-1.244278 -1.535488,-1.244278 -0.650848,0 -1.062743,0.34523 -1.062743,0.890749 0,0.542587 1.920921,2.891576 2.366334,2.893663 0.202453,0.0012 0.557403,-0.187583 0.788779,-0.418962 z m -1.5934,-0.590076 c -1.347045,-1.749058 -1.426964,-1.904999 -1.148331,-2.240731 0.467655,-0.563489 0.932964,-0.35812 1.850552,0.816751 0.952822,1.219988 1.08975,1.68251 0.558464,1.886384 -0.562759,0.215947 -0.807337,0.126242 -1.260685,-0.462404 z m 1.274588,0.174735 c 0.146572,-0.237156 -1.5191,-2.424261 -1.84629,-2.424261 -0.491514,0 -0.328499,0.526649 0.479365,1.548674 0.855625,1.082446 1.130327,1.258409 1.366925,0.875587 z m -10.087272,-0.01473 c 0.146665,-0.237316 -1.472676,-2.514729 -1.788088,-2.514729 -0.509037,0 -0.367835,0.516144 0.43046,1.573478 0.890098,1.178926 1.114557,1.334544 1.357628,0.941251 z m -18.410616,0.472116 c 0,-0.729187 -0.09273,-1.304117 -0.210343,-1.304117 -0.129439,0 -0.21034,-1.051707 -0.21034,-2.734432 0,-1.6827261 0.08091,-2.7344309 0.21034,-2.7344309 0.115688,0 0.210343,-0.2366303 0.210343,-0.5258501 0,-0.5170902 0.02805,-0.5258547 1.682726,-0.5258547 1.622631,0 1.682727,0.017529 1.682727,0.490795 0,0.2699371 0.06883,0.5596213 0.152952,0.6437462 0.206572,0.2065734 0.216026,5.1828145 0.01009,5.3100935 -0.08968,0.05539 -0.163049,0.682024 -0.163049,1.392464 0,1.004649 -0.05608,1.235604 -0.252408,1.039285 -0.138825,-0.138823 -0.782468,-0.252407 -1.430319,-0.252407 -0.647849,0 -1.291493,0.113584 -1.430318,0.252407 -0.196318,0.196319 -0.252408,-0.03739 -0.252408,-1.051699 z m 23.575458,-1.12202 c -0.948255,-1.190963 -1.059255,-1.926369 -0.306958,-2.033703 0.567863,-0.08103 2.232893,1.922486 2.139629,2.574585 -0.123549,0.863876 -0.895612,0.636017 -1.832671,-0.540882 z m 1.566132,0.649791 c 0.140822,-0.227854 -1.50237,-2.514616 -1.806918,-2.514616 -0.490029,0 -0.338781,0.529774 0.449224,1.573478 0.890159,1.179008 1.114551,1.334555 1.357694,0.941138 z m 5.164776,-0.649791 c -0.953703,-1.197801 -1.059836,-1.926362 -0.296456,-2.03508 0.344329,-0.04901 0.672772,0.220686 1.332054,1.093901 0.925318,1.225574 1.019201,1.874596 0.286354,1.979665 -0.322953,0.04633 -0.684152,-0.237447 -1.321952,-1.038486 z m 1.557757,0.663343 c 0.135675,-0.219524 -1.506413,-2.528168 -1.798236,-2.528168 -0.505657,0 -0.349311,0.562841 0.44085,1.587036 0.892861,1.157312 1.124516,1.317927 1.357386,0.941132 z m 1.807699,-0.663343 c -0.944721,-1.186516 -1.058883,-1.926362 -0.313687,-2.03282 0.534982,-0.07643 2.265069,2.036922 2.152187,2.628967 -0.152618,0.800556 -0.92613,0.549741 -1.8385,-0.596147 z m 1.557754,0.663343 c 0.135675,-0.219524 -1.50641,-2.528168 -1.798234,-2.528168 -0.505657,0 -0.349309,0.562841 0.440847,1.587036 0.89286,1.157312 1.124519,1.317927 1.357387,0.941132 z m 17.986668,0.228772 c 0,-0.236433 0.547124,-0.456977 0.715628,-0.288468 0.2532,0.2532 0.115045,0.476301 -0.294948,0.476301 -0.231373,0 -0.42068,-0.08453 -0.42068,-0.187833 z m 1.262042,-0.02248 c 0,-0.115689 0.283961,-0.210341 0.631026,-0.210341 0.347062,0 0.631021,0.09465 0.631021,0.210341 0,0.115689 -0.283959,0.210342 -0.631021,0.210342 -0.347065,0 -0.631026,-0.09465 -0.631026,-0.210342 z M 61.217766,12.729353 c -0.398676,-0.413821 -0.98517,-0.907498 -1.303306,-1.097055 -0.318143,-0.189557 -0.57844,-0.466225 -0.57844,-0.614815 0,-0.213312 1.194959,-0.270157 5.679206,-0.270157 4.637729,0 5.679204,0.05224 5.679204,0.284997 0,0.156752 -0.514927,0.771996 -1.144284,1.367219 l -1.144284,1.082214 h -3.231614 -3.231613 z m 9.013163,-0.195579 c 0.779735,-0.70105 1.025821,-1.057184 0.944751,-1.367213 -0.107443,-0.410851 2.45e-4,-0.419235 5.383761,-0.419235 h 5.493397 v 0.465302 c 0,0.263586 -0.383741,0.856303 -0.885163,1.367218 l -0.885158,0.90191 h -4.774351 c -4.670793,0 -4.77197,-0.0091 -4.664342,-0.420683 0.07266,-0.277839 0.0065,-0.420679 -0.194977,-0.420679 -0.45925,0 -0.610105,0.242688 -0.34752,0.559084 0.187763,0.226238 0.09936,0.282278 -0.445255,0.282278 H 69.17654 Z m 10.018987,0.407108 c 0.40805,-0.408057 0.429335,-1.218683 0.04048,-1.541411 -0.201285,-0.167048 -1.537134,-0.223216 -4.364574,-0.183511 l -4.074513,0.05724 -0.06695,0.697353 c -0.120746,1.257938 0.02069,1.300886 4.284487,1.300886 3.220022,0 3.904651,-0.05414 4.181063,-0.330533 z M 72.054254,12.62844 c -0.163047,-0.26382 0.05337,-1.250094 0.274325,-1.250094 0.08456,0 0.153748,0.33129 0.153748,0.736192 0,0.734154 -0.167598,0.935355 -0.428073,0.513902 z m 4.634887,0.0205 c 2.97697,-0.107331 3.155116,-0.137507 3.155116,-0.534437 0,-0.396799 -0.179106,-0.427302 -3.155116,-0.537309 l -3.15511,-0.116637 3.260282,0.01145 3.260286,0.01145 0.06591,0.68361 0.06591,0.683603 -3.326196,-0.044 -3.326195,-0.044 3.15511,-0.11375 z m -3.891302,-0.42926 c 0,-0.233709 0.140226,-0.42068 0.315508,-0.42068 0.175283,0 0.315513,0.186971 0.315513,0.42068 0,0.233714 -0.14023,0.420685 -0.315513,0.420685 -0.175282,0 -0.315508,-0.186971 -0.315508,-0.420685 z m 2.375947,-0.15652 c 0.901864,-0.03953 2.321665,-0.03929 3.155116,5.23e-4 0.833445,0.03983 0.09555,0.07216 -1.639761,0.07187 -1.735309,-2.98e-4 -2.417219,-0.03285 -1.515355,-0.0724 z m 6.66871,-0.802427 c 0,-0.309195 -0.449054,-0.414949 -0.699314,-0.164695 -0.190214,0.19022 0.281187,0.72621 0.512809,0.583059 0.102577,-0.06339 0.186505,-0.251663 0.186505,-0.418364 z m 8.078704,1.170839 -0.803225,-1.053256 h -3.322227 c -2.81287,0 -3.322233,-0.04836 -3.322233,-0.315513 0,-0.277753 1.960323,-0.315507 16.380846,-0.315507 14.304129,0 16.414019,-0.04001 16.642669,-0.315514 0.17437,-0.210104 0.64635,-0.315513 1.41272,-0.315513 h 1.15085 l -0.14628,1.063618 c -0.0805,0.584985 -0.21446,1.318547 -0.29778,1.630136 l -0.1515,0.566532 -13.37031,0.05414 -13.370295,0.05414 z m 15.26914,0.482973 1.78788,-0.169011 v -0.631025 -0.63102 l -2.62926,-0.15847 c -1.44608,-0.08716 -4.427661,-0.134482 -6.625729,-0.10517 l -3.996474,0.0533 -0.06739,0.703631 c -0.131638,1.374224 -0.323177,1.327389 4.955457,1.211706 2.633206,-0.05772 5.592176,-0.180977 6.575536,-0.273937 z M 94.042269,12.230674 v -0.642016 h 3.753117 c 5.399074,0 8.867324,0.211565 8.867324,0.540917 0,0.353226 -1.85111,0.503653 -7.835184,0.636709 l -4.785257,0.106406 z m -1.198355,0.517741 c 0.0229,-0.114103 -0.124176,-0.239363 -0.326625,-0.27835 -0.230231,-0.04436 -0.368099,0.05885 -0.368099,0.275469 0,0.36595 0.621624,0.368526 0.694724,0.003 z m 17.394596,-0.10805 c 0.15996,-0.298891 0.15996,-0.542475 0,-0.841365 -0.39733,-0.742433 -1.68273,-0.421083 -1.68273,0.42068 0,0.841767 1.2854,1.163112 1.68273,0.420685 z m -0.99911,0.06242 c -0.43461,-0.161128 -0.31519,-0.903784 0.14535,-0.903784 0.22454,0 0.47236,0.103734 0.55073,0.230525 0.18075,0.292464 -0.34682,0.802745 -0.69608,0.673259 z m 7.8983,0.105851 c 0.62332,-0.623329 0.006,-1.572426 -0.87853,-1.350451 -0.61223,0.153657 -0.83712,0.649026 -0.54363,1.197414 0.24275,0.453596 1.03622,0.538979 1.42216,0.153037 z m -1.01237,-0.276734 c -0.30895,-0.372257 -0.0945,-0.732901 0.43583,-0.732901 0.26036,0 0.40826,0.144262 0.40826,0.398177 0,0.50903 -0.52623,0.717708 -0.84409,0.334724 z M 92.870666,11.35449 c -0.179247,-0.290006 -0.721476,-0.219399 -0.721476,0.09394 0,0.154253 0.06229,0.342737 0.138406,0.418859 0.190222,0.190219 0.726213,-0.281188 0.58307,-0.512804 z M 10.000263,13.003534 C 9.9375075,12.839985 9.9142592,12.005128 9.9486218,11.148298 10.010015,9.6171537 10.021157,9.5892687 10.597927,9.5230555 l 0.586843,-0.067372 -0.06099,1.8552605 c -0.05731,1.743489 -0.08956,1.859326 -0.535199,1.922605 -0.266313,0.0378 -0.524232,-0.06303 -0.588316,-0.230024 z m 3.996221,-5.96e-4 c -0.06263,-0.16318 -0.08574,-0.997733 -0.05138,-1.854563 l 0.06247,-1.5578725 h 0.631022 0.631024 v 1.7878965 1.787897 l -0.579635,0.06667 c -0.354818,0.04084 -0.623791,-0.04842 -0.693486,-0.230024 z M 3.1750046,12.65248 c 0,-0.24446 0.1372892,-0.432776 0.3155105,-0.432776 0.4281775,0 0.39851,-0.350031 -0.052577,-0.620415 -0.3454746,-0.20708 -0.3422432,-0.240786 0.052577,-0.548452 0.3942033,-0.307184 0.3975135,-0.34095 0.052587,-0.536456 -0.2024539,-0.11476 -0.3680972,-0.393253 -0.3680972,-0.6188771 0,-0.4617578 0.4884248,-0.5340046 1.3627723,-0.201577 0.5307,0.201768 0.546755,0.258984 0.4869593,1.7353081 l -0.061838,1.526666 -0.8939492,0.06467 C 3.285942,13.077213 3.175,13.031551 3.175,12.65248 Z M 5.2784124,11.37834 V 9.9059573 H 7.3818211 9.4852316 V 11.37834 12.850731 H 7.3818211 5.2784124 Z m 6.3102266,0 V 9.9059573 h 1.051705 1.051704 v 1.4723827 1.472391 h -1.051704 -1.051705 z m 4.206818,0 c 0,-1.121818 0.04675,-1.262047 0.420682,-1.262047 0.37394,0 0.420682,0.140229 0.420682,1.262047 0,1.121817 -0.04675,1.262049 -0.420682,1.262049 -0.37394,0 -0.420682,-0.140232 -0.420682,-1.262049 z m 4.767727,1.121817 c -0.07712,-0.07712 -0.140228,-0.645045 -0.140228,-1.26204 v -1.121824 h 0.946535 0.946533 v 1.262047 1.262049 h -0.806306 c -0.44347,0 -0.86941,-0.0631 -0.946534,-0.140232 z m -3.50568,-1.121817 v -1.051704 h 1.577555 1.577557 v 1.051704 1.051705 H 18.635059 17.057504 Z M 48.74291,11.062827 c -0.105587,-0.275153 0.537206,-0.315506 5.025677,-0.315506 4.434663,0 5.14675,0.04364 5.14675,0.315506 0,0.47474 -9.990253,0.47474 -10.172427,0 z m -4.49885,-0.895387 -14.566104,-0.05401 0.0012,-1.9442141 0.0012,-1.9442125 h 2.154692 c 2.137359,0 2.154138,0.00417 2.085828,0.491302 -0.03788,0.2702161 0.09511,0.6724896 0.295527,0.8939464 0.34954,0.3861508 0.784792,0.402648 10.623943,0.402648 h 10.259473 l 0.06721,0.473267 c 0.06091,0.4288589 0.197791,0.4790383 1.458775,0.5348166 1.159683,0.05128 1.47234,0.1475405 1.876367,0.57761 0.266651,0.2838286 0.445005,0.5400926 0.396345,0.5694706 -0.04866,0.02939 -6.643225,0.0291 -14.654584,-5.96e-4 z m 21.612528,-0.05116 c 0,-0.1345006 1.858009,-0.2103366 5.153354,-0.2103366 3.29534,0 5.15335,0.075835 5.15335,0.2103366 0,0.134506 -1.85801,0.210342 -5.15335,0.210342 -3.295345,0 -5.153354,-0.07583 -5.153354,-0.210342 z M 83.10452,10.06851 c 9e-6,-0.084095 0.236651,-0.3079531 0.525871,-0.4974565 0.289221,-0.1895033 0.525854,-0.52297 0.525854,-0.7410396 0,-0.3469892 0.167515,-0.3964939 1.341553,-0.3964939 1.151649,0 1.389054,0.067001 1.676979,0.4732671 l 0.335422,0.473267 0.407559,-0.473267 0.407569,-0.4732671 h 7.249976 7.249967 l 0.33541,0.4732671 0.33543,0.473267 0.40755,-0.473267 c 0.40472,-0.4699587 0.44904,-0.4732671 6.33485,-0.4732671 5.88583,0 5.93015,0.00352 6.33486,0.4732671 l 0.40756,0.473267 0.33541,-0.473267 C 117.5769,8.5391376 117.85726,8.43352 118.57264,8.43352 h 0.92087 v 0.9465341 c 0,0.8581219 -0.047,0.9465329 -0.50334,0.9465329 -0.27684,0 -0.55784,-0.141977 -0.62443,-0.315507 -0.09,-0.2344838 -0.46307,-0.3155136 -1.45281,-0.3155136 -0.73247,0 -1.42523,0.093473 -1.53947,0.2077126 -0.24255,0.242552 -32.268984,0.406542 -32.26894,0.165231 z M 58.891099,9.5378249 C 58.568033,9.1809384 58.397435,8.7781171 58.445695,8.4861201 l 0.07822,-0.473267 h 9.972287 9.972289 l 0.424953,-0.8329863 c 0.233728,-0.4581399 0.431364,-1.0497239 0.439193,-1.3146285 l 0.01425,-0.4816514 0.228245,0.4732679 c 0.201972,0.4187874 0.387988,0.4740058 1.615907,0.479664 1.045319,0.00473 1.296843,0.05927 1.019561,0.2207949 -0.91773,0.5345237 -0.04382,1.95742 0.893946,1.4555394 C 83.626781,7.733359 83.65872,6.84946 83.15711,6.5573137 82.842408,6.3740229 82.872925,6.341987 83.367449,6.3365188 c 0.565312,-0.0063 0.578432,0.021283 0.578432,1.2143901 0,1.1047653 -0.06591,1.284668 -0.693625,1.8930681 l -0.693626,0.672281 h -3.070007 c -2.534863,0 -3.091116,-0.05497 -3.191088,-0.3155085 -0.103042,-0.2685411 -0.885938,-0.3155123 -5.25852,-0.3155123 -4.372581,0 -5.155477,0.046988 -5.258524,0.3155123 -0.100092,0.2608455 -0.662039,0.3155085 -3.243432,0.3155085 H 59.4147 Z M 55.479771,8.7139868 c -0.07712,-0.077124 -0.140228,-0.2664322 -0.140228,-0.4206793 0,-0.2049466 0.368097,-0.2804544 1.36722,-0.2804544 1.226986,0 1.367211,0.043169 1.367211,0.4206784 0,0.3726031 -0.140225,0.4206839 -1.226989,0.4206839 -0.674842,0 -1.29009,-0.063108 -1.367214,-0.1402286 z m 32.00249,-0.2138019 c 0.151837,-0.060763 0.333262,-0.053301 0.403146,0.016639 0.06989,0.069893 -0.05432,0.1196119 -0.276069,0.1104776 -0.245034,-0.010076 -0.294877,-0.059938 -0.127077,-0.1270824 z m 15.985909,0 c 0.15183,-0.060763 0.33326,-0.053301 0.40314,0.016639 0.0699,0.069893 -0.0543,0.1196119 -0.27607,0.1104776 -0.24503,-0.010076 -0.29487,-0.059938 -0.12707,-0.1270824 z m 13.25148,0 c 0.15183,-0.060763 0.33326,-0.053301 0.40314,0.016639 0.0699,0.069893 -0.0543,0.1196119 -0.27606,0.1104776 -0.24503,-0.010076 -0.29488,-0.059938 -0.12708,-0.1270824 z M 84.156245,7.6863451 c 0,-0.2612143 0.217514,-0.31379 1.087754,-0.2629255 1.55798,0.091065 1.631247,0.5894335 0.08667,0.5894335 -0.921256,0 -1.174402,-0.070385 -1.174402,-0.326508 z M 44.734797,7.5921691 C 36.445514,7.5074352 34.427498,7.432769 34.352622,7.2079983 34.275888,6.977639 34.336113,6.9767213 34.698,7.2026219 c 0.345876,0.2159997 0.49266,0.2193924 0.695977,0.016101 0.335353,-0.3353558 1.163263,-0.3319631 1.285387,0.00538 0.07618,0.2103415 0.18428,0.2103415 0.540528,0 0.530185,-0.3130391 3.185449,-0.3568744 3.185449,-0.052587 0,0.1156826 0.189307,0.210336 0.420682,0.210336 0.231375,0 0.420681,-0.094653 0.420681,-0.210336 0,-0.3057049 0.999229,-0.2584473 1.111863,0.052587 0.07618,0.2103415 0.184281,0.2103415 0.540529,0 0.530185,-0.3130391 3.185448,-0.3568744 3.185448,-0.052587 0,0.1156826 0.189307,0.210336 0.420682,0.210336 0.231374,0 0.420682,-0.094653 0.420682,-0.210336 0,-0.2935413 0.758428,-0.2626798 1.292379,0.052587 0.35625,0.2103415 0.464354,0.2103415 0.54053,0 0.116733,-0.3223459 3.004931,-0.372884 3.004931,-0.052587 0,0.1156826 0.189307,0.210336 0.420681,0.210336 0.231375,0 0.420682,-0.094653 0.420682,-0.210336 0,-0.2920276 0.762119,-0.2633954 1.259651,0.04734 0.325563,0.2033188 0.466918,0.2033188 0.670236,0 0.383247,-0.3832457 3.118298,-0.3488895 3.118298,0.039174 0,0.4254828 -1.12927,0.4546915 -12.918499,0.3341925 z m 13.411775,-0.052587 c -0.05361,-0.086764 0.05015,-0.1577603 0.230501,-0.1577603 0.180358,0 0.327921,-0.094652 0.327921,-0.2103359 0,-0.2935414 0.758432,-0.2626799 1.292386,0.052587 0.356249,0.2103415 0.464352,0.2103415 0.540527,0 0.127066,-0.3508695 2.651352,-0.3508695 3.245607,0 0.356249,0.2103415 0.464353,0.2103415 0.540531,0 0.05235,-0.1446066 0.27792,-0.2629246 0.501224,-0.2629246 0.223299,0 0.606396,0.118318 0.851313,0.2629246 0.35625,0.2103415 0.464354,0.2103415 0.54053,0 0.125163,-0.3456173 2.825519,-0.3582037 3.168955,-0.014794 0.190647,0.1906536 0.370999,0.1824138 0.778255,-0.035531 0.444792,-0.238043 0.615424,-0.238043 1.060209,0 0.407256,0.2179565 0.587608,0.2261963 0.778262,0.035531 0.329292,-0.3292926 2.740638,-0.3218324 3.071976,0.00948 0.203318,0.203317 0.344675,0.203317 0.670235,0 0.532886,-0.3327928 1.198345,-0.3301333 1.319811,0.00538 0.07618,0.210336 0.184281,0.210336 0.54053,0 0.612643,-0.361728 1.097221,-0.3369057 0.949282,0.048592 -0.102875,0.2680861 -1.52802,0.319441 -10.215091,0.3681002 -5.552544,0.031128 -10.139379,-0.014424 -10.192964,-0.1012117 z m 24.139766,-0.024685 c -0.181842,-0.2191069 -0.1608,-0.3522479 0.08832,-0.5590067 0.402027,-0.3336511 0.850652,0.018131 0.659237,0.5169586 -0.1558,0.4060046 -0.432583,0.4215739 -0.747565,0.042038 z M 24.474911,7.0205399 c 0.31973,-0.04836 0.792998,-0.047044 1.051704,0.00297 0.258706,0.049899 -0.0029,0.08948 -0.58133,0.087913 -0.578437,-0.00176 -0.790105,-0.042455 -0.470374,-0.090778 z M 53.867158,6.7662175 c 0,-0.1072036 -0.138325,-0.2255215 -0.30739,-0.2629236 -0.419676,-0.092853 4.710161,-2.7056556 5.302986,-2.7009939 0.437571,0.00352 0.473266,0.098511 0.473266,1.2603667 0,1.2014682 -0.02963,1.2719565 -0.674342,1.6053564 -0.465021,0.2404707 -0.698982,0.2747963 -0.753722,0.1105731 -0.04364,-0.1309765 -0.33179,-0.249122 -0.640287,-0.2625426 -0.356206,-0.015508 -0.426575,-0.059502 -0.192812,-0.1205964 0.413918,-0.1081649 0.498596,-0.6178135 0.123423,-0.7428695 -0.134566,-0.044837 -0.72615,0.1527992 -1.314631,0.43924 -2.083947,1.0143443 -2.016491,0.9917829 -2.016491,0.6743898 z m 4.659048,-1.8033202 c 0,-0.1099057 -0.101749,-0.2337437 -0.226113,-0.2751957 -0.124364,-0.041435 -0.226119,0.082379 -0.226119,0.2751957 0,0.1928136 0.101755,0.3166516 0.226119,0.2751949 0.124364,-0.041435 0.226113,-0.1652901 0.226113,-0.2751949 z m 25.735213,1.7878965 c 0.07148,-0.1156891 0.355449,-0.2103425 0.631019,-0.2103425 0.275561,0 0.559514,0.094653 0.631019,0.2103425 0.07749,0.1254258 -0.177234,0.2103424 -0.631019,0.2103424 -0.453794,0 -0.70853,-0.084919 -0.631019,-0.2103424 z M 59.690969,6.40461 c -0.07953,-0.079534 -0.144605,-0.6494266 -0.144605,-1.2664299 0,-0.9906919 0.05038,-1.1218159 0.431178,-1.1218159 0.391404,0 0.425359,0.1100281 0.368096,1.1928409 -0.05837,1.1032015 -0.301984,1.5480876 -0.654669,1.1954049 z m 9.19569,-0.1556079 c -0.06151,-0.1602927 -0.0822,-0.7045496 -0.04597,-1.2094577 0.05419,-0.7558321 0.140172,-0.9180113 0.486534,-0.9180113 0.345731,0 0.432341,0.162042 0.486121,0.9094962 0.0835,1.1604908 -0.602657,2.0623478 -0.926672,1.2179728 z M 60.598069,5.1732398 V 4.2267057 h 3.996472 3.996479 v 0.9465341 0.946534 H 64.594541 60.598069 Z M 29.888297,4.5422125 c 0,-1.3181361 0.01886,-1.3672125 0.525853,-1.3672125 0.497168,0 0.52585,0.063099 0.52585,1.1568765 v 1.15687 h 0.723779 c 0.398078,0 0.78228,0.094653 0.853778,0.2103424 0.08162,0.1320612 -0.38344,0.2103416 -1.24963,0.2103416 h -1.37963 z m 50.06113,1.0517048 c 0,-0.4647102 3.894219,-0.4647102 4.072549,0 0.10263,0.2674518 -0.198323,0.3155132 -1.975738,0.3155132 -1.723605,0 -2.096811,-0.056165 -2.096811,-0.3155132 z m 4.8e-5,-1.104287 c 4.7e-5,-0.3242378 0.238146,-0.368937 1.998239,-0.3751681 1.779803,-0.0064 1.998192,0.033927 1.998192,0.3680963 0,0.3336687 -0.22104,0.3751662 -1.998239,0.3751662 -1.762878,0 -1.998234,-0.043345 -1.998192,-0.3680944 z"
       id="path847" />
  </g>
</svg>
