<?xml version="1.0" encoding="UTF-8" standalone="no"?>
<svg
   xmlns:dc="http://purl.org/dc/elements/1.1/"
   xmlns:cc="http://creativecommons.org/ns#"
   xmlns:rdf="http://www.w3.org/1999/02/22-rdf-syntax-ns#"
   xmlns:svg="http://www.w3.org/2000/svg"
   xmlns="http://www.w3.org/2000/svg"
   xmlns:sodipodi="http://sodipodi.sourceforge.net/DTD/sodipodi-0.dtd"
   xmlns:inkscape="http://www.inkscape.org/namespaces/inkscape"
   width="150.287"
   height="128"
   viewBox="0 0 39.763433 33.866667"
   version="1.1"
   id="svg8"
   inkscape:version="1.0.1 (3bc2e813f5, 2020-09-07)"
   sodipodi:docname="RE-45 Auto.svg">
  <defs
     id="defs2" />
  <sodipodi:namedview
     id="base"
     pagecolor="#ffffff"
     bordercolor="#666666"
     borderopacity="1.0"
     inkscape:pageopacity="0.0"
     inkscape:pageshadow="2"
     inkscape:zoom="1.979899"
     inkscape:cx="66.920409"
     inkscape:cy="60.5672"
     inkscape:document-units="mm"
     inkscape:current-layer="layer1"
     inkscape:document-rotation="0"
     showgrid="false"
     units="px"
     inkscape:window-width="1366"
     inkscape:window-height="705"
     inkscape:window-x="-8"
     inkscape:window-y="-8"
     inkscape:window-maximized="1" />
  <metadata
     id="metadata5">
    <rdf:RDF>
      <cc:Work
         rdf:about="">
        <dc:format>image/svg+xml</dc:format>
        <dc:type
           rdf:resource="http://purl.org/dc/dcmitype/StillImage" />
        <dc:title></dc:title>
      </cc:Work>
    </rdf:RDF>
  </metadata>
  <g
     inkscape:label="Layer 1"
     inkscape:groupmode="layer"
     id="layer1">
    <path
       style="fill:#273839;fill-opacity:1;stroke-width:0.134414"
       d="m 31.294487,30.497719 c -0.147854,-0.113602 -0.359556,-0.25966 -0.470448,-0.324574 -0.173169,-0.101369 -0.163162,-0.156971 0.07093,-0.394024 0.251666,-0.254857 0.295427,-0.259971 0.571261,-0.06677 0.193623,0.135622 0.298713,0.348408 0.298713,0.604849 0,0.445478 -0.08377,0.477622 -0.470451,0.180521 z m 0.73928,-0.172543 c 0,-0.33396 0.106938,-0.399282 1.548616,-0.945995 0.85174,-0.322995 1.583075,-0.552807 1.62519,-0.510692 0.04212,0.04211 -0.0045,0.240184 -0.103662,0.440155 -0.14752,0.297588 -0.442512,0.4554 -1.62519,0.869423 l -1.444954,0.505843 z m -1.65781,-0.654069 c -0.07624,-0.126616 -0.627233,-1.977736 -0.627233,-2.107262 0,-0.05262 0.130803,-0.07634 0.290675,-0.05272 0.400025,0.05911 0.974588,1.684755 0.718996,2.034299 -0.180282,0.24655 -0.288284,0.282042 -0.382438,0.125679 z m 1.040053,-0.271818 c -0.278339,-0.229447 -0.959058,-1.85896 -0.830343,-1.987677 0.03658,-0.03658 1.22319,-0.453213 2.636908,-0.925851 l 2.570399,-0.859342 0.16075,0.536538 c 0.148988,0.497278 0.129677,0.599555 -0.26393,1.397746 -0.341144,0.691807 -0.520979,0.901444 -0.914245,1.06576 -0.269264,0.112507 -0.502106,0.204557 -0.517428,0.204557 -0.01532,0 -0.02306,-0.134209 -0.01718,-0.29824 0.0065,-0.182089 -0.08109,-0.316826 -0.224959,-0.34597 -0.326367,-0.06611 -0.471833,0.37117 -0.191631,0.576058 0.189216,0.138357 0.08964,0.213452 -0.687166,0.518221 -1.059019,0.415492 -1.337343,0.434606 -1.721165,0.1182 z m 0.995786,-0.334995 c 0.0535,-0.277778 -0.334532,-0.464955 -0.539324,-0.26016 -0.204798,0.204795 -0.01762,0.592823 0.260156,0.539327 0.128749,-0.02479 0.254376,-0.150419 0.279168,-0.279167 z m 0.940902,-0.268829 c 0.0535,-0.277778 -0.334532,-0.464954 -0.539327,-0.26016 -0.204795,0.204795 -0.01762,0.592823 0.260157,0.53933 0.128748,-0.02479 0.254376,-0.150422 0.27917,-0.27917 z m 2.041428,-0.02213 c 0,-0.147761 0.735282,-1.643915 0.892057,-1.81517 0.02931,-0.03204 0.124902,0.01333 0.212385,0.100811 0.117224,0.117228 0.119535,0.198576 0.0088,0.309329 -0.08265,0.08265 -0.122793,0.339718 -0.08921,0.571261 0.07691,0.530291 -0.05778,0.729978 -0.596612,0.884511 -0.322646,0.09254 -0.427389,0.0801 -0.427389,-0.05074 z m -5.13132,-1.984352 c 0.376274,-0.594284 0.75557,-0.714983 1.096577,-0.348954 0.325474,0.349356 0.237487,0.507611 -0.108258,0.194717 -0.336886,-0.30488 -0.427086,-0.281048 -0.427086,0.112836 0,0.18482 -0.04537,0.340531 -0.100813,0.346024 -0.05544,0.0055 -0.243214,0.03632 -0.417262,0.0685 l -0.316454,0.05851 z m 5.949354,-0.519494 c -0.242858,-0.542443 -0.25045,-0.969555 -0.0126,-0.709746 0.163161,0.17824 0.439303,1.130441 0.352882,1.216858 -0.04303,0.04302 -0.196136,-0.185183 -0.340272,-0.507112 z m -6.3111,0.236144 c 0.04682,-0.05914 -0.0864,-0.659313 -0.296042,-1.333712 -0.209648,-0.674398 -0.350238,-1.276237 -0.312424,-1.337421 0.03781,-0.06118 0.295031,-0.111243 0.571594,-0.111243 0.276562,0 0.573176,-0.07034 0.659142,-0.156302 0.118796,-0.118794 0.184349,-0.07847 0.273172,0.168018 0.06427,0.178376 0.257067,0.717482 0.428421,1.198014 0.442469,1.240796 0.488401,1.275388 1.352705,1.018718 0.809584,-0.240421 0.980056,-0.259955 0.881845,-0.101043 -0.0378,0.06115 -0.434361,0.221895 -0.881255,0.357204 -0.757302,0.229293 -0.82927,0.230872 -1.058717,0.02323 -0.345481,-0.312657 -0.952281,-0.277094 -1.358871,0.07964 -0.189586,0.166338 -0.306392,0.254044 -0.25957,0.194899 z m 4.072875,-0.866971 c 0.0994,-0.419855 0.536069,-0.84227 0.863821,-0.835618 0.226183,0.0046 0.825199,0.438747 0.825199,0.59809 0,0.04896 -0.158325,-0.03552 -0.351834,-0.187731 -0.410348,-0.32278 -0.589066,-0.261709 -0.589066,0.201294 0,0.232089 -0.103346,0.370721 -0.344787,0.462517 -0.485018,0.184404 -0.5012,0.174834 -0.403333,-0.238552 z m -2.113448,0.05798 c -0.109676,-0.08733 -0.336108,-0.582192 -0.503185,-1.099687 -0.167074,-0.517496 -0.329006,-1.009658 -0.359848,-1.093695 -0.04988,-0.135916 1.386916,-0.720899 1.77063,-0.720899 0.233701,0 0.881736,1.896546 0.791919,2.317634 -0.06319,0.296229 -0.187785,0.396527 -0.634415,0.51069 -0.305682,0.07813 -0.625512,0.165167 -0.710738,0.193404 -0.08522,0.02824 -0.244687,-0.02011 -0.354363,-0.107447 z m 3.829353,-0.521706 c -0.253721,-0.253719 -0.188533,-0.400393 0.107528,-0.241945 0.147855,0.07913 0.268831,0.20223 0.268831,0.273557 0,0.178017 -0.182019,0.162729 -0.376359,-0.03161 z m -2.028711,-1.101358 c -0.142614,-0.377494 -0.324357,-0.854496 -0.403871,-1.060004 -0.13173,-0.340456 -0.11273,-0.385758 0.213855,-0.509926 0.787807,-0.299523 0.844137,-0.260922 1.1913,0.81637 0.178679,0.554459 0.325682,1.040976 0.32667,1.08115 10e-4,0.04017 -0.239053,0.137329 -0.533429,0.215903 l -0.53523,0.142861 z m -6.318043,-0.504289 c -0.178911,-0.462903 0.206811,-0.800333 1.012834,-0.886027 0.359437,-0.03821 0.744254,-0.145937 0.855146,-0.239382 0.110892,-0.09344 0.465544,-0.213202 0.788115,-0.266129 0.322571,-0.05293 0.785994,-0.231611 1.029821,-0.397079 0.476199,-0.323158 1.222031,-0.548432 2.255928,-0.681394 0.37359,-0.04804 0.67742,-0.164218 0.720057,-0.275326 0.171407,-0.44668 1.721249,-0.01522 1.630886,0.454032 -0.02489,0.129261 -0.275109,0.300788 -0.579617,0.397333 -0.294705,0.09343 -0.656795,0.226838 -0.804652,0.296452 -0.147854,0.06961 -0.994667,0.347894 -1.881801,0.6184 -0.887135,0.270505 -1.764189,0.568594 -1.949009,0.66242 -0.342492,0.173867 -1.54484,0.452765 -2.452201,0.568813 -0.434127,0.05552 -0.519981,0.02092 -0.625507,-0.252113 z m -0.01652,-1.260617 c -0.09352,-0.112679 -0.146285,-0.225737 -0.117268,-0.251242 0.02901,-0.0255 0.657622,-0.220965 1.3969,-0.434357 1.128998,-0.325883 1.350795,-0.434557 1.385694,-0.678947 0.02285,-0.16003 -0.360387,-1.599567 -0.851636,-3.198968 -0.491255,-1.599401 -0.8588,-2.997613 -0.816773,-3.107136 0.06167,-0.160717 0.32662,-0.191706 1.373373,-0.160634 l 1.296958,0.0385 0.937149,2.712855 c 0.584374,1.691642 1.016776,2.743411 1.148676,2.794026 0.11634,0.04464 0.506645,-0.02495 0.86734,-0.154656 0.571313,-0.205442 0.671892,-0.210405 0.780592,-0.03853 0.200505,0.317027 0.161933,0.362389 -0.499913,0.587903 -0.750913,0.255862 -1.333643,0.275576 -1.473157,0.04984 -0.05589,-0.09043 -0.474516,-1.345524 -0.930284,-2.789098 l -0.82867,-2.624679 -0.912521,-0.0402 c -0.501885,-0.02211 -0.963222,0.0105 -1.025193,0.07246 -0.06197,0.06197 0.25092,1.380523 0.695309,2.930116 0.444394,1.549593 0.791534,2.964753 0.771424,3.1448 -0.03102,0.277703 -0.22879,0.40513 -1.303838,0.84009 -1.404118,0.568098 -1.645609,0.607348 -1.894162,0.307862 z m -0.02012,-1.072067 c 0.117279,-0.258747 0.26112,-0.470449 0.319646,-0.470449 0.222938,0 0.07637,-0.541355 -0.746013,-2.755495 -0.831731,-2.239294 -0.85995,-2.291301 -1.409502,-2.597547 -0.335129,-0.186757 -0.560778,-0.410001 -0.560778,-0.554803 0,-0.133265 -0.09588,-0.321873 -0.213069,-0.41913 -0.153599,-0.127477 -0.187482,-0.291511 -0.121401,-0.58772 0.05042,-0.225988 0.12083,-0.849415 0.15648,-1.385393 0.05589,-0.840356 0.03443,-0.974504 -0.155875,-0.974504 -0.135314,0 -0.20572,0.091 -0.181993,0.235226 0.02128,0.129373 -0.01938,0.325954 -0.09036,0.436846 -0.07098,0.110892 -0.235251,0.500137 -0.365037,0.864989 -0.229926,0.646362 -0.418944,0.876142 -0.724172,0.880339 -0.180514,0.0025 -0.157499,-0.333436 0.05802,-0.846781 0.174938,-0.416695 0.197751,-0.806925 0.07414,-1.268187 -0.07825,-0.292008 -0.135818,-0.302432 -1.670108,-0.302432 H 20.08736 l -0.0844,0.571261 c -0.04642,0.314194 -0.06524,0.93418 -0.04184,1.377748 l 0.04256,0.806486 2.132646,0.0065 c 1.932767,0.0059 2.150078,0.03039 2.318648,0.260916 0.426458,0.583216 0.333992,0.606236 -2.435078,0.606236 -3.276161,0 -3.158198,0.069 -3.159905,-1.848198 -6.73e-4,-0.720796 -0.03931,-1.628094 -0.08593,-2.016215 l -0.08476,-0.705676 h 1.155275 c 1.021106,0 1.214508,0.04034 1.665299,0.347321 0.57577,0.392092 1.151744,0.379467 1.767573,-0.03874 0.454456,-0.308623 2.034665,-0.43157 6.706503,-0.521796 2.88225,-0.05566 3.528377,-0.102204 3.528377,-0.254148 0,-0.1023036 0.136096,-0.2053354 0.302433,-0.2289589 0.445144,-0.06322 0.41977,-0.6684625 -0.03361,-0.8015387 -0.262067,-0.076924 -0.217688,-0.093051 0.201622,-0.073268 l 0.537658,0.025366 V 9.7441808 10.48346 l -1.008109,0.07929 c -1.23474,0.09712 -1.747386,0.316792 -1.747386,0.748768 v 0.31446 h -2.192148 c -2.652768,0 -2.67913,0.01148 -2.620766,1.140764 0.05161,0.998626 -0.0073,0.978768 2.95785,0.996468 l 2.244575,0.0134 0.392784,0.84009 c 0.216034,0.46205 0.615071,1.493437 0.886749,2.291969 0.271678,0.798534 0.611924,1.645345 0.756098,1.881801 0.144177,0.236458 0.262367,0.499845 0.262641,0.585305 7.77e-4,0.193426 -1.119381,0.588082 -1.318933,0.464751 -0.08043,-0.04971 -0.549282,-1.268088 -1.041885,-2.707508 -0.492606,-1.439421 -0.956561,-2.692736 -1.031009,-2.785146 -0.08919,-0.110705 -0.48509,-0.162593 -1.160613,-0.152115 -1.282916,0.0199 -1.817922,0.131262 -1.865841,0.388375 -0.02056,0.110323 0.38386,1.561532 0.898711,3.224909 0.724187,2.339705 0.899628,3.059665 0.77502,3.180447 -0.197906,0.191826 -1.889991,0.71757 -2.309469,0.71757 -0.300135,0 -0.301751,-0.0082 -0.09225,-0.470451 z m -0.447638,-7.000747 c 0,-0.214697 -0.111993,-0.263685 -0.672072,-0.293977 l -0.672072,-0.03635 0.537658,0.325348 c 0.613398,0.371181 0.806486,0.372373 0.806486,0.005 z m 4.296817,6.899937 c -0.112711,-0.299582 -1.810152,-5.650524 -1.810152,-5.706249 0,-0.02971 0.312269,-0.03573 0.69393,-0.01339 l 0.693928,0.04063 0.781188,2.553872 c 0.429656,1.40463 0.782738,2.627928 0.784629,2.718439 0.0035,0.165147 -0.662871,0.574714 -0.935002,0.574714 -0.07992,0 -0.173753,-0.07561 -0.208521,-0.168018 z M 3.3530991,13.490978 c -0.046205,-0.231025 -0.084009,-0.472971 -0.084009,-0.537657 0,-0.06469 0.6351078,-0.117613 1.4113509,-0.117613 h 1.411351 v -0.336036 c 0,-0.330617 0.017455,-0.336036 1.0823394,-0.336036 h 1.0823392 l -0.040627,0.705676 -0.040626,0.705675 -0.8064862,0.04098 c -0.4435677,0.02254 -0.8639487,0.09815 -0.9341805,0.168018 -0.070231,0.06987 -0.7733865,0.127034 -1.5625669,0.127034 H 3.4371108 Z m 8.7873399,0.292124 c 0,-0.07864 -0.69947,-0.14823 -1.713783,-0.170496 l -1.7137834,-0.03762 -0.040627,-0.705675 -0.040627,-0.705676 h 1.6872034 1.687204 v 0.403244 0.403242 h 3.234462 3.234462 l -0.04212,0.436847 -0.04212,0.436847 -3.125134,0.03608 c -1.994022,0.02302 -3.125134,-0.01201 -3.125134,-0.0968 z M 27.418874,13.41817 c -0.125359,-0.125358 -0.108252,-1.01705 0.0235,-1.224657 0.08227,-0.129639 0.598502,-0.162593 2.105636,-0.134415 l 1.996645,0.03733 0.385443,0.705676 0.385442,0.705675 h -2.403526 c -1.32194,0 -2.443851,-0.04032 -2.493136,-0.08961 z M 3.2636368,11.121925 C 3.2606395,10.3272 3.2503569,9.1930785 3.2407909,8.6016551 L 3.2234014,7.5263404 6.2033626,7.4901643 9.1833239,7.4539879 V 8.3302525 9.2065178 H 8.4487743 c -0.9220214,0 -1.0128374,0.143835 -1.0128374,1.6041362 v 1.084151 H 6.696658 c -0.6989547,0 -0.7392789,0.01833 -0.7392789,0.336036 v 0.336036 H 4.613235 3.2690914 Z m 1.8200475,0.772882 c 0,-0.246345 -0.080882,-0.347521 -0.3030335,-0.379066 -0.3302702,-0.0469 -0.5178525,0.241354 -0.38402,0.590115 0.048577,0.126592 0.2022546,0.193829 0.38402,0.168018 0.2221512,-0.03154 0.3030335,-0.132722 0.3030335,-0.379067 z m 0,-3.7636019 c 0,-0.2463453 -0.080882,-0.3475216 -0.3030335,-0.3790672 -0.1817654,-0.025813 -0.3354423,0.041429 -0.38402,0.1680179 -0.1338325,0.3487612 0.05375,0.6370149 0.38402,0.5901163 0.2221512,-0.031543 0.3030335,-0.1327222 0.3030335,-0.379067 z m 1.0753153,0 c 0,-0.2463453 -0.080882,-0.3475216 -0.3030335,-0.3790672 C 5.6742004,7.726324 5.5205236,7.7935671 5.4719454,7.9201558 5.3381136,8.268917 5.5256957,8.5571707 5.8559661,8.5102721 6.0781173,8.4787287 6.1589996,8.3775499 6.1589996,8.1312051 Z m 1.0753147,0 c 0,-0.2463453 -0.080882,-0.3475216 -0.3030332,-0.3790672 C 6.7495152,7.726324 6.5958383,7.7935671 6.5472607,7.9201558 6.4134286,8.268917 6.6010109,8.5571707 6.9312811,8.5102721 7.1534325,8.4787287 7.2343143,8.3775499 7.2343143,8.1312051 Z m 4.9061247,4.0996379 v -0.336036 h -1.733006 c -1.9232633,0 -1.8961822,0.01336 -1.8961822,-0.935435 0,-0.280614 0.082749,-0.578882 0.1838862,-0.662818 0.1313905,-0.109044 1.541585,-0.142522 4.939728,-0.117269 l 4.755843,0.03534 0.01701,1.176126 0.01701,1.176126 H 18.03808 c -0.419025,0 -0.540621,-0.315397 -0.175599,-0.455469 0.126591,-0.04858 0.193828,-0.202254 0.168018,-0.38402 -0.06353,-0.447402 -0.672427,-0.421944 -0.789335,0.033 l -0.08635,0.336036 -0.05412,-0.336036 c -0.04067,-0.252485 -0.136167,-0.336036 -0.3841,-0.336036 -0.239337,0 -0.353694,0.0923 -0.416326,0.336036 l -0.08635,0.336037 -0.05412,-0.336036 c -0.04067,-0.252485 -0.136167,-0.336036 -0.384099,-0.336036 -0.239338,0 -0.353695,0.0923 -0.416327,0.336036 l -0.08635,0.336036 -0.05412,-0.336036 c -0.04067,-0.252485 -0.136167,-0.336036 -0.384099,-0.336036 -0.239338,0 -0.353695,0.0923 -0.416327,0.336036 l -0.08635,0.336036 -0.05412,-0.336036 c -0.04067,-0.252485 -0.136167,-0.336036 -0.384099,-0.336036 -0.239337,0 -0.353695,0.0923 -0.416327,0.336036 l -0.08635,0.336036 -0.05412,-0.336036 c -0.04097,-0.254396 -0.135764,-0.336036 -0.390159,-0.336036 -0.44802,0 -0.569962,0.586434 -0.145048,0.697552 0.472862,0.123656 0.334948,0.44497 -0.190989,0.44497 -0.412204,0 -0.47045,-0.0416 -0.47045,-0.336036 z m 1.757999,0.123214 c 0.0065,-0.156586 0.0383,-0.188436 0.08121,-0.08121 0.03883,0.09703 0.03405,0.212963 -0.01061,0.257627 -0.04467,0.04467 -0.07643,-0.03472 -0.0706,-0.176418 z m 0.9409,0 c 0.0065,-0.156586 0.0383,-0.188436 0.08121,-0.08121 0.03883,0.09703 0.03405,0.212963 -0.01061,0.257627 -0.04467,0.04467 -0.07643,-0.03472 -0.0706,-0.176418 z m 0.940901,0 c 0.0065,-0.156586 0.0383,-0.188436 0.08121,-0.08121 0.03883,0.09703 0.03405,0.212963 -0.01061,0.257627 -0.04467,0.04467 -0.07643,-0.03472 -0.0706,-0.176418 z m 0.940901,0 c 0.0065,-0.156586 0.0383,-0.188436 0.08121,-0.08121 0.03883,0.09703 0.03405,0.212963 -0.01061,0.257627 -0.04467,0.04467 -0.07643,-0.03472 -0.0706,-0.176418 z M 7.8391788,10.694934 V 9.4753487 h 0.9200686 c 1.1626147,0 1.3649756,-0.1819114 1.3649756,-1.2270342 0,-0.4044786 -0.07258,-0.8079995 -0.1612968,-0.896713 C 9.837473,7.2261484 10.638443,7.1903043 13.56729,7.1903043 h 3.765661 l 1.239063,0.8736935 1.239064,0.873693 h 1.944499 1.944499 l -0.0074,0.6384685 c -0.0064,0.5502257 -0.06553,0.6844897 -0.427786,0.9714497 -0.586898,0.464915 -1.311575,0.45152 -1.817935,-0.03361 -0.362545,-0.347337 -0.450645,-0.366585 -1.677888,-0.366585 -0.718511,0 -1.332243,-0.05985 -1.378325,-0.134414 -0.05284,-0.085501 -1.809046,-0.1344142 -4.826018,-0.1344142 -5.4342485,0 -5.1408806,-0.068094 -5.2133227,1.2100652 -0.032554,0.574422 -0.093484,0.746263 -0.2769635,0.781143 -0.2100263,0.03993 -0.2352252,-0.08593 -0.2352252,-1.174866 z M 22.816781,10.473855 c 0.40764,-0.40764 0.112611,-1.132921 -0.460849,-1.132921 -0.320718,0 -0.672072,0.3513542 -0.672072,0.672072 0,0.320718 0.351354,0.672072 0.672072,0.672072 0.137295,0 0.344677,-0.09505 0.460849,-0.211223 z m -0.735276,-0.265973 c -0.142853,-0.172128 -0.134027,-0.2472715 0.05075,-0.4320465 0.208628,-0.2086286 0.238729,-0.2086286 0.447358,0 0.184776,0.184775 0.193601,0.2599185 0.05075,0.4320465 -0.09511,0.114602 -0.218603,0.208367 -0.274426,0.208367 -0.05582,0 -0.179316,-0.09377 -0.274428,-0.208367 z M 12.86519,9.4988554 c 0.06279,-0.1015939 -1.195936,-1.7708933 -1.33533,-1.7708933 -0.125788,0 -1.136808,0.9776401 -1.136808,1.0992744 0,0.069901 0.105852,0.2726646 0.235226,0.4505857 0.210196,0.2890728 0.33807,0.3239423 1.201796,0.327717 0.531615,0.00233 0.997417,-0.045687 1.035116,-0.1066838 z M 10.854684,9.0578378 c -0.05054,-0.081775 0.08671,-0.327284 0.305003,-0.5455754 l 0.396892,-0.3968924 0.361044,0.5455749 0.361045,0.545575 h -0.666047 c -0.366325,0 -0.707396,-0.066907 -0.757937,-0.1486821 z m 7.357422,0.3294711 c 0.135195,-0.1223496 0.24345,-0.2886875 0.240567,-0.3696395 -0.0051,-0.1444136 -1.041872,-0.9690093 -1.372394,-1.0915789 -0.167042,-0.061945 -1.176237,1.257398 -1.176237,1.5377215 0,0.2532 2.017644,0.1863234 2.308064,-0.076503 z m -1.899358,-0.079978 c 0.003,-0.09241 0.181577,-0.3739792 0.39683,-0.6257093 L 17.100945,8.22393 17.577809,8.587651 c 0.544018,0.4149424 0.583781,0.5521897 0.216871,0.7485537 -0.376403,0.201445 -1.488716,0.1797722 -1.481932,-0.028876 z M 15.172497,8.7330462 c 0.261164,-0.408266 0.438303,-0.801428 0.39364,-0.8736933 -0.1225,-0.1982091 -0.54828,-0.1576582 -0.73741,0.070231 C 14.608589,8.194834 14.271137,8.1844057 13.770136,7.8968719 13.487747,7.7348031 13.318767,7.7056 13.22219,7.8021761 c -0.191045,0.1910454 0.899217,1.6731746 1.230796,1.6731746 0.149753,0 0.428871,-0.28796 0.719511,-0.7423027 z M 13.97181,8.6520311 C 13.446036,8.0377828 13.419737,7.8419796 13.909042,8.184702 c 0.384833,0.2695472 0.703417,0.2742967 0.919685,0.01371 0.09203,-0.1108916 0.254074,-0.2016214 0.360093,-0.2016214 0.156526,0 0.147115,0.0775 -0.05006,0.4122611 -0.133553,0.226743 -0.341498,0.5018112 -0.462099,0.6112621 -0.196964,0.1787534 -0.268683,0.14128 -0.704849,-0.3682826 z m 0.662533,-0.8013669 c 0.138517,-0.224125 -0.173019,-0.4811376 -0.358445,-0.2957115 -0.155104,0.1551041 -0.05803,0.4418377 0.149585,0.4418377 0.0652,0 0.159189,-0.065757 0.20886,-0.1461262 z m 9.334562,1.7590986 v -0.672072 h 0.672072 c 0.582462,0 0.672071,0.035846 0.672071,0.2688291 0,0.2048221 0.08961,0.2688288 0.376361,0.2688288 0.432266,0 0.698954,0.2154023 0.698954,0.5645403 0,0.215063 -0.134414,0.241946 -1.209729,0.241946 h -1.209729 z m 2.603848,0.3024326 c -0.02748,-0.09241 -0.07832,-0.2587475 -0.112965,-0.3696399 -0.03781,-0.1210251 -0.225866,-0.2016215 -0.47045,-0.2016215 -0.272577,0 -0.407461,-0.066743 -0.407461,-0.2016215 0,-0.1745028 0.515255,-0.2016217 3.830809,-0.2016217 h 3.83081 v 0.533082 0.5330822 l -3.310383,0.03818 c -2.55877,0.02951 -3.321731,3.2e-5 -3.36036,-0.1298386 z m 2.100655,-0.3024326 c 0,-0.073928 -0.176419,-0.1344141 -0.392041,-0.1344141 -0.215624,0 -0.413995,-0.065856 -0.440825,-0.1463468 -0.02907,-0.087217 -0.182945,-0.034718 -0.380841,0.1299426 l -0.332059,0.2762888 0.772883,0.00447 c 0.428626,0.00248 0.772883,-0.055399 0.772883,-0.1299426 z M 9.5121205,9.0603936 C 9.3736033,8.8362687 9.6851398,8.579256 9.8705662,8.7646822 c 0.1551038,0.155104 0.058029,0.4418377 -0.149586,0.4418377 -0.065202,0 -0.1591884,-0.065757 -0.2088597,-0.1461263 z M 18.639757,7.7838714 17.449808,6.8988804 12.7117,6.950493 7.9735937,7.0021052 V 6.6929615 6.3838178 h 6.2429043 6.242904 l 0.04097,0.6384685 0.04097,0.6384683 h 1.814594 1.814594 L 24.2115,7.0222863 24.25247,6.3838178 h 4.697139 4.697138 V 7.5263404 8.6688625 H 26.738236 19.82972 Z m 11.377795,0.1457122 c 0,-0.1108923 -0.09073,-0.2016215 -0.201622,-0.2016215 -0.110892,0 -0.201622,0.090729 -0.201622,0.2016215 0,0.1108916 0.09073,0.2016215 0.201622,0.2016215 0.110892,0 0.201622,-0.09073 0.201622,-0.2016215 z m 0.537658,0 c 0,-0.1108923 -0.09073,-0.2016215 -0.201622,-0.2016215 -0.110892,0 -0.201622,0.090729 -0.201622,0.2016215 0,0.1108916 0.09073,0.2016215 0.201622,0.2016215 0.110892,0 0.201622,-0.09073 0.201622,-0.2016215 z m 0.537658,0 c 0,-0.1108923 -0.09073,-0.2016215 -0.201623,-0.2016215 -0.110892,0 -0.201622,0.090729 -0.201622,0.2016215 0,0.1108916 0.09073,0.2016215 0.201622,0.2016215 0.110893,0 0.201623,-0.09073 0.201623,-0.2016215 z m 0.537657,0 c 0,-0.1108923 -0.09073,-0.2016215 -0.201622,-0.2016215 -0.110892,0 -0.201622,0.090729 -0.201622,0.2016215 0,0.1108916 0.09073,0.2016215 0.201622,0.2016215 0.110892,0 0.201622,-0.09073 0.201622,-0.2016215 z m 0.537658,0 c 0,-0.1108923 -0.09073,-0.2016215 -0.201622,-0.2016215 -0.110892,0 -0.201623,0.090729 -0.201623,0.2016215 0,0.1108916 0.09073,0.2016215 0.201623,0.2016215 0.110892,0 0.201622,-0.09073 0.201622,-0.2016215 z M 30.286381,7.3919257 c 0,-0.1108916 -0.09073,-0.2016214 -0.201622,-0.2016214 -0.110892,0 -0.201622,0.09073 -0.201622,0.2016214 0,0.1108919 0.09073,0.2016215 0.201622,0.2016215 0.110892,0 0.201622,-0.09073 0.201622,-0.2016215 z m 0.537658,0 c 0,-0.1108916 -0.09073,-0.2016214 -0.201622,-0.2016214 -0.110892,0 -0.201623,0.09073 -0.201623,0.2016214 0,0.1108919 0.09073,0.2016215 0.201623,0.2016215 0.110892,0 0.201622,-0.09073 0.201622,-0.2016215 z m 0.537658,0 c 0,-0.1108916 -0.09073,-0.2016214 -0.201623,-0.2016214 -0.110892,0 -0.201622,0.09073 -0.201622,0.2016214 0,0.1108919 0.09073,0.2016215 0.201622,0.2016215 0.110892,0 0.201623,-0.09073 0.201623,-0.2016215 z m 0.537655,0 c 0,-0.1108916 -0.09073,-0.2016214 -0.20162,-0.2016214 -0.110892,0 -0.201622,0.09073 -0.201622,0.2016214 0,0.1108919 0.09073,0.2016215 0.201622,0.2016215 0.110892,0 0.20162,-0.09073 0.20162,-0.2016215 z m -1.8818,-0.5376573 c 0,-0.1108916 -0.09073,-0.2016215 -0.201622,-0.2016215 -0.110892,0 -0.201622,0.09073 -0.201622,0.2016215 0,0.1108918 0.09073,0.2016217 0.201622,0.2016217 0.110892,0 0.201622,-0.09073 0.201622,-0.2016217 z m 0.537658,0 c 0,-0.1108916 -0.09073,-0.2016215 -0.201622,-0.2016215 -0.110892,0 -0.201622,0.09073 -0.201622,0.2016215 0,0.1108918 0.09073,0.2016217 0.201622,0.2016217 0.110892,0 0.201622,-0.09073 0.201622,-0.2016217 z m 0.537658,0 c 0,-0.1108916 -0.09073,-0.2016215 -0.201623,-0.2016215 -0.110892,0 -0.201622,0.09073 -0.201622,0.2016215 0,0.1108918 0.09073,0.2016217 0.201622,0.2016217 0.110893,0 0.201623,-0.09073 0.201623,-0.2016217 z m 0.537657,0 c 0,-0.1108916 -0.09073,-0.2016215 -0.201622,-0.2016215 -0.110892,0 -0.201622,0.09073 -0.201622,0.2016215 0,0.1108918 0.09073,0.2016217 0.201622,0.2016217 0.110892,0 0.201622,-0.09073 0.201622,-0.2016217 z m 0.537658,0 c 0,-0.1108916 -0.09073,-0.2016215 -0.201622,-0.2016215 -0.110892,0 -0.201623,0.09073 -0.201623,0.2016215 0,0.1108918 0.09073,0.2016217 0.201623,0.2016217 0.110892,0 0.201622,-0.09073 0.201622,-0.2016217 z M 9.5121205,7.9850786 C 9.3736033,7.7609537 9.6851398,7.5039412 9.8705662,7.6893669 c 0.1551038,0.155104 0.058029,0.4418382 -0.149586,0.4418382 -0.065202,0 -0.1591884,-0.065757 -0.2088597,-0.1461265 z M 20.832569,7.5039376 C 20.783286,7.4546543 20.74296,7.2127065 20.74296,6.9662802 V 6.5182325 h 1.612972 1.612973 v 0.3763603 c 0,0.206998 -0.07258,0.4489437 -0.161298,0.5376574 -0.172195,0.1721952 -2.810946,0.2357793 -2.975038,0.071687 z M 3.2320017,6.3514588 c 0.03135,-0.3135089 0.077615,-0.5906295 0.1028081,-0.6158222 0.025193,-0.025193 2.2889552,-0.00173 5.0305821,0.052109 4.0524781,0.079602 4.9847771,0.1319303 4.9847771,0.2797868 0,0.1469714 -0.528765,0.1818718 -2.755495,0.1818718 H 7.8391788 V 6.5854393 6.9214757 H 5.5070895 3.175 Z m 1.1796107,0.032361 c 0,-0.2463448 -0.080882,-0.3475213 -0.3030331,-0.379067 -0.3302707,-0.0469 -0.5178525,0.2413551 -0.3840205,0.5901158 0.048577,0.1265918 0.2022545,0.1938291 0.3840205,0.1680182 0.2221508,-0.031548 0.3030331,-0.1327223 0.3030331,-0.379067 z m 1.0753152,0 c 0,-0.2463448 -0.080882,-0.3475213 -0.3030336,-0.379067 C 4.8536238,5.9578525 4.6660419,6.246108 4.7998739,6.5948687 4.8484511,6.7214605 5.0021284,6.7886978 5.183894,6.7628869 5.4060452,6.7313386 5.4869276,6.6301646 5.4869276,6.3838198 Z m 1.0753152,0 c 0,-0.2463448 -0.080882,-0.3475213 -0.3030338,-0.379067 C 6.0774436,5.9789391 5.9237668,6.0461772 5.8751887,6.1727708 5.7413565,6.5215322 5.9289389,6.8097855 6.259209,6.7628869 6.4813605,6.7313386 6.5622428,6.6301646 6.5622428,6.3838198 Z m 1.0753145,0 c 0,-0.2463448 -0.080882,-0.3475213 -0.303033,-0.379067 -0.3302701,-0.0469 -0.5178525,0.2413551 -0.3840206,0.5901158 0.048577,0.1265918 0.2022547,0.1938291 0.3840206,0.1680182 0.2221512,-0.031548 0.303033,-0.1327223 0.303033,-0.379067 z M 24.192929,6.0253817 c -0.300364,-0.3003628 -0.01581,-0.4216115 1.204076,-0.5130704 1.273043,-0.095444 1.299267,-0.09141 1.643521,0.2528439 l 0.349836,0.3498361 h -0.89631 c -0.49297,0 -0.933692,-0.060487 -0.979382,-0.1344146 -0.04569,-0.073928 -0.200476,-0.1344142 -0.343969,-0.1344142 -0.143493,0 -0.260896,0.060486 -0.260896,0.1344142 0,0.149507 -0.576164,0.1855172 -0.716876,0.044802 z M 27.329264,5.7117484 C 26.9401,5.3841584 26.735908,5.3151101 26.147485,5.3121188 l -0.711331,-0.00361 0.03926,-1.041712 0.03926,-1.041711 1.594938,-0.038005 c 1.388078,-0.033077 1.617127,-0.00766 1.766037,0.1959907 0.0941,0.1286969 0.137759,0.3208835 0.09701,0.4270806 -0.04075,0.1061975 0.01416,0.2599476 0.122028,0.3416666 0.107867,0.08172 0.280598,0.3602837 0.383846,0.6190309 0.10325,0.2587478 0.243897,0.5088204 0.312553,0.5557159 0.06865,0.046896 0.100567,0.1580379 0.07092,0.2469814 -0.02965,0.088944 -0.324331,-0.3224207 -0.654849,-0.9141443 -0.330523,-0.5917226 -0.622798,-1.0540158 -0.6495,-1.0273176 -0.02671,0.026697 0.230363,0.5602201 0.571261,1.1856043 0.340896,0.6253848 0.619815,1.1731172 0.619815,1.2171837 0,0.044066 -0.438528,0.078494 -0.974506,0.076505 C 27.894129,6.108128 27.754149,6.0694 27.329272,5.7117508 Z m 1.276935,-0.2688291 c 0,-0.2463453 -0.08088,-0.3475216 -0.303032,-0.3790673 -0.33027,-0.046901 -0.517853,0.2413552 -0.38402,0.5901163 0.04858,0.1265916 0.202254,0.193829 0.38402,0.168018 0.222151,-0.031548 0.303032,-0.132722 0.303032,-0.379067 z M 27.732508,5.0597314 c 0,-0.062896 -0.0664,-0.3048415 -0.147565,-0.5376572 -0.119798,-0.3436566 -0.220959,-0.4233009 -0.537657,-0.4233009 -0.3655,0 -0.390094,0.033895 -0.390094,0.5376578 v 0.5376573 h 0.537658 c 0.295712,0 0.537658,-0.05146 0.537658,-0.114357 z"
       id="path909" />
  </g>
</svg>
