<?xml version="1.0" encoding="UTF-8" standalone="no"?>
<svg
   xmlns:dc="http://purl.org/dc/elements/1.1/"
   xmlns:cc="http://creativecommons.org/ns#"
   xmlns:rdf="http://www.w3.org/1999/02/22-rdf-syntax-ns#"
   xmlns:svg="http://www.w3.org/2000/svg"
   xmlns="http://www.w3.org/2000/svg"
   xmlns:sodipodi="http://sodipodi.sourceforge.net/DTD/sodipodi-0.dtd"
   xmlns:inkscape="http://www.inkscape.org/namespaces/inkscape"
   width="512"
   height="128"
   viewBox="0 0 135.46666 33.866667"
   version="1.1"
   id="svg8"
   inkscape:version="1.0.1 (3bc2e813f5, 2020-09-07)"
   sodipodi:docname="Sentinel ESR.svg">
  <defs
     id="defs2" />
  <sodipodi:namedview
     id="base"
     pagecolor="#ffffff"
     bordercolor="#666666"
     borderopacity="1.0"
     inkscape:pageopacity="0.0"
     inkscape:pageshadow="2"
     inkscape:zoom="0.98994949"
     inkscape:cx="240.91735"
     inkscape:cy="61.020557"
     inkscape:document-units="mm"
     inkscape:current-layer="layer1"
     inkscape:document-rotation="0"
     showgrid="false"
     units="px"
     inkscape:window-width="1366"
     inkscape:window-height="705"
     inkscape:window-x="-8"
     inkscape:window-y="-8"
     inkscape:window-maximized="1" />
  <metadata
     id="metadata5">
    <rdf:RDF>
      <cc:Work
         rdf:about="">
        <dc:format>image/svg+xml</dc:format>
        <dc:type
           rdf:resource="http://purl.org/dc/dcmitype/StillImage" />
        <dc:title></dc:title>
      </cc:Work>
    </rdf:RDF>
  </metadata>
  <g
     inkscape:label="Layer 1"
     inkscape:groupmode="layer"
     id="layer1">
    <path
       style="fill:#273839;stroke-width:0.205704;fill-opacity:1"
       d="m 110.72938,29.394824 c -0.17297,-0.172967 -0.24685,-1.311938 -0.24685,-3.805534 v -3.558688 h 1.2753 c 0.92853,0 1.73957,-0.175229 2.98272,-0.644421 l 1.70742,-0.644421 v -2.13259 -2.13259 h -2.87987 -2.87986 v -1.372309 c 0,-0.988277 -0.0953,-1.477579 -0.34044,-1.748487 -0.32239,-0.356232 -0.30875,-0.3762 0.25713,-0.376546 0.58381,-3.5e-4 0.59757,0.02451 0.59757,1.079949 v 1.080314 l 2.03761,0.05926 c 1.97509,0.05744 2.05556,0.04206 2.62274,-0.50132 0.37148,-0.355912 0.58512,-0.771842 0.58512,-1.13921 v -0.578628 h 5.86257 5.86257 v 6.068283 6.068284 h -3.60423 -3.60424 l -0.23432,0.514261 c -0.18184,0.399105 -0.38813,0.514261 -0.92125,0.514261 -0.57319,0 -0.68811,0.07664 -0.69392,0.462835 -0.004,0.25456 -0.46897,1.04138 -1.03366,1.748489 l -1.02669,1.285652 h -3.03929 c -2.08962,0 -3.11642,-0.07713 -3.28613,-0.246844 z m 6.52884,-1.692214 c 0.30242,-0.364391 0.209,-2.543749 -0.12076,-2.817433 -0.13016,-0.10802 -1.10222,-0.169664 -2.16014,-0.136984 l -1.92348,0.05942 -0.0616,1.421517 c -0.0432,0.998133 0.018,1.472016 0.2057,1.591061 0.48156,0.305462 3.78864,0.209691 4.06025,-0.11758 z m -4.10153,-1.043657 v -0.92567 h 1.95419 1.9542 v 0.92567 0.925671 h -1.9542 -1.95419 z m -1.54278,-1.337079 c 0,-0.166608 -0.162,-0.334119 -0.35999,-0.372249 -0.25257,-0.04864 -0.35998,0.06243 -0.35998,0.372249 0,0.309822 0.10741,0.42089 0.35998,0.372249 0.19799,-0.03813 0.35999,-0.20564 0.35999,-0.372249 z m 8.63959,0 c 0,-0.166608 -0.162,-0.334119 -0.35999,-0.372249 -0.25257,-0.04864 -0.35999,0.06243 -0.35999,0.372249 0,0.309822 0.10742,0.42089 0.35999,0.372249 0.19799,-0.03813 0.35999,-0.20564 0.35999,-0.372249 z m 6.84729,-1.202799 c 0.20424,-0.12959 0.26475,-1.335496 0.26475,-5.276893 0,-3.941397 -0.0605,-5.147303 -0.26475,-5.276893 -0.30342,-0.192515 -8.66666,-0.232357 -9.36718,-0.04463 l -0.46283,0.124035 v 5.204332 c 0,3.970994 0.0609,5.22892 0.25713,5.308086 0.43554,0.175744 9.2914,0.14055 9.57288,-0.03804 z m -9.53189,-0.498714 c -0.0552,-0.143871 -0.0754,-2.388621 -0.0449,-4.988336 l 0.0554,-4.726752 4.78264,-0.05522 4.78262,-0.05522 v 5.043552 5.043552 H 122.407 c -3.64336,0 -4.76084,-0.06042 -4.83803,-0.261582 z m 7.94359,-0.157065 c 0.21883,-0.117118 0.39788,-0.290983 0.39788,-0.386368 0,-0.09538 -0.61036,-0.832664 -1.35634,-1.638398 -1.15781,-1.250546 -1.45646,-1.464974 -2.04039,-1.464974 -0.58634,0 -0.87686,0.211276 -2.0341,1.479228 -1.26999,1.391494 -1.33008,1.501296 -1.01331,1.85134 0.29179,0.322412 0.69149,0.372114 2.99256,0.372114 1.4607,0 2.83485,-0.09582 3.0537,-0.212942 z m -5.6704,-2.461216 1.01306,-1.028524 h -1.07222 -1.07222 v 1.028524 c 0,0.565687 0.0266,1.028522 0.0592,1.028522 0.0326,0 0.51504,-0.462835 1.07222,-1.028522 z m 6.47968,0 v -1.028524 h -0.94482 -0.94482 l 0.86113,1.028524 c 0.47361,0.565687 0.89879,1.028522 0.94482,1.028522 0.046,0 0.0837,-0.462835 0.0837,-1.028522 z m -6.39679,-3.908387 c -0.47699,-0.565687 -0.94534,-1.028522 -1.04076,-1.028522 -0.0954,0 -0.17351,0.462835 -0.17351,1.028522 v 1.028523 h 1.04077 1.04076 z m 4.65835,-0.517965 c 1.34885,-1.507109 1.3747,-1.556872 1.01513,-1.954194 -0.33232,-0.367213 -0.63843,-0.407705 -3.08222,-0.407705 -2.43029,0 -2.75116,0.0419 -3.07684,0.401768 -0.35245,0.38946 -0.32086,0.449326 1.03134,1.954193 1.90555,2.120707 2.21947,2.121161 4.11259,0.0059 z m 1.73844,0.475136 v -1.071352 l -0.92566,0.908476 c -0.50912,0.499663 -0.92568,0.981772 -0.92568,1.071353 0,0.08958 0.41656,0.162875 0.92568,0.162875 h 0.92566 z m -9.77095,-1.602807 c 0,-0.166607 -0.162,-0.33412 -0.35998,-0.372249 -0.25258,-0.04864 -0.35999,0.06243 -0.35999,0.372249 0,0.309822 0.10741,0.42089 0.35999,0.372249 0.19798,-0.03813 0.35998,-0.205641 0.35998,-0.372249 z M 99.168785,28.833781 c 0,-0.405541 0.17699,-0.741404 0.542002,-1.028522 0.479163,-0.376909 0.824993,-0.426339 2.982713,-0.426339 h 2.44071 v -2.657627 -2.657628 l 1.04874,-0.348332 c 1.19967,-0.398467 1.58059,-1.019395 1.7738,-2.891378 0.17675,-1.712567 -0.0528,-2.4733 -0.92518,-3.066101 -0.7406,-0.503253 -0.84707,-0.515501 -4.48056,-0.515501 -3.704079,0 -3.724236,-0.0025 -4.205043,-0.514261 -0.26572,-0.282845 -0.420705,-0.525834 -0.344414,-0.539976 0.07629,-0.01414 0.254419,-0.03729 0.39584,-0.05143 0.392071,-0.03921 0.306401,-0.627703 -0.102852,-0.706518 -0.257117,-0.04952 -0.359983,0.06354 -0.359983,0.395651 0,0.452597 -0.01681,0.44889 -0.631281,-0.139196 l -0.63128,-0.604172 6.236723,-0.12535 c 5.69918,-0.114546 6.28106,-0.0947 6.75099,0.23022 l 0.51426,0.35557 -0.0505,7.072291 c -0.049,6.871107 -0.0635,7.09716 -0.50996,7.946535 l -0.45949,0.874244 h -4.99263 -4.992629 z m 2.057045,-0.632043 c 0,-0.425873 -0.49627,-0.567662 -0.71997,-0.205705 -0.17218,0.278598 0.0602,0.617114 0.42355,0.617114 0.16303,0 0.29642,-0.185135 0.29642,-0.411409 z m 8.02247,0 c 0,-0.425873 -0.49626,-0.567662 -0.71996,-0.205705 -0.17218,0.278598 0.0601,0.617114 0.42355,0.617114 0.16303,0 0.29641,-0.185135 0.29641,-0.411409 z m 0.41141,-3.59983 v -2.571306 h -0.85037 c -0.46771,0 -1.19722,0.103915 -1.62114,0.230924 -0.71089,0.212987 -0.78064,0.303089 -0.89811,1.160085 -0.16869,1.23073 -0.1627,3.44198 0.01,3.614466 0.0754,0.07542 0.86225,0.137138 1.74849,0.137138 h 1.61135 v -2.571307 z m -3.08556,0.247029 v -1.91287 l 0.68314,-0.247029 c 0.37573,-0.135865 0.97742,-0.247027 1.33708,-0.247027 h 0.65393 v 2.159897 2.159899 h -1.33707 -1.33708 z m -1.54279,-11.046515 v -0.514263 l -2.93557,-0.0571 c -2.478818,-0.04822 -2.954323,-0.0082 -3.056145,0.257131 -0.06632,0.172826 -0.06632,0.455635 0,0.628461 0.101822,0.265341 0.577327,0.305348 3.056145,0.257132 l 2.93557,-0.0571 z m -5.656871,-0.102854 c 0,-0.258448 0.434265,-0.308556 2.674161,-0.308556 2.23989,0 2.67416,0.05011 2.67416,0.308556 0,0.25845 -0.43427,0.308557 -2.67416,0.308557 -2.239896,0 -2.674161,-0.05011 -2.674161,-0.308557 z m 8.639591,-0.02201 c 0,-0.373333 -0.54037,-0.371834 -0.68379,0.0019 -0.0609,0.158646 -0.0617,0.337402 -0.002,0.397237 0.1889,0.188947 0.68564,-0.100203 0.68564,-0.399129 z m 14.12504,13.769926 c -0.0754,-0.07542 -0.13714,-0.538258 -0.13714,-1.028522 v -0.891386 h 2.57131 2.57131 v 1.028523 1.028522 h -2.43417 c -1.3388,0 -2.49588,-0.06171 -2.57131,-0.137137 z m 6.29113,-0.01348 -0.87425,-0.07874 v -0.913842 c 0,-0.901681 0.009,-0.913843 0.69764,-0.913843 0.62865,0 0.73218,0.08637 1.04719,0.873644 0.19226,0.480503 0.45687,0.941921 0.58802,1.025373 0.24332,0.154823 0.18157,0.155138 -1.4586,0.0074 z m -7.04538,-0.865763 c 0,-0.445872 0.0926,-0.867888 0.2057,-0.937811 0.12565,-0.07765 0.20571,0.237853 0.20571,0.810678 0,0.515796 -0.0926,0.937811 -0.20571,0.937811 -0.11313,0 -0.2057,-0.364805 -0.2057,-0.810678 z m -0.35954,-0.114993 c 0.002,-0.45255 0.0444,-0.613462 0.0936,-0.357585 0.0492,0.255879 0.0474,0.626147 -0.004,0.822818 -0.0515,0.196672 -0.0917,-0.0127 -0.0895,-0.465233 z m 8.72379,0.154278 c -0.15724,-0.311127 -0.4836,-1.144599 -0.72524,-1.852159 -0.41567,-1.217142 -0.43935,-1.673081 -0.43935,-8.460125 0,-6.142693 0.0445,-7.2106524 0.31021,-7.4311094 0.43195,-0.35848 2.07242,-0.143003 2.74743,0.360875 l 0.54219,0.404737 0.0538,8.0699354 0.0538,8.069935 -0.7018,0.701799 c -0.85759,0.857592 -1.45416,0.901697 -1.84109,0.136112 z m 1.57818,-1.57917 c 0.14435,-0.376177 -0.37986,-0.817458 -0.78596,-0.661623 -0.32038,0.122943 -0.41665,0.575397 -0.17404,0.818003 0.24351,0.243511 0.84409,0.145678 0.96,-0.15638 z m -0.7798,-0.103678 c -0.15212,-0.246146 0.23484,-0.490036 0.50884,-0.320698 0.23005,0.142179 0.079,0.512189 -0.20906,0.512189 -0.0998,0 -0.23468,-0.08617 -0.29978,-0.191491 z m 0.46434,-5.403673 c 0.62109,-0.621088 -0.01,-1.606206 -0.76853,-1.200123 -0.51872,0.277613 -0.55364,0.939932 -0.0646,1.224787 0.46733,0.272193 0.53835,0.270091 0.8331,-0.02466 z m -0.88857,-0.376803 c -0.0799,-0.12926 -0.0484,-0.33181 0.0698,-0.450112 0.27644,-0.276446 0.92097,-0.03531 0.8085,0.302476 -0.1145,0.343874 -0.6966,0.441715 -0.87835,0.147636 z m 0.89628,-6.962407 c 0.15133,-0.09592 0.24389,-0.39534 0.20571,-0.66539 -0.0955,-0.675622 -1.10189,-0.818143 -1.303,-0.184529 -0.23345,0.735575 0.44664,1.262345 1.09729,0.849919 z m -0.80677,-0.354515 c -0.18277,-0.220225 -0.1908,-0.367417 -0.0288,-0.529348 0.28405,-0.284046 0.86907,-0.07125 0.86907,0.316125 0,0.428645 -0.54635,0.567295 -0.8402,0.213223 z M 98.974029,24.911767 c -1.092339,-1.745098 -1.35358,-2.040087 -1.728817,-1.952145 -0.243115,0.05698 -0.573561,0.01801 -0.734321,-0.0866 -0.249168,-0.162134 -0.241234,-0.268118 0.05376,-0.718343 0.337835,-0.515602 0.330988,-0.54157 -0.288195,-1.093264 -0.348836,-0.310816 -1.053721,-1.238137 -1.566413,-2.060716 l -0.932164,-1.495596 -2.08718,0.0012 c -2.311953,0.0012 -3.523096,0.246471 -3.717309,0.752585 -0.156291,0.407288 0.244518,0.873612 1.732981,2.016243 1.283444,0.985247 2.589335,1.287889 3.962139,0.918231 0.787396,-0.212023 0.81387,-0.246849 0.703701,-0.925736 -0.06296,-0.387989 -0.08156,-0.705431 -0.04133,-0.705431 0.233894,0 0.953703,1.498025 0.795723,1.656006 -0.576436,0.576436 -3.978821,1.314739 -3.981065,0.863875 -4.12e-4,-0.08485 -0.573296,-0.617013 -1.273048,-1.182578 -0.699752,-0.565579 -1.806425,-1.768951 -2.459275,-2.674174 -0.652848,-0.905222 -1.329632,-1.807851 -1.503964,-2.005841 -0.174331,-0.19799 -0.316967,-0.545117 -0.316967,-0.771392 0,-0.356555 0.137137,-0.411409 1.028522,-0.411409 0.754251,0 1.138232,0.10971 1.439933,0.411409 0.372226,0.372227 0.68568,0.411409 3.291272,0.411409 h 2.879863 v -0.576589 c 0,-0.696494 1.129449,-2.303274 1.619031,-2.303274 0.522276,0 2.409484,2.044625 2.728395,2.955981 0.184892,0.528357 0.56465,0.992908 1.129207,1.381332 0.467842,0.321887 1.316622,1.213304 1.886162,1.980928 1.23355,1.662567 1.80394,2.220894 2.56245,2.50826 l 0.56568,0.214315 v 2.473546 2.473545 h -2.23099 -2.23099 z M 96.237555,13.853956 c 0.112471,-0.337794 -0.53205,-0.578924 -0.808497,-0.302477 -0.1183,0.118302 -0.149732,0.320853 -0.06985,0.450113 0.181751,0.294079 0.763847,0.196236 0.878342,-0.147636 z M 74.360821,24.005365 c -0.664049,-0.664049 -0.699395,-0.773207 -0.699395,-2.159896 0,-1.133871 0.06623,-1.460503 0.296138,-1.460503 0.19372,0 0.318221,0.266787 0.359984,0.771391 l 0.06384,0.771393 1.459228,0.05979 c 1.098471,0.04501 1.52223,-0.01613 1.714058,-0.24726 0.381882,-0.460139 0.08005,-1.111285 -0.56038,-1.208925 -0.305725,-0.04661 1.354858,-0.09861 3.690182,-0.115568 l 4.246042,-0.03082 1.153701,0.970008 1.1537,0.970009 v 1.189888 1.18989 h -6.088848 -6.088853 z m 13.07948,-0.586258 -0.0033,-1.285653 -1.282325,-1.075876 -1.282322,-1.075877 -5.667811,-0.004 -5.66781,-0.004 -0.46375,-1.43999 -0.463763,-1.439932 h -3.791568 -3.791569 l -0.75322,-1.134433 -0.753222,-1.134431 -5.959239,0.05448 -5.959242,0.05448 -0.600443,1.954193 c -0.330244,1.074807 -0.74213,2.44017 -0.915303,3.034141 -0.271758,0.932106 -0.3855,1.07995 -0.830869,1.07995 -0.6206,0 -0.636057,0.09918 0.625134,-4.011239 l 0.883622,-2.879864 6.359201,-0.05428 6.3592,-0.05429 0.821514,1.332627 0.821516,1.332627 10.285225,0.0105 10.285225,0.0105 1.420903,1.899583 c 0.781495,1.044772 1.969439,2.353073 2.639876,2.907336 1.170117,0.967364 1.213429,1.037287 1.080718,1.744702 -0.257707,1.373699 -0.379235,1.464489 -1.960313,1.464489 h -1.432738 z m -12.750352,-2.30436 c 0,-0.6969 0.03244,-0.729781 0.719965,-0.729781 0.395981,0 0.719966,0.09257 0.719966,0.205704 0,0.113138 0.28414,0.205704 0.63142,0.205704 0.537147,0 0.621607,0.0691 0.565688,0.462836 -0.05904,0.415701 -0.19666,0.469071 -1.351386,0.524076 l -1.285653,0.06124 z m 36.409701,-1.861156 v -2.365603 h 2.46845 2.46846 v 1.818843 1.818843 l -1.39361,0.546759 c -0.87759,0.344314 -1.79157,0.54676 -2.46845,0.54676 h -1.07485 z M 92.286685,19.92213 c 0.05912,-1.776806 0.06713,-1.799914 0.624458,-1.799914 0.488583,0 0.520147,0.05295 0.398547,0.66854 -0.333503,1.68834 -1.068584,2.501292 -1.023005,1.131374 z M 50.913711,19.613574 c 0.284913,-0.905983 1.148742,-3.83359 1.148742,-3.89321 0,-0.03663 2.532488,-0.0666 5.62775,-0.0666 h 5.62775 l 0.75119,1.131375 0.751193,1.131376 h 3.779011 3.779011 l 0.230127,0.913908 c 0.126567,0.502649 0.230124,0.965484 0.230124,1.028521 0,0.06304 -4.958574,0.114614 -11.019054,0.114614 -10.400325,0 -11.012695,-0.02021 -10.905844,-0.359982 z m -2.061534,-1.536356 c 0.133599,-0.667992 0.445065,-1.143145 0.628859,-0.95935 0.160337,0.160335 -0.348235,1.621462 -0.564376,1.621462 -0.112048,0 -0.139837,-0.285341 -0.06448,-0.662112 z m 17.609592,-2.629161 c 0,-0.411409 0.102851,-0.617114 0.308557,-0.617114 0.205703,0 0.308557,0.205705 0.308557,0.617114 0,0.411409 -0.102854,0.617114 -0.308557,0.617114 -0.205706,0 -0.308557,-0.205705 -0.308557,-0.617114 z m -1.542784,0 c -0.365868,-0.40428 -0.35929,-0.411409 0.379527,-0.411409 0.61471,0 0.751847,0.07504 0.751847,0.411409 0,0.262753 -0.137137,0.411409 -0.379527,0.411409 -0.20874,0 -0.547071,-0.185134 -0.751847,-0.411409 z m 2.571306,0 c 0,-0.395276 0.137137,-0.411409 3.496976,-0.411409 3.359841,0 3.496977,0.01613 3.496977,0.411409 0,0.395275 -0.137136,0.411409 -3.496977,0.411409 -3.359839,0 -3.496976,-0.01613 -3.496976,-0.411409 z m 7.405362,-0.102852 c 0,-0.491406 0.05486,-0.514262 1.234227,-0.514262 1.179372,0 1.234228,0.02286 1.234228,0.514262 0,0.491405 -0.05486,0.514261 -1.234228,0.514261 -1.179372,0 -1.234227,-0.02286 -1.234227,-0.514261 z m 3.291273,0 c 0,-0.434265 0.096,-0.514262 0.617113,-0.514262 0.521117,0 0.617113,0.08 0.617113,0.514262 0,0.434265 -0.096,0.514261 -0.617113,0.514261 -0.521117,0 -0.617113,-0.08 -0.617113,-0.514261 z m 1.85134,0 c 0,-0.377125 0.109708,-0.514262 0.411409,-0.514262 0.3017,0 0.411409,0.137137 0.411409,0.514262 0,0.377125 -0.109709,0.514261 -0.411409,0.514261 -0.301701,0 -0.411409,-0.137136 -0.411409,-0.514261 z m 1.439931,-0.02201 c 0,-0.433691 0.06886,-0.506095 0.359983,-0.378521 0.197991,0.08676 1.031094,0.199351 1.851341,0.250197 1.092103,0.06769 1.491357,0.169031 1.491357,0.378519 0,0.223105 -0.407509,0.286074 -1.85134,0.286074 h -1.851341 z m 7.251084,0.121686 c -0.254558,-0.1041 -0.462835,-0.331106 -0.462835,-0.504458 0,-0.25659 0.344183,-0.323153 1.85134,-0.358041 4.00966,-0.09282 3.79407,-0.118627 3.794426,0.454264 l 4.11e-4,0.514261 -2.360208,0.04163 c -1.298205,0.02289 -2.568575,-0.04355 -2.823134,-0.147651 z M 33.754753,12.185438 V 9.1285226 l 1.079948,-0.129717 c 0.593972,-0.07135 7.166231,-0.130523 14.60502,-0.131506 l 13.52507,-0.0018 v 2.3656034 2.365601 H 62.141974 61.319157 V 11.539659 9.4826136 h -2.082233 c -1.951636,0 -2.064833,0.02258 -1.804793,0.359983 0.152593,0.1979914 0.85818,1.0678014 1.567972,1.9329114 0.709791,0.865112 1.29053,1.62879 1.29053,1.697063 0,0.06827 -0.216664,0.124133 -0.481478,0.124133 -0.345292,0 -0.852976,-0.436381 -1.794873,-1.542783 -0.722366,-0.848531 -1.361944,-1.537888 -1.421288,-1.531904 -0.05934,0.006 -0.655564,0.700238 -1.324939,1.542784 -1.021226,1.285426 -1.314879,1.531903 -1.825103,1.531903 -0.69668,0 -0.744167,0.09493 0.955496,-1.910231 0.554904,-0.654646 0.963133,-1.23605 0.907175,-1.292008 -0.05596,-0.05595 -1.273152,-0.07574 -2.704876,-0.04396 l -2.603133,0.05778 1.360482,1.542783 1.360482,1.542785 -0.585194,0.07062 c -0.503213,0.06075 -0.786913,-0.149533 -2.025123,-1.501032 l -1.439933,-1.571676 -1.285652,1.544798 c -0.70711,0.849638 -1.285653,1.594538 -1.285653,1.655331 0,0.06079 0.963289,0.110535 2.140643,0.110535 h 2.140644 l -0.220965,0.719957 -0.220963,0.719967 h -8.090815 -8.090814 z m 4.470656,-0.154822 c 0.991833,-1.200769 1.834187,-2.2652904 1.871898,-2.3656034 0.03771,-0.100313 -0.818531,-0.182387 -1.902766,-0.182387 h -1.971334 v 1.9734504 c 0,1.800453 -0.03607,1.982883 -0.41141,2.081037 -0.592344,0.154902 -0.51567,0.676716 0.09944,0.676716 0.398627,0 0.906982,-0.479586 2.314175,-2.183213 z m 4.049223,0.177595 c -0.7724,-0.876816 -1.42791,-1.628976 -1.45669,-1.671466 -0.05524,-0.08156 -0.685354,0.639216 -1.989502,2.275732 l -0.78889,0.989945 h 2.819722 2.819723 z m 3.828243,-0.257132 1.285443,-1.542783 -1.365615,-0.06082 c -0.751086,-0.03345 -1.965543,-0.03345 -2.698791,0 l -1.333179,0.06082 1.36862,1.593052 c 0.752743,0.876179 1.38875,1.570433 1.41335,1.542785 0.0246,-0.02765 0.623178,-0.744522 1.330172,-1.593054 z m 65.408175,1.954194 v -0.92567 h 2.26275 2.26276 v 0.585232 c 0,1.017392 -0.5184,1.266108 -2.63894,1.266108 h -1.88657 z M 85.592287,12.594693 V 10.511148 H 74.484244 63.376201 V 9.1704196 7.8296906 l 16.233506,0.05508 16.233508,0.05507 0.625933,0.462835 c 0.572842,0.423579 0.850479,0.462835 3.273328,0.462835 2.613144,0 2.647184,0.006 2.631064,0.462835 -0.0158,0.44729 0.0545,0.464805 2.09214,0.521458 l 2.10847,0.05862 v -0.521457 c 0,-0.488613 0.0648,-0.521458 1.02852,-0.521458 0.90704,0 1.02852,0.05092 1.02852,0.431097 0,0.237103 0.15485,0.693228 0.3441,1.0136104 l 0.3441,0.582514 4.48996,-0.119889 4.48996,-0.119889 v 0.95762 0.957619 H 106.89999 95.500674 l -0.630525,0.796103 -0.630523,0.796101 -2.318052,0.133491 c -1.274927,0.07342 -3.220578,0.189933 -4.323667,0.258919 l -2.00562,0.125429 z m 1.73404,1.479763 c 0.170302,-0.443804 -0.325209,-0.943239 -0.767457,-0.773533 -0.286299,0.109864 -0.338832,0.462349 -0.15905,1.067186 0.06514,0.21914 0.82175,-0.02067 0.926507,-0.293653 z m 5.955409,-0.889149 c 0.553098,-0.612215 0.901454,-0.822818 1.361015,-0.822818 0.487065,0 0.617648,-0.08984 0.617648,-0.424933 0,-0.233712 -0.09582,-0.60398 -0.212941,-0.822818 -0.193303,-0.361187 -0.452953,-0.397885 -2.81518,-0.397885 -2.388667,0 -2.641311,0.03671 -3.078331,0.447267 -0.364576,0.342502 -0.476092,0.670142 -0.476092,1.39879 0,0.523339 0.11108,1.062605 0.246846,1.19837 0.151772,0.151773 0.895209,0.246845 1.930256,0.246845 h 1.683412 z m -4.055335,0.06856 c -0.283318,-0.283316 -0.12651,-1.454352 0.239043,-1.785174 0.301924,-0.273236 0.821677,-0.340438 2.633018,-0.340438 1.481045,0 2.34169,0.08485 2.503682,0.246845 0.375868,0.375868 0.296982,0.575972 -0.227062,0.575972 -0.271557,0 -0.771869,0.307417 -1.171728,0.719967 -0.677552,0.699056 -0.743444,0.719966 -2.268818,0.719966 -0.864049,0 -1.632711,-0.06171 -1.708135,-0.137138 z m 11.999429,-1.338023 c 0,-0.951516 -0.52883,-1.198998 -2.562047,-1.198998 -2.055451,0 -2.374861,0.143866 -2.374861,1.069664 v 0.575972 h 2.468454 c 2.396214,0 2.468454,-0.01307 2.468454,-0.446638 z m -4.5255,-0.129334 c 0,-0.678837 0.442752,-0.863959 2.066304,-0.863959 1.294316,0 1.636426,0.07051 1.933206,0.398446 0.60641,0.67008 0.2189,0.835781 -1.954604,0.835781 -1.832032,0 -2.044906,-0.03855 -2.044906,-0.370268 z m 10.49093,0.129334 c 0,-0.94804 -0.53071,-1.198998 -2.53557,-1.198998 -2.0325,0 -2.60704,0.25636 -2.60704,1.163256 0,0.48031 0.011,0.48238 2.5713,0.48238 2.50178,0 2.57131,-0.01207 2.57131,-0.446638 z m -4.7312,-0.03574 c 0,-0.640889 0.72609,-0.957552 2.19563,-0.957552 1.13699,0 1.51553,0.07983 1.78372,0.37618 0.67703,0.748107 0.4439,0.858047 -1.81946,0.858047 -1.67215,0 -2.15989,-0.06248 -2.15989,-0.276675 z m -6.27399,-1.6747 c 0,-0.4538164 -0.639515,-0.6798114 -0.974834,-0.3444914 -0.34574,0.3457384 -0.0047,0.8921824 0.511079,0.8189384 0.303449,-0.04309 0.463755,-0.207091 0.463755,-0.474447 z m 5.96543,-0.0028 c 0,-0.3016994 -0.13714,-0.4114074 -0.51426,-0.4114074 -0.47873,0 -0.67939,0.3440454 -0.45677,0.7831544 0.17519,0.345554 0.97103,0.04088 0.97103,-0.371747 z M 64.957844,9.8426036 c 0.304535,-0.407658 0.200846,-0.862062 -0.214988,-0.942144 -0.522588,-0.100642 -0.818426,0.246774 -0.653261,0.767158 0.153002,0.4820704 0.57527,0.5671744 0.868249,0.174986 z m 2.016404,-0.363302 c -0.0012,-0.362628 -0.128015,-0.529027 -0.436653,-0.573244 -0.521123,-0.07466 -0.807178,0.499613 -0.458274,0.920015 0.368867,0.4444594 0.896972,0.2398264 0.894927,-0.346771 z m -3.265832,4.4332094 c -0.194699,-0.297151 -0.332215,-0.93576 -0.332215,-1.542785 v -1.03576 h 1.645636 1.645636 v 1.542784 1.542785 h -1.313421 c -1.168992,0 -1.349952,-0.05575 -1.645636,-0.507024 z m 3.370467,-1.035761 c 0,-0.891386 0.08685,-1.542784 0.205704,-1.542784 0.118851,0 0.205704,0.651398 0.205704,1.542784 0,0.891386 -0.08685,1.542785 -0.205704,1.542785 -0.118852,0 -0.205704,-0.651399 -0.205704,-1.542785 z m 0.822817,-0.0051 v -1.547882 l 3.342698,0.05652 3.342698,0.05652 0.06044,1.491359 0.06044,1.491357 H 71.304836 67.9017 v -1.547881 z m 13.42222,1.402706 c -0.426881,-0.08222 -0.462836,-0.199896 -0.462836,-1.514772 v -1.425625 h 2.159897 2.159897 v 1.542784 1.542785 l -1.697062,-0.02801 c -0.933384,-0.01541 -1.905338,-0.06813 -2.159896,-0.117158 z m -6.222562,-1.485414 c 0,-1.328711 0.03653,-1.455015 0.420808,-1.455015 0.388332,0 0.416112,0.106994 0.359982,1.38638 -0.04949,1.127878 -0.127946,1.399176 -0.420808,1.455014 -0.315381,0.06013 -0.359982,-0.111639 -0.359982,-1.386379 z m 2.26275,-0.01508 c 0,-1.142802 0.06367,-1.439931 0.308556,-1.439931 0.244887,0 0.308557,0.297129 0.308557,1.439931 0,1.142804 -0.06367,1.439932 -0.308557,1.439932 -0.244887,0 -0.308556,-0.297128 -0.308556,-1.439932 z m 1.028521,0 c 0,-1.302795 0.03918,-1.439931 0.41141,-1.439931 0.372227,0 0.411409,0.137136 0.411409,1.439931 0,1.302796 -0.03918,1.439932 -0.411409,1.439932 -0.372227,0 -0.41141,-0.137136 -0.41141,-1.439932 z m 1.439932,0 c 0,-1.142802 0.06367,-1.439931 0.308557,-1.439931 0.244887,0 0.308557,0.297129 0.308557,1.439931 0,1.142804 -0.06367,1.439932 -0.308557,1.439932 -0.244887,0 -0.308557,-0.297128 -0.308557,-1.439932 z M 76.54129,12.67101 c 0,-0.75425 0.08967,-1.33708 0.205704,-1.33708 0.116038,0 0.205704,0.58283 0.205704,1.33708 0,0.75425 -0.08967,1.33708 -0.205704,1.33708 -0.116038,0 -0.205704,-0.58283 -0.205704,-1.33708 z M 3.1766898,12.050182 c -0.01047,-1.655136 0.01483,-1.758705 0.4565,-1.869558 0.929912,-0.2333934 1.215815,-0.03335 1.283333,0.89795 0.05872,0.80993 0.105794,0.87247 0.656712,0.87247 0.551128,0 0.597971,-0.06236 0.656713,-0.874244 0.0566,-0.782279 0.12276,-0.881092 0.62894,-0.939334 0.544984,-0.06271 0.565688,-0.03026 0.565688,0.886662 v 0.951748 l 0.771392,-0.06385 c 0.748771,-0.06197 0.773247,-0.08948 0.834645,-0.938088 0.0559,-0.772638 0.121647,-0.874244 0.565687,-0.874244 0.4583412,0 0.5024352,0.08123 0.5024352,0.92567 0,0.920772 0.0038,0.92567 0.719965,0.92567 0.716157,0 0.719967,-0.0049 0.719967,-0.92567 0,-0.920772 0.0038,-0.92567 0.719964,-0.92567 h 0.719967 v 1.85134 1.851341 H 8.0831798 3.1877628 Z m 10.2557312,0.0716 c 0.03899,-0.951453 0.151694,-1.505079 0.317568,-1.559927 0.190574,-0.06301 0.25713,0.318754 0.25713,1.474904 0,1.269138 -0.0592,1.559926 -0.317567,1.559926 -0.262381,0 -0.307066,-0.256315 -0.257131,-1.474903 z m 1.191813,-0.06788 v -1.33708 h 9.359555 9.359555 v 1.33708 1.337079 H 23.983789 14.624234 Z M 118.71071,11.614561 v -0.953634 l 2.38321,0.14676 c 2.68008,0.165041 3.17081,-0.01433 3.17081,-1.1589574 v -0.592952 l 1.90277,0.05914 1.90276,0.05914 0.0597,1.6970634 0.0597,1.697062 h -1.03683 -1.03685 v -0.719966 -0.719965 h -3.29127 -3.29128 v 0.719965 c 0,0.582829 -0.0784,0.719966 -0.4114,0.719966 -0.35225,0 -0.41141,-0.137137 -0.41141,-0.953633 z m 1.38959,0.233667 0.0983,-0.514262 h 2.65018 2.65018 v 0.514262 0.514261 h -2.74848 -2.74849 z m -10.68639,-1.838703 c -0.23728,-0.2548294 -0.37131,-0.7146924 -0.37131,-1.2739894 0,-1.520727 -0.0223,-1.516105 7.29686,-1.512627 7.41844,0.0035 7.37738,-0.0048 7.4746,1.515021 0.10691,1.6712744 0.0294,1.7003544 -3.97697,1.4922744 -1.93158,-0.10032 -4.87511,-0.10032 -6.74044,0 -3.13688,0.168705 -3.331,0.157073 -3.68274,-0.220679 z m 2.056,-0.1566314 c 0.34351,-0.343501 0.30801,-0.886244 -0.0789,-1.207396 -0.64127,-0.532209 -1.44486,0.499315 -0.90022,1.155567 0.30144,0.3632174 0.64937,0.3816334 0.97918,0.05183 z m -0.88856,-0.376802 c -0.0799,-0.12926 -0.0485,-0.33181 0.0699,-0.450112 0.27644,-0.276447 0.92097,-0.03531 0.80849,0.302475 -0.11449,0.343874 -0.69659,0.441715 -0.87834,0.147637 z m 11.86727,0.283208 c 0.2069,-0.18724 0.37618,-0.412045 0.37618,-0.499567 0,-0.215109 -0.60312,-0.80563 -0.82282,-0.80563 -0.22851,0 -0.82282,0.594303 -0.82282,0.822818 0,0.200295 0.58248,0.8228184 0.76989,0.8228184 0.0679,0 0.29267,-0.1531974 0.49957,-0.3404394 z m -0.85805,-0.482379 c 0,-0.274272 0.13714,-0.411409 0.41141,-0.411409 0.27427,0 0.41141,0.137137 0.41141,0.411409 0,0.274273 -0.13714,0.411409 -0.41141,0.411409 -0.27427,0 -0.41141,-0.137136 -0.41141,-0.411409 z M 102.682,9.1569266 c 0.01,-0.239634 0.0586,-0.288378 0.12428,-0.12428 0.0594,0.148493 0.0521,0.325913 -0.0162,0.394267 -0.0683,0.06836 -0.11697,-0.05314 -0.10804,-0.269987 z m 0.60087,0.01714 c 0,-0.169705 0.0926,-0.308557 0.20571,-0.308557 0.11314,0 0.2057,0.138852 0.2057,0.308557 0,0.169707 -0.0926,0.308557 -0.2057,0.308557 -0.11314,0 -0.20571,-0.13885 -0.20571,-0.308557 z m 0.82282,0 c 0,-0.169705 0.13885,-0.308557 0.30856,-0.308557 0.16971,0 0.30856,0.138852 0.30856,0.308557 0,0.169707 -0.13885,0.308557 -0.30856,0.308557 -0.16971,0 -0.30856,-0.13885 -0.30856,-0.308557 z m 1.02852,0.102853 c 0,-0.113138 0.27771,-0.205705 0.61712,-0.205705 0.33941,0 0.61711,0.09257 0.61711,0.205705 0,0.113138 -0.2777,0.205704 -0.61711,0.205704 -0.33941,0 -0.61712,-0.09257 -0.61712,-0.205704 z m -8.324462,-1.384158 c -0.108568,-0.432572 -0.04061,-0.64254 0.296281,-0.915333 0.675335,-0.546852 1.326736,-0.209928 1.406634,0.727548 0.06358,0.746093 0.06056,0.749123 -0.749092,0.749123 -0.713756,0 -0.830123,-0.06849 -0.953823,-0.561338 z m -31.241486,-0.42291 c -1.913794,-0.05026 -2.213242,-0.103776 -2.108471,-0.376808 0.06717,-0.175023 0.122115,-0.727206 0.122115,-1.227071 0,-0.710131 0.07476,-0.908847 0.341909,-0.908847 0.459332,0 2.162622,1.005887 2.498191,1.47532 0.147837,0.206811 0.403654,0.376021 0.568478,0.376021 0.164828,0 0.47785,0.111266 0.695609,0.247258 0.313257,0.195634 0.506812,0.187912 0.927034,-0.03698 0.408035,-0.218372 0.587352,-0.228002 0.773803,-0.04156 0.319035,0.319037 0.92615,0.310568 1.035273,-0.01445 0.06742,-0.200802 0.206363,-0.193187 0.634256,0.03476 0.473139,0.252051 0.622706,0.252051 1.095845,0 0.427892,-0.227948 0.566833,-0.235562 0.634254,-0.03476 0.109683,0.32667 0.559954,0.328821 1.07823,0.0051 0.318387,-0.198837 0.456627,-0.198837 0.655462,0 0.302973,0.302973 0.992517,0.335122 0.992517,0.04627 0,-0.113137 0.185134,-0.205704 0.411409,-0.205704 0.226275,0 0.411408,0.09257 0.411408,0.205704 0,0.283731 0.534545,0.257753 1.05819,-0.05143 0.348396,-0.205704 0.454117,-0.205704 0.528613,0 0.119136,0.328977 0.724557,0.331943 1.05135,0.0051 0.198836,-0.198836 0.337076,-0.198836 0.655463,0 0.487672,0.304557 1.026179,0.328841 1.026179,0.04628 0,-0.113137 0.185134,-0.205705 0.41141,-0.205705 0.226275,0 0.411408,0.09257 0.411408,0.205705 0,0.284516 0.687587,0.258652 0.983225,-0.03698 0.18645,-0.186448 0.3612,-0.179263 0.754094,0.03101 0.420294,0.224934 0.568877,0.225999 0.833988,0.006 0.265021,-0.219949 0.413092,-0.219278 0.829831,0.0037 0.424247,0.22705 0.596907,0.223709 1.055171,-0.02042 0.427892,-0.227947 0.566833,-0.235562 0.634254,-0.03476 0.171064,0.509489 0.832297,0.271737 2.538264,-0.912657 0.668638,-0.464212 0.938258,-0.789955 0.92567,-1.118351 -0.01448,-0.377916 0.131258,-0.494977 0.790357,-0.634811 0.508425,-0.107867 0.886041,-0.09353 1.018237,0.03867 0.143024,0.143025 0.07366,0.210121 -0.217243,0.210121 -0.875788,0 -1.171102,1.050649 -0.427021,1.519234 0.264733,0.166717 0.463614,0.16109 0.755792,-0.02138 0.3484,-0.217579 0.4475,-0.161228 0.816592,0.464336 0.329494,0.55845 0.552015,0.711967 1.031983,0.711967 0.33655,0 0.654798,0.06943 0.707218,0.154279 0.08918,0.144365 -24.048085,0.224181 -28.940347,0.0957 z m 25.462994,-1.915352 c -0.07664,-0.123994 0.01047,-0.375248 0.193567,-0.55834 0.306724,-0.306727 0.359067,-0.306727 0.665791,0 0.388802,0.388802 0.221042,0.783784 -0.332896,0.783784 -0.212921,0 -0.449828,-0.10145 -0.526462,-0.225444 z"
       id="path925" />
  </g>
</svg>
