<?xml version="1.0" encoding="UTF-8" standalone="no"?>
<svg
   xmlns:dc="http://purl.org/dc/elements/1.1/"
   xmlns:cc="http://creativecommons.org/ns#"
   xmlns:rdf="http://www.w3.org/1999/02/22-rdf-syntax-ns#"
   xmlns:svg="http://www.w3.org/2000/svg"
   xmlns="http://www.w3.org/2000/svg"
   xmlns:sodipodi="http://sodipodi.sourceforge.net/DTD/sodipodi-0.dtd"
   xmlns:inkscape="http://www.inkscape.org/namespaces/inkscape"
   width="512"
   height="512"
   viewBox="0 0 135.46666 135.46667"
   version="1.1"
   id="svg1359"
   inkscape:version="1.0.1 (3bc2e813f5, 2020-09-07)"
   sodipodi:docname="Shatter Caps.svg">
  <defs
     id="defs1353" />
  <sodipodi:namedview
     id="base"
     pagecolor="#ffffff"
     bordercolor="#666666"
     borderopacity="1.0"
     inkscape:pageopacity="0.0"
     inkscape:pageshadow="2"
     inkscape:zoom="0.7"
     inkscape:cx="144.48251"
     inkscape:cy="276.65769"
     inkscape:document-units="mm"
     inkscape:current-layer="layer1"
     inkscape:document-rotation="0"
     showgrid="false"
     units="px"
     inkscape:window-width="1267"
     inkscape:window-height="860"
     inkscape:window-x="182"
     inkscape:window-y="0"
     inkscape:window-maximized="0" />
  <metadata
     id="metadata1356">
    <rdf:RDF>
      <cc:Work
         rdf:about="">
        <dc:format>image/svg+xml</dc:format>
        <dc:type
           rdf:resource="http://purl.org/dc/dcmitype/StillImage" />
        <dc:title></dc:title>
      </cc:Work>
    </rdf:RDF>
  </metadata>
  <g
     inkscape:label="Layer 1"
     inkscape:groupmode="layer"
     id="layer1">
    <g
       id="g1160"
       style="display:inline"
       transform="matrix(2.0943497,0,0,2.0943497,-1701.7304,5.2300607)">
      <g
         id="g1084"
         transform="matrix(1.6936814,0,0,1.6936814,813.54191,-1.4893449)"
         style="fill:#273839;fill-opacity:1">
        <g
           id="g1032"
           style="fill:#273839;fill-opacity:1" />
        <path
           class="st0"
           d="M 30.8,2.3 H 6.2 C 4.7,3.8 3.8,4.7 2.3,6.2 v 24.6 c 1.5,1.5 2.4,2.4 3.9,3.9 h 24.6 c 1.5,-1.5 2.4,-2.4 3.9,-3.9 V 6.2 C 33.2,4.7 32.3,3.8 30.8,2.3 Z M 32.2,30 c -0.8,0.8 -1.3,1.3 -2.1,2.1 H 6.9 C 6.1,31.3 5.6,30.8 4.8,30 V 7.2 C 5.6,6.3 6.1,5.9 6.9,5 h 18.3 c 2.7,2.7 4.3,4.3 7,7 z"
           id="path1034"
           style="fill:#273839;fill-opacity:1" />
        <g
           id="g1046"
           style="fill:#273839;fill-opacity:1">
          <path
             class="st0"
             d="M 7.2,2 V 1.1 C 7.2,0.7 7.6,0.3 8,0.3 h 2.4 c 0.4,0 0.8,0.4 0.8,0.8 V 2 Z"
             id="path1036"
             style="fill:#273839;fill-opacity:1" />
          <path
             class="st0"
             d="M 11.8,2 V 1.1 c 0,-0.4 0.4,-0.8 0.8,-0.8 H 15 c 0.4,0 0.8,0.4 0.8,0.8 V 2 Z"
             id="path1038"
             style="fill:#273839;fill-opacity:1" />
          <path
             class="st0"
             d="M 16.5,2 V 1.1 c 0,-0.4 0.4,-0.8 0.8,-0.8 h 2.4 c 0.4,0 0.8,0.4 0.8,0.8 V 2 Z"
             id="path1040"
             style="fill:#273839;fill-opacity:1" />
          <path
             class="st0"
             d="M 25.7,2 V 1.1 c 0,-0.4 0.4,-0.8 0.8,-0.8 h 2.4 c 0.4,0 0.8,0.4 0.8,0.8 V 2 Z"
             id="path1042"
             style="fill:#273839;fill-opacity:1" />
          <path
             class="st0"
             d="M 21.1,2 V 1.1 c 0,-0.4 0.4,-0.8 0.8,-0.8 h 2.4 c 0.4,0 0.8,0.4 0.8,0.8 V 2 Z"
             id="path1044"
             style="fill:#273839;fill-opacity:1" />
        </g>
        <g
           id="g1058"
           style="fill:#273839;fill-opacity:1">
          <path
             class="st0"
             d="m 7.1,35 v 0.9 c 0,0.4 0.4,0.8 0.8,0.8 h 2.4 c 0.4,0 0.8,-0.4 0.8,-0.8 V 35 Z"
             id="path1048"
             style="fill:#273839;fill-opacity:1" />
          <path
             class="st0"
             d="m 11.8,35 v 0.9 c 0,0.4 0.4,0.8 0.8,0.8 H 15 c 0.4,0 0.8,-0.4 0.8,-0.8 V 35 Z"
             id="path1050"
             style="fill:#273839;fill-opacity:1" />
          <path
             class="st0"
             d="m 16.4,35 v 0.9 c 0,0.4 0.4,0.8 0.8,0.8 h 2.4 c 0.4,0 0.8,-0.4 0.8,-0.8 V 35 Z"
             id="path1052"
             style="fill:#273839;fill-opacity:1" />
          <path
             class="st0"
             d="m 25.7,35 v 0.9 c 0,0.4 0.4,0.8 0.8,0.8 h 2.4 c 0.4,0 0.8,-0.4 0.8,-0.8 V 35 Z"
             id="path1054"
             style="fill:#273839;fill-opacity:1" />
          <path
             class="st0"
             d="m 21,35 v 0.9 c 0,0.4 0.4,0.8 0.8,0.8 h 2.4 c 0.4,0 0.8,-0.4 0.8,-0.8 V 35 Z"
             id="path1056"
             style="fill:#273839;fill-opacity:1" />
        </g>
        <g
           id="g1070"
           style="fill:#273839;fill-opacity:1">
          <path
             class="st0"
             d="M 2,29.7 H 1.1 c -0.4,0 -0.8,-0.4 -0.8,-0.8 v -2.4 c 0,-0.4 0.4,-0.8 0.8,-0.8 H 2 Z"
             id="path1060"
             style="fill:#273839;fill-opacity:1" />
          <path
             class="st0"
             d="M 2,25.1 H 1.1 c -0.4,0 -0.8,-0.4 -0.8,-0.8 v -2.4 c 0,-0.4 0.4,-0.8 0.8,-0.8 H 2 Z"
             id="path1062"
             style="fill:#273839;fill-opacity:1" />
          <path
             class="st0"
             d="M 2,20.5 H 1.1 c -0.4,0 -0.8,-0.4 -0.8,-0.8 v -2.4 c 0,-0.4 0.4,-0.8 0.8,-0.8 H 2 Z"
             id="path1064"
             style="fill:#273839;fill-opacity:1" />
          <path
             class="st0"
             d="M 2,11.2 H 1.1 C 0.7,11.2 0.3,10.8 0.3,10.4 V 8 C 0.3,7.6 0.7,7.2 1.1,7.2 H 2 Z"
             id="path1066"
             style="fill:#273839;fill-opacity:1" />
          <path
             class="st0"
             d="M 2,15.9 H 1.1 c -0.4,0 -0.8,-0.4 -0.8,-0.8 v -2.4 c 0,-0.4 0.4,-0.8 0.8,-0.8 H 2 Z"
             id="path1068"
             style="fill:#273839;fill-opacity:1" />
        </g>
        <g
           id="g1082"
           style="fill:#273839;fill-opacity:1">
          <path
             class="st0"
             d="m 35,29.8 h 0.9 c 0.4,0 0.8,-0.4 0.8,-0.8 v -2.4 c 0,-0.4 -0.4,-0.8 -0.8,-0.8 H 35 Z"
             id="path1072"
             style="fill:#273839;fill-opacity:1" />
          <path
             class="st0"
             d="m 35,25.2 h 0.9 c 0.4,0 0.8,-0.4 0.8,-0.8 V 22 c 0,-0.4 -0.4,-0.8 -0.8,-0.8 H 35 Z"
             id="path1074"
             style="fill:#273839;fill-opacity:1" />
          <path
             class="st0"
             d="m 35,20.6 h 0.9 c 0.4,0 0.8,-0.4 0.8,-0.8 v -2.4 c 0,-0.4 -0.4,-0.8 -0.8,-0.8 H 35 Z"
             id="path1076"
             style="fill:#273839;fill-opacity:1" />
          <path
             class="st0"
             d="m 35,11.3 h 0.9 c 0.4,0 0.8,-0.4 0.8,-0.8 V 8.1 C 36.7,7.7 36.3,7.3 35.9,7.3 H 35 Z"
             id="path1078"
             style="fill:#273839;fill-opacity:1" />
          <path
             class="st0"
             d="m 35,15.9 h 0.9 c 0.4,0 0.8,-0.4 0.8,-0.8 v -2.4 c 0,-0.4 -0.4,-0.8 -0.8,-0.8 H 35 Z"
             id="path1080"
             style="fill:#273839;fill-opacity:1" />
        </g>
      </g>
      <path
         style="fill:#273839;fill-opacity:1;stroke:none;stroke-width:1px;stroke-linecap:butt;stroke-linejoin:miter;stroke-opacity:1"
         d="m 864.5363,28.04095 -7.68979,-10.16466 1.94455,6.18719 -9.45756,-6.80591 1.85616,-2.03293 -11.4021,-1.85615 6.36396,9.8111 1.14905,-2.20971 8.75045,5.03814 -10.78338,-0.88388 6.89429,3.8007 h -15.99829 c 0,0 1.32582,-3.35876 0.97227,-3.44715 -0.35355,-0.0884 -10.96015,5.21491 -10.96015,5.21491 l 11.3137,4.77297 -1.85615,-3.62392 17.4125,-0.0884 -3.0052,3.35876 5.21491,-0.44194 -8.3085,6.09879 -0.88389,-3.18198 -6.62912,9.63433 11.84404,-1.14904 -2.65165,-2.47488 10.42982,-7.6014 0.17678,4.77297 5.21491,-7.51301 -2.56326,2.12133 -0.35356,-3.8007 -5.39168,1.41421 4.33102,-3.35876 -4.92764,-0.928079 4.75087,-1.104851 0.13258,-3.137787 z"
         id="path1130"
         sodipodi:nodetypes="ccccccccccccscccccccccccccccccccccc" />
    </g>
  </g>
</svg>
