<?xml version="1.0" encoding="UTF-8" standalone="no"?>
<!-- Generator: Adobe Illustrator 22.1.0, SVG Export Plug-In . SVG Version: 6.00 Build 0)  -->

<svg
   version="1.1"
   id="Layer_4_1_"
   x="0px"
   y="0px"
   viewBox="0 0 512 512"
   xml:space="preserve"
   sodipodi:docname="Shield_Battery.svg"
   width="512"
   height="512"
   inkscape:version="1.1 (c68e22c387, 2021-05-23)"
   xmlns:inkscape="http://www.inkscape.org/namespaces/inkscape"
   xmlns:sodipodi="http://sodipodi.sourceforge.net/DTD/sodipodi-0.dtd"
   xmlns="http://www.w3.org/2000/svg"
   xmlns:svg="http://www.w3.org/2000/svg"><defs
   id="defs37" /><sodipodi:namedview
   id="namedview35"
   pagecolor="#ffffff"
   bordercolor="#666666"
   borderopacity="1.0"
   inkscape:pageshadow="2"
   inkscape:pageopacity="0.0"
   inkscape:pagecheckerboard="0"
   showgrid="false"
   inkscape:zoom="0.43243243"
   inkscape:cx="-123.71875"
   inkscape:cy="149.15625"
   inkscape:window-width="1366"
   inkscape:window-height="697"
   inkscape:window-x="-8"
   inkscape:window-y="-8"
   inkscape:window-maximized="1"
   inkscape:current-layer="Layer_4_1_" />
<style
   type="text/css"
   id="style2">
	.st0{fill:#241C1C;}
	.st1{fill:#274BA6;}
	.st2{fill:#FFFFFF;}
	.st3{display:none;fill:#BC3BAD;}
</style>







<g
   id="g1176"
   transform="matrix(13.406593,0,0,13.406593,7.3075258,7.9780221)"><path
     class="st0"
     d="m 26.1,12.2 v 7.7 c 0,0 0,0.1 0,0.1 l 1.5,1.1 V 10.9 l -1.5,1.3 c 0,-0.1 0,-0.1 0,0 z"
     id="path4"
     style="fill:#273839;fill-opacity:1" /><path
     class="st0"
     d="m 25.3,21.1 c -0.4,-0.3 -0.6,-0.7 -0.6,-1.2 v -7.7 c 0,-0.5 0.2,-0.9 0.6,-1.2 L 27.6,9.3 V 7.6 C 27.6,5.5 25.9,3.8 23.8,3.8 H 13.2 c -2.1,0 -3.8,1.7 -3.8,3.8 v 1.7 l 2.3,1.7 c 0.4,0.3 0.6,0.7 0.6,1.2 v 7.7 c 0,0.5 -0.2,0.9 -0.6,1.2 l -2.3,1.7 v 1.4 c 0,1.2 1,2.2 2.2,2.2 h 13.8 c 1.2,0 2.2,-1 2.2,-2.2 v -1.4 z"
     id="path6"
     style="fill:#273839;fill-opacity:1" /><path
     class="st0"
     d="m 10.9,19.9 v -7.7 c 0,0 0,-0.1 0,-0.1 L 9.4,11 v 10.2 l 1.5,-1.3 c 0,0.1 0,0.1 0,0 z"
     id="path8"
     style="fill:#273839;fill-opacity:1" /><path
     class="st1"
     d="m 25.3,21.1 c -0.4,-0.3 -0.6,-0.7 -0.6,-1.2 v -7.7 c 0,-0.5 0.2,-0.9 0.6,-1.2 L 26,10.5 V 6.7 C 26,6 25.5,5.5 24.8,5.5 H 12.2 C 11.6,5.5 11,6 11,6.7 v 3.8 l 0.7,0.5 c 0.4,0.3 0.6,0.7 0.6,1.2 v 7.7 c 0,0.5 -0.2,0.9 -0.6,1.2 L 11,21.6 v 2.3 c 0,0.3 0.3,0.6 0.6,0.6 h 13.8 c 0.3,0 0.6,-0.3 0.6,-0.6 v -2.3 z"
     id="path10" /><g
     id="g20">
	<g
   id="g14">
		<path
   class="st2"
   d="M 18.5,22.5 13.2,18.4 V 10 h 10.5 v 8.4 z M 14,18 18.5,21.5 23,18 V 10.7 H 13.9 V 18 Z"
   id="path12" />
	</g>
	<polygon
   class="st2"
   points="17.8,16.6 16.5,17.1 17,11.5 14.7,11.5 14.7,17.7 17.3,19.6 "
   id="polygon16" />
	<polygon
   class="st2"
   points="22.3,11.5 20.4,11.5 19.4,14.9 21.2,14.3 17.6,19.9 18.5,20.6 22.3,17.7 "
   id="polygon18" />
</g><path
     class="st0"
     d="M 22,0.8 C 21.7,0.5 21.3,0.3 20.9,0.3 H 18.5 16.1 C 15.7,0.3 15.3,0.5 15,0.8 14.5,1.5 13.4,2.5 12.1,2.5 V 3 h 6.3 6.3 V 2.5 c -1.1,0 -2.2,-1 -2.7,-1.7 z m -6.3,1.4 0.8,-0.7 h 4 l 0.8,0.7 z"
     id="path22"
     style="fill:#273839;fill-opacity:1" /><path
     class="st0"
     d="m 11.2,27.3 v 3.9 c 0,0.2 0.2,0.4 0.4,0.4 h 13.8 c 0.2,0 0.4,-0.2 0.4,-0.4 v -3.9 z m 1.5,3.5 c -0.3,0 -0.5,-0.2 -0.5,-0.5 0,-0.3 0.2,-0.5 0.5,-0.5 0.3,0 0.5,0.2 0.5,0.5 0,0.2 -0.2,0.5 -0.5,0.5 z m 0,-1.8 c -0.3,0 -0.5,-0.2 -0.5,-0.5 0,-0.3 0.2,-0.5 0.5,-0.5 0.3,0 0.5,0.2 0.5,0.5 0,0.3 -0.2,0.5 -0.5,0.5 z m 1.4,0.9 c -0.3,0 -0.5,-0.2 -0.5,-0.5 0,-0.3 0.2,-0.5 0.5,-0.5 0.3,0 0.5,0.2 0.5,0.5 0,0.3 -0.2,0.5 -0.5,0.5 z m 1.5,0.9 c -0.3,0 -0.5,-0.2 -0.5,-0.5 0,-0.3 0.2,-0.5 0.5,-0.5 0.3,0 0.5,0.2 0.5,0.5 0,0.2 -0.2,0.5 -0.5,0.5 z m 0,-1.8 c -0.3,0 -0.5,-0.2 -0.5,-0.5 0,-0.3 0.2,-0.5 0.5,-0.5 0.3,0 0.5,0.2 0.5,0.5 0,0.3 -0.2,0.5 -0.5,0.5 z m 1.4,0.9 c -0.3,0 -0.5,-0.2 -0.5,-0.5 0,-0.3 0.2,-0.5 0.5,-0.5 0.3,0 0.5,0.2 0.5,0.5 0,0.3 -0.2,0.5 -0.5,0.5 z m 1.5,0.9 c -0.3,0 -0.5,-0.2 -0.5,-0.5 0,-0.3 0.2,-0.5 0.5,-0.5 0.3,0 0.5,0.2 0.5,0.5 0,0.2 -0.2,0.5 -0.5,0.5 z m 0,-1.8 C 18.2,29 18,28.8 18,28.5 18,28.2 18.2,28 18.5,28 c 0.3,0 0.5,0.2 0.5,0.5 0,0.3 -0.2,0.5 -0.5,0.5 z m 1.5,0.9 c -0.3,0 -0.5,-0.2 -0.5,-0.5 0,-0.3 0.2,-0.5 0.5,-0.5 0.3,0 0.5,0.2 0.5,0.5 -0.1,0.3 -0.3,0.5 -0.5,0.5 z m 1.4,0.9 c -0.3,0 -0.5,-0.2 -0.5,-0.5 0,-0.3 0.2,-0.5 0.5,-0.5 0.3,0 0.5,0.2 0.5,0.5 0,0.2 -0.3,0.5 -0.5,0.5 z m 0,-1.8 c -0.3,0 -0.5,-0.2 -0.5,-0.5 0,-0.3 0.2,-0.5 0.5,-0.5 0.3,0 0.5,0.2 0.5,0.5 0,0.3 -0.3,0.5 -0.5,0.5 z m 1.5,0.9 c -0.3,0 -0.5,-0.2 -0.5,-0.5 0,-0.3 0.2,-0.5 0.5,-0.5 0.3,0 0.5,0.2 0.5,0.5 0,0.3 -0.3,0.5 -0.5,0.5 z m 1.4,0.9 c -0.3,0 -0.5,-0.2 -0.5,-0.5 0,-0.3 0.2,-0.5 0.5,-0.5 0.3,0 0.5,0.2 0.5,0.5 -0.1,0.2 -0.3,0.5 -0.5,0.5 z m 0,-1.8 c -0.3,0 -0.5,-0.2 -0.5,-0.5 0,-0.3 0.2,-0.5 0.5,-0.5 0.3,0 0.5,0.2 0.5,0.5 0,0.3 -0.3,0.5 -0.5,0.5 z"
     id="path24"
     style="fill:#273839;fill-opacity:1" /><g
     id="g30">
	<path
   class="st0"
   d="M 27.7,34.2 V 33.7 L 26.2,32.2 H 25.9 C 25.6,32.7 25.2,33 24.6,33 h -12 C 12,33 11.5,32.7 11.3,32.2 H 11 l -1.5,1.5 v 0.5 z"
   id="path26"
   style="fill:#273839;fill-opacity:1" />
	<path
   class="st0"
   d="m 9.4,35 c 0.1,0.9 0.8,1.7 1.8,1.7 h 14.7 c 1,0 1.7,-0.7 1.8,-1.7 z"
   id="path28"
   style="fill:#273839;fill-opacity:1" />
</g></g>
<path
   class="st3"
   d="m 25.4,30.8 h -0.3 c -0.2,0.4 -0.7,0.7 -1.2,0.7 H 13.1 c -0.5,0 -1,-0.3 -1.2,-0.7 h -0.3 l -1.3,1.3 v 1.1 c 0,0.9 0.7,1.6 1.6,1.6 h 13.3 c 0.9,0 1.6,-0.7 1.6,-1.6 v -1.1 z"
   id="path32" />
</svg>
