<?xml version="1.0" encoding="UTF-8" standalone="no"?>
<!-- Generator: Adobe Illustrator 22.1.0, SVG Export Plug-In . SVG Version: 6.00 Build 0)  -->

<svg
   version="1.1"
   id="Layer_4_1_"
   x="0px"
   y="0px"
   viewBox="0 0 512 512"
   xml:space="preserve"
   sodipodi:docname="Shield_Cell.svg"
   inkscape:version="1.1 (c68e22c387, 2021-05-23)"
   width="512"
   height="512"
   xmlns:inkscape="http://www.inkscape.org/namespaces/inkscape"
   xmlns:sodipodi="http://sodipodi.sourceforge.net/DTD/sodipodi-0.dtd"
   xmlns="http://www.w3.org/2000/svg"
   xmlns:svg="http://www.w3.org/2000/svg"><defs
   id="defs29" /><sodipodi:namedview
   id="namedview27"
   pagecolor="#ffffff"
   bordercolor="#666666"
   borderopacity="1.0"
   inkscape:pageshadow="2"
   inkscape:pageopacity="0.0"
   inkscape:pagecheckerboard="0"
   showgrid="false"
   inkscape:zoom="0.43243243"
   inkscape:cx="-79.78125"
   inkscape:cy="454.40625"
   inkscape:window-width="1366"
   inkscape:window-height="697"
   inkscape:window-x="-8"
   inkscape:window-y="-8"
   inkscape:window-maximized="1"
   inkscape:current-layer="Layer_4_1_" />
<style
   type="text/css"
   id="style2">
	.st0{fill:#241C1C;}
	.st1{fill:#274BA6;}
	.st2{fill:#FFFFFF;}
	.st3{display:none;fill:#BC3BAD;}
</style>





<g
   id="g1118"
   transform="matrix(18.769231,0,0,18.769231,-91.230771,-91.230771)"><path
     class="st0"
     d="M 26.1,17.3 V 25 c 0,0 0,0.1 0,0.1 l 1.5,1.1 V 16.1 l -1.5,1.2 c 0,-0.1 0,0 0,0 z"
     id="path4"
     style="fill:#273839;fill-opacity:1" /><path
     class="st0"
     d="M 25.3,26.2 C 24.9,25.9 24.7,25.5 24.7,25 v -7.7 c 0,-0.5 0.2,-0.9 0.6,-1.2 l 2.3,-1.7 v -1.7 c 0,-2.1 -1.7,-3.8 -3.8,-3.8 H 13.2 c -2.1,0 -3.8,1.7 -3.8,3.8 v 1.7 l 2.3,1.7 c 0.4,0.3 0.6,0.7 0.6,1.2 V 25 c 0,0.5 -0.2,0.9 -0.6,1.2 l -2.3,1.7 v 1.4 c 0,1.2 1,2.2 2.2,2.2 h 13.8 c 1.2,0 2.2,-1 2.2,-2.2 v -1.4 z"
     id="path6"
     style="fill:#273839;fill-opacity:1" /><path
     class="st0"
     d="m 10.9,25.1 v -7.7 c 0,0 0,-0.1 0,-0.1 L 9.4,16.2 v 10.2 l 1.5,-1.3 c 0,0 0,0 0,0 z"
     id="path8"
     style="fill:#273839;fill-opacity:1" /><path
     class="st1"
     d="M 25.3,26.2 C 24.9,25.9 24.7,25.5 24.7,25 v -7.7 c 0,-0.5 0.2,-0.9 0.6,-1.2 L 26,15.6 v -3.8 c 0,-0.7 -0.5,-1.2 -1.2,-1.2 H 12.2 c -0.7,0 -1.2,0.5 -1.2,1.2 v 3.8 l 0.7,0.5 c 0.4,0.3 0.6,0.7 0.6,1.2 V 25 c 0,0.5 -0.2,0.9 -0.6,1.2 L 11,26.7 V 29 c 0,0.3 0.3,0.6 0.6,0.6 h 13.8 c 0.3,0 0.6,-0.3 0.6,-0.6 v -2.3 z"
     id="path10" /><g
     id="g20">
	<g
   id="g14">
		<path
   class="st2"
   d="m 18.5,27.6 -5.3,-4.1 v -8.4 h 10.5 v 8.4 z M 14,23.2 18.5,26.7 23,23.2 v -7.3 h -9.1 v 7.3 z"
   id="path12" />
	</g>
	<polygon
   class="st2"
   points="17.3,24.8 17.8,21.7 16.5,22.2 17,16.6 14.7,16.6 14.7,22.8 "
   id="polygon16" />
	<polygon
   class="st2"
   points="22.3,22.8 22.3,16.6 20.4,16.6 19.4,20.1 21.2,19.5 17.6,25 18.5,25.7 "
   id="polygon18" />
</g><path
     class="st0"
     d="M 22,6 C 21.7,5.7 21.3,5.5 20.9,5.5 H 18.5 16.1 C 15.7,5.5 15.3,5.7 15,6 14.5,6.7 13.4,7.7 12.1,7.7 v 0.5 h 6.3 6.3 V 7.7 C 23.6,7.7 22.5,6.6 22,6 Z m -6.3,1.3 0.8,-0.7 h 4 l 0.8,0.7 z"
     id="path22"
     style="fill:#273839;fill-opacity:1" /></g>
<path
   class="st3"
   d="m 25.4,30.8 h -0.3 c -0.2,0.4 -0.7,0.7 -1.2,0.7 H 13.1 c -0.5,0 -1,-0.3 -1.2,-0.7 h -0.3 l -1.3,1.3 v 1.1 c 0,0.9 0.7,1.6 1.6,1.6 h 13.3 c 0.9,0 1.6,-0.7 1.6,-1.6 v -1.1 z"
   id="path24" />
</svg>
