<?xml version="1.0" encoding="UTF-8" standalone="no"?>
<svg
   xmlns:dc="http://purl.org/dc/elements/1.1/"
   xmlns:cc="http://creativecommons.org/ns#"
   xmlns:rdf="http://www.w3.org/1999/02/22-rdf-syntax-ns#"
   xmlns:svg="http://www.w3.org/2000/svg"
   xmlns="http://www.w3.org/2000/svg"
   xmlns:sodipodi="http://sodipodi.sourceforge.net/DTD/sodipodi-0.dtd"
   xmlns:inkscape="http://www.inkscape.org/namespaces/inkscape"
   version="1.1"
   id="Layer_3"
   x="0px"
   y="0px"
   viewBox="0 0 512 512"
   xml:space="preserve"
   sodipodi:docname="Shotgun_Bolt.svg"
   width="512"
   height="512"
   inkscape:version="1.0.1 (3bc2e813f5, 2020-09-07)"><metadata
   id="metadata31"><rdf:RDF><cc:Work
       rdf:about=""><dc:format>image/svg+xml</dc:format><dc:type
         rdf:resource="http://purl.org/dc/dcmitype/StillImage" /><dc:title></dc:title></cc:Work></rdf:RDF></metadata><defs
   id="defs29" /><sodipodi:namedview
   pagecolor="#ffffff"
   bordercolor="#666666"
   borderopacity="1"
   objecttolerance="10"
   gridtolerance="10"
   guidetolerance="10"
   inkscape:pageopacity="0"
   inkscape:pageshadow="2"
   inkscape:window-width="1366"
   inkscape:window-height="705"
   id="namedview27"
   showgrid="false"
   inkscape:zoom="0.45439189"
   inkscape:cx="-21.289418"
   inkscape:cy="97.41521"
   inkscape:window-x="-8"
   inkscape:window-y="-8"
   inkscape:window-maximized="1"
   inkscape:current-layer="Layer_3" />
<style
   type="text/css"
   id="style2">
	.st0{fill:#483737;}
	.st1{fill:#241C1C;}
</style>
<g
   id="g24"
   transform="translate(12,159.489)">
	<g
   id="g20">
		
		
		
		
		
		
		
		
	</g>
	<g
   id="g873"
   transform="matrix(13.189219,0,0,13.189219,0,-147.48955)"><path
     class="st0"
     d="M 9.8,24.9 H 7.7 c -0.2,0 -0.4,-0.2 -0.4,-0.4 v -4.8 c 0,-0.2 0.2,-0.4 0.4,-0.4 h 2.1 c 0.2,0 0.4,0.2 0.4,0.4 v 4.8 c 0,0.2 -0.2,0.4 -0.4,0.4 z"
     id="path4"
     style="fill:#4b5354;fill-opacity:1" /><path
     class="st0"
     d="m 35,24.9 h -2.1 c -0.2,0 -0.4,-0.2 -0.4,-0.4 v -4.8 c 0,-0.2 0.2,-0.4 0.4,-0.4 H 35 c 0.2,0 0.4,0.2 0.4,0.4 v 4.8 c -0.1,0.2 -0.2,0.4 -0.4,0.4 z"
     id="path6"
     style="fill:#4b5354;fill-opacity:1" /><path
     class="st0"
     d="m 13.4,24.9 h -2.1 c -0.2,0 -0.4,-0.2 -0.4,-0.4 v -4.8 c 0,-0.2 0.2,-0.4 0.4,-0.4 h 2.1 c 0.2,0 0.4,0.2 0.4,0.4 v 4.8 c 0,0.2 -0.2,0.4 -0.4,0.4 z"
     id="path8"
     style="fill:#4b5354;fill-opacity:1" /><path
     class="st0"
     d="m 17,24.9 h -2.1 c -0.2,0 -0.4,-0.2 -0.4,-0.4 v -4.8 c 0,-0.2 0.2,-0.4 0.4,-0.4 H 17 c 0.2,0 0.4,0.2 0.4,0.4 v 4.8 c 0,0.2 -0.2,0.4 -0.4,0.4 z"
     id="path10"
     style="fill:#4b5354;fill-opacity:1" /><path
     class="st0"
     d="M 24.2,24.9 H 22 c -0.2,0 -0.4,-0.2 -0.4,-0.4 v -4.8 c 0,-0.2 0.2,-0.4 0.4,-0.4 h 2.1 c 0.2,0 0.4,0.2 0.4,0.4 v 4.8 c 0.1,0.2 -0.1,0.4 -0.3,0.4 z"
     id="path12"
     style="fill:#4b5354;fill-opacity:1" /><path
     class="st0"
     d="m 27.8,24.9 h -2.1 c -0.2,0 -0.4,-0.2 -0.4,-0.4 v -4.8 c 0,-0.2 0.2,-0.4 0.4,-0.4 h 2.1 c 0.2,0 0.4,0.2 0.4,0.4 v 4.8 c -0.1,0.2 -0.2,0.4 -0.4,0.4 z"
     id="path14"
     style="fill:#4b5354;fill-opacity:1" /><path
     class="st0"
     d="m 31.4,24.9 h -2.1 c -0.2,0 -0.4,-0.2 -0.4,-0.4 v -4.8 c 0,-0.2 0.2,-0.4 0.4,-0.4 h 2.1 c 0.2,0 0.4,0.2 0.4,0.4 v 4.8 c -0.1,0.2 -0.2,0.4 -0.4,0.4 z"
     id="path16"
     style="fill:#4b5354;fill-opacity:1" /><path
     class="st0"
     d="m 20.6,24.9 h -2.1 c -0.2,0 -0.4,-0.2 -0.4,-0.4 v -4.8 c 0,-0.2 0.2,-0.4 0.4,-0.4 h 2.1 c 0.2,0 0.4,0.2 0.4,0.4 v 4.8 c 0,0.2 -0.2,0.4 -0.4,0.4 z"
     id="path18"
     style="fill:#4b5354;fill-opacity:1" /><path
     class="st1"
     d="m 35.8,14.2 h -7.4 c 0,0 -2.1,-2.1 -2.9,-2.1 H 0.6 C 0.2,12.1 0,12.4 0,12.7 v 6.1 c 0,0.3 0.1,0.5 0.3,0.7 l 0.6,0.6 c 0.1,0.1 0.2,0.3 0.2,0.5 v 2.5 c 0,0.2 0.1,0.4 0.2,0.6 L 2,24.5 c 0.1,0.1 0.3,0.2 0.4,0.2 h 4 V 19 c 0,-0.2 0.2,-0.4 0.4,-0.4 h 28.1 c 0.2,0 0.5,-0.1 0.6,-0.3 L 37,15.8 c 0,-0.1 -0.1,-1.6 -1.2,-1.6 z M 3.3,14.7 c -0.3,0 -0.5,0.2 -0.5,0.5 v 6.2 L 2.1,20.7 v -6.1 c 0,-0.3 0.2,-0.5 0.5,-0.5 h 20.1 l 2.4,0.6 z"
     id="path22"
     style="fill:#273839;fill-opacity:1" /></g>
</g>
</svg>
