<?xml version="1.0" encoding="UTF-8" standalone="no"?>
<svg
   xmlns:dc="http://purl.org/dc/elements/1.1/"
   xmlns:cc="http://creativecommons.org/ns#"
   xmlns:rdf="http://www.w3.org/1999/02/22-rdf-syntax-ns#"
   xmlns:svg="http://www.w3.org/2000/svg"
   xmlns="http://www.w3.org/2000/svg"
   xmlns:sodipodi="http://sodipodi.sourceforge.net/DTD/sodipodi-0.dtd"
   xmlns:inkscape="http://www.inkscape.org/namespaces/inkscape"
   version="1.1"
   id="Layer_4_1_"
   x="0px"
   y="0px"
   viewBox="0 0 512 512"
   xml:space="preserve"
   sodipodi:docname="Sniper_Stock.svg"
   width="512"
   height="512"
   inkscape:version="1.0.1 (3bc2e813f5, 2020-09-07)"><metadata
   id="metadata35"><rdf:RDF><cc:Work
       rdf:about=""><dc:format>image/svg+xml</dc:format><dc:type
         rdf:resource="http://purl.org/dc/dcmitype/StillImage" /><dc:title></dc:title></cc:Work></rdf:RDF></metadata><defs
   id="defs33" /><sodipodi:namedview
   pagecolor="#ffffff"
   bordercolor="#666666"
   borderopacity="1"
   objecttolerance="10"
   gridtolerance="10"
   guidetolerance="10"
   inkscape:pageopacity="0"
   inkscape:pageshadow="2"
   inkscape:window-width="1366"
   inkscape:window-height="705"
   id="namedview31"
   showgrid="false"
   inkscape:zoom="0.32130359"
   inkscape:cx="-280.27341"
   inkscape:cy="414.24233"
   inkscape:window-x="-8"
   inkscape:window-y="-8"
   inkscape:window-maximized="1"
   inkscape:current-layer="Layer_4_1_" />
<style
   type="text/css"
   id="style2">
	.st0{fill:#483737;}
	.st1{fill:#241C1C;}
</style>
<g
   id="g28"
   transform="translate(11.5,128.40442)">
	<g
   id="g10">
		
		
		
	</g>
	<g
   id="g26">
		
		
		
		
		
		
		<g
   id="g873"
   transform="matrix(13.518006,0,0,13.518006,-6.2590028,-123.73515)"><path
     class="st0"
     d="M 35.2,26.8 H 34 c -0.6,0 -1.2,-0.5 -1.2,-1.2 V 11.9 c 0,-0.2 0.2,-0.4 0.4,-0.4 h 2.6 c 0.7,0 0.8,0.2 0.8,3.4 l -0.3,10.7 c 0,0.7 -0.5,1.2 -1.1,1.2 z"
     id="path4"
     style="fill:#4b5354;fill-opacity:1" /><path
     class="st0"
     d="m 26.8,10.7 v 3.2 c 0,0.2 -0.1,0.4 -0.2,0.6 l -1.8,2.1 C 24.6,16.8 24.3,17 24,17 h -6.3 c -0.2,0 -0.4,-0.1 -0.6,-0.2 l -6.2,-5 c -0.2,-0.1 -0.3,-0.3 -0.3,-0.5 v -0.5 c 0,-0.5 0.4,-0.9 0.9,-0.9 h 14.3 c 0.6,-0.1 1,0.3 1,0.8 z"
     id="path6"
     style="fill:#4b5354;fill-opacity:1" /><path
     class="st0"
     d="m 28,27.3 h -0.7 c -0.3,0 -0.5,-0.2 -0.5,-0.5 v -4.1 c 0,-0.3 0.2,-0.5 0.5,-0.5 H 28 c 0.3,0 0.5,0.2 0.5,0.5 v 4.1 c 0,0.2 -0.2,0.5 -0.5,0.5 z"
     id="path8"
     style="fill:#4b5354;fill-opacity:1" /><path
     class="st1"
     d="m 7.9,12.1 v 6.6 c 0,0.3 -0.3,0.6 -0.6,0.6 H 2.7 V 18 L 0.8,14.6 C 0.6,14.2 0.5,13.8 0.5,13.4 v -1.6 c 0,-0.2 0.1,-0.3 0.3,-0.3 h 6.6 c 0.2,0 0.5,0.3 0.5,0.6 z"
     id="path12"
     style="fill:#273839;fill-opacity:1" /><path
     class="st1"
     d="m 22.4,27.3 h -1.7 c -0.3,0 -0.5,-0.2 -0.5,-0.5 v -8.9 c 0,-0.3 0.2,-0.5 0.5,-0.5 h 1.7 c 0.3,0 0.5,0.2 0.5,0.5 v 8.9 c 0,0.2 -0.2,0.5 -0.5,0.5 z"
     id="path14"
     style="fill:#273839;fill-opacity:1" /><polygon
     class="st1"
     points="19.5,22.3 19.5,19.9 17.4,19.9 "
     id="polygon16"
     style="fill:#273839;fill-opacity:1" /><path
     class="st1"
     d="m 29.4,18 h -0.1 c -0.2,0 -0.4,0.1 -0.5,0.2 l -1.3,1.4 c -0.1,0.1 -0.3,0.2 -0.5,0.2 h -3.4 v 3.5 h 2.7 v -0.5 c 0,-0.7 0.6,-1.3 1.3,-1.3 H 28 c 0.7,0 1.3,0.6 1.3,1.3 v 0.5 h 0.3 c 0.2,0 0.4,-0.2 0.4,-0.4 V 18.3 C 29.8,18.1 29.6,18 29.4,18 Z"
     id="path18"
     style="fill:#273839;fill-opacity:1" /><path
     class="st1"
     d="m 19.5,23.2 -3.6,-3.9 3.6,-0.1 V 18 c 0,-0.2 0,-0.3 0.1,-0.5 h -1.8 c -0.4,0 -0.7,-0.1 -1,-0.4 l -6.2,-5 c -0.2,-0.2 -0.3,-0.4 -0.4,-0.6 h -1 c -0.3,0 -0.6,0.3 -0.6,0.6 V 19 c 0,0.2 0.1,0.3 0.3,0.3 h 0.5 l 7.3,7.1 h 2.8 z"
     id="path20"
     style="fill:#273839;fill-opacity:1" /><rect
     x="23.5"
     y="24"
     class="st1"
     width="2.7"
     height="2.5"
     id="rect22"
     style="fill:#273839;fill-opacity:1" /><path
     class="st1"
     d="m 31.8,16.1 c 0.3,0 0.6,-0.3 0.6,-0.6 v -1.8 c 0,-0.3 -0.3,-0.6 -0.6,-0.6 H 31 v -1.6 h -3.6 v 2.4 c 0,0.4 -0.1,0.7 -0.4,1 L 25.3,17 C 25,17.4 24.5,17.6 24,17.6 h -0.7 c 0.1,0.1 0.1,0.3 0.1,0.5 v 1.2 h 3.4 l 1.4,-1.4 c 0.3,-0.3 0.6,-0.4 1,-0.4 h 0.1 c 0.6,0 1,0.5 1,1 V 23 c 0,0.6 -0.5,1 -1,1 h -0.2 v 2.5 H 31 v -1.6 h 0.8 c 0.3,0 0.6,-0.3 0.6,-0.6 v -1.8 c 0,-0.3 -0.3,-0.6 -0.6,-0.6 H 31 v -5.8 z"
     id="path24"
     style="fill:#273839;fill-opacity:1" /></g>
	</g>
</g>
</svg>
