<?xml version="1.0" encoding="UTF-8" standalone="no"?>
<svg
   xmlns:dc="http://purl.org/dc/elements/1.1/"
   xmlns:cc="http://creativecommons.org/ns#"
   xmlns:rdf="http://www.w3.org/1999/02/22-rdf-syntax-ns#"
   xmlns:svg="http://www.w3.org/2000/svg"
   xmlns="http://www.w3.org/2000/svg"
   xmlns:sodipodi="http://sodipodi.sourceforge.net/DTD/sodipodi-0.dtd"
   xmlns:inkscape="http://www.inkscape.org/namespaces/inkscape"
   version="1.1"
   id="Layer_4_1_"
   x="0px"
   y="0px"
   viewBox="0 0 512 512"
   xml:space="preserve"
   sodipodi:docname="Standard_Stock.svg"
   width="512"
   height="512"
   inkscape:version="1.0.1 (3bc2e813f5, 2020-09-07)"><metadata
   id="metadata17"><rdf:RDF><cc:Work
       rdf:about=""><dc:format>image/svg+xml</dc:format><dc:type
         rdf:resource="http://purl.org/dc/dcmitype/StillImage" /><dc:title></dc:title></cc:Work></rdf:RDF></metadata><defs
   id="defs15" /><sodipodi:namedview
   pagecolor="#ffffff"
   bordercolor="#666666"
   borderopacity="1"
   objecttolerance="10"
   gridtolerance="10"
   guidetolerance="10"
   inkscape:pageopacity="0"
   inkscape:pageshadow="2"
   inkscape:window-width="1366"
   inkscape:window-height="705"
   id="namedview13"
   showgrid="false"
   inkscape:zoom="0.32130359"
   inkscape:cx="-320.69103"
   inkscape:cy="321.32999"
   inkscape:window-x="-8"
   inkscape:window-y="-8"
   inkscape:window-maximized="1"
   inkscape:current-layer="Layer_4_1_" />
<style
   type="text/css"
   id="style2">
	.st0{fill:#483737;}
	.st1{fill:#241C1C;}
</style>



<g
   id="g846"
   transform="matrix(13.443526,0,0,13.443526,6.6225896,7.2949336)"><path
     class="st0"
     d="m 36.4,30.6 c 0.1,0 0.3,-0.1 0.3,-0.3 V 27.8 C 36.7,27.5 36.6,27.2 36.4,27 36.1,26.6 36,26.1 36,25.6 V 14.3 c 0,-0.3 0.1,-0.5 0.3,-0.7 0.2,-0.2 0.4,-0.5 0.4,-0.9 v -6 C 36.7,6.6 36.6,6.4 36.4,6.4 H 32.3 C 32.2,6.4 32,6.5 32,6.7 v 23.6 c 0,0.1 0.1,0.3 0.3,0.3 z"
     id="path4"
     style="fill:#4b5354;fill-opacity:1" /><path
     class="st0"
     d="M 1.3,17.1 H 0.6 C 0.5,17.1 0.4,17 0.4,16.9 V 7.5 C 0.4,7.4 0.5,7.3 0.6,7.3 h 0.7 c 0.1,0 0.2,0.1 0.2,0.2 v 9.4 c 0,0.1 -0.1,0.2 -0.2,0.2 z"
     id="path6"
     style="fill:#4b5354;fill-opacity:1" /><path
     class="st0"
     d="m 15.4,18.1 c -0.3,0 -0.9,-0.9 -1.3,-1.3 -0.1,-1.1 -1.1,-2 -2.2,-2 -1.3,0 -2.3,1 -2.3,2.3 0,1.3 1,2.3 2.3,2.3 0.4,0 0.8,-0.1 1.1,-0.3 0,0 0,0 0,0 0.9,0 1.5,0.4 1.7,0.6 0,0 0,0 0,0 0.1,0.1 0.1,0.1 0.1,0.1 v 0 c 0.1,0.1 0.3,0.2 0.5,0.2 0.5,0 0.9,-0.4 0.9,-0.9 0,-0.5 -0.3,-1 -0.8,-1 z"
     id="path8"
     style="fill:#4b5354;fill-opacity:1" /><path
     class="st1"
     d="M 30.6,7.6 H 2.8 C 2.6,7.6 2.4,7.8 2.4,8 v 8.3 c 0,0.2 0.2,0.4 0.4,0.4 h 6.1 c 0.1,-1.5 1.4,-2.7 3,-2.7 1.5,0 2.7,1.1 3,2.5 0.3,0.5 0.6,0.7 0.7,0.8 0.6,0.1 1.2,0.5 1.4,1.1 1.8,1.3 3.3,3.2 3.3,4.8 0,1.6 1.4,3 2.6,3.8 0.9,0.7 2,1 3.2,1 h 2.2 c 0.5,0 1.2,0.3 1.7,0.6 0.4,0.3 1,-0.1 1,-0.6 V 8.1 C 31,7.8 30.8,7.6 30.6,7.6 Z M 11,8.9 h 6.8 l 0.3,0.5 -0.3,0.5 H 11 L 10.7,9.4 Z m 0.7,3.6 H 4.9 L 4.6,12 4.9,11.5 h 6.8 L 12,12 Z m 8.8,0 H 13.7 L 13.4,12 13.7,11.5 h 6.8 L 20.8,12 Z M 20.1,9.9 19.8,9.4 20.1,8.9 h 6.8 l 0.3,0.5 -0.3,0.5 z m 4.4,15.8 c -0.4,0 -0.8,-0.4 -0.8,-0.8 0,-0.4 0.4,-0.8 0.8,-0.8 0.4,0 0.8,0.4 0.8,0.8 0,0.5 -0.3,0.8 -0.8,0.8 z m 4.1,0 c -0.4,0 -0.8,-0.4 -0.8,-0.8 0,-0.4 0.4,-0.8 0.8,-0.8 0.4,0 0.8,0.4 0.8,0.8 0,0.5 -0.3,0.8 -0.8,0.8 z M 29.3,12.5 H 22.5 L 22.2,12 22.5,11.5 h 6.8 l 0.3,0.5 z"
     id="path10"
     style="fill:#273839;fill-opacity:1" /></g>
</svg>
