<?xml version="1.0" encoding="UTF-8" standalone="no"?>
<!-- Generator: Adobe Illustrator 22.1.0, SVG Export Plug-In . SVG Version: 6.00 Build 0)  -->

<svg
   version="1.1"
   id="Layer_4_1_"
   x="0px"
   y="0px"
   viewBox="0 0 512 512"
   xml:space="preserve"
   sodipodi:docname="Syringe.svg"
   width="512"
   height="512"
   inkscape:version="1.1 (c68e22c387, 2021-05-23)"
   xmlns:inkscape="http://www.inkscape.org/namespaces/inkscape"
   xmlns:sodipodi="http://sodipodi.sourceforge.net/DTD/sodipodi-0.dtd"
   xmlns="http://www.w3.org/2000/svg"
   xmlns:svg="http://www.w3.org/2000/svg"><defs
   id="defs15" /><sodipodi:namedview
   id="namedview13"
   pagecolor="#ffffff"
   bordercolor="#666666"
   borderopacity="1.0"
   inkscape:pageshadow="2"
   inkscape:pageopacity="0.0"
   inkscape:pagecheckerboard="0"
   showgrid="false"
   inkscape:zoom="0.10810811"
   inkscape:cx="-1549.375"
   inkscape:cy="1456.875"
   inkscape:window-width="1366"
   inkscape:window-height="697"
   inkscape:window-x="-8"
   inkscape:window-y="-8"
   inkscape:window-maximized="1"
   inkscape:current-layer="Layer_4_1_" />
<style
   type="text/css"
   id="style2">
	.st0{fill:#FFFFFF;stroke:#241C1C;stroke-width:0.25;stroke-miterlimit:10;}
	.st1{fill:#CE3535;}
</style>



<g
   id="g855"
   transform="matrix(13.574409,0,0,13.574407,5.5521556,5.5521891)"><path
     class="st0"
     d="M 30.5,23.7 V 13.3 h 4.3 v -2.6 c 0,-1.1 -0.9,-2.1 -2.1,-2.1 h -0.5 c -0.3,0 -0.5,0.2 -0.5,0.5 v 2 h -1 V 8.5 c 0,-0.6 -0.5,-1.1 -1.1,-1.1 h -2.4 c -0.6,0 -1.1,0.5 -1.1,1.1 v 2.6 h -1 V 9.2 C 25.1,8.9 24.8,8.6 24.5,8.6 H 12.3 c -0.3,0 -0.6,0.3 -0.6,0.6 v 1.9 h -1 V 8.5 C 10.7,7.9 10.2,7.4 9.6,7.4 H 7.2 C 6.5,7.4 6,7.9 6,8.5 v 2.6 H 5 v -2 C 5,8.8 4.8,8.6 4.5,8.6 H 4.2 c -1.1,0 -2.1,0.9 -2.1,2.1 v 2.6 H 6.4 V 23.6 H 2.2 v 2.6 c 0,1.1 0.9,2.1 2.1,2.1 h 0.3 c 0.3,0 0.5,-0.2 0.5,-0.5 V 26 h 1 v 2.4 c 0,0.6 0.5,1.1 1.1,1.1 h 2.4 c 0.6,0 1.1,-0.5 1.1,-1.1 V 26 h 1 v 1.7 c 0,0.3 0.3,0.6 0.6,0.6 h 12.2 c 0.3,0 0.6,-0.3 0.6,-0.6 V 26 h 1 v 2.4 c 0,0.6 0.5,1.1 1.1,1.1 h 2.4 c 0.6,0 1.1,-0.5 1.1,-1.1 V 26 h 1 v 1.8 c 0,0.3 0.2,0.5 0.5,0.5 h 0.5 c 1.1,0 2.1,-0.9 2.1,-2.1 v -2.6 h -4.3 z"
     id="path4" /><path
     class="st0"
     d="m 36.3,14 v 1.3 c 0,0.1 -0.1,0.3 -0.3,0.3 h -1.1 c -0.3,0 -0.5,0.2 -0.5,0.5 v 4.8 c 0,0.3 0.2,0.5 0.5,0.5 H 36 c 0.1,0 0.3,0.1 0.3,0.3 V 23 h -5.1 v -9 z"
     id="path6" /><path
     class="st0"
     d="m 0.7,14 v 1.3 c 0,0.1 0.1,0.3 0.3,0.3 h 1.1 c 0.3,0 0.5,0.2 0.5,0.5 v 4.8 c 0,0.3 -0.2,0.5 -0.5,0.5 H 0.9 c -0.1,0 -0.3,0.1 -0.3,0.3 V 23 h 5.1 v -9 z"
     id="path8" /><path
     class="st1"
     d="m 18.5,12.7 h -1.1 c -0.2,0 -0.3,0.2 -0.3,0.3 v 4 h -4 c -0.2,0 -0.3,0.2 -0.3,0.3 v 1.1 c 0,3.2 2.6,5.8 5.8,5.8 h 1.1 c 0.2,0 0.3,-0.2 0.3,-0.3 v -4 h 4 c 0.2,0 0.3,-0.2 0.3,-0.3 v -1.1 c 0,-3.2 -2.6,-5.8 -5.8,-5.8 z m -1.4,8.1 v 2.6 c -1.7,-0.5 -3,-1.8 -3.5,-3.5 h 2.5 l 3.8,-3.8 v -2.5 c 1.7,0.5 3,1.8 3.5,3.5 h -2.6 z"
     id="path10" /></g>
</svg>
