<?xml version="1.0" encoding="UTF-8" standalone="no"?>
<svg
   xmlns:dc="http://purl.org/dc/elements/1.1/"
   xmlns:cc="http://creativecommons.org/ns#"
   xmlns:rdf="http://www.w3.org/1999/02/22-rdf-syntax-ns#"
   xmlns:svg="http://www.w3.org/2000/svg"
   xmlns="http://www.w3.org/2000/svg"
   xmlns:sodipodi="http://sodipodi.sourceforge.net/DTD/sodipodi-0.dtd"
   xmlns:inkscape="http://www.inkscape.org/namespaces/inkscape"
   width="399.70901"
   height="128"
   viewBox="0 0 105.75634 33.866667"
   version="1.1"
   id="svg8"
   inkscape:version="1.0.1 (3bc2e813f5, 2020-09-07)"
   sodipodi:docname="Triple Take.svg">
  <defs
     id="defs2" />
  <sodipodi:namedview
     id="base"
     pagecolor="#ffffff"
     bordercolor="#666666"
     borderopacity="1.0"
     inkscape:pageopacity="0.0"
     inkscape:pageshadow="2"
     inkscape:zoom="0.7"
     inkscape:cx="203.46719"
     inkscape:cy="84.802954"
     inkscape:document-units="mm"
     inkscape:current-layer="layer1"
     inkscape:document-rotation="0"
     showgrid="false"
     units="px"
     inkscape:window-width="1366"
     inkscape:window-height="705"
     inkscape:window-x="-8"
     inkscape:window-y="-8"
     inkscape:window-maximized="1" />
  <metadata
     id="metadata5">
    <rdf:RDF>
      <cc:Work
         rdf:about="">
        <dc:format>image/svg+xml</dc:format>
        <dc:type
           rdf:resource="http://purl.org/dc/dcmitype/StillImage" />
        <dc:title></dc:title>
      </cc:Work>
    </rdf:RDF>
  </metadata>
  <g
     inkscape:label="Layer 1"
     inkscape:groupmode="layer"
     id="layer1">
    <path
       style="fill:#273839;fill-opacity:1;stroke-width:0.174156"
       d="m 75.456411,30.576333 c -0.151214,-0.06102 -0.217695,-0.560016 -0.217695,-1.63395 0,-1.324028 -0.05022,-1.592918 -0.349803,-1.871997 -0.269215,-0.250813 -0.32417,-0.454027 -0.238554,-0.882104 0.128433,-0.642175 0.09507,-0.644918 2.1981,0.180719 0.741685,0.291183 1.448459,0.491069 1.57061,0.444193 0.205624,-0.0789 4.482512,-10.000142 4.482512,-10.39822 0,-0.101219 -0.439325,-0.178263 -1.0165,-0.178263 h -1.016507 l -1.975781,4.622627 -1.97578,4.622629 -1.056844,-0.05104 -1.056845,-0.05103 v -0.867488 c 0,-0.79921 0.03297,-0.867749 0.418916,-0.870782 0.380733,-0.003 0.563319,-0.350557 2.002797,-3.812498 l 1.583884,-3.809208 2.425545,0.03003 c 2.392209,0.02962 2.438303,0.03766 3.352506,0.584468 1.221292,0.730484 1.202414,1.004535 -0.02102,0.304582 -0.879658,-0.50329 -0.95972,-0.519889 -1.111604,-0.230477 -0.679956,1.29559 -4.716537,11.08166 -4.629246,11.222897 0.0609,0.0985 0.406443,0.309225 0.767916,0.468268 0.586005,0.257838 0.640267,0.333797 0.50077,0.700988 -0.122421,0.322251 -0.252494,0.393455 -0.598069,0.327394 -0.372999,-0.07131 -0.495035,0.0203 -0.78547,0.589583 l -0.34385,0.674004 -1.346168,-0.01374 c -0.740395,-0.0075 -1.444132,-0.05328 -1.563864,-0.101591 z m 2.714998,-1.024869 c 0.111166,-0.243972 0.202121,-0.471697 0.202121,-0.506055 0,-0.08756 -2.269007,-1.140234 -2.457741,-1.140234 -0.08504,0 -0.154605,0.470221 -0.154605,1.044937 v 1.044936 h 1.10406 c 1.014098,0 1.120528,-0.03615 1.306165,-0.443584 z m 1.551831,-1.421273 c -0.359194,-0.144248 -0.653094,-0.340151 -0.653094,-0.435342 0,-0.09519 0.857493,-2.222396 1.905551,-4.727127 2.345792,-5.606227 2.611906,-6.208543 2.743019,-6.208543 0.05736,0 0.444614,0.215358 0.860665,0.478571 0.551253,0.34875 0.730184,0.561341 0.659608,0.783702 -0.120065,0.378298 -0.0069,0.383307 0.542306,0.02387 0.542398,-0.355393 0.559605,-0.07606 0.02618,0.425063 -0.232693,0.218608 -0.628511,0.378669 -0.936407,0.378669 -0.613506,0 -0.351989,-0.512519 -2.843691,5.572998 -0.88243,2.155183 -1.614923,3.930191 -1.627742,3.944462 -0.01286,0.01428 -0.317204,-0.09207 -0.676399,-0.236322 z m -2.481727,-1.966578 c -0.383148,-0.177364 -0.568623,-0.328293 -0.412169,-0.335397 0.194243,-0.0088 0.586408,-0.717152 1.236528,-2.233407 0.882608,-2.058498 0.988915,-2.224644 1.457103,-2.277431 0.736951,-0.08309 0.954408,-0.378451 0.278633,-0.378451 -0.612536,0 -0.641107,-0.04046 -0.377018,-0.533917 0.124985,-0.233543 0.365361,-0.336863 0.783699,-0.336863 0.331878,0 0.60342,-0.07837 0.60342,-0.174156 0,-0.09579 -0.235102,-0.174156 -0.522466,-0.174156 -0.593742,0 -0.594073,-6.1e-4 -0.320353,-0.601352 0.146042,-0.320526 0.336444,-0.443586 0.686346,-0.443586 0.266322,0 0.532667,-0.07837 0.591864,-0.174156 0.06275,-0.101504 -0.113051,-0.174156 -0.421379,-0.174156 -0.501078,0 -0.518539,-0.02299 -0.330631,-0.43539 0.153948,-0.337897 0.328607,-0.435391 0.779965,-0.435391 0.319876,0 0.581594,-0.07837 0.581594,-0.174156 0,-0.09579 -0.195923,-0.174156 -0.435391,-0.174156 -0.270911,0 -0.435391,-0.09869 -0.435391,-0.261235 0,-0.188668 0.193505,-0.261233 0.696624,-0.261233 0.435737,0 0.696624,0.08035 0.696624,0.214539 0,0.259963 -3.599804,8.766843 -3.944101,9.320511 -0.286417,0.460585 -0.292145,0.460794 -1.193501,0.04355 z m -5.262711,-0.810127 c -0.116704,-0.0473 -0.258756,-0.374189 -0.315673,-0.726415 -0.05693,-0.352225 -0.460135,-1.439134 -0.89602,-2.415351 -0.672794,-1.506785 -0.871625,-1.802511 -1.316061,-1.957443 -0.392211,-0.136726 -0.501846,-0.265424 -0.437076,-0.513088 0.04957,-0.189433 -0.0815,-0.541205 -0.306892,-0.823875 l -0.393338,-0.493293 -0.975817,0.647906 c -0.916482,0.608514 -1.05804,0.647885 -2.3282,0.647527 l -1.352388,-3.81e-4 -1.466282,-1.958876 c -0.806461,-1.077382 -1.6636,-2.174395 -1.904768,-2.437806 l -0.438478,-0.478929 h 2.721727 c 1.626626,0 2.765032,0.07008 2.82936,0.174156 0.135918,0.219925 1.355006,0.228858 1.576109,0.01155 0.252654,-0.248315 3.15698,-0.394477 8.385444,-0.422003 3.529218,-0.01858 4.792423,-0.08044 4.954748,-0.242633 0.317088,-0.316836 2.140461,-0.283925 2.412233,0.04354 0.162479,0.195772 0.598517,0.261234 1.740101,0.261234 h 1.523291 l 0.107946,0.653086 c 0.129889,0.785798 0.14471,1.7851 0.02648,1.7851 -0.04696,0 -0.635494,-0.352666 -1.307951,-0.783703 L 83.59464,15.540083 h -2.500256 -2.500272 l -0.382029,0.91432 c -0.210112,0.502876 -0.933028,2.26169 -1.606468,3.908475 -1.122963,2.746031 -1.26281,2.998596 -1.687519,3.047734 -0.434279,0.05024 -0.466334,0.11587 -0.515319,1.054976 l -0.0522,1.001397 -1.079784,-0.01374 c -0.59388,-0.0075 -1.175266,-0.05245 -1.291963,-0.09975 z m 1.24149,-0.866431 c 0.12615,-0.328742 -0.177149,-0.761629 -0.533631,-0.761629 -0.296526,0 -0.483587,0.424172 -0.345623,0.783703 0.133923,0.349003 0.742725,0.333719 0.879254,-0.02208 z m 1.541985,-5.302674 c 0.268439,-0.122311 0.693608,-0.756604 1.227286,-1.830943 0.449109,-0.904091 0.816558,-1.721136 0.816558,-1.815654 0,-0.103022 -0.79822,-0.171853 -1.992924,-0.171853 -1.862001,0 -2.010728,0.02543 -2.264027,0.387063 -0.149109,0.212884 -0.270269,0.545958 -0.269229,0.740164 0.0026,0.499801 1.665186,2.847699 2.036262,2.875697 0.01942,0.0015 0.22017,-0.08155 0.446074,-0.184474 z m -8.134038,-0.607502 c 0.231407,-0.186311 0.271526,-0.300058 0.12717,-0.360559 -0.129539,-0.05429 -0.17339,-0.275905 -0.113676,-0.574484 0.05832,-0.291649 -0.02027,-0.713289 -0.196461,-1.054028 l -0.293688,-0.567925 -1.769591,0.124612 c -0.973275,0.06854 -1.79901,0.153266 -1.834955,0.18829 -0.03594,0.03502 0.343726,0.615511 0.843723,1.289974 l 0.909092,1.226295 h 0.995162 c 0.642061,0 1.115114,-0.09657 1.333224,-0.272175 z m 28.685745,6.149945 c 0.0465,-0.119732 1.308813,-3.092426 2.805127,-6.605986 1.496313,-3.51356 2.720559,-6.511222 2.720559,-6.661473 0,-0.173343 0.15497,-0.273183 0.42405,-0.273183 0.56237,0 1.31752,0.295394 1.31752,0.515383 0,0.09663 -1.0972,2.66949 -2.4382,5.717465 -1.340994,3.047977 -2.438179,5.596259 -2.438179,5.662852 0,0.06659 0.09796,0.121513 0.217696,0.122048 0.51633,0.0023 1.496952,0.374312 1.583881,0.600861 0.05204,0.135694 -0.06336,0.447645 -0.256544,0.693223 -0.337253,0.428752 -0.424166,0.446505 -2.185855,0.446505 -1.396704,0 -1.814441,-0.05196 -1.750055,-0.217695 z m -4.52889,-0.348312 c -0.360626,-0.460906 -0.380058,-1.071199 -0.05104,-1.603501 0.351349,-0.568514 1.97003,-4.469254 2.727899,-6.573808 0.251663,-0.698864 0.632599,-1.43349 0.846522,-1.632502 0.213915,-0.199011 0.481669,-0.642803 0.595005,-0.986203 l 0.206055,-0.624363 1.570131,0.526595 c 1.272998,0.426942 1.549644,0.580615 1.46186,0.812047 -0.05959,0.156997 -0.632784,1.511911 -1.273852,3.01092 l -1.165574,2.725469 -0.870782,0.113436 c -0.574726,0.07487 -0.963862,0.234166 -1.144572,0.468542 -0.150591,0.195306 -0.541613,0.409876 -0.868926,0.476822 -0.520579,0.106467 -0.608286,0.202618 -0.700103,0.767471 -0.05774,0.355166 -0.234895,0.789332 -0.393701,0.964813 -0.444746,0.491436 -0.372814,0.868947 0.146649,0.769645 0.353497,-0.06757 0.435383,-0.0139 0.435383,0.285384 0,0.265374 -0.109741,0.369362 -0.391845,0.371283 -0.316866,0.0022 -0.341864,0.03497 -0.130621,0.171489 0.199388,0.128851 0.132276,0.169454 -0.283444,0.17149 -0.299574,0.0014 -0.621328,-0.0953 -0.715009,-0.215029 z m 5.161089,-7.13842 c 0.607686,-1.459644 1.138513,-2.741554 1.179625,-2.848687 0.09569,-0.249369 -0.959081,-0.697972 -1.146004,-0.487405 -0.211774,0.238547 -1.91017,4.636702 -1.943221,5.032132 -0.06483,0.775506 0.01286,0.957859 0.407859,0.957859 0.347346,0 0.534715,-0.331126 1.501741,-2.653899 z m -3.553079,7.181959 c 0.191565,-0.08232 0.589724,-0.155184 0.884794,-0.161914 0.428238,-0.0098 0.647851,-0.167328 1.088469,-0.780877 0.3036,-0.422748 0.551991,-0.898441 0.551991,-1.057097 0,-0.158654 0.23461,-0.629458 0.521358,-1.046227 0.286747,-0.416771 1.11774,-2.115852 1.846654,-3.775737 0.728913,-1.659884 1.355953,-3.068586 1.393424,-3.130448 0.03742,-0.06186 -0.07718,-0.291938 -0.254796,-0.511281 -0.316227,-0.390521 -0.314341,-0.41758 0.09086,-1.302647 0.22758,-0.497112 0.367694,-1.02397 0.311345,-1.170796 -0.157343,-0.410026 -1.072656,-0.711672 -2.027317,-0.668111 -0.84817,0.0387 -0.860635,0.03178 -0.805503,-0.447308 0.03688,-0.320239 0.173542,-0.5089497 0.399791,-0.5519337 0.522274,-0.099218 3.404875,0.8770107 3.585346,1.2142187 0.23501,0.439122 -0.05951,1.235765 -2.685139,7.263242 -1.306811,2.999958 -2.376026,5.518387 -2.376026,5.596506 0,0.366374 -0.909861,0.703943 -1.866047,0.692324 -0.723924,-0.0088 -0.909484,-0.05437 -0.659207,-0.161914 z m -0.01116,-0.950435 c -0.351888,-0.382924 -0.352812,-0.40363 -0.0435,-0.98029 0.173766,-0.324009 0.315942,-0.69025 0.315942,-0.813872 0,-0.123621 0.240415,-0.27285 0.534261,-0.331619 0.293845,-0.05877 0.655527,-0.291919 0.803731,-0.518115 0.206678,-0.31543 0.427122,-0.411261 0.946062,-0.411261 0.372129,0 0.676599,0.06299 0.676599,0.139992 0,0.077 -0.26265,0.394561 -0.583657,0.705701 -0.442097,0.428491 -0.563347,0.672007 -0.499885,1.003965 0.06267,0.327967 -0.06198,0.588659 -0.495443,1.035864 -0.661416,0.682409 -1.13795,0.73128 -1.654072,0.169635 z m -1.750032,-2.837461 c 1.315396,-4.409398 1.689865,-5.817475 1.722162,-6.475638 l 0.03903,-0.795383 -2.205764,-0.154903 c -1.213161,-0.0852 -2.32994,-0.107249 -2.481724,-0.049 -0.234249,0.08989 -0.275969,0.486679 -0.275969,2.624892 0,2.396531 -0.01755,2.524573 -0.361427,2.633711 -0.198795,0.06309 -0.40692,0.06924 -0.462499,0.01367 -0.05559,-0.05558 -0.163041,-1.244024 -0.238806,-2.640989 -0.07576,-1.396964 -0.22976,-2.828089 -0.34221,-3.180276 -0.197987,-0.620044 -1.853491,-2.9914495 -2.08837,-2.9914495 -0.06382,0 -0.414142,0.2368819 -0.778456,0.5264035 -1.154096,0.917151 -2.051777,0.942517 -2.137844,0.06041 -0.05266,-0.5394456 0.353828,-0.9452925 0.580085,-0.5792061 0.164911,0.2668317 0.581848,0.1939835 1.105476,-0.1931534 0.447748,-0.331037 0.644964,-0.3512306 2.474673,-0.2533816 3.194809,0.1708519 7.80637,0.1892193 9.172094,0.036532 L 95.61499,9.0752187 v 0.8201218 c 0,0.6384725 -0.169277,1.1326255 -0.76429,2.2310355 -0.420362,0.776004 -1.131637,2.429728 -1.580609,3.674945 -1.34546,3.731548 -1.999478,5.137607 -2.389722,5.137607 -0.241755,0 -0.313224,-0.08767 -0.248461,-0.304773 z m -0.720536,-0.15888 c -0.119727,-0.04831 -0.217696,-0.183439 -0.217696,-0.300279 0,-0.11684 -0.468835,-0.543072 -1.04186,-0.947181 l -1.041868,-0.734744 0.108379,-1.084641 c 0.05967,-0.596552 0.127386,-1.108073 0.150599,-1.136712 0.02325,-0.02864 0.536686,0.260582 1.141053,0.642713 0.604359,0.382131 1.152532,0.661599 1.218166,0.621039 0.0656,-0.04056 0.205916,-0.417653 0.311761,-0.837985 0.105837,-0.420332 0.241416,-0.891886 0.30129,-1.047898 0.09567,-0.249308 -0.08321,-0.283656 -1.477189,-0.283656 -1.469937,0 -1.586044,-0.0255 -1.586044,-0.348313 0,-0.328962 0.116107,-0.348312 2.089879,-0.348312 1.555803,0 2.089863,0.05563 2.089848,0.217694 -1.5e-5,0.119733 -0.323818,1.275695 -0.719567,2.568804 -0.395749,1.29311 -0.757538,2.527442 -0.803985,2.74296 -0.08629,0.400444 -0.142254,0.430048 -0.522766,0.276511 z m -29.704153,-2.368631 -1.360241,-0.685484 -4.346267,-0.002 -4.346267,-0.0021 0.06496,-0.633741 0.06496,-0.633741 4.871387,-0.0462 4.871388,-0.0462 1.168474,1.39591 c 1.003199,1.198461 1.112135,1.391884 0.770172,1.367448 -0.219065,-0.01565 -1.010412,-0.336931 -1.758548,-0.713947 z M 9.1837345,17.52211 C 9.1153375,17.45371 9.0593773,16.468564 9.0593773,15.332889 v -2.064862 l -0.412334,0.270171 c -0.3340954,0.218908 -0.8876054,0.260976 -2.9171164,0.22171 -2.353526,-0.04554 -2.5077376,-0.0695 -2.5537313,-0.396774 -0.026922,-0.191571 0.4041138,-1.484681 0.9578587,-2.873576 L 5.1408628,7.9642937 6.2145934,7.9128268 C 6.8878659,7.8805539 7.3667309,7.7668871 7.4985503,7.6080534 7.6453286,7.4311974 8.0714861,7.3547468 8.9105605,7.3547468 H 10.112344 L 9.8287269,7.8336762 9.5451108,8.3126056 9.9263164,7.8336762 C 10.276188,7.3941128 10.406533,7.3547468 11.512089,7.3547468 c 0.846636,0 1.205076,0.064684 1.206281,0.2176951 9.24e-4,0.1197324 -0.410501,1.1128297 -0.91432,2.2068816 L 10.888017,11.76851 10.783607,10.82426 C 10.695828,10.030423 10.735242,9.8177012 11.031014,9.4888469 11.569702,8.8899135 11.217872,8.7927913 10.601353,9.3702392 L 10.057089,9.8800111 10.171097,9.401082 c 0.08577,-0.3602823 0.0493,-0.47893 -0.147225,-0.47893 -0.1436784,0 -0.3104084,0.1959259 -0.3705102,0.4353909 C 9.5360899,9.8247896 9.3112452,9.9292559 9.1848108,9.5752375 9.1420432,9.455505 9.0444175,9.4159894 8.9678522,9.4874241 c -0.076566,0.071431 -0.045324,0.3359397 0.069429,0.5877899 0.1832603,0.402211 0.2830649,0.445831 0.8205276,0.358612 l 0.6118912,-0.0993 -0.102138,3.604176 -0.102139,3.604176 -0.4786632,0.0518 c -0.2632647,0.02849 -0.5346241,-0.0042 -0.6030215,-0.07256 z M 8.885221,12.753588 c 0,-0.09579 -0.3218661,-0.174157 -0.7152574,-0.174157 -0.5023063,0 -0.6894645,-0.06482 -0.6286245,-0.217694 0.047649,-0.119733 0.4119713,-1.03078 0.8096076,-2.02455 C 8.7485831,9.3434168 9.0334334,8.4898446 8.9839484,8.4403589 8.7901582,8.2465695 7.2480182,12.320499 7.382502,12.670959 c 0.1124142,0.292946 1.502719,0.369394 1.502719,0.08263 z M 7.0279883,10.620175 C 7.5736811,9.2588462 7.6052267,9.0963084 7.323744,9.0963084 c -0.2309341,0 -0.4649613,0.371796 -0.8762267,1.3920516 -0.3130513,0.776608 -0.511673,1.52095 -0.4492565,1.683605 0.164407,0.428438 0.3451005,0.156135 1.0297275,-1.55179 z m -1.2413656,0.03772 C 6.0472429,9.9518454 6.2196387,9.3333328 6.1697246,9.2834197 6.1198108,9.2335075 5.8741815,9.3081333 5.6238811,9.4492627 5.0335724,9.7820982 4.3472162,11.659309 4.7277846,11.900122 c 0.4138477,0.261871 0.5722214,0.07606 1.0588381,-1.24223 z m 4.3176923,0.441217 c 0,-0.281359 -0.7807884,-0.373586 -0.9428474,-0.11137 -0.137641,0.222708 0.078182,0.372603 0.5364819,0.372603 0.245109,0 0.4063655,-0.103664 0.4063655,-0.261233 z m 32.654281,4.434233 c -3.37432,-2.475667 -3.694227,-2.791546 -3.471708,-3.427975 0.218935,-0.626178 0.948651,-0.742815 1.458361,-0.233106 0.319944,0.319942 0.571828,0.358863 2.322477,0.358863 h 1.96362 l 1.290015,1.298684 1.290015,1.298686 1.056732,0.05103 1.056733,0.05103 0.05114,1.262633 0.05114,1.262631 -2.228121,-0.0029 -2.228122,-0.0029 -2.612343,-1.916621 z m 5.311762,0.653505 c 0,-0.51262 -0.181177,-0.722336 -1.736406,-2.009923 l -1.736399,-1.437585 -1.441947,0.05067 c -1.376677,0.04837 -1.441947,0.06891 -1.441947,0.453855 0,0.31304 0.467276,0.749483 2.089874,1.951963 l 2.089874,1.548773 1.088472,0.0073 1.088479,0.0073 z m -4.12522,-1.299908 c -1.07155,-0.828044 -1.909408,-1.568423 -1.861904,-1.645284 0.04753,-0.07686 0.637843,-0.139751 1.311869,-0.139751 h 1.225495 l 1.463195,1.262632 c 1.026131,0.885474 1.463333,1.379682 1.463649,1.654484 3.49e-4,0.352719 -0.08217,0.390933 -0.826794,0.382653 -0.767302,-0.0085 -0.968404,-0.118283 -2.77551,-1.514734 z m 6.215094,0.388874 V 14.83738 l 4.289238,0.04659 c 4.230412,0.04595 4.292812,0.05195 4.549303,0.438433 l 0.260067,0.391851 h -4.549304 -4.549304 z m 9.23028,0.003 c -0.30636,-0.326101 -0.342615,-0.43539 -0.144428,-0.43539 0.258716,0 0.84105,0.521974 0.84105,0.753876 0,0.240456 -0.300659,0.102998 -0.696622,-0.318486 z M 46.555867,13.406638 45.31133,12.144006 45.577458,11.49092 45.843579,10.837834 h 4.246013 4.246011 l 0.613923,1.219093 c 0.570506,1.132875 0.653805,1.218986 1.177741,1.217568 0.5148,-0.0014 0.624389,-0.107255 1.260447,-1.217568 l 0.696623,-1.216042 4.156519,-0.0015 c 4.615104,-0.0017 4.260793,-0.110077 3.75404,1.148347 -0.414526,1.029391 -0.248271,1.114165 2.185028,1.114165 h 2.182422 v 0.723673 0.723672 l -2.525267,-0.114743 c -1.649583,-0.07496 -2.525259,-0.05414 -2.525259,0.06003 0,0.114611 -3.014027,0.174774 -8.755711,0.174774 h -8.755703 z m 3.240813,0.152768 c 0.288178,-0.418852 0.474806,-0.810703 0.41473,-0.87078 -0.174365,-0.174364 -2.837674,-0.126145 -2.837674,0.05138 0,0.175008 1.577851,1.578002 1.776735,1.579831 0.06723,6.27e-4 0.35803,-0.341573 0.646209,-0.760426 z m -1.310987,0.03512 c -0.276324,-0.20794 -0.576864,-0.443051 -0.667864,-0.522442 -0.09099,-0.07939 0.364974,-0.144347 1.013257,-0.144347 h 1.178708 l -0.37203,0.522469 c -0.444087,0.623657 -0.505052,0.631296 -1.152071,0.144346 z m 4.20952,0.536557 c 0.114203,-0.184791 -1.075143,-1.551685 -1.350144,-1.551685 -0.21917,0 -1.188483,1.420615 -1.084312,1.589163 0.136575,0.220989 2.295255,0.187757 2.434456,-0.03748 z M 50.686571,13.84203 c 0.002,-0.07184 0.155704,-0.326542 0.341265,-0.566006 l 0.337395,-0.435391 0.569703,0.566007 0.569709,0.566008 h -0.910974 c -0.50103,0 -0.909224,-0.05878 -0.907098,-0.130618 z m 3.71945,-0.149514 c 0.804321,-1.008044 0.724096,-1.191601 -0.547225,-1.252103 -1.367252,-0.06506 -1.526313,0.18848 -0.740605,1.180522 0.304937,0.385014 0.606629,0.700023 0.670418,0.700021 0.06379,-4e-6 0.341627,-0.282801 0.617412,-0.62844 z M 53.31246,13.43651 c -0.218018,-0.294887 -0.358741,-0.573821 -0.312704,-0.619853 0.04601,-0.04603 0.446147,-0.05947 0.889141,-0.02985 l 0.805454,0.05385 -0.394885,0.562998 c -0.217182,0.309649 -0.438913,0.564352 -0.492742,0.566008 -0.05385,0.0016 -0.276245,-0.238262 -0.494264,-0.53315 z m 17.398194,0.20648 c 0,-0.457583 -0.08955,-0.712358 -0.275476,-0.783703 -0.151517,-0.05814 -1.209513,-0.105711 -2.351112,-0.105711 -2.334301,0 -2.345267,-0.0078 -1.723772,-1.226031 l 0.351849,-0.689687 h 1.892727 1.892721 l 0.733918,-1.1705272 c 0.599146,-0.9555717 0.698393,-1.2274208 0.540445,-1.4803283 -0.181243,-0.2902233 -0.06683,-0.309799 1.810805,-0.309799 1.724775,0 2.004265,0.039026 2.004265,0.2798667 0,0.1813827 0.09511,0.24337 0.270281,0.1761511 0.311586,-0.1195652 0.27175,-0.039889 -0.566016,1.1321869 -0.705877,0.9875458 -0.718186,1.1982938 -0.07,1.1982938 0.442,0 0.616825,0.176076 1.400656,1.410679 0.492585,0.775873 1.018852,1.598761 1.169474,1.828639 l 0.273852,0.417961 h -3.677305 -3.67731 z m 2.612341,-3.101652 c 0,-0.178896 -1.079079,-1.4450412 -1.231538,-1.4450412 -0.139485,0 -1.032489,1.2663082 -1.032489,1.4640962 0,0.04278 0.128782,0.103108 0.286184,0.134077 0.396411,0.078 1.977843,-0.04445 1.977843,-0.153132 z M 71.75559,9.967077 c 0.204617,-0.2873571 0.400545,-0.5224683 0.435392,-0.5224683 0.03482,0 0.230775,0.2351112 0.435391,0.5224683 l 0.372031,0.522468 H 72.190982 71.38356 Z m 3.014941,-0.00293 c 0.269327,-0.3806799 0.441033,-0.7708586 0.381576,-0.8670623 -0.1509,-0.2441575 -2.003266,-0.2265277 -2.003266,0.019063 0,0.3262414 0.748828,1.5478173 0.946388,1.5438593 0.102097,-0.002 0.405982,-0.315184 0.675302,-0.6958634 z M 73.767004,9.917587 C 73.359639,9.2958689 73.459038,9.1674235 74.267809,9.2704485 l 0.683584,0.087078 -0.440894,0.5109445 -0.440895,0.510945 z m 3.561586,2.43832 C 76.263972,10.763719 75.935451,10.392428 75.552158,10.348193 L 75.0819,10.293923 75.888532,9.1726396 c 0.443645,-0.6167064 0.906617,-1.121284 1.028817,-1.121284 0.122207,0 1.048429,0.3639363 2.058277,0.8087476 l 1.836083,0.8087474 v 0.7420864 0.742086 l 0.740162,-0.08648 c 0.411539,-0.04808 1.071062,-0.311362 1.485427,-0.592974 0.409892,-0.278571 0.804601,-0.5064921 0.877141,-0.5064921 0.187846,0 1.320692,1.5503211 1.755175,2.4019901 0.201735,0.39542 0.366778,0.996362 0.366778,1.33543 v 0.616484 h -1.458997 c -1.084435,0 -1.514668,-0.06707 -1.675814,-0.261234 -0.156335,-0.188376 -0.569953,-0.261235 -1.48301,-0.261235 -0.96487,0 -1.290074,0.06217 -1.366463,0.261235 -0.06529,0.170107 -0.329969,0.259206 -0.7588,0.25542 -0.643455,-0.0057 -0.688479,-0.05058 -1.964718,-1.959257 z m 2.282584,0.397665 c 0.09032,0 0.242732,-0.206504 0.3387,-0.458898 0.219281,-0.57676 -0.187647,-1.282664 -0.739407,-1.282664 -0.473054,0 -1.011103,0.477744 -1.011103,0.897773 0,0.435281 0.661201,1.068808 0.985573,0.944333 0.144109,-0.0553 0.335913,-0.100544 0.426237,-0.100544 z m -0.813632,-0.422168 c -0.346884,-0.25365 -0.241955,-0.744061 0.195083,-0.911768 0.360496,-0.138337 0.818337,0.319506 0.68001,0.680004 -0.151962,0.395991 -0.517939,0.492919 -0.875093,0.231764 z M 79.38531,11.92633 c -0.07068,-0.367093 -0.379781,-0.343947 -0.458549,0.03434 -0.03288,0.157783 0.06313,0.270434 0.230468,0.270434 0.17937,0 0.26479,-0.114142 0.228081,-0.304774 z m 8.392653,1.959257 v -0.43539 h 2.176946 2.176954 v 0.43539 0.435391 h -2.176954 -2.176946 z m 6.540932,0 c 0.05459,-0.287357 0.386865,-1.003646 0.738383,-1.591751 0.633269,-1.059463 0.647782,-1.070299 1.580224,-1.179891 1.012273,-0.118972 1.763983,0.176226 1.763983,0.692721 0,0.352254 -0.665505,1.643531 -0.847053,1.643531 -0.07885,0 -0.598932,-0.156741 -1.155743,-0.348313 -0.556819,-0.191571 -1.107894,-0.348312 -1.224618,-0.348312 -0.116724,0 -0.379211,0.372259 -0.583326,0.827241 -0.272543,0.60755 -0.344743,0.68849 -0.27185,0.304774 z M 15.024226,13.490655 c -4.078872,-0.04505 -4.223288,-0.05844 -4.223288,-0.391851 0,-0.189869 0.06148,-0.345216 0.136607,-0.345216 0.07513,0 0.270379,-0.226457 0.433878,-0.503238 0.283738,-0.480331 1.11024,-0.76516 1.674508,-0.577071 0.282692,0.09423 0.235984,0.383684 -0.06191,0.383684 -0.208363,0 -0.615674,0.487122 -0.615674,0.736312 0,0.03442 0.745884,0.08163 1.657522,0.104903 l 1.657521,0.04232 0.562969,-0.594801 c 0.573906,-0.606354 1.585817,-0.954576 1.79419,-0.617422 0.06199,0.100304 -0.05253,0.298106 -0.254481,0.439562 -0.401617,0.281304 -0.496417,0.761492 -0.149497,0.757242 0.347952,-0.0043 0.596734,-0.22844 0.731079,-0.658776 0.173957,-0.557219 -0.1748,-0.905963 -0.905995,-0.905963 -0.472908,0 -0.741271,0.137918 -1.186075,0.609548 -0.542498,0.575216 -0.63867,0.609545 -1.707551,0.609545 h -1.132676 l -0.05458,-0.566006 c -0.05121,-0.531142 -0.100111,-0.569304 -0.793815,-0.619516 -0.622356,-0.04505 -0.811841,0.0238 -1.198404,0.435391 l -0.459163,0.488898 0.264752,-0.522469 c 0.145613,-0.287357 0.385095,-0.81178 0.532182,-1.165385 0.255327,-0.613815 0.290284,-0.6342889 0.772322,-0.45234 0.812706,0.306763 1.37704,0.05108 2.004134,-0.9079857 l 0.56498,-0.8640758 1.267105,-0.00316 1.267105,-0.0031 -0.265708,0.5138198 c -0.357672,0.6916618 -0.334515,1.0045047 0.09122,1.2323517 0.693175,0.370976 1.252097,0.135207 1.972016,-0.8318517 L 20.080153,8.399694 h 1.126177 c 1.006824,0 1.112159,0.032299 0.993926,0.3047734 -0.07274,0.1676246 -0.167653,0.5559356 -0.210924,0.862911 -0.06841,0.4853516 -0.01953,0.5729816 0.37485,0.6719656 0.792847,0.198992 1.296068,-0.05891 1.891342,-0.9693158 0.489171,-0.7481367 0.642872,-0.8644958 1.145499,-0.8672051 0.319288,-0.00171 0.553949,0.055646 0.521471,0.1274872 -0.03247,0.071839 -0.275438,0.5420621 -0.539915,1.0449372 l -0.480865,0.9143205 h -2.093068 c -1.606399,0 -2.189846,0.06342 -2.509299,0.272725 -0.489668,0.320843 -0.790607,1.084799 -0.790607,2.007015 0,0.363197 -0.05878,0.684576 -0.130617,0.714175 -0.07184,0.0296 -2.031096,0.03284 -4.353904,0.0072 z m 4.764434,-0.358532 c -0.04893,-0.07916 -0.04441,-0.314273 0.01003,-0.522468 0.09815,-0.37531 0.134514,-0.378536 4.267485,-0.378536 h 4.168496 l 0.182132,-0.522468 c 0.100175,-0.287358 0.276349,-0.522469 0.391501,-0.522469 0.307907,0 0.627341,0.372448 0.627341,0.731456 0,0.28566 0.199257,0.313481 2.24515,0.313481 h 2.245149 l 0.111149,-0.442848 c 0.06113,-0.243566 0.227366,-0.487445 0.369409,-0.541952 0.337243,-0.129412 0.776295,0.24263 0.776295,0.657812 0,0.299168 0.155951,0.326988 1.832951,0.326988 1.807305,0 1.835327,0.0062 2.002796,0.446728 0.09342,0.245701 0.169846,0.480811 0.169846,0.522469 0,0.143429 -19.310897,0.07555 -19.399733,-0.06819 z m 9.472832,-1.336395 c 0,-0.145129 -0.154805,-0.261234 -0.348312,-0.261234 -0.193507,0 -0.348313,0.116105 -0.348313,0.261234 0,0.145131 0.154806,0.261235 0.348313,0.261235 0.193507,0 0.348312,-0.116104 0.348312,-0.261235 z m 5.572998,0 c 0,-0.143678 -0.117555,-0.261234 -0.261235,-0.261234 -0.143679,0 -0.261233,0.117556 -0.261233,0.261234 0,0.14368 0.117554,0.261235 0.261233,0.261235 0.14368,0 0.261235,-0.117555 0.261235,-0.261235 z m 20.947688,0.914321 c -0.09232,-0.119732 -0.421155,-0.668325 -0.730732,-1.219093 l -0.56287,-1.001398 h -14.5449 -14.544898 l 0.597391,-1.088476 0.597388,-1.0884764 h 20.883001 c 15.272279,0 20.939157,-0.052822 21.092037,-0.1966081 0.114973,-0.1081344 0.755541,-0.2017496 1.423484,-0.208035 1.709715,-0.016087 1.851154,0.2047965 0.960743,1.5003542 l -0.683267,0.9941623 -6.26676,0.04643 -6.266773,0.04643 -0.663289,1.2162 c -0.65158,1.194719 -0.957031,1.431049 -1.290555,0.998504 z M 32.05944,10.135118 c 0.407814,-0.2182551 0.431671,-0.5708107 0.06353,-0.9389466 -0.206321,-0.2063194 -0.355756,-0.2292146 -0.609548,-0.09339 -0.5305,0.2839148 -0.431684,1.0523876 0.154162,1.1988716 0.03025,0.0075 0.206577,-0.06738 0.391851,-0.166535 z M 31.53537,9.9731745 c -0.294459,-0.1819846 -0.112226,-0.7027098 0.245922,-0.7027098 0.147891,0 0.266699,0.1505845 0.266699,0.3380338 0,0.4147595 -0.200638,0.5574925 -0.512621,0.364676 z m 6.508224,0.068897 c 0.374214,-0.3742156 0.0625,-0.9457654 -0.515811,-0.9457654 -0.236094,0 -0.429263,0.032774 -0.429263,0.072832 0,0.040058 -0.04369,0.1866933 -0.09709,0.3258564 -0.09639,0.2511912 0.333474,0.820403 0.619562,0.820403 0.0821,0 0.272274,-0.123 0.422606,-0.27333 z m -0.666813,-0.02893 c -0.05726,-0.057258 -0.104105,-0.2535306 -0.104105,-0.4361612 0,-0.4092598 0.579285,-0.351808 0.659635,0.065418 0.05468,0.2839141 -0.363367,0.5629012 -0.55553,0.3707392 z m 9.200808,0.02859 C 46.889793,9.7295221 46.887041,9.7405 46.745556,9.3717844 46.597619,8.9862789 45.855678,9.0269917 45.638647,9.4325291 c -0.135826,0.2537919 -0.112932,0.4032269 0.09339,0.6095469 0.343358,0.343359 0.501912,0.343295 0.845553,-3.49e-4 z m -0.587258,-0.068551 c -0.294458,-0.1819861 -0.112228,-0.7027106 0.245921,-0.7027106 0.14789,0 0.266701,0.1505845 0.266701,0.3380338 0,0.4147603 -0.200641,0.5574923 -0.512622,0.3646768 z m 8.865173,0.089358 c 0.362658,-0.4369731 0.147167,-0.8791482 -0.428447,-0.8791482 -0.359853,0 -0.536087,0.095477 -0.578003,0.31314 -0.06914,0.3590519 0.255419,0.8188762 0.578003,0.8188762 0.120225,0 0.313027,-0.11379 0.428447,-0.252868 z M 54.151109,9.862282 c -0.154743,-0.1864508 -0.161537,-0.3110675 -0.02442,-0.4481634 0.240484,-0.2404828 0.735781,-0.060321 0.735781,0.2676415 0,0.3629049 -0.462556,0.4802899 -0.71134,0.1805219 z M 64.330855,9.7558001 64.656066,9.357546 63.32946,9.306679 C 62.599828,9.278701 62.002854,9.1807404 62.002854,9.0889836 c 0,-0.096984 -0.867156,-0.1668308 -2.071246,-0.1668308 -1.72804,0 -2.088755,0.045647 -2.176951,0.2754783 -0.172673,0.4499904 -0.120877,0.9091529 0.111984,0.9926259 0.119732,0.04291 1.549989,0.05233 3.178353,0.02092 2.839385,-0.05478 2.973973,-0.07343 3.285861,-0.4553749 z M 58.028684,9.5752414 c 0.05272,-0.3712078 0.143724,-0.3944609 1.727381,-0.4413799 1.333701,-0.039511 1.716573,0.00447 1.893505,0.2176954 0.153308,0.1847286 0.537772,0.2672236 1.245387,0.2672236 0.566307,0 1.02361,0.077806 1.02361,0.1741563 0,0.1093019 -1.107027,0.1741555 -2.972768,0.1741555 H 57.973037 Z M 19.862598,11.92635 c 0.0098,-0.230384 0.418434,-0.67719 0.810254,-0.885874 0.517834,-0.275799 24.611009,-0.292439 24.611009,-0.01699 0,0.102083 -0.08113,0.337194 -0.180281,0.522468 -0.161174,0.301154 -0.379857,0.336864 -2.062888,0.336864 -1.661419,0 -1.91963,-0.04092 -2.197815,-0.348313 -0.173371,-0.191571 -0.532584,-0.348312 -0.798254,-0.348312 -0.471074,0 -1.030386,0.384894 -1.030386,0.709065 0,0.08903 -0.804742,0.161716 -1.790457,0.161716 H 35.433322 L 35.236111,11.534505 C 35.106845,11.19204 34.917973,11.012037 34.6879,11.012037 c -0.407165,0 -0.898347,0.435301 -0.898347,0.796142 0,0.201801 -0.394755,0.248795 -2.089874,0.248795 -1.896368,0 -2.089874,-0.02902 -2.089874,-0.313481 0,-0.828564 -0.924485,-0.971606 -1.357811,-0.210089 l -0.296673,0.521368 -3.526662,0.0012 c -3.019196,9.24e-4 -3.526663,-0.03648 -3.526663,-0.26013 0,-0.14513 -0.154805,-0.261234 -0.348312,-0.261234 -0.193506,0 -0.348312,0.116104 -0.348312,0.261234 0,0.143679 -0.07837,0.261235 -0.174157,0.261235 -0.09579,0 -0.171663,-0.05878 -0.168617,-0.130618 z M 12.421469,9.8543328 C 12.360909,9.696529 12.409281,9.3242703 12.528953,9.027091 12.648625,8.7299117 12.785968,8.3300249 12.83416,8.1384529 c 0.205701,-0.817695 0.220018,-0.8353072 0.494104,-0.6078361 0.142545,0.118302 0.259173,0.3622394 0.259173,0.5420824 0,0.2609631 0.130113,0.326988 0.644378,0.326988 0.657207,0 0.633714,0.2554538 -0.03483,0.3787309 -0.237337,0.043769 -0.348312,0.2017417 -0.348312,0.4958345 0,0.2373832 -0.0634,0.529569 -0.140896,0.6493007 -0.209555,0.3237817 -1.155023,0.2729027 -1.286307,-0.069221 z m 5.012736,0.044154 c -0.154884,-0.1866248 -0.132221,-0.3879831 0.09801,-0.8707809 0.293743,-0.6159873 0.319083,-0.628021 1.322441,-0.628021 0.637625,0 0.982415,0.065606 0.915325,0.1741557 -0.05921,0.095787 -0.308731,0.1741564 -0.554516,0.1741564 -0.402996,0 -0.436687,0.050975 -0.343074,0.5190383 0.07996,0.3998032 0.02758,0.5598343 -0.228015,0.6966246 -0.464299,0.2484861 -0.972574,0.2211121 -1.210171,-0.065172 z m 4.991658,0.1227102 c -0.374957,-0.097988 -0.386848,-0.4351574 -0.03907,-1.1076927 0.245668,-0.4750704 0.338383,-0.5138194 1.229373,-0.5138194 0.598093,0 0.922832,0.066066 0.856029,0.1741557 -0.0592,0.095787 -0.251365,0.1741564 -0.427036,0.1741564 -0.374258,0 -0.619902,0.5030515 -0.368436,0.7545175 0.115635,0.1156359 0.07383,0.2497523 -0.124908,0.4007302 -0.304223,0.2311103 -0.581706,0.2601773 -1.125956,0.1179523 z M 54.339981,7.7134936 c 0,-0.2744916 0.875983,-0.3453281 4.179748,-0.3379974 3.346589,0.00742 4.528062,0.090247 4.528062,0.3174166 0,0.073366 -1.959262,0.143316 -4.353908,0.1554439 -2.483864,0.012579 -4.353902,-0.045345 -4.353902,-0.1348631 z M 65.224742,7.0064356 64.367051,6.1356552 h 5.609988 c 3.085496,0 5.609985,0.043075 5.609985,0.095727 0,0.052652 -0.119567,0.3269452 -0.265701,0.6095462 -0.200002,0.3867636 -0.388526,0.51382 -0.762379,0.51382 -0.273171,0 -0.594235,-0.1175555 -0.71348,-0.2612342 C 73.667973,6.8796454 73.079932,6.83228 70.602249,6.83228 c -1.66452,0 -3.026407,0.068774 -3.026407,0.1528319 0,0.084057 0.11756,0.2503939 0.261237,0.3696365 0.468791,0.3890615 0.278122,0.5224686 -0.746713,0.5224686 -0.979063,0 -1.032511,-0.024947 -1.865624,-0.8707814 z M 63.221945,6.2930763 c 0,-0.1049907 0.123116,-0.6143972 0.273593,-1.1320153 L 63.76913,4.2199371 h 4.545152 4.545163 L 73.785203,3.6974685 C 74.529423,3.2774578 74.916401,3.175 75.758545,3.175 c 0.61202,0 1.047576,0.075631 1.047576,0.1819033 0,0.1000474 -0.127084,0.687824 -0.282405,1.3061713 l -0.282413,1.124268 h -6.068165 c -5.889918,0 -6.07363,0.010229 -6.254571,0.3483126 -0.197053,0.3682061 -0.696622,0.4810962 -0.696622,0.1574211 z"
       id="path941" />
  </g>
</svg>
