<?xml version="1.0" encoding="UTF-8" standalone="no"?>
<svg
   xmlns:dc="http://purl.org/dc/elements/1.1/"
   xmlns:cc="http://creativecommons.org/ns#"
   xmlns:rdf="http://www.w3.org/1999/02/22-rdf-syntax-ns#"
   xmlns:svg="http://www.w3.org/2000/svg"
   xmlns="http://www.w3.org/2000/svg"
   xmlns:sodipodi="http://sodipodi.sourceforge.net/DTD/sodipodi-0.dtd"
   xmlns:inkscape="http://www.inkscape.org/namespaces/inkscape"
   version="1.1"
   id="Layer_4_1_"
   x="0px"
   y="0px"
   viewBox="0 0 512 512"
   xml:space="preserve"
   sodipodi:docname="Turbocharger.svg"
   width="512"
   height="512"
   inkscape:version="1.0.1 (3bc2e813f5, 2020-09-07)"><metadata
   id="metadata79"><rdf:RDF><cc:Work
       rdf:about=""><dc:format>image/svg+xml</dc:format><dc:type
         rdf:resource="http://purl.org/dc/dcmitype/StillImage" /><dc:title></dc:title></cc:Work></rdf:RDF></metadata><defs
   id="defs77" /><sodipodi:namedview
   pagecolor="#ffffff"
   bordercolor="#666666"
   borderopacity="1"
   objecttolerance="10"
   gridtolerance="10"
   guidetolerance="10"
   inkscape:pageopacity="0"
   inkscape:pageshadow="2"
   inkscape:window-width="1600"
   inkscape:window-height="837"
   id="namedview75"
   showgrid="false"
   inkscape:zoom="1.1317568"
   inkscape:cx="261.6933"
   inkscape:cy="340.32732"
   inkscape:window-x="-8"
   inkscape:window-y="-8"
   inkscape:window-maximized="1"
   inkscape:current-layer="Layer_4_1_"
   inkscape:document-rotation="0" />
<style
   type="text/css"
   id="style2">
	.st0{fill:#241C1C;}
</style>
<g
   id="g72"
   transform="matrix(13.406593,0,0,13.406593,7.9780221,7.9780221)"
   style="fill:#273839;fill-opacity:1">
	<g
   id="g54"
   style="fill:#273839;fill-opacity:1">
		<path
   class="st0"
   d="M 30.8,2.3 H 6.2 C 4.7,3.8 3.8,4.7 2.3,6.2 v 24.6 c 1.5,1.5 2.4,2.4 3.9,3.9 h 24.6 c 1.5,-1.5 2.4,-2.4 3.9,-3.9 V 6.2 C 33.2,4.7 32.3,3.8 30.8,2.3 Z M 32.2,30 c -0.8,0.8 -1.3,1.3 -2.1,2.1 H 6.9 C 6.1,31.3 5.6,30.8 4.8,30 V 7.2 C 5.6,6.3 6.1,5.9 6.9,5 h 18.3 c 2.7,2.7 4.3,4.3 7,7 z"
   id="path4"
   style="fill:#273839;fill-opacity:1" />
		<g
   id="g16"
   style="fill:#273839;fill-opacity:1">
			<path
   class="st0"
   d="M 7.2,2 V 1.1 C 7.2,0.7 7.6,0.3 8,0.3 h 2.4 c 0.4,0 0.8,0.4 0.8,0.8 V 2 Z"
   id="path6"
   style="fill:#273839;fill-opacity:1" />
			<path
   class="st0"
   d="M 11.8,2 V 1.1 c 0,-0.4 0.4,-0.8 0.8,-0.8 H 15 c 0.4,0 0.8,0.4 0.8,0.8 V 2 Z"
   id="path8"
   style="fill:#273839;fill-opacity:1" />
			<path
   class="st0"
   d="M 16.5,2 V 1.1 c 0,-0.4 0.4,-0.8 0.8,-0.8 h 2.4 c 0.4,0 0.8,0.4 0.8,0.8 V 2 Z"
   id="path10"
   style="fill:#273839;fill-opacity:1" />
			<path
   class="st0"
   d="M 25.7,2 V 1.1 c 0,-0.4 0.4,-0.8 0.8,-0.8 h 2.4 c 0.4,0 0.8,0.4 0.8,0.8 V 2 Z"
   id="path12"
   style="fill:#273839;fill-opacity:1" />
			<path
   class="st0"
   d="M 21.1,2 V 1.1 c 0,-0.4 0.4,-0.8 0.8,-0.8 h 2.4 c 0.4,0 0.8,0.4 0.8,0.8 V 2 Z"
   id="path14"
   style="fill:#273839;fill-opacity:1" />
		</g>
		<g
   id="g28"
   style="fill:#273839;fill-opacity:1">
			<path
   class="st0"
   d="m 7.1,35 v 0.9 c 0,0.4 0.4,0.8 0.8,0.8 h 2.4 c 0.4,0 0.8,-0.4 0.8,-0.8 V 35 Z"
   id="path18"
   style="fill:#273839;fill-opacity:1" />
			<path
   class="st0"
   d="m 11.8,35 v 0.9 c 0,0.4 0.4,0.8 0.8,0.8 H 15 c 0.4,0 0.8,-0.4 0.8,-0.8 V 35 Z"
   id="path20"
   style="fill:#273839;fill-opacity:1" />
			<path
   class="st0"
   d="m 16.4,35 v 0.9 c 0,0.4 0.4,0.8 0.8,0.8 h 2.4 c 0.4,0 0.8,-0.4 0.8,-0.8 V 35 Z"
   id="path22"
   style="fill:#273839;fill-opacity:1" />
			<path
   class="st0"
   d="m 25.7,35 v 0.9 c 0,0.4 0.4,0.8 0.8,0.8 h 2.4 c 0.4,0 0.8,-0.4 0.8,-0.8 V 35 Z"
   id="path24"
   style="fill:#273839;fill-opacity:1" />
			<path
   class="st0"
   d="m 21,35 v 0.9 c 0,0.4 0.4,0.8 0.8,0.8 h 2.4 c 0.4,0 0.8,-0.4 0.8,-0.8 V 35 Z"
   id="path26"
   style="fill:#273839;fill-opacity:1" />
		</g>
		<g
   id="g40"
   style="fill:#273839;fill-opacity:1">
			<path
   class="st0"
   d="M 2,29.8 H 1.1 C 0.7,29.8 0.3,29.4 0.3,29 v -2.4 c 0,-0.4 0.4,-0.8 0.8,-0.8 H 2 Z"
   id="path30"
   style="fill:#273839;fill-opacity:1" />
			<path
   class="st0"
   d="M 2,25.1 H 1.1 c -0.4,0 -0.8,-0.4 -0.8,-0.8 v -2.4 c 0,-0.4 0.4,-0.8 0.8,-0.8 H 2 Z"
   id="path32"
   style="fill:#273839;fill-opacity:1" />
			<path
   class="st0"
   d="M 2,20.5 H 1.1 c -0.4,0 -0.8,-0.4 -0.8,-0.8 v -2.4 c 0,-0.4 0.4,-0.8 0.8,-0.8 H 2 Z"
   id="path34"
   style="fill:#273839;fill-opacity:1" />
			<path
   class="st0"
   d="M 2,11.2 H 1.1 C 0.7,11.2 0.3,10.8 0.3,10.4 V 8 C 0.3,7.6 0.7,7.2 1.1,7.2 H 2 Z"
   id="path36"
   style="fill:#273839;fill-opacity:1" />
			<path
   class="st0"
   d="M 2,15.9 H 1.1 c -0.4,0 -0.8,-0.4 -0.8,-0.8 v -2.4 c 0,-0.4 0.4,-0.8 0.8,-0.8 H 2 Z"
   id="path38"
   style="fill:#273839;fill-opacity:1" />
		</g>
		<g
   id="g52"
   style="fill:#273839;fill-opacity:1">
			<path
   class="st0"
   d="m 35,29.8 h 0.9 c 0.4,0 0.8,-0.4 0.8,-0.8 v -2.4 c 0,-0.4 -0.4,-0.8 -0.8,-0.8 H 35 Z"
   id="path42"
   style="fill:#273839;fill-opacity:1" />
			<path
   class="st0"
   d="m 35,25.2 h 0.9 c 0.4,0 0.8,-0.4 0.8,-0.8 V 22 c 0,-0.4 -0.4,-0.8 -0.8,-0.8 H 35 Z"
   id="path44"
   style="fill:#273839;fill-opacity:1" />
			<path
   class="st0"
   d="m 35,20.6 h 0.9 c 0.4,0 0.8,-0.4 0.8,-0.8 v -2.4 c 0,-0.4 -0.4,-0.8 -0.8,-0.8 H 35 Z"
   id="path46"
   style="fill:#273839;fill-opacity:1" />
			<path
   class="st0"
   d="m 35,11.3 h 0.9 c 0.4,0 0.8,-0.4 0.8,-0.8 V 8.1 C 36.7,7.7 36.3,7.3 35.9,7.3 H 35 Z"
   id="path48"
   style="fill:#273839;fill-opacity:1" />
			<path
   class="st0"
   d="m 35,15.9 h 0.9 c 0.4,0 0.8,-0.4 0.8,-0.8 v -2.4 c 0,-0.4 -0.4,-0.8 -0.8,-0.8 H 35 Z"
   id="path50"
   style="fill:#273839;fill-opacity:1" />
		</g>
	</g>
	<path
   class="st0"
   d="m 9.3,15.8 c 0,-3.1 6.4,-5.7 14.4,-5.7 0.9,0 1.8,0 2.7,0.1 C 24.3,9.5 21.8,9.1 19,9.1 12.1,9.1 6.5,11.7 6.5,15 c 0,2.9 4.4,5.2 10.2,5.8 -4.4,-1 -7.4,-2.9 -7.4,-5 z"
   id="path56"
   style="fill:#273839;fill-opacity:1" />
	<path
   class="st0"
   d="m 19.4,11.8 c 5,1 8.2,1.8 8.8,3.8 0.8,2.7 -6.4,5.3 -14.4,5.3 -0.9,0 -1.7,0 -2.6,-0.1 2,0.7 4.5,1 7.2,1 6.8,0 12.2,-2.4 12.2,-5.4 0.1,-2.4 -2.2,-5.6 -11.2,-4.6 z"
   id="path58"
   style="fill:#273839;fill-opacity:1" />
	<path
   class="st0"
   d="m 18.5,12.9 c -4.6,0 -8.4,1.5 -8.4,3.3 0,1.1 1.5,2.1 3.7,2.7 -1,-0.5 -1.7,-1.2 -1.7,-2 0,-1.7 3.2,-3.1 7.1,-3.1 3.9,0 7.1,1.4 7.1,3.1 0,0.2 -0.1,0.4 -0.1,0.6 0.5,-0.4 0.7,-0.9 0.7,-1.3 -0.1,-1.8 -3.8,-3.3 -8.4,-3.3 z"
   id="path60"
   style="fill:#273839;fill-opacity:1" />
	<path
   class="st0"
   d="m 26.2,19.3 c 0.1,0.2 0.1,0.3 0.1,0.5 0,1.7 -3.6,3.1 -8.1,3.1 -3,0 -5.6,-0.6 -7,-1.6 0.9,1.4 3.9,2.5 7.5,2.5 4.3,0 7.8,-1.5 7.8,-3.4 0,-0.5 -0.1,-0.8 -0.3,-1.1 z"
   id="path62"
   style="fill:#273839;fill-opacity:1" />
	<path
   class="st0"
   d="m 12.5,24.6 c 0,-1.3 3.3,-2.4 7.5,-2.4 2,0 3.7,0.2 5.1,0.6 -1,-1.2 -3.8,-2 -7.1,-2 -4.1,0 -7.5,1.3 -7.5,2.9 0,1.3 2,2.3 4.9,2.7 -1.7,-0.3 -2.9,-1 -2.9,-1.8 z"
   id="path64"
   style="fill:#273839;fill-opacity:1" />
	<path
   class="st0"
   d="m 23.2,22 c 0.3,0.6 0.5,1.2 0.5,1.9 0,2.6 -2.6,4.6 -5.8,4.6 -1.7,0 -3.3,-0.6 -4.3,-1.6 0.9,1.6 3,2.6 5.4,2.6 3.3,0 6,-2 6,-4.5 -0.2,-1.2 -0.8,-2.2 -1.8,-3 z"
   id="path66"
   style="fill:#273839;fill-opacity:1" />
	<path
   class="st0"
   d="m 24.9,22.1 c 0,0.1 0.1,0.2 0.1,0.3 0,2.3 -3.1,4.2 -7,4.2 -3.3,0 -6.1,-1.4 -6.8,-3.3 0,0.1 -0.1,0.2 -0.1,0.3 0,2.3 3.2,4.1 7.2,4.1 4,0 7.2,-1.9 7.2,-4.1 0,-0.5 -0.2,-1 -0.6,-1.5 z"
   id="path68"
   style="fill:#273839;fill-opacity:1" />
	<path
   class="st0"
   d="m 24.3,22.5 c -0.1,1.2 -2.9,2.2 -6.4,2.2 -2.8,0 -5.1,-0.6 -6,-1.5 -0.1,0.1 -0.1,0.2 -0.1,0.4 0,1.3 3,2.3 6.7,2.3 3.7,0 6.7,-1 6.7,-2.3 -0.1,-0.4 -0.4,-0.7 -0.9,-1.1 z"
   id="path70"
   style="fill:#273839;fill-opacity:1" />
</g>
</svg>
