<?xml version="1.0" encoding="UTF-8" standalone="no"?>
<!-- Generator: Adobe Illustrator 22.1.0, SVG Export Plug-In . SVG Version: 6.00 Build 0)  -->

<svg
   version="1.1"
   id="Layer_4_1_"
   x="0px"
   y="0px"
   viewBox="0 0 512 512"
   xml:space="preserve"
   sodipodi:docname="Ultimate_Accelerant.svg"
   width="512"
   height="512"
   inkscape:version="1.1 (c68e22c387, 2021-05-23)"
   xmlns:inkscape="http://www.inkscape.org/namespaces/inkscape"
   xmlns:sodipodi="http://sodipodi.sourceforge.net/DTD/sodipodi-0.dtd"
   xmlns="http://www.w3.org/2000/svg"
   xmlns:svg="http://www.w3.org/2000/svg"><defs
   id="defs35" /><sodipodi:namedview
   id="namedview33"
   pagecolor="#ffffff"
   bordercolor="#666666"
   borderopacity="1.0"
   inkscape:pageshadow="2"
   inkscape:pageopacity="0.0"
   inkscape:pagecheckerboard="0"
   showgrid="false"
   inkscape:zoom="0.86486487"
   inkscape:cx="149.73437"
   inkscape:cy="296.57812"
   inkscape:window-width="1366"
   inkscape:window-height="697"
   inkscape:window-x="-8"
   inkscape:window-y="-8"
   inkscape:window-maximized="1"
   inkscape:current-layer="Layer_4_1_" />
<style
   type="text/css"
   id="style2">
	.st0{opacity:0.25;fill:#241C1C;}
	.st1{opacity:0.5;fill:#241C1C;}
	.st2{fill:#241C1C;}
	.st3{fill:#E3A34D;}
	.st4{fill:#B68241;}
	.st5{fill:#CDC863;}
	.st6{fill:#483737;}
</style>













<g
   id="g1037"
   transform="matrix(13.406593,0,0,13.406593,7.9780221,7.9781768)"><rect
     x="19.700001"
     y="3.9000001"
     class="st0"
     width="15.1"
     height="29"
     id="rect4" /><path
     class="st1"
     d="m 31.1,29 h -8.9 c -0.4,0 -0.8,-0.3 -0.8,-0.8 V 8.7 c 0,-0.4 0.3,-0.8 0.8,-0.8 h 8.9 c 0.4,0 0.8,0.3 0.8,0.8 v 19.5 c 0,0.5 -0.4,0.8 -0.8,0.8 z"
     id="path6" /><path
     class="st2"
     d="M 3.2,4.4 C 3.2,5 3.7,5.5 4.3,5.5 H 8 C 8.6,5.5 9.1,5 9.1,4.4 V 4.3 h 0.6 v 0.1 c 0,0.6 0.5,1.1 1.1,1.1 h 1.6 C 13,5.5 13.5,5 13.5,4.4 V 4.3 h 0.4 v 0.3 c 0,0.5 0.4,0.9 0.9,0.9 h 2.3 C 17.6,5.5 18,5.1 18,4.6 V 4.3 3.8 2.4 H 4.3 c -2.2,0 -4,1.8 -4,4 v 24.2 c 0,2.2 1.8,4 4,4 H 18 V 33 32.7 32.5 c 0,-0.4 -0.4,-0.8 -0.8,-0.8 h -2.3 c -0.4,0 -0.8,0.4 -0.8,0.8 v 0.2 h -0.8 v -0.1 c 0,-0.4 -0.3,-0.7 -0.7,-0.7 h -3 C 9.3,32 9,32.3 9,32.6 v 0.1 H 8.6 C 8.5,32.4 8.3,32.2 8,32.2 H 6.4 c -0.3,0 -0.5,0.2 -0.6,0.5 H 5.3 V 32.6 C 5.3,32.2 5,31.9 4.6,31.9 H 3.8 c -0.4,0 -0.7,0.3 -0.7,0.7 l -0.5,0.1 v -1 0 c 0.5,0 1,-0.4 1,-1 v -1 c 0,-0.5 -0.4,-1 -1,-1 v 0 -0.7 c 0.5,-0.1 0.8,-0.5 0.8,-1 v -0.4 c 0,-0.5 -0.4,-0.9 -0.8,-1 v -0.2 c 0.5,-0.1 0.9,-0.5 0.9,-1 v -3.8 c 0,-0.5 -0.4,-0.9 -0.9,-1 V 19.4 C 3,19.3 3.4,19 3.4,18.5 v -2 C 3.4,16 3,15.6 2.5,15.6 V 14.9 C 3,14.8 3.3,14.5 3.3,14 V 11.6 C 3.3,11.1 2.9,10.7 2.5,10.7 V 10.6 C 3,10.5 3.3,10.1 3.3,9.6 V 6.2 C 3.3,5.7 2.9,5.3 2.5,5.2 V 4.3 Z"
     id="path8"
     style="fill:#273839;fill-opacity:1" /><path
     class="st2"
     d="M 34.5,4.3 V 5.1 C 34,5.2 33.6,5.7 33.6,6.2 v 2.6 c 0,0.6 0.4,1 0.9,1.1 v 0.4 c -0.5,0 -1,0.4 -1,1 v 2.3 c 0,0.5 0.4,1 1,1 v 0.7 c 0,0 0,0 0,0 -0.5,0 -0.9,0.4 -0.9,0.9 V 18 c 0,0.5 0.4,0.9 0.9,0.9 0,0 0,0 0,0 v 0.4 c -0.5,0.1 -1,0.5 -1,1.1 v 3.3 c 0,0.6 0.4,1 1,1.1 v 0.4 h -0.1 c -0.5,0 -0.9,0.4 -0.9,0.9 v 0.6 c 0,0.5 0.4,0.9 0.9,0.9 h 0.1 v 0.9 C 34,28.6 33.6,29 33.6,29.6 v 0.8 c 0,0.5 0.4,1 0.9,1.1 v 1 L 34,32.4 C 33.9,32.1 33.8,32 33.5,32 h -1.1 c -0.3,0 -0.5,0.2 -0.6,0.5 H 31 C 30.9,32.2 30.7,32 30.3,32 h -1 c -0.3,0 -0.6,0.2 -0.7,0.5 H 27.4 C 27.3,32.2 27.1,32 26.8,32 H 24 c -0.3,0 -0.5,0.2 -0.6,0.5 h -0.8 v -0.1 c 0,-0.4 -0.3,-0.7 -0.7,-0.7 h -1.4 c -0.4,0 -0.7,0.3 -0.7,0.7 v 0.1 0.5 1.5 h 12.9 c 2.2,0 4,-1.8 4,-4 V 6.4 c 0,-2.2 -1.8,-4 -4,-4 h -13 v 1.5 0.4 0.3 c 0,0.5 0.4,0.9 0.9,0.9 h 1.8 c 0.5,0 0.9,-0.4 0.9,-0.9 V 4.3 h 0.5 v 0.2 c 0,0.6 0.5,1 1,1 h 1.5 c 0.6,0 1,-0.5 1,-1 V 4.3 h 0.4 v 0.3 c 0,0.5 0.4,0.8 0.8,0.8 H 33 c 0.5,0 0.8,-0.4 0.8,-0.8 z"
     id="path10"
     style="fill:#273839;fill-opacity:1" /><path
     class="st2"
     d="M 18.1,28 H 5.2 C 5,28 4.8,27.8 4.8,27.6 V 26 c 0,-0.2 0.2,-0.4 0.4,-0.4 h 12.9 c 0.2,0 0.4,0.2 0.4,0.4 v 1.6 c 0,0.3 -0.2,0.4 -0.4,0.4 z"
     id="path12"
     style="fill:#273839;fill-opacity:1" /><path
     class="st3"
     d="M 17,23.3 H 9.5 C 9.3,23.3 9.1,23.1 9.1,22.9 V 17.2 C 9.1,17 9.3,16.8 9.5,16.8 H 17 Z"
     id="path14" /><rect
     x="14.9"
     y="16.799999"
     class="st4"
     width="0.69999999"
     height="6.5"
     id="rect16" /><rect
     x="12.7"
     y="16.799999"
     class="st4"
     width="0.69999999"
     height="6.5"
     id="rect18" /><rect
     x="10.5"
     y="16.799999"
     class="st4"
     width="0.69999999"
     height="6.5"
     id="rect20" /><path
     class="st2"
     d="m 8.5,22.9 v -5.7 c 0,-0.6 0.5,-1 1,-1 h 8.6 V 15.6 H 5.5 v 9.5 H 18.1 V 23.9 H 9.5 c -0.6,0 -1,-0.5 -1,-1 z"
     id="path22"
     style="fill:#273839;fill-opacity:1" /><polygon
     class="st5"
     points="7.9,9 7.3,9 7.3,9.6 7.3,10.4 7.9,10.4 7.9,9.6 9.1,9.6 9.1,10.4 9.7,10.4 9.7,9.6 11.4,9.6 11.4,10.4 12.6,10.4 12.6,9.6 15.6,9.6 15.6,10.4 16.2,10.4 16.2,9.6 16.2,9 15.6,9 12.6,9 11.4,9 9.7,9 9.1,9 "
     id="polygon24" /><path
     class="st0"
     d="M 18,29.2 H 5.2 c -0.9,0 -1.6,-0.7 -1.6,-1.6 v -1.4 c 0,-0.6 0.3,-1.1 0.8,-1.4 V 16.2 H 3.7 v -2.9 c 0,-0.8 0.5,-1.4 1.2,-1.7 V 10.9 C 4.9,10.1 5.4,9.5 6.1,9.3 V 7.9 h 11.3 v 1.4 c 0.3,0.1 0.5,0.2 0.7,0.4 V 3.9 H 1.9 v 29 H 18 v -3.7 c 0,0 0,0 0,0 z"
     id="path26" /><path
     class="st2"
     d="M 18,12.6 H 17.9 17.5 6.1 5.5 v 0 c -0.4,0 -0.6,0.3 -0.6,0.6 V 15 h 13.7 v -1.7 c 0,-0.4 -0.3,-0.7 -0.6,-0.7 z"
     id="path28"
     style="fill:#273839;fill-opacity:1" /><path
     class="st6"
     d="m 17.4,10.8 c 0,-0.3 -0.2,-0.5 -0.5,-0.5 H 6.5 C 6.2,10.3 6,10.5 6,10.8 v 1.8 h 11.4 z"
     id="path30"
     style="fill:#4b5354;fill-opacity:1" /></g>
</svg>
