<?xml version="1.0" encoding="UTF-8" standalone="no"?>
<svg
   xmlns:dc="http://purl.org/dc/elements/1.1/"
   xmlns:cc="http://creativecommons.org/ns#"
   xmlns:rdf="http://www.w3.org/1999/02/22-rdf-syntax-ns#"
   xmlns:svg="http://www.w3.org/2000/svg"
   xmlns="http://www.w3.org/2000/svg"
   xmlns:sodipodi="http://sodipodi.sourceforge.net/DTD/sodipodi-0.dtd"
   xmlns:inkscape="http://www.inkscape.org/namespaces/inkscape"
   width="315.819"
   height="128"
   viewBox="0 0 83.560441 33.866667"
   version="1.1"
   id="svg8"
   inkscape:version="1.0.1 (3bc2e813f5, 2020-09-07)"
   sodipodi:docname="VK-47 Flatline.svg">
  <defs
     id="defs2" />
  <sodipodi:namedview
     id="base"
     pagecolor="#ffffff"
     bordercolor="#666666"
     borderopacity="1.0"
     inkscape:pageopacity="0.0"
     inkscape:pageshadow="2"
     inkscape:zoom="0.7"
     inkscape:cx="203.46719"
     inkscape:cy="84.802954"
     inkscape:document-units="mm"
     inkscape:current-layer="layer1"
     inkscape:document-rotation="0"
     showgrid="false"
     units="px"
     inkscape:window-width="1366"
     inkscape:window-height="705"
     inkscape:window-x="-8"
     inkscape:window-y="-8"
     inkscape:window-maximized="1" />
  <metadata
     id="metadata5">
    <rdf:RDF>
      <cc:Work
         rdf:about="">
        <dc:format>image/svg+xml</dc:format>
        <dc:type
           rdf:resource="http://purl.org/dc/dcmitype/StillImage" />
        <dc:title></dc:title>
      </cc:Work>
    </rdf:RDF>
  </metadata>
  <g
     inkscape:label="Layer 1"
     inkscape:groupmode="layer"
     id="layer1">
    <path
       style="fill:#273839;stroke-width:0.169458;fill-opacity:1"
       d="M 60.516736,29.066633 C 59.781994,28.172864 58.853023,27.0604 58.452351,26.594491 57.869509,25.916757 57.763543,25.699562 57.922361,25.5082 c 0.271752,-0.327444 0.594767,-0.299907 0.955327,0.08144 0.166739,0.176345 0.455669,0.348701 0.642071,0.38301 0.210299,0.03871 0.360438,0.222495 0.395632,0.484298 0.03119,0.232052 0.126512,0.494356 0.211823,0.582897 0.0853,0.08854 0.155109,0.359026 0.155109,0.601076 0,0.28599 0.224594,0.659404 0.641406,1.066411 0.529996,0.517525 0.758117,0.624039 1.313297,0.613192 0.369539,-0.0072 0.925478,0.04094 1.23541,0.107013 l 0.563522,0.12014 -0.554396,0.571994 c -0.400139,0.412837 -0.703894,0.571993 -1.091666,0.571993 -0.473159,0 -0.696658,-0.193895 -1.87316,-1.625034 z m 1.780454,-0.02368 c -1.118032,-0.08945 -1.705449,-0.737847 -1.930139,-2.130511 -0.156627,-0.970786 -0.204752,-1.05439 -0.635468,-1.103949 -0.607526,-0.0699 -0.590963,-0.296706 0.04573,-0.625941 1.023024,-0.529024 2.25595,-2.676232 2.869445,-4.99728 0.209398,-0.792216 0.481872,-1.554777 0.605495,-1.694579 0.123622,-0.139803 0.249463,-0.559211 0.279649,-0.932018 l 0.0549,-0.677832 2.864854,-0.052 2.86486,-0.052 -0.105384,1.96649 c -0.08905,1.661652 -0.164249,2.049151 -0.485101,2.49974 -0.294856,0.414101 -0.371363,0.732621 -0.342367,1.425521 0.03271,0.781961 -0.04945,1.034514 -0.664737,2.042896 -0.91231,1.495207 -1.520735,2.287627 -2.672487,3.480673 -1.004078,1.040082 -0.876557,1.000616 -2.749203,0.850793 z m 1.967391,-0.808429 c 0,-0.282167 -0.127689,-0.346308 -0.762562,-0.383064 -0.881323,-0.05102 -1.282281,0.142455 -1.128066,0.54434 0.08495,0.221369 0.294744,0.269442 0.99908,0.228926 0.761479,-0.04381 0.891548,-0.100731 0.891548,-0.390202 z m -1.525124,0.08473 c -0.06334,-0.102494 0.171037,-0.169459 0.59311,-0.169459 0.422067,0 0.656443,0.06696 0.593104,0.169459 -0.05759,0.0932 -0.324505,0.169457 -0.593104,0.169457 -0.268605,0 -0.535506,-0.07626 -0.59311,-0.169457 z m -0.85088,-1.349852 c 0.149037,-0.24115 -0.556232,-1.530934 -0.837138,-1.530934 -0.132411,0 -0.282864,0.06816 -0.334345,0.151457 -0.09497,0.153659 0.276242,1.183231 0.510543,1.416029 0.179391,0.178235 0.540541,0.158262 0.66094,-0.03655 z m -0.551735,-0.214488 c -0.09899,-0.119276 -0.23251,-0.426142 -0.296707,-0.681926 -0.174343,-0.694645 0.196341,-0.575072 0.43214,0.139395 0.214798,0.650854 0.154604,0.892004 -0.135433,0.542531 z m 4.537593,-0.350535 c 0,-0.387049 -0.3891,-0.626995 -1.01675,-0.626995 -0.627644,0 -1.016744,0.239946 -1.016744,0.626995 0,0.156277 0.295461,0.220295 1.016744,0.220295 0.721277,0 1.01675,-0.06402 1.01675,-0.220295 z m -1.694583,-0.11862 c 0,-0.0932 0.30052,-0.169459 0.667829,-0.169459 0.367303,0 0.714956,0.07626 0.77256,0.169459 0.06399,0.103506 -0.195937,0.169457 -0.667828,0.169457 -0.424908,0 -0.772561,-0.07626 -0.772561,-0.169457 z m -0.77579,-0.789184 c 0.06398,-0.166664 -0.07068,-0.550447 -0.331202,-0.944125 -0.347121,-0.524537 -0.487356,-0.623146 -0.670281,-0.471329 -0.180587,0.149872 -0.191488,0.3105 -0.04969,0.732301 0.320935,0.9549 0.821985,1.280516 1.051212,0.683153 z m -0.753526,-0.492781 c -0.205733,-0.541126 -0.209201,-0.751529 -0.01238,-0.751529 0.08408,0 0.236595,0.240148 0.338911,0.533661 0.227212,0.651766 0.227224,0.652545 0.01244,0.652545 -0.09552,0 -0.248022,-0.195604 -0.338917,-0.434677 z m 3.857457,-0.620082 c 0.291035,-0.273415 0.383185,-0.548844 0.383185,-1.145344 0,-0.841426 -0.163962,-1.136994 -0.874284,-1.576029 -0.335706,-0.207491 -0.670197,-0.252528 -1.311463,-0.176578 -0.714376,0.08461 -0.914966,0.187464 -1.17908,0.604593 -0.440844,0.69627 -0.193928,1.638979 0.615421,2.349593 0.529532,0.464937 0.677618,0.512493 1.290599,0.414472 0.380841,-0.0609 0.864866,-0.272718 1.075622,-0.470707 z m -2.186782,-0.13063 C 64.026175,24.026317 63.830375,23.67449 63.75678,23.23892 c -0.180222,-1.066713 -0.02183,-1.312683 0.929426,-1.443516 1.072667,-0.14753 1.866056,0.258259 1.866056,0.954417 0,0.251887 0.03678,0.559534 0.08173,0.683659 0.04497,0.124127 -0.05472,0.402536 -0.2214,0.61869 -0.431557,0.559526 -1.492241,0.661422 -2.091378,0.200912 z m 3.507424,-3.12714 c 0.575074,-0.240282 0.765253,-0.641453 0.40857,-0.861891 -0.422689,-0.261236 -1.843787,0.543864 -1.61459,0.914721 0.159245,0.257653 0.498496,0.242794 1.20602,-0.05283 z m -0.937457,-0.06199 c 0,-0.222678 1.162301,-0.715528 1.27135,-0.539086 0.05388,0.08719 -0.181304,0.275219 -0.522649,0.417843 -0.719094,0.300456 -0.748701,0.30525 -0.748701,0.121243 z M 65.670149,20.6646 c 0.05681,-0.294974 -1.267175,-1.210324 -1.522445,-1.052559 -0.321084,0.198442 -0.104242,0.767978 0.413426,1.085879 0.627668,0.385446 1.030701,0.373337 1.109019,-0.03333 z m -1.174977,-0.295281 c -0.220024,-0.178381 -0.353185,-0.371402 -0.295909,-0.428935 0.121433,-0.121978 1.164136,0.438113 1.16572,0.626171 0.0018,0.235709 -0.46694,0.129376 -0.869811,-0.197236 z m 1.379263,-2.034261 c 0,-0.385515 -1.078761,-1.108058 -1.444695,-0.967637 -0.418898,0.160744 -0.28017,0.60142 0.300854,0.955674 0.705144,0.429938 1.143841,0.434526 1.143841,0.01197 z m -1.059118,-0.196852 c -0.163101,-0.095 -0.296549,-0.279774 -0.296549,-0.41061 0,-0.192899 0.09594,-0.183295 0.507305,0.05078 0.27901,0.158768 0.507783,0.345862 0.508375,0.415763 0.0012,0.177976 -0.366693,0.149335 -0.719131,-0.05594 z m 3.099362,0.179587 c 0.724817,-0.369775 0.803752,-0.52278 0.429805,-0.833129 -0.189377,-0.157171 -0.389841,-0.124445 -0.93202,0.152153 -0.64492,0.329014 -0.844559,0.643577 -0.577772,0.910364 0.176891,0.176889 0.359745,0.13805 1.079987,-0.229388 z m -1.023501,-0.07693 c 0,-0.110943 0.95908,-0.597454 1.177789,-0.597454 0.330197,0 0.180885,0.283144 -0.253739,0.481173 -0.439935,0.200447 -0.92405,0.261367 -0.92405,0.116281 z m -12.836436,5.729719 c -0.116501,-0.04701 -0.211822,-0.168433 -0.211822,-0.26983 0,-0.101397 -0.103917,-0.304746 -0.230926,-0.451888 -0.127005,-0.147142 -0.277413,-0.514366 -0.334236,-0.816055 -0.09788,-0.519703 -0.05232,-0.581154 0.866388,-1.169573 1.593684,-1.020679 1.959585,-1.129791 2.46238,-0.73429 0.795978,0.626117 1.273769,0.43295 2.251012,-0.910065 l 0.746949,-1.026535 v -1.973325 c 0,-2.57193 0.04022,-2.531914 -2.55521,-2.541013 -1.805154,-0.0063 -1.904344,-0.02365 -1.473672,-0.257366 0.25396,-0.13782 0.542601,-0.401663 0.641425,-0.586318 0.159682,-0.298373 0.358177,-0.335736 1.783571,-0.335736 h 1.603886 v 0.577869 c 0,0.505203 0.160317,0.721348 1.274877,1.718879 0.701189,0.627555 1.323941,1.091947 1.383908,1.031981 0.05995,-0.05997 0.07725,-0.131875 0.03845,-0.159798 -0.03881,-0.02793 -0.585342,-0.494772 -1.214451,-1.037442 -1.033943,-0.891872 -1.143841,-1.047817 -1.143841,-1.623061 0,-0.985329 -0.209844,-1.06388 -2.580355,-0.96593 -3.008504,0.124312 -7.508059,0.572723 -7.91103,0.788386 -0.190387,0.101892 -0.426842,0.336021 -0.525456,0.520289 -0.09862,0.184268 -0.273231,0.335032 -0.388035,0.335032 -0.128376,0 -0.21573,0.267019 -0.226919,0.693608 -0.01057,0.402564 -0.159099,0.88253 -0.354002,1.143842 -0.347672,0.466124 -0.893001,0.696915 -0.893001,0.377929 0,-0.100036 0.114381,-0.181884 0.254183,-0.181884 0.184264,0 0.25419,-0.189524 0.25419,-0.688972 0,-1.14006 -0.201914,-1.344523 -1.327734,-1.344523 -0.537291,0 -1.068402,0.09151 -1.180247,0.20335 -0.273251,0.273254 -0.273251,2.878663 0,3.151917 0.283523,0.28352 1.813506,0.253976 2.680031,-0.05175 0.542101,-0.191264 0.780664,-0.207274 0.953322,-0.06398 0.389355,0.323137 0.264239,0.465328 -0.64776,0.736162 -0.885765,0.263044 -4.395366,0.372409 -4.962842,0.15465 -0.235226,-0.09027 -0.273834,-0.400075 -0.258686,-2.075859 0.0098,-1.083367 0.01358,-2.141334 0.0085,-2.351039 -0.0081,-0.330295 -0.100009,-0.38128 -0.687199,-0.38128 -0.468831,0 -0.67783,-0.07333 -0.67783,-0.237832 0,-0.244227 0.59389,-0.355912 2.891874,-0.543834 0.884855,-0.07236 1.1579,-0.03636 1.33405,0.175883 0.16111,0.194124 0.530104,0.266867 1.353692,0.266867 1.056598,0 1.167316,-0.03678 1.657751,-0.550738 0.289044,-0.302906 0.666813,-0.855763 0.839478,-1.22857 l 0.313939,-0.677832 9.276508,-0.04381 c 5.822006,-0.0275 9.276514,-0.104757 9.276514,-0.207471 0,-0.6231088 -3.271511,-0.9770684 -3.992238,-0.4319387 -0.276899,0.2094337 -1.461493,0.2496507 -7.487099,0.2541867 -6.971632,0.0053 -7.163677,0.01422 -7.369819,0.344305 -0.197765,0.316676 -0.417485,0.341429 -3.348229,0.377212 l -3.136572,0.0383 3.092604,0.05025 c 1.860575,0.03023 3.09261,0.116047 3.09261,0.215402 0,0.09083 -0.275768,0.470391 -0.612822,0.843467 -0.592077,0.655358 -0.649105,0.67832 -1.684579,0.67832 -0.60561,0 -1.12256,-0.08221 -1.188567,-0.189006 -0.07928,-0.128268 -0.797713,-0.169111 -2.235608,-0.127094 l -2.118794,0.06191 -0.06366,-0.677832 C 41.315061,11.280833 41.158902,10.993832 40.708369,10.592946 39.96484,9.9313523 39.914416,9.5654958 40.616814,9.9287212 41.303623,10.283883 41.7371,10.252878 42.140642,9.8197238 42.46235,9.4744142 42.672841,9.4474311 45.621133,9.3735561 L 48.75921,9.2949252 V 8.6976892 8.1004531 l 9.001631,0.120822 c 8.046075,0.1079963 9.048191,0.1513003 9.440209,0.4079359 0.421021,0.2756182 0.303648,0.2889569 -2.931356,0.3331609 -2.130792,0.029116 -3.4336,-0.017617 -3.543075,-0.1270931 -0.183675,-0.1836767 -10.054866,-0.2497437 -10.718183,-0.071735 -0.198341,0.053227 -0.446177,0.2845425 -0.550734,0.514033 -0.249253,0.5470456 -0.244199,0.5707678 0.121593,0.5707678 0.171448,0 0.398578,-0.1906408 0.504743,-0.4236457 l 0.193025,-0.423645 h 5.172101 c 3.335092,0 5.172097,0.060185 5.172097,0.1694582 0,0.1077051 1.324616,0.1694577 3.634924,0.1694577 2.807208,0 3.665778,0.050345 3.770438,0.2211162 0.07453,0.1216131 0.421475,0.3947299 0.770982,0.606924 0.349507,0.212194 0.635471,0.493972 0.635471,0.626174 0,0.132201 0.146269,0.240365 0.325049,0.240365 0.69682,0 0.861153,0.182795 0.861153,0.957892 v 0.752173 l -1.143846,-0.05011 c -1.099577,-0.04817 -1.145862,-0.06766 -1.19626,-0.503715 -0.0905,-0.783046 -0.292674,-0.828782 -3.44375,-0.77905 l -2.943227,0.04645 v 0.593102 0.593103 l 1.94877,0.08473 c 1.071819,0.0466 2.044078,0.146421 2.160578,0.221823 0.138058,0.08935 0.211826,0.574178 0.211826,1.392066 0,1.067321 0.04897,1.281201 0.327782,1.430392 0.450208,0.240948 2.10039,0.221332 2.349656,-0.02793 0.365205,-0.365203 0.24355,-1.265551 -0.220299,-1.630413 -0.535129,-0.420938 -0.590544,-1.21648 -0.08473,-1.21648 0.22595,0 0.338922,0.112971 0.338922,0.338916 0,0.218947 0.112973,0.338915 0.319147,0.338915 0.176641,0 0.358728,-0.15134 0.407781,-0.338915 0.05988,-0.22902 0.231147,-0.338916 0.528139,-0.338916 h 0.43951 v 1.948766 c 0,1.583792 -0.04575,1.948766 -0.244189,1.948766 -0.134296,0 -0.291316,-0.07626 -0.348915,-0.169458 -0.0618,-0.09995 -1.160668,-0.174946 -2.678969,-0.182836 -1.415824,-0.0074 -2.478906,-0.05184 -2.362405,-0.09885 0.231523,-0.09342 0.295185,-0.565603 0.07626,-0.565603 -0.07456,0 -0.225274,0.08971 -0.334916,0.199346 -0.152822,0.152822 -0.27901,0.127251 -0.540684,-0.109565 -0.321826,-0.291247 -0.324475,-0.321718 -0.04634,-0.532872 0.272366,-0.206797 0.265746,-0.224374 -0.08631,-0.229351 -0.331023,-0.0047 -0.381278,0.08155 -0.381278,0.654312 0,0.430078 -0.08847,0.693653 -0.254181,0.757242 -0.179338,0.06882 -0.254194,0.348599 -0.254194,0.950149 0,0.839023 -0.0083,0.852609 -0.521166,0.852609 -0.510121,0 -0.520197,-0.01586 -0.475198,-0.74759 0.04347,-0.707552 -0.203639,-1.285905 -0.549499,-1.285905 -0.0818,0 -0.148714,0.618299 -0.148714,1.373998 v 1.373998 l -1.626895,2.311712 c -0.894795,1.27144 -1.748191,2.407031 -1.896428,2.523533 -0.265552,0.2087 -3.419942,0.289451 -3.890457,0.09959 z m 1.650302,-0.986156 c 0.37073,-0.599848 0.341544,-0.989775 -0.06245,-0.834742 -0.335875,0.128888 -0.982463,1.069504 -0.865398,1.258925 0.200909,0.325081 0.568713,0.156937 0.927863,-0.424183 z m 2.398833,-0.214055 c 0.30325,-0.481108 0.313497,-0.562581 0.08193,-0.651443 -0.284421,-0.109145 -1.10838,0.691361 -1.117833,1.086015 -0.0099,0.415133 0.683747,0.124125 1.035904,-0.434572 z m 1.723571,-2.520638 c -0.129593,-0.337712 -0.377333,-0.288435 -0.740896,0.147368 -0.333584,0.399867 -0.416947,0.8303 -0.202377,1.044875 0.182963,0.182965 1.050308,-0.913309 0.943273,-1.192243 z m 0.878515,-2.069706 c 0,-0.992044 -0.327787,-0.965592 -0.391277,0.03157 -0.03939,0.618888 0.0026,0.804083 0.169456,0.748439 0.135466,-0.04515 0.221821,-0.348812 0.221821,-0.780014 z m 0.198322,-2.160579 c 0.06033,-0.157204 -0.04714,-0.418384 -0.2595,-0.630761 l -0.362462,-0.362461 v 0.630761 c 0,0.453448 0.07294,0.63076 0.2595,0.63076 0.142729,0 0.305838,-0.120735 0.362462,-0.268299 z m 3.614483,-2.029385 c 0,-0.358917 -0.06861,-0.5607 -0.169452,-0.498373 -0.09321,0.0576 -0.169464,0.328999 -0.169464,0.603104 0,0.274105 0.07626,0.498373 0.169464,0.498373 0.0932,0 0.169452,-0.271397 0.169452,-0.603104 z m 0.508375,0.01 c 0,-0.326207 -0.07625,-0.593103 -0.169458,-0.593103 -0.0932,0 -0.169458,0.266896 -0.169458,0.593103 0,0.326207 0.07626,0.593102 0.169458,0.593102 0.0932,0 0.169458,-0.266895 0.169458,-0.593102 z M 52.69908,12.101614 c 1.001917,-0.322695 1.821669,-0.656668 1.821669,-0.742164 0,-0.227835 -0.370147,-0.191568 -2.658221,0.260452 -2.080473,0.411005 -2.764426,0.644995 -2.764426,0.94574 0,0.34043 1.839048,0.103446 3.600978,-0.464028 z m 17.11525,0.176365 c -0.116506,-0.04701 -0.211825,-0.185343 -0.211825,-0.307408 0,-0.253596 -0.462402,-0.476066 -0.693124,-0.333473 -0.08479,0.0524 -0.154168,0.243292 -0.154168,0.424194 0,0.269486 0.114814,0.326498 0.635472,0.315537 0.349501,-0.0074 0.540146,-0.05184 0.423645,-0.09885 z M 51.809427,11.119273 c 0,-0.192052 -0.207116,-0.254187 -0.847291,-0.254187 -0.640177,0 -0.847286,0.06213 -0.847286,0.254187 0,0.192053 0.207109,0.254187 0.847286,0.254187 0.640175,0 0.847291,-0.06213 0.847291,-0.254187 z m 1.038518,10.224096 c -0.111487,-0.178526 -0.150217,-0.40953 -0.08606,-0.513341 0.0664,-0.107431 0.04035,-0.141591 -0.06046,-0.07929 -0.09741,0.0602 -0.301591,-0.08053 -0.453735,-0.312734 -0.275333,-0.420209 -0.274026,-0.422201 0.278015,-0.424784 0.305057,-0.0013 0.660716,-0.06977 0.79036,-0.151862 0.142627,-0.09032 -0.193908,-0.114781 -0.852146,-0.06195 -0.855182,0.06865 -1.134722,0.03086 -1.306926,-0.176627 -0.189617,-0.228475 -0.126185,-0.291777 0.471963,-0.470985 0.852134,-0.255308 0.789291,-0.412651 -0.07005,-0.175375 -0.533141,0.147207 -0.592506,0.136946 -0.418785,-0.07238 0.143645,-0.173085 0.147193,-0.243899 0.01224,-0.243899 -0.104614,0 -0.190207,-0.108938 -0.190207,-0.242083 0,-0.416723 -0.509207,-0.774665 -1.102039,-0.774665 -0.428969,0 -0.652019,-0.115939 -0.904083,-0.469936 -0.295955,-0.415632 -0.307778,-0.518437 -0.102276,-0.889654 0.127793,-0.230845 0.235053,-0.852744 0.238357,-1.381997 0.0094,-1.5015 0.05873,-1.526355 3.649352,-1.837905 1.11842,-0.09704 2.327155,-0.223048 2.686082,-0.280011 0.576187,-0.09144 0.645626,-0.066 0.593101,0.217378 -0.03548,0.191292 -0.416927,0.492091 -0.944291,0.744593 -0.486643,0.233004 -1.006891,0.546272 -1.156107,0.696149 -0.237961,0.239016 -0.352552,0.244511 -0.932472,0.04471 -0.556364,-0.191683 -0.802888,-0.1906 -1.555217,0.0068 -0.619054,0.16246 -0.806911,0.269998 -0.610741,0.349616 0.155821,0.06325 0.436769,0.03287 0.624325,-0.06752 0.904652,-0.484154 2.574031,0.08673 2.315601,0.791877 -0.04272,0.116503 0.02107,0.211823 0.141698,0.211823 0.120632,0 0.395503,0.187528 0.61083,0.41673 l 0.3915,0.41673 -0.658513,-0.09185 c -0.494789,-0.06901 -0.595308,-0.04688 -0.404323,0.08905 0.139802,0.09949 0.46121,0.182064 0.714234,0.183491 0.463906,0.0026 0.923124,0.531194 0.731232,0.841678 -0.05246,0.08484 -0.01781,0.202144 0.07689,0.260685 0.273046,0.168752 0.200327,0.424267 -0.124329,0.436823 -0.236506,0.0091 -0.21954,0.04862 0.0838,0.194939 0.217126,0.104735 0.450744,0.438415 0.544387,0.777553 0.181939,0.658923 0.11419,0.880076 -0.2696,0.880076 -0.141281,0 -0.772574,0.333605 -1.402874,0.741345 -1.090355,0.705344 -1.155843,0.725583 -1.348714,0.416751 z m 1.511335,-1.830991 c -0.09763,-0.06034 -0.286431,-0.257711 -0.419566,-0.438603 -0.228545,-0.310551 -0.248592,-0.312003 -0.35943,-0.02603 -0.168085,0.433686 0.397116,1.038599 0.720022,0.77061 0.154911,-0.128564 0.175252,-0.23411 0.05898,-0.305975 z m -0.346905,-1.365852 c -0.326204,-0.07701 -0.859996,-0.07686 -1.1862,3.22e-4 -0.495392,0.11722 -0.397675,0.140288 0.593101,0.140017 0.990518,-2.71e-4 1.088363,-0.02342 0.593099,-0.140341 z m -1.115268,-0.762918 c 0.534242,-0.06675 0.907307,-0.185409 0.829029,-0.263689 -0.151667,-0.151663 -2.020433,0.223025 -2.221073,0.445325 -0.0656,0.07269 0.0019,0.08886 0.150702,0.03595 0.148493,-0.05292 0.707099,-0.15083 1.241342,-0.217579 z m -2.612801,-0.92641 c 0,-0.0932 -0.08076,-0.169457 -0.17946,-0.169457 -0.0987,0 -0.132328,0.07625 -0.07473,0.169457 0.05758,0.0932 0.138361,0.169458 0.17946,0.169458 0.04112,0 0.07473,-0.07626 0.07473,-0.169458 z m -0.04592,-0.949671 c -0.05629,-0.05631 -0.202465,-0.06233 -0.324795,-0.01338 -0.135178,0.0541 -0.09503,0.09425 0.102385,0.102382 0.178634,0.0074 0.278721,-0.0327 0.22241,-0.089 z m -0.542722,-0.881639 c -0.0522,-0.05217 -0.188913,-1.07e-4 -0.303859,0.115703 -0.166112,0.16736 -0.146648,0.186824 0.09486,0.09486 0.167124,-0.06364 0.261171,-0.158391 0.208998,-0.210565 z m 23.736264,4.845744 c -0.139678,-0.21331 -0.491715,-0.912352 -0.78232,-1.553428 -0.469655,-1.036088 -0.505373,-1.221073 -0.321515,-1.664958 l 0.206845,-0.499367 0.3938,0.478753 c 0.312664,0.380115 0.425684,0.430566 0.548541,0.244872 0.152117,-0.229936 -0.37589,-1.37597 -0.633952,-1.37597 -0.06315,0 -0.08511,-0.311635 -0.0488,-0.692522 0.0872,-0.914412 0.20944,-0.774888 1.466151,1.673497 0.889126,1.732235 1.072494,1.98454 1.442279,1.98454 h 0.423645 l 0.04808,-1.927377 c 0.03815,-1.528884 -0.0071,-2.01162 -0.218871,-2.334833 -0.321425,-0.490556 -0.205834,-0.7368 0.345866,-0.7368 0.285749,0 0.49077,0.157562 0.679232,0.522008 0.224049,0.43326 0.249948,0.858207 0.152356,2.499505 -0.06468,1.087623 -0.193528,2.072816 -0.286336,2.189319 -0.09406,0.118063 -0.539033,0.211822 -1.005298,0.211822 -0.51454,0 -0.796229,0.06523 -0.731807,0.169459 0.05759,0.0932 0.273921,0.169457 0.480712,0.169457 0.358476,0 0.959677,0.51844 0.959677,0.827568 0,0.08022 -0.644483,0.158557 -1.432191,0.174076 -1.32127,0.02603 -1.451859,-0.0019 -1.686139,-0.359621 z m 1.307079,-0.704626 c 0.117081,-0.305106 -0.515,-1.336691 -0.767465,-1.252537 -0.326568,0.108859 -0.317311,0.355928 0.03504,0.93386 0.359978,0.590492 0.589767,0.690468 0.732435,0.318677 z m 2.150161,0.541956 c 0,-0.295568 0.113158,-0.662434 0.251461,-0.815258 0.188163,-0.207914 0.255999,-0.755188 0.26946,-2.173933 0.01728,-1.820435 0.03259,-1.896543 0.384005,-1.907979 0.315984,-0.01028 0.324894,-0.02816 0.06516,-0.130819 -0.404749,-0.159976 -0.84341,-0.998569 -0.573992,-1.097309 0.351067,-0.128661 -0.943658,-0.274084 -2.895591,-0.325236 l -1.906403,-0.04996 v 1.375659 c 0,1.151729 -0.06302,1.469388 -0.387108,1.951458 -0.212902,0.316689 -0.556758,0.600258 -0.764129,0.630154 -0.376835,0.05433 -0.377021,0.05298 -0.364535,-2.680804 0.0086,-1.865532 -0.05089,-2.811576 -0.186979,-2.975501 -0.302702,-0.364739 0.170923,-0.474445 1.498735,-0.347151 0.743098,0.07124 1.589098,0.02115 2.445915,-0.144825 1.462359,-0.283272 4.254277,-0.226305 4.641062,0.0947 0.230268,0.191106 0.336675,1.169675 0.127181,1.169675 -0.0589,0 -0.344861,-0.146109 -0.635472,-0.324688 -0.290605,-0.178578 -0.8334,-0.369448 -1.206204,-0.424154 l -0.677833,-0.09947 0.783557,0.29706 c 0.786823,0.298304 2.257734,1.357074 1.588852,1.143672 -0.545229,-0.173953 -1.858174,-0.400583 -1.926261,-0.332496 -0.03439,0.03437 0.156206,0.109612 0.423514,0.167201 1.156631,0.249191 1.672415,0.518955 1.727831,0.90368 0.05448,0.378615 0.04539,0.380896 -0.466014,0.116437 -0.286891,-0.148359 -0.521626,-0.231616 -0.521626,-0.185015 0,0.0466 0.228767,0.20303 0.508375,0.347619 0.600997,0.310791 0.663314,0.709145 0.127091,0.812427 l -0.381284,0.07344 0.381284,0.02308 c 0.30864,0.01868 0.381284,0.123386 0.381284,0.549581 0,0.400746 -0.06072,0.501935 -0.254194,0.423644 -0.661872,-0.267835 -0.85043,-0.2999 -0.515885,-0.08773 0.328894,0.208587 0.328894,0.211225 0,0.348928 -0.324954,0.136051 -0.32481,0.138425 0.0075,0.122021 0.645099,-0.03184 0.762568,0.0238 0.762568,0.361212 0,0.207843 -0.114694,0.34091 -0.296555,0.34407 -0.280338,0.0048 -0.280517,0.0145 -0.003,0.176088 0.221352,0.128984 0.288638,0.379973 0.27416,1.022706 l -0.01919,0.851773 -0.697806,-0.08531 -0.697806,-0.08531 0.635459,0.188811 c 0.568982,0.169056 0.635472,0.247738 0.635472,0.752027 l -6e-6,0.563217 h -1.270937 -1.270937 z m -4.66009,-7.25767 c -0.751864,-0.191318 -1.134996,-0.191318 -1.01675,0 0.05759,0.0932 0.424322,0.160435 0.814928,0.149408 0.670825,-0.01894 0.682014,-0.02722 0.201822,-0.149408 z m 3.010207,0.05016 c -0.208423,-0.04022 -0.589701,-0.04127 -0.847285,-0.0023 -0.257596,0.03895 -0.08706,0.07186 0.378946,0.07313 0.466007,0.0013 0.676757,-0.03059 0.468339,-0.07082 z m -0.468339,-0.812976 c -0.368774,-0.12669 -2.859538,-0.197691 -2.541868,-0.07246 0.186399,0.07349 0.872706,0.13295 1.525118,0.132142 0.652419,-8.37e-4 1.109953,-0.02767 1.01675,-0.05968 z m 5.004156,3.940141 c -0.0042,-3.983777 0.03217,-4.702458 0.23904,-4.702458 0.134297,0 0.286766,0.06889 0.338803,0.15309 0.14768,0.238956 -0.246443,8.694527 -0.419005,8.989299 -0.09463,0.161662 -0.155657,-1.544187 -0.158838,-4.439931 z m -63.890783,1.223254 c 0,-2.018561 0.05443,-2.736776 0.211823,-2.794988 0.116502,-0.04309 1.260343,-0.103556 2.541868,-0.134373 2.162767,-0.05201 2.330047,-0.03383 2.330047,0.253119 0,0.256973 -0.139499,0.30915 -0.826541,0.30915 -0.527972,0 -0.902743,0.09182 -1.037496,0.254186 -0.121743,0.146692 -0.491358,0.254187 -0.874001,0.254187 -0.364674,0 -0.851001,0.123154 -1.080727,0.273677 -0.405158,0.265469 -0.417683,0.33407 -0.417683,2.287682 v 2.014006 h -0.423644 -0.423646 z m 1.186206,0.790598 c 0,-1.86699 0.01416,-1.941784 0.417683,-2.206182 0.229725,-0.150522 0.682761,-0.273676 1.006747,-0.273676 0.323985,0 0.636192,-0.07626 0.693794,-0.169459 0.0576,-0.0932 0.481511,-0.169457 0.94202,-0.169457 h 0.837288 v 1.016747 c 0,0.559212 -0.0427,1.016748 -0.0949,1.016748 -0.05219,0 -0.451364,-0.272185 -0.887049,-0.604855 -0.784528,-0.599031 -0.794824,-0.601561 -1.069284,-0.262617 -0.15242,0.188232 -0.370855,0.944748 -0.485411,1.681147 -0.243473,1.56511 -0.280797,1.63977 -0.894883,1.79006 l -0.46601,0.114049 z m -8.6132103,0.61129 C 8.0716205,17.312101 7.9805682,16.842675 8.1741452,16.39386 8.2702505,16.171038 8.2274799,16.029534 8.0307311,15.91943 7.7892976,15.784317 7.7523503,15.428368 7.7646641,13.356173 7.7725276,12.032679 7.8331715,10.516498 7.899427,9.9868846 8.0066477,9.1298006 8.1008328,8.9521188 8.7562312,8.3705034 9.4358959,7.7673538 9.4749045,7.6887643 9.2630201,7.3494835 9.058891,7.0226215 9.078294,6.9341923 9.4382017,6.5510882 9.826047,6.1382452 9.9212595,6.1207641 11.7198,6.1321774 c 2.115803,0.013424 2.385236,0.083863 2.385236,0.6235567 0,0.2097042 0.07626,0.3622164 0.169459,0.338916 0.0932,-0.0233 0.166452,-0.213941 0.162778,-0.4236446 -0.0066,-0.3749784 0.02757,-0.3812806 2.065397,-0.3812806 h 2.072079 l -0.0319,0.4475021 c -0.01755,0.246126 0.06342,0.4812492 0.179919,0.5224953 0.139873,0.049519 0.211822,-0.1024815 0.211822,-0.4475019 V 6.2897249 h 2.088876 2.088874 l -0.07461,0.5083738 c -0.04479,0.3051619 8.37e-4,0.5083738 0.114077,0.5083738 0.103781,0 0.188692,-0.2287679 0.188692,-0.5083738 V 6.2897249 h 2.19249 2.192494 l -0.0319,0.4144429 c -0.01755,0.2279436 0.04438,0.39952 0.13756,0.38128 0.0932,-0.01824 0.166453,-0.2047387 0.162776,-0.4144423 -0.0066,-0.3752563 0.02651,-0.3812806 2.093988,-0.3812806 1.797641,0 2.086603,0.036667 2.00313,0.2541869 -0.115765,0.3016835 0.03465,0.7625607 0.248868,0.7625607 0.08323,0 0.151331,-0.2287679 0.151331,-0.5083738 V 6.2897249 h 2.965514 2.965515 v 0.4766698 c 0,0.3010521 -0.175111,0.6444324 -0.475287,0.9320181 -0.427386,0.4094656 -0.602414,0.4558923 -1.736944,0.4607384 -1.550881,0.00662 -1.854759,0.1962063 -1.854759,1.1571336 0,0.6353107 -0.03996,0.7015142 -0.423646,0.7015142 -0.393051,0 -0.423646,-0.058746 -0.423646,-0.813398 0,-0.4473691 -0.09151,-0.9049053 -0.203349,-1.0167478 C 33.177018,8.060038 32.541075,7.9843038 31.597091,7.9843038 h -1.504184 l 0.04874,-0.6752467 c 0.02684,-0.3713864 -0.02453,-0.6573464 -0.11413,-0.6354672 -0.08959,0.021879 -0.162891,0.3258389 -0.162891,0.6754661 V 7.9847428 H 27.746403 25.628177 V 7.349056 c 0,-0.3496272 -0.07626,-0.6356865 -0.169458,-0.6356865 -0.0932,0 -0.166344,0.3050243 -0.162535,0.6778322 0.0064,0.6293098 -0.07426,0.7475808 -1.127125,1.6522145 l -1.134046,0.9743828 h -1.344137 c -0.739276,0 -1.386284,-0.04214 -1.437796,-0.093657 -0.05151,-0.051511 0.249894,-0.418256 0.669789,-0.8149868 0.703599,-0.6647808 0.741937,-0.7428369 0.489059,-0.9957141 -0.165642,-0.1656431 -0.274386,-0.556043 -0.274386,-0.9850718 0,-0.6318406 -0.03004,-0.6857555 -0.270761,-0.4859746 -0.190101,0.1577697 -0.243508,0.3926477 -0.179278,0.7884473 l 0.09148,0.5637355 -2.06604,-0.047504 -2.06604,-0.047504 -0.08473,-0.7483841 C 16.487013,6.4873219 16.451138,6.4347399 16.244523,6.6855976 16.09897,6.862317 16.049709,7.1589242 16.113193,7.476346 c 0.08361,0.4180641 0.04604,0.5079527 -0.212339,0.5079527 -0.472115,0 -0.666994,0.3423717 -0.72587,1.2752371 l -0.0532,0.8429882 -2.813034,0.04634 -2.813034,0.04634 -0.1948442,0.427636 c -0.2044747,0.448774 -0.2316157,2.339885 -0.046039,3.207745 0.076585,0.358151 0.2083653,0.508374 0.4459597,0.508374 0.4888265,0 0.5716645,-0.755146 0.096471,-0.879413 -0.2378096,-0.06219 -0.352321,-0.229296 -0.352321,-0.514144 0,-0.335452 0.060825,-0.396971 0.2965507,-0.299927 0.1631035,0.06715 0.4247248,0.159076 0.5813818,0.204287 0.38133,0.110052 0.516688,0.505969 0.212844,0.622565 -0.179239,0.06878 -0.243487,0.403052 -0.243487,1.266828 0,0.939 -0.05644,1.195051 -0.282523,1.281808 -0.215332,0.08263 -0.235483,0.155456 -0.084729,0.306209 0.307603,0.307603 0.23408,0.941944 -0.17299,1.492537 -0.4629713,0.626202 -0.8654798,0.636783 -1.2946767,0.03402 z m 1.2809175,-1.10147 c -0.1003486,-0.261371 -1.3443331,-0.276927 -1.430678,-0.01789 -0.034558,0.10368 0.1425159,0.432559 0.3935041,0.73084 l 0.4563395,0.54233 0.3307988,-0.522461 C 9.6701362,17.197759 9.7826521,16.86799 9.7382322,16.752293 Z M 8.7671116,13.915333 c 0,-0.405371 -0.072961,-0.508375 -0.3600974,-0.508375 -0.3129333,0 -0.3462257,-0.06936 -0.2541874,-0.529556 0.05825,-0.291255 0.1059112,-0.672536 0.1059112,-0.847289 0,-0.174754 0.076256,-0.317734 0.1694582,-0.317734 0.093201,0 0.1706256,0.209704 0.172053,0.46601 0.00144,0.256305 0.076515,0.580393 0.1668624,0.720196 0.1189915,0.184125 0.1649835,0.03548 0.1668636,-0.539319 0.00209,-0.644787 -0.06064,-0.813576 -0.3348048,-0.900592 -0.1855699,-0.0589 -0.414338,-0.05954 -0.5083736,-0.0014 -0.1948483,0.120422 -0.2211587,1.027893 -0.063215,2.180238 0.084376,0.615596 0.1763142,0.786217 0.4236451,0.786217 0.2380082,0 0.315882,-0.125328 0.315882,-0.508373 z M 14.443953,8.4079489 V 7.5606594 h -0.762561 -0.762561 l -0.05366,0.6532874 c -0.08274,1.0074479 0.03147,1.1531659 0.857031,1.0934758 l 0.721746,-0.052187 z m -1.373619,0.5226883 c -0.05063,-0.1319296 -0.0673,-0.4560178 -0.03705,-0.7201959 0.04783,-0.4176496 0.126865,-0.4803243 0.60574,-0.4803243 0.302907,0 0.550739,0.057192 0.550739,0.1270937 0,0.069901 0,0.3939896 0,0.7201959 0,0.547396 -0.03959,0.5931033 -0.513692,0.5931033 -0.286667,0 -0.554373,-0.1060109 -0.60574,-0.2398727 z m -0.744606,-1.723015 c 0,-0.5454699 -0.06306,-0.7559767 -0.211822,-0.7071279 -0.231529,0.076025 -0.376592,0.8613473 -0.229778,1.243938 0.194364,0.5065037 0.4416,0.2059625 0.4416,-0.5368101 z m 22.368446,0 c 0,-0.5454699 -0.06302,-0.7559767 -0.211823,-0.7071279 -0.231524,0.076025 -0.376591,0.8613473 -0.229775,1.243938 0.194363,0.5065037 0.441598,0.2059625 0.441598,-0.5368101 z m 5.515268,10.9017938 c -0.203074,-0.649709 -0.259423,-1.482757 -0.100291,-1.482757 0.09742,0 0.177134,0.116778 0.177134,0.259505 0,0.354808 0.457003,0.502463 0.764723,0.247078 0.138611,-0.11504 0.247196,-0.371404 0.241285,-0.569696 -0.01057,-0.353921 -0.01358,-0.353541 -0.164,0.02075 -0.420622,1.046455 -0.989303,0.0096 -1.124628,-2.050502 l -0.107413,-1.635208 h 0.618663 c 0.539398,0 0.618662,0.0519 0.618662,0.40514 0,0.222827 -0.150837,0.737555 -0.335196,1.14384 -0.370288,0.816051 -0.445615,1.756534 -0.155058,1.936106 0.130412,0.0806 0.152131,-0.04546 0.07126,-0.413643 -0.1058,-0.481697 -0.07843,-0.529574 0.302667,-0.529574 0.530464,0 0.624696,0.257703 0.624696,1.708439 v 1.172346 h -0.683152 c -0.398238,0 -0.710762,-0.08834 -0.749357,-0.211822 z m 1.8844,0.09885 c -0.06213,-0.06213 -0.112973,-0.69506 -0.112973,-1.4065 0,-1.376665 -0.149101,-1.700229 -0.783469,-1.700229 -0.362013,0 -0.366836,-0.01991 -0.123149,-0.508373 0.217248,-0.435494 0.348998,-0.508374 0.919024,-0.508374 h 0.665424 v 2.118224 c 0,1.652216 -0.0497,2.118225 -0.225946,2.118225 -0.12427,0 -0.276779,-0.05084 -0.338911,-0.112973 z M 36.496517,17.46802 c 0.105869,-0.105957 0.563403,-0.374351 1.016747,-0.596434 1.156415,-0.566504 0.671028,-0.512411 -0.843385,0.09399 -1.036903,0.415198 -1.512894,0.507851 -2.597038,0.505519 l -1.327434,-0.0029 0.554097,-0.354829 c 0.619194,-0.396514 1.353744,-0.599822 3.343437,-0.925395 l 1.355665,-0.221827 -1.355665,0.0862 c -0.87505,0.05564 -1.908116,0.272784 -2.913982,0.612509 l -1.558324,0.526314 -1.407191,-0.369292 C 29.51808,16.495052 28.888536,16.45054 25.28926,16.434822 c -2.240964,-0.0098 -3.838737,-0.07584 -3.558616,-0.147119 l 0.508373,-0.129359 -0.466009,-0.02005 c -0.335891,-0.01446 -0.466009,-0.108955 -0.466009,-0.338421 0,-0.736405 1.673023,-0.894369 5.67684,-0.535997 1.945636,0.17415 3.058607,0.185758 4.74482,0.04949 l 2.202957,-0.178027 -2.287685,0.08524 c -1.529342,0.05699 -3.214536,-0.0104 -5.083738,-0.203288 -2.529295,-0.261005 -4.284056,-0.251443 -5.010449,0.0273 -0.160844,0.06172 -0.242745,-0.02125 -0.242745,-0.245906 0,-0.304794 0.152585,-0.351133 1.509976,-0.458566 0.830483,-0.06573 1.76462,-0.07051 2.075859,-0.01062 0.480426,0.09245 0.517165,0.07871 0.24327,-0.09094 -0.220043,-0.136299 -0.880044,-0.171384 -2.075859,-0.110354 -1.706886,0.08711 -1.753251,0.07988 -1.753458,-0.273545 -1.69e-4,-0.359731 0.02785,-0.362548 3.092607,-0.310391 1.70105,0.02895 3.165263,0.124269 3.253801,0.211822 0.215301,0.212894 1.909314,0.204374 2.041969,-0.01027 0.05758,-0.0932 0.762557,-0.169458 1.566566,-0.169458 1.190347,0 1.526806,0.05886 1.811675,0.316924 0.38963,0.352975 2.298605,0.653936 2.298605,0.362388 0,-0.09402 -0.362219,-0.183142 -0.804931,-0.198058 -0.618682,-0.02084 -0.677497,-0.04293 -0.254184,-0.09547 0.302905,-0.03759 0.550741,-0.13977 0.550741,-0.227066 0,-0.08737 0.71433,-0.158722 1.589098,-0.158722 1.174086,0 1.641828,0.06353 1.790987,0.243261 0.167388,0.201685 0.105768,0.255141 -0.360527,0.312773 -0.475704,0.05879 -0.457905,0.06752 0.115412,0.05661 l 0.677831,-0.0129 v 1.691256 1.691256 l -1.186204,0.051 c -0.885925,0.03809 -1.137483,0.0022 -0.993716,-0.141652 z M 24.90798,15.951141 c 0.994587,-0.0016 1.482758,-0.06584 1.482758,-0.195276 0,-0.245534 -2.773894,-0.09791 -3.38916,0.180371 l -0.423645,0.191609 0.423645,-0.08719 c 0.233004,-0.04796 1.090886,-0.08824 1.906402,-0.08951 z m 6.181438,0.04347 c -0.351587,-0.03669 -0.885381,-0.03606 -1.18621,0.0013 -0.300829,0.03743 -0.01319,0.06745 0.639248,0.0667 0.652415,-7.77e-4 0.898542,-0.03138 0.546962,-0.06806 z m 3.350572,-0.215246 c 0.483658,-0.12307 0.475422,-0.129519 -0.169462,-0.13265 -0.372805,-0.0018 -1.097235,0.05469 -1.609849,0.12555 l -0.93202,0.12884 1.101482,0.0038 c 0.605808,0.0021 1.330239,-0.0544 1.609849,-0.125549 z M 36.0922,15.66714 c -0.116501,-0.04701 -0.307138,-0.04701 -0.423639,0 -0.116502,0.04701 -0.0212,0.08547 0.211822,0.08547 0.233004,0 0.328325,-0.03846 0.211817,-0.08547 z m 1.694584,-0.176821 c -0.209703,-0.04039 -0.552855,-0.04039 -0.762564,0 -0.209703,0.04039 -0.03811,0.07344 0.381285,0.07344 0.419406,0 0.590982,-0.03305 0.381279,-0.07344 z m -2.033495,-0.511367 c -0.302905,-0.03759 -0.798572,-0.03759 -1.101476,0 -0.302911,0.03759 -0.05508,0.06835 0.550735,0.06835 0.605815,0 0.853645,-0.03075 0.550741,-0.06835 z m 1.355659,0.01036 c -0.116502,-0.04701 -0.307138,-0.04701 -0.42364,0 -0.116501,0.04701 -0.0212,0.08547 0.211823,0.08547 0.233003,0 0.328325,-0.03846 0.211817,-0.08547 z m 2.16059,1.064996 c 0,-1.205804 -0.06129,-1.639984 -0.254184,-1.800057 -0.367764,-0.305215 -0.312024,-0.949664 0.116681,-1.349063 0.31216,-0.290822 0.325571,-0.345517 0.08473,-0.345517 -0.231197,0 -0.286137,-0.166178 -0.286137,-0.86542 0,-0.699641 0.04868,-0.846734 0.254184,-0.767879 0.139802,0.05365 0.25419,0.02882 0.25419,-0.05518 0,-0.335018 -0.921016,-0.378682 -5.510906,-0.261268 -3.437465,0.08793 -4.816027,0.06953 -4.89943,-0.06542 -0.08397,-0.13587 1.339033,-0.187786 5.147138,-0.187786 3.395822,0 5.263198,-0.06012 5.263198,-0.169458 0,-0.104937 -0.907188,-0.169458 -2.382641,-0.169458 h -2.382642 l 0.05258,-0.635468 0.05258,-0.6354673 1.431138,-0.049753 c 1.230159,-0.042762 1.497882,-4.066e-4 1.906407,0.3016247 l 0.475262,0.3513775 V 8.4924353 c 0,-0.5443188 0.07739,-0.8774492 0.211822,-0.9117852 0.116502,-0.029756 0.593102,-0.1877812 1.059109,-0.3511653 1.361686,-0.4774109 1.560635,-0.5154472 1.313298,-0.2510883 -0.116502,0.1245216 -0.211817,0.3128273 -0.211817,0.4184556 0,0.2197779 0.206494,0.2548452 1.587491,0.2695928 0.830531,0.00887 1.008306,0.063854 1.078873,0.3336979 0.05848,0.2235667 0.234989,0.3230794 0.5731,0.3230794 0.612482,0 0.624004,-0.2524515 0.06213,-1.3612967 l -0.426496,-0.8416563 -1.734094,0.035463 -1.734089,0.035469 1.62125,0.055023 1.62125,0.055023 0.369884,0.761331 c 0.203434,0.4187322 0.369879,0.8355471 0.369879,0.9262555 0,0.3068649 -0.46821,0.1673599 -0.555237,-0.165435 -0.07226,-0.2763495 -0.262212,-0.3386827 -1.161895,-0.3812781 -0.921061,-0.04361 -1.084208,-0.099592 -1.136028,-0.3898363 -0.103065,-0.5772 -0.265283,-0.6050727 -1.363345,-0.2342509 -1.102167,0.3722071 -1.529656,0.2870354 -1.318692,-0.262732 0.08819,-0.2298241 0.559497,-0.3605378 1.014795,-0.2814467 0.07683,0.013347 0.0914,-0.053877 0.03234,-0.1493905 -0.07137,-0.1154827 0.704966,-0.1735983 2.317454,-0.1734844 l 2.424778,1.698e-4 0.476562,0.8485016 0.476562,0.8485013 -0.361009,0.5069899 c -0.272584,0.3828113 -0.494289,0.5069922 -0.905164,0.5069922 -0.349755,0 -0.631421,0.1210768 -0.788426,0.3389154 -0.335607,0.4656299 -1.18621,0.4656299 -1.18621,0 0,-0.1864029 -0.07626,-0.3389154 -0.169456,-0.3389154 -0.0932,0 -0.169456,0.1525125 -0.169456,0.3389154 0,0.1864041 -0.07626,0.3389165 -0.169462,0.3389165 -0.0932,0 -0.169456,-0.1525124 -0.169456,-0.3389165 0,-0.1864029 -0.07625,-0.3389154 -0.169456,-0.3389154 -0.09321,0 -0.169462,0.1906403 -0.169462,0.4236445 0,0.3711942 -0.07343,0.4236451 -0.593101,0.4236451 -0.591622,0 -0.593153,-0.00197 -0.614244,-0.804925 l -0.02113,-0.804925 -0.134864,0.9311845 c -0.07417,0.5121517 -0.189689,2.7045153 -0.256694,4.8719163 -0.06701,2.167403 -0.187447,3.940732 -0.26764,3.940732 -0.08019,0 -0.14581,-0.715097 -0.14581,-1.589102 z m 27.565154,-0.726823 c -0.06213,-0.06213 -0.112972,-0.615711 -0.112972,-1.230172 0,-1.495792 -0.159388,-1.596144 -2.711326,-1.707098 -1.581605,-0.06877 -1.948764,-0.132619 -1.948764,-0.338916 0,-0.213993 0.449425,-0.261537 2.84216,-0.300666 2.470408,-0.0404 2.855693,-0.0112 2.945643,0.223213 0.05693,0.14833 0.0171,0.356073 -0.08847,0.46165 -0.266225,0.266229 -0.239776,0.463092 0.06225,0.463092 0.181878,0 0.254193,0.185369 0.254193,0.651568 0,0.436358 0.111938,0.752875 0.338917,0.958283 0.186405,0.168693 0.33891,0.447408 0.33891,0.619367 0,0.264815 -0.138279,0.312652 -0.903771,0.312652 -0.497079,0 -0.954619,-0.05083 -1.01675,-0.112973 z M 5.5746121,12.97534 C 5.3277176,12.433467 5.3239189,11.7485 5.5639864,11.059835 5.742291,10.54835 5.7888154,10.526174 6.683593,10.526174 c 0.7816745,0 0.9168356,0.04361 0.8307126,0.268046 -0.05657,0.147425 -0.102859,0.795602 -0.102859,1.440392 v 1.172346 H 6.5913577 c -0.7143569,0 -0.845444,-0.05565 -1.0167476,-0.431618 z m 5.3157519,0.108545 c -0.0564,-0.17769 -0.404687,-0.443969 -0.77398,-0.59173 -0.8755308,-0.350318 -0.8497879,-0.683633 0.08023,-1.038809 0.413417,-0.157886 0.794322,-0.39822 0.846454,-0.534074 0.122985,-0.320493 0.644927,-0.157887 1.228139,0.382615 0.24361,0.225771 0.508049,0.410492 0.587641,0.410492 0.07959,0 0.144714,0.173299 0.144714,0.38511 0,0.276663 -0.178946,0.472829 -0.635468,0.696619 -0.349507,0.17133 -0.76788,0.379311 -0.929719,0.46218 -0.401827,0.205754 -0.430889,0.196611 -0.54801,-0.172403 z m 1.524554,0.160833 c -0.05515,-0.08923 0.130991,-0.281831 0.413644,-0.427997 0.736026,-0.380614 0.702314,-1.004613 -0.07919,-1.46571 -1.056217,-0.623184 -0.73249,-0.876447 1.270934,-0.994296 l 1.440392,-0.08473 0.08473,-0.9320184 0.08473,-0.9320187 1.60985,-0.043253 1.609851,-0.043253 -0.877056,0.8481746 c -0.48238,0.466497 -0.79465,0.8481755 -0.693932,0.8481755 0.100718,0 0.05796,0.138303 -0.09501,0.307339 -0.373173,0.41235 -0.07553,0.706718 0.72551,0.717524 l 0.601576,0.0081 -1.270935,1.177863 -1.270934,1.177864 -1.726943,2.2e-4 c -0.949819,1.32e-4 -1.772064,-0.07278 -1.827213,-0.162008 z m 5.502922,-1.21348 c 1.11204,-1.041406 1.331844,-1.178112 1.758126,-1.09345 0.267955,0.05321 0.873206,0.09676 1.345003,0.09676 h 0.857812 l -0.455349,0.475282 c -0.326264,0.340548 -0.455349,0.652799 -0.455349,1.101477 v 0.626195 l -2.160589,-0.008 -2.160588,-0.008 z m 3.389159,0.585511 c 0,-0.454585 0.127637,-0.764863 0.455348,-1.10692 0.407862,-0.425714 0.562497,-0.472774 1.482757,-0.451235 0.827475,0.01937 0.911991,0.0441 0.434306,0.127094 -0.880095,0.152909 -1.355664,0.530311 -1.355664,1.075828 v 0.467611 h 1.270935 1.270935 v -0.750135 c 0,-0.571921 -0.07045,-0.768547 -0.296552,-0.827632 -0.163103,-0.04263 0.156496,-0.08634 0.71022,-0.09716 0.862573,-0.01685 0.963818,0.01175 0.706858,0.199646 -0.210658,0.154037 -0.283337,0.393586 -0.24421,0.804925 l 0.0557,0.585623 1.059112,0.05045 c 0.761993,0.0363 1.059114,0.115913 1.059114,0.283795 0,0.189553 -0.620123,0.236759 -3.304431,0.251543 l -3.304429,0.0182 z m 6.920462,-0.353631 c -0.07467,-1.267118 -6.58e-4,-1.736944 0.27352,-1.736944 0.299682,0 0.369615,0.391839 0.294872,1.652215 -0.04349,0.733562 -0.131687,1.059112 -0.286892,1.059112 -0.153169,0 -0.242252,-0.30836 -0.2815,-0.974383 z m 0.874601,-0.127094 c 0,-0.605812 0.05719,-1.107747 0.127095,-1.115412 0.0699,-0.0077 0.355859,-0.05196 0.635469,-0.09844 0.279604,-0.04648 1.061228,-0.0337 1.736945,0.02839 l 1.22857,0.112903 v 1.087018 1.087019 h -1.86404 -1.864039 z m 2.541869,-0.254187 v -0.677831 h -1.186203 -1.186203 v 0.564859 c 0,0.310673 0.05085,0.615697 0.112972,0.677832 0.06213,0.06213 0.595926,0.112972 1.186204,0.112972 h 1.07323 z m -2.14167,0.254187 c -0.213079,-0.555269 0.06824,-0.762561 1.034879,-0.762561 0.92851,0 0.937336,0.0048 0.937336,0.508374 0,0.503588 -0.0088,0.508374 -0.937336,0.508374 -0.676869,0 -0.964447,-0.07064 -1.034879,-0.254187 z m 3.666791,-0.08473 V 10.86509 h 0.593103 c 0.519671,0 0.593107,0.05245 0.593107,0.423644 0,0.310674 0.09038,0.423645 0.338912,0.423645 0.188286,0 0.338918,-0.112971 0.338918,-0.254187 0,-0.139802 -0.07625,-0.254186 -0.169456,-0.254186 -0.09321,0 -0.169462,-0.07626 -0.169462,-0.169459 0,-0.0932 0.259756,-0.169457 0.577237,-0.169457 0.49381,0 0.564434,0.04898 0.488615,0.338916 -0.06692,0.255886 -0.0051,0.338915 0.251917,0.338915 0.187306,0 0.384443,-0.114383 0.438095,-0.254187 0.05367,-0.139803 0.243104,-0.254187 0.42102,-0.254187 0.177923,0 0.41842,0.114384 0.534447,0.254187 0.286041,0.344663 0.451769,0.319475 0.557473,-0.08473 0.04874,-0.186404 0.210151,-0.338916 0.358676,-0.338916 0.214366,0 0.270055,0.192195 0.270055,0.932018 v 0.932019 l -0.550742,0.0054 c -0.302904,0.0029 -0.69876,0.117348 -0.879673,0.254187 -0.242118,0.183124 -0.812425,0.248797 -2.160591,0.248797 H 33.169052 Z M 3.6410092,12.851791 C 3.3847043,12.748342 3.175,12.603506 3.175,12.529932 c 0,-0.268098 1.4751915,-1.664842 1.7583463,-1.664842 0.2497632,0 0.2841244,0.151085 0.2408709,1.059111 -0.049796,1.045352 -0.057053,1.059481 -0.5588243,1.087396 -0.279606,0.01556 -0.7180781,-0.05635 -0.9743837,-0.159806 z M 22.603774,12.311716 c -0.140239,-0.365454 0.685566,-0.938253 1.352676,-0.938253 0.538742,0 0.570249,0.03277 0.570249,0.593103 v 0.593103 h -0.913888 c -0.645809,0 -0.9418,-0.07273 -1.009037,-0.247953 z m 3.364506,0.08042 c -0.0648,-0.104852 -0.07106,-0.376948 -0.01391,-0.604655 0.09427,-0.375583 0.189493,-0.414014 1.025878,-0.414014 0.919203,0 0.921862,0.0016 0.886425,0.508037 -0.03254,0.465551 -0.08753,0.508066 -0.65715,0.508374 -0.341883,1.86e-4 -0.734517,0.04366 -0.872513,0.09662 -0.137996,0.05295 -0.303924,0.01049 -0.368727,-0.09436 z m 14.045691,-0.10051 c 0.05655,-0.147425 0.102859,-0.505829 0.102859,-0.796452 0,-0.644916 0.244135,-0.448177 0.479822,0.386667 l 0.167444,0.593103 0.01531,-0.52763 c 0.01038,-0.358012 -0.128332,-0.67125 -0.431466,-0.974384 -0.506088,-0.506085 -0.347584,-0.594032 0.246651,-0.136858 0.25788,0.198396 0.425786,0.546698 0.488327,1.012979 l 0.09531,0.710622 h -0.633541 c -0.508092,0 -0.613181,-0.05308 -0.530688,-0.268047 z M 9.4449441,11.273961 c 0,-0.581123 0.3437196,-0.917246 0.9379809,-0.917246 0.322927,0 0.587141,0.06444 0.587141,0.143194 0,0.200885 -0.507649,0.602147 -1.0591129,0.837155 -0.3929317,0.167449 -0.466009,0.157553 -0.466009,-0.06311 z m 9.8285589,-0.698549 c -0.139802,-0.0514 -0.380164,-0.202954 -0.534138,-0.336778 -0.153972,-0.133823 -0.38274,-0.229222 -0.508373,-0.211997 -0.821675,0.112658 -0.894279,-0.0081 -0.30675,-0.5103247 0.670541,-0.5731496 0.840888,-0.6241079 0.840888,-0.2515449 0,0.1494603 0.348735,0.4247777 0.804925,0.6354674 0.740492,0.3419942 1.113529,0.3760602 4.660093,0.4255722 2.232329,0.03117 3.855166,0.120331 3.855166,0.211822 0,0.167533 -8.361432,0.203384 -8.811811,0.03778 z m 5.083738,-1.2199672 c 0.636903,-0.5658709 0.949772,-0.7509798 0.988086,-0.5846018 0.04428,0.1922901 0.347077,0.2331723 1.440395,0.1944758 1.755537,-0.062132 1.748512,-0.3554515 -0.01159,-0.4839302 -0.789736,-0.057646 0.225222,-0.108437 2.539756,-0.1270937 l 3.855167,-0.031077 v 0.9320187 0.9320194 l -4.871915,-0.0019 -4.871914,-0.0019 0.932018,-0.828075 z m 5.317812,-0.0889 C 29.919117,8.9465569 30.11881,8.6415326 30.11881,8.588714 c 0,-0.05282 -0.266897,-0.096037 -0.593102,-0.096037 -0.578979,0 -0.593102,0.01614 -0.593102,0.6778324 0,0.372807 0.06721,0.6778319 0.149345,0.6778319 0.08214,0 0.349038,-0.2618088 0.593102,-0.5817965 z m 1.629967,-0.180764 c 0,-0.7173524 -0.135537,-0.7392024 -0.730861,-0.1178213 -0.592845,0.6188014 -0.574996,0.7109241 0.137753,0.7109241 0.564863,0 0.593108,-0.028243 0.593108,-0.5931028 z M 45.466914,8.3352382 45.907526,7.6694253 45.332031,6.683024 44.756536,5.6966219 43.810035,5.6463257 C 43.037576,5.6052777 42.847625,5.5351714 42.776981,5.265045 42.660063,4.8179355 41.977961,4.8238368 41.860512,5.272975 41.784242,5.564616 41.6269,5.6126429 40.732534,5.6172806 c -0.643994,0.00333 -1.164472,0.1000288 -1.368289,0.2541869 -0.2776,0.2099656 -1.487609,0.2487973 -7.752702,0.2487973 H 24.187784 V 5.6825674 5.2448677 l 2.45284,0.046594 c 1.349068,0.025625 2.498048,0.00141 2.553301,-0.053857 0.05527,-0.055247 0.367406,-0.026746 0.693687,0.063343 0.43123,0.1190692 0.662536,0.1062829 0.847017,-0.046825 0.199436,-0.1655156 0.374035,-0.1671392 0.815287,-0.00758 0.403721,0.145987 0.692094,0.1533953 1.026208,0.026362 0.332571,-0.1264437 0.530495,-0.1220705 0.696115,0.015378 0.130682,0.1084561 0.361443,0.1359483 0.530124,0.063157 0.381279,-0.1645306 0.726806,-0.1634277 1.115066,0.00359 0.181138,0.077905 0.47776,0.041599 0.720197,-0.08815 0.340231,-0.1820872 0.486783,-0.1806993 0.83928,0.00795 0.328106,0.1755942 0.473397,0.18223 0.626995,0.028635 C 37.215183,5.192188 37.77717,5.1035456 38.371412,5.1035456 H 39.439 V 4.4596042 c 0,-0.8593551 0.237564,-1.0506394 1.304825,-1.0506394 0.751888,0 0.898126,0.049668 0.898126,0.3050243 0,0.5324632 0.369821,0.7117233 1.468325,0.7117233 0.892266,0 1.090888,0.054696 1.245113,0.3428678 0.157544,0.2943623 0.227784,0.3118516 0.496513,0.1236263 0.20976,-0.1469215 0.63707,-0.1901488 1.295429,-0.1310449 l 0.982418,0.088196 0.636014,1.2709346 c 0.632177,1.2632779 0.743208,1.7699682 0.547699,2.4995041 -0.09678,0.3611055 -0.186448,0.3812799 -1.694674,0.3812799 H 45.026302 Z M 38.038822,8.5858604 C 37.78344,8.3991172 37.775351,8.3390456 37.982461,8.1671493 c 0.194428,-0.1613579 0.264245,-0.1300161 0.356268,0.1599191 0.14711,0.4634945 0.07047,0.5296256 -0.299919,0.258792 z m 4.03888,-4.5959219 c -0.406379,-0.4063769 -0.321395,-0.5807386 0.284446,-0.5835932 0.302904,-0.00141 0.661011,-0.072362 0.795791,-0.157634 0.359144,-0.2272173 0.856425,0.1016248 0.856425,0.5663364 0,0.3366514 -0.06802,0.382381 -0.466013,0.3133152 C 43.292047,4.0838886 42.979139,3.9228838 42.852992,3.7705817 42.64906,3.5243566 42.636244,3.5359228 42.737323,3.8749497 42.874249,4.3342218 42.489122,4.4013598 42.077702,3.9899385 Z"
       id="path957" />
  </g>
</svg>
