<?xml version="1.0" encoding="UTF-8" standalone="no"?>
<svg
   xmlns:dc="http://purl.org/dc/elements/1.1/"
   xmlns:cc="http://creativecommons.org/ns#"
   xmlns:rdf="http://www.w3.org/1999/02/22-rdf-syntax-ns#"
   xmlns:svg="http://www.w3.org/2000/svg"
   xmlns="http://www.w3.org/2000/svg"
   xmlns:sodipodi="http://sodipodi.sourceforge.net/DTD/sodipodi-0.dtd"
   xmlns:inkscape="http://www.inkscape.org/namespaces/inkscape"
   width="345.58301"
   height="128"
   viewBox="0 0 91.435501 33.866667"
   version="1.1"
   id="svg8"
   inkscape:version="1.0.1 (3bc2e813f5, 2020-09-07)"
   sodipodi:docname="Volt SMG.svg">
  <defs
     id="defs2" />
  <sodipodi:namedview
     id="base"
     pagecolor="#ffffff"
     bordercolor="#666666"
     borderopacity="1.0"
     inkscape:pageopacity="0.0"
     inkscape:pageshadow="2"
     inkscape:zoom="0.7"
     inkscape:cx="203.46719"
     inkscape:cy="84.802954"
     inkscape:document-units="mm"
     inkscape:current-layer="layer1"
     inkscape:document-rotation="0"
     showgrid="false"
     units="px"
     inkscape:window-width="1366"
     inkscape:window-height="705"
     inkscape:window-x="-8"
     inkscape:window-y="-8"
     inkscape:window-maximized="1" />
  <metadata
     id="metadata5">
    <rdf:RDF>
      <cc:Work
         rdf:about="">
        <dc:format>image/svg+xml</dc:format>
        <dc:type
           rdf:resource="http://purl.org/dc/dcmitype/StillImage" />
        <dc:title></dc:title>
      </cc:Work>
    </rdf:RDF>
  </metadata>
  <g
     inkscape:label="Layer 1"
     inkscape:groupmode="layer"
     id="layer1">
    <path
       style="fill:#273839;fill-opacity:1;stroke-width:0.139742"
       d="m 49.21618,30.339831 c -3.232551,-0.427312 -3.144203,-0.404102 -3.144203,-0.826058 0,-0.237717 0.07687,-0.346122 0.244549,-0.344873 0.434752,0.0032 6.906985,0.674962 6.95292,0.721614 0.02445,0.02483 0.01123,0.218079 -0.02936,0.42944 -0.06963,0.362445 -0.114603,0.383385 -0.79118,0.368337 -0.394546,-0.0088 -1.849269,-0.165582 -3.232719,-0.34846 z m 1.327553,-1.057618 C 49.275571,29.15339 47.84643,29.007053 47.367862,28.95702 l -0.870121,-0.09097 0.07557,-0.862617 c 0.14544,-1.660225 -0.172294,-1.491458 2.807934,-1.491458 2.546201,0 2.619126,-0.0082 3.218503,-0.359402 l 0.613272,-0.3594 -0.09299,1.442404 c -0.05115,0.793323 -0.132944,1.631057 -0.181769,1.861632 l -0.08877,0.419227 z m 3.326849,-3.224401 c -0.04964,-0.675046 0.04709,-0.935395 0.349635,-0.941122 0.06218,-0.0011 0.06653,0.07314 0.0097,0.165135 -0.05686,0.092 -0.08735,0.469305 -0.06776,0.838455 0.04855,0.914761 -0.223994,0.856366 -0.291551,-0.06246 z M 43.849073,22.478887 c -1.377713,-2.064481 -2.609668,-3.793793 -2.737677,-3.842915 -0.12801,-0.04913 -0.454906,-0.08931 -0.726439,-0.08931 -0.670282,0 -1.773384,-0.626488 -2.186524,-1.241797 -0.384937,-0.573307 -0.590534,-1.273566 -0.373918,-1.273566 0.08211,0 0.142405,-0.384616 0.142405,-0.908325 v -0.908326 h 2.858596 2.858597 l 0.04106,1.013133 0.04106,1.013132 1.607037,0.03791 c 1.308358,0.03087 1.639502,0.08128 1.781716,0.271258 0.126404,0.168863 0.174677,1.021011 0.174677,3.083587 v 2.85024 l 0.501586,0.896918 c 0.712304,1.273721 0.797418,1.314501 2.743582,1.314501 h 1.645815 v -4.319565 c 0,-3.890172 0.02709,-4.406597 0.272502,-5.19511 0.149875,-0.481552 0.240489,-0.927343 0.201366,-0.990647 -0.03912,-0.0633 -2.171999,-0.115099 -4.739723,-0.115099 h -4.668592 l -0.66831,-0.828777 c -0.653189,-0.810024 -0.684121,-0.828884 -1.367022,-0.833503 -0.384292,-0.0026 -0.855923,0.08514 -1.048068,0.194985 -0.234149,0.133852 -0.792449,0.201344 -1.692998,0.204663 -1.184675,0.0044 -1.390762,-0.03211 -1.741913,-0.308327 -0.361368,-0.284253 -0.581635,-0.31802 -2.377351,-0.364453 l -1.979083,-0.05118 -0.558085,0.504196 -0.558084,0.504195 H 28.55231 c -1.508637,0 -2.742975,-0.03113 -2.742975,-0.06918 0,-0.151026 3.108636,-5.1603674 3.52008,-5.6723546 l 0.439482,-0.5468755 h 9.837635 c 9.560766,0 10.378231,0.033142 10.378231,0.4207868 0,0.1430321 1.554058,2.3882975 2.005913,2.8980943 l 0.278683,0.31442 h 7.1025 7.102502 v 1.343851 c 0,1.334719 -0.0021,1.343065 -0.314419,1.228234 -0.17293,-0.06359 -1.980849,-0.136571 -4.017592,-0.162181 l -3.703174,-0.04656 -2.096135,0.861476 c -2.417269,0.993456 -3.000251,1.461787 -3.282089,2.636623 -0.143801,0.599425 -0.13068,0.760703 0.105279,1.294128 0.32437,0.73329 0.97745,1.313753 1.680933,1.494025 0.284721,0.07296 1.547172,0.269888 2.805439,0.437612 1.730406,0.23066 2.368745,0.268055 2.62017,0.153497 0.182828,-0.0833 0.332414,-0.21434 0.332414,-0.291198 0,-0.08744 -0.132689,-0.07929 -0.354501,0.02177 -0.281007,0.128036 -0.895189,0.09164 -2.962625,-0.175557 -2.84149,-0.367239 -3.168766,-0.487696 -3.783926,-1.392705 -0.271122,-0.398871 -0.319638,-0.617264 -0.271198,-1.220795 0.100156,-1.247881 0.503609,-1.598803 3.119003,-2.712897 l 2.226982,-0.948639 3.493557,4.47e-4 c 3.161435,4.06e-4 3.524941,0.02458 3.823678,0.25433 l 0.330122,0.253886 -0.380344,0.299178 c -0.209188,0.164548 -0.735051,0.473369 -1.168576,0.686268 -0.774562,0.380378 -0.846381,0.388653 -4.142048,0.477223 -1.844599,0.04958 -3.863311,0.09674 -4.486028,0.104807 -1.452181,0.01882 -1.982809,0.325917 -2.260213,1.308089 -0.168036,0.594948 -0.15946,0.718644 0.08873,1.279713 0.173988,0.393328 0.432499,0.702681 0.704918,0.843556 0.236594,0.122348 1.515507,0.372527 2.842029,0.555956 2.295584,0.317428 2.428697,0.321905 2.761216,0.09287 0.192144,-0.132348 0.462816,-0.468701 0.601495,-0.747453 0.214739,-0.431635 0.228535,-0.596138 0.09301,-1.10892 -0.08752,-0.331157 -0.342475,-0.890585 -0.566558,-1.243176 -0.224092,-0.352596 -0.407432,-0.674817 -0.407432,-0.716052 0,-0.04123 0.896097,-0.10555 1.991327,-0.142923 2.085171,-0.07115 2.562109,-0.193628 3.703173,-0.95095 0.249788,-0.165785 0.45416,-0.236079 0.45416,-0.156209 0,0.07987 -0.06703,0.186649 -0.148968,0.237288 -0.08194,0.05064 -0.333475,0.346763 -0.558973,0.658055 -0.321137,0.443319 -0.409994,0.714862 -0.409994,1.252916 0,0.377812 0.06789,0.813797 0.150879,0.968855 0.116623,0.217916 0.100763,0.337303 -0.06987,0.525851 -0.121414,0.134159 -0.221135,0.333301 -0.221606,0.442537 -5.28e-4,0.138186 -0.183282,0.203431 -0.60047,0.214456 -0.759214,0.02007 -1.914037,0.518021 -1.914037,0.825328 0,0.125426 0.644562,1.269464 1.432355,2.542306 1.020268,1.648439 1.540949,2.360594 1.809799,2.475309 l 0.377439,0.161048 -0.491887,0.392483 c -0.270534,0.215867 -0.508945,0.370621 -0.529802,0.3439 -0.368059,-0.471609 -3.058227,-5.161629 -3.081429,-5.37215 -0.04569,-0.414672 -0.19571,-0.615487 -0.459758,-0.615487 -0.195715,0 -0.191326,0.02687 0.03095,0.189406 0.399616,0.292206 0.178497,0.571013 -0.713444,0.899582 l -0.815188,0.300294 -2.351655,-0.36375 c -3.241437,-0.501381 -3.032959,-0.649776 -3.032959,2.158837 0,1.557319 -0.05171,2.278356 -0.174675,2.435765 -0.09607,0.122979 -0.714362,0.512302 -1.373974,0.865162 l -1.199297,0.641565 H 49.03129 46.354008 Z m 2.209726,0.06631 c 0.10903,-0.131372 0.148276,-0.839869 0.121919,-2.200942 l -0.03887,-2.007206 -1.781715,-0.03911 c -1.182628,-0.02596 -1.781715,0.01052 -1.781715,0.108498 0,0.197798 2.488674,3.936029 2.768008,4.157819 0.286145,0.227198 0.513037,0.221129 0.712373,-0.01906 z M 52.290512,11.419799 V 10.9307 l -2.150677,0.03494 c -1.182873,0.01922 -2.23169,0.03493 -2.330702,0.03493 -0.399182,0 -0.630312,0.446299 -0.490166,0.946485 0.0059,0.02099 1.126883,0.02099 2.491118,0 l 2.480427,-0.03816 z M 46.898761,8.6093314 C 46.756125,8.4085943 46.455076,8.0470117 46.229763,7.8058131 45.835798,7.3840722 45.776742,7.3672704 44.688359,7.3672704 c -1.322155,0 -1.384,0.092149 -0.700563,1.0438195 l 0.431184,0.6004109 1.36956,-0.018597 1.369561,-0.018596 z M 65.338917,25.788677 65.024282,25.34681 65.644516,24.792813 c 0.637949,-0.56982 2.345303,-1.981812 2.788989,-2.30651 0.223178,-0.163325 0.267375,-0.129282 0.415712,0.320184 0.0913,0.276616 0.133115,0.588612 0.09293,0.693322 -0.09779,0.254823 -2.430287,2.286885 -2.909375,2.534634 -0.360834,0.186592 -0.394473,0.174677 -0.693855,-0.245766 z M 45.33388,25.712741 c -0.326019,-0.04918 -0.638887,-0.434734 -1.939125,-2.389616 -0.852712,-1.282035 -1.616854,-2.393858 -1.698094,-2.470717 -0.202529,-0.191605 0.151324,0.369443 1.669982,2.647824 0.714552,1.072009 1.280917,1.967378 1.25859,1.989704 -0.02233,0.02233 -0.556115,-0.03454 -1.186195,-0.126376 -0.830831,-0.121096 -1.216232,-0.245437 -1.402668,-0.452541 -0.420261,-0.466849 -3.789965,-5.384371 -3.789965,-5.530823 0,-0.07415 -0.05279,-0.134824 -0.117311,-0.134824 -0.151288,0 -0.441659,-0.636195 -0.441659,-0.967662 0,-0.140688 0.08797,-0.328805 0.195483,-0.418035 0.154278,-0.128039 0.382556,-0.04357 1.083003,0.40079 0.701977,0.445319 1.021395,0.563302 1.527888,0.564352 l 0.640367,0.0014 2.224351,3.304195 c 2.217302,3.293722 2.485317,3.701654 2.405973,3.661985 -0.02303,-0.01151 -0.216813,-0.04733 -0.43062,-0.07958 z m -4.383325,-6.121895 c -0.07601,-0.198067 -0.476351,-0.485217 -0.676492,-0.485217 -0.07381,0 0.640877,0.68172 0.727868,0.694296 0.0168,0.0024 -0.0063,-0.09166 -0.05137,-0.209079 z m -1.12939,-0.576879 c -0.09461,-0.03828 -0.283262,-0.04061 -0.419227,-0.0052 -0.135964,0.03543 -0.05856,0.06675 0.172019,0.0696 0.230575,0.0028 0.341819,-0.02614 0.247208,-0.06442 z m 8.805914,5.227194 c -0.07382,-0.09607 -0.364501,-0.560208 -0.645951,-1.031412 L 47.4694,22.353015 v -2.929586 c 0,-3.607941 0.12955,-3.392255 -2.037267,-3.391839 l -1.526163,2.94e-4 0.04686,-0.908619 0.04686,-0.908619 h 4.25022 c 2.337619,0 4.250217,0.05498 4.250217,0.122173 0,0.0672 -0.09433,0.389522 -0.209613,0.716281 -0.169245,0.479692 -0.209614,1.438464 -0.209614,4.978424 v 4.384315 h -1.659798 c -1.16309,0 -1.699965,-0.05227 -1.794021,-0.174678 z m 15.27332,-2.621635 c -0.821284,-1.307398 -1.458429,-2.433425 -1.41587,-2.502283 0.118487,-0.191714 1.32987,-0.570583 1.82436,-0.570583 0.276645,0 0.547966,0.116665 0.731227,0.31442 0.54561,0.588763 2.412442,3.352411 2.412442,3.571368 0,0.34435 -1.347349,1.564164 -1.727704,1.564164 -0.276951,0 -0.575842,-0.389432 -1.824455,-2.377086 z m -29.933287,1.463065 c 0.521101,-1.357969 0.462111,-2.905137 -0.152762,-4.006526 -0.47416,-0.849338 -1.454918,-1.596703 -2.249421,-1.714123 -0.283391,-0.04189 -0.792989,-0.140878 -1.132441,-0.219989 -0.375306,-0.08747 -2.946897,-0.140523 -6.561718,-0.135376 -5.176079,0.0074 -5.988148,0.03704 -6.281929,0.229537 -0.18557,0.121588 -0.367674,0.336843 -0.404677,0.478342 -0.03738,0.142963 -0.246516,0.296637 -0.470691,0.345875 -0.512081,0.112471 -0.544364,0.165699 -0.970339,1.599871 -0.33802,1.138051 -0.373581,1.194125 -0.782847,1.234455 -0.428663,0.04224 -0.428757,0.04209 -0.519283,-0.824019 -0.0498,-0.476445 -0.09054,-1.273486 -0.09054,-1.771202 0,-0.788544 -0.02696,-0.882561 -0.209613,-0.730973 -0.17656,0.146533 -0.209614,0.120321 -0.209614,-0.166223 0,-0.215947 -0.153106,-0.453384 -0.419227,-0.650135 -0.410961,-0.303836 -0.419227,-0.33437 -0.419227,-1.548495 0,-0.972019 -0.04511,-1.255856 -0.209613,-1.318983 -0.138359,-0.05309 -0.209614,-0.271942 -0.209614,-0.643792 V 12.67748 h 0.613889 c 0.41677,0 0.639719,0.06731 0.694327,0.209614 0.06969,0.18161 0.846439,0.209613 5.814259,0.209613 3.856469,0 5.733822,0.04733 5.733822,0.144549 0,0.09565 1.042749,0.139481 3.082692,0.12957 1.904001,-0.0093 3.148079,0.03928 3.253698,0.126944 0.105786,0.08779 0.249157,0.0933 0.37593,0.01443 0.173255,-0.107781 0.176157,-0.173886 0.01877,-0.427709 -0.117201,-0.189019 -0.137117,-0.349257 -0.05377,-0.432605 0.07281,-0.07281 1.022299,-0.131803 2.109977,-0.131096 1.770355,0.0012 2.019879,0.03139 2.381091,0.288599 0.346016,0.246385 0.609444,0.286609 1.849218,0.282362 0.989158,-0.0034 1.55605,-0.06802 1.795078,-0.204661 0.192146,-0.10984 0.580271,-0.201938 0.862501,-0.204663 0.432317,-0.0042 0.591898,0.08706 1.013132,0.579172 0.274992,0.321268 0.499987,0.635688 0.499987,0.698712 0,0.06302 -1.100471,0.114589 -2.445491,0.114589 H 37.82718 v 0.908325 c 0,0.512389 -0.06092,0.908325 -0.139743,0.908325 -0.221868,0 -0.162564,0.590649 0.110407,1.099635 0.248325,0.463024 0.247571,0.469248 -0.10306,0.851935 -0.303865,0.331643 -0.4119,0.368673 -0.773262,0.265035 -0.699811,-0.200703 -1.131162,-0.137618 -1.519429,0.222214 -0.313045,0.290122 -0.369761,0.45996 -0.369761,1.107278 0,0.420527 0.07342,1.082674 0.163159,1.471437 0.154169,0.667898 0.140483,0.751251 -0.248427,1.512892 -0.300889,0.58926 -0.500397,0.818752 -0.741797,0.853282 -0.263265,0.03765 -0.311549,-0.0014 -0.238153,-0.192672 z M 15.4684,16.730009 c 0,-0.366729 -0.507779,-0.635676 -0.777515,-0.411814 -0.469006,0.38924 -0.0063,1.100961 0.529357,0.814275 0.136487,-0.07305 0.248158,-0.254153 0.248158,-0.402461 z m 15.721016,0 c 0,-0.417041 -0.48281,-0.553949 -0.762986,-0.216357 -0.146254,0.176223 -0.146254,0.256491 0,0.432714 0.280176,0.337593 0.762986,0.200683 0.762986,-0.216357 z M 16.423887,15.209835 c 0.248375,-0.157434 0.15479,-0.718035 -0.151969,-0.910331 -0.44833,-0.281043 -0.959343,0.285702 -0.749851,0.83163 0.08469,0.220704 0.606015,0.266199 0.90182,0.0787 z M 15.81201,14.904061 c -0.128611,-0.208098 0.0205,-0.321238 0.288061,-0.218567 0.123473,0.04738 0.185358,0.149476 0.137523,0.226877 -0.113272,0.183278 -0.309545,0.179445 -0.425584,-0.0083 z M 30.840059,15.0531 c 0.106273,-0.198572 0.106273,-0.360397 0,-0.558969 -0.263974,-0.493242 -1.117938,-0.279751 -1.117938,0.279485 0,0.559235 0.853964,0.772726 1.117938,0.279484 z m -0.698711,-0.197968 c 0,-0.121692 0.09957,-0.221259 0.221258,-0.221259 0.121693,0 0.196368,0.07468 0.165944,0.165944 -0.08637,0.259114 -0.387202,0.30209 -0.387202,0.05532 z m 6.711068,0.263701 c 0.273782,-0.329887 -0.03905,-0.904187 -0.492533,-0.904187 -0.45348,0 -0.766315,0.5743 -0.492533,0.904187 0.09757,0.117564 0.319209,0.213752 0.492533,0.213752 0.173324,0 0.394963,-0.09619 0.492533,-0.213752 z M 36.22014,14.913358 c -0.05578,-0.09025 -0.03854,-0.226978 0.03833,-0.303837 0.09316,-0.09316 0.173549,-0.08504 0.241159,0.02436 0.05578,0.09025 0.03854,0.226979 -0.03833,0.303837 -0.09316,0.09316 -0.173548,0.08504 -0.241159,-0.02436 z m -2.965447,8.10221 c -0.300045,-0.120728 -0.303523,-0.144201 -0.104807,-0.707423 0.721394,-2.044646 -0.539334,-4.184564 -2.493702,-4.23273 -0.620488,-0.01529 -0.821877,0.05228 -1.403359,0.470866 -0.794098,0.57164 -0.325451,0.561581 -6.705708,0.143915 -3.196491,-0.20925 -4.08096,-0.309261 -4.273144,-0.483185 -0.133291,-0.120626 -0.378884,-0.219321 -0.545763,-0.219321 -0.404831,0 -0.388984,-0.356719 0.02798,-0.629926 0.480729,-0.314986 11.962999,-0.228557 13.401558,0.100876 1.899396,0.434964 2.758279,1.435894 2.868687,3.343122 0.05907,1.020272 -0.156385,2.369862 -0.374759,2.347537 -0.04766,-0.0049 -0.226299,-0.06505 -0.396988,-0.133731 z m 53.236305,-6.180753 0.03638,-6.183599 0.349353,-0.04718 c 0.412233,-0.05568 0.935306,-0.506068 1.066344,-0.9181789 0.09178,-0.2886413 0.09433,-0.2888028 0.202189,-0.012837 0.151006,0.3863099 0.154334,1.1044619 0.0059,1.2646689 -0.352153,0.379996 -0.835187,4.325259 -0.931603,7.608971 -0.02142,0.730154 -0.08532,2.034999 -0.141951,2.899654 -0.09188,1.402781 -0.130972,1.572102 -0.362974,1.572102 -0.250142,0 -0.258624,-0.234563 -0.223618,-6.1836 z M 67.541764,22.66906 c 0.04428,-0.115288 0.175738,-0.209614 0.292213,-0.209614 0.172396,0 0.179427,0.03897 0.03782,0.209614 -0.09568,0.115287 -0.227177,0.209613 -0.292212,0.209613 -0.06504,0 -0.08205,-0.09433 -0.03783,-0.209613 z m 17.670988,-0.490259 c -0.261906,-0.06176 -0.536043,-0.219237 -0.60919,-0.349948 -0.07315,-0.130711 -0.299052,-0.4134 -0.502005,-0.628195 -0.563871,-0.596768 -9.985783,-7.795143 -10.41822,-7.959553 -0.208884,-0.07942 -0.815886,-0.144398 -1.34889,-0.144398 -0.533004,0 -0.969099,-0.05442 -0.969099,-0.12093 0,-0.06651 0.262651,-0.443815 0.58368,-0.838454 l 0.58368,-0.717524 h 3.428617 3.428623 l 0.598619,-0.587496 c 0.466738,-0.458065 0.635687,-0.550426 0.766891,-0.419228 0.119572,0.119573 0.948775,0.16827 2.865292,0.16827 h 2.697028 v 5.869179 5.869179 l -0.31442,-0.0143 c -0.17293,-0.0079 -0.528701,-0.06484 -0.790606,-0.126598 z m -0.615826,-3.796242 c 0.309498,-0.290761 0.323429,-0.391909 0.323429,-2.348912 0,-1.425781 -0.05292,-2.111562 -0.174677,-2.264652 -0.09607,-0.120771 -0.580286,-0.510095 -1.076031,-0.865163 l -0.901349,-0.645579 h -2.697015 c -2.510695,0 -2.716323,0.01931 -2.976496,0.279485 -0.153721,0.153716 -0.279487,0.362785 -0.279487,0.464596 0,0.192353 6.047674,5.155694 6.691189,5.491475 0.504207,0.263093 0.714844,0.241605 1.090437,-0.11125 z m -17.034812,3.552853 c -0.302664,-0.347086 -2.295919,-3.174872 -2.478863,-3.516703 -0.123537,-0.23083 -0.09729,-0.340042 0.138361,-0.575692 l 0.290822,-0.290821 1.217968,1.650107 c 1.806003,2.446768 1.872976,2.550665 1.787657,2.773004 -0.108152,0.281842 -0.696807,0.257276 -0.955945,-0.0399 z m -8.450738,-3.993178 c 0.0066,-0.700958 -0.07904,-1.065297 -0.423347,-1.80105 l -0.431612,-0.922334 0.63348,-0.05038 c 0.546847,-0.04349 0.664077,-0.0037 0.857178,0.291019 0.307447,0.46922 0.26164,1.767665 -0.09044,2.563589 -0.416296,0.94111 -0.554684,0.920593 -0.545262,-0.08084 z m 7.921957,-4.845527 c 0,-0.153717 -0.06288,-0.279485 -0.139745,-0.279485 -0.07686,0 -0.139741,-0.224331 -0.139741,-0.498515 0,-0.451963 0.02937,-0.489644 0.314419,-0.40352 0.496681,0.15006 0.607707,0.31674 0.415732,0.624142 -0.09415,0.150756 -0.171184,0.400722 -0.171184,0.555482 0,0.15476 -0.06287,0.281381 -0.139737,0.281381 -0.07686,0 -0.139744,-0.125768 -0.139744,-0.279485 z m 1.874336,0.151388 c -0.03176,-0.03202 -0.05766,-1.682731 -0.05766,-3.6682375 V 5.9698469 h 1.315104 c 0.998595,0 1.528297,0.074577 2.200946,0.3098647 0.860413,0.3009725 1.100401,0.3120016 8.362052,0.3842919 l 7.476215,0.074426 0.04158,0.7146403 c 0.03091,0.5311407 -0.05127,0.924622 -0.320081,1.5324168 -0.617499,1.3962744 -0.38356,1.3163734 -3.854161,1.3163734 h -3.04128 L 80.742232,9.8356064 C 80.345367,9.1934694 79.01311,7.9566883 78.612251,7.8582733 78.430952,7.8137591 76.930608,7.7951231 75.278152,7.8168563 l -3.004456,0.039513 -0.06987,0.6987118 c -0.03842,0.3842912 -0.177523,0.8569506 -0.309102,1.0503545 -0.400193,0.5882514 -0.668854,1.5279964 -0.673539,2.3559664 -0.0059,1.088568 -0.15718,1.238514 -1.306102,1.296767 -0.522329,0.02648 -0.975656,0.02195 -1.007386,-0.01007 z M 3.2558942,12.875664 C 3.146155,12.589689 3.148872,9.0713871 3.2591495,8.6598872 l 0.084264,-0.3144207 h 4.3157147 4.3157148 v 2.3756205 2.37562 H 7.6577786 c -3.8076852,0 -4.3270707,-0.02608 -4.4018844,-0.221043 z M 5.057594,10.721087 V 8.8345655 H 4.7082381 4.3588822 l -0.039455,1.7390285 c -0.0217,0.956465 -0.00626,1.825531 0.034311,1.931259 0.040643,0.105911 0.2152316,0.172141 0.3888107,0.147493 0.3091315,-0.04389 0.3150451,-0.08015 0.3150451,-1.931259 z m 9.24293,1.888076 c -0.05375,-0.140074 -0.270696,-0.211168 -0.644389,-0.211168 H 13.09278 v -1.5856 -1.5856009 l 0.495825,-0.510535 c 0.272704,-0.2807941 0.615442,-0.5105343 0.761639,-0.5105343 0.146197,0 0.318934,-0.09492 0.383859,-0.2109348 0.103212,-0.1844293 0.987997,-0.2063786 7.041295,-0.1746777 l 6.923248,0.036257 -1.499736,2.4454917 -1.499737,2.445491 -5.658808,0.03649 c -4.942194,0.03187 -5.669071,0.0098 -5.739841,-0.174679 z m 2.586397,-0.785159 c 0.540044,-0.384545 0.512846,-1.011488 -0.05885,-1.356609 -0.35036,-0.211505 -0.423329,-0.213455 -0.768583,-0.02055 -0.288961,0.161455 -0.391865,0.337075 -0.424329,0.724175 -0.0367,0.437586 0.01351,0.541589 0.349355,0.723662 0.494201,0.267924 0.418556,0.273849 0.902409,-0.07069 z m -0.907764,-0.240531 c -0.32437,-0.358424 -0.287963,-0.679055 0.10645,-0.937485 0.283175,-0.185544 0.384743,-0.19192 0.628841,-0.03948 0.377446,0.23572 0.389974,0.890292 0.02082,1.087858 -0.374143,0.200235 -0.489908,0.183256 -0.75611,-0.110894 z m 3.135908,0.246037 c 0.254404,-0.181151 0.405863,-0.41379 0.405863,-0.623397 0,-0.349348 -0.483785,-0.904253 -0.788357,-0.904253 -0.292456,0 -0.887468,0.313687 -0.904019,0.476593 -0.04933,0.48553 0.07372,0.880009 0.340754,1.092401 0.389106,0.309488 0.457245,0.30651 0.945759,-0.04134 z m -0.897958,-0.193205 c -0.320968,-0.243258 -0.259002,-0.750233 0.122493,-1.002162 0.243283,-0.160657 0.331928,-0.15665 0.593905,0.02685 0.382286,0.267763 0.40305,0.837818 0.03764,1.033379 -0.346434,0.185406 -0.44256,0.178004 -0.754039,-0.05806 z m 3.000518,0.238674 c 0.34878,-0.206029 0.405898,-0.318331 0.370918,-0.729257 -0.03076,-0.36124 -0.13984,-0.540572 -0.425641,-0.699729 -0.903581,-0.5031848 -1.678688,0.734619 -0.862194,1.376874 0.452265,0.355752 0.407229,0.353192 0.916917,0.05211 z m -0.753436,-0.186888 c -0.337457,-0.196551 -0.315064,-0.855738 0.03653,-1.07531 0.23218,-0.144998 0.341575,-0.135896 0.628841,0.05233 0.431001,0.282403 0.446071,0.669984 0.03718,0.956379 -0.361181,0.252982 -0.379567,0.254725 -0.702554,0.0666 z m 2.982889,0.141419 c 0.574779,-0.409278 0.556834,-0.985389 -0.04251,-1.364867 -0.423782,-0.268321 -0.469767,-0.271254 -0.838454,-0.05346 -0.515482,0.304503 -0.55822,1.136727 -0.07566,1.473344 0.413923,0.288737 0.47914,0.284987 0.956626,-0.05501 z m -0.908251,-0.172991 c -0.317599,-0.232235 -0.247602,-0.771179 0.132786,-1.022376 0.243283,-0.160657 0.331928,-0.15665 0.593905,0.02685 0.382286,0.267763 0.403051,0.837818 0.03764,1.033379 -0.351311,0.188015 -0.463009,0.182484 -0.764332,-0.03785 z m 3.151862,0.167485 c 0.85737,-0.610502 0.136961,-1.79517 -0.844454,-1.388655 -0.376935,0.156133 -0.434324,0.249268 -0.434324,0.704874 0,0.386267 0.08307,0.582921 0.31442,0.7443 0.414742,0.289308 0.478709,0.285294 0.964358,-0.06052 z m -0.905691,-0.187699 c -0.320969,-0.243258 -0.259003,-0.750233 0.122492,-1.002162 0.243284,-0.160657 0.331929,-0.15665 0.593906,0.02685 0.382286,0.267763 0.40305,0.837818 0.03764,1.033379 -0.346434,0.185406 -0.442561,0.178004 -0.754039,-0.05806 z m -7.07378,-2.1066165 c 0.592742,-0.3065194 0.566206,-0.8358598 -0.0568,-1.1329479 -0.434561,-0.2072281 -0.496264,-0.2058791 -0.838454,0.018333 -0.49681,0.3255232 -0.489962,0.8342441 0.01492,1.1081459 0.476913,0.2587301 0.393695,0.2581186 0.88033,0.00646 z M 17.110373,9.3708574 c 0.09607,-0.038768 0.253283,-0.038768 0.349356,0 0.09607,0.038768 0.01747,0.070484 -0.174679,0.070484 -0.192145,0 -0.27075,-0.031717 -0.174677,-0.070484 z m 2.753337,0.2098601 c 0.274083,-0.1248811 0.35593,-0.2655855 0.35593,-0.6118871 0,-0.3621481 -0.07716,-0.4816762 -0.396292,-0.6138633 -0.896112,-0.3711815 -1.601297,0.613433 -0.826453,1.1539352 0.387115,0.2700389 0.424892,0.2731684 0.866815,0.071815 z M 19.346251,9.3708574 c 0.09607,-0.038768 0.253283,-0.038768 0.349356,0 0.09607,0.038768 0.01747,0.070484 -0.174679,0.070484 -0.192145,0 -0.27075,-0.031717 -0.174677,-0.070484 z m 2.764827,0.146348 c 0.454258,-0.297641 0.446237,-0.7934108 -0.01776,-1.0974301 -0.303388,-0.1987872 -0.428181,-0.2099892 -0.768583,-0.068989 -0.718676,0.2976845 -0.474726,1.3130945 0.332177,1.3826474 0.06035,0.00521 0.264721,-0.092101 0.454163,-0.2162278 z m -0.668692,-0.146348 c 0.09607,-0.038768 0.253283,-0.038768 0.349356,0 0.09607,0.038768 0.01746,0.070484 -0.174678,0.070484 -0.192145,0 -0.270751,-0.031717 -0.174678,-0.070484 z m 2.836722,0.1588311 c 0.566361,-0.2928765 0.563081,-0.8195816 -0.0069,-1.1143501 -0.378815,-0.1958936 -0.459639,-0.1958936 -0.838454,0 -0.555453,0.2872357 -0.572142,0.8164416 -0.03494,1.1078803 0.476913,0.2587301 0.393694,0.2581185 0.880329,0.00646 z M 23.678264,9.3708574 c 0.09607,-0.038768 0.253283,-0.038768 0.349356,0 0.09607,0.038768 0.01747,0.070484 -0.174678,0.070484 -0.192146,0 -0.270751,-0.031717 -0.174678,-0.070484 z m 2.753337,0.2098601 c 0.274083,-0.1248811 0.35593,-0.2655855 0.35593,-0.6118871 0,-0.3677349 -0.07627,-0.4813065 -0.418403,-0.6230219 -0.849123,-0.351719 -1.541223,0.6490714 -0.804342,1.1630938 0.387115,0.2700389 0.424892,0.2731684 0.866815,0.071815 z M 25.914142,9.3708574 c 0.09607,-0.038768 0.253283,-0.038768 0.349355,0 0.09607,0.038768 0.01746,0.070484 -0.174678,0.070484 -0.192146,0 -0.27075,-0.031717 -0.174677,-0.070484 z m 45.596479,2.3284256 c -0.0026,-0.623917 0.505637,-1.9637299 0.818561,-2.1571298 0.08476,-0.052383 0.154103,-0.4059513 0.154103,-0.7857067 0,-0.6433337 0.02386,-0.6904641 0.349359,-0.6904641 0.217372,0 0.349353,0.079187 0.349353,0.2096136 0,0.1781617 0.35902,0.2096135 2.39273,0.2096135 2.111028,0 2.372249,-0.024679 2.218765,-0.2096135 -0.147776,-0.1780615 -0.113536,-0.2095352 0.227441,-0.209091 0.220772,2.926e-4 0.590059,0.1164487 0.82063,0.2581377 0.543489,0.3339753 1.60704,1.4034158 1.60704,1.6159408 0,0.090647 -0.244944,0.4039905 -0.544313,0.6963175 l -0.544306,0.531503 -3.403417,-0.002 -3.40341,-0.002 -0.519865,0.581788 -0.519864,0.581788 z m -59.302876,0.326066 c -0.05124,-0.05124 -0.09316,-0.680079 -0.09316,-1.397424 V 9.3236638 h 0.419227 0.419227 v 1.3974232 c 0,1.370807 -0.0062,1.397424 -0.326065,1.397424 -0.179335,0 -0.367988,-0.04192 -0.419227,-0.09316 z M 66.84701,11.46638 c -0.152501,-0.152503 -0.108695,-2.5619433 0.04658,-2.5619433 0.08336,0 0.139747,0.5356791 0.139747,1.3275523 0,1.327908 -0.01212,1.408542 -0.186325,1.234391 z m 0.465804,-1.304262 V 8.8883667 l 0.593908,0.042972 0.593907,0.042972 v 1.1878103 1.18781 l -0.593907,0.04297 -0.593908,0.04297 z M 51.410182,8.9117975 C 50.933634,8.2241216 50.543733,7.6276063 50.543733,7.5862081 c 0,-0.041397 1.996568,-0.091874 4.436818,-0.1121681 l 4.436825,-0.036897 0.04167,-1.0437131 c 0.04621,-1.1575024 0.220163,-1.4852047 1.393112,-2.6245242 0.491348,-0.4772587 0.71103,-0.593905 1.118506,-0.593905 0.394382,0 0.469803,0.037267 0.339374,0.1676909 -0.345971,0.3459749 -0.196956,0.5676158 0.316822,0.4712303 0.408152,-0.07657 0.59783,-0.012945 1.203492,0.4036748 0.395439,0.2720136 0.864567,0.4945702 1.042509,0.4945702 0.177943,0 0.438146,0.1435196 0.578225,0.3189321 0.418799,0.5244318 1.220002,0.9387491 1.815339,0.9387491 0.302209,0 0.624925,0.075461 0.71715,0.1676909 0.206459,0.2064567 0.223454,1.8426249 0.023,2.2171164 -0.1132,0.211516 -0.295533,0.2702972 -0.838449,0.2702972 h -0.693773 v 0.768583 0.7685834 H 59.375498 52.276633 Z M 61.024414,7.773123 c 0,-0.1610726 0.106736,-0.473558 0.237202,-0.6944124 0.302435,-0.5119825 0.137655,-0.6956191 -0.229063,-0.2552704 -0.2878,0.3455911 -0.394557,1.2425422 -0.147885,1.2425422 0.07686,0 0.139746,-0.1317871 0.139746,-0.2928594 z M 64.036395,7.215352 C 64.216873,6.9233402 63.881353,6.835063 62.875996,6.91004 c -0.72621,0.054159 -1.013128,0.129602 -1.013128,0.2663934 0,0.2392809 2.027264,0.2755802 2.173527,0.03892 z M 60.363343,7.0528498 c 0.09911,-0.284147 -0.04912,-0.5240336 -0.323831,-0.5240336 -0.308087,0 -0.466054,0.2179062 -0.359424,0.4957902 0.09532,0.2483937 0.599193,0.2692222 0.683255,0.028246 z M 64.21054,6.0816405 C 64.602514,5.6896637 64.307204,4.99165 63.749388,4.99165 c -0.374572,0 -0.628838,0.2542668 -0.628838,0.6288406 0,0.3745738 0.254266,0.6288407 0.628838,0.6288407 0.1614,0 0.368919,-0.075461 0.461152,-0.1676908 z M 63.605305,5.6833443 c -0.132785,-0.2148518 0.04912,-0.3534738 0.228461,-0.1741164 0.100356,0.1003599 0.10277,0.1785245 0.0073,0.237512 -0.07825,0.048358 -0.184349,0.019827 -0.235781,-0.063395 z m -3.355443,0.016674 c 0.103345,-0.167216 -0.159536,-0.3328982 -0.34567,-0.2178607 -0.156282,0.096588 -0.05368,0.3479471 0.142022,0.3479471 0.06779,0 0.159425,-0.058539 0.203648,-0.1300864 z M 61.64327,5.0515404 C 61.937671,4.7571376 61.919841,4.4896567 61.583382,4.1531966 61.246949,3.8167654 61.175706,3.811299 60.776021,4.091249 c -0.337886,0.2366628 -0.4097,0.7453849 -0.142889,1.0121956 0.235153,0.2351512 0.749512,0.2087215 1.010138,-0.051902 z M 14.991095,7.262464 C 14.948794,7.1279621 14.901029,6.3526679 14.884952,5.5395881 14.849169,3.7298882 15.023577,3.175 15.628168,3.175 h 0.405346 l -0.038,0.9432607 -0.038,0.9432612 0.436473,0.042469 c 0.360944,0.035122 0.542308,0.1977722 1.048068,0.9399354 0.490009,0.7190472 0.68502,0.8981257 0.980935,0.9007908 0.203138,0.00185 0.405536,-0.091 0.449777,-0.2062877 0.04702,-0.1225353 0.256415,-0.2096136 0.50405,-0.2096136 0.283382,0 0.423612,0.069389 0.423612,0.2096136 0,0.1397422 0.139742,0.2096135 0.419227,0.2096135 0.279485,0 0.419227,-0.069871 0.419227,-0.2096135 0,-0.2823053 0.780658,-0.2823053 0.888989,0 0.104402,0.2720679 0.772725,0.2720679 0.877126,0 0.108332,-0.2823053 0.88899,-0.2823053 0.88899,0 0,0.1380193 0.13808,0.2096135 0.404276,0.2096135 0.230446,0 0.438862,-0.09013 0.484713,-0.2096135 0.06701,-0.1746266 0.466028,-0.2096136 2.390571,-0.2096136 h 2.310134 v 0.4890984 0.4890979 h -6.907838 c -6.456424,0 -6.912856,-0.015982 -6.984742,-0.2445485 z m 0.686919,-0.3163342 c 0,-0.2995387 -0.406045,-0.2562739 -0.46494,0.049542 -0.03597,0.1867517 0.02095,0.2436651 0.2077,0.2077001 0.141482,-0.027248 0.25724,-0.1430046 0.25724,-0.2572399 z m 0.74198,0.03685 c -0.05673,-0.294555 -0.304734,-0.2759816 -0.367935,0.027554 -0.02636,0.1266047 0.05067,0.2169951 0.184924,0.2169951 0.143929,0 0.212468,-0.091587 0.183011,-0.2445491 z m 33.870335,-0.069871 c 0.0385,-0.399345 0.09861,-0.459448 0.497953,-0.497952 0.337392,-0.032529 0.454162,0.01238 0.454162,0.1746779 0,0.2901876 0.778058,0.2979367 0.888989,0.00885 0.04702,-0.1225347 0.256415,-0.2096135 0.50405,-0.2096135 0.283382,0 0.423612,0.069389 0.423612,0.2096135 0,0.1397422 0.139742,0.2096135 0.419227,0.2096135 0.279485,0 0.419227,-0.069871 0.419227,-0.2096135 0,-0.1402244 0.14023,-0.2096135 0.42361,-0.2096135 0.247639,0 0.457033,0.087079 0.50405,0.2096135 0.04584,0.1194841 0.254267,0.2096135 0.484713,0.2096135 0.266198,0 0.404275,-0.071594 0.404275,-0.2096135 0,-0.284128 0.818632,-0.284128 0.927666,0 0.04584,0.1194841 0.254267,0.2096135 0.484714,0.2096135 0.266192,0 0.404274,-0.071594 0.404274,-0.2096135 0,-0.284128 0.818633,-0.284128 0.927661,0 0.04426,0.1152873 0.230922,0.2096135 0.414844,0.2096135 0.241242,0 0.334404,0.077861 0.334404,0.279485 0,0.2736735 -0.09316,0.2794843 -4.48061,0.2794843 H 50.24654 Z M 30.001605,6.4589459 c 0.09568,-0.1152873 0.262564,-0.2096135 0.370853,-0.2096135 0.108289,0 0.233085,-0.094326 0.277324,-0.2096136 0.04487,-0.1169172 0.252606,-0.2096136 0.469763,-0.2096136 0.217155,0 0.424896,0.092696 0.469762,0.2096136 0.04424,0.1152873 0.241593,0.2096136 0.438563,0.2096136 0.196969,0 0.394323,-0.094326 0.438563,-0.2096136 0.104884,-0.2733197 0.83464,-0.2733197 0.939524,0 0.04424,0.1152873 0.241594,0.2096136 0.438563,0.2096136 0.19697,0 0.394324,-0.094326 0.438563,-0.2096136 0.104884,-0.2733197 0.834642,-0.2733197 0.939525,0 0.104401,0.272068 0.772724,0.272068 0.877126,0 0.04487,-0.1169172 0.252607,-0.2096136 0.469763,-0.2096136 0.217155,0 0.424896,0.092696 0.469761,0.2096136 0.06214,0.1619217 0.332389,0.2096136 1.187811,0.2096136 0.85542,0 1.125674,-0.047693 1.18781,-0.2096136 0.04702,-0.1225347 0.256414,-0.2096136 0.504049,-0.2096136 0.283382,0 0.423612,0.069389 0.423612,0.2096136 0,0.2823053 0.780658,0.2823053 0.88899,0 0.105762,-0.2756124 0.872433,-0.2756124 0.978196,0 0.104401,0.272068 0.772725,0.272068 0.877126,0 0.104884,-0.2733197 0.834641,-0.2733197 0.939524,0 0.104361,0.2719602 0.734094,0.2719602 0.838455,0 0.105762,-0.2756124 0.872434,-0.2756124 0.978196,0 0.0647,0.1685977 0.37873,0.2096136 1.604877,0.2096136 1.18458,0 1.563225,0.046732 1.698405,0.2096135 0.154351,0.1859826 -0.924805,0.2096135 -9.572352,0.2096135 -8.647547,0 -9.726703,-0.02363 -9.572352,-0.2096135 z"
       id="path973" />
  </g>
</svg>
