<?xml version="1.0" encoding="UTF-8" standalone="no"?>
<svg
   xmlns:dc="http://purl.org/dc/elements/1.1/"
   xmlns:cc="http://creativecommons.org/ns#"
   xmlns:rdf="http://www.w3.org/1999/02/22-rdf-syntax-ns#"
   xmlns:svg="http://www.w3.org/2000/svg"
   xmlns="http://www.w3.org/2000/svg"
   xmlns:sodipodi="http://sodipodi.sourceforge.net/DTD/sodipodi-0.dtd"
   xmlns:inkscape="http://www.inkscape.org/namespaces/inkscape"
   width="209.674"
   height="128"
   viewBox="0 0 55.476243 33.866667"
   version="1.1"
   id="svg8"
   inkscape:version="1.0.1 (3bc2e813f5, 2020-09-07)"
   sodipodi:docname="Wingman.svg">
  <defs
     id="defs2" />
  <sodipodi:namedview
     id="base"
     pagecolor="#ffffff"
     bordercolor="#666666"
     borderopacity="1.0"
     inkscape:pageopacity="0.0"
     inkscape:pageshadow="2"
     inkscape:zoom="0.7"
     inkscape:cx="203.46719"
     inkscape:cy="84.802954"
     inkscape:document-units="mm"
     inkscape:current-layer="layer1"
     inkscape:document-rotation="0"
     showgrid="false"
     units="px"
     inkscape:window-width="1366"
     inkscape:window-height="705"
     inkscape:window-x="-8"
     inkscape:window-y="-8"
     inkscape:window-maximized="1" />
  <metadata
     id="metadata5">
    <rdf:RDF>
      <cc:Work
         rdf:about="">
        <dc:format>image/svg+xml</dc:format>
        <dc:type
           rdf:resource="http://purl.org/dc/dcmitype/StillImage" />
        <dc:title></dc:title>
      </cc:Work>
    </rdf:RDF>
  </metadata>
  <g
     inkscape:label="Layer 1"
     inkscape:groupmode="layer"
     id="layer1">
    <path
       style="fill:#273839;stroke-width:0.183386;fill-opacity:1"
       d="m 41.688832,30.411355 c -0.605251,-0.414342 -0.728569,-0.611799 -0.724676,-1.160353 0.0027,-0.380318 0.185472,-0.540686 1.072266,-0.940837 0.985335,-0.444615 1.136781,-0.465163 1.934855,-0.262523 0.63962,0.162404 0.96033,0.369069 1.227457,0.790965 0.414049,0.65395 0.942702,0.818195 2.438682,0.757673 1.449991,-0.05867 1.604082,-0.220639 1.741035,-1.830112 0.106078,-1.24666 0.184997,-1.451261 0.965348,-2.502743 0.467408,-0.629801 0.89184,-1.248729 0.943201,-1.375396 0.07061,-0.174176 0.140777,-0.163264 0.287905,0.04478 0.335704,0.474683 0.227161,0.726974 -0.762622,1.772578 l -0.962776,1.017081 -0.09169,1.951965 -0.09169,1.951966 -3.759417,0.04941 c -3.299425,0.04336 -3.815507,0.011 -4.217875,-0.26445 z m 8.252371,-1.705352 v -1.645318 l 1.054468,-1.171065 1.054475,-1.171062 0.148836,0.661594 c 0.08186,0.363877 0.123119,1.473613 0.09169,2.466082 -0.05191,1.639449 -0.09675,1.836523 -0.490077,2.154786 -0.260221,0.210551 -0.717473,0.350298 -1.146167,0.350298 h -0.713227 z m 1.063637,0.324936 c 0.121038,-0.121035 0.220066,-0.70129 0.220066,-1.289457 0,-0.823193 -0.06944,-1.09604 -0.301603,-1.185128 -0.465322,-0.178563 -0.798717,0.450522 -0.798717,1.507125 0,0.518656 0.05501,0.998025 0.12226,1.065265 0.187831,0.187834 0.514506,0.145682 0.757994,-0.09781 z m -5.547936,-0.500983 c -0.284355,-0.410323 -0.608938,-0.752174 -0.721297,-0.75967 -0.562097,-0.0375 -1.118913,-0.19903 -1.351531,-0.392084 -0.454338,-0.37707 -1.511861,-2.680701 -1.511861,-3.293335 v -0.590639 l 0.550847,0.868592 c 0.302964,0.477726 0.762393,1.286062 1.020951,1.796307 0.258562,0.510241 0.506905,0.890916 0.551878,0.845941 0.156171,-0.156168 -0.517635,-1.519942 -1.318403,-2.668428 -0.579957,-0.831793 -0.805273,-1.335454 -0.805273,-1.80007 0,-0.354817 -0.08825,-0.810018 -0.19611,-1.011559 -0.145766,-0.272364 -0.133994,-0.441485 0.04584,-0.658755 0.173148,-0.209184 0.241958,-0.975108 0.241958,-2.693222 0,-1.822918 0.05519,-2.389869 0.229231,-2.355059 0.126079,0.02521 0.229539,-0.05731 0.229916,-0.183386 3.8e-4,-0.198217 1.66944,-1.656668 2.341074,-2.045929 0.12805,-0.07421 0.525156,-0.03845 0.882457,0.07947 0.783479,0.258571 0.993663,0.723338 0.993663,2.197181 0,1.048851 0.02656,1.106648 0.984422,2.142848 1.040146,1.1252 3.416845,4.804787 3.416845,5.289926 0,0.400931 -0.397164,1.112171 -1.268971,2.272475 -0.689706,0.917946 -0.748277,1.085758 -0.748277,2.143962 0,0.631437 -0.06189,1.184152 -0.13754,1.228254 -0.07565,0.0441 -0.761978,0.137124 -1.525178,0.206708 l -1.387638,0.126518 z m 2.533368,-0.470963 c 0.160939,-0.419402 -0.06452,-0.825238 -0.458462,-0.825238 -0.194101,0 -0.400412,0.123786 -0.458466,0.27508 -0.160939,0.419402 0.06452,0.825237 0.458466,0.825237 0.194098,0 0.400405,-0.123785 0.458462,-0.275079 z m -1.716791,0.02246 c 0,-0.03808 -0.144418,-0.182497 -0.320926,-0.320926 -0.290861,-0.228108 -0.297349,-0.221622 -0.06924,0.06924 0.239569,0.305475 0.390163,0.402621 0.390163,0.251686 z m -0.803385,-3.070434 c -0.247647,-0.542581 -0.457028,-0.838809 -0.465292,-0.658281 -0.01701,0.371325 0.697993,1.86236 0.829833,1.730522 0.04715,-0.04715 -0.116891,-0.529659 -0.364541,-1.072241 z M 44.322551,24.75805 c -0.05805,-0.151293 -0.189357,-0.275079 -0.291778,-0.275079 -0.107337,0 -0.08951,0.116525 0.04207,0.275079 0.125562,0.151294 0.256866,0.275079 0.291779,0.275079 0.03493,0 0.01598,-0.123785 -0.04207,-0.275079 z m 1.32048,-0.850221 c -0.287403,-0.718287 -2.066862,-3.459351 -2.24576,-3.459351 -0.04379,0 -0.04201,0.06189 0.004,0.137539 1.517976,2.498396 1.934947,3.221635 2.132876,3.69947 0.131223,0.316808 0.279074,0.535532 0.328555,0.486051 0.04948,-0.04948 -0.04935,-0.438149 -0.219624,-0.863709 z m 2.895999,0.492206 c 0.266883,-0.247341 0.485077,-0.639327 0.484875,-0.871084 -2.05e-4,-0.231756 -0.764744,-1.700493 -1.698981,-3.263858 -1.643016,-2.749444 -1.719857,-2.844277 -2.347579,-2.897251 -0.845441,-0.07135 -1.63804,0.520214 -1.63804,1.222559 0,0.484137 3.100815,5.82579 3.55206,6.118995 0.417401,0.271213 1.174619,0.129041 1.647665,-0.309361 z m 1.402173,0.386438 c 0,-0.0348 -0.177056,-0.220478 -0.393458,-0.412618 -0.391349,-0.347477 -0.392297,-0.347137 -0.176934,0.06327 0.178761,0.340656 0.570392,0.580519 0.570392,0.349348 z M 44.07285,22.7408 c -0.569775,-0.828141 -1.010359,-1.186291 -0.507586,-0.412619 0.147478,0.226941 0.383128,0.598297 0.523669,0.825237 0.140541,0.226941 0.322167,0.412619 0.403612,0.412619 0.08145,0 -0.10742,-0.371357 -0.419695,-0.825237 z m 5.318195,-0.733545 c -0.106508,-0.280133 -0.235692,-0.467289 -0.287076,-0.415902 -0.05139,0.05139 0.0056,0.310749 0.126613,0.576366 0.28585,0.627374 0.412024,0.501199 0.160463,-0.160464 z m -1.475423,-2.559068 c -0.44155,-0.651127 -0.83008,-1.156604 -0.863402,-1.123281 -0.03333,0.03333 0.283936,0.61007 0.70502,1.28166 0.421088,0.67159 0.809618,1.177066 0.863403,1.12328 0.05378,-0.05378 -0.263474,-0.630532 -0.705021,-1.281659 z m -3.77949,-2.950422 c -0.05972,-0.155643 -0.147923,-0.243657 -0.195993,-0.195586 -0.04808,0.04807 -0.03303,0.175415 0.03348,0.282988 0.180831,0.292585 0.28652,0.235744 0.162518,-0.0874 z m 0.93034,-0.195097 c 0.36693,-0.140804 0.375259,-0.690014 0.01499,-0.989003 -0.525754,-0.436339 -1.094498,0.390926 -0.605172,0.880254 0.25717,0.257169 0.220842,0.250475 0.590173,0.108749 z m -12.905217,5.333121 c -0.55007,-0.350435 -1.119894,-0.637156 -1.266279,-0.637156 -0.218998,0 -0.212379,-0.05942 0.03735,-0.335365 0.410425,-0.453515 0.435637,-4.128207 0.03491,-5.087297 l -0.268596,-0.642843 2.439726,0.02442 c 2.38556,0.02387 2.464695,0.01181 3.564316,-0.543275 1.051351,-0.530719 1.254219,-0.567691 3.115012,-0.567691 h 1.990421 l 1.062743,-0.825237 c 0.584508,-0.453881 1.166009,-0.825238 1.292226,-0.825238 0.327204,0 3.024357,1.788267 3.111772,2.063166 0.04008,0.126038 0.10628,0.908757 0.14712,1.739377 0.06786,1.380432 0.05071,1.476614 -0.199622,1.119218 -0.155863,-0.222525 -0.311319,-0.974602 -0.360789,-1.745413 -0.07517,-1.17126 -0.148947,-1.403203 -0.545619,-1.715223 -0.880163,-0.692335 -1.618045,-0.497995 -3.3123,0.872381 l -1.524657,1.233191 0.05907,2.358535 c 0.05692,2.272512 0.04374,2.370974 -0.361444,2.699557 -0.231285,0.187562 -0.808952,0.398686 -1.283703,0.469165 -0.474748,0.07048 -1.150539,0.322573 -1.501754,0.560209 -0.587636,0.397601 -0.821692,0.431693 -2.934176,0.427372 l -2.295602,-0.0047 z m 5.882441,-1.260119 c 1.198917,-0.807398 1.44998,-1.190588 1.575239,-2.40425 0.114514,-1.109532 -0.10218,-1.559217 -0.749195,-1.554734 -0.362507,0.0025 -0.357666,0.01906 0.0683,0.233414 0.528561,0.265985 0.72501,1.257785 0.340827,1.720699 -0.360537,0.43442 -2.304445,1.710904 -2.605472,1.710904 -0.227455,0 -0.220003,-0.130463 0.04976,-0.871084 0.174506,-0.479096 0.310993,-1.201178 0.303307,-1.604628 -0.0124,-0.650499 0.04831,-0.757915 0.536182,-0.948824 0.470646,-0.184168 0.230263,-0.217298 -1.663248,-0.229233 -2.142343,-0.0135 -2.226246,8.37e-4 -2.613251,0.445908 -0.33622,0.386687 -0.399844,0.683907 -0.399844,1.867888 0,1.193259 0.06082,1.472767 0.398738,1.832465 0.361747,0.385062 0.558073,0.424438 2.116174,0.424438 1.649066,0 1.754262,-0.0248 2.642483,-0.622963 z m 0.710958,-2.615729 c 0,-0.354441 -0.09565,-0.429029 -0.550158,-0.429029 -0.481837,0 -0.550158,0.06452 -0.550158,0.519594 0,0.678611 0.126708,0.782069 0.660147,0.539019 0.282052,-0.128512 0.440169,-0.35467 0.440169,-0.629584 z m -5.960567,-0.79416 c 0.164052,-0.516881 -0.0296,-0.735185 -0.652153,-0.735185 -0.442761,0 -0.539335,0.07662 -0.539335,0.427901 0,0.535336 0.134559,0.672415 0.660058,0.672415 0.253859,0 0.460633,-0.142068 0.53143,-0.365131 z m 8.491296,-1.138637 c 0.121034,-0.121034 0.220062,-0.434624 0.220062,-0.696866 0,-0.966832 -1.04359,-1.270485 -1.575646,-0.458466 -0.278272,0.424699 -0.278272,0.492232 0,0.916931 0.321894,0.491269 0.985929,0.608051 1.355584,0.238401 z m -1.02161,-0.361419 c -0.32466,-0.324659 -0.277695,-0.661337 0.122096,-0.8753 0.256333,-0.137183 0.404666,-0.117128 0.565305,0.07643 0.479662,0.577959 -0.162278,1.323994 -0.687401,0.79887 z M 9.6625928,20.723551 c -0.058056,-0.151293 -0.211685,-0.275079 -0.3413961,-0.275079 -0.2244995,0 -0.458465,-0.383434 -0.458465,-0.751354 0,-0.103164 2.0923203,-0.151863 5.2648983,-0.122541 l 5.264899,0.04866 0.122462,0.599104 c 0.144854,0.708659 -0.09226,0.929969 -0.551289,0.514551 -0.294031,-0.266095 -0.353547,-0.268 -0.561057,-0.01797 -0.311638,0.375501 -1.216722,0.362002 -1.363438,-0.02034 -0.106602,-0.277798 -0.139716,-0.277798 -0.446679,0 -0.441442,0.399499 -1.23832,0.387575 -1.395691,-0.02088 -0.117758,-0.305643 -0.132225,-0.305643 -0.303812,0 -0.211411,0.376582 -1.368716,0.447367 -1.499131,0.09169 -0.06724,-0.183386 -0.132648,-0.183386 -0.327038,0 -0.133642,0.126078 -0.508438,0.229233 -0.832878,0.229233 -0.324441,0 -0.627716,-0.103155 -0.673944,-0.229233 -0.06724,-0.183386 -0.132649,-0.183386 -0.327038,0 -0.344294,0.324805 -1.4404509,0.292804 -1.5704032,-0.04585 z m 10.2874522,0.07949 c -0.200303,-0.324098 0.02937,-0.399901 1.246331,-0.411349 1.19042,-0.0112 1.690974,0.133965 1.504168,0.436221 -0.146767,0.237477 -2.60208,0.215274 -2.750499,-0.02488 z m 3.117563,0 c -0.208184,-0.336849 0.05396,-0.410679 1.37176,-0.386343 0.703055,0.01298 1.328146,-0.05708 1.389094,-0.155697 0.06877,-0.111275 -0.467311,-0.179895 -1.412941,-0.180861 l -1.523758,-0.0015 -0.825237,-1.271183 C 21.612645,18.108285 21.17167,17.53132 21.08658,17.525291 c -0.08509,-0.006 -0.197869,0.154085 -0.250621,0.355809 -0.09271,0.354535 -0.2497,0.366738 -4.705021,0.365745 l -4.609109,-0.001 -1.05447,-1.365832 c -0.5799581,-0.751208 -1.0544691,-1.39991 -1.0544691,-1.441562 0,-0.148882 7.2497141,-0.07747 7.5405611,0.07428 0.163247,0.08517 0.355765,0.09587 0.427817,0.02377 0.07205,-0.0721 1.410339,-0.142272 2.973972,-0.15594 1.813332,-0.01585 2.916988,-0.09887 3.047348,-0.229233 0.134396,-0.134395 1.283781,-0.20438 3.356643,-0.20438 4.142965,0 3.99586,-0.103685 4.078353,2.874567 0.05534,1.997811 0.02822,2.214917 -0.334236,2.6757 l -0.394458,0.501472 h -3.460201 c -2.252884,0 -3.502377,-0.06824 -3.581081,-0.195586 z m 6.792824,-0.537958 c -0.06234,-0.100862 -0.624242,-0.182122 -1.248679,-0.180577 -0.800701,0.002 -1.054261,0.05521 -0.860261,0.180577 0.371082,0.239812 2.257152,0.239812 2.10894,0 z m -0.217178,-1.680429 c 0.956407,-0.509384 1.14163,-1.537975 0.408898,-2.270707 -0.566103,-0.566103 -1.220004,-0.573367 -1.862532,-0.02069 -0.356737,0.306851 -0.499256,0.603062 -0.499256,1.037646 0,0.434585 0.142519,0.730795 0.499256,1.037647 0.559555,0.48131 0.869246,0.527349 1.453634,0.216101 z m -1.301722,-0.56605 c -0.446577,-0.543321 -0.249838,-1.513274 0.345251,-1.702147 0.519916,-0.165015 1.265342,0.373364 1.265342,0.913885 0,0.830345 -1.123891,1.380403 -1.610593,0.788262 z m 1.05313,-0.403818 c 0.327856,-0.395042 0.05907,-1.051255 -0.402336,-0.982267 -0.545271,0.08152 -0.822956,0.593112 -0.520048,0.958095 0.3004,0.361958 0.634777,0.370721 0.922384,0.02417 z M 13.99754,17.771823 c 0,-0.203959 -0.628508,-1.174457 -0.760596,-1.174457 -0.13969,0 -0.889878,0.990107 -0.889878,1.174472 0,0.06008 0.371357,0.10923 0.825237,0.10923 0.45388,0 0.825237,-0.04916 0.825237,-0.109245 z m -8.3168707,0.9685 C 4.0373597,16.965726 3.9113088,16.775606 3.9113088,16.071634 v -0.757971 h 2.5252337 2.5252337 l 1.2362568,1.650475 1.236257,1.650474 h 5.016669 5.016669 l 0.485436,0.733544 0.485438,0.733544 h -1.264916 c -1.110687,0 -1.27661,-0.04472 -1.360829,-0.366771 -0.09311,-0.356043 -0.250141,-0.366773 -5.368006,-0.366773 -5.1791765,0 -5.2665011,-0.0062 -4.9548452,-0.350555 C 9.9738419,18.462859 9.805952,17.653998 9.1644625,17.429673 8.7144506,17.272307 8.59216,17.306868 8.2933784,17.675847 c -0.4489279,0.554402 -0.4386401,0.680987 0.099047,1.218675 0.2456431,0.245643 0.3672774,0.495663 0.2702978,0.5556 -0.09698,0.05994 -0.1535447,0.329716 -0.1256989,0.59951 0.044131,0.427598 -0.022353,0.497646 -0.5181831,0.545971 -0.5123082,0.04993 -0.7445713,-0.134365 -2.3381719,-1.85528 z m 2.703157,-0.204542 c -0.1825916,-0.475826 0.073333,-0.8691 0.5239314,-0.805115 0.3030882,0.04304 0.413439,0.181077 0.413439,0.517174 0,0.336096 -0.1103508,0.474135 -0.413439,0.517173 -0.2479888,0.03522 -0.4576553,-0.05652 -0.5239314,-0.229232 z M 3.6353648,14.534273 C 3.1355204,13.120517 3.020811,10.729013 3.452844,10.729013 c 0.1512933,0 0.275079,-0.08252 0.275079,-0.183387 0,-0.100862 -0.1237857,-0.183385 -0.275079,-0.183385 -0.3817324,0 -0.3669823,-1.4892618 0.024917,-2.5154273 L 3.7777549,7.0612922 h 2.6538029 c 2.4544627,0 2.6440844,0.024107 2.5244199,0.3209255 -0.07116,0.1765089 -0.1718591,0.6190584 -0.2237747,0.9834426 -0.086964,0.6103816 -0.04946,0.6781804 0.4765343,0.8615447 0.5536681,0.1930096 0.570927,0.2323827 0.570927,1.30243 0,1.179462 -0.2273865,1.48308 -1.1107137,1.48308 -0.2980557,0 -0.3533937,0.05897 -0.2151211,0.229232 0.1023889,0.126078 0.2222418,0.60059 0.2663405,1.05447 0.044096,0.45388 0.1443059,0.969654 0.2226846,1.146163 0.1321119,0.297518 -0.053294,0.320925 -2.5419668,0.320925 -1.982096,0 -2.7056785,-0.05997 -2.7655197,-0.229232 z M 6.7403788,13.7125 C 5.8416731,13.648526 5.7964592,13.618328 5.4108302,12.824587 5.099089,12.182931 5.0116251,11.670135 5.0116251,10.484078 c 0,-1.9641603 0.1612949,-2.2011753 1.4380991,-2.1132093 0.7728691,0.053245 0.945362,0.013271 0.9030687,-0.2092605 C 7.3160843,7.9684674 7.0190726,7.8701854 6.3556694,7.8316611 5.469663,7.7802112 5.3812648,7.8155478 4.9361458,8.3991288 4.5213055,8.9430121 4.461467,9.1979348 4.461467,10.421335 c 0,1.150371 0.088521,1.580359 0.4966678,2.412554 l 0.4966672,1.012686 1.1079603,-0.03392 1.1079602,-0.03392 z m 1.1137294,-1.333013 c 0.062339,-0.100862 0.025941,-0.183386 -0.08087,-0.183386 -0.1068146,0 -0.1942092,0.08252 -0.1942092,0.183386 0,0.100862 0.036397,0.183386 0.08087,0.183386 0.044477,0 0.1318722,-0.08252 0.1942092,-0.183386 z M 7.0288711,11.829329 c 0,-0.100862 -0.082523,-0.183386 -0.183386,-0.183386 -0.1008624,0 -0.1833857,-0.297662 -0.1833857,-0.661472 0,-0.512631 0.061895,-0.637719 0.2750789,-0.555913 0.3091131,0.118618 0.3484973,-0.03319 0.1073929,-0.413965 -0.3402531,-0.5373587 -0.749244,-0.067101 -0.749244,0.861486 0,0.490667 0.055012,0.947137 0.1222572,1.014379 0.1875078,0.187507 0.6112867,0.145129 0.6112867,-0.06113 z m 2.1136487,2.393125 C 8.8015963,13.563181 8.7696654,12.38719 9.091964,12.360513 c 0.1260779,-0.01044 0.8481606,-0.0047 1.604628,0.01269 0.756467,0.01742 1.581704,-0.05134 1.83386,-0.152788 0.363079,-0.146078 0.134152,-0.186784 -1.100316,-0.195648 L 9.8713545,12.013572 9.9304563,10.568614 9.989558,9.1236553 9.4331881,8.9297034 8.8768179,8.7357518 9.1620917,7.8985197 9.4473652,7.0612872 l 6.4471188,0.00917 6.447119,0.00917 -1.407525,0.7196941 c -0.774139,0.3958323 -1.45983,0.8043252 -1.523758,0.9077634 -0.06393,0.1034371 -0.915968,0.2051951 -1.893423,0.226128 l -1.777191,0.038058 1.696321,0.060516 1.696321,0.060516 v 1.4602063 1.460207 h -2.689662 c -1.479314,0 -2.650337,0.03933 -2.602271,0.08739 0.118776,0.118776 1.932594,0.243578 3.825382,0.263209 l 1.55932,0.01617 1.374857,1.019776 c 0.756171,0.560877 1.453254,1.097281 1.549074,1.192009 0.108662,0.107424 -2.25301,0.172233 -6.276262,0.172233 H 9.4223072 Z M 14.864534,8.9447034 c -0.380484,-0.039701 -0.95815,-0.039029 -1.283703,0.00145 -0.325552,0.040505 -0.01425,0.072987 0.691789,0.072173 0.706035,-8.371e-4 0.972397,-0.033962 0.591914,-0.073658 z m 20.2224,4.4434066 v -1.375395 h 0.550157 c 0.302587,0 0.550158,-0.08459 0.550158,-0.187971 0,-0.103384 -0.247571,-0.237485 -0.550158,-0.298002 -0.509134,-0.101827 -0.550157,-0.168948 -0.550157,-0.900165 0,-0.7256383 0.04116,-0.7948692 0.504311,-0.8481602 0.277371,-0.031918 0.504312,-0.140551 0.504312,-0.2414134 0,-0.1008623 -0.226941,-0.2094979 -0.504312,-0.2414133 -0.486976,-0.056031 -0.504311,-0.095431 -0.504311,-1.1461626 0,-0.8294985 0.06336,-1.0881353 0.266549,-1.0881353 0.146603,0 1.086183,0.495142 2.087956,1.100316 1.001774,0.6051739 1.876983,1.1003163 1.944907,1.1003163 0.326551,0 -0.218049,-0.4005373 -1.772781,-1.303826 L 35.91217,6.9695989 38.93804,6.9172412 c 1.664227,-0.028799 3.190915,-0.00944 3.392641,0.043014 0.224007,0.058249 0.780512,0.8034486 1.429693,1.9144614 l 1.062922,1.8190884 2.528745,-0.100106 c 1.696321,-0.06716 2.644331,-0.03301 2.879878,0.103722 0.29973,0.173988 0.241879,0.204644 -0.395184,0.209404 -0.563224,0.0042 -0.84412,0.118053 -1.14495,0.464041 -0.219248,0.252156 -0.513362,0.458466 -0.653584,0.458466 -0.140225,0 -0.540196,0.315732 -0.88883,0.701627 l -0.633882,0.701628 -1.08378,-0.7868 c -1.253127,-0.909742 -1.456722,-0.898669 -2.59262,0.141012 l -0.775291,0.709621 h -1.92965 -1.929652 v -0.605174 c 0,-0.710362 0.276178,-1.045301 0.861914,-1.045301 0.231983,0 0.421788,-0.06823 0.421788,-0.151624 0,-0.08339 -0.249667,-0.114981 -0.554818,-0.0702 -0.677655,0.09946 -1.095656,0.653533 -1.095656,1.452328 0,0.557269 -0.0886,0.643359 -1.279125,1.242898 -0.703518,0.354286 -1.322447,0.644156 -1.375396,0.644156 -0.05295,0 -0.09627,-0.618928 -0.09627,-1.375395 z m 6.39922,-0.526914 c 0.281734,-0.339468 0.08357,-0.788295 -0.406013,-0.919599 -0.526808,-0.141287 -2.034918,-0.141887 -2.402181,-9.51e-4 -0.288457,0.110691 -0.40128,0.816673 -0.16782,1.050131 0.24235,0.242352 2.758255,0.132808 2.976014,-0.129578 z m -2.234478,-0.298323 c -0.08382,-0.320547 -0.0056,-0.366772 0.620463,-0.366772 0.594118,0 0.716373,0.06259 0.716373,0.366772 0,0.294502 -0.122255,0.366772 -0.620461,0.366772 -0.466233,0 -0.644302,-0.09117 -0.716375,-0.366772 z m 6.838418,-1.202832 c 0,-0.302601 -0.28983,-0.353725 -0.458466,-0.08087 -0.149551,0.24198 0.06973,0.585381 0.287753,0.450633 0.09389,-0.05803 0.170713,-0.224422 0.170713,-0.369763 z m -3.239153,-0.631028 c 0.05208,0 0.125478,0.144416 0.1631,0.320925 0.0473,0.221895 0.100173,0.165373 0.17136,-0.18317 0.05663,-0.277253 0.0046,-0.638682 -0.115734,-0.803176 -0.190529,-0.2605658 -0.269908,-0.2008241 -0.61638,0.463896 -0.485263,0.930998 -0.501,1.165234 -0.04126,0.614143 0.189319,-0.22694 0.386833,-0.412618 0.438917,-0.412618 z M 40.7719,10.912399 c 0,-0.203762 -0.122256,-0.366773 -0.275079,-0.366773 -0.151294,0 -0.276342,-0.144416 -0.277887,-0.320925 -0.0023,-0.2742623 -0.02865,-0.2809287 -0.180579,-0.04585 -0.259006,0.400786 -0.22244,0.737021 0.06803,0.625557 0.138278,-0.05306 0.300735,0.03205 0.361018,0.189142 0.152424,0.397211 0.304498,0.35668 0.304498,-0.08115 z m 0.925531,-0.169469 c 0.212288,0.343491 0.361246,0.14684 0.409426,-0.540515 0.02469,-0.352185 0.123819,-0.5450812 0.254495,-0.4952003 0.237434,0.090633 0.427795,-0.282208 0.427795,-0.8378839 0,-0.2044814 -0.08322,-0.3111632 -0.190848,-0.244647 -0.104963,0.064875 -0.13695,0.2966825 -0.07108,0.5151343 0.09376,0.3109676 0.07063,0.3505359 -0.106584,0.1822838 -0.124489,-0.1181966 -0.340072,-0.1712598 -0.479077,-0.1179193 -0.165436,0.063482 -0.252729,-0.03648 -0.252729,-0.28941 0,-0.4656123 -0.137076,-0.4851495 -0.581567,-0.08289 -0.38474,0.348185 -0.44411,0.7954825 -0.106131,0.7996225 0.165996,0.00202 0.159516,0.046965 -0.02351,0.1628828 -0.138997,0.088041 -0.19519,0.2531711 -0.124866,0.3669561 0.07032,0.113784 0.211394,0.155252 0.313496,0.09215 0.103338,-0.06387 0.16966,0.03643 0.149597,0.226241 -0.05449,0.515564 0.03683,0.754343 0.137733,0.360201 0.06994,-0.273115 0.122153,-0.293889 0.243834,-0.09701 z m -0.31011,-0.7902267 c -0.189825,-0.3071411 0.124938,-0.3957848 0.406302,-0.1144227 0.250337,0.2503364 0.249043,0.2794454 -0.01244,0.2794454 -0.160532,0 -0.337775,-0.07426 -0.393869,-0.1650227 z M 40.588512,9.4603091 c 0,-0.1934752 0.05009,-0.4823085 0.111317,-0.6418514 0.06122,-0.1595426 0.02899,-0.2900774 -0.07163,-0.2900774 -0.100617,0 -0.21666,0.2888325 -0.257873,0.6418506 -0.04121,0.3530182 -0.009,0.6418514 0.07163,0.6418514 0.08061,0 0.14656,-0.1582976 0.14656,-0.3517732 z M 21.791447,13.743727 C 19.81443,12.25848 19.682507,12.053313 19.682507,10.463879 V 9.0785385 h 1.841574 1.841575 l -0.05356,1.4212415 -0.05356,1.421242 -1.421241,0.05356 c -1.876608,0.07072 -1.838769,0.404905 0.04585,0.404905 h 1.467089 v 1.100316 c 0,0.760603 -0.07077,1.098808 -0.229233,1.095431 -0.126078,-0.0027 -0.724374,-0.376866 -1.329548,-0.831507 z m 2.108939,-0.263923 v -0.916931 h 0.727789 c 0.554151,0 0.703891,0.06228 0.627628,0.261015 -0.19398,0.505505 1.025739,0.823747 2.076997,0.541918 0.223601,-0.05995 0.456101,-0.265127 0.51667,-0.455961 0.101537,-0.319916 0.323151,-0.346972 2.842103,-0.346972 2.544295,0 2.745467,0.0252 2.928272,0.366772 0.114785,0.214479 0.383978,0.366772 0.648303,0.366772 0.379979,0 0.452013,0.08767 0.452013,0.550158 v 0.550158 h -5.409888 -5.409887 z m 23.134317,0.125041 c -0.21316,-0.256842 0.107142,-0.902563 0.676054,-1.362898 0.322308,-0.260795 2.597216,-0.318138 2.597216,-0.06546 0,0.211868 -0.462107,0.386392 -1.023093,0.386392 -0.248632,0 -0.754593,0.281562 -1.153389,0.641852 -0.802857,0.72533 -0.821302,0.73206 -1.096788,0.40012 z M 23.900386,11.004092 V 9.6286967 l 3.438488,-0.036907 c 1.891169,-0.020302 2.807688,-0.064875 2.036709,-0.099057 -1.209185,-0.053612 -1.414691,-0.1115318 -1.495766,-0.42156 -0.08153,-0.3117533 -0.256591,-0.3594083 -1.320334,-0.3594083 -1.072119,0 -1.238408,0.046127 -1.322259,0.3667725 -0.07143,0.2731453 -0.250143,0.3667718 -0.700087,0.3667718 h -0.604175 l -0.06214,-1.1006505 -0.06214,-1.10065 5.455734,3.298e-4 5.455735,3.383e-4 V 7.863605 c 0,0.5347606 -0.07157,0.6332427 -0.526323,0.7241925 -0.316314,0.06326 -0.564494,0.2512414 -0.621993,0.4711162 -0.07745,0.2961872 -0.282781,0.3788075 -1.078302,0.4338933 -0.699913,0.048462 -0.520954,0.077803 0.621996,0.101965 l 1.604627,0.03392 v 1.375395 1.375395 h -5.409888 -5.409887 z m 26.524657,0.91693 c -0.06689,-0.174313 -0.348386,-0.275079 -0.768446,-0.275079 -0.910754,0 -0.736932,-0.43982 0.204709,-0.517973 0.394344,-0.03273 0.773663,-0.151209 0.842929,-0.263287 0.169956,-0.274996 0.704054,0.167763 0.704054,0.583651 0,0.63225 -0.778415,1.006467 -0.983246,0.472688 z M 44.376005,9.4323302 C 44.088857,8.9210844 43.88255,8.4744599 43.917539,8.4398306 c 0.220575,-0.2183084 2.964047,-1.1809849 3.109474,-1.0911069 0.20934,0.1293778 0.101995,0.5242662 -0.532523,1.9590474 -0.422229,0.9547519 -0.519765,1.0544519 -1.031365,1.0542829 -0.488071,-1.61e-4 -0.636157,-0.126806 -1.08712,-0.9297238 z m 1.519691,-0.389241 c 0.361193,-0.645617 0.180431,-0.795124 -0.522101,-0.4318291 -0.353332,0.1827141 -0.567204,0.4346412 -0.567204,0.6681281 0,0.5465615 0.741292,0.3857557 1.089305,-0.236299 z M 19.865893,8.7910403 c 0,-0.057258 0.763344,-0.4616039 1.696321,-0.8985394 l 1.69632,-0.7944274 0.05806,0.6427455 c 0.100294,1.1101499 0.03161,1.154333 -1.794478,1.154333 -0.910925,0 -1.656228,-0.046847 -1.656228,-0.1041117 z M 3.727923,6.5180031 c 0,-0.097083 0.3551149,-0.6128569 0.7891441,-1.1461619 C 5.2659946,4.4516102 5.3547796,4.3993696 6.2592338,4.3467644 L 7.2122576,4.2913362 V 5.4929286 6.6945219 H 5.4700899 c -0.9939858,0 -1.7421669,-0.075806 -1.7421669,-0.1765165 z M 6.4594222,5.8925268 C 6.9147894,5.3438429 6.1627744,4.6526384 5.6587829,5.1566297 5.320799,5.4946136 5.3097231,5.6355615 5.5984613,5.9242983 5.8885199,6.2143563 6.2019276,6.2027909 6.4594238,5.8925245 Z M 7.5790293,5.5483832 7.6707225,4.4021947 11.200903,4.3523876 c 3.341619,-0.047146 3.530181,-0.031523 3.530181,0.2925025 0,0.1882702 0.150915,0.4788854 0.335366,0.6458112 0.302773,0.2740061 1.238439,0.3035015 9.627766,0.3035015 h 9.292401 v 0.5423231 0.5423226 l -9.811152,0.010821 c -9.718855,0.010714 -9.811153,0.00734 -9.811153,-0.3589365 0,-0.4781327 -0.372183,-0.4803665 -0.497022,-0.00297 -0.09121,0.3487671 -0.250152,0.3667737 -3.237934,0.3667984 L 7.4873365,6.69459 Z M 34.57414,5.6858967 34.628466,4.9523528 h 3.759414 3.759414 l 0.05649,0.6805555 0.05649,0.680556 -3.870231,0.052989 -3.870232,0.052989 z m 8.029531,-0.091693 -0.0896,-0.8252372 H 38.36529 c -3.243732,0 -4.129569,-0.050008 -4.060719,-0.2292324 0.06313,-0.1643217 0.664234,-0.2292325 2.122804,-0.2292325 2.027875,0 2.036725,-0.00194 2.622436,-0.5696165 0.561044,-0.5437849 0.655686,-0.5694343 2.08696,-0.5655889 0.824593,0.00222 1.537216,0.041982 1.583604,0.088372 0.04639,0.04639 0.05927,0.7754155 0.02861,1.6200584 -0.04254,1.1724077 -0.07692,1.340486 -0.145324,0.7104772 z M 42.055602,4.0354224 c 0,-0.1512933 -0.123785,-0.275079 -0.275079,-0.275079 -0.286371,0 -0.363833,0.2168901 -0.152819,0.4279006 0.211006,0.2110105 0.427898,0.133549 0.427898,-0.1528216 z M 15.134533,5.0073686 c -0.317992,-0.3179924 -0.270234,-0.6968672 0.08784,-0.6968672 0.169348,0 0.59543,0.1031546 0.94685,0.2292325 0.511156,0.1833858 0.654356,0.1833858 0.715999,0 0.09195,-0.2735258 0.710896,-0.3060778 0.871729,-0.045849 0.06234,0.1008624 0.314778,0.1833858 0.560981,0.1833858 0.246203,0 0.447642,-0.082523 0.447642,-0.1833858 0,-0.3323593 0.683774,-0.1909477 0.940409,0.1944874 l 0.2516,0.3778732 0.404951,-0.3778732 c 0.477618,-0.4456811 0.889513,-0.4865207 1.036762,-0.1027942 0.137657,0.3587295 0.565539,0.3505687 0.933919,-0.017813 0.312651,-0.3126513 0.868704,-0.2239842 0.789479,0.125888 -0.08194,0.3618394 0.607616,0.3390318 0.924075,-0.030566 0.375362,-0.4383902 0.696834,-0.4492597 0.936518,-0.031668 0.175428,0.3056432 0.2115,0.3056432 0.757518,0 0.723872,-0.4051999 0.910368,-0.4038587 0.910368,0.00658 0,0.4385601 0.748246,0.4411086 1.064868,0.0036 0.291345,-0.4025542 0.692022,-0.4294269 0.83531,-0.056024 0.05805,0.1512933 0.305627,0.2750791 0.550158,0.2750791 0.244529,0 0.492101,-0.1237858 0.550158,-0.2750791 0.132662,-0.3457121 0.667227,-0.3628479 0.667227,-0.021389 0,0.4218394 0.721128,0.4947569 0.968923,0.097974 0.281775,-0.4511934 0.617105,-0.4479704 0.861282,0.00828 0.210109,0.3925921 0.671152,0.3339389 1.049315,-0.1334914 0.289053,-0.3572884 0.7882,-0.1559385 0.7882,0.3179508 0,0.3695573 -0.07428,0.3725273 -9.31601,0.3725273 -7.001271,0 -9.370689,-0.05468 -9.536074,-0.2200633 z"
       id="path989" />
  </g>
</svg>
